<?xml version="1.0" encoding="UTF-8"?>
<!-- Generator: visioncortex VTracer -->
<svg id="svg" version="1.1" xmlns="http://www.w3.org/2000/svg" style="display: block;" viewBox="0 0 500 500"><path d="M0 0 C2.20308031 1.569391 2.20308031 1.569391 5.171875 2.41796875 C5.171875 3.07796875 5.171875 3.73796875 5.171875 4.41796875 C5.708125 4.63839844 6.244375 4.85882813 6.796875 5.0859375 C9.9841047 6.87351205 12.51542615 9.25484253 15.171875 11.73046875 C15.69265625 12.20419922 16.2134375 12.67792969 16.75 13.16601562 C19.86438016 16.0405256 22.69373168 18.95690801 25.171875 22.41796875 C25.171875 23.07796875 25.171875 23.73796875 25.171875 24.41796875 C25.831875 24.41796875 26.491875 24.41796875 27.171875 24.41796875 C28.6796875 26.53515625 28.6796875 26.53515625 30.296875 29.29296875 C30.83570313 30.19789062 31.37453125 31.1028125 31.9296875 32.03515625 C33.171875 34.41796875 33.171875 34.41796875 33.171875 36.41796875 C33.831875 36.74796875 34.491875 37.07796875 35.171875 37.41796875 C36.39105335 39.94641251 37.49515695 42.44518578 38.546875 45.04296875 C38.85705566 45.80552979 39.16723633 46.56809082 39.48681641 47.35375977 C45.04845242 61.37401974 47.20327629 74.67845535 47.359375 89.66796875 C47.37258789 90.53252686 47.38580078 91.39708496 47.39941406 92.2878418 C47.40501954 97.11089202 46.92745086 100.8629611 45.171875 105.41796875 C45.048125 106.65546875 44.924375 107.89296875 44.796875 109.16796875 C44.34703753 113.56449348 42.764379 117.28715885 41.01171875 121.31640625 C40.04817731 123.35030697 40.04817731 123.35030697 40.171875 125.41796875 C39.511875 125.41796875 38.851875 125.41796875 38.171875 125.41796875 C37.96691406 126.03285156 37.76195312 126.64773437 37.55078125 127.28125 C36.42447917 130.66015625 35.29817708 134.0390625 34.171875 137.41796875 C33.511875 137.41796875 32.851875 137.41796875 32.171875 137.41796875 C31.92050781 138.30355469 31.66914063 139.18914062 31.41015625 140.1015625 C27.67353326 150.10911114 18.09124644 157.67981701 10.2578125 164.55078125 C8.99721906 165.67917763 7.7622977 166.83861571 6.58203125 168.05078125 C4.74622012 169.83065354 2.63778678 170.94729906 0.40625 172.16796875 C-1.35400604 173.15272737 -3.08854468 174.18345924 -4.8125 175.23046875 C-5.86953125 175.86984375 -6.9265625 176.50921875 -8.015625 177.16796875 C-9.01980469 177.7815625 -10.02398437 178.39515625 -11.05859375 179.02734375 C-13.828125 180.41796875 -13.828125 180.41796875 -17.828125 180.41796875 C-17.828125 181.07796875 -17.828125 181.73796875 -17.828125 182.41796875 C-20.11743774 183.11432628 -22.4090007 183.80031252 -24.703125 184.48046875 C-25.35410156 184.67962891 -26.00507813 184.87878906 -26.67578125 185.08398438 C-31.6015625 186.53125 -31.6015625 186.53125 -33.828125 185.41796875 C-33.828125 187.39796875 -33.828125 189.37796875 -33.828125 191.41796875 C-32.1575 191.20140625 -32.1575 191.20140625 -30.453125 190.98046875 C-24.36029056 190.99129084 -20.19526078 194.47394648 -15.828125 198.41796875 C-11.28632778 203.59245414 -9.24109524 210.17281038 -6.94140625 216.5625 C-5.89318383 219.55283329 -5.89318383 219.55283329 -3.828125 222.41796875 C-3.828125 223.73796875 -3.828125 225.05796875 -3.828125 226.41796875 C-3.168125 226.74796875 -2.508125 227.07796875 -1.828125 227.41796875 C-1.08203125 229.16796875 -1.08203125 229.16796875 -0.390625 231.41796875 C-0.16503906 232.13984375 0.06054688 232.86171875 0.29296875 233.60546875 C0.58300781 234.53359375 0.87304688 235.46171875 1.171875 236.41796875 C1.5946875 237.66707031 2.0175 238.91617188 2.453125 240.203125 C4.60716768 246.64725268 6.58261256 253.14699931 8.56079102 259.64672852 C9.00950028 261.11808507 9.46034429 262.58879232 9.91333008 264.05883789 C12.19040462 271.44882249 14.42820665 278.78094076 15.80639648 286.40307617 C16.29394159 289.09092503 16.97486067 291.71514815 17.671875 294.35546875 C18.86082486 299.02804171 19.81824115 303.68823325 20.640625 308.4375 C21.26534599 311.94236848 21.96622184 315.42851386 22.671875 318.91796875 C22.92582031 320.1915625 23.17976563 321.46515625 23.44140625 322.77734375 C23.88699759 324.99815193 24.34066363 327.21738482 24.80859375 329.43359375 C26.09649665 335.82743793 26.39873231 341.90212276 26.171875 348.41796875 C26.831875 348.74796875 27.491875 349.07796875 28.171875 349.41796875 C28.55078125 352.26171875 28.55078125 352.26171875 28.734375 355.91796875 C29.10450391 365.80985521 29.10450391 365.80985521 31.171875 375.41796875 C31.171875 377.41796875 31.171875 379.41796875 31.171875 381.41796875 C31.501875 382.07796875 31.831875 382.73796875 32.171875 383.41796875 C32.171875 385.4362248 32.1695576 387.45460759 32.140625 389.47265625 C32.0987491 391.44693759 32.0987491 391.44693759 32.671875 393.41796875 C33.171875 395.41796875 33.171875 395.41796875 33.14453125 398.90234375 C33.11427831 403.86382632 33.59366176 408.73760392 34.109375 413.66796875 C34.19638672 414.55226563 34.28339844 415.4365625 34.37304688 416.34765625 C34.80949963 421.00641887 34.80949963 421.00641887 35.76782227 425.57324219 C36.171875 427.41796875 36.171875 427.41796875 35.171875 429.41796875 C28.74330357 430.70368304 28.74330357 430.70368304 26.171875 429.41796875 C25.841875 430.07796875 25.511875 430.73796875 25.171875 431.41796875 C24.0375 431.37671875 22.903125 431.33546875 21.734375 431.29296875 C14.17095366 431.26864907 6.65990694 432.45509897 -0.828125 433.41796875 C-1.33180756 432.15744183 -1.82769447 430.89379823 -2.3203125 429.62890625 C-2.5972998 428.92556152 -2.87428711 428.2222168 -3.15966797 427.49755859 C-4.143764 424.43600637 -3.93841886 421.61649076 -3.828125 418.41796875 C-4.17940311 413.17807026 -4.88309868 407.97270132 -5.56323242 402.76733398 C-6.51918504 395.41663102 -7.16776316 388.12060325 -7.61328125 380.71875 C-7.86330531 373.86340085 -7.86330531 373.86340085 -9.828125 367.41796875 C-9.8075 366.42796875 -9.786875 365.43796875 -9.765625 364.41796875 C-9.72378633 361.4892618 -10.07374396 358.90201751 -10.703125 356.04296875 C-11.70262478 351.44387184 -12.26660017 346.84255 -12.765625 342.16796875 C-13.60932812 334.4519202 -15.06156615 326.97884061 -16.828125 319.41796875 C-17.49994763 316.41910834 -18.16466596 313.41868959 -18.828125 310.41796875 C-18.82026978 311.88713745 -18.82026978 311.88713745 -18.81225586 313.38598633 C-18.7296839 330.34637212 -18.69287913 347.27189707 -19.47460938 364.21850586 C-19.74398481 370.52464168 -19.85739421 376.81054442 -19.82421875 383.12109375 C-19.8206839 383.87969696 -19.81714905 384.63830017 -19.81350708 385.41989136 C-19.79313711 389.11447703 -19.75864619 392.80822191 -19.703125 396.50244141 C-19.60527149 408.07497839 -20.71216473 418.70038596 -21.828125 430.41796875 C-46.578125 430.41796875 -71.328125 430.41796875 -96.828125 430.41796875 C-97.46367624 423.42690511 -97.97839777 416.7285463 -97.9609375 409.75390625 C-97.96189423 408.87755524 -97.96285095 408.00120422 -97.96383667 407.09829712 C-97.96451138 405.25807625 -97.96270711 403.4178529 -97.95849609 401.57763672 C-97.953177 398.81992999 -97.95844537 396.06238902 -97.96484375 393.3046875 C-97.96418209 391.4960934 -97.96289912 389.6874994 -97.9609375 387.87890625 C-97.96296173 387.08245697 -97.96498596 386.28600769 -97.96707153 385.46542358 C-97.94906535 380.87223599 -97.7709136 376.31476491 -97.46401787 371.73123264 C-96.79646191 361.69364644 -96.7093107 351.69928827 -96.75296021 341.64185905 C-96.76595709 338.61804887 -96.77229644 335.59428353 -96.77709961 332.57044983 C-96.78840099 326.16543561 -96.80767791 319.76045943 -96.828125 313.35546875 C-96.8518199 305.89296802 -96.87214422 298.43048804 -96.88406372 290.96795845 C-96.8905038 288.00114698 -96.90300149 285.03440165 -96.91577148 282.06761169 C-96.91940498 280.24291032 -96.92275659 278.41820835 -96.92578125 276.59350586 C-96.93094757 275.77935715 -96.93611389 274.96520844 -96.94143677 274.12638855 C-96.94189469 269.13152313 -96.51047457 264.3660235 -95.828125 259.41796875 C-95.7668759 257.41879828 -95.7406256 255.41792101 -95.765625 253.41796875 C-95.77464844 252.46921875 -95.78367187 251.52046875 -95.79296875 250.54296875 C-95.81037109 249.49109375 -95.81037109 249.49109375 -95.828125 248.41796875 C-96.55 249.16046875 -97.271875 249.90296875 -98.015625 250.66796875 C-100.828125 253.41796875 -100.828125 253.41796875 -103.578125 255.60546875 C-105.90299888 257.22105952 -105.90299888 257.22105952 -106.828125 259.41796875 C-109.48568564 261.16636391 -111.80194945 262.40924357 -114.828125 263.41796875 C-114.828125 264.07796875 -114.828125 264.73796875 -114.828125 265.41796875 C-116.80759092 266.78160083 -118.8100495 268.11215519 -120.828125 269.41796875 C-121.84832073 270.39735665 -122.84962305 271.39692324 -123.828125 272.41796875 C-125.4757134 273.77480626 -127.14729421 275.10253596 -128.828125 276.41796875 C-129.57191406 277.01609375 -130.31570313 277.61421875 -131.08203125 278.23046875 C-131.88511719 278.86984375 -132.68820312 279.50921875 -133.515625 280.16796875 C-134.28261719 280.7815625 -135.04960937 281.39515625 -135.83984375 282.02734375 C-137.828125 283.41796875 -137.828125 283.41796875 -139.828125 283.41796875 C-140.158125 284.07796875 -140.488125 284.73796875 -140.828125 285.41796875 C-142.48490518 286.54772395 -144.1792397 287.62277608 -145.890625 288.66796875 C-149.37028292 290.83209148 -152.72191595 293.02327846 -155.953125 295.54296875 C-161.43705741 299.74318803 -166.93672898 303.29555223 -173.828125 304.41796875 C-174.529375 303.51046875 -175.230625 302.60296875 -175.953125 301.66796875 C-177.83521433 299.38141897 -179.6327811 297.74058346 -182.140625 296.16796875 C-183.0275 295.59046875 -183.914375 295.01296875 -184.828125 294.41796875 C-184.828125 293.75796875 -184.828125 293.09796875 -184.828125 292.41796875 C-185.488125 292.41796875 -186.148125 292.41796875 -186.828125 292.41796875 C-188.54042748 290.79822316 -190.19975762 289.12207415 -191.828125 287.41796875 C-194.41207612 284.76776248 -196.98275379 282.28911142 -199.828125 279.91796875 C-202.67636512 277.54443531 -205.31951478 275.14792693 -207.828125 272.41796875 C-207.828125 271.75796875 -207.828125 271.09796875 -207.828125 270.41796875 C-208.488125 270.41796875 -209.148125 270.41796875 -209.828125 270.41796875 C-209.828125 269.75796875 -209.828125 269.09796875 -209.828125 268.41796875 C-210.488125 268.41796875 -211.148125 268.41796875 -211.828125 268.41796875 C-211.828125 267.75796875 -211.828125 267.09796875 -211.828125 266.41796875 C-212.488125 266.41796875 -213.148125 266.41796875 -213.828125 266.41796875 C-215.0625 265.16015625 -215.0625 265.16015625 -216.578125 263.29296875 C-220.12188866 259.10894526 -223.92943795 255.26593034 -227.828125 251.41796875 C-232.24715847 247.0517293 -236.54124821 242.67117013 -240.49609375 237.87109375 C-241.96081991 236.15723761 -241.96081991 236.15723761 -244.828125 234.41796875 C-245.3025 233.61359375 -245.776875 232.80921875 -246.265625 231.98046875 C-247.87079145 229.34799578 -249.37136183 228.19700415 -251.828125 226.41796875 C-251.828125 225.75796875 -251.828125 225.09796875 -251.828125 224.41796875 C-252.488125 224.41796875 -253.148125 224.41796875 -253.828125 224.41796875 C-254.49521484 223.24427734 -254.49521484 223.24427734 -255.17578125 222.046875 C-257.06874848 219.03513281 -257.99922055 218.56273184 -261.265625 217.35546875 C-267.21637313 214.86668401 -272.62609034 211.69306828 -278.140625 208.35546875 C-279.43021118 207.57707642 -279.43021118 207.57707642 -280.74584961 206.78295898 C-283.11559714 205.34191812 -285.47436294 203.8849427 -287.828125 202.41796875 C-288.7879126 201.82846436 -288.7879126 201.82846436 -289.76708984 201.22705078 C-291.15774086 200.34653603 -292.50025603 199.39058403 -293.828125 198.41796875 C-293.828125 197.75796875 -293.828125 197.09796875 -293.828125 196.41796875 C-294.55 196.17046875 -295.271875 195.92296875 -296.015625 195.66796875 C-299.09085077 194.30120174 -301.26249216 192.57850167 -303.828125 190.41796875 C-305.313125 189.42796875 -305.313125 189.42796875 -306.828125 188.41796875 C-306.828125 187.75796875 -306.828125 187.09796875 -306.828125 186.41796875 C-308.478125 185.75796875 -310.128125 185.09796875 -311.828125 184.41796875 C-311.828125 183.75796875 -311.828125 183.09796875 -311.828125 182.41796875 C-312.6634375 182.04671875 -312.6634375 182.04671875 -313.515625 181.66796875 C-320.70370708 177.78251897 -327.85114205 170.4169433 -330.453125 162.54296875 C-330.828125 159.41796875 -330.828125 159.41796875 -330.328125 157.16796875 C-327.75240746 154.16296495 -324.8072282 152.67422713 -320.8671875 152.1640625 C-316.49067518 152.03830065 -312.92817519 152.77794867 -308.828125 154.41796875 C-311.65877927 148.28488451 -315.11789472 142.82661694 -318.92578125 137.25 C-326.10499533 126.5622583 -326.10499533 126.5622583 -326.828125 121.41796875 C-325.63917905 116.55339252 -324.01960629 113.21228961 -319.828125 110.41796875 C-313.53269596 109.77775563 -309.02020766 110.71086446 -303.828125 114.41796875 C-301.62135632 116.61065167 -299.68007563 118.92064139 -297.828125 121.41796875 C-297.828125 118.66246077 -298.97697794 116.52063789 -300.01391602 114.00878906 C-303.30781992 105.91849878 -305.15786235 100.38792072 -301.828125 91.85546875 C-298.96352071 89.79653442 -296.57666907 89.86973947 -293.109375 90.02734375 C-287.95956477 90.90916057 -284.15482182 94.57947242 -280.828125 98.41796875 C-280.828125 99.07796875 -280.828125 99.73796875 -280.828125 100.41796875 C-280.168125 100.41796875 -279.508125 100.41796875 -278.828125 100.41796875 C-277.27734375 102.54296875 -277.27734375 102.54296875 -275.515625 105.41796875 C-274.94199219 106.34609375 -274.36835938 107.27421875 -273.77734375 108.23046875 C-273.13410156 109.28234375 -272.49085938 110.33421875 -271.828125 111.41796875 C-270.1657942 114.08735222 -268.49753156 116.75300573 -266.828125 119.41796875 C-266.81354248 118.63671631 -266.79895996 117.85546387 -266.78393555 117.05053711 C-266.70912002 113.48503507 -266.61256867 109.92043498 -266.515625 106.35546875 C-266.49306641 105.12634766 -266.47050781 103.89722656 -266.44726562 102.63085938 C-266.09868251 90.87410169 -266.09868251 90.87410169 -262.828125 85.41796875 C-259.953125 83.79296875 -259.953125 83.79296875 -256.828125 83.41796875 C-252.81376447 85.33290143 -250.63092587 87.58735445 -248.140625 91.23046875 C-247.55925781 92.06191406 -246.97789062 92.89335937 -246.37890625 93.75 C-243.67876451 98.39533201 -242.54599238 103.33402429 -241.390625 108.54296875 C-240.3930181 112.97902785 -239.33709886 117.38983123 -238.203125 121.79296875 C-237.13723548 126.00072111 -236.3180325 130.10678277 -235.828125 134.41796875 C-235.39242187 133.6703125 -234.95671875 132.92265625 -234.5078125 132.15234375 C-228.19914973 121.71983649 -228.19914973 121.71983649 -222.828125 119.41796875 C-218.74167563 118.66690197 -215.68542258 118.92264126 -212.015625 121.04296875 C-209.08558214 124.22415814 -206.89924869 127.12146968 -206.76049805 131.6015625 C-206.94699678 134.12045304 -207.23844446 136.60267062 -207.578125 139.10546875 C-207.79223662 140.88665033 -208.00578222 142.66790004 -208.21875 144.44921875 C-208.38020508 145.72925781 -208.38020508 145.72925781 -208.54492188 147.03515625 C-209.00248211 150.88497344 -209.24372534 154.7487442 -209.484375 158.6171875 C-209.5978125 159.21144531 -209.71125 159.80570313 -209.828125 160.41796875 C-210.488125 160.74796875 -211.148125 161.07796875 -211.828125 161.41796875 C-211.6425 161.97484375 -211.456875 162.53171875 -211.265625 163.10546875 C-210.74438145 165.86061322 -211.0323381 167.741231 -211.828125 170.41796875 C-212.488125 170.74796875 -213.148125 171.07796875 -213.828125 171.41796875 C-213.786875 172.55234375 -213.745625 173.68671875 -213.703125 174.85546875 C-213.73199704 183.1128708 -216.47380224 190.65691133 -219.12109375 198.40234375 C-219.87435831 201.61516278 -219.87522312 203.3131405 -218.828125 206.41796875 C-217.63523703 208.29983245 -217.63523703 208.29983245 -216.078125 209.91796875 C-215.26408203 210.81322266 -215.26408203 210.81322266 -214.43359375 211.7265625 C-211.24536882 215.08544667 -208.04587172 218.24736172 -204.453125 221.16796875 C-200.89192873 224.16401865 -198.23733665 227.60228939 -195.453125 231.3125 C-193.44496486 233.91441902 -191.21219292 236.15937809 -188.828125 238.41796875 C-187.16145833 240.08463542 -185.49479167 241.75130208 -183.828125 243.41796875 C-183.19519531 244.03929687 -182.56226563 244.660625 -181.91015625 245.30078125 C-177.97668977 249.18258869 -174.28083617 253.10207978 -170.828125 257.41796875 C-167.88267859 256.09759622 -166.08443066 254.68479332 -163.828125 252.41796875 C-162.17809794 251.02304456 -160.50992322 249.6494191 -158.828125 248.29296875 C-157.961875 247.58914063 -157.095625 246.8853125 -156.203125 246.16015625 C-153.828125 244.41796875 -153.828125 244.41796875 -150.828125 243.41796875 C-150.828125 242.75796875 -150.828125 242.09796875 -150.828125 241.41796875 C-149.19058517 240.10319898 -147.49050227 238.86586467 -145.765625 237.66796875 C-142.34649044 235.25394563 -139.06391713 232.84337142 -135.953125 230.04296875 C-133.41551964 227.79275484 -131.11997404 226.41549876 -127.828125 225.41796875 C-127.828125 224.75796875 -127.828125 224.09796875 -127.828125 223.41796875 C-126.19116211 222.15405273 -126.19116211 222.15405273 -123.91796875 220.7265625 C-118.92064364 217.50415278 -114.15663298 214.03312568 -109.390625 210.48046875 C-103.537598 206.13681671 -97.67754116 201.83569862 -91.640625 197.75 C-89.78962185 196.48157243 -89.78962185 196.48157243 -88.37109375 194.81640625 C-86.37830447 193.01028331 -84.76393225 192.72471504 -82.140625 192.23046875 C-81.33238281 192.07191406 -80.52414062 191.91335937 -79.69140625 191.75 C-79.07652344 191.64042969 -78.46164062 191.53085938 -77.828125 191.41796875 C-77.828125 189.76796875 -77.828125 188.11796875 -77.828125 186.41796875 C-78.70855469 186.23621094 -79.58898437 186.05445313 -80.49609375 185.8671875 C-81.65753906 185.61582031 -82.81898438 185.36445313 -84.015625 185.10546875 C-85.16417969 184.86183594 -86.31273437 184.61820313 -87.49609375 184.3671875 C-90.74161301 183.44261402 -93.01803316 182.24452845 -95.828125 180.41796875 C-96.83875 180.00546875 -97.849375 179.59296875 -98.890625 179.16796875 C-107.13861304 175.71029691 -114.69338149 171.01986749 -121.20703125 164.8984375 C-122.96740758 163.21569637 -122.96740758 163.21569637 -125.828125 161.41796875 C-126.84007506 160.32236415 -127.81777037 159.19447384 -128.765625 158.04296875 C-130.38167466 156.08647129 -131.99278336 154.25688286 -133.80859375 152.48046875 C-137.35487825 148.85873139 -140.02402073 144.62412515 -142.828125 140.41796875 C-143.35921875 139.63164062 -143.8903125 138.8453125 -144.4375 138.03515625 C-150.95687997 127.85282568 -154.34161818 116.1709606 -156.828125 104.41796875 C-157.04597656 103.42667969 -157.26382813 102.43539062 -157.48828125 101.4140625 C-162.49053806 74.94516719 -153.40046901 50.26714453 -140.828125 27.41796875 C-140.168125 27.41796875 -139.508125 27.41796875 -138.828125 27.41796875 C-138.456875 26.61359375 -138.456875 26.61359375 -138.078125 25.79296875 C-134.63240496 19.24610067 -130.41610892 15.09815745 -124.828125 10.41796875 C-122.71218537 8.51733526 -120.59958915 6.61322012 -118.4921875 4.703125 C-116.828125 3.41796875 -116.828125 3.41796875 -114.828125 3.41796875 C-114.828125 2.75796875 -114.828125 2.09796875 -114.828125 1.41796875 C-78.70581815 -18.69552194 -35.88757485 -24.63192638 0 0 Z " transform="translate(402.828125,49.58203125)" style="fill: #000000;"/><path d="M0 0 C14.90900174 12.93636223 26.93749583 31.69732042 29.1171875 51.68359375 C29.41268261 56.26839618 29.51969022 60.83988872 29.5546875 65.43359375 C29.57015625 67.12029175 29.57015625 67.12029175 29.5859375 68.84106445 C29.34962609 91.20367274 19.31483184 111.08724916 3.953125 126.93359375 C-12.85541723 143.23278622 -35.23287845 151.00172074 -58.36401367 151.06640625 C-78.3984098 150.73743986 -96.92965525 142.84016094 -111.8828125 129.68359375 C-112.6871875 129.07515625 -113.4915625 128.46671875 -114.3203125 127.83984375 C-128.75538368 115.69325946 -138.54243692 95.16372925 -140.8828125 76.68359375 C-141.39415218 66.02934323 -141.68816674 55.03935856 -138.8828125 44.68359375 C-138.62628906 43.66523437 -138.36976563 42.646875 -138.10546875 41.59765625 C-131.9424104 19.32600331 -116.51695417 1.32894371 -96.703125 -10.16015625 C-64.94883856 -27.15337983 -27.7905699 -22.33036308 0 0 Z " transform="translate(402.8828125,70.31640625)" style="fill: #FCFCFC;"/><path d="M0 0 C3.37880221 1.68940111 3.78430805 5.17558275 4.97900391 8.60791016 C6.66156308 14.1979334 7.76780311 19.88599859 8.81030273 25.62280273 C9.1843188 27.67008679 9.57837317 29.7127741 9.97460938 31.75585938 C11.74777556 41.15765566 12.60860024 50.44458472 13 60 C15.97 60 18.94 60 22 60 C22.36351562 58.96101563 22.72703125 57.92203125 23.1015625 56.8515625 C29.75459061 38.24540939 29.75459061 38.24540939 36 32 C36.99 32 37.98 32 39 32 C39.2033904 40.59107136 38.74977301 48.76991866 37.375 57.25 C37.2004126 58.35537109 37.0258252 59.46074219 36.84594727 60.59960938 C35.03035259 71.60699314 32.61827661 82.49366603 29.70996094 93.2644043 C29.23430418 95.09718764 28.82110886 96.94724998 28.46972656 98.80786133 C27.07511068 105.21970713 27.07511068 105.21970713 24.12768555 107.35888672 C21.73054123 108.38257271 19.40515074 109.06466381 16.875 109.6875 C16.05773437 109.93693359 15.24046875 110.18636719 14.3984375 110.44335938 C7.1050528 112.49173878 0.70673214 112.63692221 -6.10546875 109.06640625 C-7.47723111 108.25011805 -8.83772482 107.41465338 -10.1875 106.5625 C-10.9187207 106.11583984 -11.64994141 105.66917969 -12.40332031 105.20898438 C-19.51305086 100.80669355 -26.31396273 96.01648065 -33 91 C-33.84304687 90.37327393 -33.84304687 90.37327393 -34.703125 89.73388672 C-44.63992956 82.32971383 -54.17521949 74.678018 -62 65 C-54.90451858 65.97868709 -49.83161547 68.54455213 -43.87451172 72.34375 C-40.53114171 74.46871675 -40.53114171 74.46871675 -36.69140625 74.8359375 C-34.70316043 73.85329407 -33.44914499 72.66651674 -32 71 C-33.69789423 65.9862182 -36.53032931 61.7946326 -39.375 57.375 C-39.89940674 56.5504834 -40.42381348 55.7259668 -40.96411133 54.87646484 C-43.76589564 50.47312511 -46.59079029 46.08513909 -49.42578125 41.703125 C-50.2458667 40.42622803 -50.2458667 40.42622803 -51.08251953 39.12353516 C-52.13272547 37.48863896 -53.18945137 35.85790812 -54.25341797 34.23193359 C-58.62157967 27.41783738 -58.62157967 27.41783738 -59 23 C-44.479367 25.64881877 -29.05568035 50.97477474 -21 62 C-17.45481116 60.60240095 -17.45481116 60.60240095 -14 59 C-15.69884019 53.17540505 -18.39534484 47.92397407 -21.0625 42.5 C-25.00392201 34.35653897 -28.76866748 26.16377462 -32.25 17.8125 C-32.64453369 16.88695312 -33.03906738 15.96140625 -33.44555664 15.0078125 C-33.7986792 14.14542969 -34.15180176 13.28304687 -34.515625 12.39453125 C-34.82790039 11.64018799 -35.14017578 10.88584473 -35.46191406 10.10864258 C-36.07830371 7.69314469 -35.80108588 6.33166143 -35 4 C-23.01831297 16.4181061 -14.71672284 32.24747079 -6 47 C-1.545 46.505 -1.545 46.505 3 46 C2.67 45.34 2.34 44.68 2 44 C1.49400791 40.76863558 1.23655136 37.5062754 0.9375 34.25 C0.84807129 33.28239746 0.75864258 32.31479492 0.66650391 31.31787109 C-0.21705867 20.87836886 -0.19888935 10.46769962 0 0 Z " transform="translate(146,147)" style="fill: #F9F9F9;"/><path d="M0 0 C2.28125 1.64453125 2.28125 1.64453125 4.5 3.8125 C10.96736599 10.06352805 17.17507977 13.00011013 26.25 13.375 C36.92920094 13.09818579 44.28989731 8.49900764 52.2734375 1.828125 C55.23573949 -0.15806029 56.52034562 -0.51594875 60 0 C61.875 1.125 61.875 1.125 63 3 C63.21834727 6.20242657 62.68863802 8.11638615 60.703125 10.6640625 C51.23338248 19.84049441 37.94587768 25.28848172 24.92333984 25.31689453 C14.73787183 25.11833306 7.00292328 20.97401315 -1 15 C-2.4540625 13.9171875 -2.4540625 13.9171875 -3.9375 12.8125 C-6.76428326 10.32835714 -7.92705516 8.71485944 -8.3125 4.9375 C-8.209375 3.968125 -8.10625 2.99875 -8 2 C-4.73669637 -0.17553576 -3.78501691 -0.53013038 0 0 Z " transform="translate(320,176)" style="fill: #070707;"/><path d="M0 0 C0 1.98 0 3.96 0 6 C-0.58265625 6.03738281 -1.1653125 6.07476562 -1.765625 6.11328125 C-15.75236859 7.23485975 -29.57722662 11.20369317 -41.30078125 19.01171875 C-43 20 -43 20 -45 20 C-45 20.66 -45 21.32 -45 22 C-45.66 22 -46.32 22 -47 22 C-47 22.66 -47 23.32 -47 24 C-47.66 24 -48.32 24 -49 24 C-49 24.66 -49 25.32 -49 26 C-49.886875 26.70125 -50.77375 27.4025 -51.6875 28.125 C-54.90306728 30.68988778 -56.78222696 33.49506152 -58.84375 37.0234375 C-59.85583675 38.75355876 -60.98232573 40.41570473 -62.125 42.0625 C-64.19163973 45.30023557 -65.57598377 48.43995943 -67 52 C-68.65 52 -70.3 52 -72 52 C-72.99886638 48.81063717 -73.11545043 47.30814769 -71.92578125 44.1328125 C-71.39339844 43.14023438 -70.86101562 42.14765625 -70.3125 41.125 C-69.75304687 40.07441406 -69.19359375 39.02382812 -68.6171875 37.94140625 C-68.08351563 36.97074219 -67.54984375 36.00007813 -67 35 C-66.63132812 34.28714844 -66.26265625 33.57429688 -65.8828125 32.83984375 C-63.76085154 28.8502064 -61.32574144 26.03654653 -58 23 C-57.26523437 22.30777344 -56.53046875 21.61554688 -55.7734375 20.90234375 C-39.61372412 5.91833707 -22.01932789 -0.56379502 0 0 Z " transform="translate(109,109)" style="fill: #000000;"/><path d="M0 0 C3.96425286 0.94386973 6.52858367 2.85156484 9.05078125 6.08984375 C10.94667955 9.9050465 10.62736721 13.87730122 10 18 C8.70483047 21.20384041 7.48002642 22.5905657 4.875 24.8125 C0.8292614 26.48356594 -2.68468967 26.67735912 -7 26 C-10.70910097 24.21413657 -12.54021301 22.63776905 -14.9375 19.3125 C-16.34253594 14.93209385 -16.34966134 11.40672559 -15 7 C-10.53516458 1.47770356 -7.09199438 -0.48910306 0 0 Z " transform="translate(314,124)" style="fill: #060606;"/><path d="M0 0 C4.36350222 2.22291622 7.09544338 4.45022584 9 9 C9.57057837 14.23030176 8.84948106 17.57839146 6 22 C3.72592877 24.61862748 2.09679557 25.80375063 -1.3359375 26.41796875 C-5.67614147 26.65909119 -8.98817183 26.53912826 -12.5 23.8125 C-15.90837051 19.97808318 -16.82261505 17.62602872 -17.375 12.5625 C-16.82551718 7.34241319 -14.73805264 4.4483772 -10.75 1.125 C-7.10164042 -0.36751074 -3.84747819 -0.67896674 0 0 Z " transform="translate(387,124)" style="fill: #050505;"/><path d="M0 0 C0.66 0.66 1.32 1.32 2 2 C1.5 3.93359375 1.5 3.93359375 0 6 C-2.7551643 6.5588875 -5.2174897 6.87699931 -8 7.0625 C-17.74775634 7.93815434 -17.74775634 7.93815434 -27 11 C-27.33 11.66 -27.66 12.32 -28 13 C-31.35723464 15.05164339 -34.27345083 16.75781694 -38 18 C-38 18.66 -38 19.32 -38 20 C-38.66 20 -39.32 20 -40 20 C-40.33 20.99 -40.66 21.98 -41 23 C-42.98 23.33 -44.96 23.66 -47 24 C-47.73828125 21.77734375 -47.73828125 21.77734375 -48 19 C-41.2949 9.08886247 -29.96555245 3.64117189 -18.75390625 0.6875 C-12.53445599 -0.45154604 -6.29624982 -0.70874016 0 0 Z " transform="translate(90,97)" style="fill: #000000;"/><path d="" transform="translate(0,0)" style="fill: #000000;"/></svg>