<?xml version="1.0" encoding="utf-8" ?>
<svg baseProfile="full" height="500" version="1.1" viewBox="0 0 500 500" width="500" xmlns="http://www.w3.org/2000/svg" xmlns:ev="http://www.w3.org/2001/xml-events" xmlns:xlink="http://www.w3.org/1999/xlink"><defs /><path d="M 247,406 L 246,407 L 245,407 L 244,408 L 244,413 L 245,414 L 245,415 L 246,416 L 246,417 L 247,418 L 247,419 L 248,420 L 248,421 L 249,422 L 249,423 L 250,424 L 250,425 L 251,426 L 251,427 L 252,428 L 252,429 L 253,430 L 253,431 L 255,433 L 255,435 L 256,436 L 256,437 L 258,439 L 258,440 L 259,441 L 259,442 L 260,443 L 260,444 L 261,445 L 261,446 L 262,447 L 262,448 L 263,449 L 263,450 L 264,451 L 264,452 L 265,453 L 265,454 L 266,455 L 266,456 L 267,457 L 267,459 L 268,460 L 269,460 L 271,462 L 271,463 L 272,463 L 275,466 L 276,466 L 276,463 L 277,462 L 276,461 L 276,455 L 275,454 L 275,453 L 274,452 L 274,451 L 273,450 L 273,449 L 272,448 L 272,446 L 270,444 L 270,443 L 269,442 L 269,441 L 268,440 L 268,438 L 266,436 L 266,435 L 265,434 L 265,433 L 264,432 L 264,431 L 263,430 L 263,429 L 262,428 L 262,427 L 261,426 L 261,425 L 260,424 L 260,423 L 259,422 L 259,421 L 258,420 L 258,419 L 257,418 L 257,417 L 256,416 L 256,414 L 254,412 L 254,411 L 253,410 L 253,409 L 250,406 Z" fill="#000000" stroke="none" /><path d="M 164,384 L 160,388 L 160,389 L 158,391 L 147,391 L 146,392 L 146,393 L 142,397 L 142,398 L 141,399 L 141,400 L 139,402 L 139,403 L 136,406 L 136,407 L 134,409 L 134,410 L 131,413 L 131,414 L 129,416 L 129,417 L 127,419 L 127,420 L 125,422 L 125,423 L 122,426 L 122,427 L 120,429 L 120,430 L 118,432 L 118,433 L 115,436 L 115,437 L 113,439 L 113,440 L 110,443 L 110,444 L 109,445 L 109,446 L 106,449 L 106,450 L 104,452 L 104,453 L 102,455 L 101,455 L 102,456 L 99,459 L 99,460 L 98,461 L 98,465 L 193,465 L 194,464 L 194,463 L 195,462 L 195,461 L 197,459 L 208,459 L 210,457 L 210,456 L 211,455 L 211,454 L 213,452 L 213,451 L 214,450 L 214,449 L 215,448 L 215,447 L 216,446 L 216,445 L 217,444 L 217,443 L 218,442 L 218,441 L 219,440 L 219,439 L 221,437 L 221,436 L 222,435 L 222,434 L 224,432 L 224,430 L 225,429 L 225,428 L 226,427 L 226,426 L 227,425 L 227,424 L 229,422 L 229,421 L 230,420 L 230,419 L 231,418 L 231,417 L 232,416 L 232,415 L 233,414 L 233,413 L 234,412 L 234,411 L 235,410 L 235,409 L 236,408 L 236,407 L 238,405 L 238,404 L 239,403 L 239,402 L 240,401 L 240,400 L 241,399 L 241,398 L 242,397 L 242,396 L 243,395 L 243,394 L 244,393 L 244,392 L 246,390 L 246,388 L 244,386 L 214,386 L 213,385 L 172,385 L 171,384 Z" fill="#000000" stroke="none" /><path d="M 180,80 L 179,81 L 174,81 L 173,82 L 170,82 L 169,83 L 167,83 L 166,84 L 164,84 L 163,85 L 161,85 L 160,86 L 159,86 L 158,87 L 157,87 L 156,88 L 154,88 L 153,89 L 152,89 L 150,91 L 149,91 L 148,92 L 147,92 L 145,94 L 144,94 L 141,97 L 140,97 L 126,111 L 126,112 L 124,114 L 124,115 L 122,117 L 122,118 L 121,119 L 121,120 L 119,122 L 119,123 L 118,124 L 118,125 L 117,126 L 117,127 L 116,128 L 116,130 L 115,131 L 115,132 L 114,133 L 114,135 L 113,136 L 113,139 L 112,140 L 112,143 L 111,144 L 111,148 L 110,149 L 110,170 L 109,171 L 110,172 L 110,173 L 111,174 L 111,179 L 112,180 L 112,183 L 113,184 L 113,186 L 114,187 L 114,189 L 115,190 L 115,192 L 116,193 L 116,194 L 117,195 L 117,196 L 118,197 L 118,199 L 120,201 L 120,202 L 122,204 L 122,205 L 123,206 L 123,207 L 126,210 L 126,211 L 127,212 L 127,213 L 128,213 L 132,217 L 132,218 L 133,219 L 134,219 L 139,224 L 139,225 L 140,225 L 141,226 L 142,226 L 144,228 L 145,228 L 147,230 L 147,231 L 148,230 L 151,233 L 152,233 L 153,234 L 155,234 L 156,235 L 157,235 L 158,236 L 159,236 L 160,237 L 159,238 L 159,239 L 157,241 L 157,242 L 155,244 L 155,245 L 153,247 L 153,248 L 150,251 L 150,252 L 148,254 L 148,255 L 146,257 L 146,258 L 143,261 L 143,262 L 141,264 L 141,265 L 139,267 L 139,268 L 136,271 L 136,272 L 133,275 L 133,276 L 131,278 L 131,279 L 128,282 L 128,283 L 125,286 L 125,287 L 122,290 L 122,291 L 119,294 L 119,295 L 116,298 L 116,299 L 113,302 L 113,303 L 112,304 L 111,303 L 111,302 L 110,301 L 110,300 L 109,299 L 109,298 L 108,297 L 108,295 L 107,294 L 107,292 L 105,290 L 105,288 L 104,287 L 104,286 L 103,285 L 103,284 L 102,283 L 102,282 L 101,281 L 101,279 L 100,278 L 100,276 L 98,274 L 98,272 L 97,271 L 97,270 L 96,269 L 96,268 L 95,267 L 95,263 L 96,262 L 96,253 L 95,252 L 95,249 L 94,248 L 94,245 L 95,244 L 95,229 L 94,228 L 94,227 L 87,220 L 87,219 L 85,217 L 85,215 L 84,214 L 84,199 L 85,198 L 85,193 L 86,192 L 85,191 L 85,188 L 84,187 L 84,185 L 80,181 L 79,181 L 78,180 L 70,180 L 69,181 L 67,181 L 65,183 L 64,183 L 61,186 L 61,187 L 59,189 L 59,190 L 58,191 L 58,192 L 57,193 L 57,196 L 56,197 L 56,212 L 57,213 L 57,215 L 58,216 L 58,217 L 57,218 L 55,218 L 54,219 L 52,219 L 51,220 L 48,220 L 47,221 L 46,221 L 45,222 L 43,222 L 42,223 L 41,223 L 40,224 L 39,224 L 37,226 L 36,226 L 33,229 L 32,229 L 32,230 L 30,232 L 30,233 L 29,234 L 29,235 L 28,236 L 28,243 L 29,244 L 29,245 L 30,246 L 30,247 L 32,249 L 32,250 L 33,251 L 33,253 L 32,254 L 32,256 L 31,257 L 31,263 L 32,264 L 32,266 L 34,268 L 34,269 L 37,272 L 38,272 L 40,274 L 41,274 L 42,275 L 42,276 L 41,277 L 42,278 L 42,280 L 43,281 L 43,282 L 44,283 L 44,284 L 48,288 L 49,288 L 50,289 L 52,289 L 53,290 L 69,290 L 70,289 L 71,289 L 72,290 L 72,291 L 73,292 L 73,293 L 74,294 L 74,295 L 75,296 L 75,297 L 76,298 L 76,300 L 77,301 L 77,302 L 78,303 L 78,305 L 79,306 L 79,307 L 80,308 L 80,309 L 81,310 L 81,311 L 82,312 L 82,313 L 83,314 L 83,316 L 84,317 L 84,318 L 85,319 L 85,320 L 86,321 L 86,323 L 87,324 L 87,325 L 88,326 L 88,327 L 89,328 L 89,329 L 90,330 L 90,333 L 92,335 L 92,336 L 93,337 L 93,339 L 94,340 L 94,341 L 95,342 L 95,343 L 99,347 L 100,347 L 101,348 L 102,348 L 103,349 L 113,349 L 114,348 L 116,348 L 122,342 L 122,341 L 125,338 L 125,337 L 129,333 L 129,332 L 132,329 L 132,328 L 135,325 L 135,324 L 138,321 L 138,320 L 141,317 L 141,316 L 144,313 L 144,312 L 147,309 L 147,308 L 150,305 L 150,304 L 153,301 L 153,300 L 156,297 L 156,296 L 158,294 L 158,293 L 161,290 L 161,289 L 164,286 L 164,285 L 166,283 L 166,282 L 167,281 L 168,281 L 168,280 L 169,279 L 169,278 L 171,276 L 171,275 L 173,273 L 173,272 L 174,271 L 175,272 L 175,274 L 174,275 L 174,283 L 173,284 L 173,291 L 172,292 L 172,296 L 171,297 L 172,298 L 172,300 L 171,301 L 171,309 L 170,310 L 170,317 L 169,318 L 169,326 L 168,327 L 168,335 L 167,336 L 167,343 L 166,344 L 166,348 L 165,349 L 166,350 L 166,352 L 165,353 L 165,361 L 164,362 L 164,369 L 163,370 L 41,370 L 40,371 L 40,372 L 36,376 L 36,377 L 32,381 L 32,382 L 28,386 L 28,387 L 24,391 L 24,392 L 19,397 L 19,398 L 16,401 L 16,402 L 13,405 L 13,406 L 9,410 L 9,411 L 8,412 L 8,416 L 10,418 L 11,418 L 12,419 L 14,419 L 15,418 L 16,418 L 19,415 L 19,414 L 23,410 L 23,409 L 27,405 L 27,404 L 31,400 L 31,399 L 34,396 L 34,395 L 39,390 L 39,389 L 42,386 L 42,385 L 45,382 L 46,382 L 46,381 L 47,380 L 360,380 L 361,381 L 363,381 L 364,382 L 366,382 L 367,383 L 368,383 L 369,384 L 372,384 L 373,385 L 374,385 L 375,386 L 376,385 L 377,386 L 380,386 L 381,387 L 383,387 L 384,388 L 386,388 L 387,389 L 390,389 L 391,390 L 393,390 L 394,391 L 397,391 L 398,392 L 400,392 L 401,393 L 403,393 L 404,394 L 407,394 L 408,395 L 409,395 L 410,396 L 409,397 L 409,398 L 408,399 L 408,400 L 407,401 L 407,403 L 406,404 L 406,405 L 405,406 L 405,407 L 404,408 L 404,409 L 403,410 L 403,412 L 402,413 L 402,414 L 401,415 L 401,416 L 400,417 L 400,418 L 399,419 L 399,421 L 398,422 L 398,423 L 397,424 L 397,425 L 396,426 L 396,428 L 395,429 L 395,430 L 394,431 L 394,432 L 393,433 L 393,434 L 392,435 L 392,437 L 391,438 L 391,439 L 390,440 L 390,441 L 389,442 L 389,443 L 388,444 L 388,446 L 387,447 L 387,448 L 386,449 L 386,450 L 385,451 L 385,452 L 384,453 L 384,459 L 386,461 L 391,461 L 393,459 L 393,458 L 394,457 L 394,456 L 395,455 L 395,454 L 396,453 L 396,451 L 397,450 L 397,449 L 398,448 L 398,447 L 399,446 L 399,445 L 400,444 L 400,442 L 401,441 L 401,440 L 403,438 L 403,436 L 404,435 L 404,433 L 405,432 L 405,431 L 406,430 L 406,429 L 407,428 L 407,427 L 408,426 L 408,424 L 409,423 L 409,422 L 410,421 L 410,420 L 411,419 L 411,417 L 412,416 L 412,415 L 413,414 L 413,413 L 414,412 L 414,411 L 415,410 L 415,408 L 416,407 L 416,406 L 417,405 L 417,404 L 418,403 L 418,402 L 419,401 L 419,399 L 420,398 L 421,399 L 423,399 L 424,400 L 427,400 L 428,401 L 430,401 L 431,402 L 434,402 L 435,403 L 437,403 L 438,404 L 441,404 L 441,403 L 442,402 L 442,401 L 443,400 L 443,399 L 444,398 L 444,397 L 445,396 L 445,394 L 446,393 L 446,392 L 447,391 L 447,390 L 448,389 L 448,387 L 449,386 L 449,385 L 450,384 L 451,384 L 450,383 L 451,382 L 451,380 L 452,379 L 452,378 L 453,377 L 453,376 L 454,375 L 454,374 L 455,373 L 455,371 L 456,370 L 456,369 L 457,368 L 457,367 L 458,366 L 458,364 L 459,363 L 459,362 L 460,361 L 460,360 L 461,359 L 461,357 L 462,356 L 463,356 L 462,355 L 463,354 L 463,353 L 464,352 L 464,350 L 465,349 L 465,348 L 466,347 L 466,346 L 467,345 L 467,344 L 468,343 L 468,341 L 469,340 L 469,339 L 470,338 L 471,338 L 470,337 L 471,336 L 471,334 L 473,332 L 473,330 L 474,329 L 474,328 L 475,327 L 475,325 L 476,324 L 476,323 L 477,322 L 477,320 L 478,319 L 478,318 L 479,317 L 479,316 L 480,315 L 480,313 L 479,312 L 476,312 L 475,311 L 473,311 L 472,310 L 470,310 L 469,309 L 467,309 L 466,308 L 464,308 L 463,307 L 460,307 L 459,306 L 457,306 L 456,305 L 454,305 L 453,304 L 451,304 L 450,303 L 447,303 L 446,302 L 444,302 L 443,301 L 441,301 L 440,300 L 438,300 L 437,299 L 434,299 L 433,298 L 431,298 L 430,297 L 428,297 L 427,296 L 425,296 L 424,295 L 421,295 L 420,294 L 418,294 L 417,293 L 415,293 L 414,292 L 412,292 L 411,291 L 409,291 L 408,290 L 405,290 L 404,289 L 402,289 L 401,288 L 399,288 L 398,287 L 396,287 L 395,286 L 393,286 L 392,285 L 389,285 L 388,284 L 386,284 L 385,283 L 383,283 L 382,282 L 380,282 L 379,281 L 377,281 L 376,280 L 373,280 L 372,279 L 370,279 L 369,278 L 367,278 L 366,277 L 364,277 L 363,276 L 360,276 L 359,275 L 357,275 L 356,274 L 354,274 L 353,273 L 351,273 L 350,272 L 349,272 L 349,273 L 348,274 L 348,275 L 347,276 L 347,277 L 346,278 L 346,279 L 344,281 L 344,283 L 343,284 L 343,285 L 342,286 L 342,287 L 341,288 L 341,289 L 340,290 L 340,292 L 339,293 L 339,294 L 338,295 L 338,296 L 337,297 L 337,298 L 336,299 L 336,300 L 335,301 L 335,302 L 334,303 L 334,304 L 333,305 L 332,305 L 331,306 L 330,306 L 329,305 L 325,305 L 324,304 L 319,304 L 318,303 L 314,303 L 313,302 L 308,302 L 307,301 L 303,301 L 302,300 L 297,300 L 296,299 L 292,299 L 291,298 L 287,298 L 286,297 L 285,297 L 277,289 L 277,288 L 241,252 L 240,252 L 229,241 L 228,241 L 223,236 L 224,235 L 225,235 L 226,236 L 226,235 L 227,234 L 228,234 L 229,233 L 230,233 L 232,231 L 233,231 L 234,230 L 235,230 L 237,228 L 238,228 L 241,225 L 242,226 L 242,225 L 255,212 L 255,211 L 258,208 L 258,207 L 260,205 L 260,204 L 261,203 L 261,202 L 262,201 L 262,200 L 264,198 L 264,197 L 265,196 L 265,194 L 266,193 L 266,192 L 267,191 L 267,189 L 268,188 L 268,186 L 269,185 L 269,183 L 270,182 L 270,179 L 271,178 L 271,172 L 272,171 L 272,167 L 273,166 L 272,165 L 272,151 L 271,150 L 271,145 L 270,144 L 270,140 L 269,139 L 269,137 L 268,136 L 268,135 L 269,134 L 268,134 L 267,133 L 267,131 L 266,130 L 266,129 L 265,128 L 265,127 L 264,126 L 264,125 L 263,124 L 263,123 L 262,122 L 262,121 L 261,120 L 261,119 L 259,117 L 259,116 L 257,114 L 257,113 L 254,110 L 254,108 L 253,108 L 243,98 L 242,98 L 239,95 L 238,95 L 236,93 L 235,93 L 233,91 L 232,91 L 231,90 L 230,90 L 229,89 L 228,89 L 227,88 L 226,88 L 225,87 L 224,87 L 223,86 L 222,86 L 221,85 L 219,85 L 218,84 L 216,84 L 215,83 L 213,83 L 212,82 L 208,82 L 207,81 L 203,81 L 202,80 Z" fill="#000000" stroke="none" /><path d="M 354,284 L 354,285 L 353,286 L 353,287 L 352,288 L 352,289 L 351,290 L 351,292 L 350,293 L 350,294 L 349,295 L 349,296 L 348,297 L 348,298 L 347,299 L 347,300 L 346,301 L 346,302 L 345,303 L 345,304 L 344,305 L 344,306 L 343,307 L 343,308 L 342,309 L 342,310 L 341,311 L 341,312 L 340,313 L 340,314 L 339,315 L 339,316 L 338,317 L 338,319 L 337,320 L 337,321 L 336,322 L 336,323 L 335,324 L 335,325 L 334,326 L 334,327 L 333,328 L 333,329 L 332,330 L 332,331 L 331,332 L 331,333 L 330,334 L 330,335 L 329,336 L 329,337 L 328,338 L 328,339 L 327,340 L 327,341 L 326,342 L 326,344 L 325,345 L 325,346 L 324,347 L 324,348 L 323,349 L 323,350 L 322,351 L 322,352 L 321,353 L 321,354 L 320,355 L 320,356 L 319,357 L 319,358 L 320,358 L 321,359 L 324,359 L 325,360 L 327,360 L 328,361 L 330,361 L 331,362 L 334,362 L 335,363 L 337,363 L 338,364 L 340,364 L 341,365 L 344,365 L 345,366 L 347,366 L 348,367 L 351,367 L 352,368 L 354,368 L 355,369 L 357,369 L 358,370 L 361,370 L 362,371 L 364,371 L 365,372 L 367,372 L 368,373 L 371,373 L 372,374 L 374,374 L 375,375 L 377,375 L 378,376 L 381,376 L 382,377 L 384,377 L 385,378 L 388,378 L 389,379 L 391,379 L 392,380 L 394,380 L 395,381 L 398,381 L 399,382 L 401,382 L 402,383 L 404,383 L 405,384 L 408,384 L 409,385 L 411,385 L 412,386 L 414,386 L 415,387 L 418,387 L 419,388 L 421,388 L 422,389 L 425,389 L 426,390 L 428,390 L 429,391 L 431,391 L 432,392 L 435,392 L 436,391 L 436,390 L 437,389 L 437,388 L 438,387 L 438,386 L 439,385 L 439,383 L 440,382 L 440,381 L 441,380 L 441,379 L 442,378 L 442,376 L 443,375 L 443,374 L 444,373 L 444,372 L 445,371 L 445,369 L 446,368 L 446,367 L 447,366 L 447,365 L 448,364 L 448,362 L 449,361 L 449,360 L 450,359 L 450,358 L 451,357 L 451,355 L 452,354 L 452,353 L 453,352 L 453,351 L 454,350 L 454,349 L 455,348 L 455,346 L 456,345 L 456,344 L 457,343 L 457,342 L 458,341 L 458,339 L 459,338 L 459,337 L 460,336 L 460,335 L 461,334 L 461,332 L 462,331 L 462,330 L 463,329 L 463,328 L 464,327 L 464,325 L 465,324 L 465,323 L 466,322 L 466,321 L 467,320 L 467,319 L 466,319 L 465,318 L 462,318 L 461,317 L 459,317 L 458,316 L 456,316 L 455,315 L 453,315 L 452,314 L 449,314 L 448,313 L 446,313 L 445,312 L 443,312 L 442,311 L 440,311 L 439,310 L 436,310 L 435,309 L 433,309 L 432,308 L 430,308 L 429,307 L 427,307 L 426,306 L 424,306 L 423,305 L 421,305 L 420,304 L 417,304 L 416,303 L 414,303 L 413,302 L 411,302 L 410,301 L 408,301 L 407,300 L 404,300 L 403,299 L 401,299 L 400,298 L 398,298 L 397,297 L 395,297 L 394,296 L 392,296 L 391,295 L 388,295 L 387,294 L 385,294 L 384,293 L 382,293 L 381,292 L 378,292 L 377,291 L 375,291 L 374,290 L 372,290 L 371,289 L 369,289 L 368,288 L 366,288 L 365,287 L 362,287 L 361,286 L 359,286 L 358,285 L 356,285 L 355,284 Z" fill="#d81818" stroke="none" /><path d="M 150,397 L 149,398 L 149,399 L 147,401 L 147,402 L 144,405 L 144,406 L 142,408 L 142,409 L 139,412 L 139,413 L 137,415 L 137,416 L 135,418 L 135,419 L 133,421 L 133,422 L 130,425 L 130,426 L 128,428 L 128,429 L 126,431 L 126,432 L 123,435 L 123,436 L 121,438 L 121,439 L 119,441 L 119,442 L 117,444 L 117,445 L 114,448 L 114,449 L 112,451 L 112,452 L 110,454 L 110,455 L 107,458 L 107,459 L 189,459 L 191,457 L 191,456 L 192,455 L 192,454 L 193,453 L 193,452 L 194,451 L 194,450 L 195,449 L 195,448 L 196,447 L 196,446 L 197,445 L 197,444 L 199,442 L 199,441 L 200,440 L 200,439 L 201,438 L 201,437 L 202,436 L 202,435 L 203,434 L 203,433 L 204,432 L 204,431 L 205,430 L 205,429 L 207,427 L 207,426 L 208,425 L 208,424 L 209,423 L 209,422 L 210,421 L 210,420 L 211,419 L 211,418 L 212,417 L 212,416 L 213,415 L 213,414 L 214,413 L 214,412 L 216,410 L 216,409 L 217,408 L 217,407 L 218,406 L 218,405 L 219,404 L 219,403 L 220,402 L 220,401 L 221,400 L 221,399 L 222,398 L 186,398 L 185,397 Z" fill="#f0f0f0" stroke="none" /><path d="M 220,392 L 229,392 L 230,393 L 230,394 L 231,395 L 231,396 L 230,397 L 230,398 L 228,400 L 228,401 L 227,402 L 227,403 L 226,404 L 226,405 L 225,406 L 225,407 L 224,408 L 224,409 L 223,410 L 223,411 L 222,412 L 222,413 L 220,415 L 220,416 L 219,417 L 219,418 L 218,419 L 218,420 L 217,421 L 217,422 L 216,423 L 216,424 L 215,425 L 215,426 L 214,427 L 214,428 L 212,430 L 212,431 L 211,432 L 211,433 L 210,434 L 210,435 L 209,436 L 209,437 L 208,438 L 208,439 L 207,440 L 207,441 L 206,442 L 206,443 L 204,445 L 204,446 L 203,447 L 203,448 L 202,449 L 202,450 L 201,451 L 201,452 L 200,453 L 205,453 L 206,452 L 206,451 L 207,450 L 207,449 L 208,448 L 208,447 L 209,446 L 209,445 L 211,443 L 211,442 L 212,441 L 212,440 L 213,439 L 213,438 L 214,437 L 214,436 L 215,435 L 215,434 L 216,433 L 216,432 L 217,431 L 217,430 L 219,428 L 219,427 L 220,426 L 220,425 L 221,424 L 221,423 L 222,422 L 222,421 L 223,420 L 223,419 L 224,418 L 224,417 L 225,416 L 225,415 L 227,413 L 227,412 L 228,411 L 228,410 L 229,409 L 229,408 L 230,407 L 230,406 L 231,405 L 231,404 L 232,403 L 232,402 L 233,401 L 233,400 L 235,398 L 235,397 L 236,396 L 236,395 L 237,394 L 237,393 L 238,392 Z" fill="#f0f0f0" stroke="none" /><path d="M 77,274 L 76,275 L 75,275 L 74,276 L 70,276 L 69,277 L 60,277 L 59,278 L 55,278 L 54,277 L 51,277 L 51,279 L 52,280 L 53,280 L 54,281 L 56,281 L 57,282 L 64,282 L 65,281 L 69,281 L 70,280 L 72,280 L 73,279 L 74,279 L 77,276 L 77,275 L 78,274 Z" fill="#f0f0f0" stroke="none" /><path d="M 41,257 L 40,258 L 40,262 L 41,263 L 41,264 L 42,264 L 44,266 L 46,266 L 47,267 L 50,267 L 51,268 L 63,268 L 64,267 L 70,267 L 71,266 L 73,266 L 74,265 L 75,265 L 75,264 L 76,263 L 76,261 L 75,262 L 74,262 L 73,263 L 72,263 L 71,264 L 59,264 L 58,263 L 55,263 L 54,262 L 51,262 L 50,261 L 49,261 L 48,260 L 46,260 L 45,259 L 44,259 L 42,257 Z" fill="#f0f0f0" stroke="none" /><path d="M 86,251 L 84,253 L 84,256 L 85,257 L 85,265 L 86,264 L 86,262 L 87,261 L 87,253 L 86,252 Z" fill="#f0f0f0" stroke="none" /><path d="M 74,188 L 73,189 L 71,189 L 67,193 L 67,194 L 66,195 L 66,196 L 65,197 L 65,201 L 64,202 L 64,207 L 65,208 L 65,211 L 66,212 L 66,214 L 67,215 L 67,216 L 69,218 L 69,223 L 67,225 L 65,225 L 64,226 L 59,226 L 58,227 L 55,227 L 54,228 L 52,228 L 51,229 L 49,229 L 48,230 L 47,230 L 46,231 L 45,231 L 44,232 L 43,232 L 42,233 L 41,233 L 37,237 L 37,242 L 41,246 L 42,246 L 44,248 L 45,248 L 46,249 L 47,249 L 48,250 L 49,250 L 50,251 L 51,251 L 52,252 L 54,252 L 55,253 L 57,253 L 58,254 L 64,254 L 65,255 L 66,255 L 67,254 L 70,254 L 72,252 L 73,252 L 75,250 L 75,249 L 77,247 L 77,246 L 78,245 L 78,244 L 79,243 L 79,238 L 75,238 L 74,239 L 73,239 L 68,244 L 67,244 L 66,245 L 65,245 L 64,244 L 63,244 L 61,242 L 59,242 L 58,241 L 57,241 L 56,240 L 55,240 L 54,239 L 52,239 L 51,238 L 50,238 L 47,235 L 47,232 L 50,229 L 54,229 L 55,230 L 57,230 L 58,231 L 59,231 L 60,232 L 62,232 L 63,233 L 64,233 L 65,234 L 68,231 L 69,231 L 70,230 L 71,230 L 72,229 L 74,229 L 75,228 L 80,228 L 81,229 L 83,229 L 86,232 L 86,231 L 85,230 L 84,230 L 83,229 L 83,228 L 79,224 L 79,223 L 78,222 L 78,221 L 77,220 L 77,219 L 76,218 L 76,216 L 75,215 L 75,201 L 76,200 L 76,189 L 75,189 Z" fill="#f0f0f0" stroke="none" /><path d="M 183,97 L 182,98 L 177,98 L 176,99 L 173,99 L 172,100 L 170,100 L 169,101 L 168,101 L 167,102 L 165,102 L 164,103 L 163,103 L 162,104 L 161,104 L 160,105 L 159,105 L 157,107 L 156,107 L 154,109 L 153,109 L 150,112 L 149,112 L 142,119 L 142,120 L 139,123 L 139,124 L 137,126 L 137,127 L 135,129 L 135,130 L 134,131 L 134,132 L 133,133 L 133,134 L 132,135 L 132,136 L 131,137 L 131,139 L 130,140 L 130,142 L 129,143 L 129,146 L 128,147 L 128,151 L 127,152 L 127,170 L 128,171 L 128,175 L 129,176 L 129,179 L 130,180 L 130,182 L 131,183 L 131,185 L 132,186 L 132,187 L 133,188 L 133,189 L 134,190 L 134,191 L 135,192 L 135,193 L 136,194 L 136,195 L 138,197 L 138,198 L 141,201 L 141,202 L 150,211 L 151,211 L 154,214 L 155,214 L 157,216 L 158,216 L 159,217 L 160,217 L 161,218 L 162,218 L 163,219 L 164,219 L 165,220 L 166,220 L 167,221 L 169,221 L 170,222 L 172,222 L 173,223 L 176,223 L 177,224 L 181,224 L 182,225 L 200,225 L 201,224 L 205,224 L 206,223 L 209,223 L 210,222 L 212,222 L 213,221 L 215,221 L 216,220 L 217,220 L 218,219 L 219,219 L 220,218 L 221,218 L 222,217 L 223,217 L 225,215 L 226,215 L 228,213 L 229,213 L 232,210 L 233,210 L 240,203 L 240,202 L 243,199 L 243,198 L 245,196 L 245,195 L 247,193 L 247,192 L 248,191 L 248,190 L 249,189 L 249,188 L 250,187 L 250,185 L 251,184 L 251,183 L 252,182 L 252,179 L 253,178 L 253,175 L 254,174 L 254,170 L 255,169 L 255,154 L 254,153 L 254,148 L 253,147 L 253,144 L 252,143 L 252,141 L 251,140 L 251,138 L 250,137 L 250,135 L 249,134 L 249,133 L 248,132 L 248,131 L 246,129 L 246,128 L 245,127 L 245,126 L 243,124 L 243,123 L 239,119 L 239,118 L 234,113 L 233,113 L 229,109 L 228,109 L 226,107 L 225,107 L 223,105 L 222,105 L 221,104 L 220,104 L 219,103 L 218,103 L 217,102 L 215,102 L 214,101 L 212,101 L 211,100 L 209,100 L 208,99 L 205,99 L 204,98 L 199,98 L 198,97 Z" fill="#f0f0f0" stroke="none" /></svg>