<?xml version="1.0" encoding="utf-8" ?>
<svg baseProfile="full" height="500" version="1.1" viewBox="0 0 500 500" width="500" xmlns="http://www.w3.org/2000/svg" xmlns:ev="http://www.w3.org/2001/xml-events" xmlns:xlink="http://www.w3.org/1999/xlink"><defs /><path d="M 68,95 L 67,96 L 66,96 L 65,97 L 64,97 L 64,98 L 63,99 L 10,99 L 8,101 L 8,225 L 10,227 L 17,227 L 18,228 L 18,235 L 19,236 L 19,237 L 20,238 L 20,239 L 24,243 L 25,243 L 26,244 L 27,244 L 28,245 L 29,244 L 30,245 L 44,245 L 45,246 L 57,246 L 58,247 L 68,247 L 69,248 L 70,247 L 71,248 L 71,301 L 68,304 L 67,304 L 61,310 L 61,311 L 60,312 L 60,313 L 58,315 L 58,318 L 57,319 L 57,329 L 58,329 L 59,330 L 139,330 L 140,329 L 140,273 L 141,272 L 143,272 L 144,271 L 146,271 L 147,270 L 149,270 L 150,269 L 153,269 L 155,267 L 156,267 L 157,266 L 158,266 L 159,265 L 160,265 L 162,263 L 163,263 L 169,257 L 170,257 L 170,256 L 172,254 L 172,253 L 175,250 L 175,248 L 176,247 L 176,246 L 177,245 L 177,244 L 178,243 L 178,242 L 179,241 L 179,240 L 180,239 L 180,235 L 181,234 L 181,231 L 182,230 L 182,225 L 183,224 L 183,219 L 182,218 L 182,215 L 180,213 L 180,212 L 179,212 L 177,210 L 172,210 L 171,209 L 170,210 L 169,209 L 168,210 L 167,209 L 166,210 L 165,209 L 164,210 L 163,209 L 162,210 L 161,209 L 160,210 L 159,209 L 158,210 L 157,209 L 156,210 L 155,209 L 154,210 L 153,209 L 152,210 L 151,209 L 150,210 L 149,209 L 148,210 L 147,209 L 146,210 L 145,209 L 144,210 L 143,209 L 142,210 L 141,209 L 140,210 L 139,209 L 138,210 L 137,209 L 136,210 L 135,209 L 134,210 L 133,209 L 132,210 L 131,209 L 130,210 L 129,209 L 128,210 L 127,209 L 126,210 L 125,209 L 124,210 L 123,209 L 122,210 L 121,209 L 120,210 L 119,209 L 118,210 L 117,209 L 116,210 L 115,209 L 114,210 L 113,209 L 112,210 L 111,209 L 110,210 L 109,209 L 108,210 L 107,209 L 106,210 L 105,209 L 104,210 L 103,209 L 102,210 L 101,209 L 100,210 L 99,209 L 98,210 L 97,209 L 96,210 L 95,209 L 94,210 L 93,209 L 92,210 L 91,209 L 90,210 L 89,209 L 88,210 L 87,209 L 86,210 L 85,209 L 84,210 L 83,209 L 82,210 L 81,209 L 80,210 L 79,209 L 78,210 L 77,209 L 76,210 L 74,208 L 74,97 L 72,95 Z" fill="#000000" stroke="none" /><path d="M 296,13 L 295,14 L 292,14 L 291,15 L 290,15 L 288,17 L 287,17 L 287,18 L 281,24 L 281,25 L 279,27 L 279,28 L 278,29 L 278,30 L 277,31 L 277,33 L 276,34 L 276,35 L 275,36 L 275,38 L 274,39 L 274,41 L 273,42 L 273,47 L 272,48 L 272,51 L 271,52 L 271,55 L 270,56 L 270,58 L 269,59 L 269,60 L 268,61 L 268,62 L 273,62 L 274,63 L 274,72 L 273,73 L 273,77 L 272,78 L 272,80 L 270,82 L 281,82 L 282,81 L 287,81 L 288,80 L 291,80 L 292,81 L 292,86 L 291,87 L 287,87 L 286,88 L 284,88 L 283,89 L 281,89 L 280,90 L 278,90 L 277,91 L 275,91 L 274,92 L 272,92 L 270,94 L 269,94 L 268,95 L 267,95 L 266,96 L 265,96 L 264,97 L 263,97 L 262,98 L 262,99 L 261,100 L 261,101 L 260,102 L 260,104 L 259,105 L 259,106 L 258,107 L 258,109 L 257,110 L 257,113 L 256,114 L 256,117 L 255,118 L 255,120 L 254,121 L 254,124 L 253,125 L 253,128 L 252,129 L 252,131 L 251,132 L 251,137 L 250,138 L 250,141 L 249,142 L 249,147 L 248,148 L 248,151 L 246,153 L 247,154 L 247,158 L 246,159 L 246,164 L 245,165 L 245,172 L 244,173 L 244,178 L 243,179 L 243,188 L 242,189 L 242,198 L 241,199 L 241,207 L 242,207 L 243,208 L 242,209 L 242,212 L 241,213 L 242,214 L 242,217 L 245,220 L 246,220 L 247,221 L 248,221 L 249,222 L 254,222 L 255,221 L 255,219 L 256,218 L 256,211 L 257,210 L 258,211 L 259,211 L 260,210 L 260,201 L 261,200 L 261,194 L 262,193 L 262,186 L 263,185 L 262,184 L 263,183 L 263,176 L 264,175 L 264,168 L 265,167 L 265,162 L 266,161 L 266,153 L 267,152 L 267,146 L 268,145 L 268,141 L 269,140 L 269,134 L 270,133 L 270,129 L 271,128 L 273,130 L 273,134 L 274,135 L 274,137 L 275,138 L 275,140 L 276,141 L 276,142 L 275,143 L 275,148 L 274,149 L 274,151 L 273,152 L 273,156 L 272,157 L 272,160 L 271,161 L 271,165 L 270,166 L 270,170 L 269,171 L 269,174 L 268,175 L 268,179 L 267,180 L 267,183 L 266,184 L 266,186 L 268,186 L 269,187 L 271,187 L 272,188 L 272,189 L 271,190 L 271,191 L 270,192 L 270,194 L 269,195 L 269,196 L 268,197 L 268,198 L 266,200 L 266,202 L 265,203 L 265,204 L 264,205 L 264,206 L 263,207 L 263,208 L 262,209 L 262,211 L 261,212 L 261,213 L 260,214 L 260,215 L 259,216 L 259,217 L 258,218 L 258,220 L 257,221 L 257,222 L 256,223 L 256,224 L 255,225 L 255,226 L 254,227 L 254,229 L 253,230 L 253,231 L 252,232 L 252,233 L 251,234 L 251,236 L 250,237 L 250,238 L 249,239 L 249,241 L 248,242 L 248,243 L 247,244 L 247,246 L 246,247 L 246,248 L 245,249 L 245,251 L 244,252 L 244,254 L 243,255 L 243,256 L 242,257 L 242,259 L 241,260 L 241,262 L 240,263 L 240,265 L 239,266 L 239,269 L 238,270 L 238,271 L 237,272 L 237,276 L 236,277 L 236,281 L 235,282 L 236,283 L 236,284 L 245,284 L 246,285 L 258,285 L 259,286 L 269,286 L 270,287 L 270,308 L 271,309 L 271,332 L 272,333 L 272,334 L 271,335 L 272,336 L 272,349 L 271,350 L 270,350 L 264,356 L 264,357 L 262,359 L 262,360 L 261,361 L 261,364 L 263,366 L 268,366 L 269,367 L 270,366 L 273,366 L 274,365 L 276,365 L 277,364 L 279,364 L 281,362 L 282,362 L 284,360 L 284,359 L 286,357 L 286,356 L 287,355 L 290,355 L 290,345 L 289,344 L 290,343 L 290,324 L 291,323 L 291,303 L 292,302 L 292,288 L 293,287 L 310,287 L 311,288 L 311,294 L 312,295 L 312,308 L 313,309 L 313,323 L 314,324 L 314,338 L 315,339 L 315,350 L 314,351 L 314,354 L 315,355 L 317,355 L 319,357 L 319,358 L 323,362 L 324,362 L 326,364 L 327,364 L 328,365 L 330,365 L 331,366 L 341,366 L 342,365 L 343,365 L 343,364 L 344,363 L 344,361 L 342,359 L 342,358 L 340,356 L 340,355 L 339,355 L 336,352 L 336,351 L 335,351 L 332,348 L 332,342 L 333,341 L 333,314 L 334,313 L 333,312 L 333,311 L 334,310 L 334,287 L 335,286 L 339,286 L 340,285 L 341,286 L 342,285 L 350,285 L 351,284 L 352,285 L 353,284 L 359,284 L 360,283 L 365,283 L 366,282 L 367,282 L 367,280 L 366,279 L 366,272 L 365,271 L 365,264 L 364,263 L 364,262 L 363,261 L 363,257 L 362,256 L 362,253 L 361,252 L 361,250 L 360,249 L 360,246 L 359,245 L 359,243 L 358,242 L 358,240 L 357,239 L 357,237 L 356,236 L 356,234 L 355,233 L 355,232 L 354,231 L 354,229 L 353,228 L 353,226 L 352,225 L 352,224 L 351,223 L 351,222 L 352,221 L 353,222 L 358,222 L 360,220 L 361,220 L 364,217 L 364,210 L 363,209 L 363,208 L 364,207 L 365,207 L 365,197 L 364,196 L 365,195 L 364,194 L 364,187 L 363,186 L 363,179 L 362,178 L 362,171 L 361,170 L 361,164 L 360,163 L 360,158 L 359,157 L 359,152 L 358,151 L 358,146 L 357,145 L 357,140 L 356,139 L 356,137 L 355,136 L 355,131 L 354,130 L 354,128 L 353,127 L 353,124 L 352,123 L 352,120 L 351,119 L 351,117 L 350,116 L 350,113 L 349,112 L 349,110 L 348,109 L 348,107 L 347,106 L 347,104 L 346,103 L 346,102 L 345,101 L 345,99 L 344,98 L 344,97 L 342,97 L 340,95 L 339,95 L 338,94 L 337,94 L 336,93 L 334,93 L 333,92 L 332,92 L 331,91 L 330,91 L 329,90 L 327,90 L 326,89 L 324,89 L 323,88 L 320,88 L 319,87 L 315,87 L 314,86 L 314,81 L 315,80 L 317,80 L 318,81 L 322,81 L 323,82 L 324,81 L 325,82 L 334,82 L 334,81 L 333,80 L 333,78 L 332,77 L 332,74 L 331,73 L 331,63 L 332,62 L 337,62 L 337,61 L 336,60 L 336,59 L 335,58 L 335,56 L 334,55 L 334,52 L 333,51 L 333,46 L 332,45 L 332,43 L 331,42 L 331,38 L 330,37 L 330,35 L 329,34 L 329,33 L 328,32 L 328,30 L 327,29 L 327,28 L 326,27 L 326,26 L 323,23 L 323,22 L 322,21 L 321,21 L 320,20 L 320,19 L 319,19 L 317,17 L 315,17 L 313,15 L 310,15 L 309,14 L 306,14 L 305,13 Z" fill="#000000" stroke="none" /><path d="M 481,284 L 478,287 L 477,287 L 474,290 L 473,290 L 469,294 L 468,294 L 464,298 L 463,298 L 458,303 L 457,303 L 453,307 L 452,307 L 449,310 L 449,311 L 448,312 L 447,312 L 445,314 L 444,314 L 437,321 L 436,321 L 429,328 L 429,329 L 428,330 L 427,330 L 424,333 L 423,333 L 399,357 L 399,358 L 389,368 L 389,369 L 382,376 L 382,377 L 377,382 L 377,383 L 372,388 L 372,389 L 370,391 L 370,392 L 366,396 L 366,397 L 363,400 L 363,401 L 361,403 L 361,404 L 359,406 L 359,407 L 356,410 L 356,411 L 355,412 L 355,413 L 352,416 L 351,416 L 350,415 L 350,414 L 331,395 L 330,395 L 325,390 L 324,390 L 321,387 L 320,387 L 318,385 L 317,385 L 315,383 L 314,383 L 313,382 L 312,382 L 311,381 L 310,381 L 309,380 L 308,380 L 306,382 L 305,382 L 301,386 L 300,386 L 298,388 L 297,388 L 293,392 L 292,392 L 289,395 L 288,395 L 285,398 L 284,398 L 282,400 L 281,400 L 277,404 L 276,404 L 277,404 L 278,405 L 279,405 L 280,406 L 281,406 L 283,408 L 284,408 L 286,410 L 287,410 L 289,412 L 290,412 L 292,414 L 293,414 L 294,415 L 295,415 L 296,416 L 296,417 L 298,417 L 299,418 L 299,419 L 300,420 L 301,420 L 305,424 L 306,424 L 309,427 L 310,427 L 311,428 L 311,429 L 314,432 L 315,432 L 322,439 L 323,439 L 324,440 L 324,441 L 327,444 L 327,445 L 331,449 L 332,449 L 333,450 L 333,451 L 334,452 L 334,453 L 338,457 L 338,458 L 341,461 L 341,462 L 342,463 L 343,463 L 344,464 L 344,466 L 345,467 L 346,467 L 347,468 L 346,469 L 348,471 L 348,472 L 349,473 L 349,474 L 351,476 L 351,477 L 353,479 L 353,480 L 354,481 L 354,482 L 355,483 L 355,484 L 356,483 L 356,482 L 357,481 L 357,479 L 358,478 L 358,477 L 359,476 L 359,474 L 360,473 L 360,472 L 361,471 L 361,469 L 362,468 L 362,467 L 363,466 L 363,465 L 364,464 L 364,462 L 365,461 L 365,459 L 367,457 L 367,456 L 368,455 L 368,454 L 369,453 L 369,451 L 370,450 L 370,449 L 371,448 L 371,447 L 372,446 L 371,445 L 372,444 L 373,444 L 373,443 L 374,442 L 374,441 L 375,440 L 375,438 L 376,437 L 376,436 L 378,434 L 378,432 L 380,430 L 380,428 L 381,427 L 381,426 L 383,424 L 383,423 L 384,422 L 383,421 L 384,420 L 385,420 L 384,419 L 385,418 L 386,418 L 386,417 L 387,416 L 386,415 L 387,414 L 388,414 L 388,413 L 390,411 L 390,410 L 391,409 L 391,408 L 392,407 L 392,406 L 393,405 L 393,404 L 395,402 L 395,401 L 396,400 L 396,399 L 397,398 L 397,397 L 399,395 L 399,394 L 400,393 L 400,392 L 401,391 L 401,390 L 403,388 L 403,387 L 405,385 L 405,384 L 406,383 L 406,382 L 408,380 L 407,379 L 408,378 L 409,378 L 409,377 L 411,375 L 411,374 L 412,373 L 412,372 L 414,370 L 414,369 L 416,367 L 416,365 L 417,364 L 418,364 L 418,363 L 420,361 L 420,359 L 421,358 L 422,358 L 422,357 L 425,354 L 424,353 L 425,352 L 426,352 L 427,351 L 427,350 L 429,348 L 429,347 L 431,345 L 431,344 L 434,341 L 434,340 L 437,337 L 437,335 L 438,334 L 439,334 L 440,333 L 440,332 L 443,329 L 443,327 L 444,326 L 445,326 L 446,325 L 446,324 L 450,320 L 450,319 L 454,315 L 454,314 L 458,310 L 458,309 L 464,303 L 464,302 L 471,295 L 471,294 Z" fill="#48a848" stroke="none" /></svg>