<?xml version="1.0" encoding="utf-8" ?>
<svg baseProfile="full" height="500" version="1.1" viewBox="0 0 500 500" width="500" xmlns="http://www.w3.org/2000/svg" xmlns:ev="http://www.w3.org/2001/xml-events" xmlns:xlink="http://www.w3.org/1999/xlink"><defs /><path d="M 59,99 L 58,100 L 53,100 L 52,101 L 50,101 L 49,102 L 47,102 L 46,103 L 45,103 L 44,104 L 43,104 L 42,105 L 41,105 L 39,107 L 38,107 L 34,111 L 33,111 L 33,112 L 29,116 L 29,117 L 27,119 L 27,120 L 24,123 L 24,126 L 23,127 L 22,127 L 23,128 L 22,129 L 22,132 L 21,133 L 20,133 L 21,134 L 20,135 L 21,136 L 21,138 L 20,139 L 20,147 L 21,148 L 21,152 L 20,153 L 21,153 L 22,154 L 21,155 L 22,156 L 22,157 L 23,158 L 23,159 L 24,160 L 24,162 L 25,163 L 25,164 L 27,166 L 27,167 L 29,169 L 29,170 L 37,178 L 37,179 L 38,179 L 39,180 L 40,180 L 41,181 L 42,181 L 43,182 L 44,182 L 46,184 L 47,184 L 48,185 L 49,184 L 50,185 L 52,185 L 53,186 L 56,186 L 57,187 L 58,187 L 59,188 L 60,187 L 61,187 L 62,188 L 62,192 L 61,193 L 61,194 L 60,195 L 60,196 L 58,198 L 58,199 L 56,201 L 56,204 L 55,205 L 55,207 L 54,208 L 54,230 L 53,231 L 54,232 L 54,244 L 53,245 L 54,246 L 54,258 L 53,259 L 54,260 L 54,267 L 53,268 L 53,298 L 52,299 L 53,300 L 53,304 L 52,305 L 53,306 L 53,310 L 52,311 L 53,312 L 52,313 L 52,326 L 51,327 L 51,330 L 50,331 L 51,332 L 51,334 L 50,335 L 51,336 L 50,337 L 51,338 L 51,340 L 50,341 L 50,353 L 49,354 L 49,367 L 48,368 L 48,375 L 46,377 L 46,378 L 45,379 L 45,380 L 44,381 L 44,382 L 43,383 L 42,383 L 43,384 L 42,385 L 41,385 L 42,386 L 41,387 L 40,387 L 41,388 L 39,390 L 39,391 L 38,392 L 38,393 L 37,394 L 37,395 L 35,397 L 35,399 L 33,401 L 33,402 L 32,403 L 31,403 L 32,404 L 31,405 L 31,406 L 30,407 L 30,408 L 29,409 L 28,409 L 29,410 L 27,412 L 27,413 L 26,414 L 26,415 L 24,417 L 24,419 L 23,420 L 23,421 L 21,423 L 21,424 L 20,425 L 19,425 L 20,426 L 19,427 L 19,428 L 18,429 L 18,430 L 17,431 L 16,431 L 17,432 L 14,435 L 15,436 L 14,437 L 14,443 L 15,444 L 15,446 L 18,449 L 18,450 L 19,451 L 19,452 L 22,455 L 22,456 L 23,457 L 23,458 L 25,460 L 25,461 L 26,462 L 26,463 L 27,463 L 28,464 L 30,464 L 31,465 L 36,465 L 37,466 L 38,465 L 39,465 L 40,464 L 41,464 L 45,460 L 46,460 L 45,459 L 45,458 L 46,457 L 46,451 L 45,450 L 45,449 L 44,448 L 44,447 L 42,445 L 43,444 L 42,444 L 41,443 L 41,442 L 39,440 L 39,438 L 41,436 L 41,435 L 42,434 L 43,434 L 42,433 L 43,432 L 43,431 L 44,430 L 44,429 L 46,427 L 46,426 L 47,425 L 47,424 L 49,422 L 49,420 L 50,419 L 50,418 L 51,417 L 51,416 L 53,414 L 53,413 L 54,412 L 55,412 L 54,411 L 55,410 L 55,409 L 56,408 L 56,407 L 57,406 L 57,405 L 59,403 L 59,402 L 60,401 L 60,400 L 61,399 L 61,398 L 62,397 L 62,396 L 63,395 L 63,394 L 65,392 L 65,391 L 66,390 L 66,389 L 67,388 L 67,387 L 68,386 L 68,385 L 69,384 L 69,383 L 70,382 L 70,378 L 71,377 L 71,375 L 72,374 L 71,373 L 71,371 L 72,370 L 71,369 L 71,367 L 72,366 L 71,365 L 71,364 L 73,362 L 72,361 L 72,351 L 73,350 L 73,338 L 74,337 L 75,337 L 76,338 L 76,339 L 77,340 L 76,341 L 77,341 L 78,342 L 78,343 L 79,344 L 79,345 L 80,346 L 79,347 L 80,347 L 81,348 L 81,349 L 82,350 L 82,351 L 84,353 L 84,354 L 85,355 L 85,356 L 86,357 L 86,359 L 88,361 L 88,362 L 89,363 L 89,364 L 90,365 L 90,366 L 91,367 L 91,369 L 93,371 L 93,372 L 94,373 L 94,375 L 96,377 L 96,378 L 98,380 L 97,381 L 98,381 L 99,382 L 99,383 L 100,384 L 100,386 L 101,387 L 101,393 L 102,394 L 102,401 L 103,402 L 103,408 L 104,409 L 104,410 L 103,411 L 104,412 L 103,413 L 104,414 L 104,415 L 105,416 L 105,422 L 106,423 L 106,424 L 105,425 L 106,426 L 106,428 L 105,429 L 107,431 L 107,437 L 108,438 L 108,444 L 109,445 L 109,447 L 110,448 L 110,449 L 111,449 L 114,452 L 114,453 L 115,452 L 118,455 L 119,455 L 122,458 L 123,458 L 124,459 L 125,459 L 128,462 L 129,462 L 130,463 L 131,463 L 132,464 L 139,464 L 140,463 L 142,463 L 145,460 L 145,459 L 146,458 L 146,457 L 147,456 L 147,451 L 148,450 L 147,450 L 146,449 L 147,448 L 146,447 L 146,446 L 145,446 L 144,445 L 144,444 L 143,444 L 141,442 L 140,442 L 138,440 L 137,440 L 135,438 L 134,438 L 133,437 L 133,436 L 132,436 L 130,434 L 130,433 L 131,432 L 129,430 L 129,424 L 128,423 L 128,417 L 127,416 L 127,413 L 128,412 L 127,411 L 127,409 L 126,408 L 126,402 L 125,401 L 126,400 L 125,399 L 125,397 L 126,396 L 124,394 L 124,386 L 123,385 L 123,380 L 122,379 L 122,377 L 121,376 L 121,374 L 119,372 L 119,370 L 117,368 L 117,367 L 116,366 L 116,365 L 115,364 L 115,363 L 114,362 L 114,361 L 113,360 L 113,359 L 111,357 L 112,356 L 111,356 L 110,355 L 110,354 L 109,353 L 109,352 L 108,351 L 108,350 L 107,349 L 107,348 L 106,347 L 106,346 L 105,345 L 105,344 L 104,343 L 104,342 L 103,341 L 103,340 L 102,339 L 102,338 L 101,337 L 101,336 L 99,334 L 99,333 L 98,332 L 98,331 L 97,330 L 97,329 L 96,328 L 96,326 L 94,324 L 94,323 L 93,322 L 93,321 L 92,320 L 92,319 L 91,318 L 91,316 L 89,314 L 89,312 L 88,311 L 88,310 L 86,308 L 86,307 L 84,305 L 84,304 L 83,303 L 83,302 L 82,301 L 83,300 L 82,300 L 81,299 L 81,217 L 82,216 L 85,216 L 86,217 L 90,217 L 91,218 L 95,218 L 96,219 L 100,219 L 101,220 L 105,220 L 106,221 L 110,221 L 111,222 L 116,222 L 117,223 L 120,223 L 121,224 L 123,224 L 124,225 L 125,224 L 126,224 L 127,225 L 129,223 L 131,223 L 132,222 L 133,222 L 134,221 L 136,221 L 137,220 L 138,220 L 139,221 L 141,219 L 142,220 L 142,219 L 143,218 L 145,218 L 146,217 L 148,217 L 149,216 L 151,216 L 152,215 L 154,215 L 155,214 L 157,214 L 158,213 L 160,213 L 161,212 L 162,212 L 163,211 L 165,211 L 166,210 L 167,211 L 168,211 L 170,209 L 171,209 L 172,208 L 175,208 L 176,207 L 181,207 L 182,208 L 183,207 L 185,207 L 186,206 L 187,206 L 188,205 L 189,205 L 190,204 L 191,204 L 195,200 L 195,199 L 196,198 L 196,197 L 197,196 L 197,193 L 198,192 L 197,191 L 197,188 L 196,187 L 196,186 L 195,186 L 193,184 L 192,184 L 191,183 L 181,183 L 179,185 L 178,185 L 175,188 L 175,189 L 174,190 L 174,192 L 173,193 L 170,193 L 169,194 L 167,194 L 166,195 L 165,195 L 164,196 L 162,196 L 161,197 L 159,197 L 158,198 L 156,198 L 155,199 L 153,199 L 152,200 L 150,200 L 149,201 L 146,201 L 145,202 L 144,202 L 143,203 L 142,203 L 141,204 L 139,204 L 138,205 L 136,205 L 135,206 L 133,206 L 132,207 L 129,207 L 128,208 L 127,208 L 126,209 L 121,209 L 120,208 L 115,208 L 114,207 L 110,207 L 109,206 L 105,206 L 104,205 L 100,205 L 99,204 L 95,204 L 93,202 L 94,201 L 96,201 L 97,200 L 100,200 L 101,199 L 102,199 L 103,198 L 104,198 L 105,197 L 107,197 L 108,196 L 110,196 L 111,195 L 112,195 L 113,194 L 116,194 L 117,193 L 118,193 L 119,192 L 120,192 L 121,191 L 124,191 L 125,190 L 127,190 L 129,188 L 132,188 L 133,187 L 134,187 L 135,186 L 136,186 L 137,185 L 139,185 L 140,184 L 142,184 L 143,183 L 145,183 L 146,182 L 148,182 L 148,181 L 150,179 L 151,179 L 152,178 L 153,178 L 153,177 L 154,176 L 155,176 L 159,172 L 160,172 L 161,171 L 162,171 L 163,170 L 163,169 L 164,168 L 165,168 L 169,164 L 170,164 L 172,162 L 173,162 L 178,157 L 179,157 L 180,156 L 181,156 L 181,155 L 183,153 L 184,153 L 186,151 L 187,151 L 190,148 L 190,146 L 191,145 L 192,145 L 193,144 L 194,144 L 198,140 L 198,139 L 200,137 L 200,135 L 201,134 L 201,127 L 202,126 L 201,126 L 200,125 L 201,124 L 200,124 L 199,123 L 199,122 L 197,122 L 196,121 L 187,121 L 186,122 L 185,122 L 184,123 L 183,123 L 180,126 L 180,128 L 179,129 L 178,129 L 179,130 L 179,135 L 180,136 L 180,137 L 179,138 L 178,138 L 174,142 L 173,142 L 170,145 L 169,145 L 167,147 L 166,147 L 166,148 L 165,149 L 164,149 L 162,151 L 161,151 L 161,152 L 160,153 L 159,153 L 157,155 L 156,155 L 154,157 L 153,157 L 153,158 L 151,160 L 150,160 L 149,161 L 148,161 L 148,162 L 147,163 L 146,163 L 142,167 L 141,167 L 139,169 L 138,169 L 137,170 L 135,170 L 134,171 L 132,171 L 131,172 L 130,172 L 129,173 L 127,173 L 126,174 L 125,174 L 124,175 L 122,175 L 121,176 L 119,176 L 118,177 L 117,177 L 116,178 L 114,178 L 113,179 L 111,179 L 110,180 L 109,180 L 108,181 L 106,181 L 105,182 L 103,182 L 102,183 L 101,183 L 100,184 L 98,184 L 97,185 L 95,185 L 94,186 L 93,186 L 92,187 L 90,187 L 89,188 L 87,188 L 86,189 L 85,189 L 84,190 L 82,190 L 81,191 L 79,191 L 78,192 L 77,192 L 76,191 L 76,186 L 77,185 L 79,185 L 80,184 L 83,184 L 85,182 L 86,182 L 87,181 L 88,181 L 89,180 L 90,180 L 91,179 L 92,179 L 94,177 L 96,177 L 96,176 L 102,170 L 102,169 L 105,166 L 105,164 L 107,162 L 106,161 L 106,160 L 107,159 L 107,156 L 108,155 L 108,153 L 109,152 L 109,151 L 110,150 L 111,150 L 111,148 L 114,145 L 114,144 L 115,143 L 115,139 L 114,138 L 114,137 L 106,129 L 106,128 L 105,127 L 105,125 L 104,124 L 104,123 L 103,122 L 103,121 L 101,119 L 101,118 L 98,115 L 98,114 L 93,109 L 92,109 L 89,106 L 88,106 L 87,105 L 86,105 L 85,104 L 84,104 L 83,103 L 82,103 L 81,102 L 79,102 L 78,101 L 77,101 L 76,100 L 71,100 L 70,99 Z" fill="#000000" stroke="none" /><path d="M 428,98 L 427,99 L 422,99 L 421,100 L 418,100 L 417,101 L 415,101 L 414,102 L 413,102 L 412,103 L 411,103 L 410,104 L 409,104 L 407,106 L 406,106 L 403,109 L 402,109 L 398,113 L 398,114 L 397,115 L 396,115 L 396,116 L 395,117 L 395,118 L 394,119 L 393,119 L 393,121 L 392,122 L 392,123 L 391,124 L 391,126 L 390,127 L 389,127 L 390,128 L 390,129 L 389,130 L 389,133 L 388,134 L 388,138 L 387,139 L 388,140 L 388,142 L 387,143 L 386,143 L 386,145 L 384,147 L 384,148 L 383,149 L 383,151 L 381,153 L 382,154 L 382,155 L 383,156 L 382,157 L 383,158 L 384,158 L 386,160 L 387,160 L 389,162 L 390,162 L 393,165 L 393,166 L 394,167 L 394,168 L 395,169 L 395,171 L 396,172 L 397,172 L 398,173 L 398,174 L 402,178 L 403,178 L 405,180 L 406,180 L 407,181 L 408,181 L 409,182 L 410,182 L 411,183 L 412,183 L 413,184 L 415,184 L 416,185 L 420,185 L 421,186 L 423,186 L 425,188 L 425,191 L 424,192 L 396,192 L 395,191 L 367,191 L 366,190 L 365,190 L 364,189 L 364,188 L 362,188 L 360,186 L 358,186 L 357,185 L 356,185 L 353,182 L 351,182 L 350,181 L 349,181 L 348,180 L 347,180 L 346,179 L 346,178 L 344,178 L 342,176 L 340,176 L 339,175 L 338,175 L 336,173 L 335,173 L 334,172 L 333,172 L 332,171 L 331,171 L 330,170 L 329,170 L 327,168 L 326,168 L 325,167 L 324,167 L 323,166 L 322,166 L 321,165 L 320,165 L 318,163 L 317,163 L 316,162 L 316,160 L 315,159 L 315,158 L 314,158 L 313,157 L 313,156 L 312,155 L 312,154 L 311,154 L 307,150 L 306,150 L 305,149 L 303,149 L 302,148 L 298,148 L 297,149 L 294,149 L 292,151 L 291,151 L 289,153 L 289,156 L 288,157 L 289,158 L 289,161 L 290,162 L 290,163 L 291,164 L 291,165 L 295,169 L 296,169 L 297,170 L 298,170 L 299,171 L 301,171 L 302,172 L 303,172 L 304,173 L 305,172 L 306,173 L 306,174 L 307,174 L 308,175 L 309,175 L 310,176 L 311,176 L 313,178 L 314,178 L 315,179 L 316,179 L 317,180 L 318,180 L 319,181 L 320,181 L 322,183 L 323,183 L 324,184 L 325,184 L 326,185 L 327,185 L 328,186 L 329,186 L 331,188 L 332,188 L 333,189 L 334,189 L 335,190 L 336,190 L 337,191 L 337,192 L 339,192 L 340,193 L 341,193 L 342,194 L 343,194 L 344,195 L 345,195 L 346,196 L 346,197 L 348,197 L 349,198 L 350,198 L 351,199 L 352,199 L 354,201 L 355,201 L 356,202 L 357,202 L 358,203 L 359,203 L 360,204 L 361,204 L 362,205 L 369,205 L 370,206 L 372,206 L 373,207 L 374,206 L 375,207 L 376,206 L 378,206 L 379,207 L 380,207 L 381,206 L 382,206 L 383,207 L 385,207 L 386,206 L 387,207 L 390,207 L 391,206 L 406,206 L 407,207 L 406,208 L 404,208 L 403,209 L 401,209 L 400,210 L 398,210 L 397,211 L 395,211 L 394,212 L 392,212 L 391,213 L 389,213 L 388,214 L 387,214 L 386,215 L 384,215 L 383,216 L 381,216 L 380,217 L 375,217 L 374,216 L 370,216 L 369,215 L 366,215 L 365,214 L 360,214 L 359,213 L 356,213 L 355,212 L 350,212 L 349,211 L 344,211 L 343,210 L 339,210 L 338,209 L 334,209 L 333,208 L 328,208 L 327,207 L 328,206 L 327,206 L 326,205 L 326,204 L 323,201 L 322,201 L 321,200 L 317,200 L 316,199 L 315,199 L 314,200 L 310,200 L 309,201 L 307,201 L 307,202 L 305,204 L 305,205 L 304,206 L 304,212 L 305,213 L 305,215 L 311,221 L 313,221 L 314,222 L 316,222 L 317,223 L 321,223 L 322,224 L 323,224 L 323,223 L 324,222 L 325,222 L 326,223 L 327,222 L 329,222 L 330,223 L 334,223 L 335,224 L 338,224 L 339,225 L 340,225 L 341,226 L 342,226 L 343,225 L 344,225 L 345,226 L 347,226 L 348,227 L 349,226 L 350,227 L 355,227 L 356,228 L 360,228 L 361,229 L 365,229 L 366,230 L 370,230 L 371,231 L 375,231 L 376,232 L 381,232 L 382,231 L 384,231 L 385,230 L 386,230 L 387,231 L 388,230 L 389,230 L 391,228 L 393,228 L 394,227 L 396,227 L 397,226 L 399,226 L 400,225 L 401,225 L 402,224 L 404,224 L 405,223 L 407,223 L 408,222 L 410,222 L 411,221 L 413,221 L 414,220 L 415,221 L 417,219 L 419,219 L 420,220 L 420,299 L 419,300 L 419,301 L 418,302 L 418,303 L 417,304 L 417,305 L 416,306 L 416,307 L 415,308 L 415,309 L 414,310 L 414,311 L 413,312 L 413,313 L 412,314 L 412,315 L 411,316 L 411,317 L 409,319 L 409,320 L 408,321 L 408,322 L 407,323 L 407,324 L 406,325 L 406,326 L 405,327 L 404,327 L 405,328 L 404,329 L 404,330 L 403,331 L 403,332 L 402,333 L 402,334 L 401,335 L 401,336 L 400,337 L 399,337 L 400,338 L 399,339 L 399,340 L 398,341 L 398,342 L 397,343 L 396,343 L 396,345 L 394,347 L 394,348 L 393,349 L 393,351 L 391,353 L 391,355 L 390,356 L 390,357 L 389,358 L 389,359 L 388,360 L 388,361 L 386,363 L 386,365 L 385,366 L 385,367 L 384,368 L 384,369 L 383,370 L 383,371 L 381,373 L 381,374 L 380,375 L 380,376 L 379,377 L 379,378 L 378,379 L 379,380 L 379,381 L 378,382 L 378,386 L 377,387 L 378,388 L 377,389 L 377,390 L 376,391 L 377,392 L 376,393 L 377,394 L 377,395 L 376,396 L 376,402 L 375,403 L 375,410 L 374,411 L 374,414 L 373,415 L 374,416 L 374,417 L 373,418 L 373,424 L 372,425 L 372,432 L 371,433 L 370,433 L 371,434 L 371,435 L 370,436 L 369,436 L 367,438 L 366,438 L 363,441 L 362,441 L 360,443 L 359,443 L 355,447 L 355,449 L 354,450 L 354,456 L 355,457 L 355,458 L 356,459 L 356,461 L 357,461 L 360,464 L 361,463 L 362,464 L 367,464 L 368,465 L 370,463 L 371,463 L 372,462 L 373,462 L 375,460 L 376,460 L 377,459 L 378,459 L 378,458 L 379,457 L 380,457 L 381,458 L 380,457 L 382,455 L 383,455 L 385,453 L 386,453 L 389,450 L 391,450 L 390,449 L 391,448 L 392,448 L 392,446 L 393,445 L 393,441 L 394,440 L 394,432 L 395,431 L 395,425 L 396,424 L 396,418 L 398,416 L 397,415 L 397,410 L 398,409 L 398,405 L 399,404 L 398,403 L 399,402 L 399,396 L 401,394 L 400,393 L 400,388 L 401,387 L 401,385 L 402,384 L 403,384 L 402,383 L 403,382 L 403,381 L 404,380 L 404,379 L 405,378 L 405,377 L 406,376 L 406,375 L 407,374 L 408,374 L 407,373 L 408,372 L 408,371 L 409,370 L 410,370 L 409,369 L 410,368 L 410,367 L 411,366 L 411,365 L 412,364 L 412,363 L 414,361 L 414,360 L 415,359 L 415,358 L 416,357 L 416,356 L 417,355 L 417,354 L 418,353 L 418,352 L 420,350 L 420,348 L 421,347 L 421,346 L 422,345 L 422,344 L 424,342 L 424,341 L 425,340 L 425,338 L 427,336 L 428,337 L 428,348 L 429,349 L 429,362 L 430,363 L 430,372 L 429,373 L 430,374 L 430,376 L 431,377 L 431,382 L 432,383 L 432,384 L 433,385 L 433,387 L 434,388 L 434,389 L 435,390 L 435,391 L 436,391 L 437,392 L 437,393 L 438,394 L 438,395 L 439,396 L 439,397 L 440,398 L 440,399 L 441,400 L 441,401 L 442,402 L 442,403 L 444,405 L 444,406 L 445,407 L 445,409 L 447,411 L 447,413 L 448,413 L 449,414 L 449,415 L 450,416 L 449,417 L 450,417 L 451,418 L 451,419 L 452,420 L 452,421 L 453,422 L 453,423 L 454,424 L 454,425 L 456,427 L 456,428 L 457,429 L 457,430 L 458,431 L 458,432 L 459,433 L 459,434 L 461,436 L 461,437 L 462,438 L 462,440 L 461,441 L 461,442 L 459,444 L 459,445 L 457,447 L 457,448 L 456,449 L 456,451 L 455,452 L 455,454 L 454,455 L 456,457 L 456,458 L 455,459 L 456,459 L 457,460 L 456,461 L 457,461 L 460,464 L 461,464 L 462,465 L 465,465 L 466,466 L 468,466 L 469,465 L 471,465 L 472,464 L 473,464 L 475,462 L 476,462 L 476,461 L 477,460 L 477,459 L 478,458 L 478,457 L 480,455 L 480,454 L 482,452 L 483,452 L 482,451 L 484,449 L 484,448 L 485,447 L 485,446 L 486,445 L 486,444 L 487,443 L 487,441 L 488,440 L 487,439 L 487,437 L 486,436 L 486,434 L 485,433 L 485,432 L 483,430 L 483,428 L 481,426 L 481,425 L 480,424 L 480,423 L 479,422 L 479,421 L 477,419 L 477,418 L 476,417 L 476,416 L 475,415 L 475,414 L 474,413 L 474,412 L 473,411 L 473,410 L 471,408 L 471,407 L 470,406 L 470,405 L 469,404 L 469,403 L 468,402 L 468,400 L 465,397 L 465,396 L 464,395 L 464,394 L 463,393 L 463,392 L 462,391 L 462,390 L 461,389 L 461,388 L 460,387 L 460,386 L 458,384 L 458,383 L 457,382 L 457,381 L 456,380 L 456,379 L 455,378 L 455,377 L 453,375 L 453,366 L 452,365 L 453,364 L 452,363 L 452,352 L 451,351 L 451,347 L 452,346 L 451,345 L 451,341 L 452,340 L 451,339 L 451,338 L 450,337 L 450,327 L 451,326 L 449,324 L 449,311 L 448,310 L 448,299 L 449,298 L 448,297 L 448,293 L 449,292 L 448,291 L 448,287 L 449,286 L 448,285 L 448,283 L 447,282 L 447,277 L 448,276 L 447,275 L 447,251 L 448,250 L 447,249 L 447,239 L 446,238 L 446,235 L 447,234 L 446,233 L 446,229 L 447,228 L 446,227 L 446,215 L 447,214 L 446,213 L 446,205 L 445,204 L 445,202 L 444,201 L 444,199 L 443,198 L 443,196 L 442,196 L 440,194 L 440,193 L 439,192 L 439,187 L 441,185 L 442,185 L 443,186 L 444,186 L 444,185 L 445,184 L 447,184 L 448,183 L 449,183 L 450,182 L 451,182 L 452,181 L 453,182 L 453,181 L 454,180 L 455,180 L 457,178 L 458,178 L 462,174 L 463,174 L 463,173 L 468,168 L 468,167 L 469,166 L 469,165 L 471,163 L 471,162 L 472,161 L 472,159 L 473,158 L 473,157 L 474,156 L 474,153 L 475,152 L 475,145 L 476,144 L 476,140 L 475,139 L 475,133 L 474,132 L 474,128 L 473,127 L 473,126 L 472,125 L 472,124 L 471,123 L 472,122 L 471,122 L 470,121 L 471,120 L 470,120 L 468,118 L 468,117 L 466,115 L 466,114 L 460,108 L 459,108 L 456,105 L 455,105 L 454,104 L 453,104 L 452,103 L 451,103 L 450,102 L 449,102 L 448,101 L 446,101 L 445,100 L 443,100 L 442,99 L 437,99 L 436,98 Z" fill="#000000" stroke="none" /><path d="M 237,40 L 236,41 L 229,41 L 228,42 L 225,42 L 224,43 L 223,43 L 222,44 L 221,44 L 220,45 L 218,45 L 216,47 L 215,47 L 213,49 L 212,49 L 204,57 L 204,58 L 202,60 L 202,61 L 201,62 L 201,63 L 200,64 L 200,65 L 199,66 L 199,67 L 197,69 L 198,70 L 197,71 L 197,74 L 196,75 L 196,80 L 195,81 L 196,82 L 196,88 L 195,89 L 196,90 L 196,91 L 197,92 L 197,95 L 198,96 L 197,97 L 198,98 L 198,99 L 199,100 L 199,101 L 200,102 L 200,103 L 201,104 L 201,105 L 203,107 L 203,109 L 204,109 L 206,111 L 206,112 L 210,116 L 211,116 L 214,119 L 215,119 L 217,121 L 217,122 L 220,122 L 221,123 L 223,123 L 224,124 L 226,124 L 227,125 L 229,125 L 230,126 L 238,126 L 239,127 L 240,126 L 243,126 L 244,127 L 245,127 L 247,125 L 248,125 L 249,126 L 250,126 L 250,125 L 251,124 L 254,124 L 255,123 L 256,124 L 256,123 L 257,122 L 258,122 L 259,121 L 260,121 L 262,119 L 263,120 L 269,114 L 270,114 L 270,113 L 272,111 L 272,110 L 273,109 L 274,109 L 275,108 L 275,106 L 276,105 L 276,104 L 277,103 L 277,102 L 278,101 L 278,100 L 279,99 L 279,97 L 280,96 L 280,95 L 281,94 L 280,93 L 281,92 L 281,89 L 282,88 L 281,87 L 281,84 L 282,83 L 281,82 L 281,79 L 282,78 L 281,77 L 281,74 L 280,73 L 280,70 L 279,69 L 279,68 L 278,67 L 278,64 L 277,63 L 277,62 L 276,62 L 275,61 L 275,60 L 274,59 L 274,58 L 264,48 L 263,48 L 262,47 L 261,47 L 259,45 L 258,45 L 257,44 L 255,44 L 254,43 L 253,43 L 252,42 L 249,42 L 248,41 L 242,41 L 241,40 Z" fill="#000000" stroke="none" /><path d="M 236,50 L 235,51 L 230,51 L 229,52 L 227,52 L 226,53 L 225,53 L 224,54 L 223,54 L 222,55 L 221,55 L 219,57 L 218,57 L 212,63 L 212,64 L 210,66 L 210,67 L 209,68 L 209,69 L 208,70 L 208,72 L 207,73 L 207,75 L 206,76 L 206,90 L 207,91 L 207,94 L 208,95 L 208,96 L 209,97 L 209,99 L 211,101 L 211,102 L 214,105 L 214,106 L 215,107 L 216,107 L 220,111 L 221,111 L 222,112 L 223,112 L 224,113 L 225,113 L 226,114 L 227,114 L 228,115 L 231,115 L 232,116 L 245,116 L 246,115 L 249,115 L 250,114 L 252,114 L 253,113 L 254,113 L 256,111 L 257,111 L 259,109 L 260,109 L 264,105 L 264,104 L 266,102 L 266,101 L 268,99 L 268,98 L 269,97 L 269,95 L 270,94 L 270,92 L 271,91 L 271,85 L 272,84 L 272,82 L 271,81 L 271,75 L 270,74 L 270,72 L 269,71 L 269,70 L 268,69 L 268,68 L 267,67 L 267,66 L 265,64 L 265,63 L 258,56 L 257,56 L 256,55 L 255,55 L 254,54 L 253,54 L 252,53 L 251,53 L 250,52 L 248,52 L 247,51 L 243,51 L 242,50 Z" fill="#d81818" stroke="none" /><path d="M 313,208 L 312,209 L 312,210 L 316,214 L 318,214 L 319,215 L 320,215 L 320,210 L 318,208 Z" fill="#f0f0f0" stroke="none" /><path d="M 184,191 L 182,193 L 182,196 L 181,197 L 182,198 L 182,199 L 183,198 L 185,198 L 189,194 L 189,192 L 188,191 Z" fill="#f0f0f0" stroke="none" /><path d="M 297,157 L 297,158 L 298,159 L 298,160 L 301,163 L 303,163 L 304,164 L 306,162 L 306,161 L 304,159 L 304,158 L 303,158 L 302,157 Z" fill="#f0f0f0" stroke="none" /><path d="M 189,129 L 187,131 L 187,133 L 188,134 L 188,137 L 189,137 L 192,134 L 192,133 L 193,132 L 193,129 Z" fill="#f0f0f0" stroke="none" /><path d="M 59,109 L 58,110 L 55,110 L 54,111 L 52,111 L 51,112 L 50,112 L 49,113 L 48,113 L 47,114 L 46,114 L 44,116 L 43,116 L 37,122 L 37,123 L 35,125 L 35,126 L 34,127 L 34,128 L 33,129 L 33,130 L 32,131 L 32,133 L 31,134 L 31,138 L 30,139 L 30,147 L 31,148 L 31,152 L 32,153 L 32,155 L 33,156 L 33,157 L 34,158 L 34,159 L 35,160 L 35,161 L 37,163 L 37,164 L 43,170 L 44,170 L 46,172 L 47,172 L 49,174 L 51,174 L 52,175 L 53,175 L 54,176 L 57,176 L 58,177 L 70,177 L 71,176 L 74,176 L 75,175 L 77,175 L 78,174 L 80,174 L 81,173 L 82,173 L 83,172 L 84,172 L 85,171 L 86,171 L 89,168 L 90,168 L 93,165 L 93,164 L 95,162 L 95,161 L 96,160 L 96,159 L 97,158 L 97,155 L 98,154 L 98,150 L 99,149 L 99,148 L 100,147 L 100,146 L 102,144 L 102,143 L 104,141 L 102,139 L 101,139 L 98,136 L 98,135 L 97,134 L 97,133 L 96,132 L 96,130 L 95,129 L 95,128 L 94,127 L 94,126 L 93,125 L 93,124 L 84,115 L 83,115 L 81,113 L 80,113 L 79,112 L 78,112 L 77,111 L 75,111 L 74,110 L 70,110 L 69,109 Z" fill="#f0f0f0" stroke="none" /><path d="M 428,108 L 427,109 L 423,109 L 422,110 L 420,110 L 419,111 L 418,111 L 417,112 L 415,112 L 413,114 L 412,114 L 403,123 L 403,124 L 402,125 L 402,126 L 401,127 L 401,128 L 400,129 L 400,130 L 399,131 L 399,134 L 398,135 L 398,142 L 397,143 L 397,147 L 394,150 L 394,151 L 393,152 L 394,153 L 395,153 L 402,160 L 402,162 L 404,164 L 404,165 L 406,167 L 406,168 L 407,169 L 408,169 L 411,172 L 412,172 L 413,173 L 414,173 L 415,174 L 417,174 L 418,175 L 421,175 L 422,176 L 439,176 L 440,175 L 442,175 L 443,174 L 445,174 L 446,173 L 447,173 L 448,172 L 449,172 L 451,170 L 452,170 L 459,163 L 459,162 L 461,160 L 461,159 L 462,158 L 462,157 L 463,156 L 463,155 L 464,154 L 464,151 L 465,150 L 465,146 L 466,145 L 466,140 L 465,139 L 465,134 L 464,133 L 464,131 L 463,130 L 463,128 L 462,127 L 462,126 L 460,124 L 460,123 L 457,120 L 457,119 L 454,116 L 453,116 L 451,114 L 450,114 L 448,112 L 447,112 L 446,111 L 444,111 L 443,110 L 441,110 L 440,109 L 436,109 L 435,108 Z" fill="#f0f0f0" stroke="none" /></svg>