<?xml version="1.0" encoding="utf-8" ?>
<svg baseProfile="full" height="500" version="1.1" viewBox="0 0 500 500" width="500" xmlns="http://www.w3.org/2000/svg" xmlns:ev="http://www.w3.org/2001/xml-events" xmlns:xlink="http://www.w3.org/1999/xlink"><defs /><path d="M 56,289 L 55,290 L 53,290 L 51,292 L 51,293 L 50,294 L 50,302 L 51,303 L 51,304 L 50,305 L 42,305 L 41,304 L 37,304 L 36,303 L 35,303 L 33,305 L 33,306 L 32,307 L 32,308 L 31,309 L 31,311 L 30,312 L 30,313 L 29,314 L 29,316 L 28,317 L 28,319 L 27,320 L 27,325 L 26,326 L 26,327 L 27,328 L 27,332 L 31,336 L 34,336 L 35,335 L 39,335 L 40,334 L 42,336 L 42,337 L 43,338 L 43,340 L 42,341 L 41,341 L 40,340 L 32,340 L 31,341 L 30,341 L 29,342 L 29,343 L 28,344 L 28,352 L 29,353 L 29,356 L 32,359 L 32,371 L 31,372 L 31,375 L 30,376 L 28,374 L 20,374 L 19,375 L 18,375 L 17,376 L 16,376 L 15,377 L 15,379 L 14,380 L 14,386 L 15,387 L 15,389 L 16,390 L 16,391 L 17,391 L 18,392 L 19,392 L 20,393 L 24,393 L 25,392 L 28,392 L 29,391 L 32,391 L 33,392 L 33,395 L 32,396 L 32,403 L 31,404 L 31,414 L 30,415 L 30,420 L 29,421 L 29,435 L 32,438 L 34,438 L 35,437 L 38,437 L 39,436 L 40,436 L 41,437 L 42,437 L 43,438 L 43,439 L 44,440 L 44,442 L 42,444 L 38,444 L 37,443 L 34,443 L 33,444 L 32,444 L 31,445 L 30,445 L 30,447 L 29,448 L 29,451 L 30,452 L 30,458 L 31,459 L 31,464 L 32,465 L 32,467 L 33,467 L 34,466 L 36,466 L 37,465 L 40,465 L 41,464 L 46,464 L 47,463 L 51,463 L 52,464 L 53,464 L 54,465 L 53,466 L 53,476 L 55,478 L 56,478 L 57,479 L 64,479 L 65,478 L 66,478 L 69,475 L 69,465 L 70,464 L 72,464 L 73,465 L 85,465 L 87,467 L 94,467 L 95,468 L 99,468 L 100,467 L 103,467 L 104,466 L 105,466 L 105,465 L 106,464 L 106,461 L 105,460 L 105,459 L 104,458 L 104,455 L 106,453 L 107,453 L 108,452 L 111,452 L 112,453 L 112,455 L 113,456 L 112,457 L 112,461 L 111,462 L 112,463 L 112,465 L 114,467 L 115,467 L 116,468 L 124,468 L 125,467 L 129,467 L 130,466 L 131,466 L 132,465 L 133,465 L 134,464 L 137,464 L 138,463 L 141,463 L 142,462 L 145,462 L 146,461 L 149,461 L 150,460 L 152,460 L 153,459 L 154,460 L 154,461 L 155,462 L 155,463 L 154,464 L 154,472 L 156,474 L 157,474 L 158,475 L 165,475 L 166,474 L 167,474 L 170,471 L 170,469 L 171,468 L 171,465 L 170,464 L 170,463 L 171,462 L 173,462 L 174,463 L 183,463 L 184,464 L 189,464 L 189,462 L 190,461 L 190,459 L 191,458 L 191,455 L 192,454 L 192,452 L 193,451 L 193,444 L 192,443 L 192,441 L 190,439 L 188,439 L 187,438 L 184,438 L 183,439 L 181,439 L 180,440 L 177,440 L 176,439 L 176,438 L 175,437 L 175,434 L 176,433 L 176,432 L 177,431 L 178,431 L 179,430 L 182,430 L 183,431 L 185,431 L 186,432 L 187,432 L 188,433 L 189,433 L 190,434 L 191,434 L 191,414 L 190,413 L 190,411 L 184,405 L 183,405 L 182,404 L 181,404 L 180,403 L 179,403 L 178,402 L 176,402 L 175,401 L 173,401 L 172,400 L 165,400 L 164,401 L 163,401 L 163,402 L 162,403 L 162,407 L 163,408 L 163,409 L 164,410 L 164,416 L 163,417 L 162,417 L 161,418 L 158,418 L 156,416 L 156,409 L 155,408 L 155,407 L 154,406 L 154,405 L 153,405 L 152,404 L 150,404 L 149,403 L 148,403 L 147,404 L 144,404 L 143,405 L 139,405 L 138,404 L 138,403 L 137,402 L 137,398 L 138,397 L 147,397 L 148,396 L 149,396 L 150,395 L 150,394 L 151,393 L 151,389 L 152,388 L 151,387 L 151,383 L 149,381 L 149,380 L 148,380 L 147,379 L 146,379 L 145,378 L 141,378 L 140,379 L 138,379 L 137,380 L 136,380 L 135,379 L 135,378 L 136,377 L 136,369 L 137,368 L 137,363 L 139,361 L 144,361 L 145,362 L 151,362 L 152,363 L 156,363 L 157,362 L 158,362 L 159,361 L 159,360 L 160,359 L 160,357 L 159,356 L 159,354 L 158,353 L 158,350 L 159,349 L 163,349 L 164,350 L 164,353 L 163,354 L 163,356 L 162,357 L 162,360 L 163,361 L 163,362 L 164,363 L 165,363 L 166,364 L 176,364 L 177,363 L 180,363 L 181,362 L 183,362 L 184,361 L 186,361 L 187,360 L 188,360 L 189,359 L 190,359 L 190,355 L 191,354 L 191,344 L 190,343 L 190,341 L 186,337 L 178,337 L 177,338 L 176,338 L 174,336 L 174,333 L 176,331 L 183,331 L 184,332 L 187,332 L 188,331 L 190,331 L 193,328 L 193,324 L 194,323 L 193,322 L 193,309 L 192,308 L 192,307 L 191,306 L 190,306 L 189,305 L 187,305 L 186,306 L 180,306 L 179,307 L 173,307 L 172,308 L 167,308 L 166,307 L 167,306 L 167,297 L 166,296 L 166,295 L 164,293 L 163,293 L 162,292 L 154,292 L 153,293 L 152,293 L 151,294 L 150,294 L 149,295 L 149,296 L 148,297 L 148,304 L 149,305 L 149,306 L 148,307 L 143,307 L 142,306 L 139,306 L 138,305 L 137,305 L 136,304 L 135,304 L 134,303 L 133,303 L 131,301 L 130,301 L 129,300 L 127,300 L 126,299 L 125,299 L 124,298 L 121,298 L 120,297 L 117,297 L 116,298 L 114,298 L 112,300 L 112,302 L 111,303 L 111,307 L 112,308 L 112,310 L 113,311 L 113,312 L 112,313 L 111,313 L 110,314 L 106,314 L 105,313 L 105,306 L 104,305 L 104,304 L 101,301 L 95,301 L 94,302 L 90,302 L 89,303 L 85,303 L 84,304 L 80,304 L 79,305 L 73,305 L 72,306 L 69,306 L 67,304 L 68,303 L 68,295 L 67,294 L 67,293 L 65,291 L 64,291 L 63,290 L 59,290 L 58,289 Z" fill="#000000" stroke="none" /><path d="M 410,278 L 409,279 L 408,279 L 407,280 L 406,280 L 404,282 L 403,282 L 402,283 L 401,283 L 400,284 L 399,284 L 398,285 L 397,285 L 396,286 L 395,286 L 393,288 L 392,288 L 391,289 L 390,289 L 389,290 L 388,290 L 387,291 L 386,291 L 385,292 L 384,292 L 382,294 L 381,294 L 380,295 L 379,295 L 378,296 L 377,296 L 376,297 L 375,297 L 373,299 L 372,299 L 371,300 L 370,300 L 369,301 L 368,301 L 367,302 L 366,302 L 365,303 L 364,303 L 362,305 L 361,305 L 360,306 L 359,306 L 358,307 L 357,307 L 356,308 L 355,308 L 354,309 L 353,309 L 351,311 L 350,311 L 349,312 L 348,312 L 347,313 L 346,313 L 345,314 L 344,314 L 343,315 L 342,315 L 342,320 L 343,321 L 367,321 L 368,322 L 368,335 L 367,336 L 365,336 L 364,337 L 362,337 L 361,338 L 359,338 L 358,339 L 356,339 L 355,340 L 353,340 L 352,341 L 351,341 L 350,342 L 345,342 L 345,368 L 358,368 L 359,369 L 359,404 L 358,405 L 356,405 L 355,406 L 354,406 L 353,407 L 352,407 L 351,408 L 349,408 L 348,409 L 347,409 L 346,410 L 345,410 L 344,411 L 342,411 L 341,412 L 340,412 L 339,413 L 338,413 L 337,414 L 335,414 L 334,415 L 333,415 L 332,416 L 331,416 L 331,480 L 365,480 L 368,477 L 369,477 L 370,476 L 371,476 L 373,474 L 374,474 L 375,473 L 376,473 L 378,471 L 379,471 L 380,470 L 381,470 L 383,468 L 384,468 L 385,467 L 386,467 L 386,461 L 385,460 L 385,458 L 386,457 L 386,453 L 387,452 L 387,450 L 392,445 L 402,445 L 403,446 L 406,446 L 407,447 L 409,447 L 410,448 L 411,448 L 412,449 L 413,449 L 415,451 L 416,451 L 423,458 L 423,459 L 425,461 L 425,462 L 426,463 L 426,464 L 427,465 L 427,467 L 428,468 L 428,471 L 429,472 L 429,480 L 463,480 L 481,462 L 481,397 L 480,398 L 458,398 L 457,397 L 457,369 L 458,368 L 465,368 L 466,367 L 468,367 L 469,366 L 470,366 L 471,365 L 472,365 L 473,364 L 475,364 L 476,363 L 477,363 L 478,362 L 479,362 L 480,361 L 482,361 L 483,360 L 484,360 L 485,359 L 485,337 L 483,337 L 481,335 L 457,335 L 456,334 L 456,322 L 457,321 L 470,321 L 471,322 L 473,322 L 474,321 L 481,321 L 480,320 L 481,319 L 484,319 L 485,318 L 488,318 L 489,317 L 490,317 L 489,316 L 488,316 L 486,314 L 485,314 L 484,313 L 483,313 L 482,312 L 481,312 L 479,310 L 478,310 L 477,309 L 476,309 L 475,308 L 474,308 L 472,306 L 471,306 L 470,305 L 469,305 L 468,304 L 467,304 L 465,302 L 464,302 L 463,301 L 462,301 L 460,299 L 459,299 L 458,298 L 457,298 L 456,297 L 455,297 L 453,295 L 452,295 L 451,294 L 450,294 L 449,293 L 448,293 L 446,291 L 445,291 L 444,290 L 443,290 L 442,289 L 441,289 L 439,287 L 438,287 L 437,286 L 436,286 L 434,284 L 433,284 L 432,283 L 431,283 L 430,282 L 429,282 L 427,280 L 426,280 L 425,279 L 424,279 L 423,278 Z" fill="#000000" stroke="none" /><path d="M 255,17 L 254,18 L 250,18 L 249,19 L 246,19 L 245,20 L 243,20 L 242,21 L 241,21 L 240,22 L 239,22 L 238,23 L 237,23 L 236,24 L 235,24 L 233,26 L 232,26 L 227,31 L 226,31 L 226,32 L 221,37 L 221,38 L 219,40 L 219,41 L 217,43 L 217,45 L 216,46 L 216,47 L 215,48 L 215,49 L 214,50 L 214,52 L 213,53 L 213,56 L 212,57 L 212,77 L 213,78 L 213,81 L 214,82 L 214,84 L 215,85 L 215,86 L 216,87 L 216,88 L 217,89 L 217,91 L 219,93 L 219,94 L 221,96 L 221,97 L 226,102 L 226,103 L 227,103 L 232,108 L 233,108 L 234,109 L 235,109 L 237,111 L 238,111 L 239,112 L 240,112 L 241,113 L 242,113 L 243,114 L 245,114 L 246,115 L 249,115 L 250,116 L 250,122 L 249,123 L 247,123 L 246,124 L 245,124 L 243,126 L 243,127 L 242,128 L 242,129 L 241,130 L 241,131 L 240,132 L 240,134 L 239,135 L 239,136 L 238,137 L 238,139 L 237,140 L 237,142 L 236,143 L 236,144 L 235,145 L 235,147 L 234,148 L 234,150 L 233,151 L 233,153 L 232,154 L 232,156 L 231,157 L 231,159 L 230,160 L 230,162 L 229,163 L 229,165 L 228,166 L 228,168 L 227,169 L 227,172 L 226,173 L 226,175 L 225,176 L 225,178 L 224,179 L 224,181 L 223,182 L 223,185 L 222,186 L 222,188 L 221,189 L 221,192 L 220,193 L 220,195 L 219,196 L 219,201 L 218,202 L 218,210 L 217,211 L 217,217 L 216,218 L 216,225 L 215,226 L 215,232 L 214,233 L 214,239 L 213,240 L 213,246 L 212,247 L 212,253 L 211,254 L 211,259 L 210,260 L 210,266 L 209,267 L 209,272 L 208,273 L 208,279 L 207,280 L 207,281 L 206,282 L 206,283 L 205,284 L 205,287 L 204,288 L 204,296 L 205,297 L 205,302 L 206,303 L 206,305 L 207,306 L 207,307 L 208,308 L 208,310 L 211,313 L 212,313 L 213,314 L 218,314 L 219,313 L 220,313 L 222,311 L 222,310 L 223,309 L 223,308 L 224,307 L 224,305 L 225,304 L 225,300 L 226,299 L 226,275 L 227,274 L 227,269 L 228,268 L 228,262 L 229,261 L 229,256 L 230,255 L 230,249 L 231,248 L 231,242 L 232,241 L 232,235 L 233,234 L 233,228 L 234,227 L 234,220 L 235,219 L 235,213 L 236,212 L 236,204 L 237,203 L 237,199 L 238,198 L 238,196 L 239,195 L 239,193 L 240,192 L 240,189 L 241,188 L 241,186 L 242,185 L 242,183 L 243,182 L 243,179 L 244,178 L 244,176 L 245,175 L 245,173 L 246,172 L 246,170 L 247,169 L 248,170 L 248,183 L 247,184 L 247,213 L 246,214 L 246,243 L 245,244 L 245,263 L 244,264 L 244,268 L 243,269 L 243,274 L 242,275 L 242,280 L 241,281 L 241,286 L 240,287 L 240,291 L 239,292 L 239,297 L 238,298 L 238,303 L 237,304 L 237,309 L 236,310 L 236,315 L 235,316 L 235,320 L 234,321 L 234,326 L 233,327 L 233,332 L 232,333 L 232,337 L 231,338 L 231,343 L 230,344 L 230,349 L 229,350 L 229,355 L 228,356 L 228,360 L 227,361 L 227,366 L 226,367 L 226,372 L 225,373 L 225,374 L 226,375 L 226,410 L 227,411 L 227,450 L 226,451 L 226,452 L 225,453 L 225,454 L 224,455 L 224,457 L 223,458 L 223,459 L 222,460 L 222,462 L 221,463 L 221,464 L 220,465 L 220,466 L 219,467 L 219,469 L 218,470 L 218,475 L 219,476 L 219,478 L 221,480 L 221,481 L 222,482 L 223,482 L 224,483 L 225,483 L 226,484 L 232,484 L 233,483 L 235,483 L 240,478 L 240,476 L 241,475 L 241,474 L 242,473 L 242,471 L 243,470 L 243,469 L 244,468 L 244,467 L 245,466 L 245,464 L 246,463 L 246,462 L 247,461 L 247,460 L 248,459 L 248,457 L 249,456 L 249,455 L 250,454 L 250,425 L 249,424 L 249,388 L 248,387 L 248,373 L 249,372 L 249,367 L 250,366 L 250,361 L 251,360 L 251,356 L 252,355 L 252,350 L 253,349 L 253,344 L 254,343 L 254,338 L 255,337 L 255,333 L 256,332 L 256,327 L 257,326 L 257,321 L 258,320 L 259,321 L 259,323 L 260,324 L 260,330 L 261,331 L 261,337 L 262,338 L 262,344 L 263,345 L 263,350 L 264,351 L 264,357 L 265,358 L 265,364 L 266,365 L 266,370 L 267,371 L 267,384 L 266,385 L 266,400 L 265,401 L 265,415 L 264,416 L 264,431 L 263,432 L 263,446 L 262,447 L 262,460 L 263,461 L 263,462 L 264,463 L 264,464 L 265,465 L 265,466 L 266,467 L 266,468 L 267,469 L 267,470 L 268,471 L 268,472 L 269,473 L 269,474 L 270,475 L 270,476 L 271,477 L 271,478 L 272,479 L 272,480 L 274,482 L 274,483 L 275,484 L 276,484 L 277,485 L 278,485 L 279,486 L 285,486 L 286,485 L 288,485 L 293,480 L 293,477 L 294,476 L 294,473 L 293,472 L 293,470 L 292,469 L 292,468 L 291,467 L 291,466 L 290,465 L 290,464 L 289,463 L 289,462 L 288,461 L 288,460 L 287,459 L 287,458 L 286,457 L 286,456 L 285,455 L 285,442 L 286,441 L 286,427 L 287,426 L 287,411 L 288,410 L 288,396 L 289,395 L 289,380 L 290,379 L 290,372 L 289,371 L 289,365 L 288,364 L 288,359 L 287,358 L 287,352 L 286,351 L 286,345 L 285,344 L 285,339 L 284,338 L 284,332 L 283,331 L 283,325 L 282,324 L 282,318 L 281,317 L 281,312 L 280,311 L 280,305 L 279,304 L 279,298 L 278,297 L 278,292 L 277,291 L 277,285 L 276,284 L 276,261 L 275,260 L 275,232 L 274,231 L 274,202 L 273,201 L 273,172 L 272,171 L 272,167 L 273,166 L 274,167 L 274,169 L 275,170 L 275,173 L 276,174 L 276,176 L 277,177 L 277,179 L 278,180 L 278,182 L 279,183 L 279,185 L 280,186 L 280,189 L 281,190 L 281,192 L 282,193 L 282,195 L 283,196 L 283,199 L 284,200 L 284,205 L 285,206 L 285,214 L 286,215 L 286,221 L 287,222 L 287,229 L 288,230 L 288,236 L 289,237 L 289,243 L 290,244 L 290,250 L 291,251 L 291,256 L 292,257 L 292,263 L 293,264 L 293,269 L 294,270 L 294,275 L 295,276 L 295,280 L 296,281 L 296,302 L 297,303 L 297,306 L 298,307 L 298,309 L 299,310 L 299,311 L 303,315 L 309,315 L 310,314 L 311,314 L 312,313 L 312,312 L 314,310 L 314,308 L 315,307 L 315,306 L 316,305 L 316,302 L 317,301 L 317,296 L 318,295 L 318,290 L 317,289 L 317,286 L 316,285 L 316,283 L 315,282 L 315,281 L 314,280 L 314,279 L 313,278 L 313,274 L 312,273 L 312,268 L 311,267 L 311,261 L 310,260 L 310,255 L 309,254 L 309,248 L 308,247 L 308,241 L 307,240 L 307,234 L 306,233 L 306,227 L 305,226 L 305,220 L 304,219 L 304,212 L 303,211 L 303,204 L 302,203 L 302,197 L 301,196 L 301,193 L 300,192 L 300,190 L 299,189 L 299,186 L 298,185 L 298,183 L 297,182 L 297,180 L 296,179 L 296,177 L 295,176 L 295,173 L 294,172 L 294,170 L 293,169 L 293,167 L 292,166 L 292,164 L 291,163 L 291,161 L 290,160 L 290,158 L 289,157 L 289,155 L 288,154 L 288,152 L 287,151 L 287,149 L 286,148 L 286,146 L 285,145 L 285,143 L 284,142 L 284,141 L 283,140 L 283,138 L 282,137 L 282,135 L 281,134 L 281,133 L 280,132 L 280,130 L 279,129 L 279,128 L 277,126 L 277,125 L 276,125 L 274,123 L 272,123 L 271,122 L 271,117 L 272,116 L 273,116 L 274,115 L 277,115 L 278,114 L 280,114 L 281,113 L 282,113 L 283,112 L 284,112 L 285,111 L 286,111 L 287,110 L 288,110 L 291,107 L 292,107 L 296,103 L 297,103 L 297,102 L 302,97 L 302,96 L 304,94 L 304,93 L 305,92 L 305,91 L 306,90 L 306,89 L 307,88 L 307,87 L 308,86 L 308,85 L 309,84 L 309,82 L 310,81 L 310,78 L 311,77 L 311,57 L 310,56 L 310,53 L 309,52 L 309,50 L 308,49 L 308,48 L 307,47 L 307,46 L 306,45 L 306,43 L 304,41 L 304,40 L 302,38 L 302,37 L 297,32 L 297,31 L 296,31 L 291,26 L 290,26 L 288,24 L 287,24 L 286,23 L 285,23 L 284,22 L 283,22 L 282,21 L 281,21 L 280,20 L 278,20 L 277,19 L 274,19 L 273,18 L 269,18 L 268,17 Z" fill="#000000" stroke="none" /><path d="M 168,406 L 169,407 L 169,408 L 170,409 L 170,418 L 166,422 L 165,422 L 164,423 L 162,423 L 161,424 L 158,424 L 157,423 L 154,423 L 150,419 L 150,410 L 149,409 L 148,409 L 147,410 L 144,410 L 143,411 L 139,411 L 139,419 L 140,420 L 140,426 L 139,427 L 139,428 L 137,430 L 136,430 L 135,431 L 129,431 L 128,430 L 124,430 L 124,436 L 129,436 L 130,435 L 137,435 L 142,440 L 142,449 L 141,450 L 141,452 L 140,453 L 140,455 L 139,456 L 139,457 L 141,457 L 142,456 L 145,456 L 146,455 L 148,455 L 149,454 L 152,454 L 153,453 L 154,453 L 155,454 L 156,454 L 160,458 L 160,461 L 161,462 L 161,463 L 160,464 L 160,469 L 164,469 L 165,468 L 165,457 L 166,456 L 172,456 L 173,457 L 182,457 L 183,458 L 184,458 L 185,457 L 185,455 L 186,454 L 186,451 L 187,450 L 187,445 L 186,444 L 185,444 L 184,445 L 182,445 L 181,446 L 176,446 L 175,445 L 174,445 L 171,442 L 171,441 L 170,440 L 170,438 L 169,437 L 169,434 L 170,433 L 170,431 L 171,430 L 171,429 L 175,425 L 177,425 L 178,424 L 182,424 L 183,425 L 185,425 L 185,415 L 184,414 L 184,413 L 182,411 L 181,411 L 179,409 L 178,409 L 177,408 L 175,408 L 174,407 L 173,407 L 172,406 Z" fill="#60a818" stroke="none" /><path d="M 104,400 L 103,401 L 103,405 L 104,406 L 104,412 L 101,415 L 98,415 L 97,416 L 93,416 L 92,415 L 86,415 L 86,416 L 85,417 L 85,420 L 84,421 L 84,423 L 83,424 L 83,426 L 82,427 L 82,429 L 81,430 L 82,431 L 85,431 L 86,430 L 93,430 L 94,431 L 95,431 L 97,433 L 97,434 L 98,435 L 98,436 L 99,437 L 99,440 L 98,441 L 98,443 L 97,444 L 97,445 L 94,448 L 93,448 L 92,449 L 87,449 L 86,448 L 85,448 L 84,447 L 84,451 L 85,452 L 85,453 L 86,454 L 86,455 L 87,456 L 87,457 L 88,458 L 88,460 L 89,461 L 93,461 L 94,462 L 100,462 L 99,461 L 99,459 L 98,458 L 98,454 L 99,453 L 99,452 L 103,448 L 104,448 L 105,447 L 107,447 L 108,446 L 113,446 L 118,451 L 118,461 L 117,462 L 124,462 L 125,461 L 128,461 L 129,460 L 130,460 L 130,459 L 131,458 L 131,457 L 132,456 L 132,455 L 133,454 L 133,453 L 134,452 L 134,450 L 135,449 L 135,442 L 134,441 L 133,442 L 131,442 L 130,443 L 122,443 L 118,439 L 118,438 L 117,437 L 117,429 L 118,428 L 118,427 L 122,423 L 129,423 L 130,424 L 133,424 L 133,419 L 132,418 L 132,413 L 130,413 L 129,414 L 125,414 L 124,415 L 116,415 L 115,414 L 114,414 L 110,410 L 110,405 L 111,404 L 111,400 Z" fill="#60a818" stroke="none" /><path d="M 352,349 L 352,361 L 457,361 L 457,359 L 458,358 L 457,357 L 457,353 L 458,352 L 457,351 L 457,349 Z" fill="#60a818" stroke="none" /><path d="M 477,343 L 476,344 L 474,344 L 473,345 L 471,345 L 470,346 L 468,346 L 467,347 L 465,347 L 465,360 L 466,360 L 467,359 L 469,359 L 470,358 L 471,358 L 472,357 L 473,357 L 474,356 L 476,356 L 477,355 L 478,355 L 478,351 L 479,350 L 478,349 L 478,343 Z" fill="#60a818" stroke="none" /><path d="M 448,369 L 448,407 L 450,405 L 450,369 Z" fill="#60a8d8" stroke="none" /><path d="M 416,369 L 416,415 L 440,415 L 440,369 Z" fill="#60a8d8" stroke="none" /><path d="M 118,303 L 117,304 L 117,307 L 118,308 L 118,310 L 119,311 L 119,313 L 118,314 L 118,315 L 114,319 L 111,319 L 110,320 L 105,320 L 104,319 L 102,319 L 101,318 L 101,317 L 100,316 L 100,315 L 99,314 L 99,307 L 95,307 L 94,308 L 90,308 L 89,309 L 88,309 L 88,317 L 89,318 L 89,322 L 88,323 L 88,324 L 85,327 L 84,327 L 83,328 L 82,328 L 81,327 L 79,327 L 78,326 L 75,326 L 74,325 L 72,327 L 72,332 L 76,332 L 77,331 L 81,331 L 82,332 L 83,332 L 85,334 L 85,335 L 86,336 L 86,340 L 85,341 L 85,344 L 84,345 L 84,348 L 85,349 L 85,354 L 88,354 L 89,355 L 96,355 L 97,356 L 100,356 L 100,355 L 99,354 L 99,353 L 98,352 L 98,349 L 97,348 L 98,347 L 98,343 L 102,339 L 103,339 L 104,338 L 111,338 L 112,339 L 114,339 L 118,343 L 118,345 L 119,346 L 119,351 L 118,352 L 118,355 L 134,355 L 134,354 L 135,353 L 135,350 L 136,349 L 136,346 L 137,345 L 137,340 L 135,340 L 134,341 L 132,341 L 131,342 L 125,342 L 124,341 L 123,341 L 121,339 L 121,338 L 120,337 L 120,336 L 119,335 L 119,328 L 120,327 L 120,326 L 121,325 L 121,324 L 123,322 L 124,322 L 125,321 L 132,321 L 133,322 L 135,322 L 135,316 L 134,315 L 134,311 L 131,308 L 130,308 L 129,307 L 128,307 L 127,306 L 126,306 L 125,305 L 124,305 L 123,304 L 121,304 L 120,303 Z" fill="#60a8d8" stroke="none" /><path d="M 155,298 L 154,299 L 154,303 L 155,304 L 155,306 L 156,307 L 156,310 L 154,312 L 153,312 L 152,313 L 143,313 L 142,312 L 141,312 L 141,315 L 142,316 L 142,325 L 141,326 L 141,327 L 139,329 L 138,329 L 137,330 L 135,330 L 134,329 L 132,329 L 131,328 L 130,328 L 129,327 L 128,327 L 126,329 L 126,334 L 127,335 L 131,335 L 132,334 L 134,334 L 135,333 L 136,333 L 137,332 L 138,332 L 139,333 L 140,333 L 142,335 L 142,336 L 143,337 L 143,339 L 144,340 L 144,345 L 143,346 L 143,350 L 142,351 L 142,353 L 141,354 L 141,355 L 144,355 L 145,356 L 151,356 L 152,357 L 154,357 L 153,356 L 153,355 L 152,354 L 152,347 L 155,344 L 156,344 L 157,343 L 165,343 L 166,344 L 167,344 L 169,346 L 169,347 L 170,348 L 170,354 L 169,355 L 169,356 L 168,357 L 168,358 L 176,358 L 177,357 L 179,357 L 180,356 L 182,356 L 183,355 L 184,355 L 185,354 L 185,345 L 184,344 L 184,343 L 183,343 L 182,342 L 181,343 L 179,343 L 178,344 L 174,344 L 173,343 L 172,343 L 170,341 L 170,340 L 169,339 L 169,337 L 168,336 L 168,332 L 169,331 L 169,330 L 170,329 L 170,328 L 172,326 L 174,326 L 175,325 L 184,325 L 185,326 L 186,326 L 188,324 L 188,319 L 187,318 L 187,311 L 186,312 L 180,312 L 179,313 L 173,313 L 172,314 L 166,314 L 165,313 L 164,313 L 161,310 L 161,308 L 160,307 L 160,306 L 161,305 L 161,299 L 160,298 Z" fill="#60a8d8" stroke="none" /><path d="M 408,287 L 407,288 L 406,288 L 405,289 L 404,289 L 402,291 L 401,291 L 400,292 L 399,292 L 398,293 L 397,293 L 396,294 L 395,294 L 394,295 L 393,295 L 391,297 L 390,297 L 389,298 L 388,298 L 387,299 L 386,299 L 385,300 L 384,300 L 382,302 L 381,302 L 380,303 L 379,303 L 378,304 L 377,304 L 376,305 L 375,305 L 374,306 L 373,306 L 371,308 L 370,308 L 369,309 L 368,309 L 367,310 L 366,310 L 365,311 L 364,311 L 363,312 L 362,312 L 360,314 L 359,314 L 358,315 L 357,315 L 457,315 L 456,314 L 455,314 L 454,313 L 453,313 L 451,311 L 450,311 L 449,310 L 448,310 L 447,309 L 446,309 L 444,307 L 443,307 L 442,306 L 441,306 L 439,304 L 438,304 L 437,303 L 436,303 L 434,301 L 433,301 L 432,300 L 431,300 L 430,299 L 429,299 L 427,297 L 426,297 L 425,296 L 424,296 L 422,294 L 421,294 L 420,293 L 419,293 L 417,291 L 416,291 L 415,290 L 414,290 L 412,288 L 411,288 L 410,287 Z" fill="#60a8d8" stroke="none" /><path d="M 398,369 L 398,408 L 401,405 L 401,369 Z" fill="#d80000" stroke="none" /><path d="M 366,369 L 366,415 L 390,415 L 390,369 Z" fill="#d80000" stroke="none" /><path d="M 447,322 L 447,337 L 448,336 L 448,335 L 449,334 L 449,332 L 448,331 L 449,330 L 449,328 L 448,327 L 449,326 L 449,322 Z" fill="#d80000" stroke="none" /><path d="M 421,322 L 421,341 L 439,341 L 439,322 Z" fill="#d80000" stroke="none" /><path d="M 57,295 L 56,296 L 56,297 L 57,298 L 56,299 L 56,302 L 57,303 L 56,304 L 57,305 L 56,306 L 56,308 L 53,311 L 42,311 L 41,310 L 38,310 L 37,311 L 37,312 L 36,313 L 36,315 L 35,316 L 35,317 L 34,318 L 34,320 L 33,321 L 33,324 L 32,325 L 32,327 L 33,328 L 33,330 L 34,330 L 35,329 L 37,329 L 38,328 L 41,328 L 42,329 L 43,328 L 44,329 L 44,330 L 45,330 L 47,332 L 47,333 L 48,334 L 48,336 L 49,337 L 49,342 L 48,343 L 48,344 L 46,346 L 44,346 L 43,347 L 40,347 L 39,346 L 34,346 L 34,351 L 35,352 L 35,353 L 36,352 L 38,352 L 39,351 L 41,351 L 42,350 L 45,350 L 46,349 L 51,349 L 52,350 L 53,350 L 54,351 L 55,351 L 56,352 L 56,354 L 57,355 L 57,359 L 56,360 L 56,361 L 57,362 L 56,363 L 56,365 L 60,365 L 60,363 L 61,362 L 61,355 L 62,354 L 62,353 L 63,352 L 64,352 L 65,351 L 69,351 L 70,352 L 75,352 L 76,353 L 78,353 L 78,340 L 79,339 L 79,338 L 77,338 L 76,339 L 71,339 L 70,338 L 69,338 L 68,337 L 67,337 L 66,336 L 66,335 L 65,334 L 65,326 L 66,325 L 66,324 L 67,323 L 67,322 L 70,319 L 79,319 L 80,320 L 82,320 L 82,317 L 81,316 L 81,310 L 80,310 L 79,311 L 73,311 L 72,312 L 70,312 L 69,313 L 67,311 L 66,311 L 65,312 L 64,311 L 64,310 L 61,307 L 61,302 L 62,301 L 62,297 L 61,296 L 59,296 L 58,295 Z" fill="#d80000" stroke="none" /><path d="M 46,356 L 45,357 L 43,357 L 42,358 L 40,358 L 39,359 L 38,359 L 38,370 L 37,371 L 37,376 L 36,377 L 36,379 L 34,381 L 32,381 L 31,382 L 29,382 L 28,381 L 27,381 L 26,380 L 21,380 L 20,381 L 20,386 L 21,387 L 23,387 L 24,386 L 27,386 L 28,385 L 34,385 L 35,386 L 36,386 L 38,388 L 38,389 L 39,390 L 39,395 L 38,396 L 38,403 L 37,404 L 37,407 L 38,408 L 39,408 L 40,409 L 46,409 L 46,407 L 45,406 L 45,400 L 46,399 L 46,398 L 47,397 L 48,397 L 50,395 L 59,395 L 63,399 L 63,401 L 64,402 L 64,403 L 63,404 L 63,409 L 68,409 L 69,408 L 78,408 L 79,407 L 80,407 L 79,406 L 79,402 L 78,401 L 78,388 L 81,385 L 82,385 L 83,384 L 90,384 L 91,385 L 92,385 L 93,384 L 93,379 L 90,379 L 89,380 L 81,380 L 79,378 L 79,377 L 78,376 L 78,367 L 79,366 L 79,360 L 75,360 L 74,359 L 70,359 L 69,358 L 68,358 L 68,359 L 67,360 L 67,367 L 66,368 L 66,369 L 65,370 L 64,370 L 63,371 L 62,371 L 61,372 L 55,372 L 54,371 L 53,371 L 50,368 L 50,367 L 49,366 L 49,360 L 50,359 L 50,356 Z" fill="#d84800" stroke="none" /><path d="M 105,345 L 105,346 L 104,347 L 104,348 L 105,349 L 105,351 L 106,352 L 106,354 L 107,355 L 107,358 L 103,362 L 102,362 L 101,363 L 97,363 L 96,362 L 89,362 L 88,361 L 86,361 L 86,365 L 85,366 L 85,374 L 86,373 L 88,373 L 89,372 L 95,372 L 99,376 L 99,377 L 100,378 L 100,384 L 99,385 L 99,387 L 98,388 L 98,389 L 96,391 L 95,391 L 94,392 L 90,392 L 89,391 L 88,391 L 87,390 L 86,391 L 85,391 L 85,401 L 86,402 L 86,405 L 87,406 L 87,408 L 90,408 L 91,409 L 97,409 L 97,407 L 96,406 L 96,399 L 97,398 L 97,397 L 100,394 L 102,394 L 103,393 L 112,393 L 113,394 L 114,394 L 118,398 L 118,404 L 117,405 L 117,408 L 124,408 L 125,407 L 129,407 L 130,406 L 131,406 L 132,405 L 132,402 L 131,401 L 131,395 L 132,394 L 132,393 L 135,390 L 138,390 L 139,391 L 145,391 L 145,389 L 146,388 L 146,387 L 145,386 L 145,385 L 144,384 L 142,384 L 141,385 L 139,385 L 138,386 L 134,386 L 133,385 L 132,385 L 131,384 L 131,383 L 130,382 L 130,369 L 131,368 L 131,363 L 132,362 L 121,362 L 120,361 L 113,361 L 111,359 L 111,358 L 110,357 L 110,355 L 111,354 L 111,352 L 112,351 L 112,347 L 110,345 Z" fill="#d84800" stroke="none" /><path d="M 380,451 L 379,452 L 378,452 L 372,458 L 372,459 L 370,461 L 370,462 L 369,463 L 369,464 L 368,465 L 368,467 L 367,468 L 367,470 L 368,469 L 369,469 L 371,467 L 372,467 L 373,466 L 374,466 L 376,464 L 377,464 L 378,463 L 379,463 L 379,452 Z" fill="#d89000" stroke="none" /><path d="M 338,423 L 338,473 L 358,473 L 358,472 L 359,471 L 359,467 L 360,466 L 360,464 L 361,463 L 361,462 L 362,461 L 362,460 L 363,459 L 363,458 L 364,457 L 364,456 L 366,454 L 366,453 L 373,446 L 374,446 L 376,444 L 377,444 L 378,443 L 379,443 L 380,442 L 381,442 L 382,441 L 383,441 L 384,440 L 386,440 L 387,439 L 389,439 L 390,438 L 402,438 L 403,439 L 407,439 L 408,440 L 410,440 L 411,441 L 413,441 L 414,442 L 415,442 L 417,444 L 418,444 L 420,446 L 421,446 L 428,453 L 428,454 L 430,456 L 430,457 L 432,459 L 432,461 L 433,462 L 433,463 L 434,464 L 434,466 L 435,467 L 435,471 L 436,472 L 436,473 L 456,473 L 456,423 Z" fill="#d89000" stroke="none" /><path d="M 475,413 L 464,424 L 464,469 L 475,458 Z" fill="#d89000" stroke="none" /><path d="M 358,412 L 357,413 L 355,413 L 354,414 L 353,414 L 352,415 L 351,415 L 358,415 Z" fill="#d89000" stroke="none" /><path d="M 408,409 L 407,410 L 407,411 L 404,414 L 403,414 L 402,415 L 408,415 Z" fill="#d89000" stroke="none" /><path d="M 458,405 L 458,408 L 456,410 L 456,411 L 452,415 L 451,415 L 462,415 L 472,405 Z" fill="#d89000" stroke="none" /><path d="M 54,401 L 53,402 L 52,402 L 52,406 L 53,407 L 53,412 L 52,413 L 52,414 L 50,416 L 40,416 L 39,415 L 36,415 L 36,420 L 35,421 L 35,431 L 38,431 L 39,430 L 41,430 L 42,431 L 44,431 L 48,435 L 48,436 L 49,437 L 49,438 L 50,439 L 50,443 L 49,444 L 49,446 L 46,449 L 45,449 L 44,450 L 38,450 L 37,449 L 35,449 L 35,451 L 36,452 L 36,458 L 37,459 L 40,459 L 41,458 L 47,458 L 48,457 L 51,457 L 52,458 L 55,458 L 56,459 L 57,459 L 59,461 L 59,463 L 60,464 L 60,465 L 59,466 L 59,473 L 63,473 L 63,461 L 66,458 L 72,458 L 73,459 L 81,459 L 80,458 L 80,457 L 79,456 L 79,455 L 78,454 L 78,452 L 77,451 L 77,445 L 78,444 L 78,443 L 80,441 L 81,441 L 82,440 L 86,440 L 87,441 L 88,441 L 89,442 L 90,442 L 92,440 L 92,438 L 91,437 L 86,437 L 85,438 L 81,438 L 80,437 L 78,437 L 76,435 L 76,434 L 75,433 L 75,431 L 74,430 L 75,429 L 75,427 L 76,426 L 76,423 L 77,422 L 77,420 L 78,419 L 78,417 L 79,416 L 79,414 L 78,415 L 68,415 L 67,416 L 63,416 L 62,415 L 60,415 L 59,414 L 58,414 L 57,413 L 57,412 L 56,411 L 56,404 L 57,403 L 57,402 L 56,402 L 55,401 Z" fill="#f0d800" stroke="none" /><path d="M 402,322 L 402,337 L 404,335 L 404,322 Z" fill="#f0d800" stroke="none" /><path d="M 375,322 L 375,341 L 394,341 L 394,322 Z" fill="#f0d800" stroke="none" /><path d="M 306,286 L 306,301 L 307,300 L 307,296 L 308,295 L 308,291 L 307,290 L 307,287 Z" fill="#f0f0f0" stroke="none" /><path d="M 215,286 L 215,288 L 214,289 L 214,296 L 215,297 L 215,300 L 215,299 L 216,298 L 216,287 Z" fill="#f0f0f0" stroke="none" /><path d="M 256,27 L 255,28 L 251,28 L 250,29 L 248,29 L 247,30 L 246,30 L 245,31 L 243,31 L 241,33 L 240,33 L 238,35 L 237,35 L 229,43 L 229,44 L 227,46 L 227,47 L 226,48 L 226,49 L 225,50 L 225,51 L 224,52 L 224,54 L 223,55 L 223,57 L 222,58 L 222,75 L 223,76 L 223,79 L 224,80 L 224,82 L 225,83 L 225,84 L 226,85 L 226,86 L 227,87 L 227,88 L 229,90 L 229,91 L 237,99 L 238,99 L 240,101 L 241,101 L 242,102 L 243,102 L 244,103 L 245,103 L 246,104 L 247,104 L 248,105 L 250,105 L 251,106 L 255,106 L 256,107 L 267,107 L 268,106 L 272,106 L 273,105 L 275,105 L 276,104 L 277,104 L 278,103 L 280,103 L 282,101 L 283,101 L 285,99 L 286,99 L 294,91 L 294,90 L 296,88 L 296,87 L 297,86 L 297,85 L 298,84 L 298,83 L 299,82 L 299,80 L 300,79 L 300,76 L 301,75 L 301,59 L 300,58 L 300,55 L 299,54 L 299,52 L 298,51 L 298,50 L 297,49 L 297,48 L 296,47 L 296,46 L 294,44 L 294,43 L 286,35 L 285,35 L 283,33 L 282,33 L 281,32 L 280,32 L 278,30 L 276,30 L 275,29 L 273,29 L 272,28 L 268,28 L 267,27 Z" fill="#f0f0f0" stroke="none" /></svg>