<?xml version="1.0" encoding="utf-8" ?>
<svg baseProfile="full" height="500" version="1.1" viewBox="0 0 500 500" width="500" xmlns="http://www.w3.org/2000/svg" xmlns:ev="http://www.w3.org/2001/xml-events" xmlns:xlink="http://www.w3.org/1999/xlink"><defs /><path d="M 10,9 L 9,10 L 9,489 L 10,490 L 489,490 L 490,489 L 490,10 L 489,9 Z" fill="#000000" stroke="none" /><path d="M 395,382 L 396,383 L 435,383 L 436,382 L 435,382 L 434,383 L 433,382 L 432,382 L 431,383 L 430,382 L 429,382 L 428,383 L 427,382 L 426,382 L 425,383 L 424,382 L 415,382 L 414,383 L 413,382 L 412,382 L 411,383 L 410,382 L 409,382 L 408,383 L 407,382 L 406,382 L 405,383 L 404,382 Z" fill="#181818" stroke="none" /><path d="M 397,386 L 396,387 L 396,423 L 397,424 L 435,424 L 435,387 L 434,386 Z" fill="#4860a8" stroke="none" /><path d="M 342,112 L 345,115 L 346,115 L 347,116 L 348,116 L 349,117 L 349,114 L 348,113 L 347,113 L 346,112 Z" fill="#601800" stroke="none" /><path d="M 349,92 L 349,93 L 350,94 L 351,94 L 353,96 L 354,96 L 355,97 L 356,97 L 355,96 L 356,95 L 356,94 L 355,93 L 354,93 L 353,92 Z" fill="#601800" stroke="none" /><path d="M 408,100 L 407,101 L 406,101 L 406,102 L 405,103 L 405,104 L 404,105 L 404,108 L 405,109 L 405,110 L 407,112 L 413,112 L 412,111 L 412,105 L 411,105 L 410,104 L 410,103 L 409,103 L 408,102 Z" fill="#60a818" stroke="none" /><path d="M 400,95 L 398,97 L 396,97 L 395,96 L 395,100 L 396,101 L 397,101 L 398,102 L 399,102 L 399,101 L 400,100 L 400,99 L 401,98 L 401,97 L 402,96 L 400,98 L 399,98 L 398,97 Z" fill="#60a818" stroke="none" /><path d="M 113,106 L 113,107 L 112,108 L 111,108 L 110,109 L 113,109 L 113,107 L 114,106 L 115,107 L 115,109 L 122,109 L 123,110 L 124,110 L 123,110 L 119,106 Z" fill="#60a8c0" stroke="none" /><path d="M 346,269 L 343,272 L 343,273 L 342,274 L 342,276 L 343,277 L 343,276 L 344,275 L 345,275 L 346,276 L 346,278 L 345,279 L 345,280 L 344,281 L 344,284 L 343,285 L 343,288 L 342,289 L 342,291 L 341,292 L 345,292 L 346,293 L 351,293 L 352,294 L 356,294 L 357,295 L 360,295 L 360,286 L 361,285 L 361,279 L 362,278 L 363,278 L 364,279 L 364,280 L 365,280 L 365,277 L 364,276 L 364,273 L 363,272 L 362,272 L 361,271 L 359,271 L 358,272 L 353,272 L 350,269 Z" fill="#60a8d8" stroke="none" /><path d="M 361,120 L 360,121 L 359,121 L 358,122 L 359,122 L 360,123 L 363,123 L 364,124 L 369,124 L 369,123 L 368,123 L 367,122 L 365,122 L 364,121 L 363,121 L 362,120 Z" fill="#784800" stroke="none" /><path d="M 357,117 L 356,118 L 355,118 L 353,120 L 353,121 L 355,121 L 358,118 L 359,118 L 358,117 Z" fill="#784800" stroke="none" /><path d="M 341,115 L 341,119 L 343,121 L 344,121 L 346,123 L 347,123 L 349,125 L 351,125 L 352,126 L 353,126 L 354,127 L 355,127 L 356,128 L 368,128 L 369,127 L 371,127 L 371,126 L 370,126 L 369,127 L 368,127 L 367,128 L 366,127 L 363,127 L 362,126 L 359,126 L 358,125 L 357,125 L 356,124 L 355,125 L 354,125 L 353,124 L 352,124 L 349,121 L 349,120 L 348,120 L 346,118 L 345,118 L 344,117 L 343,117 Z" fill="#784800" stroke="none" /><path d="M 367,100 L 365,102 L 366,102 L 367,103 L 370,103 L 371,104 L 375,104 L 376,103 L 374,103 L 373,102 L 372,102 L 371,101 L 370,101 L 369,100 Z" fill="#784800" stroke="none" /><path d="M 364,97 L 363,98 L 362,98 L 361,99 L 360,99 L 359,100 L 360,101 L 361,101 L 362,100 L 363,100 L 365,98 L 366,98 L 365,97 Z" fill="#784800" stroke="none" /><path d="M 348,95 L 348,97 L 347,98 L 348,99 L 348,100 L 349,100 L 350,101 L 352,101 L 353,102 L 353,103 L 354,103 L 356,105 L 357,105 L 358,106 L 359,106 L 360,107 L 362,107 L 363,108 L 375,108 L 376,107 L 377,107 L 378,106 L 377,106 L 376,107 L 370,107 L 369,106 L 366,106 L 365,105 L 364,105 L 363,104 L 362,104 L 361,105 L 360,104 L 358,104 L 357,103 L 357,102 L 356,101 L 356,100 L 355,100 L 354,99 L 353,99 L 351,97 L 350,97 Z" fill="#784800" stroke="none" /><path d="M 402,127 L 401,128 L 402,128 L 404,130 L 404,131 L 407,131 L 408,130 L 407,129 L 406,129 L 404,127 Z" fill="#7890c0" stroke="none" /><path d="M 409,269 L 408,270 L 408,271 L 406,273 L 406,275 L 405,276 L 405,277 L 403,279 L 403,281 L 402,282 L 402,283 L 401,284 L 401,285 L 400,286 L 400,287 L 399,288 L 399,289 L 398,290 L 398,292 L 400,290 L 400,289 L 402,287 L 402,286 L 403,285 L 403,284 L 405,282 L 405,281 L 406,280 L 406,279 L 407,278 L 407,277 L 408,276 L 408,275 L 409,274 L 410,275 L 410,277 L 409,278 L 409,280 L 408,281 L 408,284 L 407,285 L 407,287 L 406,288 L 406,290 L 405,291 L 405,293 L 406,293 L 406,292 L 407,291 L 407,290 L 408,289 L 408,287 L 409,286 L 409,284 L 410,283 L 410,281 L 411,280 L 411,279 L 412,278 L 412,276 L 413,275 L 413,274 L 414,273 L 415,274 L 415,279 L 414,280 L 414,283 L 413,284 L 413,286 L 412,287 L 412,290 L 411,291 L 411,293 L 410,294 L 411,295 L 413,295 L 414,294 L 414,292 L 415,291 L 415,288 L 416,287 L 416,283 L 417,282 L 417,278 L 418,277 L 420,279 L 420,283 L 419,284 L 419,296 L 420,296 L 421,297 L 423,297 L 423,291 L 422,290 L 422,283 L 423,282 L 423,273 L 422,272 L 417,272 L 416,271 L 413,271 L 412,270 L 410,270 Z" fill="#90c000" stroke="none" /><path d="M 339,233 L 339,241 L 369,241 L 369,233 Z" fill="#90c0c0" stroke="none" /><path d="M 70,233 L 70,241 L 100,241 L 100,233 Z" fill="#90c0c0" stroke="none" /><path d="M 336,69 L 336,77 L 353,77 L 353,76 L 352,77 L 351,77 L 350,76 L 349,76 L 348,77 L 346,77 L 345,76 L 345,71 L 346,70 L 353,70 L 354,71 L 354,74 L 355,74 L 355,71 L 356,70 L 357,70 L 358,69 L 360,71 L 360,72 L 360,71 L 362,69 L 365,72 L 365,75 L 363,77 L 361,77 L 360,76 L 360,74 L 360,75 L 358,77 L 357,77 L 356,76 L 356,77 L 365,77 L 365,69 Z" fill="#90c0c0" stroke="none" /><path d="M 69,69 L 69,77 L 87,77 L 87,75 L 88,74 L 89,74 L 89,71 L 90,70 L 97,70 L 98,71 L 98,75 L 96,77 L 95,77 L 94,76 L 93,76 L 92,77 L 91,77 L 90,76 L 89,77 L 99,77 L 99,69 Z" fill="#90c0c0" stroke="none" /><path d="M 219,407 L 206,420 L 211,415 L 212,416 L 220,408 Z" fill="#a8c0c0" stroke="none" /><path d="M 133,254 L 133,255 L 132,256 L 132,257 L 131,258 L 132,259 L 132,262 L 131,263 L 129,263 L 128,264 L 127,264 L 127,266 L 125,268 L 122,268 L 121,269 L 120,269 L 120,271 L 119,272 L 119,276 L 120,277 L 120,278 L 121,279 L 122,279 L 124,281 L 124,282 L 122,284 L 121,284 L 120,285 L 120,286 L 119,287 L 119,292 L 120,293 L 120,296 L 119,297 L 154,297 L 154,296 L 155,295 L 155,294 L 156,293 L 156,291 L 157,290 L 157,289 L 158,288 L 158,287 L 159,286 L 159,285 L 160,284 L 160,282 L 161,281 L 161,280 L 162,279 L 162,278 L 163,277 L 163,275 L 164,274 L 164,273 L 165,272 L 165,271 L 166,270 L 166,268 L 167,267 L 167,266 L 168,265 L 168,264 L 169,263 L 169,262 L 170,261 L 170,259 L 171,258 L 171,257 L 172,256 L 172,255 L 173,254 Z" fill="#c078a8" stroke="none" /><path d="M 106,254 L 106,255 L 107,256 L 108,256 L 110,258 L 109,259 L 109,260 L 110,261 L 110,262 L 112,262 L 114,264 L 114,266 L 115,267 L 116,266 L 118,266 L 119,267 L 120,266 L 120,265 L 121,264 L 121,263 L 122,262 L 125,262 L 125,259 L 127,257 L 129,257 L 130,256 L 130,254 Z" fill="#c078a8" stroke="none" /><path d="M 82,254 L 80,256 L 80,257 L 79,258 L 79,259 L 78,260 L 78,261 L 76,263 L 76,264 L 75,265 L 75,266 L 74,267 L 74,268 L 73,269 L 73,270 L 71,272 L 71,273 L 70,274 L 70,275 L 69,276 L 69,277 L 67,279 L 67,280 L 66,281 L 66,282 L 65,283 L 65,284 L 64,285 L 64,286 L 62,288 L 62,289 L 61,290 L 61,291 L 60,292 L 60,293 L 58,295 L 58,296 L 57,297 L 115,297 L 114,296 L 114,293 L 116,291 L 115,290 L 115,286 L 113,284 L 112,284 L 111,283 L 111,280 L 112,279 L 114,279 L 114,278 L 115,277 L 115,275 L 116,274 L 116,272 L 115,272 L 114,271 L 114,269 L 113,269 L 112,268 L 109,268 L 107,266 L 107,264 L 108,263 L 107,262 L 104,262 L 103,261 L 103,257 L 104,256 L 104,255 L 103,254 Z" fill="#c078a8" stroke="none" /><path d="M 109,110 L 108,111 L 108,125 L 109,126 L 108,127 L 108,131 L 123,131 L 124,130 L 124,120 L 123,119 L 124,118 L 123,117 L 123,115 L 124,114 L 123,113 L 123,111 L 122,110 Z" fill="#c0d8d8" stroke="none" /><path d="M 138,118 L 138,121 L 139,122 L 139,123 L 140,124 L 140,125 L 141,125 L 142,126 L 141,127 L 146,127 L 147,126 L 148,127 L 152,127 L 152,126 L 154,124 L 153,125 L 143,125 L 142,126 L 139,123 L 139,122 L 138,121 Z" fill="#d878a8" stroke="none" /><path d="M 144,102 L 141,105 L 152,105 L 153,106 L 150,103 L 150,102 Z" fill="#d878a8" stroke="none" /><path d="M 417,104 L 416,105 L 415,105 L 415,111 L 416,112 L 420,112 L 421,111 L 421,110 L 422,109 L 423,109 L 424,108 L 423,107 L 422,107 L 421,106 L 420,106 L 418,104 Z" fill="#d89000" stroke="none" /><path d="M 393,259 L 393,261 L 391,263 L 390,262 L 389,262 L 388,261 L 388,262 L 387,263 L 387,267 L 386,268 L 386,274 L 385,275 L 385,285 L 387,285 L 387,284 L 388,283 L 391,283 L 392,282 L 391,282 L 388,279 L 388,277 L 387,276 L 388,275 L 389,275 L 390,276 L 390,277 L 391,278 L 391,279 L 392,279 L 392,266 L 393,265 L 393,264 L 394,263 L 395,263 L 396,264 L 396,265 L 395,266 L 395,285 L 397,285 L 398,284 L 398,278 L 399,277 L 399,271 L 398,270 L 398,264 L 397,263 L 397,262 L 394,259 Z" fill="#d8a800" stroke="none" /><path d="M 379,258 L 378,259 L 377,259 L 376,260 L 375,260 L 375,261 L 374,262 L 374,263 L 373,264 L 373,266 L 372,267 L 372,271 L 371,272 L 371,282 L 372,282 L 373,281 L 373,279 L 374,278 L 374,273 L 375,272 L 375,269 L 376,268 L 376,264 L 377,263 L 377,262 L 378,261 L 380,263 L 379,264 L 379,268 L 378,269 L 378,272 L 377,273 L 377,277 L 378,277 L 378,276 L 380,274 L 381,275 L 381,277 L 378,280 L 376,280 L 378,282 L 379,282 L 380,283 L 380,285 L 382,285 L 382,275 L 383,274 L 383,268 L 384,267 L 384,261 L 384,262 L 383,263 L 381,261 L 381,259 L 380,258 Z" fill="#d8a800" stroke="none" /><path d="M 385,254 L 385,256 L 386,257 L 386,258 L 389,255 L 388,254 Z" fill="#d8a800" stroke="none" /><path d="M 83,125 L 82,126 L 80,126 L 80,127 L 91,127 L 89,125 Z" fill="#d8a800" stroke="none" /><path d="M 82,102 L 82,103 L 81,104 L 90,104 L 91,105 L 90,104 L 89,104 L 88,103 L 88,102 Z" fill="#d8a800" stroke="none" /><path d="M 15,371 L 15,484 L 160,484 L 160,382 L 161,381 L 161,380 L 162,379 L 337,379 L 339,381 L 339,484 L 484,484 L 484,371 Z" fill="#d8d8d8" stroke="none" /><path d="M 15,182 L 15,336 L 484,336 L 484,182 Z" fill="#d8d8d8" stroke="none" /><path d="M 15,15 L 15,175 L 484,175 L 484,15 Z" fill="#d8d8d8" stroke="none" /><path d="M 253,386 L 253,484 L 332,484 L 332,386 Z" fill="#d8f0f0" stroke="none" /><path d="M 167,386 L 167,484 L 246,484 L 246,386 Z" fill="#d8f0f0" stroke="none" /><path d="M 320,223 L 320,324 L 448,324 L 448,223 Z" fill="#d8f0f0" stroke="none" /><path d="M 52,223 L 52,324 L 180,324 L 180,223 Z" fill="#d8f0f0" stroke="none" /><path d="M 114,96 L 114,98 L 115,99 L 117,99 L 117,96 Z" fill="#d8f0f0" stroke="none" /><path d="M 317,63 L 317,163 L 317,137 L 318,136 L 318,135 L 320,133 L 320,132 L 321,131 L 321,130 L 322,129 L 322,128 L 323,127 L 323,126 L 324,125 L 324,124 L 325,123 L 325,122 L 326,121 L 326,120 L 328,118 L 328,117 L 329,116 L 329,115 L 330,114 L 330,113 L 331,112 L 331,111 L 332,110 L 332,109 L 333,108 L 333,107 L 335,105 L 335,104 L 336,103 L 336,102 L 337,101 L 337,100 L 338,99 L 338,98 L 339,97 L 339,96 L 340,95 L 340,94 L 341,93 L 341,92 L 343,90 L 343,89 L 344,88 L 344,87 L 345,86 L 347,86 L 347,83 L 332,83 L 330,81 L 330,65 L 331,64 L 370,64 L 371,65 L 371,81 L 369,83 L 354,83 L 354,86 L 443,86 L 444,87 L 443,88 L 443,149 L 442,150 L 441,150 L 439,152 L 438,152 L 436,154 L 435,154 L 433,156 L 432,156 L 430,158 L 429,158 L 427,160 L 426,160 L 424,162 L 423,162 L 422,163 L 445,163 L 445,63 Z" fill="#d8f0f0" stroke="none" /><path d="M 51,63 L 51,137 L 51,136 L 52,135 L 52,134 L 54,132 L 54,131 L 55,130 L 55,129 L 56,128 L 56,127 L 57,126 L 57,125 L 58,124 L 58,123 L 59,122 L 59,121 L 61,119 L 61,118 L 62,117 L 62,116 L 63,115 L 63,114 L 64,113 L 64,112 L 65,111 L 65,110 L 66,109 L 66,108 L 67,107 L 67,106 L 69,104 L 69,103 L 70,102 L 70,101 L 71,100 L 71,99 L 72,98 L 72,97 L 73,96 L 73,95 L 74,94 L 74,93 L 75,92 L 75,91 L 77,89 L 77,88 L 79,86 L 81,86 L 81,83 L 65,83 L 64,82 L 64,65 L 65,64 L 103,64 L 104,65 L 104,82 L 103,83 L 87,83 L 87,86 L 176,86 L 177,87 L 177,149 L 176,150 L 175,150 L 173,152 L 172,152 L 171,153 L 170,153 L 168,155 L 167,155 L 165,157 L 164,157 L 162,159 L 161,159 L 159,161 L 158,161 L 156,163 L 155,163 L 178,163 L 178,63 Z" fill="#d8f0f0" stroke="none" /><path d="M 15,343 L 15,369 L 484,369 L 484,343 Z" fill="#f0a800" stroke="none" /><path d="M 141,106 L 140,107 L 140,109 L 139,110 L 139,114 L 138,115 L 139,116 L 138,117 L 139,118 L 139,121 L 140,122 L 140,123 L 142,125 L 143,124 L 153,124 L 154,123 L 154,120 L 155,119 L 155,111 L 154,110 L 154,108 L 152,106 Z" fill="#f0a8c0" stroke="none" /><path d="M 89,258 L 88,259 L 86,259 L 82,263 L 82,264 L 83,265 L 84,265 L 85,266 L 90,266 L 92,264 L 95,264 L 96,263 L 97,263 L 98,262 L 98,260 L 97,259 L 96,259 L 95,258 Z" fill="#f0d800" stroke="none" /><path d="M 80,106 L 78,108 L 78,111 L 77,112 L 77,119 L 78,120 L 78,122 L 79,123 L 79,124 L 91,124 L 92,123 L 92,121 L 93,120 L 93,110 L 92,109 L 92,108 L 90,106 Z" fill="#f0d800" stroke="none" /><path d="M 324,305 L 324,320 L 421,320 L 421,305 Z" fill="#f0d8a8" stroke="none" /><path d="M 56,301 L 56,320 L 153,320 L 153,301 Z" fill="#f0d8a8" stroke="none" /><path d="M 442,262 L 442,263 L 441,264 L 441,266 L 440,267 L 440,268 L 439,269 L 439,271 L 438,272 L 438,273 L 437,274 L 437,276 L 436,277 L 436,278 L 435,279 L 435,280 L 434,281 L 434,283 L 433,284 L 433,285 L 432,286 L 432,288 L 431,289 L 431,290 L 430,291 L 430,293 L 429,294 L 429,295 L 428,296 L 428,298 L 427,299 L 427,300 L 426,301 L 426,303 L 425,304 L 425,319 L 426,318 L 427,318 L 429,316 L 430,316 L 432,314 L 433,314 L 435,312 L 436,312 L 438,310 L 439,310 L 441,308 L 442,308 Z" fill="#f0d8a8" stroke="none" /><path d="M 174,260 L 174,262 L 173,263 L 173,264 L 172,265 L 172,266 L 171,267 L 171,268 L 170,269 L 170,271 L 169,272 L 169,273 L 168,274 L 168,275 L 167,276 L 167,278 L 166,279 L 166,280 L 165,281 L 165,282 L 164,283 L 164,285 L 163,286 L 163,287 L 162,288 L 162,289 L 161,290 L 161,291 L 160,292 L 160,294 L 159,295 L 159,296 L 158,297 L 158,298 L 157,299 L 157,319 L 159,317 L 160,317 L 162,315 L 163,315 L 164,314 L 165,314 L 167,312 L 168,312 L 170,310 L 171,310 L 173,308 L 174,308 Z" fill="#f0d8a8" stroke="none" /><path d="M 321,140 L 321,159 L 418,159 L 418,140 Z" fill="#f0d8a8" stroke="none" /><path d="M 55,140 L 55,159 L 151,159 L 151,140 Z" fill="#f0d8a8" stroke="none" /><path d="M 387,113 L 386,114 L 388,116 L 388,117 L 390,119 L 391,118 L 393,120 L 391,118 L 392,117 L 391,117 L 390,116 L 391,115 L 390,116 Z" fill="#f0d8a8" stroke="none" /><path d="M 439,98 L 439,99 L 438,100 L 438,102 L 437,103 L 437,104 L 436,105 L 436,106 L 435,107 L 435,109 L 434,110 L 434,111 L 433,112 L 433,114 L 432,115 L 432,116 L 431,117 L 431,119 L 430,120 L 430,121 L 429,122 L 429,123 L 428,124 L 428,126 L 427,127 L 427,128 L 426,129 L 426,131 L 425,132 L 425,133 L 424,134 L 424,135 L 423,136 L 423,138 L 422,139 L 422,158 L 423,157 L 424,157 L 426,155 L 427,155 L 429,153 L 430,153 L 431,152 L 432,152 L 434,150 L 435,150 L 437,148 L 438,148 L 439,147 Z" fill="#f0d8a8" stroke="none" /><path d="M 173,97 L 173,98 L 172,99 L 172,101 L 171,102 L 171,103 L 170,104 L 170,105 L 169,106 L 169,108 L 168,109 L 168,110 L 167,111 L 167,113 L 166,114 L 166,115 L 165,116 L 165,118 L 164,119 L 164,120 L 163,121 L 163,122 L 162,123 L 162,125 L 161,126 L 161,127 L 160,128 L 160,130 L 159,131 L 159,132 L 158,133 L 158,134 L 157,135 L 157,137 L 156,138 L 156,158 L 158,156 L 159,156 L 160,155 L 161,155 L 163,153 L 164,153 L 166,151 L 167,151 L 169,149 L 170,149 L 172,147 L 173,147 Z" fill="#f0d8a8" stroke="none" /><path d="M 338,276 L 338,277 L 337,278 L 337,279 L 336,280 L 336,281 L 335,282 L 335,283 L 334,284 L 334,285 L 333,286 L 333,287 L 332,288 L 332,289 L 331,290 L 331,291 L 330,292 L 330,293 L 329,294 L 329,295 L 328,296 L 328,297 L 326,299 L 326,300 L 325,301 L 422,301 L 422,300 L 421,300 L 420,299 L 419,299 L 418,298 L 416,298 L 415,297 L 414,297 L 413,298 L 411,298 L 410,297 L 408,297 L 407,296 L 402,296 L 401,295 L 398,295 L 397,294 L 396,294 L 395,293 L 395,289 L 393,289 L 392,288 L 392,287 L 391,288 L 379,288 L 378,287 L 377,287 L 375,285 L 374,286 L 373,286 L 372,287 L 370,287 L 369,286 L 369,285 L 368,284 L 368,282 L 367,282 L 366,283 L 364,283 L 364,285 L 363,286 L 363,296 L 361,298 L 357,298 L 356,297 L 351,297 L 350,296 L 346,296 L 345,295 L 340,295 L 338,293 L 338,292 L 339,291 L 339,288 L 340,287 L 340,284 L 341,283 L 341,281 L 342,280 Z" fill="#f0f0d8" stroke="none" /><path d="M 392,254 L 393,255 L 393,256 L 394,256 L 395,257 L 396,257 L 400,261 L 400,263 L 401,264 L 401,270 L 402,271 L 402,276 L 402,275 L 403,274 L 403,273 L 404,272 L 404,271 L 405,270 L 405,269 L 407,267 L 407,266 L 408,265 L 408,264 L 409,263 L 412,263 L 413,264 L 415,264 L 416,265 L 423,265 L 425,267 L 425,272 L 426,273 L 426,282 L 425,283 L 425,289 L 426,290 L 426,292 L 426,290 L 427,289 L 427,288 L 428,287 L 428,285 L 429,284 L 429,283 L 430,282 L 430,281 L 431,280 L 431,278 L 432,277 L 432,276 L 433,275 L 433,273 L 434,272 L 434,271 L 435,270 L 435,268 L 436,267 L 436,266 L 437,265 L 437,263 L 438,262 L 438,261 L 439,260 L 439,258 L 440,257 L 440,256 L 441,255 L 441,254 Z" fill="#f0f0d8" stroke="none" /><path d="M 350,254 L 349,255 L 349,256 L 348,257 L 348,258 L 347,259 L 347,260 L 346,261 L 346,262 L 345,263 L 345,264 L 344,265 L 344,266 L 343,267 L 343,268 L 342,269 L 345,266 L 351,266 L 352,265 L 354,265 L 355,266 L 358,266 L 360,268 L 361,268 L 362,269 L 364,269 L 366,271 L 366,272 L 367,273 L 367,275 L 368,276 L 368,279 L 368,272 L 369,271 L 369,267 L 370,266 L 370,264 L 371,263 L 371,261 L 373,259 L 373,258 L 374,257 L 375,257 L 376,256 L 377,256 L 378,255 L 380,255 L 381,254 Z" fill="#f0f0d8" stroke="none" /><path d="M 354,90 L 355,90 L 356,91 L 362,91 L 363,92 L 364,92 L 369,97 L 370,97 L 371,98 L 372,98 L 373,99 L 374,99 L 375,100 L 377,100 L 378,101 L 379,101 L 381,103 L 381,105 L 382,106 L 382,109 L 379,112 L 378,112 L 377,113 L 363,113 L 362,112 L 360,112 L 359,111 L 357,111 L 355,109 L 354,109 L 353,108 L 352,108 L 351,107 L 348,107 L 346,105 L 345,105 L 344,104 L 344,97 L 345,96 L 345,94 L 345,95 L 343,97 L 343,98 L 342,99 L 342,100 L 341,101 L 341,102 L 340,103 L 340,104 L 339,105 L 339,106 L 338,107 L 338,108 L 337,109 L 337,110 L 335,112 L 335,113 L 334,114 L 334,115 L 333,116 L 333,117 L 332,118 L 332,119 L 331,120 L 331,121 L 330,122 L 330,123 L 328,125 L 328,126 L 327,127 L 327,128 L 326,129 L 326,130 L 325,131 L 325,132 L 324,133 L 324,134 L 323,135 L 323,136 L 419,136 L 419,135 L 420,134 L 420,133 L 421,132 L 421,131 L 422,130 L 422,128 L 423,127 L 423,126 L 424,125 L 424,123 L 425,122 L 425,121 L 426,120 L 426,118 L 427,117 L 427,116 L 428,115 L 428,114 L 429,113 L 429,111 L 430,110 L 430,109 L 431,108 L 431,106 L 432,105 L 432,104 L 433,103 L 433,102 L 434,101 L 434,99 L 435,98 L 435,97 L 436,96 L 436,94 L 437,93 L 437,92 L 438,91 L 438,90 L 409,90 L 410,91 L 412,91 L 414,93 L 413,94 L 413,95 L 416,98 L 416,99 L 417,100 L 418,100 L 422,104 L 423,104 L 424,105 L 425,105 L 427,107 L 427,108 L 428,109 L 428,112 L 426,114 L 425,114 L 424,115 L 423,115 L 422,116 L 419,116 L 418,117 L 408,117 L 407,116 L 405,116 L 402,113 L 402,112 L 401,111 L 401,110 L 398,110 L 397,109 L 396,109 L 395,108 L 394,108 L 392,106 L 392,97 L 393,96 L 393,93 L 394,92 L 394,91 L 395,90 Z" fill="#f0f0d8" stroke="none" /><path d="M 81,90 L 80,91 L 80,92 L 79,93 L 79,94 L 78,95 L 78,96 L 76,98 L 76,99 L 75,100 L 75,101 L 74,102 L 74,103 L 73,104 L 73,105 L 72,106 L 72,107 L 71,108 L 71,109 L 70,110 L 70,111 L 68,113 L 68,114 L 67,115 L 67,116 L 66,117 L 66,118 L 65,119 L 65,120 L 64,121 L 64,122 L 63,123 L 63,124 L 61,126 L 61,127 L 60,128 L 60,129 L 59,130 L 59,131 L 58,132 L 58,133 L 57,134 L 57,135 L 56,136 L 153,136 L 153,134 L 154,133 L 154,132 L 155,131 L 155,130 L 156,129 L 156,127 L 157,126 L 157,125 L 158,124 L 158,122 L 159,121 L 159,120 L 160,119 L 160,118 L 161,117 L 161,115 L 162,114 L 162,113 L 163,112 L 163,110 L 164,109 L 164,108 L 165,107 L 165,105 L 166,104 L 166,103 L 167,102 L 167,101 L 168,100 L 168,98 L 169,97 L 169,96 L 170,95 L 170,93 L 171,92 L 171,91 L 172,90 Z" fill="#f0f0d8" stroke="none" /><path d="M 408,392 L 408,420 L 412,420 L 412,410 L 413,409 L 423,409 L 426,406 L 426,403 L 427,402 L 427,401 L 426,400 L 426,396 L 425,395 L 425,394 L 423,392 Z" fill="#f0f0f0" stroke="none" /><path d="M 320,197 L 320,213 L 448,213 L 448,197 Z" fill="#f0f0f0" stroke="none" /><path d="M 52,197 L 52,213 L 180,213 L 180,197 Z" fill="#f0f0f0" stroke="none" /><path d="M 317,36 L 317,52 L 445,52 L 445,36 Z" fill="#f0f0f0" stroke="none" /><path d="M 50,36 L 50,52 L 179,52 L 179,36 Z" fill="#f0f0f0" stroke="none" /></svg>