<?xml version="1.0" standalone="no"?>
<!DOCTYPE svg PUBLIC "-//W3C//DTD SVG 20010904//EN"
 "http://www.w3.org/TR/2001/REC-SVG-20010904/DTD/svg10.dtd">
<svg version="1.0" xmlns="http://www.w3.org/2000/svg"
 width="500.000000pt" height="500.000000pt" viewBox="0 0 500.000000 500.000000"
 preserveAspectRatio="xMidYMid meet">

<g transform="translate(0.000000,500.000000) scale(0.100000,-0.100000)"
fill="#000000" stroke="none">
<path d="M1368 4694 l-37 -26 -64 17 c-41 11 -79 15 -103 11 -54 -9 -64 -9
-106 -1 -36 7 -42 5 -123 -38 -27 -15 -31 -15 -50 2 -11 10 -30 22 -42 25 -44
14 -233 -84 -269 -139 -21 -33 -21 -71 1 -95 13 -15 16 -29 10 -67 -9 -65 -26
-94 -65 -107 -73 -24 -96 -114 -87 -341 6 -143 24 -232 52 -255 14 -12 14 -15
-3 -34 -11 -12 -25 -38 -31 -58 -8 -24 -42 -68 -92 -120 -57 -58 -91 -104
-117 -157 -33 -68 -37 -83 -37 -156 0 -73 4 -88 37 -156 21 -42 56 -96 78
-122 49 -56 156 -112 232 -122 29 -4 64 -13 78 -20 96 -48 903 -48 977 0 12 8
27 15 32 15 26 0 127 45 180 81 64 42 115 105 146 179 11 25 32 63 48 84 48
69 60 131 46 241 -16 129 -9 232 20 278 13 21 49 51 92 77 80 47 87 69 27 84
-30 8 -40 16 -48 42 -13 39 -29 47 -72 32 -94 -32 -172 -117 -233 -252 -22
-47 -42 -86 -46 -86 -4 0 -17 21 -29 48 -12 26 -27 58 -35 72 -12 23 -11 27
12 44 31 23 49 64 68 158 20 91 40 364 31 411 -7 36 -54 87 -81 87 -24 0 -53
40 -65 91 -11 44 -10 52 9 82 52 84 14 138 -132 186 -115 39 -160 40 -209 5z
m165 -28 c118 -37 145 -73 93 -129 l-25 -27 6 34 c4 29 1 37 -22 52 -23 15
-34 16 -89 6 -84 -16 -86 -16 -86 12 0 35 17 76 32 76 7 0 48 -11 91 -24z
m-138 -25 c-4 -17 0 -43 9 -65 l15 -36 -25 16 c-18 12 -24 25 -24 53 0 20 5
42 12 49 18 18 20 15 13 -17z m-313 13 c3 -3 1 -19 -5 -35 -10 -24 -9 -35 5
-59 14 -25 14 -29 1 -34 -27 -11 -87 -6 -113 9 -36 21 -84 19 -105 -5 -37 -41
-68 -10 -63 62 4 55 28 71 61 40 30 -29 64 -28 107 3 32 22 98 34 112 19z
m196 -9 c29 -9 57 -13 62 -10 8 5 13 -25 9 -52 -1 -5 -36 -18 -78 -31 -125
-38 -196 -13 -177 61 11 46 89 60 184 32z m-493 -34 c-3 -16 -2 -47 4 -67 10
-35 9 -36 -6 -22 -23 23 -20 118 3 118 3 0 3 -13 -1 -29z m-35 -24 c0 -32 0
-32 -43 -29 -69 6 -79 -11 -71 -114 8 -100 -9 -158 -59 -200 -30 -25 -33 -33
-44 -128 -6 -56 -12 -148 -12 -206 -1 -92 -3 -107 -20 -117 -17 -10 -19 -8
-25 25 -10 65 -6 335 7 371 12 34 18 39 72 63 36 16 52 48 67 128 10 58 9 63
-12 86 -20 20 -22 27 -12 49 10 22 124 105 145 105 4 0 7 -15 7 -33z m942 -2
c10 -22 8 -30 -12 -57 -19 -26 -22 -39 -17 -89 3 -34 14 -73 26 -92 11 -19 18
-37 14 -40 -31 -31 -90 40 -99 119 -6 46 -4 52 31 94 25 30 35 51 32 67 -6 31
11 29 25 -2z m-203 -19 c-33 -18 -47 -21 -58 -12 -11 9 -6 13 25 23 65 19 80
15 33 -11z m-784 -23 c-33 -8 -45 -24 -46 -62 l-1 -36 -11 34 c-10 30 -8 36
12 52 13 11 33 18 45 18 20 -1 20 -2 1 -6z m857 -66 c-6 -94 20 -160 87 -218
l46 -41 3 -156 c3 -164 -6 -239 -27 -234 -38 8 -84 3 -98 -10 -37 -37 -151 36
-223 142 -49 72 -82 98 -132 106 -44 7 -51 30 -18 59 11 10 20 22 20 27 0 10
-77 107 -95 120 -16 12 -33 9 -47 -9 -7 -9 -30 -33 -50 -53 -21 -20 -38 -40
-38 -44 0 -4 11 -23 25 -43 13 -20 22 -39 20 -43 -3 -4 -25 -10 -50 -13 -61
-9 -91 -31 -127 -93 -54 -96 -144 -159 -248 -171 l-50 -6 0 124 c0 165 14 258
41 277 73 51 94 98 93 210 l-1 92 26 0 c14 -1 37 -7 51 -15 38 -22 75 -18 110
11 l31 26 51 -22 c38 -16 61 -20 92 -15 23 3 70 8 105 10 35 3 91 14 125 26
l62 21 43 -22 42 -22 47 25 c26 14 56 26 68 26 20 1 21 -3 16 -72z m-905 -139
c-3 -8 -6 -5 -6 6 -1 11 2 17 5 13 3 -3 4 -12 1 -19z m1095 -65 c17 -41 16
-353 -1 -428 -25 -112 -65 -161 -106 -131 -27 19 -16 60 18 64 30 4 32 0 16
-29 -5 -11 -14 -17 -20 -13 -6 4 -6 11 2 20 9 11 8 14 -5 14 -21 0 -21 -39 -1
-46 21 -8 45 14 45 40 0 12 4 26 10 32 25 25 40 322 20 409 -5 22 -18 47 -29
56 -20 16 -20 16 2 27 33 16 36 15 49 -15z m55 -168 c-11 -263 -50 -416 -106
-415 -14 1 -13 2 2 11 49 29 78 158 78 355 0 79 -3 165 -7 192 l-7 47 23 -20
c22 -20 22 -23 17 -170z m-667 95 l21 -30 -56 0 -56 0 28 34 c30 38 33 38 63
-4z m14 -77 c-7 -16 -14 -34 -14 -40 0 -8 -14 -13 -35 -13 -27 0 -35 4 -35 18
0 10 -7 28 -16 40 l-15 22 65 0 65 0 -15 -27z m100 -106 c14 -9 43 -43 65 -74
39 -58 85 -106 131 -136 23 -16 1 -17 -355 -17 l-379 0 45 29 c54 35 98 82
132 142 25 43 47 59 102 73 11 3 68 4 127 2 79 -2 113 -7 132 -19z m373 -235
c-30 -33 -15 -77 33 -95 10 -4 7 -6 -7 -6 -33 -1 -63 33 -63 72 0 39 6 47 33
47 19 0 19 -1 4 -18z m486 -22 c29 -7 56 -15 61 -18 4 -2 -15 -18 -44 -35
-102 -59 -130 -144 -110 -344 13 -134 9 -169 -25 -228 -47 -81 -229 -235 -279
-235 -31 0 -89 70 -108 131 -24 74 -24 192 0 239 19 40 74 80 108 80 44 0 79
44 134 171 63 143 101 202 161 248 34 26 45 30 47 18 2 -9 23 -20 55 -27z
m-894 -10 l337 0 13 -44 c7 -25 10 -50 6 -55 -4 -8 -172 -11 -527 -11 -496 0
-520 1 -506 18 9 9 19 33 23 52 4 19 10 39 13 44 3 5 69 6 155 2 83 -3 301 -6
486 -6z m468 -116 c7 -7 10 -20 7 -28 -9 -23 -214 -24 -214 -1 0 11 12 15 45
15 34 0 48 5 57 20 10 16 19 18 53 13 22 -3 45 -12 52 -19z m-222 -36 c9 -21
17 -23 114 -26 68 -2 108 1 117 9 8 7 15 10 17 8 1 -2 18 -34 37 -71 l35 -67
-21 -27 c-12 -17 -40 -34 -73 -44 -105 -35 -148 -113 -138 -249 3 -42 13 -97
22 -122 21 -60 76 -125 119 -139 41 -13 81 4 165 70 64 50 53 23 -17 -42 -103
-97 -192 -123 -468 -139 -160 -9 -268 -9 -468 1 -143 6 -267 15 -276 19 -8 5
-40 11 -71 14 -116 11 -219 90 -282 216 -32 65 -37 83 -37 146 0 99 42 183
140 280 62 62 94 109 113 168 6 16 38 17 484 17 l478 0 10 -22z m-618 -854
c-3 -3 -12 -4 -19 -1 -8 3 -5 6 6 6 11 1 17 -2 13 -5z m336 -11 c-46 -2 -120
-2 -165 0 -46 1 -9 3 82 3 91 0 128 -2 83 -3z"/>
<path d="M2960 3403 c-298 -11 -603 -43 -670 -69 -69 -28 -64 -85 21 -225 67
-109 99 -207 99 -304 l0 -75 -87 0 c-119 0 -305 -18 -378 -36 -159 -39 -304
-153 -404 -318 -87 -145 -130 -377 -98 -540 31 -156 110 -287 240 -396 164
-139 352 -218 557 -235 41 -3 96 -8 123 -11 l47 -6 0 -348 0 -348 24 -29 c69
-82 325 -151 681 -183 154 -14 596 -14 750 0 267 24 475 69 593 126 105 51
106 54 112 268 l5 181 105 13 c58 7 109 17 114 22 8 8 -76 767 -101 909 l-6
34 -58 -6 -59 -5 0 537 c0 619 -4 590 99 756 50 80 56 95 56 144 0 51 -2 57
-27 69 -108 52 -586 83 -1243 80 -231 -1 -454 -3 -495 -5z m975 -53 c390 -15
677 -39 690 -60 6 -10 -104 -26 -288 -41 -143 -12 -148 -12 -185 9 -77 43
-207 35 -293 -17 -32 -20 -49 -21 -334 -21 -558 0 -1209 40 -1178 71 19 19
449 54 768 62 271 7 576 6 820 -3z m180 -111 c5 -5 -30 -9 -95 -9 -57 0 -101
2 -99 5 23 23 171 26 194 4z m-1655 -28 c204 -25 395 -34 847 -40 420 -5 481
-8 473 -21 -18 -30 -917 -12 -1244 26 -147 16 -198 28 -216 48 -10 13 -7 13
22 6 18 -5 71 -14 118 -19z m2203 8 c-6 -6 -37 -17 -69 -25 -75 -17 -325 -40
-347 -31 -32 12 -17 27 28 27 54 0 305 27 355 39 39 9 49 6 33 -10z m-468 -50
c4 -6 5 -12 3 -14 -2 -2 -93 -7 -202 -11 -168 -6 -198 -5 -194 7 3 10 31 15
104 20 183 10 283 9 289 -2z m-1697 -44 c202 -25 404 -35 830 -42 226 -3 412
-8 412 -10 0 -2 -10 -23 -22 -46 -12 -23 -43 -91 -69 -152 l-48 -110 -283 -7
c-397 -9 -727 -42 -825 -83 l-33 -14 0 123 c0 155 -20 225 -96 341 -18 28 -18
29 -1 22 10 -4 71 -14 135 -22z m2108 -10 c-9 -14 -22 -35 -30 -47 -39 -61
-56 -145 -56 -274 0 -116 -1 -126 -17 -119 -10 3 -44 13 -77 20 -32 8 -59 15
-61 17 -2 2 -10 51 -19 110 -8 60 -28 146 -44 192 -32 97 -33 95 58 97 25 0
86 6 135 13 137 20 130 20 111 -9z m-347 -69 c11 -29 27 -80 35 -112 16 -61
36 -206 30 -213 -2 -2 -60 2 -130 9 -69 7 -227 17 -350 24 l-224 11 66 145
c36 80 68 151 71 158 3 6 22 13 42 13 20 1 106 5 191 9 85 3 176 7 202 8 l47
2 20 -54z m-689 -363 c-10 -27 -23 -74 -30 -105 -8 -35 -19 -58 -28 -60 -32
-6 -523 10 -642 21 -217 21 -389 56 -406 82 -16 27 190 69 431 88 204 17 219
17 467 19 l226 2 -18 -47z m583 22 c84 -9 158 -17 165 -20 8 -3 12 -25 12 -63
l0 -59 -107 -12 c-194 -21 -355 -31 -516 -31 l-159 0 7 33 c7 35 45 157 53
171 7 12 351 0 545 -19z m-1745 -97 c3 -60 1 -68 -15 -68 -66 0 -299 -23 -362
-36 -161 -32 -267 -113 -335 -257 -97 -203 -85 -381 36 -569 124 -192 279
-269 586 -293 l92 -8 0 -63 0 -64 -40 0 c-81 0 -237 21 -305 41 -197 58 -391
198 -488 351 -59 92 -79 160 -85 284 -13 304 122 554 363 674 44 22 105 45
136 50 67 12 283 28 359 26 l55 -1 3 -67z m2057 48 c76 -22 45 -59 -67 -80
l-38 -7 0 55 0 56 33 -7 c17 -3 50 -11 72 -17z m-1877 -107 c152 -32 359 -49
656 -56 l278 -6 -5 -47 c-7 -58 -56 -263 -65 -271 -4 -3 -79 11 -167 32 -88
21 -171 38 -185 38 -21 1 -39 -18 -101 -107 -166 -233 -159 -219 -206 -406
-54 -216 -119 -525 -132 -635 -14 -106 -5 -121 87 -163 186 -85 720 -218 872
-218 38 0 39 1 55 56 32 112 115 463 140 599 42 222 35 366 -31 615 -14 52
-31 100 -37 107 -7 7 -55 21 -107 33 -52 11 -111 25 -131 31 l-37 9 16 53 c8
28 25 101 37 162 l22 110 229 7 c126 3 300 13 388 22 87 9 160 15 161 14 4 -5
65 -651 65 -689 0 -42 18 -37 -220 -65 -80 -9 -150 -22 -157 -28 -9 -8 2 -122
46 -473 31 -254 60 -465 63 -468 4 -4 92 4 197 17 l191 24 0 -172 0 -173 -37
-26 c-199 -135 -971 -195 -1538 -119 -207 28 -398 85 -452 136 l-23 21 0 1035
c0 981 1 1034 18 1027 9 -4 59 -16 110 -26z m1922 -359 l0 -380 -40 0 c-22 0
-40 3 -40 8 0 4 -13 145 -30 312 -16 168 -31 328 -34 357 l-4 52 61 14 c34 8
68 15 75 16 9 1 12 -81 12 -379z m-2100 -231 l0 -522 -107 6 c-221 13 -333 56
-448 171 -53 53 -81 92 -112 156 -73 149 -77 249 -18 406 64 171 169 253 365
283 102 16 119 18 223 20 l97 1 0 -521z m1005 178 l310 -72 23 -80 c33 -117
62 -296 61 -383 0 -73 -11 -167 -20 -176 -2 -2 -25 1 -50 7 -30 8 -57 25 -81
49 -44 47 -73 58 -153 58 -55 0 -68 4 -96 28 -29 24 -42 27 -104 28 -43 1 -91
8 -119 19 -41 16 -66 17 -194 12 -81 -4 -157 -9 -170 -11 -25 -6 -27 -19 18
157 16 62 40 126 55 150 61 93 199 287 204 286 3 0 146 -32 316 -72z m1292
-781 c29 -236 51 -431 49 -433 -5 -5 -541 -73 -577 -73 l-26 0 -52 431 c-29
236 -52 432 -50 433 5 4 258 36 283 36 13 0 14 -3 4 -19 -18 -29 4 -71 36 -71
31 0 57 36 50 66 -3 13 0 25 8 30 14 9 171 33 203 30 18 -1 23 -31 72 -430z
m-1522 234 c33 -11 84 -20 118 -20 48 0 64 -4 89 -25 25 -21 39 -25 99 -25 80
0 131 -21 166 -68 15 -21 34 -32 60 -37 71 -11 70 -9 40 -152 -15 -70 -49
-213 -76 -318 l-48 -190 -64 2 c-174 4 -715 148 -847 226 l-34 20 7 61 c7 63
77 423 95 487 l10 37 103 9 c167 16 219 15 282 -7z"/>
<path d="M3067 1478 c-25 -14 -20 -29 7 -22 13 3 27 1 30 -5 10 -15 26 -14 26
2 0 20 -43 37 -63 25z"/>
<path d="M3627 1323 c-13 -12 -7 -23 12 -23 10 0 21 -7 25 -15 6 -17 26 -21
26 -5 0 12 -37 50 -48 50 -5 0 -12 -3 -15 -7z"/>
<path d="M2857 1184 c-4 -4 -7 -13 -7 -21 0 -11 4 -11 20 -3 12 6 30 8 42 5
15 -5 19 -3 16 6 -5 15 -59 25 -71 13z"/>
<path d="M3310 1171 c0 -6 9 -11 20 -11 10 0 23 -8 29 -17 5 -10 13 -14 17
-10 14 13 -11 42 -40 45 -14 2 -26 -1 -26 -7z"/>
</g>
</svg>
