<?xml version="1.0" encoding="utf-8" ?>
<svg baseProfile="full" height="500" version="1.1" viewBox="0 0 500 500" width="500" xmlns="http://www.w3.org/2000/svg" xmlns:ev="http://www.w3.org/2001/xml-events" xmlns:xlink="http://www.w3.org/1999/xlink"><defs /><path d="M 134,56 L 133,57 L 125,57 L 124,58 L 120,58 L 119,59 L 115,59 L 114,60 L 112,60 L 111,61 L 109,61 L 108,62 L 106,62 L 105,63 L 103,63 L 102,64 L 101,64 L 100,65 L 99,65 L 98,66 L 96,66 L 95,67 L 94,67 L 93,68 L 92,68 L 91,69 L 90,69 L 88,71 L 87,71 L 86,72 L 85,72 L 83,74 L 82,74 L 81,75 L 80,75 L 80,76 L 79,77 L 78,77 L 76,79 L 75,79 L 69,85 L 68,85 L 68,86 L 67,87 L 66,87 L 66,88 L 57,97 L 57,98 L 55,100 L 55,101 L 53,103 L 52,103 L 53,104 L 52,105 L 51,105 L 51,106 L 50,107 L 50,108 L 49,109 L 49,110 L 48,111 L 48,112 L 47,113 L 47,114 L 46,115 L 46,116 L 45,117 L 45,118 L 44,119 L 44,120 L 43,121 L 43,122 L 42,123 L 42,124 L 41,125 L 41,128 L 40,129 L 40,131 L 39,132 L 39,134 L 38,135 L 38,138 L 37,139 L 36,139 L 37,140 L 37,142 L 36,143 L 36,144 L 35,145 L 36,146 L 35,147 L 36,148 L 35,149 L 35,158 L 34,159 L 34,164 L 33,165 L 34,166 L 33,167 L 32,167 L 32,168 L 29,171 L 29,172 L 28,173 L 28,174 L 25,177 L 25,179 L 24,180 L 24,181 L 23,182 L 23,183 L 22,184 L 22,186 L 21,187 L 21,194 L 22,195 L 22,198 L 23,199 L 23,201 L 26,204 L 27,204 L 29,206 L 30,206 L 31,207 L 31,208 L 33,208 L 34,209 L 35,209 L 38,212 L 39,212 L 41,214 L 41,215 L 43,215 L 44,216 L 44,217 L 45,217 L 47,219 L 47,220 L 48,221 L 48,222 L 49,223 L 49,224 L 50,225 L 50,226 L 51,227 L 51,229 L 52,229 L 53,230 L 53,231 L 54,232 L 54,233 L 56,235 L 56,236 L 59,239 L 59,240 L 70,251 L 71,251 L 74,254 L 75,254 L 77,256 L 78,256 L 80,258 L 81,258 L 82,259 L 83,259 L 86,262 L 87,261 L 88,262 L 88,263 L 89,262 L 90,263 L 91,263 L 93,265 L 95,265 L 96,266 L 99,266 L 100,267 L 102,267 L 103,268 L 106,268 L 107,269 L 110,269 L 111,270 L 116,270 L 117,271 L 121,271 L 122,272 L 123,271 L 124,272 L 124,273 L 125,272 L 127,272 L 128,273 L 128,285 L 127,286 L 126,286 L 125,287 L 124,287 L 121,290 L 120,290 L 120,291 L 115,296 L 115,297 L 114,298 L 114,299 L 113,300 L 113,301 L 112,302 L 112,303 L 111,304 L 111,305 L 109,307 L 110,308 L 109,309 L 108,309 L 109,310 L 108,311 L 109,312 L 108,313 L 108,314 L 107,315 L 108,316 L 108,318 L 107,319 L 107,320 L 106,321 L 107,322 L 107,328 L 108,329 L 108,336 L 107,337 L 108,338 L 107,339 L 108,340 L 108,354 L 107,355 L 108,356 L 108,370 L 107,371 L 108,372 L 108,374 L 109,375 L 109,388 L 108,389 L 109,390 L 108,391 L 109,392 L 109,394 L 108,395 L 109,396 L 109,414 L 108,415 L 109,416 L 109,418 L 108,419 L 110,421 L 110,434 L 175,434 L 175,328 L 176,327 L 185,327 L 186,328 L 187,327 L 233,327 L 234,328 L 235,327 L 244,327 L 245,328 L 247,328 L 248,327 L 249,327 L 250,328 L 256,328 L 257,327 L 258,327 L 259,328 L 261,326 L 307,326 L 308,325 L 310,325 L 311,324 L 312,324 L 313,325 L 315,323 L 318,323 L 319,322 L 320,322 L 321,321 L 323,321 L 324,320 L 327,320 L 328,319 L 330,319 L 331,318 L 332,318 L 333,319 L 335,317 L 336,317 L 337,316 L 340,316 L 341,315 L 343,315 L 344,314 L 346,314 L 347,313 L 348,313 L 349,314 L 350,313 L 351,313 L 352,312 L 353,312 L 354,311 L 355,312 L 356,312 L 356,311 L 357,310 L 360,310 L 361,309 L 363,309 L 364,308 L 366,308 L 367,307 L 370,307 L 371,306 L 373,306 L 374,305 L 376,305 L 377,304 L 379,304 L 380,303 L 384,303 L 385,302 L 386,302 L 387,301 L 389,301 L 390,300 L 393,300 L 394,299 L 396,299 L 397,298 L 399,298 L 400,297 L 403,297 L 404,296 L 406,296 L 407,295 L 409,295 L 410,294 L 412,294 L 413,293 L 416,293 L 417,292 L 419,292 L 420,291 L 422,291 L 423,290 L 426,290 L 427,289 L 428,289 L 429,288 L 431,288 L 434,285 L 435,285 L 436,284 L 436,283 L 439,280 L 441,280 L 442,279 L 444,279 L 445,278 L 446,278 L 447,277 L 449,277 L 450,276 L 451,276 L 451,275 L 452,274 L 453,274 L 462,265 L 462,264 L 463,263 L 463,262 L 464,261 L 464,260 L 465,259 L 465,257 L 466,256 L 466,255 L 467,254 L 467,252 L 468,251 L 468,248 L 469,247 L 469,244 L 470,243 L 470,241 L 471,240 L 471,235 L 472,234 L 472,230 L 473,229 L 473,223 L 474,222 L 474,215 L 475,214 L 474,213 L 475,212 L 475,209 L 476,208 L 475,207 L 475,199 L 476,198 L 475,197 L 475,193 L 474,192 L 474,186 L 473,185 L 473,182 L 472,181 L 473,180 L 471,178 L 471,177 L 470,176 L 470,175 L 469,174 L 469,173 L 463,167 L 461,167 L 460,166 L 458,166 L 457,165 L 450,165 L 449,166 L 447,166 L 446,167 L 445,167 L 444,168 L 443,168 L 441,170 L 440,170 L 437,173 L 437,174 L 434,177 L 434,178 L 431,181 L 431,183 L 430,184 L 430,185 L 429,186 L 429,187 L 428,188 L 428,189 L 427,190 L 427,191 L 426,192 L 426,194 L 425,195 L 424,195 L 425,196 L 424,197 L 424,198 L 423,199 L 423,200 L 422,201 L 423,202 L 422,203 L 422,205 L 421,206 L 421,208 L 420,209 L 420,212 L 419,213 L 418,213 L 419,214 L 419,215 L 418,216 L 418,218 L 417,219 L 417,222 L 416,223 L 416,227 L 415,228 L 415,232 L 414,233 L 414,237 L 413,238 L 413,242 L 412,243 L 411,243 L 412,244 L 412,247 L 411,248 L 411,253 L 410,254 L 410,256 L 408,258 L 406,258 L 405,259 L 403,259 L 402,260 L 399,260 L 398,261 L 395,261 L 394,262 L 393,262 L 392,263 L 390,263 L 389,264 L 386,264 L 385,265 L 383,265 L 382,266 L 380,266 L 379,267 L 376,267 L 375,268 L 373,268 L 372,269 L 369,269 L 368,270 L 366,270 L 365,271 L 362,271 L 361,272 L 360,272 L 359,273 L 356,273 L 355,274 L 353,274 L 352,275 L 350,275 L 349,276 L 347,276 L 346,277 L 344,277 L 343,278 L 340,278 L 339,279 L 336,279 L 335,280 L 333,280 L 332,281 L 330,281 L 329,282 L 327,282 L 326,283 L 324,283 L 323,284 L 320,284 L 319,285 L 317,285 L 316,286 L 314,286 L 313,287 L 310,287 L 309,288 L 307,288 L 306,289 L 304,289 L 303,290 L 301,290 L 300,291 L 223,291 L 222,292 L 171,292 L 167,288 L 166,288 L 165,287 L 164,287 L 163,286 L 163,271 L 164,270 L 168,270 L 169,269 L 170,270 L 171,269 L 172,269 L 173,268 L 175,268 L 176,267 L 177,268 L 178,268 L 178,267 L 179,266 L 181,266 L 182,265 L 183,265 L 184,264 L 186,264 L 187,263 L 188,263 L 189,262 L 190,262 L 191,261 L 192,261 L 193,260 L 194,260 L 195,259 L 197,259 L 200,256 L 201,257 L 201,256 L 203,254 L 204,254 L 206,252 L 207,252 L 210,249 L 211,249 L 212,248 L 213,248 L 213,247 L 219,241 L 220,241 L 220,240 L 226,234 L 227,234 L 227,232 L 231,228 L 231,227 L 232,226 L 232,225 L 233,224 L 234,224 L 234,223 L 235,222 L 235,221 L 236,220 L 236,219 L 237,218 L 237,217 L 238,216 L 238,215 L 239,214 L 239,213 L 240,212 L 240,211 L 241,210 L 241,209 L 242,208 L 242,207 L 243,206 L 244,206 L 243,205 L 243,204 L 244,203 L 244,202 L 246,200 L 245,199 L 246,198 L 246,195 L 247,194 L 247,192 L 248,191 L 248,189 L 249,188 L 248,187 L 249,186 L 249,182 L 250,181 L 250,177 L 251,176 L 250,175 L 250,173 L 251,172 L 251,163 L 252,162 L 251,161 L 251,157 L 250,156 L 250,155 L 251,154 L 250,153 L 250,148 L 249,147 L 249,142 L 248,141 L 249,140 L 248,139 L 248,138 L 247,137 L 248,136 L 247,135 L 247,134 L 246,133 L 247,132 L 246,131 L 246,130 L 245,129 L 245,128 L 244,127 L 245,126 L 243,124 L 243,123 L 242,122 L 242,120 L 241,119 L 241,118 L 240,117 L 240,116 L 239,115 L 239,114 L 238,113 L 238,112 L 236,110 L 236,109 L 235,108 L 235,106 L 234,106 L 233,105 L 233,104 L 231,102 L 231,100 L 230,100 L 228,98 L 228,96 L 227,96 L 224,93 L 224,92 L 216,84 L 215,84 L 210,79 L 209,79 L 206,76 L 205,76 L 203,74 L 202,74 L 200,72 L 199,72 L 198,71 L 197,71 L 195,69 L 194,69 L 193,68 L 192,68 L 191,67 L 190,67 L 189,66 L 188,66 L 187,65 L 185,65 L 184,64 L 183,64 L 182,63 L 180,63 L 179,62 L 177,62 L 176,61 L 174,61 L 173,60 L 171,60 L 170,59 L 166,59 L 165,58 L 161,58 L 160,57 L 153,57 L 152,56 Z" fill="#000000" stroke="none" /><path d="M 452,184 L 451,185 L 451,186 L 448,189 L 448,190 L 447,191 L 447,192 L 446,193 L 446,194 L 445,195 L 445,196 L 444,197 L 444,198 L 443,199 L 443,201 L 442,202 L 442,203 L 441,204 L 441,206 L 440,207 L 440,209 L 439,210 L 439,213 L 438,214 L 438,216 L 437,217 L 437,219 L 436,220 L 436,223 L 435,224 L 435,227 L 434,228 L 434,231 L 433,232 L 433,236 L 432,237 L 432,241 L 431,242 L 431,246 L 430,247 L 430,251 L 429,252 L 429,255 L 430,256 L 431,256 L 433,258 L 434,258 L 437,261 L 437,262 L 438,261 L 439,261 L 441,259 L 442,259 L 447,254 L 447,253 L 448,252 L 448,250 L 449,249 L 449,247 L 450,246 L 450,244 L 451,243 L 451,240 L 452,239 L 452,236 L 453,235 L 453,231 L 454,230 L 454,226 L 455,225 L 455,219 L 456,218 L 456,205 L 457,204 L 456,203 L 456,190 L 455,189 L 455,186 L 454,185 L 454,184 Z" fill="#f0f0f0" stroke="none" /><path d="M 137,78 L 136,79 L 129,79 L 128,80 L 123,80 L 122,81 L 120,81 L 119,82 L 116,82 L 115,83 L 113,83 L 112,84 L 111,84 L 110,85 L 109,85 L 108,86 L 106,86 L 105,87 L 104,87 L 103,88 L 102,88 L 100,90 L 99,90 L 98,91 L 97,91 L 95,93 L 94,93 L 92,95 L 91,95 L 87,99 L 86,99 L 77,108 L 77,109 L 73,113 L 73,114 L 71,116 L 71,117 L 69,119 L 69,120 L 68,121 L 68,122 L 67,123 L 67,124 L 66,125 L 66,126 L 65,127 L 65,128 L 64,129 L 64,130 L 63,131 L 63,132 L 62,133 L 62,135 L 61,136 L 61,138 L 60,139 L 60,141 L 59,142 L 59,146 L 58,147 L 58,151 L 57,152 L 57,165 L 56,166 L 56,174 L 55,175 L 55,176 L 49,182 L 49,183 L 46,186 L 46,187 L 45,188 L 45,189 L 46,190 L 47,190 L 49,192 L 50,192 L 53,195 L 54,195 L 66,207 L 66,208 L 67,209 L 67,210 L 68,211 L 68,212 L 69,213 L 69,214 L 70,215 L 70,216 L 71,217 L 72,216 L 73,216 L 74,215 L 75,215 L 76,214 L 78,214 L 79,213 L 82,213 L 83,212 L 99,212 L 100,213 L 103,213 L 104,214 L 106,214 L 107,215 L 109,215 L 110,216 L 111,216 L 112,217 L 113,217 L 115,219 L 115,220 L 116,221 L 116,225 L 115,226 L 115,227 L 113,229 L 112,229 L 111,230 L 108,230 L 107,229 L 106,229 L 105,228 L 103,228 L 102,227 L 101,227 L 100,226 L 96,226 L 95,225 L 88,225 L 87,226 L 83,226 L 82,227 L 80,227 L 79,228 L 87,236 L 88,236 L 90,238 L 91,238 L 92,239 L 93,239 L 95,241 L 96,241 L 97,242 L 99,242 L 100,243 L 101,243 L 102,244 L 104,244 L 105,245 L 106,245 L 107,246 L 110,246 L 111,247 L 114,247 L 115,248 L 119,248 L 120,249 L 126,249 L 127,250 L 154,250 L 155,249 L 160,249 L 161,248 L 164,248 L 165,247 L 168,247 L 169,246 L 171,246 L 172,245 L 173,245 L 174,244 L 176,244 L 177,243 L 178,243 L 179,242 L 180,242 L 181,241 L 182,241 L 183,240 L 184,240 L 185,239 L 186,239 L 187,238 L 188,238 L 190,236 L 191,236 L 194,233 L 195,233 L 199,229 L 200,229 L 208,221 L 208,220 L 212,216 L 212,215 L 214,213 L 214,212 L 216,210 L 216,209 L 217,208 L 217,207 L 218,206 L 218,205 L 220,203 L 220,201 L 221,200 L 221,199 L 222,198 L 222,197 L 223,196 L 223,194 L 224,193 L 224,191 L 225,190 L 225,188 L 226,187 L 226,184 L 227,183 L 227,179 L 228,178 L 228,169 L 229,168 L 229,160 L 228,159 L 228,151 L 227,150 L 227,146 L 226,145 L 226,142 L 225,141 L 225,138 L 224,137 L 224,135 L 223,134 L 223,133 L 222,132 L 222,130 L 221,129 L 221,128 L 220,127 L 220,126 L 219,125 L 219,124 L 218,123 L 218,122 L 216,120 L 216,119 L 215,118 L 215,117 L 212,114 L 212,113 L 209,110 L 209,109 L 198,98 L 197,98 L 193,94 L 192,94 L 190,92 L 189,92 L 188,91 L 187,91 L 185,89 L 184,89 L 183,88 L 182,88 L 181,87 L 180,87 L 179,86 L 178,86 L 177,85 L 175,85 L 174,84 L 173,84 L 172,83 L 170,83 L 169,82 L 166,82 L 165,81 L 163,81 L 162,80 L 158,80 L 157,79 L 149,79 L 148,78 Z" fill="#f0f0f0" stroke="none" /></svg>