<?xml version="1.0" encoding="utf-8" ?>
<svg baseProfile="full" height="500" version="1.1" viewBox="0 0 500 500" width="500" xmlns="http://www.w3.org/2000/svg" xmlns:ev="http://www.w3.org/2001/xml-events" xmlns:xlink="http://www.w3.org/1999/xlink"><defs /><path d="M 240,18 L 239,19 L 235,19 L 234,20 L 230,20 L 229,21 L 227,21 L 226,22 L 224,22 L 223,23 L 222,23 L 221,24 L 220,24 L 219,25 L 217,25 L 215,27 L 214,27 L 213,28 L 212,28 L 210,30 L 209,30 L 207,32 L 206,32 L 202,36 L 201,36 L 194,43 L 194,44 L 193,45 L 192,45 L 192,46 L 191,47 L 191,48 L 188,51 L 188,52 L 187,53 L 187,54 L 185,56 L 185,57 L 183,59 L 183,61 L 182,62 L 182,63 L 181,64 L 181,65 L 180,66 L 180,67 L 178,69 L 179,70 L 178,71 L 178,73 L 177,74 L 177,76 L 176,77 L 176,79 L 175,80 L 175,82 L 174,83 L 174,87 L 172,89 L 173,90 L 173,91 L 172,92 L 172,96 L 171,97 L 171,105 L 170,106 L 170,108 L 169,109 L 170,110 L 170,119 L 169,120 L 169,137 L 170,138 L 170,153 L 171,154 L 171,162 L 172,163 L 172,170 L 173,171 L 173,174 L 168,179 L 167,179 L 162,184 L 162,185 L 158,189 L 158,190 L 157,191 L 156,191 L 156,192 L 155,193 L 155,194 L 154,195 L 153,195 L 153,197 L 151,199 L 151,202 L 150,203 L 150,204 L 149,205 L 149,207 L 148,208 L 148,210 L 147,211 L 147,214 L 146,215 L 146,218 L 145,219 L 145,222 L 144,223 L 144,227 L 143,228 L 143,232 L 142,233 L 142,237 L 141,238 L 141,243 L 139,245 L 140,246 L 140,249 L 139,250 L 139,256 L 138,257 L 138,258 L 137,259 L 138,260 L 138,263 L 137,264 L 137,266 L 136,267 L 137,268 L 136,269 L 137,270 L 137,272 L 136,273 L 136,278 L 135,279 L 136,280 L 136,284 L 135,285 L 135,286 L 134,287 L 135,288 L 135,294 L 134,295 L 135,296 L 135,303 L 136,304 L 136,306 L 137,307 L 137,309 L 138,310 L 138,311 L 140,313 L 140,314 L 142,316 L 142,317 L 143,317 L 150,324 L 151,324 L 153,326 L 154,326 L 156,328 L 157,328 L 159,330 L 160,330 L 161,331 L 162,331 L 163,332 L 163,333 L 164,333 L 165,334 L 166,334 L 167,335 L 165,337 L 165,339 L 163,341 L 163,343 L 162,344 L 162,346 L 161,347 L 161,349 L 160,350 L 160,352 L 159,353 L 159,355 L 158,356 L 158,359 L 157,360 L 157,364 L 156,365 L 156,370 L 155,371 L 155,392 L 156,393 L 156,397 L 157,398 L 157,402 L 158,403 L 158,404 L 157,405 L 159,407 L 159,408 L 160,409 L 160,411 L 161,412 L 161,414 L 162,415 L 162,416 L 163,417 L 163,419 L 165,421 L 165,424 L 166,425 L 166,428 L 165,429 L 165,434 L 164,435 L 165,436 L 165,442 L 164,443 L 164,450 L 163,451 L 164,452 L 163,453 L 164,454 L 164,464 L 163,465 L 164,466 L 164,470 L 165,471 L 165,474 L 164,475 L 165,476 L 165,479 L 166,480 L 170,480 L 172,478 L 170,476 L 170,437 L 171,436 L 171,431 L 172,430 L 174,432 L 174,433 L 185,444 L 186,444 L 189,447 L 190,447 L 192,449 L 193,449 L 195,451 L 196,451 L 197,452 L 198,452 L 200,454 L 201,454 L 202,455 L 203,455 L 204,456 L 206,456 L 207,457 L 208,457 L 209,458 L 210,458 L 211,459 L 213,459 L 214,460 L 216,460 L 217,461 L 219,461 L 220,462 L 223,462 L 224,463 L 227,463 L 228,464 L 233,464 L 234,465 L 241,465 L 242,466 L 265,466 L 266,465 L 272,465 L 273,464 L 277,464 L 278,463 L 281,463 L 282,462 L 284,462 L 285,461 L 287,461 L 288,460 L 290,460 L 291,459 L 292,459 L 293,458 L 294,458 L 295,457 L 296,457 L 297,456 L 298,456 L 299,455 L 300,455 L 301,454 L 302,454 L 303,453 L 304,453 L 306,451 L 307,451 L 309,449 L 310,449 L 313,446 L 314,446 L 317,443 L 318,443 L 333,428 L 333,427 L 337,423 L 337,422 L 338,421 L 339,422 L 339,424 L 340,425 L 340,433 L 341,434 L 341,445 L 342,446 L 341,447 L 341,461 L 342,462 L 341,463 L 341,471 L 340,472 L 340,476 L 339,477 L 339,478 L 340,479 L 340,480 L 341,481 L 345,481 L 345,480 L 347,478 L 346,477 L 346,471 L 347,470 L 346,469 L 346,452 L 347,451 L 347,443 L 346,442 L 346,429 L 345,428 L 345,427 L 346,426 L 345,425 L 345,422 L 344,421 L 344,415 L 343,414 L 343,413 L 344,412 L 344,411 L 345,410 L 345,408 L 346,407 L 346,405 L 347,404 L 348,404 L 347,403 L 347,402 L 348,401 L 348,399 L 349,398 L 349,397 L 350,396 L 350,395 L 351,394 L 350,393 L 350,391 L 351,390 L 351,386 L 352,385 L 352,361 L 351,360 L 351,356 L 350,355 L 350,352 L 349,351 L 350,350 L 348,348 L 350,346 L 353,346 L 354,345 L 355,346 L 355,345 L 356,344 L 357,344 L 358,343 L 359,343 L 359,342 L 362,339 L 362,337 L 363,336 L 364,336 L 363,335 L 363,325 L 364,324 L 363,323 L 364,322 L 363,321 L 363,294 L 362,293 L 362,276 L 361,275 L 361,273 L 362,272 L 361,271 L 361,263 L 360,262 L 360,251 L 359,250 L 359,247 L 360,246 L 359,245 L 360,244 L 359,243 L 359,241 L 358,240 L 358,235 L 359,234 L 357,232 L 357,228 L 356,227 L 356,224 L 355,223 L 355,221 L 354,220 L 354,217 L 353,216 L 353,215 L 352,214 L 352,212 L 351,211 L 351,210 L 350,209 L 350,207 L 349,206 L 349,205 L 348,204 L 348,202 L 346,200 L 346,199 L 345,198 L 345,197 L 344,196 L 344,194 L 343,194 L 342,193 L 342,192 L 341,191 L 341,190 L 340,189 L 340,188 L 339,188 L 335,184 L 334,184 L 333,183 L 333,182 L 332,182 L 330,180 L 329,180 L 326,177 L 325,177 L 323,175 L 322,175 L 321,174 L 322,173 L 322,170 L 323,169 L 323,164 L 324,163 L 324,161 L 325,160 L 324,159 L 324,157 L 325,156 L 325,149 L 326,148 L 326,141 L 327,140 L 326,139 L 326,137 L 327,136 L 327,111 L 328,110 L 327,109 L 327,105 L 326,104 L 326,96 L 325,95 L 325,91 L 326,90 L 325,90 L 324,89 L 324,87 L 325,86 L 323,84 L 323,81 L 322,80 L 322,77 L 321,76 L 321,75 L 322,74 L 321,74 L 320,73 L 321,72 L 319,70 L 319,68 L 318,67 L 318,66 L 317,65 L 317,64 L 316,63 L 316,60 L 315,59 L 315,58 L 314,58 L 313,57 L 313,56 L 312,55 L 312,54 L 310,52 L 310,51 L 308,49 L 308,48 L 305,45 L 305,44 L 296,35 L 295,35 L 292,32 L 291,32 L 289,30 L 288,30 L 286,28 L 285,28 L 284,27 L 283,27 L 282,26 L 281,26 L 280,25 L 279,25 L 278,24 L 276,24 L 275,23 L 274,23 L 273,22 L 270,22 L 269,21 L 267,21 L 266,20 L 262,20 L 261,19 L 255,19 L 254,18 Z" fill="#000000" stroke="none" /><path d="M 337,425 L 336,426 L 336,427 L 330,433 L 330,434 L 324,440 L 323,440 L 318,445 L 317,445 L 317,446 L 316,447 L 315,447 L 315,448 L 313,450 L 311,450 L 310,451 L 309,451 L 307,453 L 306,453 L 304,455 L 303,455 L 302,456 L 301,456 L 300,457 L 299,457 L 298,458 L 297,458 L 296,459 L 295,459 L 294,460 L 293,460 L 292,461 L 290,461 L 289,462 L 288,462 L 288,463 L 287,464 L 286,463 L 285,463 L 283,465 L 282,464 L 281,465 L 278,465 L 277,466 L 276,466 L 275,467 L 274,466 L 273,466 L 272,467 L 264,467 L 263,468 L 254,468 L 253,469 L 252,468 L 243,468 L 242,467 L 234,467 L 233,466 L 229,466 L 228,465 L 224,465 L 223,464 L 222,464 L 221,465 L 219,463 L 218,464 L 216,462 L 214,462 L 213,461 L 212,461 L 211,460 L 209,460 L 208,459 L 206,459 L 205,458 L 204,458 L 203,457 L 202,457 L 201,456 L 200,456 L 199,455 L 198,455 L 196,453 L 195,453 L 194,452 L 193,452 L 191,450 L 190,450 L 188,448 L 187,448 L 180,441 L 178,441 L 177,440 L 177,438 L 173,434 L 173,435 L 172,436 L 172,437 L 173,438 L 172,439 L 172,441 L 173,442 L 172,443 L 172,448 L 171,449 L 171,458 L 172,459 L 172,463 L 173,464 L 172,465 L 172,467 L 173,468 L 172,469 L 172,473 L 173,474 L 172,475 L 172,477 L 338,477 L 338,474 L 339,473 L 339,456 L 338,455 L 339,454 L 339,442 L 338,441 L 339,440 L 338,439 L 339,438 L 339,433 L 338,432 L 338,425 Z" fill="#78c0f0" stroke="none" /><path d="M 243,25 L 242,26 L 236,26 L 235,27 L 232,27 L 231,28 L 229,28 L 228,29 L 226,29 L 225,30 L 224,30 L 223,31 L 222,31 L 221,32 L 220,32 L 219,33 L 218,33 L 217,34 L 216,34 L 214,36 L 213,36 L 211,38 L 210,38 L 197,51 L 197,52 L 194,55 L 194,56 L 193,57 L 193,58 L 191,60 L 191,61 L 190,62 L 190,63 L 189,64 L 189,65 L 188,66 L 188,67 L 187,68 L 187,69 L 186,70 L 186,72 L 185,73 L 185,75 L 184,76 L 184,77 L 183,78 L 183,81 L 182,82 L 182,84 L 181,85 L 181,89 L 180,90 L 180,93 L 179,94 L 179,99 L 178,100 L 178,108 L 177,109 L 177,150 L 178,151 L 178,160 L 179,161 L 179,168 L 180,169 L 181,168 L 182,168 L 184,166 L 185,166 L 186,165 L 187,165 L 188,164 L 189,164 L 190,163 L 191,163 L 190,162 L 190,156 L 189,155 L 189,137 L 190,136 L 190,130 L 191,129 L 191,126 L 192,125 L 192,122 L 193,121 L 193,119 L 194,118 L 194,116 L 195,115 L 195,114 L 198,111 L 202,111 L 203,110 L 207,110 L 208,109 L 211,109 L 212,108 L 214,108 L 215,107 L 217,107 L 218,106 L 219,106 L 220,105 L 221,105 L 222,104 L 223,104 L 225,102 L 226,102 L 227,101 L 228,101 L 231,98 L 232,98 L 246,84 L 246,83 L 249,80 L 249,79 L 252,76 L 253,76 L 254,75 L 255,76 L 256,76 L 258,78 L 258,79 L 259,80 L 259,82 L 260,83 L 260,84 L 261,85 L 261,86 L 262,87 L 262,88 L 264,90 L 264,91 L 267,94 L 267,95 L 276,104 L 277,104 L 280,107 L 281,107 L 283,109 L 284,109 L 285,110 L 286,110 L 287,111 L 288,111 L 289,112 L 290,112 L 291,113 L 292,113 L 293,114 L 294,114 L 295,115 L 296,115 L 297,116 L 299,116 L 300,117 L 302,117 L 303,118 L 304,118 L 305,119 L 306,119 L 307,120 L 307,122 L 308,123 L 308,149 L 307,150 L 307,156 L 306,157 L 306,160 L 305,161 L 305,163 L 304,164 L 305,164 L 306,165 L 308,165 L 309,166 L 310,166 L 311,167 L 312,167 L 314,169 L 315,169 L 315,168 L 316,167 L 316,162 L 317,161 L 317,155 L 318,154 L 318,146 L 319,145 L 319,134 L 320,133 L 320,108 L 319,107 L 319,98 L 318,97 L 318,92 L 317,91 L 317,87 L 316,86 L 316,82 L 315,81 L 315,79 L 314,78 L 314,76 L 313,75 L 313,73 L 312,72 L 312,70 L 311,69 L 311,68 L 310,67 L 310,66 L 309,65 L 309,64 L 308,63 L 308,62 L 307,61 L 307,60 L 306,59 L 306,58 L 304,56 L 304,55 L 302,53 L 302,52 L 298,48 L 298,47 L 294,43 L 293,43 L 288,38 L 287,38 L 285,36 L 284,36 L 283,35 L 282,35 L 281,34 L 280,34 L 278,32 L 276,32 L 275,31 L 274,31 L 273,30 L 271,30 L 270,29 L 268,29 L 267,28 L 265,28 L 264,27 L 260,27 L 259,26 L 252,26 L 251,25 Z" fill="#904818" stroke="none" /><path d="M 203,263 L 204,264 L 204,267 L 205,268 L 205,270 L 208,267 L 210,267 L 211,268 L 211,269 L 212,270 L 212,272 L 213,273 L 213,275 L 214,276 L 214,278 L 215,278 L 215,276 L 214,275 L 214,274 L 213,273 L 213,272 L 212,271 L 212,270 L 211,269 L 211,267 L 210,266 L 210,265 L 209,265 L 207,267 L 206,267 L 204,265 L 204,264 Z" fill="#d80000" stroke="none" /><path d="M 297,251 L 297,252 L 296,253 L 296,255 L 295,256 L 295,257 L 294,258 L 294,260 L 293,261 L 293,262 L 292,263 L 290,263 L 288,261 L 288,260 L 287,259 L 287,262 L 286,263 L 286,265 L 285,266 L 285,267 L 285,266 L 286,265 L 286,264 L 287,263 L 290,263 L 291,264 L 291,265 L 292,265 L 292,264 L 293,263 L 293,261 L 294,260 L 294,259 L 295,258 L 295,257 L 296,256 L 296,255 L 298,253 L 298,252 Z" fill="#d80000" stroke="none" /><path d="M 252,243 L 252,245 L 253,246 L 252,247 L 252,248 L 251,249 L 250,249 L 249,248 L 248,248 L 249,249 L 249,251 L 250,252 L 250,254 L 251,255 L 251,256 L 252,257 L 252,259 L 253,260 L 253,261 L 254,262 L 255,262 L 254,261 L 254,260 L 253,259 L 253,258 L 252,257 L 252,256 L 251,255 L 251,254 L 250,253 L 250,250 L 251,249 L 255,249 L 254,248 L 254,247 L 253,246 L 253,245 L 252,244 Z" fill="#d80000" stroke="none" /><path d="M 175,339 L 176,340 L 175,341 L 174,341 L 173,342 L 171,342 L 172,343 L 171,344 L 171,345 L 169,347 L 171,345 L 172,346 L 172,347 L 171,348 L 171,349 L 170,350 L 169,349 L 168,349 L 169,349 L 170,350 L 168,352 L 167,352 L 167,353 L 168,352 L 169,353 L 169,355 L 170,356 L 169,357 L 169,359 L 170,360 L 168,362 L 167,361 L 167,360 L 166,359 L 167,358 L 167,355 L 166,356 L 167,357 L 165,359 L 165,361 L 164,362 L 164,363 L 165,364 L 166,363 L 167,364 L 167,365 L 166,366 L 164,366 L 163,367 L 163,371 L 164,372 L 164,373 L 162,375 L 162,377 L 163,378 L 163,379 L 162,380 L 163,381 L 163,382 L 162,383 L 162,387 L 162,383 L 163,382 L 164,383 L 164,385 L 165,386 L 164,387 L 164,389 L 164,387 L 166,385 L 167,386 L 167,387 L 166,388 L 166,390 L 164,392 L 163,392 L 163,393 L 166,396 L 164,398 L 164,399 L 166,401 L 165,402 L 165,403 L 165,402 L 166,401 L 168,403 L 166,405 L 168,407 L 167,408 L 168,409 L 168,410 L 169,411 L 169,410 L 170,409 L 172,411 L 171,412 L 171,413 L 172,414 L 172,415 L 171,416 L 170,415 L 172,417 L 172,418 L 173,419 L 173,420 L 174,420 L 176,422 L 175,423 L 176,424 L 177,424 L 179,426 L 178,427 L 179,428 L 180,428 L 183,431 L 182,432 L 184,430 L 185,431 L 185,432 L 184,433 L 185,432 L 186,433 L 186,436 L 187,436 L 189,438 L 188,437 L 190,435 L 191,436 L 191,439 L 191,436 L 190,435 L 193,432 L 194,433 L 194,434 L 193,435 L 193,437 L 194,438 L 193,439 L 193,440 L 192,441 L 193,440 L 195,442 L 195,443 L 195,442 L 196,441 L 198,443 L 197,444 L 198,445 L 199,444 L 200,445 L 200,446 L 201,447 L 202,447 L 202,446 L 203,445 L 206,448 L 206,449 L 207,450 L 208,449 L 211,452 L 212,451 L 214,453 L 215,452 L 217,454 L 218,453 L 219,454 L 220,453 L 223,456 L 224,455 L 224,452 L 225,451 L 226,452 L 226,453 L 227,454 L 226,455 L 226,456 L 226,455 L 227,454 L 229,456 L 228,457 L 229,456 L 230,457 L 231,456 L 233,458 L 234,457 L 235,458 L 236,457 L 236,455 L 238,453 L 239,454 L 239,455 L 238,456 L 238,459 L 238,456 L 239,455 L 240,456 L 240,457 L 241,458 L 240,459 L 241,458 L 242,459 L 243,458 L 243,457 L 245,455 L 246,456 L 246,457 L 245,458 L 245,459 L 245,458 L 246,457 L 248,459 L 247,458 L 249,456 L 250,457 L 250,459 L 250,457 L 251,456 L 252,457 L 252,458 L 253,459 L 252,458 L 252,457 L 250,455 L 252,453 L 253,454 L 253,455 L 254,456 L 254,457 L 255,458 L 255,459 L 255,458 L 256,457 L 256,456 L 255,455 L 256,454 L 256,453 L 257,452 L 258,453 L 258,458 L 257,459 L 258,458 L 258,453 L 257,452 L 259,450 L 260,451 L 260,453 L 261,454 L 260,455 L 261,456 L 260,457 L 260,459 L 260,457 L 261,456 L 263,458 L 262,459 L 264,457 L 265,458 L 265,459 L 265,458 L 266,457 L 268,459 L 269,459 L 269,456 L 268,455 L 269,454 L 268,453 L 268,452 L 269,451 L 271,453 L 271,457 L 272,458 L 271,457 L 271,453 L 270,452 L 272,450 L 273,451 L 273,453 L 274,454 L 273,455 L 273,456 L 274,457 L 274,458 L 274,457 L 275,456 L 276,457 L 277,456 L 278,457 L 279,456 L 279,455 L 281,453 L 282,454 L 282,455 L 281,456 L 282,456 L 282,454 L 281,453 L 283,451 L 284,452 L 284,454 L 284,452 L 285,451 L 287,453 L 286,454 L 288,452 L 289,453 L 288,452 L 288,451 L 287,450 L 289,448 L 290,449 L 290,451 L 291,452 L 292,451 L 292,450 L 293,449 L 294,450 L 296,448 L 297,449 L 298,449 L 298,448 L 300,446 L 300,445 L 299,444 L 299,443 L 300,442 L 302,444 L 302,445 L 302,444 L 304,442 L 305,443 L 305,444 L 305,443 L 306,442 L 307,443 L 308,442 L 307,441 L 307,440 L 308,439 L 309,440 L 310,439 L 311,440 L 314,437 L 315,437 L 316,436 L 315,435 L 315,432 L 316,431 L 318,433 L 317,434 L 318,433 L 319,433 L 323,429 L 323,428 L 326,425 L 327,425 L 326,424 L 327,423 L 326,422 L 328,420 L 329,421 L 329,422 L 329,421 L 330,420 L 329,421 L 328,420 L 328,418 L 329,417 L 330,418 L 331,417 L 332,418 L 333,417 L 332,416 L 332,415 L 331,414 L 332,413 L 332,412 L 331,411 L 333,409 L 334,410 L 334,415 L 334,414 L 336,412 L 336,410 L 337,409 L 336,408 L 336,407 L 337,406 L 338,406 L 338,404 L 337,403 L 338,402 L 338,398 L 339,397 L 341,399 L 340,400 L 341,399 L 341,397 L 342,396 L 342,394 L 342,396 L 341,397 L 340,396 L 340,393 L 339,392 L 341,390 L 342,391 L 342,392 L 342,391 L 341,390 L 341,389 L 340,388 L 340,387 L 341,386 L 343,388 L 344,387 L 343,386 L 344,385 L 343,384 L 345,382 L 345,381 L 343,379 L 343,378 L 344,377 L 342,375 L 344,373 L 345,374 L 345,373 L 344,373 L 343,372 L 344,371 L 342,369 L 342,368 L 343,367 L 344,368 L 345,367 L 345,366 L 344,365 L 344,358 L 343,359 L 344,360 L 342,362 L 341,361 L 341,356 L 342,355 L 343,356 L 343,355 L 341,353 L 342,352 L 341,353 L 339,351 L 340,350 L 341,350 L 338,350 L 337,351 L 335,351 L 334,352 L 331,352 L 332,353 L 332,354 L 331,355 L 330,354 L 329,355 L 328,354 L 328,353 L 328,354 L 327,355 L 326,354 L 326,353 L 325,354 L 326,354 L 327,355 L 327,356 L 326,357 L 325,356 L 324,356 L 323,357 L 322,356 L 322,355 L 323,354 L 322,355 L 321,355 L 322,356 L 321,357 L 321,359 L 320,360 L 319,359 L 319,357 L 319,359 L 320,360 L 318,362 L 317,361 L 317,360 L 316,360 L 315,359 L 316,358 L 317,358 L 316,358 L 315,359 L 314,358 L 313,359 L 312,358 L 311,359 L 310,358 L 310,357 L 309,358 L 306,358 L 307,359 L 305,361 L 304,360 L 303,361 L 303,363 L 301,365 L 300,364 L 300,363 L 301,362 L 301,361 L 301,362 L 300,363 L 298,361 L 298,360 L 298,361 L 297,362 L 296,361 L 293,361 L 292,362 L 291,362 L 290,363 L 289,362 L 288,363 L 287,363 L 287,364 L 286,365 L 285,364 L 284,365 L 283,364 L 282,364 L 282,365 L 281,366 L 281,367 L 280,368 L 279,367 L 279,365 L 277,365 L 277,367 L 278,368 L 276,370 L 275,369 L 275,367 L 274,366 L 272,368 L 271,367 L 269,367 L 269,368 L 268,369 L 268,370 L 267,371 L 266,370 L 266,368 L 265,368 L 264,369 L 261,369 L 260,370 L 260,372 L 261,373 L 261,375 L 262,376 L 262,378 L 263,379 L 262,380 L 262,382 L 260,384 L 259,383 L 259,382 L 260,381 L 260,377 L 259,376 L 259,374 L 258,373 L 258,370 L 253,365 L 254,364 L 252,366 L 251,365 L 250,366 L 248,364 L 248,363 L 245,363 L 245,364 L 246,365 L 246,366 L 245,367 L 243,365 L 243,363 L 242,362 L 241,362 L 241,364 L 240,365 L 239,364 L 238,365 L 235,362 L 236,361 L 235,361 L 235,362 L 234,363 L 233,362 L 232,363 L 231,362 L 230,363 L 229,362 L 229,360 L 228,360 L 229,361 L 229,362 L 228,363 L 226,361 L 226,360 L 225,359 L 225,358 L 224,358 L 223,357 L 221,359 L 220,358 L 219,359 L 217,357 L 218,356 L 219,356 L 218,355 L 218,356 L 217,357 L 216,356 L 215,357 L 213,355 L 214,354 L 213,353 L 211,353 L 210,352 L 209,353 L 208,352 L 208,351 L 208,352 L 207,353 L 207,355 L 208,356 L 207,357 L 207,358 L 206,359 L 205,358 L 205,354 L 204,353 L 205,352 L 204,353 L 202,351 L 200,353 L 199,352 L 199,351 L 200,350 L 199,351 L 198,350 L 197,351 L 195,349 L 196,348 L 195,347 L 196,348 L 194,350 L 193,349 L 193,348 L 193,349 L 192,350 L 192,351 L 191,352 L 190,351 L 190,349 L 191,348 L 191,347 L 192,346 L 191,347 L 191,348 L 190,349 L 189,348 L 189,346 L 190,345 L 189,346 L 189,348 L 188,349 L 186,347 L 187,346 L 187,344 L 185,344 L 184,343 L 183,343 L 182,344 L 182,345 L 180,347 L 179,346 L 179,345 L 180,344 L 180,343 L 179,342 L 180,341 L 178,341 L 177,340 L 176,340 Z" fill="#d84818" stroke="none" /><path d="M 166,319 L 166,320 L 165,321 L 165,323 L 165,321 L 166,320 L 168,322 L 167,323 L 167,325 L 167,323 L 168,322 L 170,324 L 169,325 L 169,327 L 169,325 L 170,324 L 172,326 L 171,327 L 171,328 L 172,328 L 173,329 L 174,328 L 175,329 L 176,329 L 175,329 L 174,328 L 174,327 L 175,326 L 174,325 L 173,325 L 171,323 L 170,324 L 167,321 L 167,320 Z" fill="#d84818" stroke="none" /><path d="M 192,245 L 192,246 L 191,247 L 190,246 L 191,247 L 190,248 L 191,249 L 190,250 L 189,250 L 189,253 L 189,252 L 190,251 L 191,252 L 191,253 L 192,254 L 189,257 L 188,256 L 189,257 L 188,258 L 188,260 L 187,261 L 188,260 L 190,262 L 189,263 L 189,266 L 187,268 L 187,269 L 188,270 L 188,271 L 187,272 L 186,271 L 185,272 L 186,273 L 187,272 L 188,273 L 188,274 L 188,273 L 190,271 L 191,272 L 191,273 L 190,274 L 190,275 L 189,276 L 191,278 L 192,278 L 192,277 L 193,276 L 195,278 L 194,279 L 194,280 L 195,281 L 195,280 L 194,279 L 196,277 L 197,278 L 197,281 L 197,278 L 196,277 L 198,275 L 199,276 L 199,279 L 200,280 L 199,281 L 199,284 L 200,284 L 201,283 L 202,284 L 202,285 L 203,286 L 203,287 L 204,287 L 207,290 L 208,289 L 210,291 L 211,290 L 211,288 L 210,287 L 211,286 L 210,287 L 209,286 L 209,285 L 208,284 L 208,283 L 209,282 L 211,284 L 211,283 L 210,283 L 209,282 L 210,281 L 209,280 L 210,279 L 209,278 L 209,277 L 208,276 L 208,274 L 208,275 L 207,276 L 209,278 L 207,280 L 206,279 L 206,278 L 205,278 L 204,279 L 203,278 L 202,279 L 201,278 L 201,277 L 202,276 L 201,275 L 200,275 L 199,274 L 198,275 L 197,274 L 197,273 L 199,271 L 200,272 L 201,272 L 200,272 L 199,271 L 198,271 L 196,269 L 196,268 L 197,267 L 199,269 L 197,267 L 197,265 L 198,264 L 199,265 L 199,266 L 199,265 L 198,264 L 198,263 L 197,263 L 196,262 L 197,261 L 196,260 L 197,259 L 197,257 L 196,256 L 196,257 L 195,258 L 194,257 L 194,256 L 193,255 L 194,254 L 195,254 L 194,254 L 193,253 L 194,252 L 195,252 L 195,251 L 194,251 L 193,250 L 193,248 L 194,247 L 193,247 L 192,246 Z" fill="#d84818" stroke="none" /><path d="M 191,172 L 191,173 L 190,174 L 188,174 L 188,175 L 187,176 L 187,178 L 186,179 L 185,178 L 184,178 L 183,179 L 183,180 L 180,183 L 179,182 L 179,181 L 181,179 L 181,178 L 180,179 L 179,179 L 177,181 L 178,180 L 179,181 L 179,182 L 176,185 L 174,183 L 172,185 L 174,185 L 175,186 L 174,187 L 174,188 L 173,189 L 172,188 L 172,187 L 172,188 L 171,189 L 170,188 L 170,187 L 170,188 L 169,189 L 170,190 L 170,191 L 171,192 L 170,193 L 170,194 L 171,195 L 170,196 L 170,201 L 169,202 L 167,200 L 168,199 L 168,198 L 167,197 L 168,196 L 168,191 L 168,196 L 167,197 L 166,196 L 166,194 L 166,196 L 165,197 L 164,196 L 163,196 L 164,196 L 165,197 L 165,198 L 164,199 L 163,198 L 161,198 L 160,199 L 161,200 L 160,201 L 159,201 L 160,201 L 162,203 L 161,204 L 161,205 L 162,206 L 160,208 L 159,207 L 159,204 L 158,204 L 157,205 L 158,204 L 159,205 L 159,207 L 160,208 L 160,210 L 159,211 L 158,210 L 158,209 L 158,210 L 156,212 L 155,212 L 155,214 L 154,215 L 154,217 L 155,216 L 157,218 L 154,221 L 154,222 L 153,223 L 152,222 L 153,223 L 152,224 L 152,225 L 153,226 L 152,227 L 153,228 L 152,229 L 153,230 L 151,232 L 150,232 L 151,233 L 150,234 L 150,237 L 149,238 L 150,239 L 150,240 L 148,242 L 150,244 L 150,245 L 149,246 L 148,245 L 149,246 L 148,247 L 147,247 L 148,247 L 149,248 L 149,249 L 148,250 L 148,251 L 150,253 L 150,255 L 149,256 L 148,255 L 148,254 L 148,255 L 147,256 L 146,255 L 146,254 L 146,255 L 147,256 L 147,257 L 146,258 L 146,259 L 147,259 L 148,260 L 146,262 L 145,261 L 146,262 L 146,263 L 145,264 L 146,265 L 145,266 L 145,267 L 146,267 L 147,268 L 147,271 L 146,272 L 144,272 L 144,274 L 145,275 L 143,277 L 144,276 L 146,278 L 145,279 L 146,280 L 146,281 L 145,282 L 144,281 L 145,282 L 144,283 L 144,284 L 143,285 L 144,284 L 145,285 L 145,287 L 144,288 L 143,288 L 143,289 L 142,290 L 142,291 L 143,291 L 144,292 L 144,294 L 143,295 L 143,297 L 142,298 L 142,299 L 142,298 L 143,297 L 144,298 L 144,299 L 145,300 L 143,302 L 143,303 L 144,304 L 144,305 L 144,304 L 145,303 L 147,305 L 146,306 L 146,307 L 147,308 L 146,309 L 147,310 L 148,309 L 149,310 L 149,311 L 149,310 L 148,309 L 149,308 L 148,307 L 148,306 L 149,305 L 151,307 L 151,312 L 150,313 L 149,313 L 152,316 L 153,316 L 154,315 L 155,316 L 155,317 L 155,316 L 157,314 L 158,315 L 158,316 L 157,317 L 157,318 L 156,319 L 157,318 L 158,319 L 157,318 L 157,317 L 158,316 L 160,318 L 160,321 L 161,322 L 162,321 L 163,322 L 163,323 L 163,322 L 162,321 L 164,319 L 164,318 L 163,318 L 162,317 L 159,317 L 158,316 L 159,315 L 158,315 L 157,314 L 157,313 L 158,312 L 156,310 L 157,309 L 158,309 L 157,309 L 156,308 L 156,306 L 158,304 L 159,305 L 159,306 L 158,307 L 159,307 L 161,305 L 160,304 L 161,303 L 161,302 L 162,301 L 163,302 L 163,304 L 163,302 L 164,301 L 165,302 L 165,303 L 165,302 L 164,301 L 164,300 L 165,299 L 167,301 L 167,302 L 167,301 L 166,300 L 168,298 L 169,299 L 169,301 L 170,302 L 171,301 L 172,302 L 173,301 L 175,303 L 176,302 L 176,300 L 177,299 L 179,301 L 178,302 L 178,304 L 179,304 L 178,303 L 178,302 L 179,301 L 181,303 L 181,304 L 181,303 L 182,302 L 184,304 L 183,305 L 184,304 L 185,305 L 187,303 L 188,304 L 188,305 L 188,304 L 187,303 L 187,301 L 186,300 L 186,299 L 187,298 L 189,300 L 189,302 L 190,303 L 190,306 L 190,303 L 189,302 L 189,300 L 188,299 L 189,298 L 189,295 L 190,294 L 191,295 L 191,296 L 191,295 L 192,294 L 193,295 L 192,294 L 193,293 L 194,293 L 193,292 L 193,293 L 191,295 L 190,294 L 190,293 L 191,292 L 191,291 L 192,290 L 194,290 L 193,289 L 192,289 L 190,287 L 189,288 L 190,289 L 190,290 L 189,291 L 187,289 L 187,287 L 186,286 L 186,285 L 186,286 L 184,288 L 183,287 L 183,286 L 184,285 L 184,282 L 183,282 L 182,281 L 181,281 L 178,278 L 177,279 L 175,277 L 176,276 L 177,276 L 177,274 L 176,273 L 177,272 L 176,273 L 175,272 L 175,271 L 176,270 L 175,269 L 175,267 L 176,266 L 178,268 L 178,267 L 177,267 L 175,265 L 177,263 L 178,264 L 176,262 L 176,261 L 177,260 L 179,262 L 179,259 L 178,258 L 178,257 L 179,256 L 179,255 L 180,254 L 180,252 L 178,250 L 179,249 L 179,247 L 180,246 L 181,247 L 182,247 L 181,247 L 180,246 L 182,244 L 182,242 L 183,241 L 182,240 L 183,239 L 182,238 L 182,235 L 183,234 L 184,235 L 184,236 L 184,235 L 183,234 L 183,233 L 184,232 L 183,233 L 182,232 L 182,231 L 183,230 L 182,229 L 184,227 L 183,227 L 182,226 L 182,225 L 183,224 L 184,225 L 184,223 L 183,222 L 184,221 L 183,220 L 182,221 L 181,220 L 181,219 L 182,218 L 183,218 L 183,217 L 182,216 L 183,215 L 182,214 L 182,212 L 181,211 L 181,209 L 182,208 L 183,209 L 183,210 L 183,209 L 182,208 L 181,209 L 180,208 L 180,206 L 181,205 L 182,206 L 183,205 L 183,204 L 183,205 L 182,206 L 181,205 L 181,204 L 180,203 L 180,201 L 179,200 L 179,199 L 178,198 L 178,197 L 177,196 L 179,194 L 180,195 L 180,197 L 181,198 L 181,199 L 182,200 L 181,199 L 181,198 L 182,197 L 183,198 L 184,197 L 185,198 L 184,197 L 186,195 L 187,196 L 187,197 L 187,196 L 186,195 L 186,194 L 187,193 L 190,196 L 189,197 L 190,196 L 191,197 L 191,198 L 190,199 L 193,202 L 193,203 L 194,204 L 194,205 L 195,206 L 195,209 L 193,211 L 192,210 L 192,209 L 193,208 L 193,207 L 192,206 L 192,205 L 192,206 L 191,207 L 191,208 L 192,209 L 191,210 L 191,211 L 192,210 L 193,211 L 193,212 L 192,213 L 192,214 L 193,215 L 192,216 L 193,217 L 192,218 L 192,219 L 192,218 L 193,217 L 194,218 L 194,219 L 195,220 L 195,221 L 194,222 L 193,221 L 192,222 L 192,223 L 192,222 L 193,221 L 194,222 L 194,224 L 192,226 L 192,228 L 193,229 L 193,231 L 194,232 L 192,234 L 192,236 L 194,238 L 192,240 L 191,240 L 191,241 L 194,244 L 194,245 L 194,244 L 196,242 L 197,243 L 197,244 L 196,245 L 197,244 L 198,245 L 200,243 L 201,244 L 201,245 L 200,246 L 201,247 L 200,248 L 201,248 L 202,249 L 201,250 L 202,251 L 202,252 L 203,252 L 204,253 L 203,254 L 204,253 L 205,254 L 205,255 L 205,254 L 206,253 L 207,254 L 207,255 L 208,256 L 206,258 L 206,259 L 207,258 L 207,257 L 208,256 L 209,257 L 211,255 L 212,256 L 212,257 L 213,258 L 212,259 L 214,261 L 214,263 L 216,265 L 215,266 L 216,267 L 216,265 L 214,263 L 214,261 L 215,260 L 216,261 L 216,262 L 218,264 L 218,267 L 218,264 L 220,262 L 221,263 L 221,264 L 220,265 L 220,266 L 221,267 L 221,268 L 221,267 L 220,266 L 220,265 L 221,264 L 223,266 L 223,267 L 224,268 L 223,269 L 224,270 L 223,271 L 222,271 L 223,271 L 224,272 L 224,273 L 225,274 L 224,273 L 224,272 L 225,271 L 227,273 L 227,277 L 226,278 L 225,278 L 227,280 L 226,281 L 226,282 L 226,281 L 227,280 L 229,282 L 227,284 L 228,283 L 229,284 L 229,285 L 228,286 L 228,287 L 228,286 L 229,285 L 231,287 L 227,291 L 228,292 L 228,293 L 227,294 L 225,292 L 225,291 L 223,289 L 222,289 L 221,288 L 221,287 L 221,288 L 220,289 L 219,288 L 219,286 L 220,285 L 218,283 L 219,284 L 219,288 L 218,289 L 216,287 L 217,286 L 217,285 L 216,286 L 216,287 L 215,288 L 214,287 L 213,287 L 213,288 L 214,289 L 213,290 L 213,291 L 212,292 L 212,293 L 212,292 L 213,291 L 215,293 L 214,294 L 217,297 L 218,296 L 219,297 L 220,296 L 221,297 L 220,296 L 220,295 L 221,294 L 223,296 L 223,297 L 224,298 L 223,297 L 223,296 L 224,295 L 227,298 L 228,297 L 229,298 L 228,297 L 229,296 L 229,294 L 230,293 L 232,295 L 231,296 L 231,298 L 231,296 L 233,294 L 234,295 L 234,296 L 233,297 L 233,298 L 233,297 L 234,296 L 235,297 L 234,296 L 234,295 L 235,294 L 237,296 L 237,297 L 238,297 L 240,295 L 240,294 L 241,293 L 242,294 L 244,292 L 245,293 L 247,291 L 248,292 L 249,291 L 249,290 L 250,289 L 250,287 L 251,286 L 251,285 L 252,284 L 254,286 L 252,288 L 252,290 L 251,291 L 252,290 L 252,288 L 253,287 L 254,288 L 254,289 L 255,290 L 254,289 L 254,288 L 255,287 L 257,289 L 256,288 L 257,287 L 257,285 L 259,283 L 260,284 L 260,285 L 259,286 L 259,289 L 259,286 L 260,285 L 262,287 L 261,288 L 261,289 L 261,288 L 262,287 L 263,288 L 263,289 L 264,289 L 265,288 L 265,286 L 266,285 L 268,287 L 267,288 L 268,287 L 269,288 L 270,287 L 271,288 L 274,285 L 275,286 L 275,287 L 275,286 L 277,284 L 278,285 L 278,286 L 277,287 L 278,286 L 279,287 L 278,286 L 278,285 L 279,284 L 281,286 L 281,287 L 282,287 L 283,286 L 282,285 L 283,284 L 283,283 L 282,282 L 282,281 L 283,280 L 285,282 L 285,286 L 285,282 L 287,280 L 288,281 L 288,282 L 287,283 L 288,284 L 287,285 L 288,286 L 290,284 L 291,285 L 291,286 L 291,285 L 292,284 L 294,286 L 293,287 L 294,286 L 295,287 L 294,286 L 296,284 L 297,285 L 297,288 L 297,285 L 298,284 L 300,286 L 299,287 L 299,288 L 299,287 L 300,286 L 302,288 L 301,289 L 302,290 L 303,289 L 304,290 L 304,291 L 305,292 L 306,291 L 308,293 L 308,294 L 311,297 L 312,296 L 313,297 L 313,298 L 313,297 L 314,296 L 314,291 L 315,290 L 317,292 L 316,293 L 316,294 L 317,295 L 316,296 L 318,294 L 318,293 L 320,291 L 319,290 L 319,289 L 317,287 L 317,282 L 317,287 L 318,288 L 317,289 L 317,290 L 316,291 L 315,290 L 315,287 L 314,286 L 315,285 L 315,284 L 314,283 L 315,282 L 315,280 L 316,279 L 317,280 L 316,279 L 318,277 L 318,276 L 317,275 L 316,275 L 315,274 L 315,271 L 317,269 L 316,269 L 316,270 L 315,271 L 315,274 L 313,276 L 312,275 L 312,274 L 313,273 L 313,272 L 312,271 L 314,269 L 314,267 L 313,266 L 313,265 L 314,264 L 316,266 L 315,265 L 316,264 L 316,262 L 315,263 L 313,261 L 314,260 L 316,260 L 314,258 L 315,257 L 315,256 L 315,257 L 314,258 L 313,257 L 313,254 L 315,252 L 314,253 L 312,251 L 314,249 L 313,248 L 313,247 L 314,246 L 314,245 L 313,245 L 312,244 L 313,243 L 313,241 L 312,241 L 311,240 L 312,239 L 311,238 L 312,237 L 313,237 L 312,236 L 311,236 L 310,235 L 311,234 L 311,233 L 310,232 L 314,228 L 314,227 L 313,227 L 312,226 L 312,225 L 313,224 L 313,223 L 315,221 L 314,220 L 315,219 L 315,218 L 312,215 L 314,213 L 315,214 L 315,215 L 316,216 L 315,215 L 315,214 L 316,213 L 315,212 L 315,211 L 316,210 L 315,209 L 315,208 L 316,207 L 317,208 L 316,207 L 317,206 L 316,205 L 316,204 L 317,203 L 318,204 L 317,203 L 317,202 L 319,200 L 320,201 L 320,202 L 320,201 L 321,200 L 323,202 L 322,201 L 323,200 L 322,199 L 322,198 L 323,197 L 325,199 L 325,202 L 326,203 L 325,204 L 326,205 L 326,206 L 327,207 L 326,208 L 325,208 L 325,211 L 326,212 L 325,213 L 326,214 L 324,216 L 326,218 L 325,219 L 326,220 L 324,222 L 323,222 L 323,225 L 324,226 L 322,228 L 323,229 L 322,230 L 324,232 L 324,233 L 323,234 L 322,233 L 323,234 L 322,235 L 323,234 L 324,235 L 324,237 L 323,238 L 322,237 L 321,238 L 321,239 L 321,238 L 322,237 L 323,238 L 323,239 L 324,240 L 324,242 L 323,243 L 322,242 L 322,241 L 321,241 L 323,243 L 322,244 L 324,246 L 323,247 L 324,248 L 324,250 L 325,251 L 325,255 L 324,256 L 323,255 L 323,254 L 323,255 L 324,256 L 324,259 L 324,256 L 325,255 L 327,257 L 326,258 L 326,259 L 327,260 L 324,263 L 324,264 L 324,263 L 325,262 L 326,263 L 326,266 L 325,267 L 326,266 L 327,267 L 327,268 L 328,269 L 328,270 L 327,271 L 325,269 L 327,271 L 327,272 L 326,273 L 326,275 L 326,273 L 327,272 L 328,273 L 328,274 L 329,275 L 328,276 L 329,277 L 328,278 L 328,279 L 327,280 L 327,281 L 328,281 L 329,280 L 331,282 L 330,283 L 330,284 L 331,285 L 331,286 L 330,287 L 328,285 L 328,283 L 327,284 L 328,285 L 327,286 L 329,288 L 329,289 L 328,290 L 328,291 L 329,290 L 331,292 L 331,293 L 330,294 L 329,293 L 328,294 L 328,295 L 328,294 L 329,293 L 330,294 L 330,295 L 333,298 L 332,299 L 332,301 L 331,302 L 331,305 L 330,306 L 328,304 L 329,303 L 329,301 L 330,300 L 330,298 L 329,298 L 327,300 L 327,301 L 326,302 L 327,303 L 326,304 L 326,307 L 325,308 L 324,307 L 324,306 L 323,305 L 324,304 L 324,302 L 323,302 L 322,303 L 322,304 L 321,305 L 320,304 L 319,304 L 318,305 L 317,305 L 316,306 L 316,307 L 315,308 L 315,309 L 313,311 L 312,310 L 312,309 L 313,308 L 312,307 L 310,309 L 310,312 L 309,313 L 309,314 L 310,315 L 310,316 L 309,317 L 307,315 L 307,312 L 308,311 L 308,310 L 308,311 L 307,312 L 307,315 L 308,316 L 306,318 L 305,317 L 305,314 L 304,313 L 305,312 L 303,314 L 302,313 L 302,312 L 301,313 L 300,313 L 301,314 L 299,316 L 298,315 L 298,314 L 297,315 L 298,315 L 299,316 L 297,318 L 295,316 L 294,316 L 293,317 L 292,317 L 291,318 L 289,318 L 290,319 L 288,321 L 287,320 L 287,319 L 286,320 L 286,321 L 285,322 L 285,323 L 284,324 L 283,323 L 279,327 L 278,326 L 277,326 L 275,328 L 275,330 L 272,333 L 271,332 L 271,331 L 273,329 L 273,327 L 271,327 L 272,327 L 273,328 L 273,329 L 272,330 L 271,329 L 270,330 L 269,329 L 268,329 L 267,330 L 267,331 L 268,332 L 268,333 L 269,334 L 267,336 L 267,337 L 268,338 L 268,339 L 267,340 L 267,343 L 268,344 L 267,345 L 267,349 L 268,350 L 268,351 L 267,352 L 268,351 L 269,352 L 269,353 L 268,354 L 267,354 L 267,357 L 268,358 L 267,359 L 269,357 L 270,358 L 271,357 L 272,358 L 271,357 L 272,356 L 272,354 L 273,353 L 275,355 L 274,356 L 274,357 L 274,356 L 275,355 L 277,357 L 278,357 L 278,356 L 279,355 L 280,356 L 279,355 L 279,354 L 280,353 L 282,355 L 282,356 L 282,355 L 283,354 L 284,355 L 282,353 L 282,352 L 283,351 L 286,354 L 287,353 L 288,354 L 287,353 L 288,352 L 288,351 L 290,349 L 291,350 L 291,351 L 290,352 L 290,354 L 290,352 L 291,351 L 291,350 L 290,349 L 292,347 L 293,348 L 293,352 L 292,353 L 293,352 L 294,353 L 295,352 L 295,351 L 296,350 L 298,352 L 300,350 L 300,348 L 301,347 L 303,349 L 302,350 L 303,349 L 304,350 L 305,349 L 306,350 L 308,348 L 309,349 L 310,349 L 310,348 L 309,347 L 309,342 L 308,341 L 309,340 L 309,339 L 310,338 L 312,340 L 311,341 L 311,343 L 312,344 L 311,345 L 311,346 L 312,347 L 312,348 L 312,347 L 311,346 L 311,345 L 312,344 L 314,346 L 314,347 L 314,346 L 316,344 L 317,345 L 317,346 L 316,347 L 317,346 L 318,347 L 317,346 L 317,345 L 318,344 L 320,346 L 319,345 L 321,343 L 322,344 L 322,346 L 322,344 L 321,343 L 321,341 L 320,340 L 320,338 L 319,337 L 321,335 L 321,334 L 322,333 L 323,334 L 323,336 L 322,337 L 322,339 L 323,340 L 323,342 L 325,344 L 324,345 L 325,344 L 326,345 L 325,344 L 327,342 L 328,343 L 328,344 L 328,343 L 329,342 L 329,340 L 330,339 L 332,341 L 331,342 L 331,343 L 330,344 L 331,344 L 331,342 L 333,340 L 334,341 L 334,342 L 333,343 L 334,342 L 335,343 L 337,341 L 338,342 L 340,340 L 341,341 L 342,340 L 342,337 L 341,336 L 343,334 L 344,335 L 344,338 L 345,339 L 344,340 L 345,339 L 346,340 L 347,339 L 346,338 L 348,336 L 349,337 L 349,339 L 349,337 L 351,335 L 352,336 L 352,337 L 351,338 L 352,337 L 353,338 L 352,337 L 352,336 L 353,335 L 354,336 L 356,334 L 354,332 L 355,331 L 355,330 L 356,329 L 355,329 L 355,331 L 353,333 L 352,332 L 352,331 L 353,330 L 353,328 L 356,325 L 356,324 L 355,325 L 354,324 L 354,323 L 355,322 L 354,323 L 353,322 L 353,320 L 354,319 L 355,320 L 354,319 L 356,317 L 355,316 L 356,315 L 354,313 L 355,312 L 355,310 L 356,309 L 356,308 L 355,307 L 355,306 L 356,305 L 355,306 L 354,306 L 353,305 L 354,304 L 354,303 L 352,301 L 354,299 L 355,300 L 355,296 L 354,297 L 353,296 L 353,295 L 354,294 L 353,293 L 354,292 L 353,293 L 352,292 L 352,290 L 353,289 L 354,290 L 355,289 L 355,286 L 355,289 L 354,290 L 353,289 L 353,285 L 355,283 L 353,281 L 354,280 L 352,278 L 352,277 L 353,276 L 353,274 L 354,273 L 353,272 L 354,273 L 353,274 L 353,276 L 352,277 L 350,275 L 351,274 L 351,271 L 353,269 L 354,270 L 352,268 L 352,267 L 350,265 L 352,263 L 351,262 L 351,261 L 352,260 L 351,261 L 350,260 L 350,259 L 352,257 L 353,258 L 352,257 L 353,256 L 353,255 L 353,256 L 352,257 L 350,255 L 351,254 L 350,255 L 349,254 L 349,253 L 350,252 L 350,251 L 351,250 L 352,251 L 352,252 L 352,251 L 350,249 L 352,247 L 351,246 L 352,245 L 352,244 L 352,245 L 351,246 L 348,243 L 348,242 L 349,241 L 350,242 L 351,241 L 350,240 L 351,239 L 351,236 L 348,233 L 348,232 L 349,231 L 350,232 L 347,229 L 347,228 L 348,227 L 349,228 L 349,227 L 348,226 L 348,225 L 347,224 L 348,223 L 346,223 L 344,221 L 345,220 L 345,219 L 343,217 L 344,216 L 343,215 L 344,214 L 345,214 L 344,213 L 343,213 L 342,214 L 340,212 L 342,210 L 341,209 L 342,208 L 341,209 L 339,207 L 340,206 L 339,205 L 338,206 L 337,205 L 337,203 L 338,202 L 339,203 L 339,202 L 338,201 L 338,200 L 337,199 L 337,198 L 336,197 L 336,198 L 335,199 L 334,198 L 334,195 L 334,198 L 333,199 L 331,197 L 332,196 L 332,195 L 331,194 L 332,193 L 330,191 L 329,192 L 328,191 L 328,188 L 328,191 L 327,192 L 326,191 L 326,189 L 326,191 L 327,192 L 327,194 L 326,195 L 325,194 L 325,193 L 324,192 L 324,190 L 323,189 L 324,188 L 323,187 L 324,186 L 324,185 L 324,186 L 323,187 L 322,186 L 322,184 L 321,183 L 320,183 L 319,184 L 317,182 L 317,181 L 316,180 L 315,181 L 314,180 L 313,181 L 312,180 L 312,179 L 313,178 L 312,177 L 311,177 L 310,178 L 309,178 L 308,177 L 307,177 L 306,178 L 305,177 L 305,176 L 304,175 L 305,174 L 307,174 L 306,174 L 305,173 L 303,173 L 303,174 L 302,175 L 301,174 L 300,175 L 299,174 L 300,175 L 299,176 L 299,177 L 298,178 L 297,177 L 296,178 L 297,179 L 295,181 L 294,180 L 295,181 L 295,183 L 296,184 L 296,185 L 295,186 L 293,184 L 293,182 L 292,181 L 291,182 L 292,181 L 293,182 L 293,184 L 292,185 L 291,184 L 290,185 L 289,184 L 288,184 L 285,187 L 284,187 L 287,187 L 288,188 L 287,189 L 286,189 L 285,190 L 284,190 L 282,192 L 281,191 L 282,192 L 280,194 L 279,193 L 278,194 L 277,193 L 277,192 L 276,192 L 275,193 L 277,193 L 278,194 L 278,195 L 277,196 L 276,195 L 275,196 L 274,195 L 275,196 L 273,198 L 272,197 L 272,196 L 272,197 L 271,198 L 270,197 L 271,198 L 271,199 L 270,200 L 269,199 L 268,199 L 267,198 L 268,197 L 266,199 L 266,202 L 265,203 L 263,201 L 264,200 L 263,199 L 263,198 L 263,199 L 262,200 L 261,199 L 262,200 L 261,201 L 261,205 L 262,206 L 262,207 L 261,208 L 259,206 L 259,204 L 258,203 L 259,202 L 259,200 L 258,199 L 259,200 L 259,202 L 258,203 L 257,202 L 257,201 L 256,200 L 257,201 L 257,202 L 256,203 L 253,200 L 254,201 L 252,203 L 251,202 L 251,200 L 250,201 L 244,201 L 243,202 L 242,201 L 243,202 L 243,203 L 242,204 L 240,202 L 242,204 L 240,206 L 239,205 L 239,204 L 238,203 L 238,202 L 237,201 L 237,200 L 236,200 L 235,201 L 234,200 L 233,200 L 232,199 L 231,200 L 230,199 L 229,199 L 228,198 L 228,199 L 227,200 L 226,199 L 225,200 L 222,197 L 221,197 L 220,198 L 219,197 L 219,196 L 218,195 L 218,194 L 217,194 L 216,195 L 216,196 L 215,197 L 214,196 L 214,195 L 214,196 L 215,197 L 215,200 L 213,202 L 212,201 L 212,200 L 213,199 L 213,198 L 212,197 L 212,194 L 213,193 L 215,193 L 214,192 L 212,194 L 210,192 L 210,191 L 210,192 L 209,193 L 207,191 L 208,190 L 207,191 L 206,190 L 206,189 L 207,188 L 207,187 L 205,185 L 203,187 L 202,186 L 202,185 L 203,184 L 203,183 L 202,183 L 200,185 L 199,184 L 199,183 L 201,181 L 200,181 L 200,182 L 199,183 L 198,182 L 198,181 L 197,180 L 198,179 L 197,180 L 196,179 L 195,180 L 194,179 L 194,178 L 196,176 L 194,178 L 193,177 L 193,176 L 194,175 L 193,174 L 193,172 Z" fill="#d84818" stroke="none" /><path d="M 173,339 L 172,340 L 172,341 L 173,341 L 174,342 L 172,344 L 171,343 L 172,344 L 172,345 L 171,346 L 170,345 L 171,346 L 169,348 L 170,349 L 169,350 L 168,350 L 168,351 L 169,352 L 166,355 L 167,354 L 168,355 L 168,358 L 166,360 L 166,361 L 165,362 L 165,363 L 164,364 L 164,365 L 166,365 L 167,366 L 167,367 L 166,368 L 165,367 L 164,368 L 164,371 L 163,372 L 163,373 L 163,372 L 164,371 L 165,372 L 165,374 L 163,376 L 163,377 L 162,378 L 162,379 L 163,380 L 162,381 L 162,382 L 163,383 L 163,387 L 162,388 L 163,389 L 163,391 L 164,391 L 165,392 L 163,394 L 163,395 L 164,396 L 164,397 L 165,396 L 166,397 L 166,398 L 164,400 L 166,402 L 166,404 L 167,405 L 166,406 L 168,408 L 167,409 L 168,408 L 170,410 L 170,411 L 169,412 L 168,411 L 170,413 L 170,414 L 172,416 L 171,417 L 172,416 L 173,417 L 173,418 L 172,419 L 173,418 L 175,420 L 174,421 L 174,422 L 175,422 L 176,423 L 177,422 L 178,423 L 178,424 L 177,425 L 177,426 L 178,426 L 179,427 L 180,427 L 181,428 L 180,429 L 181,430 L 181,431 L 182,431 L 183,432 L 183,433 L 185,435 L 185,433 L 186,432 L 187,433 L 187,435 L 188,436 L 187,437 L 188,438 L 189,437 L 190,438 L 190,439 L 191,440 L 192,440 L 194,442 L 195,441 L 196,442 L 196,443 L 197,443 L 199,445 L 200,444 L 201,445 L 201,446 L 202,445 L 203,446 L 203,447 L 205,449 L 205,448 L 206,447 L 207,448 L 207,449 L 209,451 L 210,450 L 212,452 L 213,451 L 215,453 L 216,452 L 218,454 L 219,453 L 220,454 L 220,455 L 221,455 L 222,454 L 224,456 L 225,456 L 225,455 L 226,454 L 227,455 L 227,457 L 228,456 L 229,457 L 230,456 L 231,457 L 231,458 L 232,458 L 233,457 L 234,458 L 235,457 L 237,459 L 237,456 L 238,455 L 239,456 L 239,459 L 240,458 L 241,459 L 242,458 L 243,459 L 244,459 L 244,458 L 245,457 L 246,458 L 246,459 L 247,459 L 248,458 L 249,459 L 249,457 L 250,456 L 251,457 L 251,459 L 252,459 L 253,458 L 254,459 L 254,458 L 255,457 L 256,458 L 256,459 L 257,458 L 258,459 L 259,459 L 259,457 L 260,456 L 261,457 L 261,459 L 262,458 L 263,459 L 264,459 L 264,458 L 265,457 L 266,458 L 266,459 L 267,459 L 268,458 L 268,456 L 269,455 L 270,456 L 270,458 L 271,458 L 272,457 L 273,458 L 273,457 L 274,456 L 275,457 L 276,456 L 277,457 L 278,456 L 278,455 L 279,454 L 280,455 L 280,456 L 281,455 L 281,454 L 282,453 L 283,454 L 283,455 L 284,455 L 286,453 L 287,454 L 289,452 L 290,452 L 291,451 L 292,452 L 293,451 L 294,451 L 295,450 L 296,450 L 296,449 L 298,447 L 299,448 L 300,447 L 301,447 L 303,445 L 304,445 L 304,443 L 305,442 L 306,443 L 308,441 L 310,441 L 310,440 L 313,437 L 313,436 L 314,435 L 315,436 L 316,435 L 317,435 L 318,434 L 317,433 L 318,432 L 319,432 L 319,431 L 320,430 L 321,430 L 322,429 L 322,428 L 323,427 L 324,428 L 326,426 L 325,425 L 325,424 L 326,423 L 327,424 L 328,423 L 328,421 L 329,420 L 330,421 L 331,420 L 331,418 L 333,416 L 333,410 L 334,409 L 335,410 L 335,412 L 335,407 L 336,406 L 337,407 L 337,408 L 338,407 L 337,407 L 336,406 L 337,405 L 337,404 L 338,403 L 339,404 L 339,402 L 340,401 L 339,400 L 340,399 L 339,398 L 341,396 L 341,394 L 343,392 L 343,389 L 344,388 L 343,387 L 344,386 L 343,385 L 344,384 L 343,383 L 344,382 L 343,381 L 343,380 L 344,379 L 345,380 L 345,375 L 343,373 L 344,372 L 345,372 L 345,368 L 344,367 L 344,366 L 345,365 L 345,364 L 345,365 L 344,366 L 343,365 L 343,362 L 342,361 L 343,360 L 342,359 L 343,358 L 343,357 L 341,355 L 341,354 L 342,353 L 341,352 L 342,351 L 340,351 L 339,352 L 338,352 L 337,353 L 335,353 L 335,354 L 334,355 L 333,354 L 333,353 L 333,354 L 332,355 L 331,354 L 331,353 L 330,352 L 329,353 L 329,354 L 328,355 L 327,354 L 327,353 L 327,354 L 326,355 L 323,355 L 323,356 L 322,357 L 321,356 L 314,356 L 313,357 L 311,357 L 311,358 L 309,360 L 308,359 L 307,360 L 306,359 L 302,359 L 301,360 L 299,360 L 299,361 L 298,362 L 297,361 L 295,363 L 294,362 L 293,362 L 292,363 L 291,363 L 290,362 L 291,363 L 290,364 L 288,364 L 287,365 L 286,364 L 286,363 L 285,363 L 282,366 L 281,365 L 281,364 L 280,365 L 280,367 L 279,368 L 278,367 L 278,366 L 278,367 L 277,368 L 276,367 L 276,366 L 275,366 L 274,367 L 273,366 L 270,369 L 269,369 L 268,368 L 267,368 L 267,370 L 266,371 L 265,370 L 265,369 L 263,371 L 262,370 L 261,370 L 260,369 L 258,369 L 257,368 L 257,367 L 256,366 L 256,363 L 249,363 L 249,364 L 248,365 L 247,365 L 246,364 L 245,365 L 244,364 L 244,363 L 244,365 L 243,366 L 242,365 L 242,363 L 242,364 L 241,365 L 240,364 L 240,362 L 236,362 L 235,363 L 234,362 L 234,361 L 232,361 L 231,360 L 230,360 L 230,362 L 229,363 L 228,362 L 228,361 L 227,360 L 228,359 L 226,359 L 225,360 L 222,357 L 221,357 L 220,356 L 219,357 L 218,357 L 217,356 L 217,355 L 216,354 L 215,354 L 214,355 L 213,354 L 212,355 L 210,353 L 211,352 L 210,353 L 209,352 L 209,351 L 209,352 L 208,353 L 207,352 L 207,351 L 205,351 L 204,350 L 202,350 L 201,349 L 199,349 L 198,348 L 197,348 L 196,349 L 194,347 L 192,347 L 191,346 L 190,346 L 189,345 L 188,345 L 188,346 L 187,347 L 186,346 L 186,345 L 185,345 L 184,344 L 183,344 L 182,343 L 182,342 L 180,342 L 179,343 L 178,343 L 174,339 Z" fill="#f04818" stroke="none" /><path d="M 161,318 L 161,321 L 162,322 L 162,323 L 162,322 L 163,321 L 164,322 L 164,324 L 165,324 L 167,326 L 168,326 L 168,325 L 169,324 L 170,325 L 170,327 L 171,326 L 175,330 L 177,330 L 179,332 L 180,332 L 181,333 L 182,333 L 183,334 L 182,333 L 181,333 L 179,331 L 178,331 L 177,330 L 175,330 L 174,329 L 175,328 L 175,327 L 175,328 L 174,329 L 173,328 L 173,326 L 172,325 L 173,324 L 174,324 L 174,323 L 173,323 L 171,321 L 169,321 L 168,320 L 168,321 L 167,322 L 165,320 L 164,320 L 163,319 L 162,320 L 161,319 Z" fill="#f04818" stroke="none" /><path d="M 193,171 L 194,172 L 194,174 L 193,175 L 192,174 L 192,173 L 191,174 L 190,173 L 189,173 L 190,173 L 191,174 L 191,176 L 190,177 L 189,176 L 189,175 L 188,176 L 187,175 L 187,174 L 186,175 L 185,175 L 183,177 L 182,177 L 182,179 L 180,181 L 179,180 L 177,182 L 176,182 L 174,184 L 175,185 L 174,186 L 171,186 L 171,188 L 170,189 L 169,188 L 166,191 L 167,192 L 166,193 L 165,193 L 162,196 L 162,197 L 163,197 L 164,198 L 163,199 L 161,199 L 160,200 L 161,201 L 160,202 L 159,202 L 158,203 L 159,203 L 160,204 L 160,207 L 159,208 L 158,207 L 158,205 L 157,206 L 158,207 L 157,208 L 156,208 L 156,210 L 155,211 L 156,211 L 157,212 L 156,213 L 156,214 L 155,215 L 154,214 L 156,216 L 154,218 L 153,218 L 153,222 L 152,223 L 153,224 L 153,225 L 152,226 L 151,226 L 151,230 L 150,231 L 151,231 L 152,232 L 152,233 L 151,234 L 150,233 L 151,234 L 151,240 L 150,241 L 149,240 L 149,239 L 149,240 L 148,241 L 149,242 L 148,243 L 148,244 L 149,245 L 148,246 L 149,247 L 148,248 L 147,248 L 147,252 L 146,253 L 147,254 L 147,255 L 146,256 L 146,257 L 146,256 L 147,255 L 148,256 L 148,259 L 147,260 L 145,260 L 146,261 L 145,262 L 145,263 L 146,264 L 145,265 L 147,267 L 146,268 L 144,268 L 144,271 L 146,271 L 147,272 L 147,274 L 146,275 L 145,274 L 145,273 L 145,274 L 144,275 L 145,276 L 143,278 L 143,284 L 144,285 L 143,286 L 143,287 L 144,287 L 146,289 L 145,290 L 143,290 L 144,291 L 143,292 L 142,292 L 142,297 L 143,298 L 143,299 L 142,300 L 142,301 L 143,301 L 144,302 L 144,303 L 143,304 L 144,303 L 145,304 L 145,305 L 144,306 L 145,307 L 145,308 L 146,308 L 148,310 L 148,311 L 149,312 L 150,312 L 151,313 L 151,314 L 151,313 L 152,312 L 153,313 L 153,315 L 154,316 L 154,317 L 155,318 L 156,318 L 159,321 L 159,318 L 158,317 L 159,316 L 160,316 L 159,316 L 158,317 L 157,316 L 157,315 L 158,314 L 158,313 L 158,314 L 157,315 L 156,314 L 156,312 L 155,311 L 155,310 L 156,309 L 157,310 L 156,309 L 157,308 L 158,308 L 157,307 L 158,306 L 158,305 L 159,304 L 160,305 L 161,304 L 162,304 L 162,302 L 163,301 L 164,302 L 164,303 L 164,302 L 165,301 L 166,302 L 166,301 L 167,300 L 168,301 L 168,302 L 169,302 L 170,301 L 171,302 L 172,301 L 174,303 L 175,302 L 176,303 L 177,303 L 177,302 L 178,301 L 179,302 L 179,303 L 180,304 L 180,303 L 181,302 L 182,303 L 182,304 L 183,304 L 184,305 L 185,304 L 187,306 L 189,306 L 189,303 L 190,302 L 191,303 L 191,307 L 191,305 L 192,304 L 193,305 L 193,307 L 194,306 L 195,307 L 196,306 L 197,306 L 196,305 L 195,305 L 194,304 L 195,303 L 194,303 L 192,301 L 192,299 L 193,298 L 192,297 L 192,295 L 193,294 L 192,293 L 192,292 L 193,291 L 194,292 L 195,291 L 192,291 L 191,290 L 190,291 L 189,290 L 189,289 L 190,288 L 189,287 L 189,286 L 188,286 L 185,283 L 185,285 L 184,286 L 183,285 L 183,283 L 182,283 L 180,281 L 181,280 L 178,277 L 176,277 L 175,276 L 175,275 L 177,273 L 176,272 L 177,271 L 177,268 L 176,267 L 177,266 L 178,266 L 178,265 L 177,264 L 178,263 L 178,262 L 177,261 L 178,260 L 178,259 L 180,257 L 180,255 L 178,253 L 180,251 L 181,252 L 181,251 L 180,250 L 180,249 L 181,248 L 180,247 L 181,246 L 182,246 L 182,245 L 180,243 L 181,242 L 181,240 L 182,239 L 183,240 L 182,239 L 183,238 L 183,235 L 184,234 L 184,233 L 183,232 L 184,231 L 184,228 L 183,229 L 182,228 L 182,227 L 183,226 L 184,226 L 182,224 L 184,222 L 183,221 L 184,220 L 184,219 L 182,219 L 181,218 L 183,216 L 182,217 L 181,216 L 181,212 L 182,211 L 183,212 L 183,214 L 183,211 L 182,210 L 182,209 L 183,208 L 183,206 L 182,205 L 182,203 L 181,202 L 183,200 L 183,199 L 185,197 L 186,197 L 186,196 L 187,195 L 188,196 L 188,198 L 190,198 L 191,199 L 190,200 L 191,201 L 191,202 L 192,203 L 191,204 L 191,206 L 192,207 L 192,208 L 191,209 L 192,208 L 193,209 L 193,210 L 191,212 L 191,213 L 192,212 L 193,213 L 193,214 L 192,215 L 193,216 L 192,217 L 193,218 L 193,219 L 192,220 L 192,221 L 193,222 L 193,223 L 192,224 L 192,225 L 193,226 L 193,227 L 194,228 L 194,229 L 195,230 L 193,232 L 194,233 L 193,234 L 193,236 L 192,237 L 192,239 L 193,240 L 191,242 L 191,244 L 190,245 L 191,246 L 190,247 L 191,248 L 190,249 L 191,248 L 192,249 L 192,250 L 190,252 L 190,253 L 189,254 L 189,256 L 188,257 L 189,256 L 190,257 L 190,258 L 189,259 L 189,260 L 187,262 L 187,263 L 188,264 L 188,265 L 186,267 L 186,270 L 187,271 L 186,272 L 187,273 L 187,274 L 188,275 L 189,275 L 191,277 L 192,276 L 193,277 L 193,279 L 194,278 L 196,280 L 196,281 L 198,283 L 198,281 L 199,280 L 200,281 L 200,283 L 201,284 L 201,285 L 202,286 L 203,285 L 208,290 L 209,289 L 211,291 L 211,292 L 212,291 L 213,292 L 213,294 L 216,297 L 217,296 L 218,297 L 219,296 L 220,297 L 221,296 L 223,298 L 224,297 L 225,298 L 226,298 L 227,297 L 228,298 L 229,297 L 230,298 L 230,296 L 231,295 L 232,296 L 232,298 L 232,297 L 233,296 L 234,297 L 234,298 L 235,298 L 236,297 L 236,296 L 237,295 L 238,296 L 239,295 L 240,296 L 241,295 L 242,295 L 243,294 L 244,294 L 244,293 L 245,292 L 246,293 L 248,291 L 249,292 L 251,290 L 252,291 L 253,290 L 254,290 L 255,289 L 256,290 L 256,289 L 257,288 L 258,289 L 258,286 L 259,285 L 260,286 L 260,289 L 260,288 L 261,287 L 262,288 L 262,289 L 262,288 L 263,287 L 264,288 L 264,286 L 265,285 L 266,286 L 266,288 L 267,287 L 268,288 L 269,287 L 270,288 L 271,287 L 272,288 L 273,287 L 274,287 L 274,286 L 275,285 L 276,286 L 276,287 L 277,286 L 278,287 L 279,286 L 280,287 L 280,286 L 281,285 L 282,286 L 283,285 L 284,286 L 284,282 L 285,281 L 286,282 L 286,286 L 287,286 L 288,285 L 289,286 L 290,286 L 290,285 L 291,284 L 292,285 L 292,286 L 293,286 L 294,287 L 295,286 L 296,287 L 296,285 L 297,284 L 298,285 L 298,288 L 298,287 L 299,286 L 300,287 L 300,289 L 301,288 L 303,290 L 304,289 L 305,290 L 305,291 L 307,293 L 308,292 L 310,294 L 310,295 L 309,296 L 310,297 L 310,299 L 311,298 L 312,298 L 312,297 L 313,296 L 314,297 L 315,297 L 315,296 L 316,295 L 317,296 L 318,295 L 319,295 L 319,294 L 320,293 L 320,292 L 319,293 L 318,292 L 318,289 L 319,288 L 319,287 L 318,286 L 318,278 L 315,275 L 316,274 L 317,274 L 317,270 L 316,271 L 315,270 L 315,269 L 316,268 L 317,268 L 315,266 L 316,265 L 314,263 L 316,261 L 314,261 L 313,260 L 315,258 L 314,257 L 314,256 L 315,255 L 315,253 L 314,252 L 314,250 L 313,249 L 314,248 L 314,247 L 312,245 L 313,244 L 312,245 L 311,244 L 311,243 L 312,242 L 311,241 L 312,240 L 313,240 L 313,238 L 312,238 L 310,236 L 311,235 L 312,235 L 312,232 L 313,231 L 313,230 L 312,229 L 313,228 L 312,227 L 313,226 L 314,226 L 314,223 L 315,222 L 314,221 L 315,220 L 314,221 L 313,220 L 313,219 L 315,217 L 315,216 L 316,215 L 316,214 L 315,213 L 316,212 L 316,211 L 317,210 L 317,209 L 316,208 L 317,207 L 316,206 L 317,205 L 317,204 L 318,203 L 319,203 L 319,201 L 320,200 L 321,201 L 321,202 L 322,202 L 323,201 L 327,205 L 327,206 L 326,207 L 327,208 L 326,209 L 327,210 L 325,212 L 326,213 L 325,214 L 324,214 L 324,215 L 325,214 L 326,215 L 326,217 L 325,218 L 324,217 L 324,219 L 323,220 L 323,221 L 324,221 L 325,222 L 324,223 L 324,225 L 323,226 L 322,226 L 322,227 L 323,228 L 322,229 L 323,230 L 321,232 L 321,237 L 322,238 L 322,239 L 321,240 L 322,240 L 323,241 L 323,242 L 322,243 L 323,244 L 322,245 L 322,248 L 323,249 L 323,253 L 324,254 L 324,255 L 323,256 L 324,255 L 325,256 L 325,259 L 324,260 L 324,262 L 325,263 L 325,266 L 326,267 L 325,268 L 326,269 L 325,270 L 325,271 L 327,273 L 327,275 L 326,276 L 326,277 L 327,278 L 326,279 L 327,279 L 329,281 L 328,282 L 327,282 L 327,283 L 328,282 L 329,283 L 329,285 L 328,286 L 327,285 L 328,286 L 327,287 L 328,288 L 328,289 L 328,288 L 329,287 L 330,288 L 330,290 L 328,292 L 328,293 L 329,294 L 329,297 L 330,297 L 331,298 L 331,300 L 330,301 L 329,300 L 329,299 L 329,300 L 327,302 L 326,301 L 325,301 L 325,304 L 324,305 L 323,304 L 323,303 L 323,304 L 322,305 L 321,304 L 321,303 L 321,304 L 320,305 L 320,306 L 319,307 L 318,306 L 316,308 L 315,307 L 315,306 L 314,307 L 313,307 L 314,308 L 313,309 L 313,310 L 312,311 L 311,310 L 311,309 L 310,308 L 309,309 L 308,309 L 307,310 L 306,310 L 305,311 L 304,311 L 303,312 L 303,313 L 301,315 L 300,314 L 299,314 L 299,315 L 298,316 L 297,316 L 296,315 L 296,316 L 294,318 L 293,318 L 292,319 L 291,319 L 290,320 L 289,319 L 288,319 L 288,320 L 286,322 L 285,321 L 285,320 L 284,321 L 283,321 L 282,322 L 281,322 L 280,323 L 279,323 L 278,324 L 277,324 L 276,325 L 275,325 L 274,326 L 273,326 L 274,327 L 274,329 L 273,330 L 272,329 L 272,328 L 269,328 L 270,329 L 269,330 L 268,330 L 267,329 L 266,330 L 266,332 L 267,333 L 267,335 L 268,336 L 268,337 L 267,338 L 267,339 L 267,338 L 268,337 L 269,338 L 269,340 L 268,341 L 269,342 L 267,344 L 269,346 L 268,347 L 268,349 L 267,350 L 267,351 L 268,352 L 267,353 L 268,353 L 269,354 L 268,355 L 268,357 L 267,358 L 266,357 L 266,356 L 266,359 L 267,358 L 268,359 L 269,359 L 269,358 L 270,357 L 271,358 L 272,357 L 273,358 L 273,356 L 274,355 L 275,356 L 275,357 L 276,357 L 278,355 L 279,356 L 280,355 L 281,356 L 281,355 L 282,354 L 283,355 L 284,354 L 285,355 L 286,355 L 288,353 L 289,354 L 289,352 L 290,351 L 291,352 L 291,353 L 292,352 L 293,353 L 294,352 L 294,351 L 295,350 L 296,351 L 296,352 L 297,352 L 299,350 L 300,351 L 302,351 L 304,349 L 305,350 L 307,348 L 308,349 L 310,347 L 311,348 L 311,347 L 312,346 L 313,347 L 313,348 L 314,348 L 316,346 L 317,347 L 318,346 L 319,346 L 320,345 L 321,346 L 321,344 L 322,343 L 323,344 L 323,345 L 324,344 L 325,345 L 326,344 L 327,344 L 327,343 L 328,342 L 329,343 L 329,344 L 330,343 L 330,342 L 331,341 L 332,342 L 332,343 L 333,342 L 334,343 L 336,341 L 337,342 L 338,341 L 339,342 L 341,340 L 342,341 L 343,341 L 343,340 L 344,339 L 345,340 L 346,339 L 347,340 L 348,339 L 348,337 L 349,336 L 350,337 L 350,339 L 350,338 L 351,337 L 352,338 L 353,337 L 354,337 L 355,336 L 354,335 L 356,333 L 356,330 L 356,331 L 355,332 L 354,331 L 354,329 L 355,328 L 356,328 L 356,326 L 355,327 L 354,326 L 354,325 L 356,323 L 356,318 L 355,317 L 356,316 L 354,314 L 355,313 L 353,311 L 354,310 L 353,309 L 354,308 L 355,308 L 356,307 L 356,306 L 355,305 L 355,301 L 353,299 L 354,298 L 353,297 L 355,295 L 355,290 L 354,289 L 354,286 L 355,285 L 355,284 L 354,283 L 355,282 L 355,281 L 354,281 L 353,280 L 354,279 L 354,274 L 353,273 L 354,272 L 354,271 L 353,270 L 354,269 L 354,268 L 353,267 L 353,259 L 352,258 L 353,257 L 352,256 L 352,253 L 351,252 L 351,251 L 352,250 L 352,248 L 351,247 L 352,246 L 351,245 L 351,242 L 350,241 L 351,240 L 350,241 L 349,240 L 349,239 L 350,238 L 349,238 L 348,237 L 349,236 L 350,236 L 349,235 L 350,234 L 350,233 L 349,232 L 350,231 L 349,230 L 349,229 L 347,227 L 347,226 L 346,225 L 346,224 L 345,223 L 346,222 L 347,222 L 347,220 L 346,219 L 346,217 L 345,216 L 345,215 L 344,215 L 342,213 L 343,212 L 344,212 L 343,211 L 343,210 L 341,208 L 341,206 L 340,205 L 340,204 L 339,204 L 337,202 L 337,200 L 335,198 L 335,195 L 329,189 L 329,191 L 328,192 L 327,191 L 327,188 L 325,186 L 324,187 L 323,186 L 323,185 L 323,186 L 322,187 L 321,186 L 321,185 L 319,183 L 320,182 L 319,182 L 317,180 L 316,181 L 315,180 L 315,179 L 314,178 L 313,179 L 313,180 L 312,181 L 311,180 L 311,178 L 310,177 L 311,176 L 310,176 L 309,175 L 305,175 L 304,174 L 303,175 L 302,174 L 302,173 L 303,172 L 300,172 L 298,174 L 298,175 L 294,179 L 295,180 L 294,181 L 293,181 L 291,183 L 290,183 L 290,184 L 289,185 L 289,186 L 287,188 L 283,188 L 281,190 L 280,190 L 279,191 L 278,191 L 278,193 L 277,194 L 272,194 L 271,195 L 270,195 L 269,196 L 268,196 L 267,197 L 265,197 L 264,198 L 264,199 L 263,200 L 262,199 L 262,198 L 262,199 L 261,200 L 260,199 L 259,199 L 258,200 L 257,200 L 256,201 L 255,200 L 254,200 L 253,201 L 252,200 L 252,202 L 251,203 L 250,202 L 247,202 L 246,203 L 245,202 L 244,202 L 243,201 L 242,202 L 241,201 L 239,201 L 238,200 L 238,201 L 237,202 L 235,200 L 233,202 L 232,201 L 232,200 L 231,199 L 230,200 L 230,202 L 229,203 L 228,202 L 228,200 L 227,199 L 227,198 L 226,198 L 225,197 L 223,197 L 222,196 L 221,196 L 220,195 L 219,195 L 218,196 L 216,194 L 216,193 L 215,194 L 213,194 L 212,193 L 213,192 L 211,190 L 210,190 L 208,188 L 207,189 L 206,188 L 206,187 L 204,185 L 203,185 L 201,183 L 201,182 L 200,183 L 199,182 L 199,181 L 200,180 L 197,177 L 197,176 L 194,173 L 194,171 Z" fill="#f04818" stroke="none" /><path d="M 201,297 L 202,298 L 202,299 L 206,303 L 206,304 L 212,310 L 213,310 L 215,312 L 215,313 L 216,314 L 216,316 L 213,319 L 209,319 L 208,318 L 201,318 L 200,317 L 197,317 L 196,316 L 193,316 L 192,315 L 189,315 L 188,314 L 185,314 L 184,313 L 180,313 L 179,312 L 176,312 L 175,311 L 172,311 L 171,310 L 169,310 L 168,311 L 167,311 L 169,311 L 170,312 L 171,312 L 172,313 L 174,313 L 175,314 L 176,314 L 177,315 L 179,315 L 180,316 L 181,316 L 182,317 L 182,319 L 183,320 L 183,324 L 185,326 L 186,326 L 187,327 L 188,327 L 189,328 L 190,328 L 192,330 L 193,330 L 194,331 L 195,331 L 196,332 L 196,333 L 201,338 L 202,338 L 203,339 L 204,339 L 205,340 L 206,340 L 207,341 L 208,341 L 209,342 L 210,342 L 211,343 L 212,343 L 213,344 L 214,344 L 215,345 L 216,345 L 217,346 L 218,346 L 219,347 L 220,347 L 221,348 L 223,348 L 224,349 L 225,349 L 226,350 L 228,350 L 229,351 L 230,351 L 231,352 L 233,352 L 234,353 L 238,353 L 239,354 L 246,354 L 247,355 L 257,355 L 258,354 L 258,353 L 259,352 L 259,341 L 258,340 L 258,333 L 248,333 L 247,332 L 246,332 L 245,331 L 244,331 L 240,327 L 240,326 L 239,325 L 239,324 L 238,323 L 238,322 L 237,321 L 237,320 L 236,319 L 236,318 L 234,316 L 234,315 L 233,314 L 232,314 L 231,313 L 229,313 L 228,312 L 223,312 L 222,311 L 219,311 L 218,310 L 217,310 L 209,302 L 209,301 L 206,298 L 205,298 L 204,297 Z" fill="#f0d8d8" stroke="none" /><path d="M 287,294 L 286,295 L 276,295 L 275,296 L 267,296 L 266,297 L 259,297 L 258,298 L 255,298 L 254,299 L 252,299 L 251,300 L 250,300 L 249,301 L 248,301 L 247,302 L 246,302 L 245,303 L 243,303 L 242,304 L 241,304 L 240,305 L 239,305 L 238,306 L 234,306 L 235,306 L 236,307 L 237,307 L 242,312 L 242,313 L 243,314 L 243,315 L 244,316 L 244,317 L 245,318 L 245,319 L 246,320 L 246,321 L 250,325 L 258,325 L 260,323 L 261,323 L 262,322 L 263,322 L 264,321 L 265,321 L 266,320 L 267,320 L 268,319 L 269,319 L 270,318 L 271,318 L 272,317 L 273,317 L 274,316 L 276,316 L 277,315 L 278,315 L 279,314 L 280,314 L 281,313 L 282,313 L 283,312 L 284,312 L 285,311 L 286,311 L 287,310 L 288,310 L 289,309 L 290,309 L 291,308 L 292,308 L 293,307 L 294,307 L 295,306 L 296,306 L 294,306 L 293,305 L 291,305 L 290,304 L 288,304 L 287,305 L 277,305 L 276,306 L 274,306 L 273,305 L 272,305 L 271,304 L 271,300 L 273,298 L 274,298 L 275,297 L 283,297 L 284,296 L 292,296 L 293,297 L 295,297 L 296,298 L 300,298 L 299,298 L 298,297 L 297,297 L 296,296 L 295,296 L 294,295 L 291,295 L 290,294 Z" fill="#f0d8d8" stroke="none" /><path d="M 253,88 L 248,93 L 248,94 L 242,100 L 241,100 L 236,105 L 235,105 L 232,108 L 231,108 L 230,109 L 229,109 L 227,111 L 226,111 L 225,112 L 224,112 L 223,113 L 222,113 L 221,114 L 219,114 L 218,115 L 217,115 L 216,116 L 214,116 L 213,117 L 210,117 L 209,118 L 205,118 L 204,119 L 202,119 L 202,120 L 201,121 L 201,123 L 200,124 L 200,127 L 199,128 L 199,131 L 198,132 L 198,138 L 197,139 L 197,153 L 198,154 L 198,160 L 199,161 L 199,163 L 200,164 L 200,166 L 201,167 L 201,168 L 203,170 L 203,171 L 205,173 L 205,174 L 212,181 L 213,181 L 216,184 L 217,184 L 219,186 L 220,186 L 221,187 L 222,187 L 223,188 L 225,188 L 226,189 L 227,189 L 228,190 L 230,190 L 231,191 L 234,191 L 235,192 L 242,192 L 243,193 L 245,193 L 246,192 L 254,192 L 255,191 L 258,191 L 259,190 L 262,190 L 263,189 L 264,189 L 265,188 L 267,188 L 268,187 L 269,187 L 270,186 L 271,186 L 272,185 L 273,185 L 275,183 L 276,183 L 277,182 L 278,182 L 281,179 L 282,179 L 293,168 L 293,167 L 295,165 L 295,164 L 296,163 L 296,162 L 297,161 L 297,159 L 298,158 L 298,155 L 299,154 L 299,148 L 300,147 L 300,125 L 298,125 L 297,124 L 295,124 L 294,123 L 293,123 L 292,122 L 291,122 L 290,121 L 288,121 L 287,120 L 286,120 L 284,118 L 283,118 L 282,117 L 281,117 L 280,116 L 279,116 L 277,114 L 276,114 L 273,111 L 272,111 L 260,99 L 260,98 L 257,95 L 257,94 L 255,92 L 255,91 L 254,90 L 254,89 Z" fill="#f0d8d8" stroke="none" /></svg>