<?xml version="1.0" encoding="utf-8" ?>
<svg baseProfile="full" height="500" version="1.1" viewBox="0 0 500 500" width="500" xmlns="http://www.w3.org/2000/svg" xmlns:ev="http://www.w3.org/2001/xml-events" xmlns:xlink="http://www.w3.org/1999/xlink"><defs /><path d="M 330,317 L 329,318 L 329,330 L 330,331 L 329,332 L 329,346 L 330,347 L 330,366 L 329,367 L 329,382 L 330,383 L 330,392 L 331,393 L 331,422 L 332,423 L 332,436 L 331,437 L 331,451 L 330,452 L 330,460 L 329,461 L 329,462 L 330,463 L 331,463 L 332,464 L 333,464 L 334,463 L 335,463 L 335,449 L 336,448 L 336,396 L 335,395 L 335,385 L 334,384 L 334,320 L 333,319 L 333,318 L 332,317 Z" fill="#000000" stroke="none" /><path d="M 137,204 L 136,205 L 130,205 L 129,206 L 123,206 L 122,207 L 116,207 L 114,209 L 114,210 L 113,211 L 113,212 L 112,213 L 112,214 L 111,215 L 111,216 L 110,217 L 110,219 L 111,220 L 112,219 L 116,219 L 117,218 L 121,218 L 122,217 L 127,217 L 128,218 L 127,219 L 127,220 L 126,221 L 126,223 L 127,224 L 128,223 L 131,223 L 132,222 L 133,222 L 134,221 L 137,221 L 138,220 L 139,220 L 140,219 L 143,219 L 144,218 L 145,218 L 146,217 L 149,217 L 150,216 L 151,216 L 152,215 L 154,215 L 155,214 L 158,214 L 159,213 L 160,213 L 161,212 L 163,212 L 164,211 L 164,210 L 163,209 L 146,209 L 145,210 L 140,210 L 139,209 L 139,208 L 140,207 L 140,204 Z" fill="#000000" stroke="none" /><path d="M 119,160 L 118,161 L 117,161 L 116,162 L 115,162 L 114,163 L 113,163 L 112,164 L 111,164 L 110,165 L 109,165 L 108,166 L 108,167 L 109,168 L 109,169 L 110,168 L 111,169 L 112,169 L 113,170 L 115,170 L 116,171 L 117,171 L 118,172 L 119,172 L 120,173 L 121,173 L 122,174 L 123,174 L 124,175 L 122,177 L 120,177 L 119,178 L 119,180 L 120,180 L 121,181 L 123,181 L 124,182 L 126,182 L 127,183 L 129,183 L 130,184 L 132,184 L 133,185 L 135,185 L 136,186 L 139,186 L 140,187 L 142,187 L 143,188 L 145,188 L 146,189 L 148,189 L 149,190 L 151,190 L 152,191 L 154,191 L 155,192 L 156,192 L 157,191 L 157,189 L 156,189 L 154,187 L 153,187 L 151,185 L 150,185 L 147,182 L 146,182 L 144,180 L 143,180 L 141,178 L 140,178 L 138,176 L 138,175 L 139,174 L 140,174 L 141,173 L 141,172 L 139,170 L 138,170 L 137,169 L 136,169 L 135,168 L 134,168 L 133,167 L 132,167 L 131,166 L 130,166 L 129,165 L 128,165 L 127,164 L 126,164 L 125,163 L 124,163 L 122,161 L 121,161 L 120,160 Z" fill="#000000" stroke="none" /><path d="M 223,35 L 222,36 L 221,36 L 220,37 L 220,39 L 219,40 L 219,42 L 218,43 L 215,43 L 214,42 L 213,42 L 212,41 L 211,41 L 210,40 L 208,40 L 206,42 L 206,48 L 205,49 L 203,49 L 202,50 L 201,50 L 200,51 L 198,51 L 197,52 L 196,52 L 195,53 L 194,53 L 193,54 L 192,54 L 191,55 L 190,55 L 188,57 L 187,57 L 186,58 L 185,58 L 183,60 L 182,60 L 178,64 L 177,64 L 170,71 L 170,72 L 166,76 L 166,77 L 164,79 L 164,80 L 163,81 L 163,82 L 162,83 L 162,84 L 161,85 L 161,86 L 160,87 L 160,88 L 159,89 L 159,91 L 158,92 L 158,94 L 157,95 L 157,97 L 156,98 L 156,102 L 155,103 L 155,108 L 154,109 L 154,133 L 155,134 L 155,144 L 156,145 L 156,152 L 157,153 L 157,156 L 158,157 L 158,158 L 156,160 L 156,161 L 154,163 L 154,165 L 153,166 L 153,169 L 152,170 L 152,174 L 153,175 L 153,178 L 154,179 L 154,180 L 155,181 L 155,182 L 157,184 L 157,185 L 158,185 L 160,187 L 161,187 L 162,188 L 163,188 L 164,189 L 169,189 L 170,190 L 170,191 L 171,192 L 171,194 L 172,195 L 172,197 L 173,198 L 173,199 L 174,200 L 174,202 L 175,203 L 175,204 L 176,205 L 176,207 L 177,208 L 177,209 L 178,210 L 178,212 L 179,213 L 179,214 L 180,215 L 180,216 L 181,217 L 181,219 L 182,220 L 181,221 L 180,221 L 179,222 L 174,222 L 173,223 L 169,223 L 168,224 L 165,224 L 164,225 L 161,225 L 160,226 L 157,226 L 156,227 L 154,227 L 153,228 L 151,228 L 150,229 L 148,229 L 147,230 L 146,230 L 144,232 L 143,232 L 141,234 L 141,235 L 138,238 L 138,239 L 136,241 L 136,242 L 135,243 L 135,244 L 134,245 L 134,246 L 133,247 L 133,248 L 132,249 L 132,251 L 131,252 L 131,254 L 130,255 L 130,257 L 129,258 L 129,261 L 128,262 L 128,266 L 127,267 L 127,272 L 126,273 L 126,294 L 127,295 L 127,300 L 128,301 L 128,304 L 129,305 L 129,308 L 130,309 L 130,312 L 131,313 L 131,315 L 132,316 L 132,318 L 133,319 L 133,321 L 134,322 L 134,324 L 135,325 L 135,327 L 136,328 L 136,329 L 137,330 L 137,332 L 138,333 L 138,335 L 139,336 L 139,338 L 140,339 L 140,340 L 141,341 L 141,342 L 142,343 L 142,345 L 143,346 L 143,347 L 144,348 L 144,350 L 145,351 L 145,352 L 146,353 L 146,356 L 147,357 L 147,365 L 148,366 L 148,374 L 149,375 L 149,402 L 148,403 L 148,420 L 147,421 L 147,437 L 146,438 L 146,454 L 145,455 L 145,462 L 146,463 L 147,463 L 148,464 L 149,464 L 150,463 L 151,463 L 151,462 L 152,461 L 151,460 L 151,449 L 152,448 L 152,433 L 153,432 L 153,416 L 154,415 L 154,396 L 155,395 L 155,379 L 154,378 L 154,374 L 155,373 L 156,374 L 156,375 L 157,376 L 157,377 L 158,378 L 158,379 L 159,380 L 159,381 L 160,382 L 160,383 L 161,384 L 161,385 L 162,386 L 162,388 L 163,389 L 163,390 L 164,391 L 164,392 L 165,393 L 165,394 L 166,395 L 166,396 L 167,397 L 167,398 L 168,399 L 168,400 L 169,401 L 169,402 L 172,405 L 172,406 L 175,409 L 175,410 L 199,434 L 200,434 L 206,440 L 207,440 L 211,444 L 212,444 L 215,447 L 216,447 L 218,449 L 219,449 L 222,452 L 223,452 L 224,453 L 225,453 L 226,454 L 227,454 L 228,455 L 229,455 L 230,456 L 232,456 L 233,457 L 246,457 L 247,456 L 252,456 L 253,455 L 255,455 L 256,454 L 257,454 L 258,453 L 259,453 L 260,452 L 261,452 L 265,448 L 265,447 L 266,446 L 266,445 L 267,444 L 267,443 L 268,442 L 268,441 L 269,440 L 269,438 L 270,437 L 270,435 L 271,434 L 271,432 L 272,431 L 272,428 L 273,427 L 273,425 L 274,424 L 274,421 L 275,420 L 275,417 L 276,416 L 276,412 L 277,411 L 277,407 L 278,406 L 278,402 L 279,401 L 279,396 L 280,395 L 280,389 L 281,388 L 281,366 L 280,365 L 280,356 L 279,355 L 279,347 L 278,346 L 278,338 L 277,337 L 277,330 L 276,329 L 276,322 L 275,321 L 275,314 L 274,313 L 274,307 L 273,306 L 273,300 L 272,299 L 272,292 L 271,291 L 271,285 L 270,284 L 270,278 L 269,277 L 269,271 L 271,269 L 273,269 L 275,267 L 276,267 L 284,259 L 284,258 L 286,256 L 286,255 L 287,254 L 287,253 L 289,251 L 289,249 L 290,248 L 290,247 L 291,246 L 291,245 L 292,244 L 292,243 L 293,242 L 293,240 L 294,239 L 294,237 L 295,236 L 295,234 L 296,233 L 296,230 L 297,229 L 299,229 L 300,230 L 302,230 L 303,231 L 304,231 L 305,232 L 307,232 L 308,233 L 310,233 L 311,234 L 312,234 L 313,235 L 315,235 L 316,236 L 318,236 L 319,237 L 320,237 L 321,238 L 323,238 L 324,239 L 326,239 L 327,240 L 328,240 L 329,241 L 331,241 L 332,242 L 333,242 L 334,243 L 336,243 L 337,244 L 338,244 L 339,245 L 340,245 L 341,246 L 343,246 L 344,247 L 345,247 L 346,248 L 347,248 L 348,249 L 349,249 L 350,250 L 351,250 L 352,251 L 353,251 L 354,252 L 355,252 L 356,253 L 357,253 L 362,258 L 362,259 L 364,261 L 364,262 L 366,264 L 366,265 L 367,266 L 367,267 L 368,268 L 368,269 L 369,270 L 369,271 L 370,272 L 370,273 L 371,274 L 371,275 L 372,276 L 372,278 L 373,279 L 373,280 L 374,281 L 374,283 L 375,284 L 375,286 L 376,287 L 376,289 L 377,290 L 377,292 L 378,293 L 378,296 L 379,297 L 379,301 L 380,302 L 380,316 L 381,317 L 381,331 L 382,332 L 382,348 L 383,349 L 383,365 L 384,366 L 384,383 L 385,384 L 385,402 L 386,403 L 386,424 L 387,425 L 387,443 L 386,444 L 386,459 L 385,460 L 385,463 L 386,463 L 388,465 L 391,462 L 391,455 L 392,454 L 392,409 L 391,408 L 391,390 L 390,389 L 390,372 L 389,371 L 389,354 L 388,353 L 388,338 L 387,337 L 387,321 L 386,320 L 386,306 L 385,305 L 385,297 L 384,296 L 384,293 L 383,292 L 383,290 L 382,289 L 382,287 L 381,286 L 381,283 L 380,282 L 380,281 L 379,280 L 379,278 L 378,277 L 378,276 L 377,275 L 377,273 L 376,272 L 376,271 L 375,270 L 375,269 L 374,268 L 374,267 L 373,266 L 373,265 L 372,264 L 372,263 L 371,262 L 371,261 L 369,259 L 369,258 L 367,256 L 367,255 L 360,248 L 359,248 L 358,247 L 357,247 L 355,245 L 354,245 L 353,244 L 351,244 L 350,243 L 349,243 L 348,242 L 347,242 L 346,241 L 345,241 L 344,240 L 342,240 L 341,239 L 340,239 L 339,238 L 337,238 L 336,237 L 335,237 L 334,236 L 332,236 L 331,235 L 330,235 L 329,234 L 327,234 L 326,233 L 324,233 L 323,232 L 322,232 L 321,231 L 319,231 L 318,230 L 316,230 L 315,229 L 314,229 L 313,228 L 311,228 L 310,227 L 308,227 L 307,226 L 306,226 L 305,225 L 303,225 L 302,224 L 300,224 L 297,221 L 297,219 L 296,218 L 296,215 L 295,214 L 295,212 L 294,211 L 294,210 L 301,203 L 301,202 L 303,200 L 303,199 L 305,197 L 305,196 L 307,194 L 307,193 L 308,192 L 308,191 L 309,190 L 309,189 L 310,188 L 310,187 L 311,186 L 311,185 L 312,184 L 312,182 L 313,181 L 313,180 L 314,179 L 314,177 L 315,176 L 315,174 L 316,173 L 316,170 L 317,169 L 317,166 L 318,165 L 318,160 L 319,159 L 319,153 L 321,151 L 322,151 L 325,148 L 325,147 L 326,146 L 326,145 L 327,144 L 327,142 L 328,141 L 328,135 L 327,134 L 327,131 L 326,130 L 326,129 L 325,128 L 325,127 L 319,121 L 318,121 L 316,119 L 316,116 L 315,115 L 315,112 L 314,111 L 314,108 L 313,107 L 313,104 L 312,103 L 312,101 L 311,100 L 311,98 L 310,97 L 310,95 L 309,94 L 309,92 L 308,91 L 308,90 L 307,89 L 307,87 L 306,86 L 306,85 L 305,84 L 305,83 L 304,82 L 304,81 L 302,79 L 302,78 L 301,77 L 301,76 L 299,74 L 299,73 L 296,70 L 296,69 L 286,59 L 285,59 L 282,56 L 281,56 L 280,55 L 279,55 L 278,54 L 277,54 L 275,52 L 273,52 L 272,51 L 271,51 L 270,50 L 268,50 L 267,49 L 265,49 L 264,48 L 262,48 L 261,47 L 258,47 L 257,46 L 252,46 L 251,45 L 230,45 L 229,44 L 229,43 L 228,42 L 228,41 L 227,40 L 227,38 L 226,37 L 226,36 L 225,36 L 224,35 Z" fill="#000000" stroke="none" /><path d="M 224,49 L 224,50 L 221,53 L 219,53 L 218,52 L 217,52 L 216,51 L 215,51 L 214,50 L 213,50 L 213,52 L 210,55 L 208,55 L 207,56 L 206,56 L 205,57 L 203,57 L 202,58 L 201,58 L 200,59 L 199,59 L 198,60 L 197,60 L 196,61 L 195,61 L 194,62 L 193,62 L 192,63 L 191,63 L 189,65 L 188,65 L 186,67 L 185,67 L 173,79 L 173,80 L 171,82 L 171,83 L 170,84 L 170,85 L 168,87 L 168,89 L 167,90 L 167,91 L 166,92 L 166,93 L 165,94 L 165,96 L 164,97 L 164,100 L 163,101 L 163,105 L 162,106 L 162,113 L 161,114 L 161,129 L 162,130 L 162,140 L 163,141 L 163,148 L 164,149 L 164,153 L 170,147 L 171,147 L 182,136 L 182,135 L 187,130 L 187,129 L 190,126 L 190,125 L 191,124 L 191,123 L 193,121 L 193,120 L 194,119 L 194,118 L 195,117 L 195,116 L 196,115 L 196,114 L 197,113 L 197,111 L 198,110 L 198,108 L 201,105 L 204,105 L 207,108 L 207,113 L 206,114 L 206,118 L 207,117 L 207,116 L 209,114 L 209,113 L 211,111 L 211,110 L 212,109 L 212,108 L 213,107 L 213,106 L 214,105 L 214,103 L 215,102 L 215,101 L 216,100 L 216,97 L 217,96 L 217,94 L 218,93 L 218,92 L 219,91 L 223,91 L 226,94 L 226,95 L 227,96 L 227,98 L 228,99 L 228,102 L 229,103 L 229,109 L 230,110 L 230,115 L 232,113 L 233,113 L 237,109 L 237,108 L 240,105 L 240,104 L 241,103 L 241,102 L 243,100 L 243,99 L 244,98 L 244,97 L 245,96 L 245,94 L 246,93 L 246,92 L 247,91 L 247,90 L 248,89 L 248,87 L 249,86 L 249,85 L 251,83 L 254,83 L 264,93 L 265,93 L 268,96 L 269,96 L 271,98 L 272,98 L 273,99 L 275,99 L 275,97 L 276,96 L 276,94 L 277,93 L 277,92 L 278,91 L 278,90 L 280,88 L 280,87 L 281,86 L 282,86 L 283,85 L 284,85 L 285,86 L 286,86 L 287,87 L 287,88 L 289,90 L 289,91 L 291,93 L 291,94 L 306,109 L 306,107 L 305,106 L 305,103 L 304,102 L 304,100 L 303,99 L 303,97 L 302,96 L 302,95 L 301,94 L 301,92 L 300,91 L 300,90 L 299,89 L 299,88 L 298,87 L 298,86 L 297,85 L 297,84 L 296,83 L 296,82 L 294,80 L 294,79 L 292,77 L 292,76 L 288,72 L 288,71 L 287,71 L 286,70 L 286,69 L 285,68 L 284,68 L 280,64 L 279,64 L 277,62 L 276,62 L 274,60 L 273,60 L 272,59 L 271,59 L 270,58 L 269,58 L 268,57 L 266,57 L 265,56 L 263,56 L 262,55 L 259,55 L 258,54 L 255,54 L 254,53 L 247,53 L 246,52 L 231,52 L 230,53 L 228,53 L 227,52 L 226,52 L 224,50 Z" fill="#904818" stroke="none" /><path d="M 135,208 L 134,209 L 128,209 L 127,210 L 121,210 L 120,211 L 118,211 L 116,213 L 116,214 L 115,215 L 118,215 L 119,214 L 123,214 L 124,213 L 128,213 L 129,212 L 132,212 L 134,214 L 134,215 L 133,216 L 133,217 L 132,218 L 134,218 L 135,217 L 137,217 L 138,216 L 140,216 L 141,215 L 143,215 L 144,214 L 146,214 L 147,213 L 149,213 L 135,213 L 134,212 L 134,210 L 135,209 Z" fill="#f00000" stroke="none" /><path d="M 119,164 L 118,165 L 117,165 L 116,166 L 115,166 L 116,167 L 117,167 L 118,168 L 119,168 L 120,169 L 121,169 L 122,170 L 123,170 L 124,171 L 125,171 L 126,172 L 128,172 L 131,175 L 128,178 L 127,178 L 127,179 L 129,179 L 130,180 L 132,180 L 133,181 L 135,181 L 136,182 L 138,182 L 139,183 L 141,183 L 142,184 L 143,184 L 142,183 L 141,183 L 139,181 L 138,181 L 136,179 L 135,179 L 132,176 L 132,174 L 133,173 L 134,173 L 134,172 L 133,171 L 132,171 L 131,170 L 130,170 L 129,169 L 128,169 L 127,168 L 126,168 L 125,167 L 124,167 L 123,166 L 122,166 L 121,165 L 120,165 Z" fill="#f00000" stroke="none" /><path d="M 298,231 L 298,232 L 297,233 L 297,236 L 296,237 L 296,239 L 295,240 L 295,242 L 294,243 L 294,244 L 293,245 L 293,247 L 292,248 L 292,249 L 291,250 L 291,252 L 288,255 L 288,256 L 286,258 L 286,259 L 283,262 L 283,263 L 278,268 L 277,268 L 276,269 L 276,270 L 275,271 L 274,270 L 271,273 L 271,277 L 272,278 L 272,279 L 273,280 L 272,281 L 272,284 L 273,285 L 273,286 L 274,287 L 273,288 L 273,292 L 274,293 L 274,299 L 275,300 L 275,302 L 276,303 L 275,304 L 275,306 L 277,308 L 276,309 L 276,314 L 277,315 L 277,322 L 278,323 L 278,330 L 279,331 L 279,338 L 280,338 L 281,339 L 280,340 L 280,346 L 282,348 L 281,349 L 281,356 L 282,357 L 282,366 L 283,367 L 283,383 L 284,384 L 283,385 L 283,387 L 282,388 L 282,393 L 283,394 L 281,396 L 281,399 L 282,400 L 281,401 L 281,402 L 280,403 L 280,406 L 279,407 L 279,409 L 280,410 L 278,412 L 278,415 L 277,416 L 277,420 L 276,421 L 276,422 L 277,423 L 275,425 L 275,427 L 274,428 L 274,431 L 273,432 L 273,434 L 272,435 L 272,437 L 271,438 L 271,440 L 270,441 L 270,442 L 269,443 L 269,445 L 268,446 L 268,447 L 266,449 L 266,450 L 265,451 L 265,452 L 264,453 L 262,453 L 260,455 L 259,455 L 258,456 L 256,456 L 255,457 L 253,457 L 252,458 L 247,458 L 245,460 L 244,459 L 236,459 L 235,460 L 233,458 L 230,458 L 229,457 L 227,457 L 225,455 L 224,455 L 223,454 L 222,454 L 220,452 L 219,452 L 217,450 L 216,450 L 214,448 L 213,448 L 208,443 L 207,443 L 202,438 L 201,438 L 195,432 L 194,432 L 193,431 L 193,430 L 191,428 L 190,428 L 186,424 L 185,424 L 184,423 L 184,422 L 179,417 L 179,416 L 172,409 L 172,408 L 171,407 L 170,407 L 169,406 L 169,405 L 168,404 L 168,403 L 167,402 L 167,401 L 166,400 L 166,399 L 165,398 L 165,397 L 164,396 L 164,395 L 163,394 L 163,393 L 162,392 L 162,391 L 161,390 L 161,389 L 160,388 L 160,387 L 159,386 L 159,384 L 158,383 L 158,382 L 157,381 L 157,380 L 156,379 L 156,378 L 156,379 L 157,380 L 157,389 L 158,390 L 157,391 L 157,393 L 156,394 L 156,407 L 157,408 L 156,409 L 156,412 L 155,413 L 155,417 L 156,418 L 155,419 L 155,430 L 154,431 L 154,447 L 153,448 L 153,460 L 313,460 L 314,459 L 315,460 L 317,460 L 318,459 L 319,460 L 321,460 L 322,459 L 323,460 L 328,460 L 328,453 L 329,452 L 329,438 L 330,437 L 330,417 L 329,416 L 329,398 L 328,397 L 329,396 L 329,392 L 328,391 L 328,378 L 327,377 L 327,374 L 328,373 L 328,365 L 327,364 L 328,363 L 328,355 L 327,354 L 328,353 L 328,351 L 327,350 L 328,349 L 328,345 L 327,344 L 327,336 L 328,335 L 328,327 L 327,326 L 327,317 L 328,316 L 329,316 L 330,315 L 333,315 L 335,317 L 335,318 L 336,319 L 335,320 L 336,321 L 336,324 L 337,325 L 336,326 L 336,339 L 337,340 L 336,341 L 336,342 L 337,343 L 336,344 L 337,345 L 336,346 L 336,347 L 337,348 L 336,349 L 336,350 L 337,351 L 336,352 L 336,363 L 337,364 L 336,365 L 336,369 L 337,370 L 336,371 L 336,373 L 337,374 L 336,375 L 336,385 L 337,386 L 337,396 L 338,397 L 338,441 L 339,442 L 338,443 L 338,446 L 337,447 L 337,453 L 338,454 L 337,455 L 337,460 L 357,460 L 358,459 L 359,460 L 362,460 L 363,459 L 364,460 L 384,460 L 384,452 L 383,451 L 384,450 L 384,446 L 385,445 L 385,422 L 384,421 L 384,419 L 383,418 L 384,417 L 384,401 L 383,400 L 383,392 L 382,391 L 383,390 L 383,382 L 382,381 L 382,364 L 381,363 L 381,356 L 380,355 L 381,354 L 381,347 L 380,346 L 380,330 L 379,329 L 379,323 L 378,322 L 379,321 L 379,315 L 378,314 L 378,301 L 377,300 L 377,297 L 376,296 L 376,293 L 375,292 L 375,290 L 374,289 L 374,288 L 373,287 L 373,284 L 372,283 L 372,281 L 371,280 L 371,279 L 370,278 L 370,276 L 369,275 L 369,274 L 368,274 L 367,273 L 368,272 L 367,272 L 366,271 L 367,270 L 366,269 L 366,268 L 365,267 L 365,266 L 364,265 L 364,264 L 362,262 L 362,261 L 355,254 L 354,254 L 353,253 L 352,253 L 351,252 L 350,252 L 349,251 L 348,251 L 347,250 L 346,250 L 345,249 L 344,249 L 343,248 L 341,248 L 340,247 L 339,247 L 338,246 L 337,246 L 336,245 L 334,245 L 333,244 L 332,244 L 331,243 L 329,243 L 328,242 L 327,242 L 326,241 L 324,241 L 323,240 L 321,240 L 320,239 L 319,239 L 318,238 L 317,239 L 315,237 L 313,237 L 312,236 L 311,236 L 310,235 L 308,235 L 307,234 L 305,234 L 304,233 L 302,233 L 301,232 L 300,232 L 299,231 Z" fill="#f04818" stroke="none" /><path d="M 183,228 L 182,229 L 178,229 L 177,230 L 173,230 L 172,231 L 168,231 L 167,232 L 164,232 L 163,233 L 160,233 L 159,234 L 157,234 L 156,235 L 154,235 L 153,236 L 151,236 L 148,239 L 147,239 L 146,240 L 146,241 L 144,243 L 144,244 L 142,246 L 142,247 L 141,248 L 141,249 L 140,250 L 140,252 L 139,253 L 139,254 L 138,255 L 139,256 L 137,258 L 137,259 L 138,260 L 136,262 L 136,265 L 135,266 L 135,270 L 134,271 L 134,279 L 133,280 L 133,289 L 134,290 L 134,293 L 135,294 L 134,295 L 134,296 L 135,297 L 135,300 L 136,301 L 136,303 L 137,304 L 136,305 L 137,306 L 137,308 L 139,310 L 138,311 L 138,312 L 139,313 L 139,315 L 140,315 L 141,316 L 140,317 L 140,318 L 141,319 L 141,321 L 142,322 L 142,323 L 143,324 L 143,326 L 144,327 L 144,329 L 145,329 L 146,330 L 145,331 L 146,332 L 146,334 L 147,335 L 147,337 L 148,337 L 149,338 L 148,339 L 149,340 L 149,342 L 150,343 L 150,344 L 151,345 L 151,346 L 152,347 L 152,349 L 153,350 L 153,351 L 154,351 L 155,352 L 154,353 L 155,354 L 155,355 L 156,356 L 156,358 L 157,359 L 157,360 L 158,361 L 158,363 L 159,364 L 159,365 L 161,367 L 161,368 L 162,369 L 162,371 L 163,372 L 163,374 L 164,375 L 164,376 L 165,377 L 165,378 L 166,379 L 166,380 L 167,381 L 167,382 L 168,383 L 168,384 L 169,384 L 170,385 L 169,386 L 169,387 L 170,387 L 171,388 L 170,389 L 171,390 L 171,391 L 172,391 L 173,392 L 172,393 L 173,394 L 173,395 L 174,396 L 174,397 L 176,399 L 176,400 L 177,401 L 178,401 L 179,402 L 179,404 L 180,404 L 181,405 L 181,406 L 186,411 L 186,412 L 196,422 L 197,422 L 206,431 L 207,431 L 211,435 L 212,435 L 214,437 L 215,437 L 216,438 L 216,439 L 217,439 L 220,442 L 221,442 L 224,445 L 226,445 L 227,446 L 227,447 L 228,447 L 229,448 L 230,448 L 231,449 L 233,449 L 234,450 L 248,450 L 249,449 L 251,449 L 252,448 L 254,448 L 255,447 L 256,447 L 257,446 L 258,446 L 259,445 L 259,443 L 261,441 L 261,440 L 262,439 L 262,438 L 263,437 L 263,435 L 264,434 L 264,432 L 265,431 L 265,429 L 264,428 L 265,427 L 266,427 L 266,425 L 267,424 L 267,421 L 268,420 L 268,417 L 269,416 L 269,413 L 270,412 L 270,408 L 271,407 L 271,406 L 270,405 L 271,404 L 271,403 L 272,402 L 272,400 L 271,399 L 273,397 L 273,392 L 272,391 L 273,390 L 274,390 L 274,380 L 275,379 L 274,378 L 274,363 L 273,362 L 273,353 L 272,352 L 272,344 L 271,344 L 270,343 L 271,342 L 270,341 L 271,340 L 271,336 L 270,335 L 270,328 L 269,327 L 269,325 L 268,324 L 269,323 L 269,320 L 268,319 L 268,318 L 267,317 L 268,316 L 268,315 L 267,314 L 268,313 L 267,312 L 267,305 L 265,303 L 266,302 L 266,298 L 265,297 L 265,296 L 264,295 L 265,294 L 265,291 L 264,290 L 264,283 L 263,282 L 263,280 L 262,279 L 263,278 L 263,276 L 262,275 L 262,273 L 261,272 L 261,271 L 225,271 L 224,272 L 223,272 L 223,277 L 224,278 L 223,279 L 223,281 L 224,282 L 223,283 L 223,286 L 222,287 L 222,313 L 221,314 L 221,329 L 222,330 L 221,331 L 221,332 L 220,333 L 220,345 L 219,346 L 219,350 L 220,351 L 218,353 L 218,355 L 219,356 L 218,357 L 218,358 L 217,359 L 217,364 L 216,365 L 216,372 L 215,373 L 215,374 L 216,375 L 215,376 L 215,383 L 216,384 L 215,385 L 215,389 L 214,390 L 215,391 L 215,404 L 216,405 L 216,409 L 217,410 L 217,413 L 218,414 L 218,415 L 217,416 L 217,417 L 215,419 L 212,419 L 209,416 L 209,414 L 208,413 L 208,410 L 207,409 L 207,406 L 206,405 L 207,404 L 207,403 L 206,402 L 206,394 L 205,393 L 206,392 L 206,383 L 205,382 L 206,381 L 206,378 L 207,377 L 207,367 L 208,366 L 208,364 L 207,363 L 208,362 L 208,360 L 209,359 L 209,354 L 210,353 L 210,349 L 211,348 L 211,340 L 210,339 L 211,338 L 211,337 L 209,335 L 209,334 L 207,332 L 207,330 L 205,328 L 205,327 L 204,326 L 204,325 L 203,324 L 203,323 L 202,322 L 202,321 L 201,320 L 201,319 L 199,317 L 199,316 L 198,315 L 198,314 L 197,314 L 196,313 L 197,312 L 196,311 L 196,310 L 194,308 L 194,307 L 192,305 L 192,303 L 191,302 L 191,301 L 189,299 L 189,298 L 188,298 L 187,297 L 188,296 L 187,295 L 187,294 L 185,292 L 185,291 L 184,290 L 184,289 L 183,288 L 183,283 L 184,282 L 189,282 L 191,284 L 191,285 L 192,286 L 192,287 L 193,287 L 194,288 L 194,290 L 195,291 L 195,292 L 197,294 L 197,295 L 198,296 L 198,297 L 199,297 L 200,298 L 199,299 L 200,299 L 201,300 L 200,301 L 201,301 L 202,302 L 202,303 L 203,304 L 203,306 L 204,307 L 204,308 L 205,309 L 205,310 L 207,312 L 207,313 L 208,314 L 208,315 L 209,316 L 209,317 L 210,318 L 210,319 L 212,321 L 212,322 L 213,321 L 213,308 L 212,307 L 213,306 L 213,299 L 214,298 L 214,297 L 213,296 L 214,295 L 214,281 L 213,280 L 214,279 L 214,276 L 213,275 L 214,274 L 214,269 L 215,268 L 215,266 L 216,265 L 216,264 L 217,263 L 218,264 L 219,264 L 219,261 L 218,260 L 218,258 L 217,257 L 216,257 L 214,255 L 214,254 L 213,253 L 212,253 L 211,252 L 210,252 L 209,251 L 209,250 L 208,250 L 207,249 L 206,249 L 205,248 L 205,247 L 204,247 L 201,244 L 200,244 L 196,240 L 195,240 L 193,238 L 192,238 L 188,234 L 188,233 L 186,231 L 186,230 L 185,229 L 185,228 Z" fill="#f04818" stroke="none" /><path d="M 287,217 L 284,220 L 283,220 L 281,222 L 280,222 L 279,223 L 278,223 L 277,224 L 276,224 L 275,225 L 274,225 L 273,226 L 272,226 L 271,227 L 270,227 L 269,228 L 267,228 L 266,229 L 264,229 L 263,230 L 260,230 L 259,231 L 256,231 L 258,233 L 258,234 L 261,237 L 261,238 L 262,239 L 262,240 L 263,241 L 263,243 L 264,244 L 264,246 L 265,247 L 265,255 L 266,256 L 266,264 L 268,264 L 269,263 L 270,263 L 272,261 L 273,261 L 277,257 L 277,256 L 280,253 L 280,252 L 281,251 L 281,250 L 283,248 L 283,247 L 284,246 L 284,244 L 285,243 L 285,242 L 286,241 L 286,240 L 287,239 L 287,237 L 288,236 L 288,234 L 289,233 L 289,230 L 290,229 L 290,222 L 289,221 L 289,218 L 288,217 Z" fill="#f0d8d8" stroke="none" /><path d="M 178,175 L 178,178 L 179,179 L 179,181 L 180,182 L 180,183 L 181,184 L 181,185 L 182,186 L 182,188 L 183,189 L 183,190 L 184,191 L 184,192 L 185,193 L 185,194 L 186,195 L 186,196 L 187,197 L 187,198 L 188,199 L 188,200 L 189,201 L 189,202 L 191,204 L 191,205 L 192,206 L 192,207 L 194,209 L 194,210 L 196,212 L 196,213 L 197,214 L 197,215 L 198,216 L 198,219 L 196,221 L 193,221 L 190,218 L 190,217 L 189,216 L 189,215 L 187,213 L 187,212 L 185,210 L 185,209 L 184,208 L 184,207 L 183,206 L 184,207 L 184,209 L 185,210 L 185,211 L 186,212 L 186,214 L 187,215 L 187,216 L 188,217 L 188,218 L 189,219 L 189,220 L 190,221 L 190,222 L 191,223 L 191,224 L 192,225 L 192,226 L 193,227 L 193,228 L 198,233 L 199,233 L 202,236 L 203,236 L 206,239 L 207,239 L 210,242 L 211,242 L 214,245 L 215,245 L 218,248 L 219,248 L 223,252 L 223,253 L 225,255 L 225,257 L 226,258 L 226,260 L 227,261 L 227,264 L 259,264 L 259,263 L 258,262 L 258,252 L 257,251 L 257,246 L 256,245 L 256,244 L 255,243 L 255,242 L 254,241 L 254,240 L 244,230 L 243,230 L 240,227 L 239,227 L 238,226 L 237,226 L 235,224 L 234,224 L 232,222 L 231,222 L 230,221 L 229,221 L 228,220 L 227,220 L 226,219 L 225,219 L 223,217 L 222,217 L 221,216 L 220,216 L 215,211 L 215,210 L 210,205 L 210,204 L 205,199 L 205,198 L 200,193 L 200,192 L 193,185 L 191,185 L 192,186 L 192,187 L 194,189 L 194,190 L 195,191 L 195,192 L 197,194 L 197,195 L 198,196 L 198,197 L 200,199 L 200,200 L 202,202 L 202,203 L 204,205 L 204,206 L 206,208 L 206,209 L 207,210 L 207,211 L 209,213 L 209,215 L 206,218 L 204,218 L 201,215 L 201,214 L 199,212 L 199,211 L 197,209 L 197,208 L 195,206 L 195,205 L 193,203 L 193,202 L 191,200 L 191,199 L 190,198 L 190,197 L 188,195 L 188,194 L 187,193 L 187,192 L 185,190 L 185,188 L 184,187 L 184,183 L 183,182 L 183,181 L 182,180 L 182,179 Z" fill="#f0d8d8" stroke="none" /><path d="M 159,167 L 159,170 L 158,171 L 158,172 L 159,173 L 159,176 L 160,177 L 160,178 L 162,180 L 162,181 L 163,181 L 165,183 L 166,183 L 166,181 L 165,180 L 165,179 L 164,178 L 164,175 L 161,172 L 161,170 L 160,169 L 160,167 Z" fill="#f0d8d8" stroke="none" /><path d="M 320,131 L 320,140 L 321,141 L 321,143 L 321,141 L 322,140 L 322,136 L 321,135 L 321,133 L 320,132 Z" fill="#f0d8d8" stroke="none" /><path d="M 254,95 L 254,96 L 253,97 L 253,98 L 252,99 L 252,100 L 251,101 L 251,102 L 250,103 L 250,104 L 249,105 L 249,106 L 248,107 L 248,108 L 246,110 L 246,111 L 236,121 L 235,121 L 234,122 L 233,122 L 232,123 L 231,123 L 230,124 L 228,124 L 227,125 L 226,125 L 225,124 L 224,124 L 222,122 L 222,116 L 221,115 L 221,108 L 221,109 L 220,110 L 220,111 L 219,112 L 219,113 L 218,114 L 218,115 L 217,116 L 217,117 L 215,119 L 215,120 L 212,123 L 212,124 L 209,127 L 209,128 L 202,135 L 199,135 L 196,132 L 196,131 L 195,132 L 195,133 L 192,136 L 192,137 L 172,157 L 171,157 L 167,161 L 167,164 L 168,165 L 169,165 L 170,164 L 173,164 L 174,165 L 175,165 L 177,167 L 180,167 L 181,168 L 182,168 L 187,173 L 187,174 L 189,176 L 189,177 L 190,178 L 195,178 L 196,179 L 197,179 L 198,180 L 199,180 L 203,184 L 203,185 L 209,191 L 209,192 L 213,196 L 213,197 L 218,202 L 218,203 L 226,211 L 227,211 L 228,212 L 229,212 L 230,213 L 231,213 L 232,214 L 233,214 L 235,216 L 236,216 L 237,217 L 238,217 L 239,218 L 240,218 L 242,220 L 243,220 L 245,222 L 246,222 L 248,224 L 250,224 L 251,223 L 256,223 L 257,222 L 260,222 L 261,221 L 263,221 L 264,220 L 266,220 L 267,219 L 268,219 L 269,218 L 270,218 L 271,217 L 272,217 L 273,216 L 274,216 L 275,215 L 276,215 L 278,213 L 279,213 L 281,211 L 282,211 L 288,205 L 289,205 L 289,204 L 295,198 L 295,197 L 298,194 L 298,193 L 299,192 L 299,191 L 301,189 L 301,188 L 302,187 L 302,186 L 303,185 L 303,184 L 304,183 L 304,182 L 305,181 L 305,179 L 306,178 L 306,177 L 307,176 L 307,174 L 308,173 L 308,171 L 309,170 L 309,167 L 310,166 L 310,162 L 311,161 L 311,155 L 312,154 L 312,135 L 311,134 L 311,128 L 310,127 L 310,124 L 309,123 L 309,121 L 308,121 L 305,118 L 304,118 L 299,113 L 298,113 L 287,102 L 287,101 L 284,98 L 283,99 L 283,102 L 282,103 L 282,107 L 279,110 L 276,110 L 275,109 L 274,109 L 273,108 L 272,108 L 270,106 L 269,106 L 268,105 L 267,105 L 265,103 L 264,103 L 262,101 L 261,101 L 258,98 L 257,98 Z" fill="#f0d8d8" stroke="none" /></svg>