<?xml version="1.0" encoding="UTF-8"?>
<!-- Generator: visioncortex VTracer -->
<svg id="svg" version="1.1" xmlns="http://www.w3.org/2000/svg" style="display: block;" viewBox="0 0 500 500"><path d="M0 0 C5.15277246 4.28821333 10.05129041 8.80595245 14.91015625 13.421875 C15.60625 14.04191406 16.30234375 14.66195312 17.01953125 15.30078125 C35.72535673 32.57661594 48.72934044 60.01611416 55.28515625 84.109375 C55.81689453 85.99946289 55.81689453 85.99946289 56.359375 87.92773438 C58.91015625 97.081986 58.91015625 97.081986 58.91015625 99.421875 C60.06515625 99.6075 61.22015625 99.793125 62.41015625 99.984375 C68.4006947 101.49263113 72.68850836 105.34870213 76.265625 110.296875 C80.83037166 117.94323764 80.87841537 126.7574756 79.91015625 135.421875 C77.8407471 142.91623056 73.19658271 148.02262626 66.91015625 152.421875 C66.22904785 152.67211426 65.54793945 152.92235352 64.84619141 153.18017578 C62.67696123 154.27252683 62.67696123 154.27252683 62.22827148 156.75341797 C62.09980835 158.19418701 62.09980835 158.19418701 61.96875 159.6640625 C61.85982422 160.73140625 61.75089844 161.79875 61.63867188 162.8984375 C61.54263672 164.01992188 61.44660156 165.14140625 61.34765625 166.296875 C60.22354299 178.48081227 57.74644936 189.70464834 53.66015625 201.234375 C53.357146 202.09184326 53.05413574 202.94931152 52.74194336 203.83276367 C49.93390695 211.61851795 46.62849409 219.03369938 42.91015625 226.421875 C42.61560547 227.02805664 42.32105469 227.63423828 42.01757812 228.25878906 C31.26712637 250.35178008 14.41401619 270.18701446 -5.96484375 283.921875 C-6.60776367 284.35580566 -7.25068359 284.78973633 -7.91308594 285.23681641 C-12.60128525 288.30843779 -12.60128525 288.30843779 -15.23486328 288.91992188 C-16.15307861 289.16838867 -16.15307861 289.16838867 -17.08984375 289.421875 C-17.41984375 290.081875 -17.74984375 290.741875 -18.08984375 291.421875 C-19.77294922 292.33569336 -19.77294922 292.33569336 -21.95703125 293.26171875 C-22.75536377 293.60138672 -23.55369629 293.94105469 -24.3762207 294.29101562 C-25.23046631 294.64357422 -26.08471191 294.99613281 -26.96484375 295.359375 C-28.26071411 295.89788086 -28.26071411 295.89788086 -29.58276367 296.44726562 C-45.83963978 303.09081046 -45.83963978 303.09081046 -54.08984375 302.421875 C-54.41984375 303.081875 -54.74984375 303.741875 -55.08984375 304.421875 C-56.20359375 304.40125 -57.31734375 304.380625 -58.46484375 304.359375 C-61.92200296 304.15806782 -61.92200296 304.15806782 -64.08984375 305.421875 C-66.58272864 305.54843232 -69.03404858 305.61166112 -71.52734375 305.609375 C-72.60399292 305.6103418 -72.60399292 305.6103418 -73.70239258 305.61132812 C-78.86145468 305.56058514 -83.71472144 305.0030051 -88.7578125 303.859375 C-91.24986441 303.39185437 -93.56015205 303.34998323 -96.08984375 303.421875 C-96.08984375 302.761875 -96.08984375 302.101875 -96.08984375 301.421875 C-97.25128906 301.31101562 -98.41273438 301.20015625 -99.609375 301.0859375 C-103.88037948 300.54701541 -107.77375312 299.35354937 -111.77734375 297.796875 C-112.46940918 297.53036133 -113.16147461 297.26384766 -113.87451172 296.98925781 C-150.8198337 282.37408564 -177.42523302 250.59240144 -193.09472656 214.88476562 C-194.91572068 210.37784986 -196.34094254 205.75029655 -197.77734375 201.109375 C-198.08478516 200.13419922 -198.39222656 199.15902344 -198.70898438 198.15429688 C-200.92119109 191.10137525 -200.92119109 191.10137525 -201.62036133 188.28442383 C-202.09501478 186.25848804 -202.09501478 186.25848804 -203.08984375 183.734375 C-204.11948666 180.32368287 -204.53787266 177.18330906 -204.875 173.65234375 C-205.1729477 170.55910495 -205.63450163 167.49543431 -206.08984375 164.421875 C-206.11046875 163.205 -206.13109375 161.988125 -206.15234375 160.734375 C-206.70046519 157.42469592 -206.70046519 157.42469592 -208.72265625 156.33984375 C-210.12726739 155.71230835 -211.53921768 155.10101412 -212.95703125 154.50390625 C-217.75023404 152.07218982 -220.38853498 147.70357724 -222.90234375 143.109375 C-225.80867396 134.08445487 -225.76153902 125.52344933 -221.93359375 116.78125 C-218.56030738 110.52192973 -214.48021628 106.57058583 -208.08984375 103.421875 C-206.76142042 103.06948268 -205.42849783 102.73315324 -204.08984375 102.421875 C-203.82171875 101.23335938 -203.55359375 100.04484375 -203.27734375 98.8203125 C-192.95533409 54.5437288 -170.38364622 16.16223939 -131.71484375 -8.828125 C-90.59363941 -33.27458261 -37.4912141 -29.26635825 0 0 Z " transform="translate(322.08984375,110.578125)" style="fill: #F3E4DE;"/><path d="M0 0 C5.15277246 4.28821333 10.05129041 8.80595245 14.91015625 13.421875 C15.60625 14.04191406 16.30234375 14.66195312 17.01953125 15.30078125 C35.72535673 32.57661594 48.72934044 60.01611416 55.28515625 84.109375 C55.81689453 85.99946289 55.81689453 85.99946289 56.359375 87.92773438 C58.91015625 97.081986 58.91015625 97.081986 58.91015625 99.421875 C60.06515625 99.6075 61.22015625 99.793125 62.41015625 99.984375 C68.4006947 101.49263113 72.68850836 105.34870213 76.265625 110.296875 C80.83037166 117.94323764 80.87841537 126.7574756 79.91015625 135.421875 C77.8407471 142.91623056 73.19658271 148.02262626 66.91015625 152.421875 C66.22904785 152.67211426 65.54793945 152.92235352 64.84619141 153.18017578 C62.67696123 154.27252683 62.67696123 154.27252683 62.22827148 156.75341797 C62.09980835 158.19418701 62.09980835 158.19418701 61.96875 159.6640625 C61.85982422 160.73140625 61.75089844 161.79875 61.63867188 162.8984375 C61.54263672 164.01992188 61.44660156 165.14140625 61.34765625 166.296875 C60.22354299 178.48081227 57.74644936 189.70464834 53.66015625 201.234375 C53.357146 202.09184326 53.05413574 202.94931152 52.74194336 203.83276367 C49.93390695 211.61851795 46.62849409 219.03369938 42.91015625 226.421875 C42.61560547 227.02805664 42.32105469 227.63423828 42.01757812 228.25878906 C31.26712637 250.35178008 14.41401619 270.18701446 -5.96484375 283.921875 C-6.60776367 284.35580566 -7.25068359 284.78973633 -7.91308594 285.23681641 C-12.60128525 288.30843779 -12.60128525 288.30843779 -15.23486328 288.91992188 C-16.15307861 289.16838867 -16.15307861 289.16838867 -17.08984375 289.421875 C-17.41984375 290.081875 -17.74984375 290.741875 -18.08984375 291.421875 C-19.77294922 292.33569336 -19.77294922 292.33569336 -21.95703125 293.26171875 C-22.75536377 293.60138672 -23.55369629 293.94105469 -24.3762207 294.29101562 C-25.23046631 294.64357422 -26.08471191 294.99613281 -26.96484375 295.359375 C-28.26071411 295.89788086 -28.26071411 295.89788086 -29.58276367 296.44726562 C-45.83963978 303.09081046 -45.83963978 303.09081046 -54.08984375 302.421875 C-54.41984375 303.081875 -54.74984375 303.741875 -55.08984375 304.421875 C-56.20359375 304.40125 -57.31734375 304.380625 -58.46484375 304.359375 C-61.92200296 304.15806782 -61.92200296 304.15806782 -64.08984375 305.421875 C-66.58272864 305.54843232 -69.03404858 305.61166112 -71.52734375 305.609375 C-72.60399292 305.6103418 -72.60399292 305.6103418 -73.70239258 305.61132812 C-78.86145468 305.56058514 -83.71472144 305.0030051 -88.7578125 303.859375 C-91.24986441 303.39185437 -93.56015205 303.34998323 -96.08984375 303.421875 C-96.08984375 302.761875 -96.08984375 302.101875 -96.08984375 301.421875 C-97.25128906 301.31101562 -98.41273438 301.20015625 -99.609375 301.0859375 C-103.88037948 300.54701541 -107.77375312 299.35354937 -111.77734375 297.796875 C-112.46940918 297.53036133 -113.16147461 297.26384766 -113.87451172 296.98925781 C-150.8198337 282.37408564 -177.42523302 250.59240144 -193.09472656 214.88476562 C-194.91572068 210.37784986 -196.34094254 205.75029655 -197.77734375 201.109375 C-198.08478516 200.13419922 -198.39222656 199.15902344 -198.70898438 198.15429688 C-200.92119109 191.10137525 -200.92119109 191.10137525 -201.62036133 188.28442383 C-202.09501478 186.25848804 -202.09501478 186.25848804 -203.08984375 183.734375 C-204.11948666 180.32368287 -204.53787266 177.18330906 -204.875 173.65234375 C-205.1729477 170.55910495 -205.63450163 167.49543431 -206.08984375 164.421875 C-206.11046875 163.205 -206.13109375 161.988125 -206.15234375 160.734375 C-206.70046519 157.42469592 -206.70046519 157.42469592 -208.72265625 156.33984375 C-210.12726739 155.71230835 -211.53921768 155.10101412 -212.95703125 154.50390625 C-217.75023404 152.07218982 -220.38853498 147.70357724 -222.90234375 143.109375 C-225.80867396 134.08445487 -225.76153902 125.52344933 -221.93359375 116.78125 C-218.56030738 110.52192973 -214.48021628 106.57058583 -208.08984375 103.421875 C-206.76142042 103.06948268 -205.42849783 102.73315324 -204.08984375 102.421875 C-203.82171875 101.23335938 -203.55359375 100.04484375 -203.27734375 98.8203125 C-192.95533409 54.5437288 -170.38364622 16.16223939 -131.71484375 -8.828125 C-90.59363941 -33.27458261 -37.4912141 -29.26635825 0 0 Z M-93.08984375 -15.578125 C-93.8375 -15.39507812 -94.58515625 -15.21203125 -95.35546875 -15.0234375 C-107.51309248 -12.00267823 -118.49031843 -8.3175693 -129.08984375 -1.578125 C-129.66750488 -1.21235352 -130.24516602 -0.84658203 -130.84033203 -0.46972656 C-152.41432481 13.48037403 -168.50022208 32.63409842 -180.08984375 55.421875 C-180.61336426 56.43435303 -180.61336426 56.43435303 -181.14746094 57.46728516 C-189.92070309 74.58925774 -194.95499336 92.48174027 -198.08984375 111.421875 C-198.26563965 112.48124268 -198.44143555 113.54061035 -198.62255859 114.63208008 C-199.15214629 118.92716355 -199.28741967 123.12646363 -199.328125 127.44921875 C-199.33805481 128.30660645 -199.34798462 129.16399414 -199.35821533 130.04736328 C-199.78738078 176.76840187 -189.70897437 222.20705759 -157.08984375 257.421875 C-156.58582031 257.96972656 -156.08179688 258.51757812 -155.5625 259.08203125 C-136.89604517 279.14497896 -111.39760436 294.80611799 -83.51611328 296.65942383 C-79.53941183 296.7979928 -75.56850235 296.86171072 -71.58984375 296.859375 C-70.88496826 296.85977783 -70.18009277 296.86018066 -69.45385742 296.8605957 C-50.87694531 296.79956359 -36.22372986 292.4337145 -20.08984375 283.421875 C-18.46949219 282.55369141 -18.46949219 282.55369141 -16.81640625 281.66796875 C1.07777905 271.75486609 15.92049977 256.55360884 26.91015625 239.421875 C27.31685547 238.80038574 27.72355469 238.17889648 28.14257812 237.53857422 C39.62866129 219.80323754 47.47000059 200.04794691 51.91015625 179.421875 C52.25820313 177.82279297 52.25820313 177.82279297 52.61328125 176.19140625 C57.5854793 151.0107747 57.41073471 121.20718557 50.91015625 96.421875 C50.69584961 95.55014648 50.48154297 94.67841797 50.26074219 93.78027344 C40.64901185 54.95559848 18.81932826 19.70248921 -15.63671875 -1.515625 C-38.30103258 -15.15919209 -66.94781363 -22.24177974 -93.08984375 -15.578125 Z " transform="translate(322.08984375,110.578125)" style="fill: #040403;"/><path d="M0 0 C4.29445018 1.40839495 6.87046479 3.45854776 10.125 6.5625 C13.73356545 9.94598758 17.39705267 13.20713946 21.25 16.3125 C28.32329821 22.02788709 35.15594006 28.01411722 42 34 C42.97582031 34.84949219 43.95164063 35.69898438 44.95703125 36.57421875 C46.18486328 37.65123047 46.18486328 37.65123047 47.4375 38.75 C48.13746094 39.36359375 48.83742187 39.9771875 49.55859375 40.609375 C50.03425781 41.06828125 50.50992188 41.5271875 51 42 C51 42.33 51 42.66 51 43 C46.38 43.99 41.76 44.98 37 46 C38.010625 46.98742187 39.02125 47.97484375 40.0625 48.9921875 C41.37526042 50.2861942 42.68774629 51.58047945 44 52.875 C44.66773438 53.52597656 45.33546875 54.17695312 46.0234375 54.84765625 C46.65507813 55.47285156 47.28671875 56.09804687 47.9375 56.7421875 C48.81728516 57.60626221 48.81728516 57.60626221 49.71484375 58.48779297 C51 60 51 60 51 62 C51.556875 62.226875 52.11375 62.45375 52.6875 62.6875 C55.66159588 64.37550036 57.72008865 66.46676517 60 69 C60 69.66 60 70.32 60 71 C60.66 71 61.32 71 62 71 C63.69140625 72.6796875 63.69140625 72.6796875 65.5625 74.875 C66.18253906 75.59429687 66.80257812 76.31359375 67.44140625 77.0546875 C69 79 69 79 70 81 C67.73139163 81.5304408 65.46001511 82.04905434 63.1875 82.5625 C61.92292969 82.85253906 60.65835938 83.14257812 59.35546875 83.44140625 C56 84 56 84 53 83 C56.18934593 87.97776421 59.76991051 92.39371716 63.640625 96.8515625 C67 100.79082961 67 100.79082961 67 103 C67.66 103 68.32 103 69 103 C70.46190347 104.75964348 71.84428585 106.58566775 73.1875 108.4375 C73.98974207 109.54119655 74.79314078 110.64405324 75.59765625 111.74609375 C75.99871582 112.2963623 76.39977539 112.84663086 76.81298828 113.41357422 C79.04422896 116.39559848 81.46756405 119.22860848 83.8828125 122.0625 C85 124 85 124 84.8046875 126.125 C84 128 84 128 82 130 C74.63731807 125.49253134 67.69966769 120.61269353 60.83447266 115.38525391 C57.14374565 112.59829822 53.41290206 109.86532156 49.6875 107.125 C48.86773682 106.52171875 48.04797363 105.9184375 47.20336914 105.296875 C45.57003551 104.09525311 43.93649384 102.89391394 42.30273438 101.69287109 C40.22730253 100.16710302 38.15265426 98.64027609 36.078125 97.11328125 C26.42777635 90.01683484 16.71944374 83.00142219 7 76 C9.81887051 73.18112949 13.11071301 72.7744314 16.875 71.875 C17.59558594 71.69324219 18.31617187 71.51148437 19.05859375 71.32421875 C22.49945053 70.48143062 25.43681883 70 29 70 C29 69.34 29 68.68 29 68 C28.443125 67.7525 27.88625 67.505 27.3125 67.25 C20.63819403 63.64226704 14.93048319 57.6913488 9.3671875 52.58203125 C8.48289062 51.77121094 7.59859375 50.96039063 6.6875 50.125 C5.86636719 49.36445312 5.04523437 48.60390625 4.19921875 47.8203125 C2.04538051 45.81440597 2.04538051 45.81440597 -1 45 C-2.38671875 43.37109375 -2.38671875 43.37109375 -3.6875 41.4375 C-4.34298828 40.47650391 -4.34298828 40.47650391 -5.01171875 39.49609375 C-5.33785156 39.00238281 -5.66398437 38.50867188 -6 38 C0.64990964 36.54267938 7.2142064 35.54863863 14 35 C11.14813864 29.64523922 8.23776786 24.36129159 5.08203125 19.1796875 C4.57518799 18.33704346 4.06834473 17.49439941 3.54614258 16.6262207 C2.52121446 14.92674649 1.48337726 13.23498639 0.43237305 11.55151367 C-0.04031006 10.76236572 -0.51299316 9.97321777 -1 9.16015625 C-1.433125 8.45511963 -1.86625 7.75008301 -2.3125 7.02368164 C-3 5 -3 5 -2.1875 2.80249023 C-1 1 -1 1 0 0 Z " transform="translate(40,49)" style="fill: #040000;"/><path d="M0 0 C1.74609375 0.66015625 1.74609375 0.66015625 2.53125 2.2734375 C2.81468211 5.42211061 1.55593475 6.73732789 -0.36645508 9.12646484 C-0.84493896 9.69445801 -1.32342285 10.26245117 -1.81640625 10.84765625 C-2.55056763 11.74991943 -2.55056763 11.74991943 -3.29956055 12.67041016 C-4.93828501 14.67781565 -6.59529108 16.66916358 -8.25390625 18.66015625 C-10.08570279 20.88044052 -11.91488605 23.10285978 -13.74389648 25.32543945 C-14.92743974 26.7604361 -16.11426956 28.19273071 -17.30493164 29.62182617 C-23.90106742 37.2173671 -23.90106742 37.2173671 -29.25390625 45.66015625 C-28.04154297 45.75103516 -28.04154297 45.75103516 -26.8046875 45.84375 C-25.73605469 45.92753906 -24.66742188 46.01132812 -23.56640625 46.09765625 C-22.51066406 46.17886719 -21.45492187 46.26007813 -20.3671875 46.34375 C-17.60304328 46.62467306 -14.96444884 47.06172477 -12.25390625 47.66015625 C-12.67542969 48.14226562 -13.09695312 48.624375 -13.53125 49.12109375 C-14.07910156 49.75273437 -14.62695312 50.384375 -15.19140625 51.03515625 C-15.73667969 51.66164063 -16.28195313 52.288125 -16.84375 52.93359375 C-18.32349249 54.61647959 -18.32349249 54.61647959 -19.25390625 56.66015625 C-19.91390625 56.66015625 -20.57390625 56.66015625 -21.25390625 56.66015625 C-21.58390625 57.65015625 -21.91390625 58.64015625 -22.25390625 59.66015625 C-23.87493593 61.37124314 -25.54894088 63.03268931 -27.25390625 64.66015625 C-28.14078125 65.58828125 -29.02765625 66.51640625 -29.94140625 67.47265625 C-32.25390625 69.66015625 -32.25390625 69.66015625 -34.25390625 69.66015625 C-34.48851562 70.2221875 -34.723125 70.78421875 -34.96484375 71.36328125 C-37.47429197 75.83466172 -41.60672799 79.11718308 -45.25390625 82.66015625 C-40.63390625 83.65015625 -36.01390625 84.64015625 -31.25390625 85.66015625 C-31.25390625 86.32015625 -31.25390625 86.98015625 -31.25390625 87.66015625 C-32.72081184 88.99287505 -34.25713126 90.24929494 -35.81640625 91.47265625 C-40.56101432 95.26467891 -45.18172955 99.16219235 -49.75390625 103.16015625 C-55.00403518 107.74102779 -60.32011045 112.20546682 -65.7421875 116.58203125 C-69.09042964 119.35227203 -72.2911214 122.27153305 -75.4765625 125.2265625 C-77.25390625 126.66015625 -77.25390625 126.66015625 -79.25390625 126.66015625 C-79.25390625 127.32015625 -79.25390625 127.98015625 -79.25390625 128.66015625 C-80.24390625 128.99015625 -81.23390625 129.32015625 -82.25390625 129.66015625 C-83.87890625 128.03515625 -83.87890625 128.03515625 -85.25390625 125.66015625 C-84.12332987 121.08616723 -82.08604548 117.48539614 -79.56640625 113.53515625 C-78.85292266 112.40442984 -78.14071344 111.27289845 -77.4296875 110.140625 C-77.06955566 109.56876465 -76.70942383 108.9969043 -76.33837891 108.40771484 C-73.53511755 103.89043776 -70.90914674 99.26533898 -68.25390625 94.66015625 C-69.16269531 94.47839844 -69.16269531 94.47839844 -70.08984375 94.29296875 C-76.14453125 93.08203125 -82.19921875 91.87109375 -88.25390625 90.66015625 C-84.14153434 85.43633247 -79.66636179 81.40994884 -74.4765625 77.26953125 C-70.65264597 74.20458771 -66.95442393 70.99712872 -63.25390625 67.78515625 C-62.28336304 66.94573486 -62.28336304 66.94573486 -61.29321289 66.08935547 C-58.52611231 63.68524303 -55.82436397 61.27596364 -53.25390625 58.66015625 C-54.30578125 58.55703125 -55.35765625 58.45390625 -56.44140625 58.34765625 C-62.47656324 57.60821359 -68.3523733 56.09055829 -74.25390625 54.66015625 C-74.25390625 53.67015625 -74.25390625 52.68015625 -74.25390625 51.66015625 C-72.33984375 49.96875 -72.33984375 49.96875 -69.62890625 48.09765625 C-68.61699219 47.38867188 -67.60507813 46.6796875 -66.5625 45.94921875 C-66.01964355 45.57442383 -65.47678711 45.19962891 -64.91748047 44.81347656 C-62.15358939 42.89733018 -59.42505147 40.93155236 -56.69140625 38.97265625 C-55.49617541 38.11967723 -54.30086009 37.26681658 -53.10546875 36.4140625 C-43.26262695 29.38236894 -33.45643 22.30120247 -23.72753906 15.11254883 C-20.58372379 12.79005995 -17.4340137 10.47562536 -14.28466797 8.16064453 C-12.50681896 6.84702828 -10.74002717 5.52030568 -8.9765625 4.1875 C-8.09871094 3.53910156 -7.22085938 2.89070313 -6.31640625 2.22265625 C-5.60613281 1.68769531 -4.89585938 1.15273438 -4.1640625 0.6015625 C-2.25390625 -0.33984375 -2.25390625 -0.33984375 0 0 Z " transform="translate(122.25390625,322.33984375)" style="fill: #040000;"/><path d="M0 0 C4.72309987 0.34518199 7.32623105 2.51842888 10.9375 5.4375 C12.09731856 6.35883883 13.25883157 7.27804792 14.421875 8.1953125 C15.01548828 8.66485352 15.60910156 9.13439453 16.22070312 9.61816406 C18.98523335 11.76515104 21.82940701 13.79262153 24.6875 15.8125 C25.8646161 16.6470892 27.04169847 17.48172598 28.21875 18.31640625 C28.82847656 18.74840332 29.43820312 19.18040039 30.06640625 19.62548828 C40.97675759 27.38120521 51.78270582 35.28196762 62.54370117 43.24316406 C66.99994326 46.53806487 71.48091986 49.79175238 76 53 C73.18112949 55.81887051 69.88928699 56.2255686 66.125 57.125 C65.40441406 57.30675781 64.68382812 57.48851562 63.94140625 57.67578125 C60.50054947 58.51856938 57.56318117 59 54 59 C54 59.66 54 60.32 54 61 C54.59441895 61.27602051 55.18883789 61.55204102 55.80126953 61.83642578 C57.88274724 62.93794952 59.42210824 64.06503249 61.1796875 65.6171875 C61.77241455 66.13619629 62.3651416 66.65520508 62.97583008 67.18994141 C63.60255615 67.74601074 64.22928223 68.30208008 64.875 68.875 C66.20916871 70.04740632 67.54381626 71.21926791 68.87890625 72.390625 C69.55840332 72.98810547 70.23790039 73.58558594 70.93798828 74.20117188 C72.95327872 75.95924196 74.98550656 77.69474391 77.02734375 79.421875 C77.66365723 79.96086426 78.2999707 80.49985352 78.95556641 81.05517578 C80.17046158 82.08223021 81.38750388 83.10675155 82.60693359 84.12841797 C85.17279494 86.30544394 87.11949968 88.17924952 89 91 C82.33333333 92.33333333 75.66666667 93.66666667 69 95 C71.27031854 98.89613355 73.54134507 102.79185396 75.8125 106.6875 C76.45509766 107.79029297 77.09769531 108.89308594 77.75976562 110.02929688 C78.38173828 111.09599609 79.00371094 112.16269531 79.64453125 113.26171875 C80.21534424 114.24100342 80.78615723 115.22028809 81.37426758 116.22924805 C82.4566647 118.07398823 83.58201849 119.89419426 84.7487793 121.68676758 C86 124 86 124 85.375 126.75 C84 129 84 129 81 130 C81 129.34 81 128.68 81 128 C80.34 128 79.68 128 79 128 C79 127.34 79 126.68 79 126 C78.40687012 125.72526855 77.81374023 125.45053711 77.20263672 125.16748047 C75.09585802 124.05080836 73.53623332 122.89442955 71.7578125 121.3203125 C71.16613281 120.80339844 70.57445312 120.28648437 69.96484375 119.75390625 C69.05412109 118.94759766 69.05412109 118.94759766 68.125 118.125 C63.91180356 114.40107798 59.7263028 111.07552168 55 108 C53.31002677 106.35697047 51.64783606 104.68528688 50 103 C44.7021829 98.04190428 39.36557687 93.33066696 33.3984375 89.19140625 C32.93695313 88.79824219 32.47546875 88.40507812 32 88 C32 87.34 32 86.68 32 86 C36.62 85.01 41.24 84.02 46 83 C44.85402344 81.865625 43.70804687 80.73125 42.52734375 79.5625 C40.99726003 78.0418033 39.46731976 76.52096224 37.9375 75 C37.18533203 74.25621094 36.43316406 73.51242187 35.65820312 72.74609375 C31.44960035 68.55571003 27.42865344 64.27932405 23.55639648 59.77685547 C21.49769069 57.42654005 19.30156146 55.24032217 17.0625 53.0625 C15.69012855 51.72678621 14.32982791 50.37807563 13 49 C13 48.67 13 48.34 13 48 C24.52164009 45.70387244 24.52164009 45.70387244 30 46 C26.81065407 41.02223579 23.23008949 36.60628284 19.359375 32.1484375 C16 28.20917039 16 28.20917039 16 26 C15.34 26 14.68 26 14 26 C12.7734375 24.6015625 12.7734375 24.6015625 11.375 22.625 C8.29476255 18.36880983 5.0409773 14.28120647 1.734375 10.19921875 C0 8 0 8 -2 5 C-1.48275862 1.48275862 -1.48275862 1.48275862 0 0 Z " transform="translate(377,322)" style="fill: #040000;"/><path d="M0 0 C1.9375 0.8125 1.9375 0.8125 4 2 C4.495 3.485 4.495 3.485 5 5 C3.7582388 7.43551616 2.44015063 9.68294144 1 12 C-0.0811992 13.83021865 -1.15907574 15.66240252 -2.234375 17.49609375 C-3.40573083 19.47686961 -4.57761687 21.45733201 -5.75 23.4375 C-6.65298828 24.96407227 -6.65298828 24.96407227 -7.57421875 26.52148438 C-9.04901751 29.01459657 -10.52428979 31.50742724 -12 34 C-11.34338379 34.13132324 -10.68676758 34.26264648 -10.01025391 34.39794922 C-9.13288574 34.57342285 -8.25551758 34.74889648 -7.3515625 34.9296875 C-5.98112793 35.20377441 -5.98112793 35.20377441 -4.58300781 35.48339844 C-1.84700521 36.03059896 0.8889974 36.57779948 3.625 37.125 C4.46289062 37.29257813 5.30078125 37.46015625 6.1640625 37.6328125 C6.76992188 37.75398438 7.37578125 37.87515625 8 38 C0.33775708 47.85145518 -10.09505699 55.32598071 -19.7578125 63.125 C-21.97280323 64.90789448 -21.97280323 64.90789448 -23.6796875 66.75 C-25 68 -25 68 -27 68 C-27 68.66 -27 69.32 -27 70 C-25.96875 70.0825 -24.9375 70.165 -23.875 70.25 C-17.41463584 71.03130758 -11.21016344 73.12473997 -5 75 C-8.87155964 79.13365749 -13.02756533 82.29998497 -17.6875 85.5 C-19.21545096 86.56423291 -20.74277461 87.62936692 -22.26953125 88.6953125 C-23.44443115 89.51370605 -23.44443115 89.51370605 -24.64306641 90.34863281 C-28.41213615 92.98940221 -32.14575592 95.67839383 -35.875 98.375 C-36.61484131 98.90971924 -37.35468262 99.44443848 -38.11694336 99.99536133 C-42.86780065 103.43680229 -47.59757001 106.90600254 -52.31665039 110.39086914 C-54.70496667 112.15425025 -57.09644068 113.91327851 -59.48828125 115.671875 C-62.39540419 117.81024883 -65.28694176 119.96725501 -68.16796875 122.140625 C-69.42418935 123.07330715 -70.68068211 124.00562288 -71.9375 124.9375 C-72.49856445 125.36893311 -73.05962891 125.80036621 -73.63769531 126.24487305 C-77.46692192 129.05514601 -77.46692192 129.05514601 -80.37890625 128.75390625 C-82 128 -82 128 -82.78515625 126.38671875 C-83.06857246 123.23822232 -81.81012965 121.92309772 -79.88769531 119.53417969 C-79.40913086 118.96602539 -78.93056641 118.39787109 -78.4375 117.8125 C-77.94733398 117.20954102 -77.45716797 116.60658203 -76.95214844 115.98535156 C-75.31507201 113.97857977 -73.65929268 111.98843184 -72 110 C-69.58104685 107.08522426 -67.16516953 104.16791117 -64.75 101.25 C-64.15421143 100.53247559 -63.55842285 99.81495117 -62.94458008 99.07568359 C-58.6690264 93.89728096 -54.6767567 88.6257142 -51 83 C-51.80824219 82.93941406 -52.61648438 82.87882812 -53.44921875 82.81640625 C-55.05216797 82.69072266 -55.05216797 82.69072266 -56.6875 82.5625 C-58.27111328 82.44068359 -58.27111328 82.44068359 -59.88671875 82.31640625 C-62.65086297 82.03548319 -65.28945741 81.59843148 -68 81 C-67.10698344 79.93513145 -66.2104053 78.87324959 -65.3125 77.8125 C-64.81363281 77.22082031 -64.31476563 76.62914063 -63.80078125 76.01953125 C-61.62647262 73.58109836 -59.31027999 71.31027999 -57 69 C-54.71152911 66.57884367 -52.45073935 64.13222842 -50.1875 61.6875 C-45.22897748 56.34990344 -40.22531361 51.07926447 -35 46 C-35.67546875 45.86722656 -36.3509375 45.73445313 -37.046875 45.59765625 C-37.93890625 45.42105469 -38.8309375 45.24445313 -39.75 45.0625 C-40.63171875 44.88847656 -41.5134375 44.71445313 -42.421875 44.53515625 C-44.63235053 44.07631512 -46.81512068 43.56663926 -49 43 C-49 42.34 -49 41.68 -49 41 C-47.51261765 39.64617851 -45.95569449 38.36860114 -44.375 37.125 C-39.88680017 33.53444013 -35.47748015 29.87880962 -31.125 26.125 C-29.93372455 25.10010836 -28.7423177 24.07536943 -27.55078125 23.05078125 C-26.96119629 22.54369629 -26.37161133 22.03661133 -25.76416016 21.51416016 C-17.27162656 14.22510766 -8.68985715 7.05289007 0 0 Z " transform="translate(458,49)" style="fill: #040000;"/><path d="M0 0 C1.96230686 1.06460205 3.90804499 2.16058074 5.83203125 3.29296875 C10.0616575 5.46104384 13.85652517 5.58564289 18.46875 4.64453125 C20.66708054 3.77524413 22.65811175 2.7777171 24.70703125 1.6015625 C26.89920234 0.41069351 29.00417689 -0.04739711 31.46875 -0.35546875 C34.69937101 2.67323845 35.80502978 5.00026709 35.96875 9.33203125 C35.69270355 15.49706855 34.1206454 21.54217691 30.04296875 26.3125 C24.84652716 30.8912767 20.11930365 31.9111513 13.34375 31.83203125 C12.12429688 31.82558594 10.90484375 31.81914062 9.6484375 31.8125 C6.46875 31.64453125 6.46875 31.64453125 3.46875 30.64453125 C-3.12782508 29.50406247 -7.81267513 30.98733046 -13.59375 34.14453125 C-22.07778484 38.71120441 -26.87115644 38.51973951 -36.03125 35.95703125 C-43.58276844 33.45752281 -50.066259 30.52990617 -55.53125 24.64453125 C-59.07095718 23.46462886 -61.81308899 23.44883857 -65.53125 23.64453125 C-66.18222656 23.97710937 -66.83320313 24.3096875 -67.50390625 24.65234375 C-71.23549687 26.47859427 -74.62938534 25.73315722 -78.53125 24.64453125 C-82.79084795 22.6911502 -86.89395899 20.61713964 -90.53125 17.64453125 C-90.53125 13.64453125 -90.53125 13.64453125 -88.84375 11.42578125 C-81.63267272 4.31215096 -76.92050688 0.49511674 -66.59375 0.20703125 C-62.4326841 0.31722897 -58.96384261 0.61261959 -55.09375 2.14453125 C-47.99777338 4.88286731 -39.50253246 5.04616035 -32.34375 2.51953125 C-31.333125 2.06578125 -30.3225 1.61203125 -29.28125 1.14453125 C-20.29983016 -2.7204694 -9.2318879 -3.54365609 0 0 Z " transform="translate(278.53125,333.35546875)" style="fill: #0A0909;"/><path d="M0 0 C1.96992873 1.07566796 3.92775546 2.17388033 5.87109375 3.296875 C13.04997865 6.79506044 20.60775799 4.72890998 27.8359375 2.30078125 C28.43019531 2.08421875 29.02445312 1.86765625 29.63671875 1.64453125 C29.96436178 5.74006907 29.86741544 8.18313788 28.01171875 11.89453125 C24.67852568 15.75401796 22.07418333 17.45595949 16.91015625 17.85546875 C12.87900549 17.90865016 9.4815279 17.9261343 5.63671875 16.64453125 C-4.08920936 15.47675257 -12.28048436 18.25599999 -20.36328125 23.64453125 C-31.70435026 25.12380112 -41.69109722 19.23220866 -50.36328125 12.64453125 C-55.50161928 9.32602127 -60.36450772 8.84951307 -66.36328125 9.64453125 C-67.35328125 10.30453125 -68.34328125 10.96453125 -69.36328125 11.64453125 C-73.52197589 11.34748163 -75.86735347 10.97514977 -79.36328125 8.64453125 C-78.18787259 5.35338701 -76.37311106 3.25116191 -73.390625 1.40625 C-67.6201534 -0.76184627 -60.80545399 -0.14457693 -55.17578125 2.14453125 C-46.26148175 5.50963887 -35.47999703 4.95493823 -26.86328125 1.14453125 C-18.44035588 -2.53456882 -8.65819076 -3.48942183 0 0 Z " transform="translate(277.36328125,340.35546875)" style="fill: #F9F8F8;"/><path d="M0 0 C6.50251672 4.11826059 12.6324153 8.68284502 18.76586914 13.32202148 C23.27383776 16.72494636 27.82701132 20.0500334 32.4375 23.3125 C43.81584037 31.38036985 43.81584037 31.38036985 48 35 C48 35.33 48 35.66 48 36 C45.62734939 36.67617524 43.25244645 37.34108226 40.875 38 C40.20984375 38.19078125 39.5446875 38.3815625 38.859375 38.578125 C34.8013795 39.69208455 31.20314026 40.20950232 27 40 C34.73416829 47.81733139 42.92069185 55.04139098 51.47265625 61.94921875 C54.70401615 64.57126504 57.8554947 67.27476207 61 70 C56.68516188 72.31152042 53.14284126 73.13445355 48.25 73.0625 C47.45078125 73.05347656 46.6515625 73.04445313 45.828125 73.03515625 C45.22484375 73.02355469 44.6215625 73.01195312 44 73 C45.59921471 75.91940795 47.20523567 78.83501712 48.8125 81.75 C49.26431641 82.575 49.71613281 83.4 50.18164062 84.25 C50.62314453 85.04921875 51.06464844 85.8484375 51.51953125 86.671875 C52.12438354 87.77160645 52.12438354 87.77160645 52.74145508 88.89355469 C54.03013814 91.05044265 55.45854195 93.01784556 57 95 C56.67 95.66 56.34 96.32 56 97 C55.12859375 96.24976563 54.2571875 95.49953125 53.359375 94.7265625 C45.6296274 88.08111763 37.85223283 81.50038322 30 75 C30.33 74.34 30.66 73.68 31 73 C34.98375661 71.82830688 38.87439224 71.91910573 43 72 C39.63700957 68.07982773 36.2829586 64.21226796 32.5625 60.625 C30 58 30 58 30 56 C29.34 56 28.68 56 28 56 C26.66015625 54.63671875 26.66015625 54.63671875 25.0625 52.6875 C20.36032633 47.13853658 15.18055856 42.09624567 10 37 C13.40208828 33.59791172 17.77178592 33.94566173 22.375 33.9375 C23.57125 33.958125 24.7675 33.97875 26 34 C21.57818906 28.2114475 17.02756459 22.53034671 12.4375 16.875 C11.89585205 16.20662109 11.3542041 15.53824219 10.79614258 14.84960938 C7.64131481 10.97115344 4.42699067 7.16987138 1.08618164 3.44970703 C0 2 0 2 0 0 Z " transform="translate(392,338)" style="fill: #E41E22;"/><path d="M0 0 C0 3.53487596 -0.86246695 4.85736507 -2.625 7.88671875 C-3.16640625 8.82451172 -3.7078125 9.76230469 -4.265625 10.72851562 C-5.12414062 12.19321289 -5.12414062 12.19321289 -6 13.6875 C-6.85851562 15.16959961 -6.85851562 15.16959961 -7.734375 16.68164062 C-9.15052464 19.12449876 -10.57258458 21.56371318 -12 24 C-11.02417969 24.04898438 -10.04835938 24.09796875 -9.04296875 24.1484375 C-7.13451172 24.26058594 -7.13451172 24.26058594 -5.1875 24.375 C-3.92292969 24.44460937 -2.65835938 24.51421875 -1.35546875 24.5859375 C2 25 2 25 5 27 C-1.81137221 33.2499142 -8.82101225 39.17919912 -16 45 C-18.21435837 46.80526952 -20.4214662 48.61904017 -22.625 50.4375 C-23.62789063 51.26121094 -24.63078125 52.08492187 -25.6640625 52.93359375 C-28.04667619 54.78201002 -28.04667619 54.78201002 -29 57 C-28.16210938 56.95875 -27.32421875 56.9175 -26.4609375 56.875 C-22.56032504 57.01587991 -19.35705372 57.87334227 -15.625 59 C-14.37976563 59.37125 -13.13453125 59.7425 -11.8515625 60.125 C-10.44003906 60.558125 -10.44003906 60.558125 -9 61 C-10.10841514 64.32524542 -10.65163163 64.74479055 -13.40234375 66.6796875 C-14.11914307 67.18999512 -14.83594238 67.70030273 -15.57446289 68.22607422 C-16.35426514 68.77021973 -17.13406738 69.31436523 -17.9375 69.875 C-19.58083623 71.04151585 -21.2240622 72.20818705 -22.8671875 73.375 C-23.71506836 73.973125 -24.56294922 74.57125 -25.43652344 75.1875 C-29.49664784 78.05820129 -33.53073579 80.96465928 -37.5625 83.875 C-38.68942261 84.68723022 -38.68942261 84.68723022 -39.83911133 85.51586914 C-44.98116819 89.23285971 -50.05451959 93.02337102 -55 97 C-55 93.25408338 -54.21555699 92.83714691 -51.6875 90.1875 C-43.83966019 81.65663328 -36.89033621 72.31126515 -30 63 C-31.155 63.04125 -32.31 63.0825 -33.5 63.125 C-37.94481301 63.14087433 -41.73724131 62.21793105 -46 61 C-41.84443819 55.94593833 -37.37752009 51.29814817 -32.69604492 46.7331543 C-30.00391915 44.129846 -30.00391915 44.129846 -28 41 C-27.34 41 -26.68 41 -26 41 C-25.66162109 40.16855469 -25.66162109 40.16855469 -25.31640625 39.3203125 C-23.61133714 36.31493845 -21.42200049 34.27012997 -18.9375 31.875 C-15.53546517 28.75894235 -15.53546517 28.75894235 -13 25 C-16.96 24.67 -20.92 24.34 -25 24 C-25 23.01 -25 22.02 -25 21 C-22.94352862 19.00056943 -20.89938365 17.18768234 -18.6875 15.375 C-18.05827637 14.8480957 -17.42905273 14.32119141 -16.78076172 13.77832031 C-14.86169365 12.17578457 -12.93243482 10.58637911 -11 9 C-10.42491699 8.52530273 -9.84983398 8.05060547 -9.25732422 7.56152344 C-6.18438241 5.02503969 -3.09903398 2.50452542 0 0 Z " transform="translate(448,65)" style="fill: #E41E22;"/><path d="M0 0 C0 3.74591662 -0.78444301 4.16285309 -3.3125 6.8125 C-11.16033981 15.34336672 -18.10966379 24.68873485 -25 34 C-24.18015625 34.04898438 -23.3603125 34.09796875 -22.515625 34.1484375 C-21.43796875 34.22320312 -20.3603125 34.29796875 -19.25 34.375 C-18.18265625 34.44460938 -17.1153125 34.51421875 -16.015625 34.5859375 C-13.15490088 34.97873123 -11.49842262 35.65650859 -9 37 C-9.47832275 37.47308594 -9.95664551 37.94617188 -10.44946289 38.43359375 C-12.6565534 40.61964406 -14.85953633 42.80979129 -17.0625 45 C-18.19075195 46.11568359 -18.19075195 46.11568359 -19.34179688 47.25390625 C-23.5603542 51.45420142 -27.60019321 55.73823863 -31.48364258 60.25 C-33.35398229 62.4085244 -35.30320741 64.47057422 -37.3125 66.5 C-37.96863281 67.1703125 -38.62476562 67.840625 -39.30078125 68.53125 C-41 70 -41 70 -43 70 C-43 70.66 -43 71.32 -43 72 C-41.989375 71.95875 -40.97875 71.9175 -39.9375 71.875 C-35.81923948 72.00573843 -32.88169467 72.73250786 -29 74 C-37.17423747 82.26229029 -45.82206446 89.87266611 -55 97 C-55 93.46512404 -54.13753305 92.14263493 -52.375 89.11328125 C-51.83359375 88.17548828 -51.2921875 87.23769531 -50.734375 86.27148438 C-50.16203125 85.29501953 -49.5896875 84.31855469 -49 83.3125 C-48.42765625 82.32443359 -47.8553125 81.33636719 -47.265625 80.31835938 C-45.84950871 77.87555878 -44.42549398 75.43734015 -43 73 C-48.61 72.67 -54.22 72.34 -60 72 C-57.93842676 67.87685353 -55.72451769 65.8135069 -52.25 63 C-51.07888745 62.03190243 -49.90833484 61.06312718 -48.73828125 60.09375 C-48.12807129 59.59101563 -47.51786133 59.08828125 -46.88916016 58.5703125 C-43.10447329 55.42439548 -39.39372795 52.19128829 -35.67089844 48.97265625 C-32.84972836 46.54464049 -30.01610495 44.18280456 -27 42 C-33.4055959 38.87168572 -40.05029175 37.47354716 -47 36 C-43.00506338 31.73090106 -38.64480235 28.42585537 -33.875 25.0625 C-32.2741362 23.9201159 -30.67389761 22.77685528 -29.07421875 21.6328125 C-28.24583496 21.04145508 -27.41745117 20.45009766 -26.56396484 19.84082031 C-22.24636814 16.74096513 -17.96592396 13.59109771 -13.6875 10.4375 C-12.8939209 9.85427979 -12.1003418 9.27105957 -11.28271484 8.67016602 C-7.4596571 5.85198638 -3.68030904 3.00448383 0 0 Z " transform="translate(107,338)" style="fill: #E41E22;"/><path d="M0 0 C4.93939716 2.98963512 9.00341029 6.64439193 13.25390625 10.5390625 C17.70115387 14.52450489 22.34673798 18.25792807 27 22 C26.67 22.66 26.34 23.32 26 24 C23.27734375 24.4140625 23.27734375 24.4140625 19.9375 24.625 C18.83277344 24.69976562 17.72804688 24.77453125 16.58984375 24.8515625 C15.73519531 24.90054688 14.88054687 24.94953125 14 25 C17.38209983 28.9577764 20.78357646 32.85099458 24.5 36.5 C26.851726 38.81019441 29.05039265 41.17782188 31.1875 43.6875 C36.13068597 49.43565433 41.60319165 54.68294744 47 60 C43.59648662 62.03219488 40.6767073 62.36891039 36.75 62.625 C35.13351563 62.73714844 35.13351563 62.73714844 33.484375 62.8515625 C32.66453125 62.90054688 31.8446875 62.94953125 31 63 C36.52264536 70.22964484 42.2638645 77.27765307 48.01171875 84.328125 C50.35745641 87.20587803 52.68686825 90.09592219 55 93 C54.67 93.66 54.34 94.32 54 95 C43.77408421 87.64798608 33.58447322 80.25014725 23.4597168 72.75927734 C22.34463745 71.93484131 22.34463745 71.93484131 21.20703125 71.09375 C20.50143066 70.57039063 19.79583008 70.04703125 19.06884766 69.5078125 C17.05370026 68.03913769 15.00508519 66.62954774 12.94921875 65.21875 C11.97597656 64.4865625 11.00273438 63.754375 10 63 C10 62.34 10 61.68 10 61 C15.94 59.35 21.88 57.7 28 56 C28 55.34 28 54.68 28 54 C26.42713316 52.58561594 24.78860004 51.24395599 23.125 49.9375 C19.31164438 46.88974135 15.60191191 43.79499659 12 40.5 C6.83146925 35.78849367 1.44961941 31.38248861 -4 27 C-1.00168672 24.00168672 2.15252181 24.02935923 6.30444336 23.96337891 C7.09987549 23.96772949 7.89530762 23.97208008 8.71484375 23.9765625 C9.51913818 23.97994629 10.32343262 23.98333008 11.15209961 23.98681641 C12.0668103 23.99334229 12.0668103 23.99334229 13 24 C12.64172119 23.37955811 12.28344238 22.75911621 11.91430664 22.11987305 C10.29422328 19.31069425 8.67831835 16.49913398 7.0625 13.6875 C6.49853516 12.71103516 5.93457031 11.73457031 5.35351562 10.72851562 C4.81533203 9.79072266 4.27714844 8.85292969 3.72265625 7.88671875 C3.22515869 7.02264404 2.72766113 6.15856934 2.21508789 5.26831055 C1 3 1 3 0 0 Z " transform="translate(51,65)" style="fill: #E51E22;"/><path d="M0 0 C3.47485838 2.07012839 5.74352278 4.11634312 7 8 C7.51555338 11.9525759 7.15914688 13.7044415 5.25 17.25 C1.89889879 21.34579037 0.38667774 21.84343961 -4.875 22.4375 C-8.12458092 22.3646122 -9.89939678 21.71798257 -12.4375 19.6875 C-15.4301569 16.54885984 -15.89293685 14.94572445 -16.375 10.6875 C-15.87765929 5.79698299 -14.42915508 4.42915508 -11 1 C-7.53749757 -0.73125121 -3.78591771 -0.47815224 0 0 Z " transform="translate(305,239)" style="fill: #050505;"/><path d="M0 0 C3.07469523 1.70251719 5.40613254 3.81226508 7 7 C7.40710593 11.23390162 7.25575965 13.51588352 5.25 17.3125 C1.85324833 21.36973116 0.35053057 21.87137804 -4.9375 22.375 C-8.09516598 22.29267724 -9.04689792 21.97145344 -11.875 20.25 C-14.99497149 16.94650078 -15.84963004 15.1599968 -16.4375 10.625 C-15.85694294 5.8146701 -14.38607407 4.38607407 -11 1 C-7.51556578 -0.74221711 -3.80112955 -0.58675154 0 0 Z " transform="translate(204,239)" style="fill: #050505;"/><path d="M0 0 C5.64675325 2.2587013 5.64675325 2.2587013 8.25 5.9375 C8.75015625 6.62714844 9.2503125 7.31679687 9.765625 8.02734375 C12.99693708 13.19130768 12.52447107 19.12883776 12 25 C10.4444272 30.73194761 8.15544288 34.79526524 3 38 C2.67 38 2.34 38 2 38 C1.34 25.46 0.68 12.92 0 0 Z " transform="translate(383,218)" style="fill: #EADBD5;"/><path d="M0 0 C-0.06566162 0.55220215 -0.13132324 1.1044043 -0.19897461 1.67333984 C-1.04096249 9.31385801 -1.32126805 16.94512379 -1.5625 24.625 C-1.60568359 25.91535156 -1.64886719 27.20570313 -1.69335938 28.53515625 C-1.79852148 31.69001933 -1.90066604 34.84494895 -2 38 C-7.77628291 34.70102887 -9.91799974 31.30573029 -12 25 C-12.97611829 18.44486077 -12.66848569 12.48599873 -9.28125 6.69140625 C-6.98861417 3.66484736 -4.01651136 0 0 0 Z " transform="translate(117,222)" style="fill: #EADBD5;"/><path d="M0 0 C7.06156585 4.46355054 15.61083742 11.30492451 18.41015625 19.5234375 C18.01953125 21.75 18.01953125 21.75 17.41015625 23.5234375 C15.640625 23.34765625 15.640625 23.34765625 13.41015625 22.5234375 C11.5859375 20.23046875 11.5859375 20.23046875 9.72265625 17.3359375 C5.96680843 11.93032474 2.17059142 8.63104068 -3.58984375 5.5234375 C-4.22019531 5.14703125 -4.85054688 4.770625 -5.5 4.3828125 C-12.23356005 1.61387192 -21.53962829 3.58340877 -28.58984375 4.5234375 C-28.91984375 3.2034375 -29.24984375 1.8834375 -29.58984375 0.5234375 C-20.97293924 -4.52060417 -8.94363645 -4.21052668 0 0 Z " transform="translate(313.58984375,193.4765625)" style="fill: #0E0C0C;"/><path d="M0 0 C0 1.32 0 2.64 0 4 C-5.75 4.125 -5.75 4.125 -8 3 C-15.96655851 2.23107584 -23.08421968 2.75983305 -30 7 C-35.58122984 11.61833396 -40.02483904 16.97314307 -44 23 C-44.99 22.67 -45.98 22.34 -47 22 C-46.15565623 14.03078274 -41.47443542 8.86904137 -35.421875 3.87109375 C-24.59810191 -3.8902645 -12.39220866 -6.06965322 0 0 Z " transform="translate(216,194)" style="fill: #0C0B0B;"/><path d="M0 0 C9.9 0 19.8 0 30 0 C29.67 1.65 29.34 3.3 29 5 C19.76 5 10.52 5 1 5 C0.67 3.35 0.34 1.7 0 0 Z " transform="translate(235,298)" style="fill: #0B0A09;"/></svg>