<?xml version="1.0" encoding="utf-8" ?>
<svg baseProfile="full" height="500" version="1.1" viewBox="0 0 500 500" width="500" xmlns="http://www.w3.org/2000/svg" xmlns:ev="http://www.w3.org/2001/xml-events" xmlns:xlink="http://www.w3.org/1999/xlink"><defs /><path d="M 58,175 L 57,176 L 56,176 L 53,179 L 53,180 L 52,181 L 52,182 L 51,183 L 51,184 L 50,185 L 52,187 L 52,188 L 53,189 L 53,190 L 54,191 L 55,191 L 56,192 L 57,192 L 59,194 L 60,193 L 61,194 L 63,194 L 64,195 L 68,195 L 69,196 L 70,196 L 71,195 L 72,195 L 73,196 L 74,196 L 75,197 L 76,196 L 77,197 L 78,196 L 92,196 L 93,195 L 101,195 L 102,196 L 103,195 L 100,192 L 99,192 L 96,189 L 95,189 L 92,186 L 91,186 L 90,185 L 89,185 L 87,183 L 86,183 L 85,182 L 84,182 L 83,181 L 82,181 L 81,180 L 80,180 L 79,179 L 78,179 L 77,178 L 76,178 L 75,177 L 73,177 L 72,176 L 69,176 L 68,175 Z" fill="#000000" stroke="none" /><path d="M 212,55 L 211,56 L 207,56 L 206,57 L 204,57 L 203,58 L 201,58 L 200,59 L 199,59 L 198,60 L 197,60 L 196,61 L 195,61 L 194,62 L 193,62 L 192,63 L 191,63 L 188,66 L 187,66 L 180,73 L 179,73 L 179,74 L 176,77 L 176,78 L 175,79 L 175,80 L 174,81 L 174,83 L 172,85 L 172,87 L 170,89 L 171,90 L 170,91 L 170,92 L 169,93 L 169,95 L 168,96 L 168,98 L 167,99 L 167,101 L 165,103 L 166,104 L 165,105 L 165,109 L 163,111 L 164,112 L 164,114 L 163,115 L 163,125 L 162,126 L 162,129 L 163,130 L 163,139 L 164,140 L 164,142 L 165,143 L 165,146 L 166,147 L 170,147 L 171,148 L 171,149 L 172,148 L 177,148 L 179,150 L 179,153 L 178,154 L 178,164 L 177,165 L 178,166 L 178,168 L 177,169 L 177,170 L 175,172 L 175,173 L 171,177 L 171,178 L 170,179 L 169,179 L 168,180 L 167,180 L 166,179 L 165,179 L 164,178 L 152,178 L 151,179 L 149,179 L 147,181 L 146,181 L 142,185 L 142,186 L 140,188 L 140,189 L 139,190 L 139,192 L 138,193 L 138,194 L 137,195 L 138,196 L 136,198 L 126,198 L 125,199 L 124,199 L 120,203 L 120,204 L 118,206 L 118,208 L 117,209 L 117,211 L 115,213 L 110,213 L 109,214 L 106,214 L 105,215 L 104,215 L 102,217 L 101,217 L 101,218 L 98,221 L 98,222 L 97,223 L 97,225 L 95,227 L 95,229 L 94,230 L 92,230 L 91,231 L 89,231 L 88,232 L 87,232 L 86,233 L 85,233 L 83,235 L 82,235 L 82,236 L 81,237 L 80,237 L 80,239 L 79,240 L 79,250 L 78,251 L 80,253 L 80,255 L 81,256 L 81,257 L 82,258 L 82,259 L 83,260 L 82,261 L 85,264 L 85,266 L 84,267 L 84,269 L 83,270 L 83,271 L 81,273 L 81,274 L 80,275 L 79,275 L 79,276 L 78,277 L 77,277 L 77,278 L 75,280 L 74,280 L 73,281 L 71,281 L 70,282 L 69,282 L 68,283 L 64,283 L 63,284 L 52,284 L 51,285 L 28,285 L 27,284 L 17,284 L 16,285 L 16,286 L 15,287 L 15,289 L 14,290 L 14,291 L 12,293 L 13,294 L 12,295 L 12,297 L 11,298 L 11,301 L 10,302 L 10,304 L 9,305 L 9,309 L 8,310 L 8,312 L 7,313 L 8,314 L 7,315 L 7,320 L 6,321 L 6,328 L 5,329 L 5,344 L 4,345 L 5,346 L 5,360 L 4,361 L 5,362 L 5,365 L 6,366 L 6,375 L 7,376 L 7,382 L 8,383 L 26,383 L 27,382 L 39,382 L 40,381 L 51,381 L 52,380 L 53,381 L 54,380 L 61,380 L 62,379 L 71,379 L 72,378 L 78,378 L 79,379 L 80,379 L 81,380 L 82,380 L 84,382 L 85,382 L 86,383 L 87,383 L 88,384 L 89,384 L 90,385 L 92,385 L 94,387 L 96,387 L 97,388 L 102,388 L 103,389 L 108,389 L 109,390 L 120,390 L 121,391 L 122,390 L 130,390 L 134,394 L 134,395 L 133,396 L 133,397 L 127,403 L 127,404 L 124,407 L 124,408 L 122,410 L 122,411 L 120,413 L 120,414 L 119,415 L 119,416 L 118,417 L 118,418 L 117,419 L 117,420 L 116,421 L 116,422 L 115,423 L 115,425 L 114,426 L 114,428 L 113,429 L 114,430 L 113,431 L 113,435 L 114,436 L 114,438 L 115,439 L 115,441 L 116,441 L 118,443 L 120,443 L 121,444 L 125,444 L 126,443 L 128,443 L 128,442 L 130,440 L 131,440 L 131,437 L 132,436 L 132,435 L 133,434 L 133,431 L 134,430 L 134,425 L 135,424 L 135,416 L 136,415 L 136,399 L 137,398 L 139,398 L 140,399 L 141,399 L 143,401 L 144,401 L 145,402 L 146,402 L 147,403 L 148,403 L 149,404 L 150,404 L 151,405 L 151,406 L 152,405 L 153,406 L 155,406 L 156,407 L 158,407 L 159,408 L 161,408 L 162,409 L 163,409 L 164,410 L 165,409 L 169,409 L 170,410 L 174,410 L 175,409 L 182,409 L 183,408 L 184,409 L 185,408 L 186,408 L 187,407 L 189,407 L 190,406 L 191,406 L 192,405 L 194,405 L 195,404 L 197,404 L 200,401 L 201,401 L 202,400 L 206,400 L 207,399 L 210,399 L 211,400 L 211,403 L 212,404 L 212,406 L 213,407 L 213,408 L 214,409 L 214,410 L 219,415 L 220,415 L 222,417 L 223,417 L 224,418 L 226,418 L 227,419 L 229,419 L 230,420 L 234,420 L 235,421 L 237,421 L 238,422 L 240,420 L 242,420 L 243,419 L 244,419 L 245,418 L 247,418 L 248,417 L 249,417 L 250,416 L 251,416 L 252,415 L 253,415 L 254,414 L 255,414 L 256,413 L 257,413 L 257,412 L 258,411 L 260,413 L 260,416 L 261,417 L 261,421 L 262,422 L 262,423 L 263,424 L 263,425 L 264,426 L 264,427 L 265,428 L 265,429 L 266,430 L 266,431 L 273,438 L 274,438 L 275,439 L 276,439 L 277,440 L 278,440 L 279,441 L 281,441 L 282,442 L 283,442 L 284,443 L 285,442 L 291,442 L 292,443 L 293,442 L 297,442 L 298,441 L 301,441 L 302,440 L 304,440 L 305,439 L 306,439 L 307,438 L 308,438 L 309,437 L 310,437 L 312,435 L 313,435 L 314,434 L 315,434 L 315,433 L 316,432 L 317,432 L 317,431 L 318,430 L 318,429 L 319,428 L 320,428 L 319,427 L 320,426 L 320,425 L 321,424 L 322,424 L 321,423 L 321,422 L 322,421 L 322,419 L 323,418 L 323,413 L 324,412 L 323,411 L 324,410 L 323,409 L 323,402 L 322,401 L 322,398 L 324,396 L 327,396 L 328,397 L 346,397 L 347,398 L 360,398 L 361,399 L 362,398 L 389,398 L 390,399 L 391,399 L 392,398 L 398,398 L 399,397 L 407,397 L 408,396 L 412,396 L 413,397 L 415,397 L 416,398 L 417,397 L 420,397 L 421,398 L 425,398 L 426,399 L 431,399 L 432,400 L 435,400 L 436,401 L 440,401 L 441,402 L 443,402 L 444,403 L 447,403 L 448,404 L 450,404 L 451,405 L 453,405 L 454,406 L 456,406 L 457,407 L 458,407 L 459,408 L 460,408 L 461,409 L 462,409 L 463,410 L 464,410 L 465,411 L 466,411 L 467,412 L 468,412 L 469,413 L 470,413 L 471,414 L 472,414 L 473,415 L 474,415 L 475,416 L 476,416 L 477,417 L 477,418 L 478,417 L 479,418 L 480,418 L 482,420 L 484,420 L 484,419 L 485,418 L 485,417 L 486,416 L 487,416 L 486,415 L 487,414 L 487,412 L 489,410 L 488,409 L 489,408 L 489,406 L 490,405 L 490,402 L 492,400 L 491,399 L 491,398 L 492,397 L 492,393 L 493,392 L 493,385 L 494,384 L 494,381 L 495,380 L 494,379 L 494,371 L 495,370 L 494,369 L 494,365 L 493,364 L 493,358 L 492,357 L 492,355 L 493,354 L 491,352 L 491,349 L 490,348 L 490,346 L 489,345 L 489,343 L 488,342 L 488,340 L 487,339 L 487,338 L 486,337 L 487,336 L 485,334 L 485,333 L 484,332 L 484,331 L 482,329 L 482,328 L 481,327 L 481,326 L 479,324 L 479,323 L 478,322 L 478,321 L 477,321 L 474,318 L 473,318 L 472,317 L 471,317 L 470,316 L 468,316 L 467,315 L 466,315 L 465,314 L 464,314 L 463,313 L 461,313 L 460,312 L 459,312 L 458,311 L 457,311 L 456,310 L 454,310 L 453,309 L 452,309 L 451,308 L 450,308 L 449,307 L 448,307 L 447,306 L 445,306 L 443,304 L 441,304 L 440,303 L 439,303 L 438,302 L 437,302 L 436,301 L 435,301 L 434,300 L 433,300 L 432,299 L 431,299 L 430,298 L 429,298 L 428,297 L 427,297 L 426,296 L 425,296 L 423,294 L 422,294 L 420,292 L 419,292 L 412,285 L 413,284 L 415,284 L 416,283 L 417,283 L 418,282 L 419,282 L 419,281 L 422,278 L 422,277 L 423,276 L 423,275 L 424,274 L 424,273 L 425,272 L 425,268 L 426,267 L 426,262 L 425,261 L 425,257 L 424,256 L 424,255 L 423,254 L 423,252 L 421,250 L 421,249 L 419,247 L 418,247 L 416,245 L 415,245 L 414,244 L 411,244 L 410,243 L 411,242 L 410,241 L 410,236 L 409,235 L 409,233 L 407,231 L 407,230 L 405,228 L 404,228 L 402,226 L 400,226 L 399,225 L 397,225 L 394,222 L 394,221 L 395,220 L 393,218 L 393,216 L 392,215 L 393,214 L 391,212 L 391,211 L 389,209 L 389,208 L 388,208 L 384,204 L 382,204 L 381,203 L 378,203 L 377,202 L 371,202 L 370,203 L 366,203 L 365,204 L 363,204 L 361,202 L 361,198 L 359,196 L 359,194 L 357,192 L 357,191 L 356,190 L 356,189 L 354,187 L 354,186 L 349,181 L 348,181 L 345,178 L 344,178 L 342,176 L 341,176 L 340,175 L 339,175 L 338,174 L 336,174 L 335,173 L 333,173 L 332,172 L 329,172 L 328,171 L 315,171 L 314,172 L 310,172 L 309,173 L 307,173 L 306,174 L 304,174 L 303,175 L 302,175 L 300,177 L 299,177 L 298,178 L 297,178 L 294,181 L 293,181 L 292,182 L 291,182 L 290,181 L 290,180 L 289,180 L 288,179 L 288,178 L 286,178 L 285,177 L 284,177 L 283,176 L 277,176 L 276,177 L 273,177 L 272,178 L 271,178 L 270,179 L 268,179 L 266,181 L 260,175 L 259,175 L 258,174 L 257,174 L 256,173 L 254,173 L 253,172 L 251,172 L 250,171 L 245,171 L 244,170 L 244,169 L 245,168 L 244,167 L 244,163 L 243,162 L 243,150 L 245,148 L 246,149 L 247,148 L 249,148 L 249,147 L 250,146 L 249,145 L 249,137 L 250,136 L 249,135 L 249,134 L 250,133 L 250,131 L 251,130 L 251,128 L 257,122 L 263,122 L 264,123 L 267,123 L 268,124 L 269,124 L 270,125 L 271,125 L 272,126 L 273,125 L 274,125 L 275,126 L 278,126 L 279,127 L 282,127 L 283,128 L 285,128 L 286,129 L 287,129 L 288,130 L 289,129 L 290,130 L 293,130 L 294,131 L 296,131 L 297,132 L 297,133 L 298,132 L 300,132 L 301,133 L 304,133 L 305,134 L 307,134 L 308,135 L 311,135 L 312,136 L 314,136 L 315,137 L 316,137 L 317,138 L 318,137 L 319,138 L 321,138 L 322,139 L 324,139 L 325,140 L 327,140 L 328,141 L 329,141 L 330,142 L 331,141 L 332,142 L 336,142 L 341,137 L 342,137 L 342,135 L 345,132 L 345,131 L 347,129 L 347,128 L 348,127 L 348,126 L 350,124 L 350,122 L 351,121 L 351,120 L 353,118 L 352,117 L 352,115 L 353,114 L 353,102 L 352,101 L 352,99 L 351,98 L 351,96 L 350,95 L 350,94 L 349,93 L 349,92 L 348,91 L 348,90 L 344,86 L 342,86 L 341,85 L 340,85 L 339,84 L 337,84 L 336,83 L 334,83 L 333,82 L 331,82 L 330,81 L 329,81 L 328,80 L 325,80 L 324,79 L 322,79 L 321,78 L 319,78 L 318,77 L 315,77 L 314,76 L 312,76 L 311,75 L 309,75 L 308,74 L 305,74 L 304,73 L 301,73 L 300,72 L 298,72 L 297,71 L 294,71 L 293,70 L 290,70 L 289,69 L 286,69 L 285,68 L 282,68 L 281,67 L 278,67 L 277,66 L 274,66 L 273,65 L 270,65 L 269,64 L 266,64 L 265,63 L 262,63 L 261,62 L 257,62 L 256,61 L 253,61 L 252,60 L 248,60 L 247,59 L 243,59 L 242,58 L 239,58 L 238,57 L 235,57 L 234,56 L 230,56 L 229,55 Z" fill="#000000" stroke="none" /><path d="M 129,412 L 128,413 L 128,414 L 126,416 L 126,417 L 125,418 L 125,419 L 123,421 L 123,423 L 122,424 L 122,425 L 121,426 L 121,428 L 120,429 L 120,436 L 121,437 L 122,437 L 123,438 L 125,436 L 125,435 L 126,434 L 126,432 L 127,431 L 127,428 L 128,427 L 128,422 L 129,421 Z" fill="#c0d8d8" stroke="none" /><path d="M 316,345 L 316,364 L 317,365 L 317,368 L 318,369 L 318,370 L 321,373 L 323,373 L 324,372 L 324,366 L 323,365 L 323,362 L 322,361 L 322,359 L 321,358 L 321,357 L 320,356 L 320,354 L 319,353 L 319,352 L 318,351 L 318,350 L 317,349 L 317,347 L 316,346 Z" fill="#c0d8d8" stroke="none" /><path d="M 154,319 L 152,321 L 152,322 L 150,324 L 151,323 L 153,323 L 154,322 L 156,322 L 157,321 L 158,321 L 157,320 L 157,319 Z" fill="#c0d8d8" stroke="none" /><path d="M 165,305 L 164,306 L 163,306 L 163,311 L 164,312 L 164,318 L 165,319 L 165,322 L 166,323 L 166,326 L 164,328 L 159,328 L 158,329 L 156,329 L 155,330 L 153,330 L 152,331 L 151,331 L 149,333 L 148,333 L 148,341 L 147,342 L 142,342 L 142,344 L 141,345 L 140,344 L 136,344 L 135,343 L 135,340 L 136,339 L 136,337 L 137,336 L 137,335 L 138,334 L 138,332 L 139,331 L 139,328 L 140,327 L 140,325 L 141,324 L 141,323 L 142,322 L 142,321 L 145,318 L 145,317 L 147,315 L 148,315 L 150,313 L 151,313 L 152,312 L 155,312 L 156,313 L 156,308 L 155,309 L 154,309 L 153,310 L 152,310 L 150,312 L 149,312 L 142,319 L 142,320 L 140,322 L 140,323 L 139,324 L 139,325 L 138,326 L 138,327 L 137,328 L 137,329 L 136,330 L 136,333 L 135,334 L 135,348 L 136,349 L 136,352 L 137,353 L 137,354 L 138,355 L 138,356 L 139,357 L 139,358 L 140,359 L 140,360 L 141,361 L 141,362 L 149,370 L 150,370 L 152,372 L 153,372 L 154,373 L 155,373 L 156,374 L 157,374 L 158,375 L 160,375 L 161,376 L 164,376 L 165,377 L 177,377 L 178,376 L 181,376 L 182,375 L 184,375 L 185,374 L 186,374 L 187,373 L 188,373 L 189,372 L 190,372 L 192,370 L 193,370 L 200,363 L 200,362 L 202,360 L 202,359 L 203,358 L 203,357 L 204,356 L 204,355 L 205,354 L 205,352 L 206,351 L 206,348 L 207,347 L 207,335 L 206,334 L 206,331 L 205,330 L 205,328 L 204,327 L 204,326 L 203,325 L 203,324 L 202,323 L 202,322 L 200,320 L 200,319 L 193,312 L 192,312 L 190,310 L 189,310 L 188,309 L 187,309 L 186,308 L 185,308 L 184,307 L 182,307 L 181,306 L 178,306 L 177,305 Z" fill="#c0d8d8" stroke="none" /><path d="M 368,304 L 367,305 L 366,305 L 365,306 L 364,306 L 360,310 L 360,311 L 359,312 L 359,314 L 358,315 L 358,318 L 359,319 L 359,321 L 360,322 L 360,323 L 364,327 L 365,327 L 366,328 L 375,328 L 377,326 L 378,326 L 381,323 L 381,322 L 382,321 L 382,318 L 383,317 L 383,315 L 382,314 L 382,312 L 381,311 L 381,310 L 377,306 L 376,306 L 375,305 L 374,305 L 373,304 Z" fill="#c0d8d8" stroke="none" /><path d="M 61,181 L 60,182 L 59,182 L 58,183 L 58,185 L 60,187 L 62,187 L 63,188 L 67,188 L 68,189 L 84,189 L 83,189 L 81,187 L 80,187 L 79,186 L 78,186 L 77,185 L 76,185 L 75,184 L 73,184 L 72,183 L 70,183 L 69,182 L 66,182 L 65,181 Z" fill="#c0d8d8" stroke="none" /><path d="M 321,175 L 320,176 L 313,176 L 312,177 L 310,177 L 309,178 L 307,178 L 306,179 L 305,179 L 304,180 L 303,180 L 302,181 L 301,181 L 298,184 L 297,184 L 292,189 L 292,190 L 290,192 L 290,193 L 288,195 L 288,196 L 287,197 L 287,199 L 286,200 L 286,202 L 285,203 L 285,206 L 284,207 L 284,217 L 285,218 L 285,222 L 286,223 L 286,225 L 287,226 L 287,228 L 288,229 L 288,230 L 290,232 L 290,233 L 292,235 L 292,236 L 297,241 L 298,241 L 301,244 L 302,244 L 303,245 L 304,245 L 305,246 L 306,246 L 307,247 L 309,247 L 310,248 L 312,248 L 313,249 L 320,249 L 321,250 L 322,249 L 329,249 L 330,248 L 333,248 L 334,247 L 335,247 L 336,246 L 337,246 L 338,245 L 339,245 L 340,244 L 341,244 L 343,242 L 344,242 L 351,235 L 351,234 L 353,232 L 353,231 L 354,230 L 354,229 L 355,228 L 355,227 L 356,226 L 356,224 L 357,223 L 357,220 L 358,219 L 358,206 L 357,205 L 357,202 L 356,201 L 356,199 L 355,198 L 355,197 L 354,196 L 354,195 L 353,194 L 353,193 L 351,191 L 351,190 L 344,183 L 343,183 L 341,181 L 340,181 L 339,180 L 338,180 L 337,179 L 336,179 L 335,178 L 334,178 L 333,177 L 330,177 L 329,176 L 322,176 Z" fill="#c0d8d8" stroke="none" /><path d="M 185,150 L 185,159 L 184,160 L 184,175 L 183,176 L 183,189 L 182,190 L 183,189 L 184,190 L 185,190 L 186,191 L 187,191 L 189,193 L 190,193 L 191,194 L 191,195 L 193,197 L 193,198 L 194,199 L 194,203 L 195,204 L 195,210 L 194,211 L 194,215 L 193,216 L 193,219 L 192,220 L 192,222 L 191,223 L 191,224 L 190,225 L 190,226 L 189,227 L 191,227 L 192,228 L 195,228 L 196,229 L 198,229 L 200,231 L 201,231 L 202,232 L 203,232 L 206,235 L 207,234 L 207,233 L 208,232 L 208,231 L 214,225 L 215,225 L 216,224 L 217,224 L 218,223 L 221,223 L 222,222 L 229,222 L 230,221 L 230,220 L 238,212 L 239,212 L 240,211 L 241,211 L 242,210 L 244,210 L 244,196 L 243,195 L 243,193 L 240,193 L 239,192 L 239,182 L 238,181 L 238,169 L 237,168 L 237,156 L 236,155 L 236,150 L 226,150 L 225,151 L 193,151 L 192,150 Z" fill="#c0d8d8" stroke="none" /><path d="M 216,61 L 215,62 L 210,62 L 209,63 L 207,63 L 206,64 L 204,64 L 203,65 L 202,65 L 201,66 L 200,66 L 199,67 L 198,67 L 197,68 L 196,68 L 195,69 L 194,69 L 191,72 L 190,72 L 183,79 L 183,80 L 181,82 L 181,83 L 180,84 L 180,85 L 179,86 L 179,87 L 178,88 L 178,90 L 177,91 L 177,92 L 176,93 L 176,95 L 175,96 L 175,97 L 174,98 L 174,101 L 173,102 L 173,104 L 172,105 L 172,108 L 171,109 L 171,112 L 170,113 L 170,118 L 169,119 L 169,135 L 170,136 L 170,140 L 171,141 L 174,141 L 175,142 L 181,142 L 182,141 L 184,143 L 206,143 L 207,144 L 211,144 L 212,143 L 234,143 L 235,142 L 242,142 L 242,140 L 243,139 L 243,131 L 244,130 L 244,128 L 245,127 L 245,126 L 246,125 L 246,124 L 247,123 L 247,122 L 249,120 L 249,119 L 250,118 L 252,118 L 253,117 L 254,117 L 255,116 L 257,116 L 258,115 L 262,115 L 263,116 L 266,116 L 267,117 L 269,117 L 270,118 L 274,118 L 275,119 L 277,119 L 278,120 L 281,120 L 282,121 L 284,121 L 285,122 L 288,122 L 289,123 L 292,123 L 293,124 L 295,124 L 296,125 L 299,125 L 300,126 L 303,126 L 304,127 L 306,127 L 307,128 L 310,128 L 311,129 L 314,129 L 315,130 L 317,130 L 318,131 L 321,131 L 322,132 L 324,132 L 325,133 L 327,133 L 328,134 L 331,134 L 332,135 L 333,135 L 339,129 L 339,128 L 341,126 L 341,125 L 343,123 L 343,122 L 344,121 L 344,120 L 345,119 L 345,117 L 346,116 L 346,112 L 347,111 L 347,105 L 346,104 L 346,101 L 345,100 L 345,99 L 344,98 L 344,97 L 343,96 L 343,95 L 341,93 L 341,92 L 340,92 L 339,91 L 337,91 L 336,90 L 334,90 L 333,89 L 332,89 L 331,88 L 329,88 L 328,87 L 326,87 L 325,86 L 323,86 L 322,85 L 319,85 L 318,84 L 316,84 L 315,83 L 313,83 L 312,82 L 309,82 L 308,81 L 306,81 L 305,80 L 302,80 L 301,79 L 299,79 L 298,78 L 295,78 L 294,77 L 291,77 L 290,76 L 287,76 L 286,75 L 283,75 L 282,74 L 279,74 L 278,73 L 275,73 L 274,72 L 271,72 L 270,71 L 267,71 L 266,70 L 263,70 L 262,69 L 259,69 L 258,68 L 254,68 L 253,67 L 250,67 L 249,66 L 245,66 L 244,65 L 241,65 L 240,64 L 236,64 L 235,63 L 232,63 L 231,62 L 227,62 L 226,61 Z" fill="#d8d8d8" stroke="none" /><path d="M 256,238 L 255,239 L 251,239 L 250,240 L 249,240 L 248,241 L 247,241 L 246,242 L 245,242 L 244,243 L 244,244 L 252,244 L 253,245 L 259,245 L 260,246 L 265,246 L 266,247 L 271,247 L 272,248 L 276,248 L 277,249 L 280,249 L 281,250 L 285,250 L 286,251 L 289,251 L 290,252 L 293,252 L 294,253 L 296,253 L 297,254 L 300,254 L 301,255 L 303,255 L 304,256 L 306,256 L 307,257 L 309,257 L 310,258 L 312,258 L 313,259 L 314,259 L 315,260 L 317,260 L 318,261 L 319,261 L 320,262 L 322,262 L 323,263 L 324,263 L 325,264 L 326,264 L 328,266 L 327,267 L 327,268 L 326,269 L 326,270 L 325,271 L 322,271 L 321,270 L 320,270 L 319,269 L 318,269 L 317,268 L 315,268 L 314,267 L 313,267 L 312,266 L 310,266 L 309,265 L 307,265 L 306,264 L 305,264 L 304,263 L 301,263 L 300,262 L 298,262 L 297,261 L 295,261 L 294,260 L 291,260 L 290,259 L 287,259 L 286,258 L 283,258 L 282,257 L 279,257 L 278,256 L 274,256 L 273,255 L 269,255 L 268,254 L 263,254 L 262,253 L 257,253 L 256,252 L 250,252 L 249,251 L 240,251 L 239,250 L 238,250 L 237,249 L 228,249 L 227,250 L 226,250 L 222,254 L 222,255 L 221,256 L 221,257 L 220,258 L 220,260 L 219,261 L 219,263 L 224,263 L 225,264 L 230,264 L 231,265 L 236,265 L 237,266 L 242,266 L 243,267 L 247,267 L 248,268 L 253,268 L 254,269 L 257,269 L 258,270 L 262,270 L 263,271 L 267,271 L 268,272 L 271,272 L 272,273 L 276,273 L 277,274 L 280,274 L 281,275 L 284,275 L 285,276 L 287,276 L 288,277 L 291,277 L 292,278 L 294,278 L 295,279 L 297,279 L 298,280 L 300,280 L 301,281 L 302,281 L 303,282 L 305,282 L 306,283 L 307,283 L 308,284 L 310,284 L 311,283 L 312,283 L 314,281 L 315,281 L 317,283 L 317,284 L 319,286 L 319,287 L 318,288 L 317,288 L 316,289 L 315,289 L 313,291 L 312,291 L 311,292 L 308,292 L 307,291 L 306,291 L 305,290 L 304,290 L 303,289 L 301,289 L 300,288 L 298,288 L 297,287 L 296,287 L 295,286 L 293,286 L 292,285 L 289,285 L 288,284 L 286,284 L 285,283 L 282,283 L 281,282 L 278,282 L 277,281 L 274,281 L 273,280 L 270,280 L 269,279 L 265,279 L 264,278 L 261,278 L 260,277 L 256,277 L 255,276 L 251,276 L 250,275 L 246,275 L 245,274 L 240,274 L 239,273 L 234,273 L 233,272 L 228,272 L 227,271 L 222,271 L 221,270 L 215,270 L 214,269 L 212,269 L 211,268 L 210,269 L 207,269 L 206,270 L 204,270 L 203,271 L 202,271 L 201,272 L 200,272 L 198,274 L 198,275 L 197,276 L 197,281 L 198,282 L 198,283 L 199,284 L 199,285 L 206,292 L 211,292 L 212,293 L 219,293 L 220,294 L 227,294 L 228,295 L 235,295 L 236,296 L 243,296 L 244,297 L 250,297 L 251,298 L 257,298 L 258,299 L 263,299 L 264,300 L 269,300 L 270,301 L 275,301 L 276,302 L 281,302 L 282,303 L 286,303 L 287,304 L 290,304 L 291,305 L 294,305 L 295,306 L 297,306 L 298,307 L 300,307 L 302,309 L 303,309 L 304,310 L 304,316 L 305,317 L 305,318 L 304,319 L 298,319 L 297,318 L 297,314 L 296,314 L 295,313 L 293,313 L 292,312 L 289,312 L 288,311 L 284,311 L 283,310 L 279,310 L 278,309 L 273,309 L 272,308 L 268,308 L 267,307 L 261,307 L 260,306 L 254,306 L 253,305 L 248,305 L 247,304 L 240,304 L 239,303 L 233,303 L 232,302 L 225,302 L 224,301 L 216,301 L 215,300 L 208,300 L 207,299 L 205,301 L 205,302 L 204,303 L 204,304 L 203,305 L 203,311 L 204,312 L 204,313 L 207,316 L 208,316 L 210,318 L 211,318 L 212,319 L 213,319 L 214,320 L 216,320 L 217,321 L 219,321 L 220,322 L 222,322 L 223,323 L 226,323 L 227,324 L 231,324 L 232,325 L 236,325 L 237,326 L 241,326 L 242,327 L 246,327 L 247,328 L 250,328 L 251,329 L 255,329 L 256,330 L 261,330 L 262,331 L 266,331 L 267,332 L 271,332 L 272,333 L 276,333 L 277,334 L 281,334 L 282,335 L 287,335 L 288,336 L 292,336 L 293,337 L 298,337 L 299,338 L 302,338 L 303,339 L 303,341 L 302,342 L 302,343 L 295,350 L 294,350 L 293,351 L 286,351 L 285,350 L 277,350 L 276,349 L 268,349 L 267,348 L 254,348 L 253,349 L 251,349 L 250,350 L 248,350 L 247,351 L 246,351 L 245,352 L 244,352 L 243,353 L 242,353 L 241,354 L 240,354 L 239,355 L 238,355 L 234,359 L 233,359 L 232,360 L 232,361 L 229,364 L 229,365 L 227,367 L 227,369 L 226,370 L 226,378 L 227,379 L 227,381 L 228,382 L 228,383 L 230,385 L 231,385 L 232,386 L 235,386 L 235,385 L 234,384 L 234,383 L 233,382 L 233,380 L 232,379 L 232,376 L 231,375 L 231,368 L 232,367 L 232,365 L 235,362 L 237,362 L 238,361 L 255,361 L 257,363 L 257,364 L 258,365 L 258,367 L 259,368 L 259,370 L 260,371 L 260,374 L 261,375 L 261,381 L 278,381 L 279,382 L 286,382 L 287,383 L 290,383 L 291,384 L 293,384 L 294,385 L 295,385 L 296,386 L 297,386 L 298,387 L 302,387 L 303,388 L 310,388 L 311,389 L 320,389 L 321,390 L 334,390 L 335,391 L 358,391 L 359,392 L 391,392 L 392,391 L 403,391 L 404,390 L 407,390 L 408,389 L 409,390 L 416,390 L 417,391 L 423,391 L 424,392 L 428,392 L 429,393 L 433,393 L 434,394 L 438,394 L 439,395 L 442,395 L 443,396 L 446,396 L 447,397 L 449,397 L 450,398 L 452,398 L 453,399 L 455,399 L 456,400 L 458,400 L 459,401 L 460,401 L 461,402 L 462,402 L 463,403 L 465,403 L 466,404 L 467,404 L 469,406 L 471,406 L 472,407 L 473,407 L 474,408 L 475,408 L 476,409 L 477,409 L 478,410 L 479,410 L 480,411 L 481,411 L 481,409 L 482,408 L 482,407 L 483,406 L 483,403 L 484,402 L 484,400 L 485,399 L 485,395 L 486,394 L 486,390 L 487,389 L 487,380 L 488,379 L 488,370 L 487,369 L 487,361 L 486,360 L 486,356 L 485,355 L 485,352 L 484,351 L 484,348 L 483,347 L 483,345 L 482,344 L 482,343 L 481,342 L 481,340 L 480,339 L 480,338 L 479,337 L 479,336 L 478,335 L 478,334 L 477,333 L 477,332 L 475,330 L 475,329 L 474,328 L 474,327 L 471,324 L 470,324 L 469,323 L 468,323 L 467,322 L 466,322 L 465,321 L 463,321 L 462,320 L 461,320 L 460,319 L 459,319 L 458,318 L 456,318 L 455,317 L 454,317 L 453,316 L 452,316 L 451,315 L 450,315 L 449,314 L 447,314 L 446,313 L 445,313 L 444,312 L 443,312 L 442,311 L 441,311 L 440,310 L 439,310 L 438,309 L 437,309 L 436,308 L 434,308 L 433,307 L 432,307 L 431,306 L 430,306 L 428,304 L 427,304 L 426,303 L 425,303 L 424,302 L 423,302 L 422,301 L 421,301 L 420,300 L 419,300 L 417,298 L 416,298 L 396,278 L 395,278 L 390,273 L 389,273 L 386,270 L 385,270 L 383,268 L 382,268 L 380,266 L 379,266 L 378,265 L 377,265 L 375,263 L 374,263 L 373,262 L 372,262 L 371,261 L 370,261 L 369,260 L 368,260 L 367,259 L 366,259 L 365,258 L 364,258 L 363,257 L 362,257 L 361,256 L 359,256 L 358,255 L 357,255 L 356,254 L 354,254 L 353,253 L 351,253 L 350,252 L 349,252 L 348,251 L 345,251 L 344,250 L 341,250 L 340,251 L 339,251 L 338,252 L 336,252 L 335,253 L 333,253 L 332,254 L 328,254 L 327,255 L 315,255 L 314,254 L 310,254 L 309,253 L 307,253 L 306,252 L 305,252 L 304,251 L 302,251 L 300,249 L 299,249 L 298,248 L 297,248 L 290,241 L 280,241 L 279,240 L 269,240 L 268,239 L 257,239 Z" fill="#f0d8d8" stroke="none" /><path d="M 186,200 L 186,201 L 185,202 L 185,203 L 183,205 L 183,206 L 178,211 L 177,211 L 176,212 L 175,212 L 174,213 L 169,213 L 168,214 L 167,213 L 163,213 L 162,212 L 161,212 L 160,211 L 159,211 L 156,214 L 155,214 L 152,217 L 151,217 L 149,219 L 148,219 L 147,220 L 146,220 L 145,221 L 144,221 L 142,223 L 140,223 L 139,224 L 138,224 L 137,225 L 136,225 L 135,226 L 133,226 L 132,227 L 129,227 L 128,228 L 126,228 L 125,229 L 124,229 L 123,230 L 122,230 L 121,231 L 120,231 L 119,232 L 118,232 L 116,234 L 115,234 L 106,243 L 106,244 L 103,247 L 103,248 L 102,249 L 102,250 L 100,252 L 100,253 L 99,254 L 99,255 L 98,256 L 98,257 L 97,258 L 97,259 L 95,261 L 95,262 L 94,263 L 94,264 L 93,265 L 93,266 L 92,267 L 92,268 L 91,269 L 91,270 L 90,271 L 90,272 L 89,273 L 89,274 L 87,276 L 87,277 L 79,285 L 78,285 L 76,287 L 75,287 L 74,288 L 72,288 L 71,289 L 67,289 L 66,290 L 59,290 L 58,291 L 21,291 L 20,292 L 20,294 L 19,295 L 19,296 L 18,297 L 18,300 L 17,301 L 17,303 L 16,304 L 16,307 L 15,308 L 15,311 L 14,312 L 14,317 L 13,318 L 13,323 L 12,324 L 12,333 L 11,334 L 11,361 L 12,362 L 12,371 L 13,372 L 13,377 L 19,377 L 20,376 L 34,376 L 35,375 L 46,375 L 47,374 L 57,374 L 58,373 L 67,373 L 68,372 L 76,372 L 77,371 L 81,371 L 84,374 L 85,374 L 87,376 L 88,376 L 89,377 L 90,377 L 91,378 L 92,378 L 93,379 L 94,379 L 95,380 L 97,380 L 98,381 L 100,381 L 101,382 L 104,382 L 105,383 L 112,383 L 113,384 L 123,384 L 124,383 L 131,383 L 132,382 L 136,382 L 137,381 L 141,381 L 142,380 L 144,380 L 145,379 L 147,379 L 148,378 L 150,378 L 150,377 L 149,376 L 148,376 L 146,374 L 145,374 L 138,367 L 138,366 L 136,364 L 136,363 L 134,361 L 134,360 L 133,359 L 133,358 L 132,357 L 132,355 L 131,354 L 131,352 L 130,351 L 130,346 L 129,345 L 129,337 L 130,336 L 130,331 L 131,330 L 131,328 L 132,327 L 132,325 L 133,324 L 133,323 L 134,322 L 134,321 L 136,319 L 136,318 L 138,316 L 138,315 L 145,308 L 146,308 L 148,306 L 149,306 L 151,304 L 152,304 L 153,303 L 154,303 L 155,302 L 156,302 L 156,296 L 157,295 L 157,291 L 158,290 L 158,288 L 159,287 L 159,286 L 160,285 L 160,284 L 161,283 L 161,282 L 168,275 L 169,275 L 171,273 L 173,273 L 175,271 L 175,267 L 170,267 L 169,266 L 166,266 L 165,265 L 164,265 L 163,264 L 162,264 L 161,263 L 160,263 L 159,262 L 158,262 L 158,267 L 157,268 L 157,274 L 156,275 L 156,278 L 155,279 L 155,281 L 154,282 L 154,284 L 153,285 L 153,286 L 152,287 L 152,288 L 151,289 L 151,290 L 150,291 L 150,292 L 148,294 L 148,295 L 141,302 L 140,302 L 138,304 L 137,304 L 136,305 L 135,305 L 134,306 L 133,305 L 133,304 L 132,303 L 132,302 L 131,301 L 131,300 L 133,298 L 134,298 L 136,296 L 137,296 L 141,292 L 141,291 L 143,289 L 143,288 L 145,286 L 145,285 L 146,284 L 146,283 L 147,282 L 147,280 L 148,279 L 148,277 L 149,276 L 149,272 L 150,271 L 150,263 L 151,262 L 151,260 L 152,259 L 152,257 L 154,255 L 154,254 L 155,253 L 155,252 L 157,250 L 157,249 L 159,247 L 159,246 L 160,245 L 160,243 L 161,242 L 162,242 L 163,241 L 166,241 L 167,240 L 168,240 L 169,239 L 170,239 L 172,237 L 173,237 L 176,234 L 176,233 L 180,229 L 180,228 L 181,227 L 181,226 L 183,224 L 183,223 L 184,222 L 184,220 L 185,219 L 185,217 L 186,216 L 186,214 L 187,213 L 187,202 L 186,201 Z" fill="#f0d8d8" stroke="none" /><path d="M 242,366 L 241,367 L 238,367 L 237,368 L 237,376 L 238,377 L 238,379 L 239,380 L 239,382 L 240,383 L 240,384 L 241,385 L 243,385 L 244,384 L 247,384 L 248,383 L 250,383 L 251,382 L 254,382 L 255,381 L 256,381 L 256,378 L 255,377 L 255,374 L 254,373 L 254,371 L 253,370 L 253,368 L 252,367 L 252,366 Z" fill="#f0f0f0" stroke="none" /><path d="M 198,343 L 197,344 L 197,345 L 196,346 L 196,347 L 195,348 L 195,349 L 194,350 L 194,351 L 192,353 L 192,354 L 184,362 L 183,362 L 183,365 L 184,366 L 186,366 L 187,365 L 188,365 L 189,364 L 190,364 L 196,358 L 196,357 L 197,356 L 197,355 L 198,354 L 198,353 L 199,352 L 199,344 Z" fill="#f0f0f0" stroke="none" /><path d="M 147,334 L 145,336 L 145,337 L 143,339 L 143,340 L 144,341 L 147,341 Z" fill="#f0f0f0" stroke="none" /><path d="M 209,325 L 210,326 L 210,328 L 211,329 L 211,331 L 212,332 L 212,339 L 213,340 L 213,341 L 212,342 L 212,350 L 211,351 L 211,353 L 210,354 L 210,356 L 209,357 L 209,358 L 208,359 L 208,360 L 207,361 L 207,362 L 206,363 L 206,364 L 202,368 L 202,369 L 199,372 L 198,372 L 194,376 L 193,376 L 192,377 L 191,377 L 190,378 L 189,378 L 188,379 L 187,379 L 186,380 L 184,380 L 183,381 L 181,381 L 180,382 L 174,382 L 173,383 L 168,383 L 167,382 L 162,382 L 161,381 L 160,382 L 158,382 L 157,383 L 156,383 L 155,384 L 153,384 L 152,385 L 150,385 L 149,386 L 147,386 L 146,387 L 144,387 L 143,388 L 140,388 L 139,389 L 138,389 L 140,391 L 141,391 L 144,394 L 145,394 L 146,395 L 147,395 L 149,397 L 150,397 L 151,398 L 152,398 L 153,399 L 154,399 L 155,400 L 157,400 L 158,401 L 160,401 L 161,402 L 164,402 L 165,403 L 180,403 L 181,402 L 184,402 L 185,401 L 187,401 L 188,400 L 189,400 L 190,399 L 191,399 L 192,398 L 193,398 L 194,397 L 195,397 L 196,396 L 197,396 L 199,394 L 204,394 L 205,393 L 214,393 L 215,392 L 216,392 L 217,393 L 217,401 L 218,402 L 218,404 L 220,406 L 220,407 L 223,410 L 224,410 L 225,411 L 226,411 L 227,412 L 228,412 L 229,413 L 231,413 L 232,414 L 240,414 L 241,413 L 242,413 L 243,412 L 245,412 L 246,411 L 247,411 L 248,410 L 249,410 L 251,408 L 252,408 L 257,403 L 257,401 L 258,400 L 264,400 L 265,401 L 265,409 L 266,410 L 266,414 L 267,415 L 267,417 L 268,418 L 268,420 L 269,421 L 269,422 L 270,423 L 270,424 L 271,425 L 271,426 L 272,427 L 272,428 L 277,433 L 278,433 L 279,434 L 280,434 L 281,435 L 283,435 L 284,436 L 295,436 L 296,435 L 299,435 L 300,434 L 302,434 L 303,433 L 304,433 L 305,432 L 306,432 L 308,430 L 309,430 L 312,427 L 312,426 L 314,424 L 314,423 L 315,422 L 315,420 L 316,419 L 316,416 L 317,415 L 317,405 L 316,404 L 316,400 L 315,399 L 315,396 L 307,396 L 306,395 L 300,395 L 299,394 L 296,394 L 295,393 L 293,393 L 291,391 L 289,391 L 288,390 L 284,390 L 283,389 L 272,389 L 271,388 L 257,388 L 256,389 L 253,389 L 252,390 L 250,390 L 249,391 L 247,391 L 246,392 L 243,392 L 242,393 L 237,393 L 236,394 L 235,394 L 234,393 L 229,393 L 228,392 L 227,392 L 222,387 L 222,386 L 220,384 L 220,382 L 219,381 L 219,368 L 220,367 L 220,365 L 221,364 L 221,363 L 222,362 L 222,361 L 225,358 L 225,357 L 229,353 L 230,353 L 234,349 L 235,349 L 236,348 L 237,348 L 239,346 L 240,346 L 241,345 L 243,345 L 244,344 L 245,344 L 246,343 L 248,343 L 249,342 L 251,342 L 252,341 L 256,341 L 257,340 L 261,340 L 262,341 L 271,341 L 272,342 L 279,342 L 280,343 L 289,343 L 290,344 L 291,344 L 290,343 L 285,343 L 284,342 L 280,342 L 279,341 L 274,341 L 273,340 L 269,340 L 268,339 L 264,339 L 263,338 L 259,338 L 258,337 L 254,337 L 253,336 L 249,336 L 248,335 L 244,335 L 243,334 L 239,334 L 238,333 L 235,333 L 234,332 L 230,332 L 229,331 L 225,331 L 224,330 L 221,330 L 220,329 L 217,329 L 216,328 L 214,328 L 213,327 L 212,327 L 211,326 L 210,326 Z" fill="#f0f0f0" stroke="none" /><path d="M 153,313 L 152,314 L 151,314 L 150,315 L 149,315 L 145,319 L 145,320 L 143,322 L 143,323 L 142,324 L 142,326 L 141,327 L 141,329 L 140,330 L 140,331 L 144,327 L 145,327 L 147,325 L 148,325 L 149,324 L 149,323 L 154,318 L 155,318 L 156,317 L 157,317 L 157,316 L 156,315 L 156,314 L 155,313 Z" fill="#f0f0f0" stroke="none" /><path d="M 368,307 L 367,308 L 365,308 L 363,310 L 363,311 L 362,312 L 362,314 L 361,315 L 361,319 L 362,320 L 362,322 L 363,323 L 368,323 L 367,322 L 367,318 L 366,317 L 367,316 L 367,313 L 371,309 L 373,309 L 374,308 L 373,307 Z" fill="#f0f0f0" stroke="none" /><path d="M 248,216 L 247,217 L 245,217 L 244,218 L 243,218 L 242,219 L 241,219 L 236,224 L 236,226 L 235,227 L 235,228 L 234,229 L 224,229 L 223,230 L 221,230 L 220,231 L 218,231 L 214,235 L 214,236 L 213,237 L 213,240 L 211,242 L 206,242 L 205,241 L 205,238 L 206,237 L 206,236 L 205,235 L 204,235 L 201,232 L 200,232 L 199,231 L 198,231 L 197,230 L 195,230 L 194,229 L 188,229 L 188,230 L 186,232 L 186,233 L 183,236 L 183,237 L 177,243 L 176,243 L 173,246 L 172,246 L 171,247 L 170,247 L 169,248 L 167,248 L 165,250 L 165,251 L 163,253 L 163,254 L 162,255 L 164,257 L 165,257 L 166,258 L 168,258 L 169,259 L 171,259 L 172,260 L 177,260 L 179,258 L 179,257 L 184,252 L 185,252 L 187,250 L 189,250 L 190,249 L 192,249 L 193,248 L 207,248 L 208,249 L 208,254 L 207,255 L 195,255 L 194,256 L 192,256 L 191,257 L 190,257 L 189,258 L 188,258 L 185,261 L 185,262 L 184,263 L 184,264 L 183,265 L 183,267 L 182,268 L 182,271 L 183,270 L 186,270 L 188,272 L 188,277 L 187,278 L 179,278 L 178,279 L 176,279 L 175,280 L 174,280 L 173,281 L 172,281 L 168,285 L 168,286 L 166,288 L 166,289 L 165,290 L 165,293 L 164,294 L 164,298 L 163,299 L 163,300 L 167,300 L 168,299 L 174,299 L 175,300 L 180,300 L 181,301 L 184,301 L 185,302 L 186,302 L 187,303 L 188,303 L 189,304 L 190,304 L 191,305 L 192,305 L 193,306 L 194,306 L 195,307 L 195,306 L 196,305 L 196,303 L 197,302 L 197,300 L 198,299 L 198,298 L 200,296 L 193,289 L 193,288 L 192,287 L 192,286 L 191,285 L 191,284 L 190,283 L 190,280 L 189,279 L 189,278 L 190,277 L 190,274 L 191,273 L 191,272 L 192,271 L 192,270 L 196,266 L 197,266 L 198,265 L 199,265 L 200,264 L 201,264 L 202,263 L 203,263 L 204,262 L 207,262 L 208,261 L 212,261 L 212,259 L 213,258 L 213,256 L 214,255 L 214,254 L 215,253 L 215,252 L 216,251 L 216,250 L 222,244 L 223,244 L 224,243 L 225,243 L 226,242 L 228,242 L 229,241 L 236,241 L 242,235 L 243,235 L 244,234 L 245,234 L 246,233 L 248,233 L 249,232 L 252,232 L 253,231 L 260,231 L 261,232 L 272,232 L 273,233 L 283,233 L 284,234 L 284,233 L 283,232 L 283,231 L 282,230 L 282,229 L 281,229 L 280,228 L 277,228 L 276,227 L 272,227 L 271,228 L 267,228 L 266,229 L 265,229 L 264,230 L 263,230 L 262,229 L 262,228 L 261,227 L 261,226 L 260,225 L 260,224 L 259,223 L 259,222 L 254,217 L 252,217 L 251,216 Z" fill="#f0f0f0" stroke="none" /><path d="M 350,215 L 350,216 L 349,217 L 349,218 L 348,219 L 348,220 L 347,221 L 347,222 L 346,223 L 346,224 L 343,227 L 343,228 L 339,232 L 338,232 L 335,235 L 335,237 L 336,238 L 339,238 L 341,236 L 342,236 L 344,234 L 345,234 L 347,232 L 347,231 L 349,229 L 349,228 L 350,227 L 350,226 L 351,225 L 351,222 L 352,221 L 352,218 L 351,217 L 351,215 Z" fill="#f0f0f0" stroke="none" /><path d="M 369,209 L 368,210 L 366,210 L 365,211 L 364,211 L 364,215 L 363,216 L 363,222 L 362,223 L 362,225 L 361,226 L 361,228 L 360,229 L 360,230 L 359,231 L 359,232 L 358,233 L 358,234 L 356,236 L 356,237 L 353,240 L 353,241 L 350,244 L 349,244 L 350,244 L 351,245 L 353,245 L 354,246 L 355,246 L 356,247 L 358,247 L 359,248 L 360,248 L 361,249 L 363,249 L 364,250 L 365,250 L 366,251 L 367,251 L 368,252 L 370,252 L 372,254 L 373,254 L 374,255 L 375,255 L 376,256 L 377,256 L 378,257 L 379,257 L 380,258 L 381,258 L 383,260 L 384,260 L 386,262 L 387,262 L 389,264 L 390,264 L 393,267 L 394,267 L 398,271 L 399,271 L 407,279 L 410,279 L 411,278 L 412,278 L 413,277 L 414,277 L 417,274 L 417,273 L 418,272 L 418,271 L 419,270 L 419,259 L 418,258 L 418,257 L 417,256 L 417,255 L 413,251 L 412,251 L 411,250 L 404,250 L 403,249 L 403,244 L 404,243 L 404,239 L 403,238 L 403,236 L 402,235 L 402,234 L 401,233 L 400,233 L 399,232 L 398,232 L 397,231 L 390,231 L 389,230 L 389,226 L 388,225 L 388,221 L 387,220 L 387,218 L 386,217 L 386,216 L 385,215 L 385,214 L 381,210 L 380,210 L 379,209 Z" fill="#f0f0f0" stroke="none" /><path d="M 176,197 L 175,198 L 174,198 L 169,203 L 168,203 L 164,207 L 165,208 L 171,208 L 172,207 L 174,207 L 176,205 L 177,205 L 177,204 L 179,202 L 179,201 L 181,199 L 181,198 L 182,197 Z" fill="#f0f0f0" stroke="none" /><path d="M 306,182 L 305,183 L 304,183 L 302,185 L 301,185 L 300,186 L 300,187 L 297,190 L 297,191 L 296,192 L 296,193 L 295,194 L 295,196 L 294,197 L 294,200 L 293,201 L 293,203 L 292,204 L 292,208 L 293,209 L 298,209 L 299,210 L 300,210 L 300,203 L 301,202 L 301,197 L 302,196 L 302,194 L 303,193 L 303,192 L 304,191 L 304,190 L 307,187 L 308,187 L 309,186 L 311,186 L 310,185 L 310,184 L 309,183 L 309,182 Z" fill="#f0f0f0" stroke="none" /><path d="M 176,181 L 176,182 L 174,184 L 174,185 L 172,187 L 172,188 L 171,189 L 170,189 L 169,188 L 168,188 L 166,186 L 165,186 L 164,185 L 162,185 L 161,184 L 154,184 L 153,185 L 152,185 L 151,186 L 150,186 L 147,189 L 147,190 L 146,191 L 146,192 L 145,193 L 145,194 L 144,195 L 144,207 L 143,208 L 142,207 L 140,207 L 139,206 L 138,206 L 137,205 L 136,205 L 135,204 L 129,204 L 128,205 L 127,205 L 125,207 L 125,208 L 124,209 L 124,210 L 123,211 L 123,214 L 122,215 L 122,219 L 121,220 L 108,220 L 104,224 L 104,225 L 103,226 L 103,227 L 102,228 L 102,230 L 101,231 L 101,233 L 100,234 L 100,235 L 99,236 L 94,236 L 93,237 L 91,237 L 90,238 L 89,238 L 85,242 L 85,249 L 86,250 L 86,253 L 87,254 L 87,255 L 88,256 L 88,257 L 89,258 L 89,257 L 91,255 L 91,254 L 92,253 L 92,252 L 93,251 L 93,250 L 94,249 L 94,248 L 95,247 L 95,246 L 97,244 L 97,243 L 100,240 L 100,239 L 111,228 L 112,228 L 114,226 L 115,226 L 117,224 L 118,224 L 119,223 L 120,223 L 121,222 L 123,222 L 124,221 L 126,221 L 127,220 L 130,220 L 131,219 L 133,219 L 134,218 L 135,218 L 136,217 L 137,217 L 138,216 L 139,216 L 140,215 L 141,215 L 142,214 L 143,214 L 145,212 L 146,212 L 148,210 L 149,210 L 151,208 L 152,208 L 156,204 L 157,204 L 164,197 L 165,197 L 170,192 L 171,192 L 173,190 L 174,190 L 175,189 L 175,186 L 176,185 Z" fill="#f0f0f0" stroke="none" /><path d="M 246,177 L 246,189 L 247,190 L 247,192 L 246,193 L 245,193 L 245,209 L 253,209 L 254,210 L 256,210 L 257,211 L 258,211 L 265,218 L 265,219 L 266,220 L 266,221 L 268,221 L 269,220 L 279,220 L 279,204 L 280,203 L 280,200 L 281,199 L 281,198 L 282,197 L 282,195 L 283,194 L 283,193 L 284,192 L 284,191 L 286,189 L 286,188 L 287,187 L 283,183 L 276,183 L 275,184 L 273,184 L 272,185 L 271,185 L 270,186 L 269,186 L 269,187 L 270,188 L 270,193 L 269,194 L 264,194 L 263,193 L 263,190 L 262,189 L 262,187 L 261,186 L 261,185 L 257,181 L 256,181 L 254,179 L 252,179 L 251,178 L 248,178 L 247,177 Z" fill="#f0f0f0" stroke="none" /></svg>