<?xml version="1.0" encoding="UTF-8"?>
<!-- Generator: visioncortex VTracer -->
<svg id="svg" version="1.1" xmlns="http://www.w3.org/2000/svg" style="display: block;" viewBox="0 0 500 500"><path d="M0 0 C33.50228692 -1.62474718 66.57216514 7.38039259 95.90429688 23.12109375 C97.64066406 24.02601562 97.64066406 24.02601562 99.41210938 24.94921875 C112.48637694 32.03731825 124.04496476 41.26259554 134.96679688 51.30859375 C135.56878906 51.86119873 136.17078125 52.41380371 136.79101562 52.9831543 C138.20534649 54.31809663 139.56138137 55.71433123 140.90429688 57.12109375 C140.90429688 57.78109375 140.90429688 58.44109375 140.90429688 59.12109375 C141.56429688 59.12109375 142.22429687 59.12109375 142.90429688 59.12109375 C146.13382632 62.58959472 148.9885452 66.38700611 151.90429688 70.12109375 C152.66742188 71.09304687 153.43054688 72.065 154.21679688 73.06640625 C171.30069917 95.3110707 182.88709233 120.76965039 188.90429688 148.12109375 C189.06945801 148.84828613 189.23461914 149.57547852 189.40478516 150.32470703 C194.43682 173.50745289 194.16226647 201.01680591 188.90429688 224.12109375 C188.73269043 224.89582031 188.56108398 225.67054688 188.38427734 226.46875 C177.7155131 273.37698958 149.64335988 315.80508004 108.9909668 342.03466797 C105.66573803 344.12742442 102.29566911 346.13773153 98.90429688 348.12109375 C98.30037109 348.47800293 97.69644531 348.83491211 97.07421875 349.20263672 C80.66805261 358.78790777 62.45435305 365.17963648 43.90429688 369.12109375 C43.13843262 369.28480469 42.37256836 369.44851563 41.58349609 369.6171875 C-5.29197192 379.08816497 -54.89900388 368.41046742 -95.09570312 343.12109375 C-107.97629532 334.50186005 -119.2062653 324.17086212 -130.04492188 313.13671875 C-130.90537109 312.26273437 -130.90537109 312.26273437 -131.78320312 311.37109375 C-132.65525391 310.48164062 -132.65525391 310.48164062 -133.54492188 309.57421875 C-135.05084286 308.02467571 -135.05084286 308.02467571 -137.09570312 307.12109375 C-137.33804688 307.80429687 -137.58039063 308.4875 -137.83007812 309.19140625 C-144.34408117 324.270117 -155.8588069 337.43518267 -171.03320312 344.12109375 C-191.55790956 350.35104622 -213.78566836 341.58263004 -233.09570312 335.12109375 C-234.6025769 334.6271814 -234.6025769 334.6271814 -236.13989258 334.12329102 C-247.09705281 330.37771707 -254.61093987 323.3341012 -260.09570312 313.12109375 C-262.98249877 307.16185644 -264.60678234 301.72152438 -265.09570312 295.12109375 C-269.05570312 295.12109375 -273.01570313 295.12109375 -277.09570312 295.12109375 C-277.09570312 290.17109375 -277.09570312 285.22109375 -277.09570312 280.12109375 C-272.80570312 280.12109375 -268.51570313 280.12109375 -264.09570312 280.12109375 C-264.05445313 279.21359375 -264.01320313 278.30609375 -263.97070312 277.37109375 C-262.07089217 264.94733004 -253.12536911 255.32612584 -244.06445312 247.328125 C-234.79978021 240.63479139 -219.24703693 241.39699039 -208.16650391 240.26123047 C-205.59912419 239.99644658 -203.03301638 239.7210868 -200.46679688 239.4453125 C-191.29877799 238.48489757 -182.32409203 237.83923119 -173.09570312 238.12109375 C-173.23669434 237.51450928 -173.37768555 236.9079248 -173.52294922 236.28295898 C-185.21488794 185.23007503 -180.23096975 133.20315786 -152.30224609 88.00195312 C-124.94522331 45.35555419 -82.88517695 15.16706789 -33.28320312 4.18359375 C-22.25342281 1.90195973 -11.23376022 0.64910823 0 0 Z " transform="translate(296.095703125,63.87890625)" style="fill: #FDFDFD;"/><path d="M0 0 C33.50228692 -1.62474718 66.57216514 7.38039259 95.90429688 23.12109375 C97.64066406 24.02601562 97.64066406 24.02601562 99.41210938 24.94921875 C112.48637694 32.03731825 124.04496476 41.26259554 134.96679688 51.30859375 C135.56878906 51.86119873 136.17078125 52.41380371 136.79101562 52.9831543 C138.20534649 54.31809663 139.56138137 55.71433123 140.90429688 57.12109375 C140.90429688 57.78109375 140.90429688 58.44109375 140.90429688 59.12109375 C141.56429688 59.12109375 142.22429687 59.12109375 142.90429688 59.12109375 C146.13382632 62.58959472 148.9885452 66.38700611 151.90429688 70.12109375 C152.66742188 71.09304687 153.43054688 72.065 154.21679688 73.06640625 C171.30069917 95.3110707 182.88709233 120.76965039 188.90429688 148.12109375 C189.06945801 148.84828613 189.23461914 149.57547852 189.40478516 150.32470703 C194.43682 173.50745289 194.16226647 201.01680591 188.90429688 224.12109375 C188.73269043 224.89582031 188.56108398 225.67054688 188.38427734 226.46875 C177.7155131 273.37698958 149.64335988 315.80508004 108.9909668 342.03466797 C105.66573803 344.12742442 102.29566911 346.13773153 98.90429688 348.12109375 C98.30037109 348.47800293 97.69644531 348.83491211 97.07421875 349.20263672 C80.66805261 358.78790777 62.45435305 365.17963648 43.90429688 369.12109375 C43.13843262 369.28480469 42.37256836 369.44851563 41.58349609 369.6171875 C-5.29197192 379.08816497 -54.89900388 368.41046742 -95.09570312 343.12109375 C-107.97629532 334.50186005 -119.2062653 324.17086212 -130.04492188 313.13671875 C-130.90537109 312.26273437 -130.90537109 312.26273437 -131.78320312 311.37109375 C-132.65525391 310.48164062 -132.65525391 310.48164062 -133.54492188 309.57421875 C-135.05084286 308.02467571 -135.05084286 308.02467571 -137.09570312 307.12109375 C-137.33804688 307.80429687 -137.58039063 308.4875 -137.83007812 309.19140625 C-144.34408117 324.270117 -155.8588069 337.43518267 -171.03320312 344.12109375 C-191.55790956 350.35104622 -213.78566836 341.58263004 -233.09570312 335.12109375 C-234.6025769 334.6271814 -234.6025769 334.6271814 -236.13989258 334.12329102 C-247.09705281 330.37771707 -254.61093987 323.3341012 -260.09570312 313.12109375 C-262.98249877 307.16185644 -264.60678234 301.72152438 -265.09570312 295.12109375 C-269.05570312 295.12109375 -273.01570313 295.12109375 -277.09570312 295.12109375 C-277.09570312 290.17109375 -277.09570312 285.22109375 -277.09570312 280.12109375 C-272.80570312 280.12109375 -268.51570313 280.12109375 -264.09570312 280.12109375 C-264.05445313 279.21359375 -264.01320313 278.30609375 -263.97070312 277.37109375 C-262.07089217 264.94733004 -253.12536911 255.32612584 -244.06445312 247.328125 C-234.79978021 240.63479139 -219.24703693 241.39699039 -208.16650391 240.26123047 C-205.59912419 239.99644658 -203.03301638 239.7210868 -200.46679688 239.4453125 C-191.29877799 238.48489757 -182.32409203 237.83923119 -173.09570312 238.12109375 C-173.23669434 237.51450928 -173.37768555 236.9079248 -173.52294922 236.28295898 C-185.21488794 185.23007503 -180.23096975 133.20315786 -152.30224609 88.00195312 C-124.94522331 45.35555419 -82.88517695 15.16706789 -33.28320312 4.18359375 C-22.25342281 1.90195973 -11.23376022 0.64910823 0 0 Z M-29.09570312 27.12109375 C-30.48798185 27.42457002 -31.88031634 27.72779059 -33.27270508 28.03076172 C-73.94721035 37.12000713 -109.95650753 64.98404214 -132.15820312 99.74609375 C-148.29929607 125.73995252 -156.53798141 154.20662344 -156.53320312 184.74609375 C-156.53460297 185.60226288 -156.53600281 186.45843201 -156.53744507 187.34054565 C-156.51727612 202.39833086 -155.09934721 216.53739229 -151.09570312 231.12109375 C-150.89283691 231.86584961 -150.6899707 232.61060547 -150.48095703 233.37792969 C-148.36892004 240.77799914 -145.24051495 246.74953048 -140.91992188 253.06640625 C-138.29464205 257.4624851 -136.51214824 262.13172341 -134.75634766 266.93286133 C-132.74111698 272.22891746 -130.59916705 277.50135678 -126.09570312 281.12109375 C-121.59226261 282.23768571 -117.21910898 282.05364685 -112.60351562 281.90234375 C-111.30243866 281.89102417 -110.00136169 281.87970459 -108.66085815 281.86804199 C-105.21715252 281.8376302 -101.77618683 281.7591774 -98.33355713 281.67041016 C-94.81454536 281.58827243 -91.29508658 281.55197196 -87.77539062 281.51171875 C-80.8810424 281.42616079 -73.9885046 281.28979634 -67.09570312 281.12109375 C-67.25578857 279.85740967 -67.41587402 278.59372559 -67.58081055 277.29174805 C-69.41925706 262.77940104 -66.4824013 250.857901 -57.57226562 239.125 C-47.19431236 226.53723019 -33.22552486 218.75528491 -18.09570312 213.12109375 C-17.19078125 212.77949219 -16.28585937 212.43789063 -15.35351562 212.0859375 C3.94966997 206.07117677 25.63892685 209.85069244 43.23779297 218.91162109 C49.19190943 222.12930204 54.61399832 225.90134465 59.90429688 230.12109375 C60.53464844 230.57613281 61.165 231.03117188 61.81445312 231.5 C71.43547415 238.84178142 78.49020525 251.37982995 80.90429688 263.12109375 C82.25942824 276.71112539 78.32289846 288.07504359 69.91992188 298.734375 C69.25476563 299.52199219 68.58960938 300.30960937 67.90429688 301.12109375 C67.123125 302.07048828 67.123125 302.07048828 66.32617188 303.0390625 C53.12873653 317.60289897 30.21106717 326.99609614 10.88085938 328.53515625 C-10.92675316 329.03805717 -33.61897245 320.75443288 -49.73632812 305.87890625 C-57.45808151 298.39633699 -57.45808151 298.39633699 -59.09570312 295.12109375 C-77.24570313 295.12109375 -95.39570313 295.12109375 -114.09570312 295.12109375 C-111.49336486 299.45832419 -109.0081293 302.42096016 -105.34570312 305.74609375 C-104.7756958 306.26534424 -104.20568848 306.78459473 -103.6184082 307.31958008 C-92.4853953 317.27783589 -80.34412992 325.27028429 -67.09570312 332.12109375 C-66.1760376 332.6003833 -66.1760376 332.6003833 -65.23779297 333.08935547 C-29.50549182 351.44978848 14.75395174 354.82589726 53.05322266 343.16210938 C80.08062307 334.32550018 103.04836159 320.48615559 122.90429688 300.12109375 C123.51144531 299.57066406 124.11859375 299.02023437 124.74414062 298.453125 C150.38637194 274.48018903 167.60007516 235.29396886 169.06542969 200.26977539 C169.10323395 196.67903012 169.13541819 193.08872702 169.14453125 189.49780273 C169.15414259 187.22015503 169.18518986 184.94344888 169.21679688 182.66601562 C169.29247016 172.17525697 168.07572599 162.37558714 165.90429688 152.12109375 C165.71609375 151.20529541 165.52789062 150.28949707 165.33398438 149.34594727 C156.2953488 107.71438016 129.37922178 71.80770348 94.12158203 48.53320312 C79.60780342 39.28989818 63.7369857 32.77768719 47.15429688 28.30859375 C46.43516113 28.11362305 45.71602539 27.91865234 44.97509766 27.71777344 C32.7157809 24.604209 20.50656103 23.77061189 7.91894531 23.80541992 C5.53859622 23.8085814 3.15949386 23.78500865 0.77929688 23.75976562 C-9.53841885 23.71752278 -19.0243687 24.85064591 -29.09570312 27.12109375 Z " transform="translate(296.095703125,63.87890625)" style="fill: #040303;"/><path d="M0 0 C2.14958691 4.24028102 4.24406243 8.49144491 6.2265625 12.8125 C7.02549596 14.54191887 7.82499542 16.27107636 8.625 18 C9.25728516 19.3765979 9.25728516 19.3765979 9.90234375 20.78100586 C12.40316601 26.08557078 15.14946938 30.82271571 18.58032227 35.57299805 C24.19283396 43.43823585 24.19283396 43.43823585 23.60546875 48.1953125 C22.04927054 51.47919082 20.2102427 54.11674223 18 57 C17.25846212 58.12120528 16.52687599 59.24904731 15.8046875 60.3828125 C9.48903769 70.16492593 2.44241211 79.20374838 -9 83 C-20.87916141 84.90429305 -32.64004885 82.35393735 -44 79 C-45.22662354 78.63865967 -45.22662354 78.63865967 -46.47802734 78.27001953 C-73.87064991 70.08821393 -73.87064991 70.08821393 -80.875 57.4375 C-85.34678307 48.9250699 -87.28364408 38.48652777 -84.40527344 29.05029297 C-80.47290047 19.18891637 -74.39846879 10.25297284 -65 5 C-62.29019677 4.18172993 -59.63534537 3.90083936 -56.8203125 3.671875 C-56.04928192 3.59253723 -55.27825134 3.51319946 -54.4838562 3.43145752 C-52.03237646 3.18446498 -49.5792848 2.96712472 -47.125 2.75 C-45.5180428 2.59040716 -43.91126846 2.42896182 -42.3046875 2.265625 C-28.25478654 0.87082162 -14.12756805 -0.27461795 0 0 Z " transform="translate(128,314)" style="fill: #FCFCFC;"/><path d="M0 0 C1.24329711 0.55257649 2.47057651 1.14153826 3.6875 1.75 C5.89393595 1.85056142 8.10377851 1.87964994 10.3125 1.875 C10.97258057 1.8759668 11.63266113 1.87693359 12.31274414 1.87792969 C15.88226234 1.85944131 19.40266516 1.71743709 22.95703125 1.3828125 C35.47385088 0.21236321 35.47385088 0.21236321 40.94921875 3.76953125 C43.02332652 4.93942125 44.63845833 5.12102365 47 5.3125 C50.91245767 5.77668989 51.31596588 5.94727785 53.6875 8.75 C58.17204577 11.50188036 61.43902315 12.32256111 66.6875 11.75 C69.55896994 10.38002843 69.55896994 10.38002843 71.6875 8.75 C79.5051678 16.85431561 82.35997033 24.0462991 82.30078125 35.36621094 C81.85934059 45.36484178 76.51938468 52.76284521 69.6875 59.75 C69.0275 59.75 68.3675 59.75 67.6875 59.75 C67.39875 59.110625 67.11 58.47125 66.8125 57.8125 C65.85926549 55.59793921 65.85926549 55.59793921 63.6875 54.75 C61.98047265 54.68003986 60.27081997 54.66559846 58.5625 54.6875 C56.95375 54.708125 55.345 54.72875 53.6875 54.75 C53.6875 51.45 53.6875 48.15 53.6875 44.75 C50.3875 44.75 47.0875 44.75 43.6875 44.75 C43.6875 38.48 43.6875 32.21 43.6875 25.75 C43.0275 25.42 42.3675 25.09 41.6875 24.75 C42.0175 24.255 42.3475 23.76 42.6875 23.25 C44.09597188 19.7288203 44.40066799 16.44818042 43.6875 12.75 C40.6226246 8.60340388 37.69883563 6.81009023 32.6875 5.75 C24.21319298 4.83738232 16.81917028 7.12996507 9.3125 10.9375 C1.93134158 14.366336 -6.50993943 13.10696706 -14.3125 11.75 C-14.9725 11.75 -15.6325 11.75 -16.3125 11.75 C-15.6525 16.37 -14.9925 20.99 -14.3125 25.75 C-15.6325 25.75 -16.9525 25.75 -18.3125 25.75 C-18.3125 31.69 -18.3125 37.63 -18.3125 43.75 C-26.5625 43.75 -34.8125 43.75 -43.3125 43.75 C-46.44562074 36.43938494 -47.90218811 30.95928566 -45.55078125 23.25390625 C-44.58743088 20.99593484 -43.52605656 18.88304309 -42.3125 16.75 C-41.96574219 16.13769531 -41.61898437 15.52539062 -41.26171875 14.89453125 C-39.45596665 11.95931259 -38.66478762 10.86742921 -35.3125 9.75 C-34.6525 10.08 -33.9925 10.41 -33.3125 10.75 C-31.2972015 10.68778791 -31.2972015 10.68778791 -29.0625 10.375 C-28.26457031 10.27574219 -27.46664063 10.17648437 -26.64453125 10.07421875 C-23.85694953 9.68666551 -21.08262865 9.24720258 -18.3125 8.75 C-17.9825 7.1 -17.6525 5.45 -17.3125 3.75 C-15.5490625 3.5953125 -15.5490625 3.5953125 -13.75 3.4375 C-10.71795992 3.07794834 -8.31778883 2.43391161 -5.5625 1.125 C-2.3125 -0.25 -2.3125 -0.25 0 0 Z " transform="translate(284.3125,300.25)" style="fill: #FAFAFA;"/><path d="M0 0 C1.03411011 0.09486694 1.03411011 0.09486694 2.08911133 0.19165039 C9.99783271 0.98137544 17.84295608 2.3048509 25.67431641 3.64013672 C29.83776363 4.3209578 34.02590962 4.84497008 38.2109375 5.375 C41.24559486 6.08694308 43.33670219 7.20614996 45.875 9 C47.30162219 11.85324437 47.18533868 13.83454549 46.875 17 C45.07506226 19.69990662 43.791227 21.5418865 40.875 23 C31.67873075 22.83286967 22.39571813 21.2651931 13.29077148 20.00805664 C11.71032261 19.79277193 10.12889891 19.58453609 8.54663086 19.38305664 C6.22789704 19.08746869 3.91291892 18.77074151 1.59765625 18.44921875 C0.89552505 18.36363205 0.19339386 18.27804535 -0.53001404 18.18986511 C-5.11678466 17.52034943 -7.81385643 16.23884956 -11.125 13 C-12.56930855 10.11138291 -12.50188506 8.20352299 -12.125 5 C-8.3555287 0.10393859 -6.06222142 -0.59750848 0 0 Z " transform="translate(345.125,210)" style="fill: #040404;"/><path d="M0 0 C2.3333741 2.82833224 2.65419507 4.76226179 2.7265625 8.40234375 C1.64513591 11.81837951 0.12771708 13.75618257 -2.9375 15.5 C-7.46988783 16.65970626 -12.043612 17.16912361 -16.6875 17.6875 C-19.16184469 17.99034948 -21.63581523 18.29627378 -24.109375 18.60546875 C-25.28604736 18.74952148 -26.46271973 18.89357422 -27.67504883 19.04199219 C-31.19118548 19.53561431 -34.5876676 20.26858939 -38.03759766 21.09204102 C-40.78303741 21.68155911 -43.44689958 21.83787284 -46.25 21.875 C-47.23613281 21.90335938 -48.22226563 21.93171875 -49.23828125 21.9609375 C-52.69848803 21.37004835 -53.84690441 20.27771441 -55.9375 17.5 C-56.46875 15.5 -56.46875 15.5 -56.4375 13.5 C-56.45296875 12.51 -56.45296875 12.51 -56.46875 11.5 C-55.6762371 8.51642201 -54.36943916 7.37742535 -51.9375 5.5 C-48.7578125 4.5234375 -48.7578125 4.5234375 -45.0625 3.875 C-44.40266113 3.75584229 -43.74282227 3.63668457 -43.06298828 3.51391602 C-37.51721575 2.53451116 -31.94399309 1.72475671 -26.36328125 0.97265625 C-22.8983995 0.49460529 -19.45179633 -0.06087786 -16 -0.625 C-4.59044664 -2.34405786 -4.59044664 -2.34405786 0 0 Z " transform="translate(255.9375,213.5)" style="fill: #040404;"/><path d="M0 0 C16.5 0 33 0 50 0 C50 3.96 50 7.92 50 12 C33.5 12 17 12 0 12 C0 8.04 0 4.08 0 0 Z " transform="translate(272,332)" style="fill: #FDF9CF;"/><path d="M0 0 C0.5775 0.66 1.155 1.32 1.75 2 C1.37671065 7.35048061 -0.2457657 9.50912907 -4.25 13 C-5.178125 11.7934375 -5.178125 11.7934375 -6.125 10.5625 C-8.77220172 7.37028616 -9.45819128 7.10457851 -13.5625 6.5625 C-17.80260496 6.57013983 -20.64545165 8.06464219 -24.375 10 C-31.15016226 13.34009167 -37.76594433 14.55329457 -45.25 13 C-47.62678885 10.64781559 -48.20889395 9.60288868 -48.4375 6.25 C-48.375625 5.5075 -48.31375 4.765 -48.25 4 C-47.69570313 4.15855469 -47.14140625 4.31710937 -46.5703125 4.48046875 C-38.16462252 6.36255085 -30.82020216 4.86984215 -23.25 1 C-22.26 0.34 -21.27 -0.32 -20.25 -1 C-13.69046709 -2.71744527 -5.88424756 -3.62107542 0 0 Z " transform="translate(322.25,313)" style="fill: #F8F8F8;"/><path d="M0 0 C19.8 0 39.6 0 60 0 C57 2 57 2 53.5625 3.375 C50.19599888 4.910597 48.38339963 6.23525643 46 9 C45.01 8.34 44.02 7.68 43 7 C39.89996529 6.68162303 39.89996529 6.68162303 36.5 6.75 C35.3553125 6.74484375 34.210625 6.7396875 33.03125 6.734375 C29.82333837 6.77114432 29.82333837 6.77114432 27 9 C26.34 7.68 25.68 6.36 25 5 C22.75006641 4.97292861 20.50003905 4.95357171 18.25 4.9375 C16.37054688 4.92009766 16.37054688 4.92009766 14.453125 4.90234375 C11.15583096 4.86356283 11.15583096 4.86356283 8.67578125 5.6171875 C8.12277344 5.74351562 7.56976563 5.86984375 7 6 C4.9375 4.1875 4.9375 4.1875 3 2 C2.01 1.34 1.02 0.68 0 0 Z " transform="translate(269,359)" style="fill: #F4F4F4;"/><path d="M0 0 C1 1 1 1 1.09765625 3.72265625 C1.08605469 4.82480469 1.07445312 5.92695313 1.0625 7.0625 C1.05347656 8.16722656 1.04445313 9.27195312 1.03515625 10.41015625 C1.02355469 11.26480469 1.01195312 12.11945313 1 13 C-2.63 13 -6.26 13 -10 13 C-12.10814567 8.78370866 -12.17700355 6.60209225 -12 2 C-7.88439805 0.00455663 -4.54950416 -0.26247139 0 0 Z " transform="translate(298,284)" style="fill: #EFEFEF;"/><path d="M0 0 C0.80308594 -0.02578125 1.60617187 -0.0515625 2.43359375 -0.078125 C3.48740234 0.08429688 3.48740234 0.08429688 4.5625 0.25 C7.24177341 4.26891012 6.71851248 6.49161923 6.5625 11.25 C4.03774538 12.51237731 2.25049534 12.34856404 -0.5625 12.3125 C-1.47257812 12.30347656 -2.38265625 12.29445313 -3.3203125 12.28515625 C-4.01898438 12.27355469 -4.71765625 12.26195312 -5.4375 12.25 C-5.46437279 10.43757948 -5.48383715 8.62504767 -5.5 6.8125 C-5.51160156 5.80316406 -5.52320313 4.79382813 -5.53515625 3.75390625 C-5.37205563 -0.4279937 -3.76171868 0.072225 0 0 Z " transform="translate(306.4375,369.75)" style="fill: #EBEBEB;"/><path d="M0 0 C0.80308594 0.01417969 1.60617187 0.02835937 2.43359375 0.04296875 C3.64208984 0.05263672 3.64208984 0.05263672 4.875 0.0625 C6.87109375 0.23046875 6.87109375 0.23046875 7.87109375 1.23046875 C7.96933371 2.70695751 8.00082894 4.18822292 7.99609375 5.66796875 C7.99867188 6.47105469 8.00125 7.27414062 8.00390625 8.1015625 C7.87109375 10.23046875 7.87109375 10.23046875 6.87109375 12.23046875 C5.43272624 12.11588182 3.99538409 11.98837759 2.55859375 11.85546875 C1.35783203 11.75105469 1.35783203 11.75105469 0.1328125 11.64453125 C-2.12890625 11.23046875 -2.12890625 11.23046875 -5.12890625 9.23046875 C-4.15325623 0.44961856 -4.15325623 0.44961856 0 0 Z " transform="translate(284.12890625,367.76953125)" style="fill: #E9E9E9;"/><path d="M0 0 C4.54805635 -0.17835515 7.8794254 0.00214565 12 2 C12.25 8.625 12.25 8.625 10 12 C7.6171875 12.29296875 7.6171875 12.29296875 4.875 12.1875 C2.461875 12.0946875 2.461875 12.0946875 0 12 C0 8.04 0 4.08 0 0 Z " transform="translate(305,284)" style="fill: #FAFAFA;"/><path d="M0 0 C3.55780196 0.60990891 6.6828589 1.5783681 10 3 C9.67 6.3 9.34 9.6 9 13 C5.98709563 12.6576245 3.3729978 12.15302474 0.5625 11 C-1.42949971 8.45024037 -1.0913784 7.46406577 -0.75 4.3125 C-0.52019671 2.87163335 -0.27632268 1.43267304 0 0 Z " transform="translate(323,288)" style="fill: #F4F4F4;"/><path d="M0 0 C1.1577506 3.47325181 1.06866652 6.36067448 1 10 C-4.625 13 -4.625 13 -8 13 C-9.54163175 9.9167365 -9.29747535 7.39121901 -9 4 C-6.45240232 1.36455413 -3.73944872 0 0 0 Z " transform="translate(330,365)" style="fill: #F8F8F8;"/><path d="M0 0 C0.33 1.65 0.66 3.3 1 5 C-0.28716647 6.00578589 -1.57988658 7.00446798 -2.875 8 C-3.95394531 8.8353125 -3.95394531 8.8353125 -5.0546875 9.6875 C-7 11 -7 11 -9 11 C-10.1577506 7.52674819 -10.06866652 4.63932552 -10 1 C-6.21812119 -0.83691257 -4.05431692 -1.15837626 0 0 Z " transform="translate(347,360)" style="fill: #F0F0F0;"/><path d="M0 0 C0.125 6.75 0.125 6.75 -1 9 C-2.84765625 9.6328125 -2.84765625 9.6328125 -5.0625 10.125 C-5.79597656 10.29257812 -6.52945312 10.46015625 -7.28515625 10.6328125 C-7.85105469 10.75398438 -8.41695313 10.87515625 -9 11 C-10.4606285 8.35261084 -11 7.10551666 -11 4 C-9.5437455 3.32880451 -8.08492133 2.66318193 -6.625 2 C-5.81289063 1.62875 -5.00078125 1.2575 -4.1640625 0.875 C-2 0 -2 0 0 0 Z " transform="translate(280,288)" style="fill: #EEEEEE;"/><path d="M0 0 C3.99500618 1.3697164 6.80009492 3.25722422 10 6 C9.67 7.32 9.34 8.64 9 10 C7.375 10.6875 7.375 10.6875 5 11 C1.75 9.5625 1.75 9.5625 -1 8 C-0.67 5.36 -0.34 2.72 0 0 Z " transform="translate(341,297)" style="fill: #EEEEEE;"/><path d="M0 0 C3.34373475 0.55728913 6.03312999 1.35173889 9 3 C9 5.31 9 7.62 9 10 C5.9168649 8.80100302 2.93720508 7.52299523 0 6 C0 4.02 0 2.04 0 0 Z " transform="translate(262,363)" style="fill: #F3F3F3;"/><path d="M0 0 C0.66 0.33 1.32 0.66 2 1 C2 2.65 2 4.3 2 6 C-1.4019487 8.09350689 -4.05272412 8.17942163 -8 8 C-6.49776416 3.79373966 -3.71449966 2.26099979 0 0 Z " transform="translate(260,298)" style="fill: #EFEFEF;"/><path d="M0 0 C1.98 0 3.96 0 6 0 C5.67 1.65 5.34 3.3 5 5 C3.35 3.35 1.7 1.7 0 0 Z " transform="translate(252,359)" style="fill: #F1F1F1;"/></svg>