<?xml version="1.0" encoding="utf-8" ?>
<svg baseProfile="full" height="500" version="1.1" viewBox="0 0 500 500" width="500" xmlns="http://www.w3.org/2000/svg" xmlns:ev="http://www.w3.org/2001/xml-events" xmlns:xlink="http://www.w3.org/1999/xlink"><defs /><path d="M 385,83 L 384,84 L 383,84 L 382,85 L 380,85 L 380,86 L 376,90 L 373,90 L 372,91 L 370,91 L 369,92 L 367,92 L 366,93 L 365,93 L 363,95 L 362,95 L 362,96 L 361,97 L 360,97 L 360,98 L 359,99 L 359,100 L 358,101 L 358,104 L 357,105 L 357,108 L 356,109 L 357,110 L 356,111 L 357,112 L 356,113 L 358,115 L 358,117 L 356,119 L 356,120 L 355,121 L 355,122 L 354,123 L 354,124 L 353,125 L 353,126 L 352,127 L 352,131 L 351,132 L 351,134 L 352,135 L 352,139 L 353,140 L 352,141 L 353,141 L 354,142 L 354,143 L 360,149 L 361,149 L 363,151 L 363,159 L 364,160 L 364,163 L 365,164 L 365,166 L 366,167 L 366,168 L 369,171 L 369,172 L 364,177 L 364,179 L 363,180 L 363,181 L 362,182 L 362,183 L 361,184 L 361,187 L 360,188 L 360,189 L 359,190 L 359,192 L 358,193 L 358,194 L 357,195 L 357,197 L 356,198 L 356,199 L 355,200 L 355,201 L 354,202 L 354,204 L 353,205 L 353,206 L 352,207 L 352,209 L 351,210 L 351,211 L 350,212 L 350,213 L 349,214 L 349,216 L 348,217 L 348,218 L 347,219 L 347,220 L 346,221 L 346,222 L 345,223 L 345,225 L 344,226 L 344,227 L 343,228 L 343,229 L 342,230 L 342,231 L 340,233 L 340,236 L 339,237 L 339,238 L 338,239 L 338,240 L 337,241 L 337,242 L 336,243 L 336,244 L 335,245 L 335,246 L 334,247 L 334,248 L 333,249 L 333,250 L 332,251 L 332,252 L 330,254 L 330,255 L 329,256 L 329,257 L 328,258 L 328,259 L 326,261 L 326,262 L 324,264 L 324,265 L 322,267 L 323,268 L 324,268 L 326,270 L 326,271 L 325,272 L 325,274 L 324,275 L 324,276 L 323,277 L 324,278 L 324,280 L 325,281 L 325,282 L 326,283 L 326,285 L 325,286 L 324,285 L 323,285 L 317,279 L 317,278 L 315,276 L 315,267 L 316,266 L 316,257 L 317,256 L 316,255 L 316,252 L 315,251 L 315,250 L 314,249 L 315,248 L 314,248 L 309,243 L 308,243 L 307,242 L 298,242 L 297,243 L 295,243 L 294,242 L 291,242 L 290,241 L 290,240 L 289,239 L 289,236 L 288,235 L 282,241 L 280,241 L 279,242 L 278,242 L 277,243 L 276,243 L 275,244 L 266,244 L 265,245 L 263,245 L 258,250 L 258,251 L 256,253 L 256,265 L 257,266 L 257,268 L 256,269 L 257,270 L 257,271 L 258,272 L 258,276 L 257,277 L 258,278 L 258,281 L 256,283 L 256,284 L 248,292 L 247,292 L 245,294 L 245,295 L 248,295 L 249,296 L 250,295 L 258,295 L 259,296 L 261,294 L 263,294 L 264,293 L 265,293 L 267,291 L 268,291 L 270,289 L 270,288 L 271,287 L 275,291 L 275,292 L 274,293 L 273,293 L 272,294 L 271,294 L 270,295 L 269,295 L 268,296 L 267,296 L 266,297 L 265,297 L 260,302 L 260,303 L 259,304 L 259,307 L 257,309 L 258,310 L 257,311 L 257,314 L 256,315 L 256,318 L 255,319 L 255,321 L 254,322 L 254,324 L 253,325 L 253,328 L 252,329 L 252,331 L 250,333 L 251,334 L 250,335 L 250,337 L 248,339 L 249,340 L 248,341 L 248,343 L 247,344 L 247,345 L 246,346 L 246,347 L 244,349 L 244,352 L 243,353 L 242,352 L 242,350 L 241,349 L 241,348 L 240,347 L 240,346 L 239,345 L 239,343 L 238,342 L 238,341 L 237,340 L 237,338 L 236,337 L 236,335 L 235,334 L 235,332 L 234,331 L 234,329 L 233,328 L 233,325 L 232,324 L 232,322 L 231,321 L 231,318 L 230,317 L 230,315 L 229,314 L 229,311 L 228,310 L 228,307 L 227,306 L 227,304 L 226,303 L 226,302 L 225,301 L 225,300 L 224,300 L 221,297 L 220,297 L 219,296 L 218,296 L 217,295 L 216,295 L 215,294 L 214,294 L 213,293 L 212,293 L 211,292 L 211,291 L 218,284 L 218,283 L 219,282 L 219,281 L 220,280 L 220,278 L 221,277 L 221,273 L 222,272 L 223,273 L 223,269 L 224,268 L 223,267 L 223,265 L 222,264 L 222,259 L 221,258 L 221,257 L 222,256 L 221,256 L 220,255 L 220,253 L 219,252 L 219,251 L 218,250 L 218,249 L 211,242 L 210,242 L 209,241 L 207,241 L 206,240 L 193,240 L 192,241 L 191,241 L 190,242 L 189,242 L 184,247 L 184,248 L 181,251 L 181,254 L 180,255 L 180,256 L 179,257 L 179,262 L 178,263 L 178,266 L 177,267 L 178,268 L 178,270 L 179,271 L 179,275 L 180,276 L 179,277 L 181,279 L 181,281 L 182,282 L 182,283 L 184,285 L 184,286 L 189,291 L 189,292 L 188,293 L 187,293 L 186,294 L 185,294 L 184,295 L 182,295 L 180,297 L 179,297 L 176,300 L 175,300 L 175,301 L 174,302 L 174,303 L 173,304 L 173,306 L 172,307 L 172,310 L 171,311 L 171,313 L 170,314 L 170,317 L 169,318 L 169,321 L 168,322 L 168,324 L 167,325 L 167,327 L 166,328 L 166,330 L 165,331 L 165,334 L 164,335 L 164,337 L 163,338 L 163,339 L 162,340 L 162,342 L 161,343 L 161,345 L 160,346 L 160,347 L 159,348 L 159,349 L 158,350 L 158,352 L 157,353 L 157,355 L 156,356 L 156,358 L 155,359 L 156,360 L 156,363 L 160,367 L 166,367 L 167,366 L 168,366 L 170,364 L 171,364 L 174,361 L 174,360 L 176,358 L 177,359 L 177,364 L 176,365 L 177,366 L 177,370 L 176,371 L 176,388 L 175,389 L 175,396 L 174,397 L 175,398 L 175,407 L 174,408 L 174,410 L 172,412 L 171,412 L 167,416 L 167,419 L 168,420 L 168,421 L 170,423 L 173,423 L 174,424 L 177,424 L 178,425 L 179,424 L 180,424 L 181,423 L 184,423 L 185,422 L 186,422 L 187,421 L 188,421 L 191,418 L 191,416 L 192,415 L 192,414 L 193,413 L 193,411 L 194,410 L 194,408 L 196,406 L 195,405 L 196,404 L 196,401 L 197,400 L 197,399 L 198,398 L 197,397 L 198,396 L 198,392 L 199,391 L 199,388 L 200,387 L 201,388 L 201,390 L 202,391 L 202,395 L 203,396 L 203,398 L 202,399 L 203,400 L 203,401 L 204,402 L 204,404 L 205,405 L 205,408 L 206,409 L 206,411 L 207,412 L 207,413 L 208,414 L 208,416 L 209,417 L 209,418 L 214,423 L 215,423 L 216,424 L 218,424 L 219,425 L 226,425 L 227,426 L 227,425 L 228,424 L 229,424 L 230,423 L 231,423 L 231,420 L 232,419 L 231,418 L 231,417 L 226,412 L 226,411 L 225,410 L 225,392 L 224,391 L 224,385 L 225,384 L 224,383 L 224,373 L 223,372 L 223,363 L 224,362 L 223,361 L 223,359 L 224,358 L 226,360 L 226,361 L 227,362 L 227,363 L 228,363 L 230,365 L 231,365 L 232,366 L 233,366 L 234,367 L 235,367 L 236,368 L 237,367 L 239,367 L 240,368 L 239,367 L 240,366 L 241,366 L 243,364 L 245,366 L 246,366 L 247,367 L 252,367 L 253,366 L 254,366 L 255,365 L 256,365 L 259,362 L 260,362 L 260,360 L 262,358 L 263,359 L 263,374 L 262,375 L 262,388 L 261,389 L 262,390 L 262,393 L 261,394 L 261,398 L 260,399 L 261,400 L 261,408 L 256,413 L 255,413 L 253,415 L 253,416 L 254,417 L 254,419 L 257,422 L 259,422 L 260,423 L 261,423 L 262,424 L 263,423 L 270,423 L 271,422 L 272,422 L 273,421 L 274,421 L 277,418 L 277,417 L 278,416 L 278,414 L 279,413 L 279,412 L 280,411 L 280,409 L 281,408 L 281,406 L 282,405 L 282,402 L 283,401 L 283,398 L 284,397 L 284,394 L 285,393 L 285,389 L 286,388 L 287,388 L 288,389 L 288,394 L 289,395 L 289,399 L 290,400 L 290,403 L 291,404 L 291,406 L 292,407 L 292,410 L 293,411 L 293,412 L 294,413 L 294,415 L 295,416 L 295,418 L 300,423 L 301,423 L 302,424 L 304,424 L 305,425 L 313,425 L 314,424 L 315,424 L 317,422 L 317,419 L 318,418 L 317,418 L 316,417 L 316,416 L 312,412 L 312,405 L 311,404 L 311,386 L 310,385 L 310,375 L 311,374 L 310,373 L 310,371 L 311,370 L 310,369 L 310,367 L 309,366 L 309,358 L 310,357 L 311,358 L 311,359 L 313,361 L 313,362 L 316,365 L 317,365 L 318,366 L 320,366 L 321,367 L 326,367 L 330,363 L 330,355 L 329,354 L 329,352 L 328,351 L 328,349 L 327,348 L 327,347 L 326,346 L 326,345 L 325,344 L 325,343 L 324,342 L 324,340 L 323,339 L 323,337 L 322,336 L 322,334 L 321,333 L 321,331 L 320,330 L 320,328 L 319,327 L 319,324 L 318,323 L 318,321 L 317,320 L 317,317 L 316,316 L 316,312 L 315,311 L 315,310 L 314,309 L 314,306 L 313,305 L 313,302 L 310,299 L 309,299 L 307,297 L 306,297 L 305,296 L 304,296 L 303,295 L 302,295 L 301,294 L 300,294 L 298,292 L 300,290 L 301,290 L 302,289 L 302,288 L 303,287 L 305,287 L 306,288 L 307,288 L 309,290 L 311,290 L 312,291 L 316,291 L 317,292 L 319,292 L 320,291 L 326,291 L 327,290 L 330,290 L 330,289 L 331,288 L 332,289 L 339,289 L 340,288 L 341,288 L 342,287 L 342,286 L 345,283 L 346,283 L 347,284 L 350,284 L 350,282 L 352,280 L 352,279 L 354,277 L 354,276 L 355,275 L 355,274 L 357,272 L 358,273 L 358,274 L 357,275 L 357,278 L 356,279 L 356,280 L 355,281 L 355,285 L 354,286 L 354,288 L 353,289 L 353,291 L 352,292 L 352,295 L 350,297 L 351,298 L 350,299 L 350,302 L 349,303 L 349,305 L 348,306 L 348,309 L 347,310 L 347,312 L 346,313 L 346,316 L 345,317 L 345,319 L 344,320 L 344,323 L 343,324 L 343,326 L 342,327 L 342,330 L 341,331 L 341,333 L 364,333 L 365,334 L 365,336 L 364,337 L 365,338 L 365,342 L 364,343 L 364,353 L 363,354 L 363,364 L 362,365 L 362,366 L 361,367 L 362,368 L 362,376 L 361,377 L 361,387 L 360,388 L 360,398 L 359,399 L 359,408 L 358,409 L 358,416 L 359,417 L 359,419 L 360,420 L 360,421 L 361,422 L 362,422 L 363,423 L 366,423 L 367,424 L 372,424 L 373,425 L 374,425 L 375,424 L 378,424 L 379,423 L 380,423 L 381,422 L 382,422 L 382,420 L 383,419 L 385,419 L 386,418 L 388,418 L 391,415 L 391,406 L 392,405 L 392,403 L 393,402 L 392,401 L 392,389 L 393,388 L 392,387 L 392,375 L 393,374 L 392,373 L 392,366 L 393,365 L 393,351 L 394,350 L 393,349 L 394,348 L 393,347 L 393,334 L 394,333 L 407,333 L 408,334 L 408,353 L 409,354 L 409,372 L 408,373 L 409,374 L 409,393 L 410,394 L 410,415 L 413,418 L 415,418 L 416,419 L 418,419 L 419,420 L 419,421 L 421,423 L 422,423 L 424,425 L 425,424 L 426,424 L 427,425 L 428,425 L 429,424 L 431,424 L 432,425 L 433,424 L 434,424 L 435,423 L 438,423 L 439,422 L 440,422 L 442,420 L 442,418 L 443,417 L 443,407 L 442,406 L 442,401 L 443,400 L 442,399 L 442,396 L 441,395 L 441,385 L 440,384 L 440,373 L 439,372 L 439,367 L 440,366 L 439,365 L 439,362 L 438,361 L 438,351 L 437,350 L 437,341 L 438,340 L 436,338 L 436,334 L 437,333 L 462,333 L 461,332 L 461,329 L 460,328 L 460,324 L 459,323 L 459,320 L 458,319 L 458,315 L 457,314 L 457,311 L 456,310 L 456,306 L 455,305 L 455,302 L 454,301 L 454,298 L 453,297 L 453,292 L 452,291 L 452,289 L 451,288 L 451,284 L 450,283 L 450,280 L 449,279 L 450,278 L 449,277 L 449,276 L 448,275 L 448,272 L 449,271 L 450,272 L 450,273 L 452,275 L 452,276 L 453,277 L 453,278 L 455,280 L 455,281 L 456,282 L 456,283 L 457,284 L 459,284 L 460,283 L 461,283 L 467,289 L 475,289 L 476,288 L 477,288 L 477,287 L 481,283 L 481,282 L 482,281 L 482,274 L 481,273 L 482,272 L 480,270 L 482,268 L 483,268 L 484,267 L 483,266 L 483,265 L 481,263 L 481,262 L 479,260 L 479,259 L 477,257 L 477,256 L 476,255 L 476,254 L 475,253 L 475,252 L 474,251 L 474,250 L 473,249 L 473,248 L 472,247 L 472,246 L 471,245 L 471,244 L 470,243 L 470,242 L 469,241 L 469,240 L 468,239 L 468,238 L 467,237 L 467,236 L 466,235 L 466,234 L 465,233 L 465,232 L 464,231 L 464,229 L 463,228 L 463,227 L 462,226 L 462,225 L 461,224 L 461,223 L 460,222 L 460,220 L 459,219 L 459,218 L 458,217 L 458,216 L 457,215 L 457,214 L 456,213 L 456,210 L 454,208 L 454,207 L 453,206 L 453,204 L 452,203 L 452,202 L 451,201 L 451,199 L 450,198 L 450,197 L 449,196 L 449,194 L 448,193 L 448,192 L 447,191 L 447,190 L 446,189 L 447,188 L 445,186 L 445,185 L 446,184 L 445,184 L 444,183 L 444,181 L 443,180 L 443,179 L 441,177 L 441,176 L 440,175 L 440,174 L 439,174 L 435,170 L 434,170 L 433,169 L 433,168 L 435,166 L 435,165 L 437,163 L 437,161 L 438,160 L 438,157 L 439,156 L 439,152 L 438,151 L 438,148 L 437,147 L 437,145 L 436,144 L 436,141 L 437,140 L 438,140 L 437,139 L 437,138 L 438,137 L 438,135 L 437,134 L 437,132 L 438,131 L 438,130 L 439,129 L 439,128 L 440,127 L 440,114 L 439,113 L 439,112 L 438,111 L 438,110 L 437,109 L 437,108 L 436,107 L 436,106 L 435,105 L 435,104 L 434,104 L 432,102 L 431,102 L 430,101 L 429,101 L 427,99 L 427,98 L 426,97 L 426,96 L 425,95 L 425,94 L 424,93 L 424,92 L 421,89 L 421,88 L 420,87 L 419,87 L 417,85 L 416,85 L 415,84 L 413,84 L 412,83 L 407,83 L 406,84 L 403,84 L 402,85 L 401,85 L 400,86 L 399,86 L 397,84 L 396,84 L 395,83 Z" fill="#000000" stroke="none" /><path d="M 90,74 L 89,75 L 88,75 L 87,76 L 85,76 L 83,78 L 82,78 L 75,85 L 75,86 L 73,88 L 73,89 L 71,91 L 71,92 L 70,93 L 70,96 L 69,97 L 68,97 L 69,98 L 68,99 L 68,102 L 67,103 L 67,104 L 68,105 L 68,106 L 67,107 L 68,108 L 67,109 L 68,110 L 68,112 L 67,113 L 68,114 L 67,115 L 68,116 L 68,119 L 69,120 L 69,122 L 70,123 L 70,125 L 71,126 L 71,127 L 72,128 L 72,129 L 73,130 L 73,131 L 74,132 L 74,133 L 77,136 L 77,137 L 78,137 L 80,139 L 80,140 L 81,141 L 79,143 L 77,143 L 76,144 L 73,144 L 72,145 L 70,145 L 69,146 L 68,146 L 67,147 L 66,147 L 65,148 L 64,148 L 62,150 L 61,150 L 60,151 L 59,151 L 47,163 L 46,163 L 47,164 L 46,165 L 46,168 L 45,169 L 45,172 L 44,173 L 44,176 L 43,177 L 43,181 L 42,182 L 42,185 L 41,186 L 41,189 L 40,190 L 40,193 L 39,194 L 39,197 L 38,198 L 38,200 L 37,201 L 37,204 L 36,205 L 36,208 L 35,209 L 35,212 L 34,213 L 33,213 L 34,214 L 34,215 L 32,217 L 33,218 L 33,219 L 32,220 L 32,223 L 31,224 L 31,226 L 30,227 L 30,228 L 29,229 L 30,230 L 29,231 L 29,234 L 28,235 L 28,237 L 27,238 L 27,241 L 26,242 L 26,244 L 25,245 L 25,246 L 24,247 L 25,248 L 24,249 L 24,252 L 23,253 L 23,256 L 22,257 L 22,259 L 21,260 L 21,263 L 20,264 L 20,267 L 19,268 L 19,271 L 18,272 L 18,274 L 17,275 L 17,278 L 16,279 L 16,280 L 17,281 L 17,284 L 18,285 L 18,286 L 20,288 L 20,289 L 21,289 L 22,290 L 23,290 L 24,291 L 33,291 L 34,290 L 35,290 L 40,285 L 44,285 L 45,284 L 45,281 L 46,280 L 46,278 L 47,277 L 47,275 L 48,274 L 48,273 L 49,272 L 49,271 L 50,270 L 51,270 L 53,272 L 53,273 L 57,277 L 57,295 L 56,296 L 56,318 L 55,319 L 55,320 L 54,321 L 55,322 L 54,323 L 55,324 L 55,332 L 54,333 L 55,334 L 55,342 L 54,343 L 54,367 L 53,368 L 53,395 L 52,396 L 52,402 L 51,403 L 52,404 L 52,412 L 53,413 L 53,416 L 54,417 L 54,418 L 59,423 L 61,423 L 62,424 L 73,424 L 74,423 L 76,423 L 77,424 L 77,423 L 78,422 L 80,422 L 80,421 L 81,420 L 82,420 L 82,419 L 83,418 L 83,416 L 84,415 L 84,411 L 85,410 L 86,410 L 87,411 L 88,410 L 92,410 L 92,406 L 93,405 L 93,391 L 94,390 L 94,385 L 95,384 L 94,383 L 94,375 L 95,374 L 95,363 L 96,362 L 95,361 L 95,359 L 96,358 L 96,348 L 97,347 L 98,348 L 98,363 L 99,364 L 99,379 L 100,380 L 100,390 L 99,391 L 100,392 L 100,394 L 101,395 L 101,410 L 104,410 L 105,411 L 106,411 L 107,410 L 108,410 L 110,412 L 110,416 L 111,417 L 111,418 L 113,420 L 113,421 L 114,421 L 115,422 L 116,422 L 117,423 L 118,423 L 119,424 L 120,423 L 121,424 L 131,424 L 132,423 L 134,423 L 135,422 L 136,422 L 139,419 L 139,418 L 140,417 L 140,416 L 141,415 L 141,376 L 140,375 L 140,351 L 139,350 L 139,333 L 140,332 L 139,331 L 139,326 L 138,325 L 138,303 L 137,302 L 137,291 L 138,290 L 137,289 L 137,280 L 136,279 L 136,277 L 143,270 L 143,269 L 144,268 L 145,269 L 145,272 L 146,273 L 146,275 L 147,276 L 146,277 L 147,278 L 147,279 L 148,280 L 148,281 L 149,282 L 149,285 L 154,285 L 155,286 L 155,287 L 156,287 L 159,290 L 160,290 L 161,291 L 170,291 L 171,290 L 172,290 L 174,288 L 175,288 L 175,287 L 176,286 L 176,285 L 177,284 L 177,276 L 176,275 L 176,272 L 175,271 L 175,269 L 174,268 L 174,265 L 173,264 L 173,263 L 174,262 L 173,262 L 172,261 L 172,258 L 171,257 L 171,254 L 170,253 L 170,250 L 169,249 L 169,246 L 168,245 L 168,243 L 167,242 L 167,239 L 166,238 L 166,236 L 165,235 L 165,232 L 164,231 L 164,228 L 163,227 L 163,225 L 162,224 L 162,221 L 161,220 L 161,219 L 162,218 L 161,218 L 160,217 L 160,214 L 159,213 L 159,210 L 158,209 L 158,206 L 157,205 L 157,203 L 156,202 L 156,201 L 157,200 L 155,198 L 155,195 L 154,194 L 154,191 L 153,190 L 153,187 L 152,186 L 152,183 L 151,182 L 151,179 L 150,178 L 150,175 L 149,174 L 149,170 L 148,169 L 148,166 L 147,165 L 147,163 L 141,157 L 141,156 L 140,156 L 137,153 L 136,153 L 133,150 L 132,150 L 130,148 L 129,148 L 128,147 L 127,147 L 126,146 L 124,146 L 123,145 L 121,145 L 120,144 L 118,144 L 117,143 L 115,143 L 113,141 L 122,132 L 122,131 L 123,130 L 123,129 L 124,128 L 124,127 L 125,126 L 125,124 L 126,123 L 126,120 L 127,119 L 127,113 L 128,112 L 128,108 L 127,107 L 127,103 L 128,102 L 126,100 L 126,97 L 125,96 L 125,94 L 124,93 L 124,91 L 123,90 L 123,89 L 121,87 L 121,86 L 118,83 L 118,82 L 117,82 L 113,78 L 112,78 L 111,77 L 110,77 L 109,76 L 107,76 L 106,75 L 104,75 L 103,74 Z" fill="#000000" stroke="none" /><path d="M 64,279 L 64,282 L 63,283 L 63,304 L 62,305 L 62,327 L 61,328 L 61,351 L 60,352 L 60,377 L 59,378 L 59,413 L 60,414 L 60,415 L 62,417 L 64,417 L 65,418 L 70,418 L 71,417 L 75,417 L 77,415 L 77,414 L 78,413 L 78,404 L 79,403 L 84,403 L 85,404 L 86,404 L 86,400 L 87,399 L 87,385 L 88,384 L 88,369 L 89,368 L 89,353 L 90,352 L 90,337 L 91,336 L 91,322 L 92,321 L 92,306 L 93,305 L 93,297 L 94,296 L 100,296 L 101,297 L 101,310 L 102,311 L 102,325 L 103,326 L 103,341 L 104,342 L 104,357 L 105,358 L 105,373 L 106,374 L 106,388 L 107,389 L 107,404 L 108,404 L 109,403 L 110,404 L 111,403 L 115,403 L 116,404 L 116,414 L 119,417 L 123,417 L 124,418 L 129,418 L 130,417 L 132,417 L 134,415 L 134,414 L 135,413 L 135,387 L 134,386 L 134,360 L 133,359 L 133,336 L 132,335 L 132,312 L 131,311 L 131,289 L 130,288 L 130,279 Z" fill="#007878" stroke="none" /><path d="M 203,294 L 202,295 L 196,295 L 194,297 L 193,297 L 192,298 L 191,298 L 190,299 L 189,299 L 188,300 L 187,300 L 186,301 L 185,301 L 184,302 L 183,302 L 181,304 L 180,304 L 180,305 L 179,306 L 179,308 L 178,309 L 178,312 L 177,313 L 177,315 L 176,316 L 176,319 L 175,320 L 175,323 L 174,324 L 174,326 L 173,327 L 173,329 L 172,330 L 172,333 L 171,334 L 171,336 L 170,337 L 170,339 L 169,340 L 169,341 L 168,342 L 168,344 L 167,345 L 167,347 L 166,348 L 166,349 L 165,350 L 165,351 L 164,352 L 167,355 L 168,355 L 169,356 L 171,354 L 171,353 L 172,352 L 172,351 L 173,350 L 173,349 L 174,348 L 174,346 L 175,345 L 175,342 L 176,341 L 176,337 L 177,336 L 177,330 L 178,329 L 183,329 L 184,330 L 184,357 L 183,358 L 183,376 L 182,377 L 182,394 L 181,395 L 181,412 L 176,417 L 175,417 L 182,417 L 183,416 L 184,416 L 185,415 L 185,414 L 186,413 L 186,412 L 187,411 L 187,409 L 188,408 L 188,406 L 189,405 L 189,403 L 190,402 L 190,399 L 191,398 L 191,395 L 192,394 L 192,390 L 193,389 L 193,385 L 194,384 L 194,378 L 195,377 L 195,371 L 196,370 L 196,362 L 197,361 L 197,360 L 198,359 L 203,359 L 204,360 L 204,365 L 205,366 L 205,374 L 206,375 L 206,381 L 207,382 L 207,388 L 208,389 L 208,393 L 209,394 L 209,398 L 210,399 L 210,402 L 211,403 L 211,405 L 212,406 L 212,409 L 213,410 L 213,411 L 214,412 L 214,414 L 215,415 L 215,416 L 216,416 L 218,418 L 220,418 L 221,419 L 224,419 L 219,414 L 219,398 L 218,397 L 218,379 L 217,378 L 217,360 L 216,359 L 216,332 L 215,331 L 217,329 L 222,329 L 223,330 L 223,337 L 224,338 L 224,342 L 225,343 L 225,345 L 226,346 L 226,348 L 227,349 L 227,350 L 228,351 L 228,352 L 229,353 L 229,354 L 231,356 L 235,352 L 235,350 L 234,349 L 234,348 L 233,347 L 233,345 L 232,344 L 232,343 L 231,342 L 231,340 L 230,339 L 230,337 L 229,336 L 229,334 L 228,333 L 228,331 L 227,330 L 227,327 L 226,326 L 226,324 L 225,323 L 225,320 L 224,319 L 224,317 L 223,316 L 223,313 L 222,312 L 222,309 L 221,308 L 221,306 L 217,302 L 216,302 L 215,301 L 214,301 L 213,300 L 212,300 L 211,299 L 210,299 L 209,298 L 208,298 L 207,297 L 206,297 Z" fill="#30a8d8" stroke="none" /><path d="M 427,174 L 425,176 L 424,176 L 423,177 L 422,177 L 421,178 L 419,178 L 418,179 L 416,179 L 415,180 L 412,180 L 411,181 L 405,181 L 404,182 L 401,182 L 400,181 L 394,181 L 393,182 L 392,181 L 392,180 L 389,180 L 388,179 L 386,179 L 385,178 L 383,178 L 382,177 L 381,177 L 380,176 L 379,176 L 378,175 L 376,175 L 374,177 L 373,177 L 371,179 L 371,180 L 369,182 L 369,183 L 368,184 L 368,186 L 367,187 L 367,189 L 366,190 L 366,192 L 365,193 L 365,194 L 364,195 L 364,197 L 363,198 L 363,199 L 362,200 L 362,201 L 361,202 L 361,204 L 360,205 L 360,206 L 359,207 L 359,208 L 358,209 L 358,211 L 357,212 L 357,213 L 356,214 L 356,216 L 355,217 L 355,218 L 354,219 L 354,220 L 353,221 L 353,223 L 352,224 L 352,225 L 351,226 L 351,227 L 350,228 L 350,229 L 349,230 L 349,231 L 348,232 L 348,234 L 347,235 L 347,236 L 346,237 L 346,238 L 345,239 L 345,240 L 344,241 L 344,242 L 343,243 L 343,244 L 342,245 L 342,246 L 341,247 L 341,248 L 340,249 L 340,250 L 339,251 L 339,252 L 338,253 L 338,254 L 337,255 L 337,256 L 336,257 L 336,258 L 335,259 L 335,260 L 333,262 L 333,263 L 332,264 L 332,266 L 333,266 L 335,268 L 336,268 L 338,270 L 339,270 L 341,272 L 342,272 L 344,274 L 345,274 L 347,276 L 347,275 L 348,274 L 348,273 L 350,271 L 350,270 L 351,269 L 351,268 L 353,266 L 353,265 L 355,263 L 355,262 L 356,261 L 356,260 L 358,258 L 358,257 L 359,256 L 359,255 L 361,253 L 361,252 L 363,250 L 363,249 L 364,248 L 365,248 L 366,249 L 367,249 L 368,250 L 369,250 L 370,251 L 370,252 L 369,253 L 370,254 L 370,256 L 369,257 L 369,260 L 368,261 L 368,263 L 367,264 L 367,266 L 366,267 L 366,270 L 365,271 L 365,273 L 364,274 L 364,277 L 363,278 L 363,280 L 362,281 L 362,283 L 361,284 L 361,287 L 360,288 L 360,290 L 359,291 L 359,294 L 358,295 L 358,297 L 357,298 L 357,301 L 356,302 L 356,305 L 355,306 L 355,308 L 354,309 L 354,311 L 353,312 L 353,315 L 352,316 L 352,317 L 353,318 L 352,319 L 351,319 L 351,321 L 350,322 L 350,325 L 349,326 L 349,327 L 454,327 L 454,326 L 453,325 L 453,322 L 452,321 L 452,318 L 451,317 L 451,314 L 450,313 L 450,309 L 449,308 L 449,304 L 448,303 L 448,300 L 447,299 L 447,296 L 446,295 L 446,291 L 445,290 L 445,287 L 444,286 L 444,282 L 443,281 L 443,278 L 442,277 L 442,274 L 441,273 L 441,269 L 440,268 L 440,265 L 439,264 L 439,260 L 438,259 L 438,256 L 437,255 L 437,253 L 436,252 L 439,249 L 440,249 L 441,248 L 442,248 L 444,250 L 444,251 L 446,253 L 446,254 L 447,255 L 447,256 L 449,258 L 449,259 L 451,261 L 451,262 L 452,263 L 452,264 L 454,266 L 454,267 L 455,268 L 455,269 L 457,271 L 457,272 L 459,274 L 459,275 L 460,275 L 461,274 L 462,274 L 463,273 L 464,273 L 467,270 L 468,270 L 469,269 L 470,269 L 472,267 L 473,267 L 475,265 L 473,263 L 473,262 L 472,261 L 472,260 L 471,259 L 471,258 L 470,257 L 470,256 L 468,254 L 468,253 L 467,252 L 467,251 L 466,250 L 466,249 L 465,248 L 465,247 L 464,246 L 464,245 L 463,244 L 463,243 L 462,242 L 462,241 L 461,240 L 461,238 L 460,237 L 460,236 L 459,235 L 459,234 L 458,233 L 458,232 L 457,231 L 457,230 L 456,229 L 456,228 L 455,227 L 455,225 L 454,224 L 454,223 L 453,222 L 453,220 L 452,219 L 452,218 L 450,216 L 450,214 L 449,213 L 449,211 L 448,210 L 448,209 L 447,208 L 447,207 L 446,206 L 446,204 L 445,203 L 445,201 L 444,200 L 444,199 L 443,198 L 443,197 L 442,196 L 442,194 L 441,193 L 441,192 L 440,191 L 440,189 L 439,188 L 439,186 L 438,185 L 438,184 L 437,183 L 437,182 L 436,181 L 436,180 L 432,176 L 431,176 L 430,175 L 429,175 L 428,174 Z" fill="#609018" stroke="none" /><path d="M 414,334 L 414,341 L 415,342 L 415,380 L 416,381 L 416,412 L 417,412 L 418,413 L 419,412 L 423,412 L 424,413 L 424,417 L 425,418 L 432,418 L 433,417 L 436,417 L 436,416 L 437,415 L 437,409 L 436,408 L 436,400 L 435,399 L 435,388 L 434,387 L 434,377 L 433,376 L 433,366 L 432,365 L 432,354 L 431,353 L 431,343 L 430,342 L 430,334 Z" fill="#60a8d8" stroke="none" /><path d="M 372,334 L 371,335 L 371,345 L 370,346 L 370,357 L 369,358 L 369,368 L 368,369 L 368,379 L 367,380 L 367,391 L 366,392 L 366,402 L 365,403 L 365,417 L 368,417 L 369,418 L 376,418 L 377,417 L 377,415 L 378,414 L 378,413 L 379,412 L 382,412 L 383,413 L 384,412 L 385,412 L 385,395 L 386,394 L 385,393 L 386,392 L 386,355 L 387,354 L 386,353 L 387,352 L 387,334 Z" fill="#60a8d8" stroke="none" /><path d="M 195,246 L 194,247 L 193,247 L 188,252 L 188,253 L 187,254 L 187,257 L 188,257 L 191,260 L 192,260 L 193,261 L 194,261 L 200,255 L 201,255 L 204,258 L 204,259 L 206,261 L 207,261 L 212,256 L 214,256 L 214,255 L 213,254 L 213,253 L 211,251 L 211,250 L 210,249 L 209,249 L 207,247 L 205,247 L 204,246 Z" fill="#904818" stroke="none" /><path d="M 428,132 L 428,137 L 427,138 L 427,141 L 426,142 L 426,144 L 425,145 L 425,146 L 424,147 L 424,148 L 423,149 L 423,150 L 421,152 L 421,153 L 414,160 L 413,160 L 411,162 L 412,162 L 413,163 L 414,163 L 415,164 L 417,164 L 418,165 L 425,165 L 426,164 L 427,164 L 428,163 L 429,163 L 430,162 L 430,161 L 432,159 L 432,149 L 431,148 L 431,147 L 427,143 L 427,142 L 431,138 L 431,135 Z" fill="#904818" stroke="none" /><path d="M 387,89 L 386,90 L 385,90 L 381,94 L 381,95 L 380,96 L 375,96 L 374,97 L 372,97 L 371,98 L 369,98 L 367,100 L 366,100 L 366,101 L 364,103 L 364,105 L 363,106 L 363,112 L 364,113 L 364,116 L 365,117 L 365,118 L 363,120 L 363,121 L 361,123 L 361,124 L 360,125 L 360,126 L 359,127 L 359,128 L 358,129 L 358,137 L 359,138 L 359,139 L 364,144 L 365,144 L 366,145 L 367,145 L 370,148 L 370,151 L 369,152 L 369,156 L 370,157 L 370,161 L 371,162 L 371,164 L 373,166 L 375,166 L 376,167 L 379,167 L 380,166 L 383,166 L 384,165 L 386,165 L 387,164 L 388,164 L 389,163 L 390,163 L 390,162 L 389,161 L 388,161 L 386,159 L 385,159 L 378,152 L 378,151 L 376,149 L 376,148 L 375,147 L 375,146 L 374,145 L 374,144 L 373,143 L 373,141 L 372,140 L 372,137 L 371,136 L 371,126 L 372,125 L 372,123 L 373,122 L 376,122 L 377,121 L 380,121 L 381,120 L 383,120 L 384,119 L 385,119 L 386,118 L 387,118 L 392,113 L 392,112 L 393,111 L 393,110 L 394,109 L 394,107 L 395,106 L 395,104 L 396,103 L 396,101 L 398,99 L 399,100 L 399,101 L 400,102 L 400,103 L 402,105 L 402,106 L 403,107 L 403,108 L 408,113 L 409,113 L 411,115 L 412,115 L 413,116 L 414,116 L 415,117 L 416,117 L 417,118 L 419,118 L 420,119 L 422,119 L 423,120 L 426,120 L 428,122 L 428,129 L 429,129 L 430,128 L 432,128 L 433,127 L 433,126 L 434,125 L 434,117 L 433,116 L 433,114 L 432,113 L 432,112 L 431,111 L 431,110 L 428,107 L 426,107 L 425,106 L 424,106 L 423,105 L 423,104 L 422,103 L 422,102 L 421,101 L 421,100 L 420,99 L 420,98 L 419,97 L 419,96 L 417,94 L 417,93 L 415,91 L 414,91 L 413,90 L 410,90 L 409,89 L 408,90 L 405,90 L 404,91 L 403,91 L 401,93 L 400,93 L 399,94 L 395,90 L 394,90 L 393,89 Z" fill="#904818" stroke="none" /><path d="M 92,80 L 91,81 L 90,81 L 89,82 L 88,82 L 87,83 L 86,83 L 80,89 L 80,90 L 78,92 L 78,93 L 77,94 L 77,95 L 76,96 L 76,97 L 81,97 L 82,96 L 87,96 L 88,95 L 91,95 L 92,94 L 95,94 L 96,93 L 98,93 L 99,92 L 100,92 L 101,91 L 102,91 L 103,90 L 104,90 L 105,89 L 106,89 L 108,87 L 108,86 L 110,84 L 109,83 L 108,83 L 107,82 L 105,82 L 104,81 L 102,81 L 101,80 Z" fill="#904818" stroke="none" /><path d="M 115,150 L 115,151 L 112,154 L 112,155 L 110,157 L 110,158 L 108,160 L 108,161 L 106,163 L 106,164 L 104,166 L 104,167 L 102,169 L 102,170 L 100,172 L 100,272 L 132,272 L 137,267 L 137,264 L 136,263 L 136,255 L 135,254 L 135,246 L 134,245 L 134,236 L 133,235 L 133,227 L 132,226 L 132,221 L 133,220 L 138,220 L 139,221 L 139,223 L 140,224 L 140,229 L 141,230 L 141,234 L 142,235 L 142,238 L 143,239 L 143,242 L 144,243 L 144,246 L 145,247 L 145,249 L 146,250 L 146,253 L 147,254 L 147,256 L 148,257 L 148,260 L 149,261 L 149,263 L 150,264 L 150,266 L 151,267 L 151,269 L 152,270 L 152,273 L 153,274 L 153,276 L 154,277 L 154,278 L 156,278 L 157,277 L 158,277 L 159,276 L 160,276 L 161,275 L 162,275 L 163,274 L 164,274 L 165,273 L 166,273 L 167,272 L 168,272 L 169,271 L 168,270 L 168,268 L 167,267 L 167,264 L 166,263 L 166,260 L 165,259 L 165,256 L 164,255 L 164,252 L 163,251 L 163,249 L 162,248 L 162,245 L 161,244 L 161,241 L 160,240 L 160,238 L 159,237 L 159,234 L 158,233 L 158,231 L 157,230 L 157,227 L 156,226 L 156,223 L 155,222 L 155,220 L 154,219 L 154,216 L 153,215 L 153,212 L 152,211 L 152,209 L 151,208 L 151,205 L 150,204 L 150,201 L 149,200 L 149,197 L 148,196 L 148,193 L 147,192 L 147,189 L 146,188 L 146,185 L 145,184 L 145,181 L 144,180 L 144,177 L 143,176 L 143,173 L 142,172 L 142,168 L 141,167 L 141,166 L 133,158 L 132,158 L 129,155 L 128,155 L 126,153 L 125,153 L 124,152 L 122,152 L 121,151 L 119,151 L 118,150 Z" fill="#d81818" stroke="none" /><path d="M 75,150 L 74,151 L 72,151 L 71,152 L 70,152 L 69,153 L 68,153 L 67,154 L 66,154 L 64,156 L 63,156 L 52,167 L 52,170 L 51,171 L 51,174 L 50,175 L 50,179 L 49,180 L 49,183 L 48,184 L 48,187 L 47,188 L 47,191 L 46,192 L 46,195 L 45,196 L 45,199 L 44,200 L 44,203 L 43,204 L 43,206 L 42,207 L 42,210 L 41,211 L 41,214 L 40,215 L 40,217 L 39,218 L 39,221 L 38,222 L 38,225 L 37,226 L 37,228 L 36,229 L 36,232 L 35,233 L 35,236 L 34,237 L 34,239 L 33,240 L 33,243 L 32,244 L 32,246 L 31,247 L 31,250 L 30,251 L 30,254 L 29,255 L 29,258 L 28,259 L 28,261 L 27,262 L 27,265 L 26,266 L 26,269 L 25,270 L 25,272 L 27,272 L 28,273 L 29,273 L 30,274 L 31,274 L 32,275 L 33,275 L 34,276 L 35,276 L 36,277 L 37,277 L 38,278 L 40,278 L 40,276 L 41,275 L 41,273 L 42,272 L 42,269 L 43,268 L 43,266 L 44,265 L 44,263 L 45,262 L 45,260 L 46,259 L 46,256 L 47,255 L 47,253 L 48,252 L 48,249 L 49,248 L 49,246 L 50,245 L 50,242 L 51,241 L 51,238 L 52,237 L 52,233 L 53,232 L 53,228 L 54,227 L 54,222 L 56,220 L 61,220 L 62,221 L 62,223 L 61,224 L 61,233 L 60,234 L 60,242 L 59,243 L 59,251 L 58,252 L 58,261 L 57,262 L 57,268 L 61,272 L 93,272 L 93,173 L 92,172 L 92,171 L 90,169 L 90,168 L 89,167 L 89,166 L 87,164 L 87,163 L 85,161 L 85,160 L 84,159 L 84,158 L 82,156 L 82,155 L 81,154 L 81,153 L 79,151 L 79,150 Z" fill="#d81818" stroke="none" /><path d="M 282,295 L 281,296 L 281,297 L 280,298 L 278,298 L 277,299 L 276,299 L 275,300 L 274,300 L 273,301 L 272,301 L 271,302 L 270,302 L 269,303 L 268,303 L 266,305 L 266,306 L 265,307 L 265,309 L 264,310 L 264,313 L 263,314 L 263,316 L 264,317 L 263,318 L 262,318 L 262,320 L 261,321 L 261,324 L 260,325 L 260,327 L 259,328 L 259,331 L 258,332 L 258,333 L 257,334 L 257,337 L 256,338 L 256,340 L 255,341 L 255,342 L 254,343 L 254,345 L 253,346 L 253,348 L 252,349 L 252,350 L 251,351 L 251,353 L 252,353 L 254,355 L 256,355 L 257,354 L 257,353 L 258,352 L 258,351 L 259,350 L 259,349 L 260,348 L 260,346 L 261,345 L 261,343 L 262,342 L 262,338 L 263,337 L 263,330 L 264,329 L 270,329 L 271,330 L 271,333 L 272,334 L 271,335 L 271,336 L 270,337 L 270,355 L 271,356 L 270,357 L 270,363 L 269,364 L 269,379 L 270,380 L 269,381 L 269,382 L 268,383 L 268,401 L 267,402 L 267,412 L 264,415 L 263,415 L 262,416 L 262,417 L 267,417 L 268,416 L 270,416 L 271,415 L 271,414 L 272,413 L 272,412 L 273,411 L 273,409 L 274,408 L 274,406 L 275,405 L 275,403 L 276,402 L 276,400 L 277,399 L 277,395 L 278,394 L 278,392 L 277,391 L 278,390 L 279,390 L 279,386 L 280,385 L 280,380 L 281,379 L 281,376 L 280,375 L 281,374 L 281,372 L 282,371 L 282,364 L 283,363 L 283,360 L 285,358 L 286,359 L 289,359 L 290,360 L 290,361 L 291,362 L 291,371 L 292,372 L 292,378 L 293,379 L 293,385 L 294,386 L 294,387 L 295,388 L 294,389 L 294,391 L 295,392 L 295,396 L 296,397 L 296,400 L 297,401 L 297,404 L 298,405 L 298,407 L 300,409 L 299,410 L 300,411 L 300,412 L 301,413 L 301,415 L 303,417 L 304,417 L 305,418 L 307,418 L 308,419 L 310,419 L 306,415 L 306,413 L 305,412 L 305,394 L 304,393 L 304,375 L 303,374 L 303,372 L 302,371 L 303,370 L 303,356 L 302,355 L 302,330 L 304,328 L 305,329 L 308,329 L 309,330 L 309,334 L 310,335 L 310,340 L 312,342 L 311,343 L 311,344 L 312,345 L 312,346 L 313,347 L 313,349 L 314,350 L 314,351 L 315,352 L 315,353 L 317,355 L 317,356 L 321,352 L 321,350 L 320,349 L 320,348 L 319,347 L 319,345 L 318,344 L 318,343 L 317,342 L 317,340 L 316,339 L 316,336 L 315,335 L 315,333 L 314,332 L 314,330 L 313,329 L 313,327 L 312,326 L 312,323 L 311,322 L 311,320 L 310,319 L 310,316 L 309,315 L 309,312 L 308,311 L 308,309 L 307,308 L 307,306 L 306,305 L 305,305 L 304,304 L 304,303 L 303,302 L 301,302 L 299,300 L 297,300 L 295,298 L 294,298 L 293,297 L 292,297 L 291,296 L 284,296 L 283,295 Z" fill="#f04818" stroke="none" /><path d="M 309,269 L 309,276 L 308,277 L 308,280 L 309,281 L 309,282 L 310,283 L 311,283 L 312,284 L 313,284 L 314,285 L 311,282 L 311,281 L 310,280 L 310,279 L 309,278 Z" fill="#f0c000" stroke="none" /><path d="M 263,267 L 263,268 L 264,269 L 264,276 L 265,277 L 265,279 L 264,280 L 264,283 L 263,284 L 263,285 L 262,286 L 262,287 L 261,288 L 263,286 L 264,286 L 264,285 L 266,283 L 266,280 L 265,279 L 265,274 L 264,273 L 264,268 Z" fill="#f0c000" stroke="none" /><path d="M 266,251 L 263,254 L 263,256 L 262,257 L 262,262 L 263,263 L 263,259 L 264,258 L 264,256 L 265,255 L 265,254 L 266,253 L 266,252 L 267,251 Z" fill="#f0c000" stroke="none" /><path d="M 304,248 L 306,250 L 306,251 L 308,253 L 308,254 L 309,255 L 309,257 L 310,258 L 310,261 L 310,255 L 309,254 L 309,253 L 308,252 L 308,251 L 306,249 L 305,249 Z" fill="#f0c000" stroke="none" /><path d="M 286,246 L 285,247 L 283,247 L 282,248 L 280,248 L 278,250 L 277,250 L 274,253 L 274,254 L 272,256 L 272,257 L 271,258 L 271,260 L 270,261 L 270,262 L 279,262 L 279,261 L 280,260 L 280,258 L 281,257 L 281,256 L 282,255 L 282,253 L 283,252 L 283,250 L 285,248 L 286,249 L 286,250 L 287,251 L 287,254 L 288,255 L 288,258 L 289,259 L 289,260 L 290,261 L 303,261 L 303,260 L 302,259 L 302,257 L 300,255 L 300,254 L 297,251 L 296,251 L 295,250 L 294,250 L 293,249 L 292,249 L 291,248 L 288,248 Z" fill="#f0c000" stroke="none" /><path d="M 169,279 L 168,280 L 167,280 L 167,281 L 166,282 L 165,281 L 164,282 L 163,282 L 162,283 L 161,283 L 162,284 L 163,284 L 164,285 L 167,285 L 168,284 L 169,284 L 169,283 L 171,281 L 171,279 L 170,280 Z" fill="#f0d8d8" stroke="none" /><path d="M 24,279 L 23,280 L 23,282 L 26,285 L 30,285 L 32,283 L 31,282 L 30,282 L 29,281 L 28,281 L 27,280 L 25,280 Z" fill="#f0d8d8" stroke="none" /><path d="M 331,275 L 331,280 L 332,281 L 333,281 L 335,283 L 336,283 L 337,282 L 337,281 L 338,280 L 339,280 L 339,279 L 338,279 L 335,276 L 334,276 L 333,275 Z" fill="#f0d8d8" stroke="none" /><path d="M 475,274 L 473,276 L 472,276 L 471,277 L 470,277 L 468,279 L 468,281 L 469,281 L 470,282 L 470,283 L 472,283 L 475,280 L 475,279 L 476,278 L 476,277 L 474,275 Z" fill="#f0d8d8" stroke="none" /><path d="M 285,267 L 285,268 L 284,269 L 274,269 L 273,270 L 272,269 L 272,275 L 273,276 L 273,278 L 275,280 L 275,281 L 276,282 L 276,283 L 278,285 L 280,285 L 281,286 L 281,287 L 282,287 L 283,288 L 292,288 L 294,286 L 295,286 L 299,282 L 299,281 L 300,280 L 300,279 L 301,278 L 301,276 L 300,275 L 302,273 L 302,270 L 301,269 L 299,269 L 298,268 L 292,268 L 291,269 L 286,269 L 285,268 Z" fill="#f0d8d8" stroke="none" /><path d="M 200,265 L 199,266 L 198,266 L 194,270 L 192,270 L 188,266 L 187,267 L 187,268 L 185,270 L 186,271 L 186,276 L 188,278 L 188,280 L 189,281 L 189,282 L 191,284 L 192,284 L 194,286 L 195,286 L 196,287 L 204,287 L 205,286 L 206,286 L 208,284 L 209,284 L 209,283 L 210,282 L 211,282 L 211,281 L 213,279 L 213,278 L 214,277 L 214,275 L 215,274 L 215,269 L 214,268 L 215,267 L 213,265 L 212,266 L 212,267 L 211,268 L 210,268 L 207,271 L 206,271 L 202,267 L 202,266 L 201,265 Z" fill="#f0d8d8" stroke="none" /><path d="M 397,164 L 397,167 L 396,168 L 395,168 L 393,170 L 391,170 L 390,171 L 389,171 L 388,172 L 390,172 L 391,173 L 395,173 L 396,174 L 409,174 L 410,173 L 413,173 L 414,172 L 416,172 L 415,171 L 413,171 L 412,170 L 411,170 L 410,169 L 408,169 L 407,168 L 406,168 L 403,165 L 403,164 L 402,164 L 401,165 L 400,164 Z" fill="#f0d8d8" stroke="none" /><path d="M 86,144 L 86,146 L 85,147 L 87,149 L 87,150 L 88,151 L 88,152 L 89,153 L 90,153 L 91,154 L 90,155 L 92,157 L 92,158 L 93,159 L 93,160 L 95,162 L 95,163 L 96,164 L 96,165 L 97,164 L 97,163 L 98,162 L 98,161 L 99,160 L 100,160 L 100,159 L 101,158 L 101,157 L 104,154 L 104,153 L 106,151 L 106,150 L 109,147 L 108,146 L 108,145 L 107,145 L 106,146 L 105,145 L 104,146 L 91,146 L 90,145 L 88,145 L 87,144 Z" fill="#f0d8d8" stroke="none" /><path d="M 399,114 L 399,116 L 398,117 L 398,118 L 397,119 L 396,119 L 392,123 L 391,123 L 389,125 L 388,125 L 387,126 L 386,126 L 385,127 L 383,127 L 382,128 L 379,128 L 378,129 L 378,134 L 379,135 L 379,138 L 380,139 L 380,141 L 381,142 L 381,143 L 382,144 L 382,145 L 384,147 L 384,148 L 387,151 L 388,151 L 389,152 L 389,153 L 391,153 L 392,154 L 392,155 L 393,155 L 394,156 L 397,156 L 398,157 L 402,157 L 403,156 L 406,156 L 407,155 L 408,155 L 409,154 L 410,154 L 414,150 L 414,149 L 415,148 L 415,147 L 416,146 L 417,146 L 417,145 L 418,144 L 418,143 L 419,142 L 418,141 L 419,140 L 419,139 L 420,138 L 420,136 L 421,135 L 421,127 L 420,126 L 418,126 L 417,125 L 415,125 L 414,124 L 413,124 L 412,123 L 410,123 L 408,121 L 407,121 L 404,118 L 403,118 Z" fill="#f0d8d8" stroke="none" /><path d="M 110,94 L 109,95 L 109,96 L 108,97 L 107,96 L 106,97 L 105,97 L 105,98 L 104,99 L 103,98 L 102,99 L 101,99 L 100,100 L 97,100 L 96,101 L 94,101 L 93,102 L 90,102 L 89,103 L 85,103 L 84,104 L 78,104 L 77,105 L 74,105 L 74,113 L 75,114 L 74,115 L 75,116 L 75,120 L 76,121 L 76,122 L 77,123 L 77,125 L 78,126 L 78,127 L 81,130 L 81,131 L 82,131 L 83,132 L 83,133 L 84,134 L 85,134 L 87,136 L 88,136 L 89,137 L 91,137 L 92,138 L 93,138 L 94,139 L 101,139 L 102,138 L 104,138 L 105,137 L 106,137 L 107,136 L 108,136 L 110,134 L 111,134 L 111,133 L 112,132 L 113,132 L 115,130 L 115,129 L 116,128 L 116,127 L 118,125 L 118,124 L 119,123 L 119,122 L 118,121 L 119,120 L 120,120 L 120,118 L 121,117 L 121,110 L 120,109 L 121,108 L 120,107 L 121,106 L 121,104 L 119,102 L 118,103 L 117,102 L 117,101 L 116,101 L 113,98 L 112,98 L 111,97 L 111,95 Z" fill="#f0d8d8" stroke="none" /></svg>