<?xml version="1.0" encoding="utf-8" ?>
<svg baseProfile="full" height="500" version="1.1" viewBox="0 0 500 500" width="500" xmlns="http://www.w3.org/2000/svg" xmlns:ev="http://www.w3.org/2001/xml-events" xmlns:xlink="http://www.w3.org/1999/xlink"><defs /><path d="M 153,41 L 152,42 L 148,42 L 147,43 L 147,48 L 146,49 L 147,50 L 147,60 L 148,61 L 148,62 L 147,63 L 148,64 L 148,70 L 149,71 L 149,75 L 150,76 L 150,79 L 151,80 L 150,81 L 152,83 L 152,86 L 153,87 L 153,88 L 154,89 L 154,90 L 155,91 L 155,93 L 156,94 L 156,95 L 157,96 L 157,97 L 159,99 L 159,100 L 160,101 L 160,102 L 163,105 L 163,106 L 165,108 L 165,109 L 166,109 L 167,110 L 167,111 L 173,117 L 174,117 L 178,121 L 179,121 L 180,122 L 181,122 L 183,124 L 184,124 L 186,126 L 187,126 L 188,127 L 189,127 L 190,128 L 191,128 L 192,129 L 194,129 L 195,130 L 196,130 L 197,131 L 198,131 L 199,132 L 201,132 L 202,133 L 204,133 L 205,134 L 206,134 L 207,135 L 210,135 L 211,136 L 216,136 L 217,137 L 219,137 L 220,138 L 221,137 L 222,138 L 227,138 L 228,139 L 238,139 L 239,140 L 248,140 L 249,141 L 247,143 L 248,144 L 248,146 L 247,147 L 247,152 L 246,153 L 246,159 L 244,161 L 245,162 L 245,165 L 244,166 L 243,166 L 239,162 L 238,162 L 235,159 L 234,159 L 233,158 L 232,158 L 230,156 L 229,156 L 227,154 L 226,154 L 225,153 L 224,153 L 223,152 L 222,152 L 220,150 L 218,150 L 217,149 L 216,149 L 215,148 L 213,148 L 212,147 L 211,147 L 210,146 L 207,146 L 206,145 L 196,145 L 195,146 L 187,146 L 186,147 L 181,147 L 180,148 L 176,148 L 175,149 L 171,149 L 170,150 L 167,150 L 166,151 L 164,151 L 163,152 L 161,152 L 160,153 L 158,153 L 157,154 L 155,154 L 154,155 L 153,155 L 152,156 L 151,156 L 150,157 L 148,157 L 146,159 L 145,159 L 144,160 L 143,160 L 142,161 L 141,161 L 140,162 L 139,162 L 137,164 L 136,164 L 133,167 L 132,167 L 129,170 L 128,170 L 128,171 L 127,172 L 126,172 L 120,178 L 120,179 L 116,183 L 116,184 L 113,187 L 113,188 L 111,190 L 111,191 L 109,193 L 109,195 L 108,196 L 108,197 L 106,199 L 106,201 L 105,202 L 105,203 L 104,204 L 104,206 L 103,207 L 103,209 L 102,210 L 102,212 L 101,213 L 101,215 L 100,216 L 100,219 L 99,220 L 99,225 L 98,226 L 98,231 L 97,232 L 97,242 L 96,243 L 96,248 L 95,249 L 96,250 L 96,252 L 95,253 L 96,254 L 96,258 L 95,259 L 96,260 L 96,264 L 97,263 L 98,264 L 98,269 L 99,270 L 98,271 L 98,275 L 99,276 L 99,281 L 100,282 L 100,285 L 101,286 L 101,289 L 102,290 L 102,293 L 103,294 L 103,297 L 104,298 L 104,301 L 103,302 L 104,301 L 105,302 L 105,303 L 104,304 L 104,305 L 105,305 L 106,306 L 105,307 L 105,309 L 106,310 L 106,312 L 107,313 L 107,314 L 106,315 L 107,316 L 107,317 L 108,318 L 108,320 L 109,321 L 109,324 L 110,325 L 110,327 L 111,328 L 111,331 L 112,332 L 112,335 L 113,336 L 113,337 L 114,338 L 114,341 L 115,342 L 115,343 L 116,344 L 116,347 L 117,348 L 117,350 L 118,351 L 118,353 L 119,354 L 119,356 L 120,357 L 120,359 L 121,360 L 121,362 L 122,363 L 122,365 L 123,366 L 123,368 L 124,369 L 124,371 L 125,372 L 125,373 L 126,374 L 126,377 L 128,379 L 128,381 L 129,382 L 129,385 L 131,387 L 131,389 L 132,390 L 132,391 L 133,392 L 133,393 L 134,394 L 133,395 L 135,397 L 135,398 L 136,399 L 136,400 L 137,401 L 137,402 L 138,403 L 138,404 L 139,405 L 139,406 L 140,407 L 140,408 L 141,409 L 141,410 L 142,411 L 142,413 L 144,415 L 144,417 L 145,417 L 146,418 L 146,419 L 148,421 L 148,422 L 150,424 L 149,425 L 150,425 L 151,426 L 151,427 L 152,428 L 152,429 L 153,429 L 154,430 L 154,431 L 163,440 L 163,441 L 164,441 L 166,443 L 167,443 L 168,444 L 169,444 L 170,445 L 171,445 L 172,446 L 174,446 L 175,447 L 180,447 L 181,448 L 182,448 L 183,449 L 184,449 L 185,450 L 186,449 L 188,449 L 189,450 L 197,450 L 198,451 L 199,451 L 200,450 L 202,450 L 203,449 L 205,449 L 206,448 L 208,448 L 209,447 L 210,447 L 211,446 L 212,446 L 213,445 L 214,445 L 216,443 L 217,443 L 223,437 L 225,437 L 226,436 L 229,436 L 230,435 L 242,435 L 243,436 L 245,436 L 246,437 L 247,437 L 248,438 L 249,438 L 250,439 L 251,439 L 252,440 L 253,440 L 256,443 L 257,443 L 264,450 L 265,450 L 267,452 L 268,452 L 269,453 L 270,453 L 271,454 L 272,454 L 273,455 L 275,455 L 276,456 L 278,456 L 279,457 L 283,457 L 284,458 L 291,458 L 292,457 L 295,457 L 296,456 L 298,456 L 299,455 L 301,455 L 302,454 L 303,454 L 305,452 L 306,452 L 310,448 L 312,448 L 312,447 L 314,445 L 315,445 L 318,442 L 319,442 L 322,439 L 323,439 L 324,438 L 325,438 L 325,437 L 326,436 L 327,436 L 330,433 L 331,433 L 332,432 L 333,432 L 333,431 L 339,425 L 340,425 L 345,420 L 345,419 L 351,413 L 351,412 L 352,411 L 353,411 L 353,410 L 357,406 L 357,405 L 360,402 L 360,401 L 362,399 L 362,398 L 365,395 L 365,394 L 367,392 L 367,391 L 368,390 L 368,389 L 370,387 L 370,386 L 371,385 L 371,384 L 372,383 L 372,382 L 374,380 L 375,380 L 374,379 L 375,378 L 375,377 L 376,376 L 376,375 L 377,374 L 377,373 L 378,372 L 378,371 L 379,370 L 379,369 L 380,368 L 380,367 L 381,366 L 381,365 L 382,364 L 382,362 L 383,361 L 383,360 L 384,359 L 384,358 L 385,357 L 385,355 L 386,354 L 386,353 L 387,352 L 387,351 L 388,350 L 388,348 L 389,347 L 389,345 L 390,344 L 390,342 L 391,341 L 391,339 L 392,338 L 392,336 L 393,335 L 393,333 L 394,332 L 394,329 L 395,328 L 395,325 L 396,324 L 396,321 L 397,320 L 397,318 L 398,317 L 398,315 L 399,314 L 398,313 L 399,312 L 399,308 L 400,307 L 400,303 L 401,302 L 401,301 L 402,300 L 401,299 L 401,298 L 402,297 L 402,291 L 403,290 L 403,289 L 404,288 L 403,287 L 403,284 L 404,283 L 404,274 L 405,273 L 405,261 L 406,260 L 406,253 L 407,252 L 406,251 L 406,239 L 407,238 L 406,237 L 406,221 L 405,220 L 405,215 L 404,214 L 404,211 L 403,210 L 403,208 L 402,207 L 402,205 L 401,204 L 401,203 L 400,202 L 400,201 L 399,200 L 399,198 L 398,197 L 398,196 L 396,194 L 396,193 L 395,192 L 395,191 L 393,189 L 393,188 L 391,186 L 391,185 L 389,183 L 389,182 L 377,170 L 376,170 L 373,167 L 372,167 L 370,165 L 369,165 L 367,163 L 366,163 L 365,162 L 364,162 L 362,160 L 360,160 L 358,158 L 356,158 L 355,157 L 354,157 L 353,156 L 351,156 L 350,155 L 349,155 L 348,154 L 345,154 L 344,153 L 342,153 L 341,152 L 336,152 L 335,151 L 331,151 L 330,150 L 306,150 L 305,151 L 300,151 L 299,152 L 294,152 L 293,153 L 290,153 L 289,154 L 287,154 L 286,155 L 284,155 L 283,156 L 281,156 L 280,157 L 278,157 L 277,158 L 276,158 L 275,159 L 274,159 L 273,158 L 274,157 L 274,155 L 275,154 L 275,153 L 276,152 L 276,150 L 277,149 L 277,147 L 278,146 L 278,144 L 279,143 L 279,141 L 280,140 L 280,139 L 281,138 L 281,136 L 282,135 L 283,135 L 284,136 L 291,136 L 292,137 L 300,137 L 301,138 L 306,138 L 307,139 L 311,139 L 312,140 L 312,141 L 313,140 L 314,140 L 315,141 L 318,141 L 319,142 L 321,142 L 322,143 L 323,143 L 324,144 L 326,144 L 327,145 L 328,145 L 329,146 L 334,146 L 335,147 L 340,147 L 341,146 L 346,146 L 347,145 L 350,145 L 351,144 L 353,144 L 354,143 L 355,143 L 356,142 L 358,142 L 359,141 L 360,141 L 361,140 L 362,140 L 363,139 L 364,139 L 366,137 L 367,137 L 368,136 L 369,136 L 371,134 L 372,134 L 373,133 L 374,133 L 377,130 L 379,130 L 379,129 L 380,128 L 381,128 L 384,125 L 385,125 L 393,117 L 394,117 L 397,114 L 397,113 L 402,108 L 402,107 L 404,105 L 404,104 L 405,103 L 404,102 L 404,101 L 403,100 L 403,99 L 400,96 L 400,95 L 399,95 L 395,91 L 394,91 L 393,90 L 392,90 L 391,89 L 389,89 L 388,88 L 386,88 L 385,87 L 381,87 L 380,86 L 368,86 L 367,87 L 360,87 L 359,88 L 356,88 L 355,89 L 352,89 L 351,90 L 348,90 L 347,91 L 345,91 L 344,92 L 341,92 L 340,93 L 339,93 L 338,94 L 336,94 L 335,95 L 334,95 L 333,96 L 331,96 L 330,97 L 329,97 L 328,98 L 326,98 L 325,99 L 324,99 L 323,100 L 322,100 L 321,101 L 320,101 L 319,102 L 317,102 L 316,103 L 315,103 L 314,104 L 313,104 L 312,105 L 311,105 L 310,106 L 309,106 L 308,107 L 307,107 L 305,109 L 304,109 L 303,108 L 310,101 L 311,101 L 311,100 L 313,98 L 313,97 L 315,95 L 316,95 L 317,94 L 317,93 L 322,88 L 323,88 L 323,87 L 336,74 L 336,73 L 335,73 L 333,71 L 332,71 L 331,70 L 330,70 L 329,69 L 328,69 L 326,67 L 325,67 L 324,66 L 323,66 L 322,65 L 321,65 L 319,63 L 318,63 L 317,62 L 316,62 L 315,61 L 314,61 L 312,59 L 311,59 L 310,58 L 309,58 L 308,57 L 307,57 L 305,55 L 304,55 L 303,54 L 302,54 L 301,53 L 300,53 L 298,51 L 297,51 L 296,50 L 295,50 L 294,49 L 292,49 L 291,50 L 291,51 L 289,53 L 289,54 L 285,58 L 285,59 L 282,62 L 282,63 L 277,68 L 277,69 L 275,71 L 275,72 L 271,76 L 271,77 L 268,80 L 268,81 L 264,85 L 263,85 L 263,87 L 260,90 L 260,91 L 256,95 L 256,98 L 255,99 L 255,103 L 254,104 L 254,109 L 253,110 L 253,113 L 252,114 L 251,113 L 251,112 L 250,111 L 250,108 L 249,107 L 249,106 L 248,105 L 248,104 L 247,103 L 247,102 L 246,101 L 246,100 L 244,98 L 244,97 L 243,96 L 243,94 L 241,92 L 241,91 L 239,89 L 239,88 L 238,87 L 238,86 L 236,84 L 236,83 L 233,80 L 233,79 L 231,77 L 231,76 L 225,70 L 225,69 L 224,68 L 223,68 L 220,65 L 220,64 L 219,64 L 215,60 L 214,60 L 211,57 L 210,57 L 208,55 L 207,55 L 205,53 L 204,53 L 203,52 L 202,52 L 201,51 L 200,51 L 199,50 L 198,50 L 196,48 L 194,48 L 193,47 L 192,47 L 191,46 L 188,46 L 187,45 L 186,45 L 185,44 L 182,44 L 181,43 L 177,43 L 176,42 L 169,42 L 168,41 Z" fill="#000000" stroke="none" /><path d="M 295,59 L 294,60 L 294,61 L 290,65 L 290,66 L 287,69 L 287,70 L 284,73 L 284,74 L 280,78 L 280,79 L 276,83 L 276,84 L 273,87 L 273,88 L 271,90 L 271,91 L 270,92 L 269,92 L 269,93 L 268,94 L 268,95 L 267,96 L 266,96 L 266,97 L 264,99 L 264,100 L 263,101 L 263,106 L 262,107 L 262,111 L 263,112 L 262,113 L 261,113 L 261,118 L 260,119 L 261,120 L 260,121 L 260,123 L 261,124 L 260,125 L 259,125 L 259,127 L 260,128 L 259,129 L 259,130 L 258,131 L 258,136 L 257,137 L 257,140 L 258,141 L 257,142 L 257,143 L 256,144 L 256,149 L 255,150 L 255,155 L 254,156 L 254,161 L 253,162 L 253,163 L 254,164 L 253,165 L 254,165 L 255,164 L 256,164 L 257,163 L 260,163 L 261,162 L 262,162 L 264,160 L 264,158 L 265,157 L 265,156 L 266,155 L 266,153 L 267,152 L 266,151 L 268,149 L 268,147 L 269,146 L 269,144 L 270,143 L 270,142 L 271,141 L 271,140 L 270,139 L 271,138 L 272,138 L 271,137 L 273,135 L 273,133 L 274,132 L 273,131 L 275,129 L 275,128 L 276,127 L 276,126 L 275,125 L 276,124 L 277,124 L 277,123 L 284,116 L 284,115 L 285,114 L 286,114 L 287,113 L 287,112 L 291,108 L 291,107 L 292,106 L 293,106 L 297,102 L 297,101 L 298,100 L 299,100 L 309,90 L 309,89 L 310,88 L 311,88 L 312,87 L 312,86 L 318,80 L 318,79 L 319,78 L 320,78 L 323,75 L 322,75 L 321,74 L 320,74 L 319,73 L 318,73 L 317,72 L 316,72 L 314,70 L 313,70 L 312,69 L 311,69 L 310,68 L 309,68 L 307,66 L 305,66 L 303,64 L 302,64 L 300,62 L 299,62 L 298,61 L 297,61 Z" fill="#904830" stroke="none" /><path d="M 369,94 L 368,95 L 362,95 L 361,96 L 357,96 L 356,97 L 353,97 L 352,98 L 350,98 L 349,99 L 346,99 L 345,100 L 343,100 L 342,101 L 341,101 L 340,102 L 338,102 L 337,103 L 336,103 L 335,104 L 333,104 L 332,105 L 331,105 L 330,106 L 328,106 L 327,107 L 326,107 L 325,108 L 324,108 L 323,109 L 322,109 L 321,110 L 320,110 L 319,111 L 318,111 L 317,112 L 316,112 L 315,113 L 314,113 L 313,114 L 312,114 L 311,115 L 310,115 L 309,116 L 308,116 L 307,117 L 306,117 L 305,118 L 304,118 L 302,120 L 301,120 L 300,121 L 299,121 L 298,122 L 297,122 L 296,123 L 297,122 L 301,122 L 302,121 L 307,121 L 308,120 L 314,120 L 315,119 L 330,119 L 331,120 L 334,120 L 335,121 L 336,121 L 337,122 L 337,124 L 335,126 L 335,127 L 334,128 L 333,128 L 332,127 L 329,127 L 328,126 L 318,126 L 317,127 L 310,127 L 309,128 L 304,128 L 303,129 L 299,129 L 302,129 L 303,130 L 308,130 L 309,131 L 312,131 L 313,132 L 316,132 L 317,133 L 320,133 L 321,134 L 323,134 L 324,135 L 326,135 L 327,136 L 328,136 L 329,137 L 330,137 L 331,138 L 337,138 L 338,139 L 339,138 L 344,138 L 345,137 L 348,137 L 349,136 L 351,136 L 352,135 L 353,135 L 354,134 L 355,134 L 356,133 L 357,133 L 358,132 L 359,132 L 360,131 L 361,131 L 362,130 L 363,130 L 364,129 L 365,129 L 367,127 L 368,127 L 370,125 L 371,125 L 374,122 L 375,122 L 378,119 L 379,119 L 384,114 L 385,114 L 393,106 L 393,105 L 395,103 L 395,102 L 393,100 L 392,100 L 390,98 L 389,98 L 388,97 L 387,97 L 386,96 L 384,96 L 383,95 L 379,95 L 378,94 Z" fill="#90c030" stroke="none" /><path d="M 156,49 L 155,50 L 155,58 L 156,59 L 156,68 L 157,69 L 157,73 L 158,74 L 158,77 L 159,78 L 159,80 L 160,81 L 160,83 L 161,84 L 161,86 L 162,87 L 162,88 L 163,89 L 163,90 L 164,91 L 164,92 L 165,93 L 165,94 L 166,95 L 166,96 L 168,98 L 168,99 L 171,102 L 171,103 L 180,112 L 181,112 L 184,115 L 185,115 L 187,117 L 188,117 L 189,118 L 190,118 L 191,119 L 192,119 L 193,120 L 194,120 L 195,121 L 196,121 L 197,122 L 198,122 L 199,123 L 200,123 L 201,124 L 203,124 L 204,125 L 206,125 L 207,126 L 209,126 L 210,127 L 213,127 L 214,128 L 217,128 L 218,129 L 223,129 L 224,130 L 229,130 L 230,131 L 241,131 L 242,132 L 246,132 L 245,131 L 244,131 L 243,130 L 242,130 L 241,129 L 240,129 L 238,127 L 237,127 L 236,126 L 235,126 L 233,124 L 232,124 L 231,123 L 230,123 L 228,121 L 227,121 L 225,119 L 224,119 L 223,118 L 222,118 L 220,116 L 219,116 L 216,113 L 215,113 L 213,111 L 212,111 L 209,108 L 208,108 L 205,105 L 204,105 L 199,100 L 198,100 L 183,85 L 183,84 L 180,81 L 180,80 L 179,79 L 179,78 L 178,77 L 179,76 L 180,76 L 181,75 L 182,75 L 183,74 L 184,74 L 186,76 L 186,77 L 189,80 L 189,81 L 203,95 L 204,95 L 208,99 L 209,99 L 212,102 L 213,102 L 216,105 L 217,105 L 219,107 L 220,107 L 223,110 L 224,110 L 226,112 L 227,112 L 228,113 L 229,113 L 231,115 L 232,115 L 234,117 L 235,117 L 236,118 L 237,118 L 239,120 L 240,120 L 241,121 L 242,121 L 244,123 L 245,123 L 246,124 L 246,122 L 245,121 L 245,119 L 244,118 L 244,116 L 243,115 L 243,114 L 242,113 L 242,112 L 241,111 L 241,109 L 240,108 L 240,107 L 239,106 L 239,105 L 238,104 L 238,103 L 237,102 L 237,101 L 236,100 L 236,99 L 235,98 L 235,97 L 233,95 L 233,94 L 232,93 L 232,92 L 230,90 L 230,89 L 228,87 L 228,86 L 225,83 L 225,82 L 221,78 L 221,77 L 212,68 L 211,68 L 207,64 L 206,64 L 204,62 L 203,62 L 201,60 L 200,60 L 199,59 L 198,59 L 197,58 L 196,58 L 195,57 L 194,57 L 193,56 L 192,56 L 191,55 L 190,55 L 189,54 L 187,54 L 186,53 L 184,53 L 183,52 L 180,52 L 179,51 L 175,51 L 174,50 L 166,50 L 165,49 Z" fill="#90c030" stroke="none" /><path d="M 198,153 L 197,154 L 188,154 L 187,155 L 182,155 L 181,156 L 177,156 L 176,157 L 173,157 L 172,158 L 169,158 L 168,159 L 166,159 L 165,160 L 163,160 L 162,161 L 160,161 L 159,162 L 157,162 L 156,163 L 155,163 L 154,164 L 153,164 L 152,165 L 151,165 L 150,166 L 149,166 L 148,167 L 147,167 L 146,168 L 145,168 L 143,170 L 142,170 L 140,172 L 139,172 L 136,175 L 135,175 L 124,186 L 124,187 L 121,190 L 121,191 L 119,193 L 119,194 L 117,196 L 117,197 L 116,198 L 116,199 L 115,200 L 115,201 L 114,202 L 114,203 L 113,204 L 113,205 L 112,206 L 112,208 L 111,209 L 111,211 L 110,212 L 110,214 L 109,215 L 109,217 L 108,218 L 108,221 L 107,222 L 107,226 L 106,227 L 106,233 L 105,234 L 105,244 L 104,245 L 104,259 L 105,260 L 105,272 L 106,273 L 106,279 L 107,280 L 107,283 L 108,284 L 108,287 L 109,288 L 109,291 L 110,292 L 110,295 L 111,296 L 111,299 L 112,300 L 112,303 L 113,304 L 113,307 L 114,308 L 114,311 L 115,312 L 115,315 L 116,316 L 116,318 L 117,319 L 117,322 L 118,323 L 118,325 L 119,326 L 119,329 L 120,330 L 120,332 L 121,333 L 121,335 L 122,336 L 122,339 L 123,340 L 123,342 L 124,343 L 124,345 L 125,346 L 125,348 L 126,349 L 126,351 L 127,352 L 127,354 L 128,355 L 128,357 L 129,358 L 129,360 L 130,361 L 130,363 L 131,364 L 131,366 L 132,367 L 132,368 L 133,369 L 133,371 L 134,372 L 134,374 L 135,375 L 135,376 L 136,377 L 136,379 L 137,380 L 137,382 L 138,383 L 138,384 L 139,385 L 139,386 L 140,387 L 140,389 L 141,390 L 141,391 L 142,392 L 142,393 L 143,394 L 143,395 L 144,396 L 144,398 L 145,399 L 145,400 L 146,401 L 146,402 L 147,403 L 147,404 L 148,405 L 148,406 L 149,407 L 149,408 L 151,410 L 151,411 L 152,412 L 152,413 L 153,414 L 153,415 L 155,417 L 155,418 L 157,420 L 157,421 L 159,423 L 159,424 L 163,428 L 163,429 L 168,434 L 169,434 L 172,437 L 173,437 L 174,438 L 176,438 L 177,439 L 182,439 L 183,440 L 185,440 L 186,441 L 189,441 L 190,442 L 199,442 L 200,441 L 203,441 L 204,440 L 206,440 L 207,439 L 208,439 L 209,438 L 210,438 L 213,435 L 214,435 L 219,430 L 220,430 L 221,429 L 223,429 L 224,428 L 227,428 L 228,427 L 243,427 L 244,428 L 247,428 L 248,429 L 250,429 L 251,430 L 252,430 L 253,431 L 254,431 L 255,432 L 256,432 L 258,434 L 259,434 L 263,438 L 264,438 L 270,444 L 271,444 L 273,446 L 274,446 L 275,447 L 277,447 L 278,448 L 279,448 L 280,449 L 284,449 L 285,450 L 289,450 L 290,449 L 293,449 L 294,448 L 296,448 L 297,447 L 298,447 L 300,445 L 301,445 L 303,443 L 304,443 L 308,439 L 309,439 L 312,436 L 313,436 L 315,434 L 316,434 L 318,432 L 319,432 L 323,428 L 324,428 L 328,424 L 329,424 L 343,410 L 343,409 L 348,404 L 348,403 L 352,399 L 352,398 L 355,395 L 355,394 L 357,392 L 357,391 L 359,389 L 359,388 L 361,386 L 361,385 L 362,384 L 362,383 L 364,381 L 364,380 L 365,379 L 365,378 L 366,377 L 366,376 L 368,374 L 368,373 L 369,372 L 369,371 L 370,370 L 370,369 L 371,368 L 371,367 L 372,366 L 372,365 L 373,364 L 373,363 L 374,362 L 374,361 L 375,360 L 375,358 L 376,357 L 376,356 L 377,355 L 377,354 L 378,353 L 378,351 L 379,350 L 379,348 L 380,347 L 380,346 L 381,345 L 381,343 L 382,342 L 382,340 L 383,339 L 383,337 L 384,336 L 384,334 L 385,333 L 385,331 L 386,330 L 386,327 L 387,326 L 387,324 L 388,323 L 388,320 L 389,319 L 389,316 L 390,315 L 390,312 L 391,311 L 391,307 L 392,306 L 392,302 L 393,301 L 393,296 L 394,295 L 394,289 L 395,288 L 395,282 L 396,281 L 396,272 L 397,271 L 397,258 L 398,257 L 398,222 L 397,221 L 397,217 L 396,216 L 396,213 L 395,212 L 395,210 L 394,209 L 394,207 L 393,206 L 393,205 L 392,204 L 392,203 L 391,202 L 391,201 L 390,200 L 390,199 L 389,198 L 389,197 L 388,196 L 388,195 L 386,193 L 386,192 L 384,190 L 384,189 L 377,182 L 377,181 L 376,181 L 370,175 L 369,175 L 366,172 L 365,172 L 363,170 L 362,170 L 361,169 L 360,169 L 359,168 L 358,168 L 357,167 L 356,167 L 355,166 L 354,166 L 353,165 L 352,165 L 351,164 L 349,164 L 348,163 L 347,163 L 346,162 L 344,162 L 343,161 L 340,161 L 339,160 L 335,160 L 334,159 L 329,159 L 328,158 L 308,158 L 307,159 L 301,159 L 300,160 L 296,160 L 295,161 L 292,161 L 291,162 L 289,162 L 288,163 L 286,163 L 285,164 L 283,164 L 282,165 L 280,165 L 279,166 L 278,166 L 277,167 L 275,167 L 274,168 L 273,168 L 272,169 L 271,169 L 270,170 L 269,170 L 268,171 L 265,171 L 264,172 L 262,172 L 261,173 L 258,173 L 257,174 L 255,174 L 254,175 L 252,175 L 251,176 L 250,176 L 249,177 L 247,177 L 246,178 L 245,178 L 244,179 L 243,179 L 242,178 L 242,176 L 237,171 L 236,171 L 232,167 L 231,167 L 229,165 L 228,165 L 226,163 L 225,163 L 224,162 L 223,162 L 221,160 L 220,160 L 219,159 L 218,159 L 217,158 L 216,158 L 215,157 L 214,157 L 213,156 L 211,156 L 210,155 L 209,155 L 208,154 L 205,154 L 204,153 Z" fill="#d81818" stroke="none" /></svg>