<?xml version="1.0" encoding="UTF-8"?>
<!-- Generator: visioncortex VTracer -->
<svg id="svg" version="1.1" xmlns="http://www.w3.org/2000/svg" style="display: block;" viewBox="0 0 500 500"><path d="M0 0 C2.62665428 1.20837443 4.13790414 0.81596953 6.80859375 -0.16796875 C7.73671875 -0.51859375 8.66484375 -0.86921875 9.62109375 -1.23046875 C15.59555424 -2.98766301 21.09603728 -2.74762513 26.80078125 -0.3203125 C35.01972967 4.39678825 39.33585774 12.28173426 42.80859375 20.83203125 C42.80859375 21.49203125 42.80859375 22.15203125 42.80859375 22.83203125 C43.50984375 22.89390625 44.21109375 22.95578125 44.93359375 23.01953125 C49.79660764 24.39386126 52.66238849 26.94268192 55.23046875 31.17578125 C60.78851159 42.03031198 62.20711297 51.02112804 58.80859375 62.83203125 C58.14859375 63.82203125 57.48859375 64.81203125 56.80859375 65.83203125 C56.67925446 67.88505427 56.67925446 67.88505427 56.87109375 70.08203125 C56.98072434 73.45865336 56.67360729 75.58225933 55.12109375 78.58203125 C54.68796875 79.65453125 54.25484375 80.72703125 53.80859375 81.83203125 C54.98253832 84.51084692 54.98253832 84.51084692 56.80859375 86.83203125 C59.11771994 95.93090596 58.43703725 104.61025941 53.80859375 112.83203125 C52.25016217 114.79221149 50.74397112 116.21921677 48.80859375 117.83203125 C49.40027344 118.26773438 49.99195313 118.7034375 50.6015625 119.15234375 C55.30294638 122.69563796 59.35643487 126.04355281 62.80859375 130.83203125 C62.80859375 131.49203125 62.80859375 132.15203125 62.80859375 132.83203125 C63.46859375 133.16203125 64.12859375 133.49203125 64.80859375 133.83203125 C65.66174023 136.03908409 66.38386654 138.19416316 67.05859375 140.45703125 C67.27330322 141.15852295 67.4880127 141.86001465 67.70922852 142.58276367 C69.84665759 149.69961367 71.66136245 156.89831212 73.50024414 164.09667969 C75.91688397 173.45951254 78.77373787 182.65354574 81.80859375 191.83203125 C82.05174316 192.57614258 82.29489258 193.32025391 82.54541016 194.08691406 C94.13684871 229.32066947 110.57809007 264.2883381 133.3828125 293.703125 C135.77865425 297.28047775 135.83232574 299.45825239 135.55859375 303.76953125 C135.54648758 307.03214487 135.74431271 307.73775239 137.68359375 310.58203125 C144.00596705 315.13414003 150.36374123 317.83913595 158.234375 316.640625 C163.3328218 315.03914019 167.48536724 311.8924375 171.80859375 308.83203125 C173.32149391 307.84065115 174.84145797 306.85988909 176.37109375 305.89453125 C176.99113281 305.49363281 177.61117188 305.09273438 178.25 304.6796875 C179.80859375 303.83203125 179.80859375 303.83203125 181.80859375 303.83203125 C181.37546875 303.07921875 180.94234375 302.32640625 180.49609375 301.55078125 C175.39601171 291.82284698 173.83579734 282.90780603 176.4765625 272.09765625 C179.31530657 264.9078241 185.28961631 257.92534266 191.80859375 253.83203125 C201.41004285 249.92032977 209.52302845 249.65530513 219.1640625 253.51171875 C226.61997724 257.23416953 231.8820385 263.02788391 234.80859375 270.83203125 C237.77946966 282.54495829 235.8618263 290.56286167 229.80859375 300.83203125 C227.9241272 303.32396113 225.94665999 305.5447976 223.80859375 307.83203125 C224.46859375 308.16203125 225.12859375 308.49203125 225.80859375 308.83203125 C225.80859375 309.49203125 225.80859375 310.15203125 225.80859375 310.83203125 C226.42734375 311.12078125 227.04609375 311.40953125 227.68359375 311.70703125 C229.80859375 312.83203125 229.80859375 312.83203125 231.80859375 314.83203125 C232.4877155 317.81373852 233.06294313 320.75492702 233.578125 323.765625 C233.7410051 324.67216324 233.90388519 325.57870148 234.07170105 326.51271057 C234.76720124 330.38543248 235.44451056 334.26128159 236.12329102 338.13696289 C239.15548623 355.35396578 242.53847341 372.41622372 249.18359375 388.65820312 C250.98197835 393.54531327 250.81121492 396.39287227 248.74194336 401.18505859 C247.02708586 404.21106662 244.98264782 405.39176097 241.80859375 406.58203125 C239.54800647 406.86460466 237.96408462 406.5248676 235.80859375 405.83203125 C235.80859375 405.17203125 235.80859375 404.51203125 235.80859375 403.83203125 C234.15859375 403.50203125 232.50859375 403.17203125 230.80859375 402.83203125 C230.80859375 402.17203125 230.80859375 401.51203125 230.80859375 400.83203125 C230.14859375 400.83203125 229.48859375 400.83203125 228.80859375 400.83203125 C228.80859375 400.17203125 228.80859375 399.51203125 228.80859375 398.83203125 C228.14859375 398.83203125 227.48859375 398.83203125 226.80859375 398.83203125 C225.81859375 396.52203125 224.82859375 394.21203125 223.80859375 391.83203125 C223.7130155 398.6074672 223.7473399 405.25481473 224.5234375 411.98828125 C224.89365976 415.68036082 225.10233629 419.37800817 225.30859375 423.08203125 C225.67036742 429.52811599 226.08328514 435.96730365 226.55859375 442.40625 C226.73357901 444.80409494 226.89949232 447.20261128 227.05859375 449.6015625 C227.14109375 450.83261719 227.22359375 452.06367188 227.30859375 453.33203125 C227.38078125 454.43546875 227.45296875 455.53890625 227.52734375 456.67578125 C227.76664365 459.83635396 227.76664365 459.83635396 228.33984375 462.94921875 C229.01469879 467.09957723 229.14556407 470.80584064 227.80859375 474.83203125 C223.26858506 478.79246437 219.1376207 479.51243162 213.17578125 479.1953125 C209.29947027 478.60043309 207.53136244 477.68761793 204.80859375 474.83203125 C203.8192672 472.39421703 203.2334418 469.99767258 202.65625 467.4296875 C201.36745806 461.95974567 199.63811027 456.62844418 197.96484375 451.265625 C195.54857789 443.35329326 194.01198508 435.3671494 192.68359375 427.20703125 C192.51601563 426.18351562 192.3484375 425.16 192.17578125 424.10546875 C192.05460937 423.35523438 191.9334375 422.605 191.80859375 421.83203125 C189.38997317 427.76864541 187.90788325 433.52081622 186.80859375 439.83203125 C186.14859375 439.83203125 185.48859375 439.83203125 184.80859375 439.83203125 C184.70546875 440.76015625 184.60234375 441.68828125 184.49609375 442.64453125 C182.83105636 453.63377799 179.73085773 462.34344762 170.80859375 469.51953125 C167.80859375 470.83203125 167.80859375 470.83203125 164.18359375 470.33203125 C160.74095713 468.80197053 159.18394736 467.696283 156.80859375 464.83203125 C153.64199899 455.76947553 155.34165533 447.18216768 157.33984375 438.10498047 C158.21271475 433.87246534 158.85037127 429.60406798 159.49609375 425.33203125 C159.62717529 424.50759521 159.75825684 423.68315918 159.89331055 422.83374023 C160.45406342 419.12931584 160.87788533 415.55062627 160.83203125 411.80078125 C160.8060658 407.40396567 161.23593187 403.19143226 161.74609375 398.83203125 C161.92602936 397.13427816 162.10439396 395.4363579 162.28125 393.73828125 C162.58862645 390.81453904 162.92829212 387.90460449 163.3046875 384.98828125 C164.67722241 371.74402684 162.05281486 358.86539182 159.80859375 345.83203125 C158.79152344 346.00734375 157.77445312 346.18265625 156.7265625 346.36328125 C145.33008158 347.7267685 135.95471934 344.49418123 126.80859375 337.83203125 C117.214284 330.22818278 108.41846247 321.10145633 102.0625 310.609375 C100.76381497 308.54209667 100.76381497 308.54209667 97.80859375 306.83203125 C97.47859375 305.84203125 97.14859375 304.85203125 96.80859375 303.83203125 C95.96296875 302.98640625 95.11734375 302.14078125 94.24609375 301.26953125 C91.80859375 298.83203125 91.80859375 298.83203125 91.80859375 296.83203125 C91.14859375 296.83203125 90.48859375 296.83203125 89.80859375 296.83203125 C89.47859375 295.84203125 89.14859375 294.85203125 88.80859375 293.83203125 C88.14859375 293.50203125 87.48859375 293.17203125 86.80859375 292.83203125 C85.93803309 291.29984449 85.07245541 289.76469221 84.2265625 288.21875 C81.06409929 282.89570587 77.37025994 277.89294582 73.80859375 272.83203125 C74.24237352 275.22858758 74.68059951 277.62420684 75.12109375 280.01953125 C75.23904297 280.67373047 75.35699219 281.32792969 75.47851562 282.00195312 C76.57833252 287.95224452 77.93813723 293.83266404 79.31680298 299.72372437 C81.00050411 306.94175059 82.65324878 314.16699652 84.30737305 321.3918457 C84.77029993 323.41011501 85.23484422 325.42801396 85.70092773 327.44555664 C86.38022091 330.38726361 87.05395441 333.33019583 87.7265625 336.2734375 C88.04055244 337.62496666 88.04055244 337.62496666 88.36088562 339.00379944 C88.55141006 339.84245041 88.74193451 340.68110138 88.93823242 341.54516602 C89.10683273 342.27872818 89.27543304 343.01229034 89.44914246 343.76808167 C89.80859375 345.83203125 89.80859375 345.83203125 89.80859375 349.83203125 C78.25859375 350.16203125 66.70859375 350.49203125 54.80859375 350.83203125 C55.11796875 353.61640625 55.42734375 356.40078125 55.74609375 359.26953125 C56.59720877 367.14200362 57.17883621 374.99417179 57.5625 382.90234375 C57.77751175 386.3357059 58.11496555 389.71206896 58.51196289 393.12646484 C59.26616406 400.00552444 59.82873456 406.90638554 60.44400024 413.79916382 C61.38499118 424.38597938 61.38499118 424.38597938 62.44921875 434.9609375 C63.3665846 443.56733975 64.01749465 452.11070231 64.12109375 460.76953125 C64.13873779 461.59300049 64.15638184 462.41646973 64.17456055 463.26489258 C64.16896476 468.15001419 63.68056549 471.68927556 60.80859375 475.83203125 C57.69333925 477.59829481 54.30942241 478.15076204 50.80859375 478.83203125 C49.96296875 478.99832031 49.11734375 479.16460937 48.24609375 479.3359375 C42.42519776 480.19997675 36.93995164 479.99842715 31.80859375 476.83203125 C30.24609375 473.64453125 30.24609375 473.64453125 29.80859375 470.83203125 C28.96296875 470.95578125 28.11734375 471.07953125 27.24609375 471.20703125 C23.07342833 470.75183139 21.33783292 469.61980859 18.27270508 466.85693359 C15.36274539 462.83238704 16.15005479 458.21288576 16.43359375 453.45703125 C16.50353167 451.20978065 16.56850958 448.96237102 16.62890625 446.71484375 C16.66661133 445.57176758 16.70431641 444.42869141 16.74316406 443.25097656 C16.84496357 437.93157233 16.58508251 432.64309782 16.30859375 427.33203125 C15.92735522 419.51791637 15.70755774 411.74135984 15.84570312 403.91796875 C15.88553828 400.90888256 15.7708195 398.71870851 14.80859375 395.83203125 C14.73517465 393.02503533 14.71687312 390.24358523 14.74609375 387.4375 C14.75177368 386.20003777 14.75177368 386.20003777 14.75756836 384.93757629 C14.77389895 381.41006394 14.80194998 377.88266765 14.82910156 374.35522461 C14.84724927 371.77848858 14.85930742 369.20177175 14.87109375 366.625 C14.87939209 365.83417526 14.88769043 365.04335052 14.89624023 364.2285614 C14.91502211 359.96040965 14.51901939 356.05178356 13.80859375 351.83203125 C14.13859375 351.17203125 14.46859375 350.51203125 14.80859375 349.83203125 C7.87859375 349.83203125 0.94859375 349.83203125 -6.19140625 349.83203125 C-5.86140625 351.15203125 -5.53140625 352.47203125 -5.19140625 353.83203125 C-5.17567934 356.09405549 -5.22429309 358.356829 -5.3125 360.6171875 C-5.34791649 361.60168129 -5.34791649 361.60168129 -5.38404846 362.60606384 C-5.46031015 364.7024605 -5.54419458 366.7984605 -5.62890625 368.89453125 C-5.73460521 371.63531502 -5.83690354 374.37621202 -5.9375 377.1171875 C-5.96282806 377.79198151 -5.98815613 378.46677551 -6.01425171 379.16201782 C-6.14500919 382.82541325 -6.20441754 386.4753961 -6.1640625 390.140625 C-6.13185729 395.01313683 -6.3823673 399.84856799 -6.66015625 404.7109375 C-7.29856067 415.9533393 -7.52451175 427.19630133 -7.74365234 438.45336914 C-8.24164978 463.50629532 -8.24164978 463.50629532 -9.19140625 467.83203125 C-12.72914377 470.72654377 -15.68764872 471.22942162 -20.19140625 470.83203125 C-20.48015625 471.43015625 -20.76890625 472.02828125 -21.06640625 472.64453125 C-22.70769554 475.83592709 -23.60773382 477.5667256 -26.94140625 479.08203125 C-34.93166546 481.08380145 -44.15732566 480.01256993 -51.19140625 475.83203125 C-53.83084599 473.95573387 -54.15495025 472.97804124 -54.95703125 469.765625 C-55.116875 468.61191406 -55.27671875 467.45820313 -55.44140625 466.26953125 C-55.6115625 465.11324219 -55.78171875 463.95695312 -55.95703125 462.765625 C-56.19140625 459.83203125 -56.19140625 459.83203125 -55.19140625 457.83203125 C-54.93070597 455.4980365 -54.7245704 453.15788377 -54.54296875 450.81640625 C-54.48586227 450.10102692 -54.4287558 449.38564758 -54.36991882 448.64859009 C-54.24654355 447.1015317 -54.1249024 445.55433427 -54.00479126 444.00701904 C-53.68683258 439.91409293 -53.35655997 435.82218571 -53.0234375 431.73046875 C-52.95587753 430.900242 -52.88831757 430.07001526 -52.81871033 429.21463013 C-52.3750952 423.84420101 -51.87901594 418.48155388 -51.328125 413.12109375 C-51.25855591 412.44385254 -51.18898682 411.76661133 -51.11730957 411.06884766 C-50.78880066 407.89615842 -50.45135668 404.72460684 -50.10595703 401.55371094 C-49.48452551 395.6630406 -49.12349687 389.92418089 -49.20556641 384.00268555 C-49.18521865 380.88351415 -48.69068755 377.90930095 -48.19140625 374.83203125 C-47.9326995 372.78217094 -47.68226715 370.73125897 -47.4375 368.6796875 C-47.31818115 367.68203369 -47.1988623 366.68437988 -47.07592773 365.65649414 C-46.92841064 364.41504639 -46.78089355 363.17359863 -46.62890625 361.89453125 C-46.15453125 357.91390625 -45.68015625 353.93328125 -45.19140625 349.83203125 C-56.41140625 349.83203125 -67.63140625 349.83203125 -79.19140625 349.83203125 C-78.49532171 344.95943947 -77.71828101 340.66864711 -76.44921875 335.97265625 C-76.28018036 335.34276794 -76.11114197 334.71287964 -75.9369812 334.06390381 C-75.40061684 332.06889116 -74.85861561 330.07546228 -74.31640625 328.08203125 C-73.96056526 326.76181902 -73.60509385 325.44150713 -73.25 324.12109375 C-71.52735478 317.72390225 -69.78471553 311.33213074 -68.04003906 304.94091797 C-66.25356757 298.39634722 -64.46984892 291.85104438 -62.69262695 285.30395508 C-62.22903278 283.59797453 -61.76449686 281.89224966 -61.29907227 280.18676758 C-60.62149737 277.7032723 -59.9471347 275.21892456 -59.2734375 272.734375 C-59.06411087 271.96987534 -58.85478424 271.20537567 -58.63911438 270.41770935 C-57.57047624 266.67855209 -57.57047624 266.67855209 -57.19140625 262.83203125 C-57.47338867 263.3417749 -57.75537109 263.85151855 -58.04589844 264.37670898 C-59.33106037 266.68205372 -60.63586721 268.97566982 -61.94140625 271.26953125 C-62.38484375 272.07197266 -62.82828125 272.87441406 -63.28515625 273.70117188 C-63.7234375 274.46494141 -64.16171875 275.22871094 -64.61328125 276.015625 C-65.0112793 276.72259521 -65.40927734 277.42956543 -65.81933594 278.15795898 C-67.19140625 279.83203125 -67.19140625 279.83203125 -69.16503906 280.69555664 C-71.19140625 280.83203125 -71.19140625 280.83203125 -74.19140625 278.83203125 C-74.56652344 279.38632812 -74.94164063 279.940625 -75.328125 280.51171875 C-80.56843232 287.92998756 -80.56843232 287.92998756 -85.19140625 288.83203125 C-87.52348645 288.9084929 -89.85986503 288.92346424 -92.19140625 288.83203125 C-92.19140625 288.17203125 -92.19140625 287.51203125 -92.19140625 286.83203125 C-93.27421875 286.52265625 -93.27421875 286.52265625 -94.37890625 286.20703125 C-98.17596625 284.35069081 -99.68953705 282.23735322 -102.19140625 278.83203125 C-104.53943474 271.78794579 -103.00553001 266.39832003 -100.19140625 259.83203125 C-101.84140625 259.17203125 -103.49140625 258.51203125 -105.19140625 257.83203125 C-103.73757001 253.71282857 -101.62478306 250.44284846 -99.19140625 246.83203125 C-98.86140625 245.84203125 -98.53140625 244.85203125 -98.19140625 243.83203125 C-97.53140625 243.83203125 -96.87140625 243.83203125 -96.19140625 243.83203125 C-95.94616211 243.0013916 -95.70091797 242.17075195 -95.44824219 241.31494141 C-94.00959379 237.32819743 -92.12462292 233.80707821 -90.08203125 230.10546875 C-85.21287663 221.09237109 -81.03357324 211.84249936 -76.94140625 202.45703125 C-76.25450543 200.89296588 -75.56700637 199.32916311 -74.87890625 197.765625 C-73.88005288 195.49586894 -72.88180046 193.2258726 -71.88684082 190.95440674 C-70.11188742 186.90466993 -68.30537084 182.87243273 -66.45703125 178.85546875 C-62.94360082 171.166467 -59.97142092 163.27180891 -56.9440918 155.38232422 C-47.03384479 129.67446979 -47.03384479 129.67446979 -39.19140625 121.83203125 C-39.80628906 121.16107422 -39.80628906 121.16107422 -40.43359375 120.4765625 C-48.3106968 111.6383775 -48.35884355 103.32939263 -48.19140625 91.83203125 C-49.34962891 91.40857422 -49.34962891 91.40857422 -50.53125 90.9765625 C-53.91884728 89.51905001 -55.7229675 87.55364321 -58.19140625 84.83203125 C-58.89265625 84.11015625 -59.59390625 83.38828125 -60.31640625 82.64453125 C-64.34164954 76.60666631 -65.96209676 69.83735196 -64.984375 62.63671875 C-63.29488914 56.6610988 -60.17918245 51.24591292 -57.19140625 45.83203125 C-56.53140625 45.83203125 -55.87140625 45.83203125 -55.19140625 45.83203125 C-55.54203125 44.57390625 -55.89265625 43.31578125 -56.25390625 42.01953125 C-57.93442937 34.3302312 -57.43318638 26.52615797 -53.47265625 19.609375 C-48.84969979 13.19643235 -42.6264736 10.11785361 -35.19140625 7.83203125 C-33.52078125 7.61546875 -33.52078125 7.61546875 -31.81640625 7.39453125 C-28.19122655 6.61770703 -27.41384662 4.7279384 -25.19140625 1.83203125 C-16.79512324 -4.15402464 -8.91379048 -4.9173542 0 0 Z M-56.19140625 259.83203125 C-55.19140625 261.83203125 -55.19140625 261.83203125 -55.19140625 261.83203125 Z M71.80859375 268.83203125 C72.80859375 270.83203125 72.80859375 270.83203125 72.80859375 270.83203125 Z " transform="translate(177.19140625,13.16796875)" style="fill: #030404;"/><path d="M0 0 C7.72935286 2.74821435 11.65510168 7.71730293 15.37817383 14.80664062 C17.8760517 20.36787341 19.25306877 26.15402776 20.6875 32.0625 C21.36650709 34.73787919 22.05830061 37.40990933 22.75 40.08203125 C22.92191864 40.75092377 23.09383728 41.41981628 23.27096558 42.10897827 C30.00941648 68.20901457 39.27782368 93.63703881 50.8125 118 C51.18310547 118.78503906 51.55371094 119.57007813 51.93554688 120.37890625 C59.53084698 136.3277727 67.99288072 152.12083462 78.703125 166.22265625 C79.8125 168 79.8125 168 79.8125 171 C77.07496389 172.40091134 74.32101493 173.76592679 71.5625 175.125 C70.78519531 175.52332031 70.00789062 175.92164063 69.20703125 176.33203125 C68.45292969 176.69941406 67.69882812 177.06679688 66.921875 177.4453125 C66.23061523 177.79094238 65.53935547 178.13657227 64.82714844 178.49267578 C62.8125 179 62.8125 179 60.70141602 178.25146484 C44.81429805 167.72576151 32.52250023 141.87507404 24.8125 125 C24.40257812 124.10547119 24.40257812 124.10547119 23.984375 123.19287109 C17.81601744 109.50682776 15.11469213 96.09332588 15.8125 81 C13.8325 81 11.8525 81 9.8125 81 C11.33213342 100.2123083 15.48256716 118.48555839 19.96208191 137.16879272 C22.25480293 146.77069413 24.34614372 156.41513732 26.4375 166.0625 C28.54365631 175.7588769 30.65879932 185.45093239 32.93359375 195.109375 C33.09996338 195.81593735 33.26633301 196.52249969 33.43774414 197.25047302 C34.21099843 200.52520782 34.99214218 203.79775376 35.78173828 207.06860352 C36.05099121 208.19709717 36.32024414 209.32559082 36.59765625 210.48828125 C36.83363525 211.46321533 37.06961426 212.43814941 37.31274414 213.44262695 C37.8125 216 37.8125 216 37.8125 220 C-12.6775 220 -63.1675 220 -115.1875 220 C-113.95070102 213.81600512 -112.76835832 208.25058382 -110.9375 202.3125 C-108.00632634 192.60938029 -105.48357525 182.80870701 -102.95800781 172.99365234 C-99.36586657 159.03711369 -95.71372614 145.10363998 -91.80957031 131.23095703 C-91.14082813 128.83261871 -90.48715093 126.43049831 -89.8359375 124.02734375 C-89.61236572 123.2072583 -89.38879395 122.38717285 -89.15844727 121.54223633 C-88.73124682 119.9739339 -88.30707224 118.4048029 -87.88647461 116.8347168 C-86.93804035 113.37030271 -85.98032827 110.12721643 -84.1875 107 C-85.8375 106.67 -87.4875 106.34 -89.1875 106 C-89.72117188 106.969375 -90.25484375 107.93875 -90.8046875 108.9375 C-95.94906269 118.21677044 -101.39563196 127.24893671 -107.06689453 136.21386719 C-109.5065532 140.10243861 -111.85100347 144.0488514 -114.1875 148 C-117.57929424 146.73708209 -120.49963444 145.29322965 -123.5078125 143.28515625 C-124.68150391 142.50301758 -124.68150391 142.50301758 -125.87890625 141.70507812 C-126.68199219 141.16302734 -127.48507813 140.62097656 -128.3125 140.0625 C-129.52873047 139.25522461 -129.52873047 139.25522461 -130.76953125 138.43164062 C-134.18537044 136.14218146 -137.3556271 134.00324946 -140.1875 131 C-139.60484375 129.9790625 -139.0221875 128.958125 -138.421875 127.90625 C-118.92785171 93.47152243 -103.53986943 56.95878316 -89.07617188 20.17358398 C-88.72490234 19.28356689 -88.37363281 18.3935498 -88.01171875 17.4765625 C-87.70451904 16.6923291 -87.39731934 15.9080957 -87.08081055 15.10009766 C-84.37854535 8.74730038 -80.19245285 3.84011347 -73.875 0.9375 C-70.30502344 1.02052271 -67.83958543 2.34694321 -64.6484375 3.87890625 C-49.55643324 10.75415263 -29.52015727 11.4832486 -13.953125 5.82421875 C-9.84717383 4.15924573 -4.20918558 0 0 0 Z " transform="translate(221.1875,137)" style="fill: #6F8F1D;"/><path d="M0 0 C5.62471953 1.51434757 11.21173564 1.44714438 16.8125 -0.125 C21.65170638 -0.125 23.81634421 1.34290289 27.24609375 4.69140625 C31.38099625 11.26050087 31.73654271 19.22531939 32.78759766 26.78710938 C33.55916835 31.93960469 34.61507942 37.02793936 35.6875 42.125 C35.89648926 43.1260376 36.10547852 44.1270752 36.32080078 45.15844727 C38.62073851 55.95297465 41.34538169 66.66154923 45.0625 77.0625 C46.30747948 81.05953938 46.51288382 83.7564868 46.25 87.875 C42.95145811 88.25197622 41.55040226 88.07433234 38.7421875 86.2109375 C28.76433466 76.85865537 28.89250954 59.55610934 28.25 46.875 C26.27 46.545 24.29 46.215 22.25 45.875 C22.21241577 46.71309204 22.21241577 46.71309204 22.17407227 47.56811523 C22.05656895 50.14972428 21.9345562 52.73110236 21.8125 55.3125 C21.77318359 56.19099609 21.73386719 57.06949219 21.69335938 57.97460938 C21.49432733 62.12366196 21.23570267 66.22579743 20.71484375 70.34765625 C19.49863008 80.83884169 20.54523522 91.37964549 21.34375 101.8671875 C21.45625505 103.38645493 21.56834872 104.90575288 21.68005371 106.42507935 C21.97255559 110.39186154 22.2695241 114.35829502 22.56781006 118.324646 C23.04613512 124.69221818 23.51855958 131.06022676 23.98908997 137.42837906 C24.15349374 139.6425662 24.32043255 141.85655151 24.4876709 144.07052612 C24.58886482 145.42966127 24.68998376 146.78880201 24.79101562 148.14794922 C24.87984009 149.3294455 24.96866455 150.51094177 25.06018066 151.72824097 C25.22467817 154.45522348 25.28766801 157.14435007 25.25 159.875 C22.11501708 161.73276765 19.87528568 162.07640476 16.25 161.875 C14.86698088 158.8956237 13.54552219 155.89343314 12.25 152.875 C11.92644531 152.12476563 11.60289062 151.37453125 11.26953125 150.6015625 C3.16826518 130.16653217 0.12420977 106.73024428 -0.75 84.875 C-2.73 85.205 -4.71 85.535 -6.75 85.875 C-6.95753906 87.05191406 -7.16507812 88.22882813 -7.37890625 89.44140625 C-9.69918865 102.04499377 -13.08174651 114.09711715 -16.95556641 126.30322266 C-18.35747519 130.84154692 -19.55260686 135.43395191 -20.73046875 140.03515625 C-22.59278514 145.22252795 -25.74539288 149.15643625 -29.75 152.875 C-33.625 151.125 -33.625 151.125 -34.75 148.875 C-35.18783118 142.52644784 -34.25801756 136.85013766 -33.03051758 130.62280273 C-30.14043348 115.78703768 -28.53947003 100.88533196 -27.5625 85.8125 C-27.47863037 84.52915771 -27.39476074 83.24581543 -27.30834961 81.92358398 C-26.51503597 68.70425735 -26.6894397 56.35126512 -28.75 43.25 C-29.1266461 40.77889617 -29.50172477 38.30755277 -29.875 35.8359375 C-30.04257812 34.76134277 -30.21015625 33.68674805 -30.3828125 32.57958984 C-30.75 29.875 -30.75 29.875 -30.75 26.875 C-31.843125 27.205 -32.93625 27.535 -34.0625 27.875 C-43.54354101 30.17849236 -52.0311227 29.27138304 -60.75 24.875 C-67.39750368 20.73378487 -73.66022944 15.86807455 -78.75 9.875 C-78.75 9.545 -78.75 9.215 -78.75 8.875 C-78.07453125 8.69324219 -77.3990625 8.51148438 -76.703125 8.32421875 C-75.36507813 7.94716797 -75.36507813 7.94716797 -74 7.5625 C-73.11828125 7.31886719 -72.2365625 7.07523437 -71.328125 6.82421875 C-68.69227495 5.85374669 -66.89592674 4.66494356 -64.75 2.875 C-64.02296875 3.47248047 -64.02296875 3.47248047 -63.28125 4.08203125 C-54.82773518 10.76355931 -47.63757611 13.12177969 -36.75 11.875 C-30.10266333 10.16470755 -24.34808601 5.83095652 -18.70947266 2.04907227 C-11.11712733 -3.01499843 -8.35426556 -3.41765409 0 0 Z " transform="translate(373.75,324.125)" style="fill: #3DBAE9;"/><path d="M0 0 C1.8828125 1.15234375 1.8828125 1.15234375 3.375 2.5625 C5.70830021 5.28352129 5.70830021 5.28352129 8.5 5 C11.09310094 4.03313367 11.09310094 4.03313367 13.6875 2.4375 C18.22790356 0.46713619 22.12138977 0.32130627 27 1 C33.80845344 3.93697991 38.30941748 10.95807912 41.109375 17.65234375 C41.81421088 19.7568773 42.4545118 21.84921795 43 24 C43.680625 24.04125 44.36125 24.0825 45.0625 24.125 C50.43381129 25.72496506 53.98951998 29.3495493 56.875 34.0625 C59.48821493 40.88589453 60.55615848 49.18741172 57.75 56.0625 C55.90317736 58.10719649 54.59789565 59.10697337 52 60 C51.01 60 50.02 60 49 60 C49.804375 60.804375 50.60875 61.60875 51.4375 62.4375 C52.625 63.625 53.8125 64.8125 55 66 C54.75988223 72.12300326 53.06265763 74.72900096 49 79 C49.598125 79.226875 50.19625 79.45375 50.8125 79.6875 C53.6735325 81.4041195 54.5242059 83.01524789 56 86 C56.95383949 92.711249 56.85575945 99.51629579 53.2421875 105.41015625 C50.41711715 109.02589094 47.94485208 110.69701859 43.3671875 111.41015625 C35.32332624 111.8197001 29.13427086 109.5418366 22 106 C22 105.01 22 104.02 22 103 C23.72265625 101.67578125 23.72265625 101.67578125 26.0625 100.3125 C36.68203756 93.48803229 42.69653809 83.05594038 45.375 70.75 C46.49066027 63.24160639 46.15970995 55.56847731 46 48 C45.23816406 47.82984375 44.47632813 47.6596875 43.69140625 47.484375 C29.15512056 44.07261257 16.93505712 38.03991959 8.74609375 25.00390625 C7.79463577 23.35625951 6.89179413 21.68068894 6 20 C5.67128906 21.16015625 5.67128906 21.16015625 5.3359375 22.34375 C1.92179087 33.55769501 -3.23733996 41.42453576 -13.75 47.1875 C-18.30406853 49.36745141 -23.03920048 50.22741647 -28 51 C-31.46379027 62.2361977 -28.81525941 73.53440594 -23.64453125 83.65234375 C-19.55445584 90.94430124 -14.85570717 96.47031585 -7.5625 100.625 C-5.53515625 101.80078125 -5.53515625 101.80078125 -4 103 C-3.5 105.8125 -3.5 105.8125 -4 108 C-6.98593511 109.36689474 -9.98836249 110.69080882 -13 112 C-13.969375 112.433125 -14.93875 112.86625 -15.9375 113.3125 C-20.4423244 114.32378711 -24.52765221 114.15728532 -29 113 C-32.81693237 110.13730072 -34.62914985 107.51646165 -36 103 C-36.09853922 100.83213717 -36.0601343 98.68495168 -36.0222168 96.51538086 C-35.77767806 88.99092032 -35.77767806 88.99092032 -39.07421875 82.58203125 C-41.6688372 80.90585069 -41.6688372 80.90585069 -44.41015625 79.484375 C-48.73107993 77.00782749 -51.08716561 73.54019058 -53 69 C-54.65911088 61.41895319 -52.04854479 55.35873136 -48 49 C-47.21625 48.154375 -46.4325 47.30875 -45.625 46.4375 C-43.44113272 43.16169908 -44.02659031 41.30339601 -44.6171875 37.52734375 C-45.74081589 30.10910324 -46.03110081 23.90991774 -41.48828125 17.65234375 C-37.73223075 13.48224043 -33.35508909 11.39232316 -28 10 C-26.700625 9.95875 -25.40125 9.9175 -24.0625 9.875 C-20.14928355 9.4994514 -18.64594908 7.94547481 -16.125 5 C-15.57070312 4.278125 -15.01640625 3.55625 -14.4453125 2.8125 C-11.01098324 -1.49433454 -5.02564523 -0.67625538 0 0 Z " transform="translate(172,17)" style="fill: #A45C25;"/><path d="M0 0 C8.58 0 17.16 0 26 0 C29.32838077 32.45171255 32.40590452 64.94913288 34.81201172 97.48388672 C34.93921198 99.18638785 35.07118354 100.88853812 35.20751953 102.59033203 C35.39963006 104.99703721 35.57713749 107.40434645 35.75 109.8125 C35.89695312 111.77123047 35.89695312 111.77123047 36.046875 113.76953125 C36.00098477 116.93213309 35.93803204 118.52098356 34 121 C28.82227744 123.27733855 22.55585785 123.47895326 17 123 C13.97570268 121.0846117 13.1613637 118.30541977 12 115 C10.906875 115.061875 9.81375 115.12375 8.6875 115.1875 C5 115 5 115 3.29682446 113.72350311 C1.04031711 110.72456412 1.51036123 107.04017555 1.47583008 103.42382812 C1.45588486 102.54682755 1.43593964 101.66982697 1.41539001 100.76625061 C1.35273729 97.854677 1.3110336 94.94319587 1.26953125 92.03125 C1.23020439 89.99594762 1.1896325 87.96066896 1.14787292 85.92541504 C1.04111865 80.54719526 0.95231064 75.1688171 0.86688232 69.79022217 C0.79521164 65.4540249 0.71146485 61.11810417 0.62686634 56.78214264 C0.25767613 37.85266154 -0.04839281 18.9335453 0 0 Z " transform="translate(199,363)" style="fill: #66BCE6;"/><path d="M0 0 C8.58 0 17.16 0 26 0 C26.11700489 23.63034506 25.85943612 47.23278655 25.25537109 70.85571289 C25.1426303 75.28339884 25.04326513 79.71129043 24.94656563 84.13935184 C24.86905152 87.59404348 24.78285174 91.04847724 24.6941185 94.50289726 C24.65349277 96.13953581 24.61603159 97.77625621 24.58185196 99.41304207 C24.5339437 101.66510984 24.47389411 103.91653125 24.41064453 106.16821289 C24.37955597 107.44386612 24.34846741 108.71951935 24.31643677 110.03382874 C24 113 24 113 22 115 C19.8359375 114.9765625 19.8359375 114.9765625 17.375 114.625 C16.55773437 114.51414062 15.74046875 114.40328125 14.8984375 114.2890625 C14.27195313 114.19367188 13.64546875 114.09828125 13 114 C12.896875 115.11375 12.79375 116.2275 12.6875 117.375 C12.460625 118.57125 12.23375 119.7675 12 121 C7.73572911 123.84284726 4.00671803 123.51506328 -1 123 C-3.88614647 122.15021899 -6.82858126 121.17141874 -9 119 C-9.67019224 108.53853889 -8.54088447 98.05512264 -7.57556152 87.64849854 C-7.21039365 83.71171772 -6.85887345 79.77374802 -6.50637817 75.83581543 C-6.31506727 73.69976761 -6.12305567 71.56378244 -5.9303894 69.42785645 C-4.70701684 55.83493824 -3.56601871 42.23500689 -2.41958237 28.6354332 C-2.0411191 24.1486748 -1.6612481 19.66203536 -1.2816925 15.17536926 C-0.85402879 10.11694942 -0.42708181 5.058469 0 0 Z " transform="translate(138,363)" style="fill: #67BDE7;"/><path d="M0 0 C1.2684375 1.2065625 1.2684375 1.2065625 2.5625 2.4375 C11.72928048 10.24967527 22.37677705 15.90480283 34 19 C34.53090081 32.33150917 32.67864782 44.70926477 24.07421875 55.390625 C17.89766789 61.86700843 11.4180462 66.03390841 2.3125 66.3125 C-7.11017958 66.17413466 -13.52882289 61.47117711 -20 55 C-27.33100614 47.32801683 -31.16776079 38.77607944 -31.0625 28.25 C-31.05347656 27.07953125 -31.04445312 25.9090625 -31.03515625 24.703125 C-31.02355469 23.81109375 -31.01195312 22.9190625 -31 22 C-30.09378906 21.70867187 -29.18757812 21.41734375 -28.25390625 21.1171875 C-16.8852962 17.29155999 -8.67507323 13.26429294 -2 3 C-1.34 2.01 -0.68 1.02 0 0 Z " transform="translate(179,51)" style="fill: #F1E1DB;"/><path d="M0 0 C5.19921029 3.76942746 10.43651599 8.62204797 12.5 14.8125 C13.25324919 23.78692603 13.47868104 31.57435061 7.5 38.8125 C2.83102407 44.1806373 -2.50429729 46.68416085 -9.5 47.8125 C-16.24519643 48.18660333 -22.29730764 46.12692781 -27.5 41.8125 C-33.24653367 34.36730544 -35.66768179 27.1807976 -34.5 17.8125 C-32.21395634 10.82110189 -28.53473209 5.94009328 -22.5 1.8125 C-21.200625 0.884375 -21.200625 0.884375 -19.875 -0.0625 C-13.44935742 -2.20438086 -6.40874056 -2.17439412 0 0 Z " transform="translate(393.5,272.1875)" style="fill: #F1E1DB;"/><path d="M0 0 C4.62 0 9.24 0 14 0 C14 1.65 14 3.3 14 5 C14.78375 5.2475 15.5675 5.495 16.375 5.75 C19.28334585 6.75287788 22.0477799 7.86267666 24.875 9.0625 C29.31868471 10.87363816 33.22645705 11.64640423 38 12 C36.6678231 14.6643538 34.99678374 14.98054701 32.29101562 15.95556641 C15.8081335 21.36179401 0.02216616 20.34541234 -16 14 C-13.39473112 11.39473112 -10.82060766 10.65865776 -7.375 9.375 C-6.18648437 8.92898437 -4.99796875 8.48296875 -3.7734375 8.0234375 C-2.40058594 7.51683594 -2.40058594 7.51683594 -1 7 C-0.67 4.69 -0.34 2.38 0 0 Z " transform="translate(174,122)" style="fill: #ECDDD7;"/><path d="M0 0 C4.15151338 1.44202476 7.29978445 3.5010438 10.8125 6.125 C11.78832031 6.84945313 12.76414062 7.57390625 13.76953125 8.3203125 C14.87361328 9.15175781 14.87361328 9.15175781 16 10 C10.91525424 17.79661017 10.91525424 17.79661017 7.75 18.5 C4.20103589 17.8547338 2.58982407 16.53423361 0.1640625 13.921875 C-1.92985091 10.4648099 -1.58539655 6.89029353 -1 3 C-0.67 2.01 -0.34 1.02 0 0 Z " transform="translate(82,277)" style="fill: #ECDDD7;"/><path d="M0 0 C-0.3625 7.25 -0.3625 7.25 -3.125 10.5 C-6.77585464 12.40479372 -8.93007892 12.5814173 -13 12 C-15.9375 10.125 -15.9375 10.125 -18 8 C-18 7.34 -18 6.68 -18 6 C-15.56781941 4.80036357 -13.13029422 3.61515562 -10.6875 2.4375 C-9.99720703 2.09525391 -9.30691406 1.75300781 -8.59570312 1.40039062 C-3.33984375 -1.11328125 -3.33984375 -1.11328125 0 0 Z " transform="translate(306,314)" style="fill: #EDDDD7;"/><path d="M0 0 C0.99 0.33 1.98 0.66 3 1 C1.25615944 5.19226316 -0.76085859 6.39560185 -4.78125 8.23828125 C-9.60154351 9.89313553 -13.56596613 9.53112366 -18.375 7.75 C-21.03368909 5.97754061 -21.97386916 4.97577944 -23 2 C-22.01 1.67 -21.02 1.34 -20 1 C-18.9171875 1.7115625 -18.9171875 1.7115625 -17.8125 2.4375 C-14.17854897 4.45636169 -11.02627715 4.73343948 -7 4 C-5.01967632 3.09594255 -5.01967632 3.09594255 -3.1875 1.9375 C-2.135625 1.298125 -1.08375 0.65875 0 0 Z " transform="translate(191,99)" style="fill: #0F0E0C;"/><path d="M0 0 C2.5 0.25 2.5 0.25 4.5 2.25 C4.75 4.75 4.75 4.75 4.5 7.25 C2.5 9.25 2.5 9.25 0 9.5 C-2.5 9.25 -2.5 9.25 -4.5 7.25 C-4.75 4.75 -4.75 4.75 -4.5 2.25 C-2.5 0.25 -2.5 0.25 0 0 Z " transform="translate(167.5,78.75)" style="fill: #131210;"/><path d="M0 0 C2.375 0.6875 2.375 0.6875 3.375 1.6875 C3.5625 4.125 3.5625 4.125 3.375 6.6875 C1.375 8.6875 1.375 8.6875 -1.125 8.9375 C-3.625 8.6875 -3.625 8.6875 -5.625 6.6875 C-5.9375 4.1875 -5.9375 4.1875 -5.625 1.6875 C-2.625 -0.3125 -2.625 -0.3125 0 0 Z " transform="translate(195.625,79.3125)" style="fill: #141311;"/><path d="M0 0 C1.67542976 0.28604898 3.34385343 0.61781233 5 1 C5.625 2.875 5.625 2.875 6 5 C5.34 5.66 4.68 6.32 4 7 C1.375 6.625 1.375 6.625 -1 6 C-1.042721 4.33388095 -1.04063832 2.66617115 -1 1 C-0.67 0.67 -0.34 0.34 0 0 Z " transform="translate(386,293)" style="fill: #12110F;"/><path d="M0 0 C1.67542976 0.28604898 3.34385343 0.61781233 5 1 C5 2.65 5 4.3 5 6 C2.625 6.625 2.625 6.625 0 7 C-0.66 6.34 -1.32 5.68 -2 5 C-1.46428571 1.46428571 -1.46428571 1.46428571 0 0 Z " transform="translate(369,292)" style="fill: #12110F;"/><path d="" transform="translate(0,0)" style="fill: #000000;"/></svg>