<?xml version="1.0" encoding="utf-8" ?>
<svg baseProfile="full" height="500" version="1.1" viewBox="0 0 500 500" width="500" xmlns="http://www.w3.org/2000/svg" xmlns:ev="http://www.w3.org/2001/xml-events" xmlns:xlink="http://www.w3.org/1999/xlink"><defs /><path d="M 22,20 L 22,476 L 477,476 L 477,20 Z" fill="#000000" stroke="none" /><path d="M 242,358 L 241,359 L 238,359 L 237,360 L 236,359 L 234,361 L 233,360 L 231,360 L 230,361 L 228,361 L 226,363 L 225,362 L 225,363 L 224,364 L 223,364 L 222,365 L 219,365 L 218,366 L 217,366 L 214,369 L 213,369 L 212,370 L 210,370 L 207,373 L 206,373 L 199,380 L 198,380 L 197,381 L 198,382 L 197,383 L 196,383 L 193,386 L 193,387 L 191,389 L 191,390 L 190,391 L 190,392 L 188,394 L 188,395 L 187,396 L 187,398 L 186,399 L 187,400 L 185,402 L 185,404 L 184,405 L 183,405 L 183,407 L 182,408 L 182,409 L 183,410 L 181,412 L 181,413 L 182,414 L 182,415 L 180,417 L 180,421 L 181,422 L 180,423 L 180,431 L 181,432 L 180,433 L 180,435 L 181,436 L 180,437 L 180,438 L 181,439 L 181,443 L 182,444 L 182,447 L 183,447 L 184,448 L 217,448 L 218,447 L 219,448 L 243,448 L 244,447 L 245,448 L 247,448 L 248,447 L 249,448 L 282,448 L 283,447 L 284,448 L 291,448 L 292,447 L 293,448 L 316,448 L 316,447 L 317,446 L 316,445 L 317,444 L 318,444 L 318,440 L 319,439 L 319,438 L 318,437 L 319,436 L 319,433 L 318,432 L 319,431 L 319,430 L 318,429 L 319,428 L 318,427 L 319,426 L 319,422 L 318,421 L 318,419 L 319,418 L 319,417 L 317,415 L 318,414 L 317,413 L 318,412 L 317,411 L 317,410 L 316,409 L 316,405 L 314,403 L 314,402 L 313,401 L 314,400 L 311,397 L 311,396 L 310,395 L 311,394 L 308,391 L 308,389 L 306,387 L 306,386 L 304,384 L 303,384 L 302,383 L 302,382 L 297,377 L 297,376 L 296,376 L 294,374 L 293,374 L 292,373 L 291,373 L 289,371 L 289,370 L 288,369 L 286,369 L 285,368 L 284,368 L 283,367 L 283,366 L 281,366 L 280,365 L 277,365 L 276,364 L 275,364 L 274,363 L 274,362 L 272,362 L 271,361 L 265,361 L 263,359 L 262,360 L 260,360 L 258,358 Z" fill="#d89000" stroke="none" /></svg>