<?xml version="1.0" encoding="utf-8" ?>
<svg baseProfile="full" height="500" version="1.1" viewBox="0 0 500 500" width="500" xmlns="http://www.w3.org/2000/svg" xmlns:ev="http://www.w3.org/2001/xml-events" xmlns:xlink="http://www.w3.org/1999/xlink"><defs /><path d="M 129,59 L 59,129 L 59,130 L 178,249 L 178,250 L 59,369 L 59,370 L 129,440 L 130,440 L 249,321 L 250,321 L 369,440 L 370,440 L 440,370 L 440,369 L 321,250 L 321,249 L 440,130 L 440,129 L 370,59 L 369,59 L 250,178 L 249,178 L 130,59 Z" fill="#000000" stroke="none" /><path d="M 130,75 L 75,130 L 194,249 L 194,250 L 191,253 L 191,254 L 190,255 L 189,255 L 189,256 L 188,257 L 187,257 L 187,258 L 186,259 L 185,259 L 185,260 L 184,261 L 183,261 L 183,262 L 182,263 L 181,263 L 181,264 L 180,265 L 179,265 L 179,266 L 178,267 L 177,267 L 177,268 L 176,269 L 175,269 L 175,270 L 174,271 L 173,271 L 173,272 L 172,273 L 171,273 L 171,274 L 170,275 L 169,275 L 169,276 L 168,277 L 167,277 L 167,278 L 166,279 L 165,279 L 165,280 L 164,281 L 163,281 L 163,282 L 162,283 L 161,283 L 161,284 L 160,285 L 159,285 L 159,286 L 158,287 L 157,287 L 157,288 L 156,289 L 155,289 L 155,290 L 154,291 L 153,291 L 153,292 L 152,293 L 151,293 L 151,294 L 150,295 L 149,295 L 149,296 L 148,297 L 147,297 L 147,298 L 146,299 L 145,299 L 145,300 L 144,301 L 143,301 L 143,302 L 142,303 L 141,303 L 141,304 L 140,305 L 139,305 L 139,306 L 138,307 L 137,307 L 137,308 L 136,309 L 135,309 L 135,310 L 134,311 L 133,311 L 133,312 L 132,313 L 131,313 L 131,314 L 130,315 L 129,315 L 129,316 L 128,317 L 127,317 L 127,318 L 126,319 L 125,319 L 125,320 L 124,321 L 123,321 L 123,322 L 122,323 L 121,323 L 121,324 L 120,325 L 119,325 L 119,326 L 118,327 L 117,327 L 117,328 L 116,329 L 115,329 L 115,330 L 114,331 L 113,331 L 113,332 L 112,333 L 111,333 L 111,334 L 110,335 L 109,335 L 109,336 L 108,337 L 107,337 L 107,338 L 106,339 L 105,339 L 105,340 L 104,341 L 103,341 L 103,342 L 102,343 L 101,343 L 101,344 L 100,345 L 99,345 L 99,346 L 98,347 L 97,347 L 97,348 L 96,349 L 95,349 L 95,350 L 94,351 L 93,351 L 93,352 L 92,353 L 91,353 L 91,354 L 90,355 L 89,355 L 89,356 L 88,357 L 87,357 L 87,358 L 86,359 L 85,359 L 85,360 L 84,361 L 83,361 L 83,362 L 82,363 L 81,363 L 81,364 L 80,365 L 79,365 L 79,366 L 78,367 L 77,367 L 77,368 L 76,369 L 75,369 L 80,374 L 80,375 L 81,375 L 82,376 L 82,377 L 83,377 L 84,378 L 84,379 L 85,379 L 86,380 L 86,381 L 87,381 L 88,382 L 88,383 L 89,383 L 90,384 L 90,385 L 91,385 L 92,386 L 92,387 L 93,387 L 94,388 L 94,389 L 95,389 L 96,390 L 96,391 L 97,391 L 98,392 L 98,393 L 99,393 L 100,394 L 100,395 L 101,395 L 102,396 L 102,397 L 103,397 L 104,398 L 104,399 L 105,399 L 106,400 L 106,401 L 107,401 L 108,402 L 108,403 L 109,403 L 110,404 L 110,405 L 111,405 L 112,406 L 112,407 L 113,407 L 114,408 L 114,409 L 115,409 L 116,410 L 116,411 L 117,411 L 118,412 L 118,413 L 119,413 L 120,414 L 120,415 L 121,415 L 122,416 L 122,417 L 123,417 L 124,418 L 124,419 L 125,419 L 126,420 L 126,421 L 127,421 L 128,422 L 128,423 L 129,423 L 130,424 L 249,305 L 250,305 L 369,424 L 370,423 L 371,423 L 372,422 L 372,421 L 373,420 L 374,420 L 376,418 L 376,417 L 377,416 L 378,416 L 380,414 L 380,413 L 381,412 L 382,412 L 384,410 L 384,409 L 385,408 L 386,408 L 388,406 L 388,405 L 389,404 L 390,404 L 392,402 L 392,401 L 393,400 L 394,400 L 396,398 L 396,397 L 397,396 L 398,396 L 400,394 L 400,393 L 401,392 L 402,392 L 404,390 L 404,389 L 405,388 L 406,388 L 408,386 L 408,385 L 409,384 L 410,384 L 412,382 L 412,381 L 413,380 L 414,380 L 414,379 L 415,378 L 416,378 L 419,375 L 419,374 L 420,373 L 421,373 L 421,372 L 423,370 L 423,368 L 422,367 L 421,367 L 420,366 L 420,365 L 419,364 L 418,364 L 417,363 L 417,362 L 415,360 L 414,360 L 413,359 L 413,358 L 411,356 L 410,356 L 409,355 L 409,354 L 407,352 L 406,352 L 405,351 L 405,350 L 403,348 L 402,348 L 401,347 L 401,346 L 399,344 L 398,344 L 397,343 L 397,342 L 395,340 L 394,340 L 393,339 L 393,338 L 391,336 L 390,336 L 389,335 L 389,334 L 387,332 L 386,332 L 385,331 L 385,330 L 383,328 L 382,328 L 381,327 L 381,326 L 379,324 L 378,324 L 377,323 L 377,322 L 376,322 L 375,321 L 375,320 L 373,318 L 372,318 L 371,317 L 371,316 L 369,314 L 368,314 L 367,313 L 367,312 L 366,312 L 365,311 L 365,310 L 363,308 L 362,308 L 361,307 L 361,306 L 360,306 L 359,305 L 359,304 L 357,302 L 356,302 L 355,301 L 355,300 L 353,298 L 352,298 L 351,297 L 351,296 L 349,294 L 348,294 L 347,293 L 347,292 L 345,290 L 344,290 L 343,289 L 343,288 L 341,286 L 340,286 L 339,285 L 339,284 L 337,282 L 336,282 L 335,281 L 335,280 L 333,278 L 332,278 L 331,277 L 331,276 L 329,274 L 328,274 L 327,273 L 327,272 L 325,270 L 324,270 L 323,269 L 323,268 L 321,266 L 320,266 L 319,265 L 319,264 L 318,264 L 317,263 L 317,262 L 315,260 L 314,260 L 313,259 L 313,258 L 305,250 L 305,249 L 424,130 L 369,75 L 369,76 L 368,77 L 367,77 L 367,78 L 366,79 L 365,79 L 365,80 L 364,81 L 363,81 L 363,82 L 362,83 L 361,83 L 361,84 L 360,85 L 359,85 L 359,86 L 358,87 L 357,87 L 357,88 L 356,89 L 355,89 L 355,90 L 354,91 L 353,91 L 353,92 L 352,93 L 351,93 L 351,94 L 350,95 L 349,95 L 349,96 L 348,97 L 347,97 L 347,98 L 346,99 L 345,99 L 345,100 L 344,101 L 343,101 L 343,102 L 342,103 L 341,103 L 341,104 L 340,105 L 339,105 L 339,106 L 338,107 L 337,107 L 337,108 L 336,109 L 335,109 L 335,110 L 334,111 L 333,111 L 333,112 L 332,113 L 331,113 L 331,114 L 330,115 L 329,115 L 329,116 L 328,117 L 327,117 L 327,118 L 326,119 L 325,119 L 325,120 L 324,121 L 323,121 L 323,122 L 322,123 L 321,123 L 321,124 L 320,125 L 319,125 L 319,126 L 318,127 L 317,127 L 317,128 L 316,129 L 315,129 L 315,130 L 314,131 L 313,131 L 313,132 L 312,133 L 311,133 L 311,134 L 310,135 L 309,135 L 309,136 L 308,137 L 307,137 L 307,138 L 306,139 L 305,139 L 305,140 L 304,141 L 303,141 L 303,142 L 302,143 L 301,143 L 301,144 L 300,145 L 299,145 L 299,146 L 298,147 L 297,147 L 297,148 L 296,149 L 295,149 L 295,150 L 294,151 L 293,151 L 293,152 L 292,153 L 291,153 L 291,154 L 290,155 L 289,155 L 289,156 L 288,157 L 287,157 L 287,158 L 286,159 L 285,159 L 285,160 L 284,161 L 283,161 L 283,162 L 282,163 L 281,163 L 281,164 L 280,165 L 279,165 L 279,166 L 278,167 L 277,167 L 277,168 L 276,169 L 275,169 L 275,170 L 274,171 L 273,171 L 273,172 L 272,173 L 271,173 L 271,174 L 270,175 L 269,175 L 269,176 L 268,177 L 267,177 L 267,178 L 266,179 L 265,179 L 265,180 L 264,181 L 263,181 L 263,182 L 262,183 L 261,183 L 261,184 L 260,185 L 259,185 L 259,186 L 258,187 L 257,187 L 257,188 L 256,189 L 255,189 L 255,190 L 254,191 L 253,191 L 253,192 L 252,193 L 251,193 L 251,194 L 250,195 L 249,194 L 248,194 L 247,193 L 247,192 L 245,190 L 244,190 L 243,189 L 243,188 L 242,187 L 241,187 L 240,186 L 240,185 L 239,184 L 238,184 L 237,183 L 237,182 L 235,180 L 234,180 L 233,179 L 233,178 L 232,178 L 231,177 L 231,176 L 229,174 L 228,174 L 227,173 L 227,172 L 225,170 L 224,170 L 223,169 L 223,168 L 221,166 L 220,166 L 219,165 L 219,164 L 217,162 L 216,162 L 215,161 L 215,160 L 213,158 L 212,158 L 211,157 L 211,156 L 209,154 L 208,154 L 207,153 L 207,152 L 205,150 L 204,150 L 203,149 L 203,148 L 201,146 L 200,146 L 199,145 L 199,144 L 197,142 L 196,142 L 195,141 L 195,140 L 193,138 L 192,138 L 191,137 L 191,136 L 189,134 L 188,134 L 187,133 L 187,132 Z" fill="#d81818" stroke="none" /></svg>