<?xml version="1.0" encoding="UTF-8"?>
<!-- Generator: visioncortex VTracer -->
<svg id="svg" version="1.1" xmlns="http://www.w3.org/2000/svg" style="display: block;" viewBox="0 0 500 500"><path d="M0 0 C1.89246199 1.43335201 1.89246199 1.43335201 3.953125 1.28515625 C6.97715669 -0.2096776 8.9352738 -2.37453625 11.265625 -4.796875 C12.15765625 -5.71597656 13.0496875 -6.63507813 13.96875 -7.58203125 C14.64421875 -8.29230469 15.3196875 -9.00257812 16.015625 -9.734375 C18.50924071 -8.53056052 20.69705583 -7.28008778 23.015625 -5.734375 C23.015625 -5.074375 23.015625 -4.414375 23.015625 -3.734375 C23.675625 -3.734375 24.335625 -3.734375 25.015625 -3.734375 C25.015625 -3.074375 25.015625 -2.414375 25.015625 -1.734375 C25.675625 -1.734375 26.335625 -1.734375 27.015625 -1.734375 C27.015625 -1.074375 27.015625 -0.414375 27.015625 0.265625 C27.675625 0.265625 28.335625 0.265625 29.015625 0.265625 C30.42578125 1.69921875 30.42578125 1.69921875 32.078125 3.703125 C36.13630866 8.48904201 40.53563431 12.8770627 45.015625 17.265625 C41.21087078 21.82593324 37.26592879 26.11651892 33.015625 30.265625 C34.35124043 33.10228513 35.86192429 35.55730583 37.73828125 38.06640625 C38.27235596 38.78844238 38.80643066 39.51047852 39.35668945 40.25439453 C39.92476318 41.02122559 40.49283691 41.78805664 41.078125 42.578125 C53.05977032 58.9931939 62.47242324 76.39400471 70.015625 95.265625 C70.36238281 96.04550781 70.70914062 96.82539063 71.06640625 97.62890625 C76.38119167 109.83854844 78.34067345 123.45874263 80.70898438 136.4855957 C80.86560547 137.33984131 81.02222656 138.19408691 81.18359375 139.07421875 C81.32047607 139.83532959 81.4573584 140.59644043 81.59838867 141.38061523 C81.95226482 143.34169402 81.95226482 143.34169402 83.015625 145.265625 C83.26158328 148.25052612 83.44533693 151.21251873 83.578125 154.203125 C83.63963745 155.58213989 83.63963745 155.58213989 83.70239258 156.98901367 C84.74904956 183.09042842 83.06177558 206.137631 76.70703125 231.45263672 C75.90037796 234.73450793 75.15908665 238.0271602 74.4453125 241.33032227 C74.00388154 243.31851729 73.51777793 245.2919768 73.015625 247.265625 C72.355625 247.265625 71.695625 247.265625 71.015625 247.265625 C70.76941406 248.55726563 70.52320313 249.84890625 70.26953125 251.1796875 C69.12507721 256.3282182 67.18222048 260.87937277 64.953125 265.640625 C64.23202377 267.210456 63.51192806 268.78074938 62.79296875 270.3515625 C62.47577881 271.0326709 62.15858887 271.7137793 61.83178711 272.41552734 C60.90947571 274.42810881 60.90947571 274.42810881 60.015625 277.265625 C59.355625 277.265625 58.695625 277.265625 58.015625 277.265625 C57.79261719 278.07386719 57.56960938 278.88210938 57.33984375 279.71484375 C55.66830267 284.19694063 53.34676725 288.02623075 50.828125 292.078125 C50.33779785 292.87549072 49.8474707 293.67285645 49.34228516 294.49438477 C46.25704926 299.45051987 43.03006312 304.16957986 39.2578125 308.63671875 C37.80399613 310.36081907 37.80399613 310.36081907 37.015625 313.265625 C35.34895833 314.93229167 33.68229167 316.59895833 32.015625 318.265625 C32.015625 321.08663128 33.26300128 321.88448762 35.140625 323.953125 C38.49906762 327.67726471 41.74634577 331.4514659 45.015625 335.265625 C36.105625 344.175625 27.195625 353.085625 18.015625 362.265625 C10.140625 355.515625 10.140625 355.515625 6.578125 351.890625 C5.89878906 351.20226562 5.21945312 350.51390625 4.51953125 349.8046875 C4.02324219 349.29679687 3.52695312 348.78890625 3.015625 348.265625 C-1.72860695 350.88333884 -6.12872114 353.72662049 -10.484375 356.953125 C-32.16260531 372.62846522 -57.70563646 385.6652381 -83.984375 391.265625 C-84.59289307 391.4217627 -85.20141113 391.57790039 -85.82836914 391.73876953 C-88.16272229 392.30920709 -90.50067525 392.76428731 -92.86328125 393.203125 C-93.78431641 393.37585938 -94.70535156 393.54859375 -95.65429688 393.7265625 C-97.58645756 394.08664106 -99.51874999 394.44601336 -101.45117188 394.8046875 C-102.37091797 394.97742188 -103.29066406 395.15015625 -104.23828125 395.328125 C-105.07689697 395.48410156 -105.9155127 395.64007813 -106.77954102 395.80078125 C-109.14380607 396.25559223 -109.14380607 396.25559223 -111.984375 397.265625 C-114.59321576 397.50016007 -117.18297606 397.68588786 -119.796875 397.828125 C-120.47685547 397.87130859 -121.15683594 397.91449219 -121.85742188 397.95898438 C-149.19903755 399.52633814 -176.20261996 396.71016937 -202.546875 389.44921875 C-206.99350895 388.23334228 -211.4763229 387.2254511 -215.984375 386.265625 C-215.984375 385.605625 -215.984375 384.945625 -215.984375 384.265625 C-217.634375 384.265625 -219.284375 384.265625 -220.984375 384.265625 C-220.984375 383.605625 -220.984375 382.945625 -220.984375 382.265625 C-221.65082031 382.11867188 -222.31726563 381.97171875 -223.00390625 381.8203125 C-230.43359952 380.01224728 -236.40054597 377.07872219 -242.984375 373.265625 C-245.16864972 372.09293096 -247.35625489 370.92642253 -249.546875 369.765625 C-253.6609659 367.54618122 -257.75396349 365.30006939 -261.796875 362.953125 C-262.60769531 362.48261719 -263.41851562 362.01210938 -264.25390625 361.52734375 C-265.11048828 360.90279297 -265.11048828 360.90279297 -265.984375 360.265625 C-265.984375 359.605625 -265.984375 358.945625 -265.984375 358.265625 C-266.974375 357.95625 -266.974375 357.95625 -267.984375 357.640625 C-271.47097449 356.04260023 -274.20489039 353.95933285 -277.21484375 351.60546875 C-278.95061945 350.20609213 -278.95061945 350.20609213 -280.984375 349.265625 C-280.984375 348.605625 -280.984375 347.945625 -280.984375 347.265625 C-286.40698903 348.73792174 -289.52703769 352.46937301 -293.296875 356.390625 C-293.94205078 357.04933594 -294.58722656 357.70804687 -295.25195312 358.38671875 C-296.83644978 360.00642644 -298.41349599 361.63272505 -299.984375 363.265625 C-300.974375 362.605625 -301.964375 361.945625 -302.984375 361.265625 C-302.984375 360.605625 -302.984375 359.945625 -302.984375 359.265625 C-304.18112632 357.87198459 -305.44918888 356.53923669 -306.74609375 355.23828125 C-307.93041992 354.05008789 -307.93041992 354.05008789 -309.13867188 352.83789062 C-309.97462891 352.00966797 -310.81058594 351.18144531 -311.671875 350.328125 C-312.89680664 349.0915918 -312.89680664 349.0915918 -314.14648438 347.83007812 C-314.94248047 347.03666016 -315.73847656 346.24324219 -316.55859375 345.42578125 C-317.28651123 344.70011963 -318.01442871 343.97445801 -318.7644043 343.22680664 C-321.03495125 341.22094459 -323.39360072 339.81855039 -325.984375 338.265625 C-327.23046875 336.03515625 -327.23046875 336.03515625 -326.984375 333.265625 C-324.97407993 330.50903047 -322.54452302 328.26505658 -320.046875 325.953125 C-319.37462891 325.30794922 -318.70238281 324.66277344 -318.00976562 323.99804688 C-316.34726917 322.40629495 -314.67244656 320.83015595 -312.984375 319.265625 C-314.44595517 314.87276459 -316.85712916 311.62952611 -319.734375 308.078125 C-323.51001505 303.3129458 -326.83869515 298.50112031 -329.828125 293.19140625 C-330.96231047 291.12619201 -330.96231047 291.12619201 -332.984375 289.265625 C-334.29731571 286.75857487 -335.56178508 284.24797532 -336.796875 281.703125 C-338.99913418 277.21356004 -341.2054299 272.77045183 -343.734375 268.453125 C-346.8335805 263.00062447 -349.984375 256.60951748 -349.984375 250.265625 C-350.644375 249.935625 -351.304375 249.605625 -351.984375 249.265625 C-352.66015625 247.46484375 -352.66015625 247.46484375 -353.296875 244.953125 C-353.55082031 243.95925781 -353.80476563 242.96539062 -354.06640625 241.94140625 C-354.36933594 240.72839844 -354.67226563 239.51539063 -354.984375 238.265625 C-355.38310209 236.73801662 -355.78291496 235.21069138 -356.18359375 233.68359375 C-360.35746305 217.61601581 -363.54990484 201.92031429 -363.984375 185.265625 C-364.00628906 184.43933594 -364.02820313 183.61304688 -364.05078125 182.76171875 C-364.33429694 169.92790873 -363.7330196 157.33920816 -362.24902344 144.59033203 C-362.01274216 142.51480593 -361.81249172 140.43525087 -361.6171875 138.35546875 C-357.97500386 104.2007058 -341.2543341 66.30423484 -319.26171875 39.96484375 C-317.77972113 38.18045262 -317.77972113 38.18045262 -316.984375 35.265625 C-315.994375 34.605625 -315.004375 33.945625 -313.984375 33.265625 C-314.63082161 30.14777387 -314.63082161 30.14777387 -316.984375 29.265625 C-316.984375 28.605625 -316.984375 27.945625 -316.984375 27.265625 C-317.644375 27.265625 -318.304375 27.265625 -318.984375 27.265625 C-318.984375 26.605625 -318.984375 25.945625 -318.984375 25.265625 C-319.644375 25.265625 -320.304375 25.265625 -320.984375 25.265625 C-323.109375 23.390625 -323.109375 23.390625 -324.984375 21.265625 C-324.984375 20.605625 -324.984375 19.945625 -324.984375 19.265625 C-325.644375 19.265625 -326.304375 19.265625 -326.984375 19.265625 C-326.54840019 14.84435082 -323.53931523 12.35294984 -320.55859375 9.37109375 C-320.01459427 8.81948074 -319.47059479 8.26786774 -318.91011047 7.69953918 C-317.75979027 6.53843032 -316.60548663 5.3812562 -315.44750977 4.2277832 C-313.67455894 2.45580747 -311.92401591 0.66356852 -310.17382812 -1.13085938 C-309.05338595 -2.25650643 -307.93168274 -3.38089999 -306.80859375 -4.50390625 C-306.28553146 -5.0433638 -305.76246918 -5.58282135 -305.22355652 -6.1386261 C-301.55478945 -9.73870066 -301.55478945 -9.73870066 -298.79516602 -9.71777344 C-295.78680206 -8.08400102 -293.56964289 -5.62666447 -291.234375 -3.171875 C-290.72777344 -2.65173828 -290.22117187 -2.13160156 -289.69921875 -1.59570312 C-288.45403095 -0.31527416 -287.21825998 0.97430054 -285.984375 2.265625 C-282.22730351 0.9473543 -279.62532158 -0.65230144 -276.609375 -3.234375 C-199.90690624 -65.53419679 -78.21437413 -65.50321317 0 0 Z " transform="translate(389.984375,75.734375)" style="fill: #DF1408;"/><path d="M0 0 C0.78632813 0.58910156 1.57265625 1.17820313 2.3828125 1.78515625 C2.91648437 2.18605469 3.45015625 2.58695313 4 3 C2.4351929 6.75845791 0.10729996 9.13924172 -2.75820923 11.99871826 C-3.4896866 12.73275891 -3.4896866 12.73275891 -4.23594129 13.48162866 C-5.86953936 15.11851832 -7.51017797 16.74816182 -9.15087891 18.37792969 C-10.32400236 19.55048896 -11.49668552 20.72348889 -12.66896057 21.89689636 C-15.85229403 25.08080405 -19.04175987 28.25850411 -22.23234987 31.43513775 C-25.5658091 34.75610139 -28.89361205 38.08272299 -32.22201538 41.40875244 C-38.52553348 47.70605234 -44.83413287 53.99823627 -51.14456689 60.28860497 C-58.32858592 67.45027562 -65.50693228 74.61762059 -72.6848042 81.78545141 C-87.45022614 96.52996363 -102.22276892 111.26732378 -117 126 C-120.74139139 124.43923246 -123.11300533 122.13356275 -125.96075439 119.27975464 C-126.44603127 118.79618661 -126.93130815 118.31261858 -127.43129039 117.81439698 C-129.05436072 116.194618 -130.67018444 114.56779982 -132.28613281 112.94091797 C-133.44883999 111.7776466 -134.61198784 110.61481554 -135.77554321 109.45239258 C-138.93259237 106.29591763 -142.08343377 103.13331079 -145.23320866 99.96957922 C-148.52614489 96.66414706 -151.82473942 93.36437149 -155.1227417 90.06399536 C-161.36691777 83.81360119 -167.60597774 77.55812589 -173.84322238 71.3008157 C-180.94443451 64.17725488 -188.05132124 57.059367 -195.15869379 49.94195342 C-209.77879208 35.30094564 -224.39173815 20.65281713 -239 6 C-237.55376814 2.94212781 -236.4254371 1.26586463 -233.6484375 -0.69921875 C-232.97039062 -1.18165039 -232.29234375 -1.66408203 -231.59375 -2.16113281 C-230.8615625 -2.66483398 -230.129375 -3.16853516 -229.375 -3.6875 C-228.61445313 -4.21569336 -227.85390625 -4.74388672 -227.0703125 -5.28808594 C-219.64308601 -10.36971068 -211.9878483 -14.86406101 -204 -19 C-203.3409668 -19.34514648 -202.68193359 -19.69029297 -202.00292969 -20.04589844 C-137.50221033 -53.40833948 -57.16319786 -43.14950531 0 0 Z " transform="translate(367,98)" style="fill: #FEFDFD;"/><path d="M0 0 C3.7258997 3.64554852 6.83342451 7.33500586 9.6875 11.6875 C10.11466309 12.33686523 10.54182617 12.98623047 10.98193359 13.65527344 C31.97092569 46.04882216 43.45871308 81.18139632 43.375 119.875 C43.37478851 120.77741425 43.37457703 121.67982849 43.37435913 122.60958862 C43.32891502 142.06936111 41.31949078 160.60627245 34.70947266 179.00878906 C33.94653574 181.15005318 33.22928904 183.30407349 32.51171875 185.4609375 C25.26208838 206.71986888 14.14486466 225.6115139 0 243 C-3.74139139 241.43923246 -6.11300533 239.13356275 -8.96075439 236.27975464 C-9.44603127 235.79618661 -9.93130815 235.31261858 -10.43129039 234.81439698 C-12.05436072 233.194618 -13.67018444 231.56779982 -15.28613281 229.94091797 C-16.44883999 228.7776466 -17.61198784 227.61481554 -18.77554321 226.45239258 C-21.93259237 223.29591763 -25.08343377 220.13331079 -28.23320866 216.96957922 C-31.52614489 213.66414706 -34.82473942 210.36437149 -38.1227417 207.06399536 C-44.36691777 200.81360119 -50.60597774 194.55812589 -56.84322238 188.3008157 C-63.94443451 181.17725488 -71.05132124 174.059367 -78.15869379 166.94195342 C-92.77879208 152.30094564 -107.39173815 137.65281713 -122 123 C-116.61767259 116.46012927 -110.66327635 110.52897979 -104.67041016 104.55688477 C-103.52646756 103.41322464 -102.3827459 102.26934347 -101.23922729 101.1252594 C-98.15100653 98.036753 -95.05972335 94.95132864 -91.96786165 91.86646771 C-88.73095714 88.63583577 -85.49690473 85.40235121 -82.26254272 82.16917419 C-76.14486857 76.05460187 -70.02465089 69.94258206 -63.90350473 63.83148569 C-56.93174602 56.87092383 -49.96284365 49.90750518 -42.99417424 42.94385064 C-28.6659484 28.62606318 -14.33415722 14.31184914 0 0 Z " transform="translate(398,129)" style="fill: #FDFCFC;"/><path d="M0 0 C6.4711428 5.33046426 12.34819589 11.21374105 18.25952148 17.14599609 C19.38347742 18.27023452 20.50765442 19.39425197 21.6320343 20.51806641 C24.66682345 23.55256997 27.6985308 26.59013537 30.7296741 29.62828016 C33.9042512 32.80913063 37.08168169 35.98712823 40.25880432 39.16543579 C46.2671289 45.17686197 52.27290092 51.19083154 58.27774912 57.20573008 C65.11739392 64.05657246 71.95989615 70.90455786 78.80263412 77.75231051 C92.87159363 91.83170789 106.93697962 105.91467056 121 120 C119.44747182 123.70713703 117.18592405 126.06069781 114.35568237 128.88482666 C113.88028145 129.36193643 113.40488053 129.83904621 112.91507351 130.33061385 C111.32293269 131.92604554 109.72375541 133.51422968 108.12451172 135.10253906 C106.98094453 136.24554205 105.83781767 137.38898573 104.69509888 138.53283691 C101.59234093 141.63616903 98.48345212 144.73329308 95.3734374 147.82935047 C92.12405936 151.06623189 88.88033856 154.30877229 85.63601685 157.55072021 C79.49187053 163.68864863 73.34264344 169.82146068 67.19158089 175.95245719 C60.18893648 182.93275227 53.19196555 189.91872253 46.19546866 196.90517855 C31.8032892 211.27644899 17.40398925 225.6405669 3 240 C-0.27167472 238.90944176 -0.69525848 238.43042999 -2.6015625 235.74609375 C-3.33016479 234.72394775 -3.33016479 234.72394775 -4.07348633 233.68115234 C-4.58548584 232.94074707 -5.09748535 232.2003418 -5.625 231.4375 C-6.42296997 230.2920874 -6.42296997 230.2920874 -7.23706055 229.12353516 C-20.72247372 209.47341952 -30.25304081 188.18981965 -36.1875 165.125 C-36.43765869 164.16924072 -36.68781738 163.21348145 -36.94555664 162.22875977 C-40.59689565 147.52838748 -41.40967888 132.94654925 -41.375 117.875 C-41.37478851 117.02071411 -41.37457703 116.16642822 -41.37435913 115.28625488 C-41.34111317 101.79312135 -40.32125781 89.11855898 -37 76 C-36.63165297 74.37685875 -36.26577785 72.75315461 -35.90234375 71.12890625 C-33.19709257 59.53547343 -28.97922675 48.79279723 -24 38 C-23.70335449 37.35160156 -23.40670898 36.70320313 -23.10107422 36.03515625 C-17.31674521 23.53492725 -9.82633337 9.82633337 0 0 Z " transform="translate(100,131)" style="fill: #FDFDFC;"/><path d="M0 0 C5.89754026 4.89273935 11.30604055 10.17051499 16.71142578 15.59790039 C17.6696356 16.55639283 18.62806676 17.51466403 19.58670044 18.47273254 C22.17142699 21.05717386 24.75307214 23.64467307 27.33415079 26.23275685 C30.04459911 28.94949306 32.75791469 31.66336266 35.47091675 34.37754822 C40.60559443 39.51532654 45.73772043 44.65564583 50.8689183 49.79689926 C56.69343673 55.63258646 62.52078479 61.46544452 68.34838128 67.29805768 C78.31327183 77.27162231 88.27604249 87.24730025 98.2364502 97.2253418 C99.82508268 98.81676949 101.41403074 100.40788225 103.00339127 101.99858284 C104.20502961 103.20311508 105.40481434 104.40950654 106.60094833 105.61950493 C109.2570355 108.3030093 112.03626003 110.66020529 115 113 C116.8125 114.625 116.8125 114.625 118 116 C118 116.66 118 117.32 118 118 C118.66 118 119.32 118 120 118 C120.33 118.99 120.66 119.98 121 121 C104.74401429 135.03752178 85.01687657 144.55728424 65 152 C63.845 152.44214844 62.69 152.88429688 61.5 153.33984375 C50.60480986 157.27023581 39.41733843 159.2211804 28 161 C26.38254883 161.26695679 26.38254883 161.26695679 24.73242188 161.53930664 C20.56283106 162.05395982 16.50807404 162.16190435 12.3125 162.16796875 C11.49233398 162.17129715 10.67216797 162.17462555 9.82714844 162.17805481 C8.09587154 162.18309547 6.36458501 162.18546402 4.63330078 162.18530273 C2.03531032 162.18747054 -0.56224175 162.20560506 -3.16015625 162.22460938 C-16.70313638 162.27169148 -29.71432416 161.18370332 -42.875 157.75 C-43.71957764 157.53166504 -44.56415527 157.31333008 -45.43432617 157.08837891 C-72.75777825 149.84008494 -96.54498235 137.00066443 -119 120 C-113.69550603 113.5632053 -107.84774226 107.71320616 -101.94580078 101.83227539 C-100.83141445 100.71817155 -99.71724909 99.60384663 -98.60328674 98.48931885 C-95.59564178 95.48138832 -92.58493528 92.47653948 -89.57364893 89.47225499 C-86.42082547 86.32570532 -83.27085528 83.17630186 -80.12057495 80.02720642 C-74.16227276 74.07200572 -68.20142724 68.11935758 -62.23965251 62.16763347 C-55.4492683 55.38844721 -48.66174138 48.60640319 -41.87444711 41.8241235 C-27.91946397 27.87957796 -13.96091556 13.93860599 0 0 Z " transform="translate(248,279)" style="fill: #FDFCFB;"/><path d="M0 0 C19.43693997 8.87637219 32.25048795 45.27587956 40 64 C40.36867188 64.82371094 40.73734375 65.64742188 41.1171875 66.49609375 C46.40463718 78.64903043 48.33641713 92.25565086 50.69335938 105.2199707 C50.84998047 106.07421631 51.00660156 106.92846191 51.16796875 107.80859375 C51.30485107 108.56970459 51.4417334 109.33081543 51.58276367 110.11499023 C51.93663982 112.07606902 51.93663982 112.07606902 53 114 C53.24595828 116.98490112 53.42971193 119.94689373 53.5625 122.9375 C53.6035083 123.85684326 53.6445166 124.77618652 53.68676758 125.72338867 C54.73342456 151.82480342 53.04615058 174.872006 46.69140625 200.18701172 C45.88475296 203.46888293 45.14346165 206.7615352 44.4296875 210.06469727 C43.98825654 212.05289229 43.50215293 214.0263518 43 216 C42.34 216 41.68 216 41 216 C40.63068359 217.93746094 40.63068359 217.93746094 40.25390625 219.9140625 C39.10945221 225.0625932 37.16659548 229.61374777 34.9375 234.375 C34.21639877 235.944831 33.49630306 237.51512438 32.77734375 239.0859375 C32.46015381 239.7670459 32.14296387 240.4481543 31.81616211 241.14990234 C30.89385071 243.16248381 30.89385071 243.16248381 30 246 C29.34 246 28.68 246 28 246 C27.77699219 246.80824219 27.55398438 247.61648438 27.32421875 248.44921875 C25.65267767 252.93131563 23.33114225 256.76060575 20.8125 260.8125 C20.32217285 261.60986572 19.8318457 262.40723145 19.32666016 263.22875977 C16.24142426 268.18489487 13.01443812 272.90395486 9.2421875 277.37109375 C7.78837113 279.09519407 7.78837113 279.09519407 7 282 C4.6875 284.6875 4.6875 284.6875 2 287 C-2 287 -2 287 -4.18359375 285.20703125 C-4.92738281 284.41683594 -5.67117188 283.62664062 -6.4375 282.8125 C-7.22769531 281.98621094 -8.01789063 281.15992188 -8.83203125 280.30859375 C-9.54746094 279.54675781 -10.26289063 278.78492188 -11 278 C-11.86625 277.13375 -12.7325 276.2675 -13.625 275.375 C-16.75 272.25 -19.875 269.125 -23 266 C-19.89246131 261.23275314 -16.69843375 256.59032155 -13.25 252.0625 C2.61600997 230.34153797 13.3213091 203.39544315 18 177 C18.17901855 176.01354492 18.35803711 175.02708984 18.54248047 174.01074219 C20.09823307 164.4389335 20.33962012 155.0411056 20.31567383 145.3605957 C20.3125167 142.70156676 20.33605675 140.04365791 20.36132812 137.38476562 C20.4022652 126.24006675 19.3363911 115.90478921 17 105 C16.69632856 103.53157007 16.39302779 102.06306344 16.09008789 100.59448242 C10.56971354 74.25399725 -1.47973887 45.99666478 -19.734375 25.9453125 C-21 24 -21 24 -20.85864258 22.17626953 C-19.670208 19.16412684 -17.83470041 17.49819663 -15.52734375 15.234375 C-14.62822266 14.34492187 -13.72910156 13.45546875 -12.80273438 12.5390625 C-11.85720703 11.61867188 -10.91167969 10.69828125 -9.9375 9.75 C-8.97783027 8.80538327 -8.01883771 7.86007805 -7.06054688 6.9140625 C-4.71361172 4.60250828 -2.35996609 2.2982366 0 0 Z " transform="translate(420,107)" style="fill: #010000;"/><path d="M0 0 C0.60537598 0.44601563 1.21075195 0.89203125 1.83447266 1.3515625 C5.24693928 3.87017828 8.63462441 6.41860395 12 9 C10.4608199 12.66752005 8.24514548 14.98580573 5.4296875 17.765625 C4.53378906 18.65507813 3.63789063 19.54453125 2.71484375 20.4609375 C1.77769531 21.38132812 0.84054687 22.30171875 -0.125 23.25 C-1.07988637 24.19484856 -2.03431859 25.14015633 -2.98828125 26.0859375 C-5.32109087 28.39518338 -7.65844086 30.69963203 -10 33 C-13.30841723 31.04868555 -16.4225092 28.98773122 -19.50146484 26.6887207 C-48.39386394 5.24743119 -85.86493183 -9.10983498 -122.05859375 -9.16796875 C-122.80601334 -9.17129715 -123.55343292 -9.17462555 -124.32350159 -9.17805481 C-125.89917391 -9.18308589 -127.47485676 -9.18546433 -129.05053711 -9.18530273 C-131.40041884 -9.18746587 -133.74981183 -9.20559767 -136.09960938 -9.22460938 C-149.83650165 -9.27700206 -163.4820416 -8.35431736 -176.8125 -4.8125 C-177.63814453 -4.59746826 -178.46378906 -4.38243652 -179.31445312 -4.16088867 C-206.24104727 3.06251163 -230.96802465 14.97335388 -252.46875 32.890625 C-254 34 -254 34 -256 34 C-257.55078125 32.390625 -257.55078125 32.390625 -259.3125 30.25 C-261.30558414 27.89939355 -263.08647948 25.93081642 -265.5 24 C-270.26443341 20.18845327 -274.46860323 15.58653081 -277 10 C-200.80042289 -51.75805479 -89.89334737 -62.43260201 0 0 Z " transform="translate(382,69)" style="fill: #010000;"/><path d="M0 0 C5.43733055 4.52991796 10.46458931 9.34294216 15.4375 14.375 C16.16904297 15.11105469 16.90058594 15.84710938 17.65429688 16.60546875 C19.43852723 18.40136074 21.22036124 20.19955985 23 22 C21.30567 25.50668464 19.27259101 28.51804719 17 31.6875 C1.83246895 53.41680493 -8.69640063 76.95596737 -14 103 C-14.1302356 103.63694794 -14.26047119 104.27389587 -14.39465332 104.93014526 C-16.75681552 116.77917278 -17.49441868 128.24766185 -17.375 140.3125 C-17.37001495 141.16572845 -17.36502991 142.01895691 -17.3598938 142.89804077 C-17.27177115 155.79332223 -16.87281753 168.37969586 -14 181 C-13.77425293 182.00740234 -13.54850586 183.01480469 -13.31591797 184.05273438 C-9.81443714 199.19646965 -4.98024869 213.12652264 2 227 C2.48871582 228.00546875 2.48871582 228.00546875 2.98730469 229.03125 C7.88996375 239.11091381 14.03416115 248.10389826 20.68481445 257.10986328 C22.23261888 259.33431137 23.60573854 261.67623091 25 264 C14.11 274.89 14.11 274.89 3 286 C-0.25269628 284.91576791 -0.74328296 284.38527961 -2.70703125 281.75390625 C-3.2086377 281.08568848 -3.71024414 280.4174707 -4.22705078 279.72900391 C-4.75024902 279.01405762 -5.27344727 278.29911133 -5.8125 277.5625 C-6.34858887 276.83981934 -6.88467773 276.11713867 -7.43701172 275.37255859 C-10.88222154 270.67664019 -14.06830401 265.90818374 -16.9140625 260.8203125 C-17.99171293 258.84496187 -17.99171293 258.84496187 -20 257 C-21.31294071 254.49294987 -22.57741008 251.98235032 -23.8125 249.4375 C-26.01475918 244.94793504 -28.2210549 240.50482683 -30.75 236.1875 C-33.8492055 230.73499947 -37 224.34389248 -37 218 C-37.66 217.67 -38.32 217.34 -39 217 C-39.67578125 215.19921875 -39.67578125 215.19921875 -40.3125 212.6875 C-40.56644531 211.69363281 -40.82039063 210.69976562 -41.08203125 209.67578125 C-41.38496094 208.46277344 -41.68789063 207.24976563 -42 206 C-42.39872709 204.47239162 -42.79853996 202.94506638 -43.19921875 201.41796875 C-47.37308805 185.35039081 -50.56552984 169.65468929 -51 153 C-51.02191406 152.17371094 -51.04382813 151.34742188 -51.06640625 150.49609375 C-51.34992194 137.66228373 -50.7486446 125.07358316 -49.26464844 112.32470703 C-49.02836716 110.24918093 -48.82811672 108.16962587 -48.6328125 106.08984375 C-44.99062886 71.9350808 -28.2699591 34.03860984 -6.27734375 7.69921875 C-4.79534613 5.91482762 -4.79534613 5.91482762 -4 3 C-1.9375 1.3125 -1.9375 1.3125 0 0 Z " transform="translate(77,108)" style="fill: #010101;"/><path d="M0 0 C4.34378879 1.47479285 7.68853525 3.83185343 11.3125 6.5625 C42.46614927 29.30260081 80.355463 41.41694676 118.80541992 41.31567383 C121.29976297 41.31251612 123.79291175 41.33607477 126.28710938 41.36132812 C137.47790002 41.4043421 148.031546 40.17237119 159 38 C160.11511963 37.78746582 161.23023926 37.57493164 162.37915039 37.35595703 C189.97272288 31.89465247 218.53134254 19.3927387 240 1 C243.63879675 2.53652003 245.98214646 4.72420759 248.765625 7.5 C250.09980469 8.8303125 250.09980469 8.8303125 251.4609375 10.1875 C252.38132812 11.115625 253.30171875 12.04375 254.25 13 C255.18585938 13.928125 256.12171875 14.85625 257.0859375 15.8125 C257.97023438 16.699375 258.85453125 17.58625 259.765625 18.5 C260.57805664 19.3146875 261.39048828 20.129375 262.22753906 20.96875 C264 23 264 23 264 25 C261.58000489 26.90842652 259.15640666 28.6866379 256.625 30.4375 C255.85768555 30.97101074 255.09037109 31.50452148 254.29980469 32.05419922 C231.24328341 47.92372434 205.61065936 62.11576112 178 68 C177.39148193 68.1561377 176.78296387 68.31227539 176.15600586 68.47314453 C173.82165271 69.04358209 171.48369975 69.49866231 169.12109375 69.9375 C168.20005859 70.11023438 167.27902344 70.28296875 166.33007812 70.4609375 C164.39791744 70.82101606 162.46562501 71.18038836 160.53320312 71.5390625 C159.61345703 71.71179688 158.69371094 71.88453125 157.74609375 72.0625 C156.90747803 72.21847656 156.0688623 72.37445313 155.20483398 72.53515625 C152.84056893 72.98996723 152.84056893 72.98996723 150 74 C147.39115924 74.23453507 144.80139894 74.42026286 142.1875 74.5625 C141.50751953 74.60568359 140.82753906 74.64886719 140.12695312 74.69335938 C112.78533745 76.26071314 85.78175504 73.44454437 59.4375 66.18359375 C54.99086605 64.96771728 50.5080521 63.9598261 46 63 C46 62.34 46 61.68 46 61 C44.35 61 42.7 61 41 61 C41 60.34 41 59.68 41 59 C40.33355469 58.85304688 39.66710937 58.70609375 38.98046875 58.5546875 C31.55077548 56.74662228 25.58382903 53.81309719 19 50 C16.81572528 48.82730596 14.62812011 47.66079753 12.4375 46.5 C8.3234091 44.28055622 4.23041151 42.03444439 0.1875 39.6875 C-0.62332031 39.21699219 -1.43414062 38.74648438 -2.26953125 38.26171875 C-2.84058594 37.84535156 -3.41164063 37.42898438 -4 37 C-4 36.34 -4 35.68 -4 35 C-4.66 34.79375 -5.32 34.5875 -6 34.375 C-9.48659949 32.77697523 -12.22051539 30.69370785 -15.23046875 28.33984375 C-16.96624445 26.94046713 -16.96624445 26.94046713 -19 26 C-19 25.34 -19 24.68 -19 24 C-19.99 23.67 -20.98 23.34 -22 23 C-15.17373008 14.84177497 -7.56200163 7.46720316 0 0 Z " transform="translate(128,399)" style="fill: #010000;"/><path d="M0 0 C6.95612974 5.93620297 11.118916 12.83672637 12 22 C12.86681402 33.42460878 12.86681402 33.42460878 9.5703125 38.265625 C-6.32350941 55.81999546 -34.34148953 71.88578646 -58.34912109 73.12084961 C-88.62404953 74.08463677 -111.73651497 65.67381833 -133.9375 45.04296875 C-141.7432017 37.31118468 -141.7432017 37.31118468 -142.3125 32.1875 C-141.92835642 28.2692355 -140.70743683 26.78706733 -138 24 C-134.73952371 22.36976186 -132.62198965 22.5326465 -129 23 C-126.00156375 24.98033367 -123.54638194 27.47680915 -121 30 C-111.05275197 39.72156875 -98.07404533 49.23561195 -83.984375 51.48046875 C-80.76384801 51.29431357 -80.76384801 51.29431357 -78.796875 48.39453125 C-78.0952016 47.21180676 -77.41406332 46.01674362 -76.75 44.8125 C-75.97889353 43.51918015 -75.20270596 42.22887836 -74.421875 40.94140625 C-74.02548828 40.28285645 -73.62910156 39.62430664 -73.22070312 38.94580078 C-69.90591953 33.66203572 -65.92451173 28.83689821 -62 24 C-60.94039062 22.68902344 -60.94039062 22.68902344 -59.859375 21.3515625 C-45.58725987 4.59504214 -22.22415916 -12.24128944 0 0 Z " transform="translate(309,341)" style="fill: #030303;"/><path d="M0 0 C4.92092334 2.7941945 8.42659671 5.69509625 11.5 10.4375 C11.90992188 10.99695313 12.31984375 11.55640625 12.7421875 12.1328125 C16.78014137 18.56569073 16.40221768 26.12722338 15.5 33.4375 C14.28717381 37.13829771 12.65742271 40.20763751 10.5 43.4375 C9.9225 44.365625 9.345 45.29375 8.75 46.25 C3.03828993 51.80305146 -4.85523678 55.42016526 -12.8125 55.75 C-21.2955877 55.50803273 -28.42378982 52.3474139 -34.5 46.4375 C-40.35605234 39.192096 -43.02404087 32.59512726 -42.80859375 23.2421875 C-41.91946158 15.16121413 -37.35409756 8.85490076 -31.5 3.4375 C-21.94256021 -3.64273573 -11.0243177 -5.18791421 0 0 Z " transform="translate(342.5,222.5625)" style="fill: #020202;"/><path d="M0 0 C7.19000915 3.8355625 12.88831977 8.92397563 16.27734375 16.42578125 C18.32910489 23.71567914 18.71199124 33.08407605 15.4375 40.0625 C14.31640625 41.83984375 14.31640625 41.83984375 13.125 43.4375 C12.3825 44.489375 11.64 45.54125 10.875 46.625 C4.70860306 52.93154233 -2.27057485 56.42752499 -11.125 56.8125 C-19.1375575 56.63831397 -26.43022553 53.88046161 -32.26953125 48.3046875 C-38.74142722 40.77776226 -40.7766911 33.93146084 -40.32421875 24.02734375 C-39.35216094 16.25933391 -36.80060779 10.2388615 -30.90234375 4.9765625 C-21.73965237 -1.97931496 -11.04366879 -4.38694961 0 0 Z " transform="translate(181.875,221.5625)" style="fill: #020202;"/><path d="M0 0 C3.0350599 1.70487933 4.44595041 3.89190081 6 7 C6.40625 9.796875 6.40625 9.796875 6 13 C4.18942631 15.09580105 2.64787455 16.57516002 0.5 18.25 C-0.07951416 18.71817139 -0.65902832 19.18634277 -1.25610352 19.66870117 C-16.21940513 31.46993162 -34.30290557 42.85639541 -54 42 C-52.53849178 37.6793664 -50.23387404 34.35683391 -47.4375 30.8125 C-46.99349854 30.24442627 -46.54949707 29.67635254 -46.09204102 29.09106445 C-20.12694314 -3.79805952 -20.12694314 -3.79805952 0 0 Z " transform="translate(299,353)" style="fill: #F4BDC9;"/><path d="M0 0 C0.99 0.33 1.98 0.66 3 1 C-26.03320313 30.03320313 -26.03320313 30.03320313 -27.55102539 31.53930664 C-28.9622814 32.96197635 -30.33249681 34.42499117 -31.70117188 35.88867188 C-34 38 -34 38 -37 38 C-36.30962646 37.31486328 -35.61925293 36.62972656 -34.90795898 35.92382812 C-32.31287873 33.34704017 -29.72126708 30.76678638 -27.13061523 28.18554688 C-26.0153271 27.07524416 -24.89913789 25.96584571 -23.78198242 24.85742188 C-15.35221626 16.49374796 -15.35221626 16.49374796 -7.4296875 7.65234375 C-5.09556651 4.95471212 -2.5523859 2.49013258 0 0 Z " transform="translate(406,66)" style="fill: #CF1F15;"/><path d="M0 0 C0 3 0 3 -2.203125 5.54370117 C-3.21108431 6.55118515 -4.22730922 7.55044193 -5.25 8.54296875 C-5.78270508 9.07142899 -6.31541016 9.59988922 -6.86425781 10.1443634 C-8.56927029 11.83256735 -10.28441127 13.51005145 -12 15.1875 C-13.15693178 16.32938778 -14.31319065 17.47195776 -15.46875 18.61523438 C-18.30474911 21.41813541 -21.14987676 24.2114652 -24 27 C-23.690625 27.61875 -23.38125 28.2375 -23.0625 28.875 C-22.375 30.25 -21.6875 31.625 -21 33 C-23.4375 32.3125 -23.4375 32.3125 -26 31 C-27.09375 28.87890625 -27.09375 28.87890625 -27 26 C-25.01968183 23.20428031 -22.56070889 20.9556727 -20.0625 18.625 C-19.37115967 17.95815186 -18.67981934 17.29130371 -17.9675293 16.60424805 C-13.91877289 12.72301982 -9.8035194 8.91819831 -5.51953125 5.296875 C-3.57189919 3.63462861 -1.77253163 1.84638711 0 0 Z " transform="translate(90,383)" style="fill: #C8231A;"/><path d="" transform="translate(0,0)" style="fill: #000000;"/></svg>