<?xml version="1.0" encoding="utf-8" ?>
<svg baseProfile="full" height="500" version="1.1" viewBox="0 0 500 500" width="500" xmlns="http://www.w3.org/2000/svg" xmlns:ev="http://www.w3.org/2001/xml-events" xmlns:xlink="http://www.w3.org/1999/xlink"><defs /><path d="M 165,169 L 164,170 L 156,170 L 155,171 L 150,171 L 149,172 L 145,172 L 144,173 L 141,173 L 140,174 L 137,174 L 136,175 L 134,175 L 133,176 L 130,176 L 129,177 L 127,177 L 126,178 L 124,178 L 123,179 L 122,179 L 121,180 L 119,180 L 118,181 L 116,181 L 115,182 L 114,182 L 113,183 L 112,183 L 111,184 L 110,184 L 109,185 L 108,185 L 107,186 L 106,186 L 105,187 L 104,187 L 103,188 L 102,188 L 101,189 L 100,189 L 98,191 L 97,191 L 96,192 L 95,192 L 93,194 L 92,194 L 90,196 L 89,196 L 87,198 L 86,198 L 84,200 L 83,200 L 79,204 L 78,204 L 73,209 L 72,209 L 70,211 L 69,211 L 69,212 L 58,223 L 58,224 L 53,229 L 53,230 L 50,233 L 50,234 L 47,237 L 47,238 L 45,240 L 45,241 L 44,242 L 44,243 L 42,245 L 42,246 L 39,249 L 39,251 L 38,252 L 38,253 L 37,254 L 37,255 L 36,256 L 36,257 L 34,259 L 34,261 L 33,262 L 33,263 L 32,264 L 32,265 L 31,266 L 31,267 L 30,268 L 30,270 L 29,271 L 29,273 L 28,274 L 28,275 L 27,276 L 27,278 L 26,279 L 26,281 L 25,282 L 25,285 L 24,286 L 24,288 L 23,289 L 23,293 L 22,294 L 22,297 L 21,298 L 21,303 L 20,304 L 20,310 L 19,311 L 19,324 L 18,325 L 18,334 L 19,335 L 19,348 L 20,349 L 20,355 L 21,356 L 21,361 L 22,362 L 22,365 L 23,366 L 23,369 L 24,370 L 24,373 L 25,374 L 25,377 L 26,378 L 26,380 L 27,381 L 27,383 L 28,384 L 27,385 L 29,387 L 29,388 L 30,389 L 30,391 L 31,392 L 31,393 L 32,394 L 32,395 L 33,396 L 32,397 L 33,397 L 34,398 L 34,400 L 35,401 L 35,402 L 37,404 L 37,405 L 38,406 L 38,407 L 39,408 L 39,409 L 40,410 L 40,411 L 42,413 L 42,414 L 43,415 L 43,416 L 45,418 L 45,419 L 48,422 L 48,423 L 50,425 L 50,426 L 54,430 L 54,431 L 59,436 L 59,437 L 72,450 L 73,450 L 77,454 L 77,455 L 79,455 L 82,458 L 83,458 L 86,461 L 87,461 L 89,463 L 90,463 L 92,465 L 93,465 L 95,467 L 96,467 L 97,468 L 98,468 L 100,470 L 101,470 L 102,471 L 103,471 L 104,472 L 105,472 L 106,473 L 107,473 L 108,474 L 109,474 L 110,475 L 111,475 L 112,476 L 114,476 L 115,477 L 116,477 L 117,478 L 118,478 L 119,479 L 121,479 L 122,480 L 123,480 L 124,481 L 126,481 L 128,483 L 129,482 L 130,483 L 132,483 L 133,484 L 135,484 L 136,485 L 140,485 L 141,486 L 144,486 L 145,487 L 149,487 L 150,488 L 155,488 L 156,489 L 164,489 L 165,490 L 193,490 L 194,489 L 202,489 L 203,488 L 208,488 L 209,487 L 212,487 L 213,488 L 213,487 L 214,486 L 218,486 L 219,485 L 221,485 L 222,484 L 225,484 L 226,483 L 228,483 L 229,482 L 231,482 L 232,481 L 234,481 L 235,480 L 236,480 L 237,479 L 239,479 L 240,478 L 243,478 L 245,476 L 246,476 L 247,475 L 248,475 L 249,474 L 250,474 L 251,473 L 252,473 L 253,472 L 254,472 L 255,471 L 256,471 L 257,470 L 258,470 L 259,469 L 260,469 L 262,467 L 263,467 L 265,465 L 266,466 L 266,465 L 267,464 L 268,464 L 271,461 L 272,461 L 274,459 L 275,459 L 278,456 L 279,456 L 283,452 L 284,452 L 294,442 L 295,442 L 295,441 L 301,435 L 301,434 L 306,429 L 306,428 L 309,425 L 309,424 L 311,422 L 311,421 L 313,419 L 313,418 L 315,416 L 315,415 L 317,413 L 317,412 L 318,411 L 318,410 L 319,409 L 319,408 L 321,406 L 321,405 L 322,404 L 322,403 L 323,402 L 323,401 L 324,400 L 324,399 L 325,398 L 325,397 L 326,396 L 326,394 L 328,392 L 328,389 L 329,388 L 329,387 L 330,386 L 330,384 L 331,383 L 331,381 L 332,380 L 332,378 L 333,377 L 333,375 L 334,374 L 334,371 L 335,370 L 335,367 L 336,366 L 336,363 L 337,362 L 337,357 L 338,356 L 338,350 L 339,349 L 339,343 L 340,342 L 339,341 L 339,340 L 340,339 L 340,333 L 341,332 L 340,331 L 340,320 L 339,319 L 339,315 L 340,314 L 339,313 L 339,310 L 338,309 L 338,303 L 337,302 L 337,297 L 336,296 L 336,295 L 337,294 L 335,292 L 335,289 L 334,288 L 334,285 L 333,284 L 333,282 L 332,281 L 332,279 L 331,278 L 331,276 L 330,275 L 330,273 L 329,272 L 329,271 L 328,270 L 328,268 L 327,267 L 327,266 L 326,265 L 326,263 L 325,262 L 325,261 L 324,260 L 324,259 L 323,258 L 323,257 L 322,256 L 322,254 L 320,252 L 320,251 L 318,249 L 318,248 L 317,247 L 317,246 L 315,244 L 315,243 L 313,241 L 313,240 L 311,238 L 311,237 L 309,235 L 309,234 L 306,231 L 306,230 L 301,225 L 301,224 L 284,207 L 283,207 L 279,203 L 278,203 L 275,200 L 274,200 L 271,197 L 270,197 L 268,195 L 267,195 L 265,193 L 264,193 L 263,192 L 262,192 L 260,190 L 259,190 L 258,189 L 257,189 L 256,188 L 255,188 L 254,187 L 253,187 L 252,186 L 251,186 L 250,185 L 249,185 L 248,184 L 247,184 L 246,183 L 245,183 L 244,182 L 243,182 L 242,181 L 240,181 L 239,180 L 238,180 L 237,179 L 235,179 L 234,178 L 232,178 L 231,177 L 229,177 L 228,176 L 226,176 L 225,175 L 222,175 L 221,174 L 219,174 L 218,173 L 215,173 L 214,172 L 209,172 L 208,171 L 203,171 L 202,170 L 195,170 L 194,169 Z" fill="#000000" stroke="none" /><path d="M 475,63 L 474,64 L 469,64 L 468,65 L 464,65 L 463,66 L 458,66 L 457,67 L 453,67 L 452,68 L 447,68 L 446,69 L 442,69 L 441,70 L 436,70 L 435,71 L 430,71 L 429,72 L 424,72 L 423,73 L 415,73 L 414,74 L 407,74 L 406,75 L 396,75 L 395,74 L 391,74 L 390,73 L 385,73 L 384,72 L 379,72 L 378,71 L 348,71 L 347,70 L 335,70 L 334,71 L 332,71 L 331,72 L 329,72 L 328,73 L 327,73 L 326,74 L 325,74 L 323,76 L 322,76 L 321,77 L 321,78 L 319,80 L 319,81 L 318,82 L 318,89 L 317,90 L 317,91 L 316,92 L 316,93 L 315,94 L 315,95 L 314,96 L 314,97 L 313,98 L 313,100 L 312,101 L 312,105 L 311,106 L 311,109 L 312,110 L 311,111 L 312,112 L 312,113 L 310,115 L 310,116 L 309,117 L 309,118 L 308,119 L 308,120 L 307,121 L 307,131 L 310,134 L 310,138 L 309,139 L 310,140 L 310,141 L 309,142 L 309,146 L 308,147 L 308,153 L 309,154 L 309,157 L 310,158 L 310,159 L 311,160 L 311,161 L 312,161 L 313,162 L 313,163 L 315,163 L 316,164 L 317,164 L 318,165 L 320,165 L 321,166 L 322,166 L 323,167 L 329,167 L 330,168 L 331,168 L 332,169 L 333,168 L 334,169 L 335,168 L 344,168 L 345,169 L 345,170 L 343,172 L 343,173 L 341,175 L 341,176 L 339,178 L 339,179 L 337,181 L 337,182 L 336,183 L 336,184 L 334,186 L 334,187 L 333,188 L 333,189 L 332,190 L 332,192 L 331,193 L 331,194 L 330,195 L 329,195 L 330,196 L 330,197 L 329,198 L 329,200 L 328,201 L 328,204 L 327,205 L 327,217 L 328,218 L 328,220 L 329,221 L 329,223 L 330,224 L 330,225 L 332,227 L 333,227 L 334,228 L 335,228 L 336,229 L 341,229 L 342,230 L 346,226 L 346,224 L 347,223 L 347,220 L 348,219 L 348,216 L 349,215 L 349,212 L 350,211 L 350,210 L 351,209 L 351,208 L 352,207 L 352,206 L 355,203 L 355,202 L 360,197 L 360,196 L 383,173 L 384,173 L 385,172 L 385,171 L 386,170 L 387,170 L 401,156 L 401,155 L 407,149 L 408,149 L 409,148 L 410,148 L 411,147 L 412,147 L 413,146 L 414,146 L 415,145 L 416,145 L 417,144 L 419,144 L 421,142 L 423,142 L 424,141 L 425,141 L 426,140 L 428,140 L 429,139 L 434,139 L 435,138 L 444,138 L 445,137 L 453,137 L 454,136 L 463,136 L 464,135 L 473,135 L 474,134 L 481,134 L 481,132 L 480,131 L 480,130 L 468,130 L 467,131 L 458,131 L 457,132 L 449,132 L 448,133 L 439,133 L 438,134 L 430,134 L 429,135 L 426,135 L 425,136 L 423,136 L 422,137 L 421,137 L 420,138 L 418,138 L 417,139 L 416,139 L 415,140 L 414,140 L 413,141 L 412,141 L 411,142 L 410,142 L 409,143 L 408,143 L 407,144 L 406,144 L 404,146 L 403,146 L 398,151 L 398,152 L 382,168 L 381,168 L 356,193 L 356,194 L 352,198 L 346,198 L 350,198 L 351,199 L 351,200 L 349,202 L 344,202 L 347,202 L 348,203 L 348,205 L 346,207 L 346,209 L 345,210 L 345,211 L 343,213 L 340,213 L 339,212 L 338,212 L 336,214 L 336,216 L 335,217 L 335,220 L 334,221 L 333,220 L 333,218 L 332,217 L 332,212 L 331,211 L 332,210 L 332,204 L 333,203 L 333,200 L 334,199 L 334,198 L 335,197 L 335,195 L 336,194 L 336,193 L 337,192 L 337,191 L 338,190 L 338,189 L 339,188 L 339,187 L 340,186 L 340,185 L 342,183 L 342,182 L 344,180 L 344,179 L 346,177 L 346,176 L 348,174 L 348,173 L 350,171 L 350,170 L 351,169 L 351,167 L 348,164 L 345,164 L 344,163 L 328,163 L 327,162 L 324,162 L 323,161 L 321,161 L 320,160 L 319,160 L 318,159 L 317,159 L 314,156 L 314,155 L 313,154 L 313,145 L 314,144 L 314,139 L 315,138 L 315,134 L 314,133 L 314,132 L 313,131 L 313,130 L 311,128 L 311,124 L 312,123 L 312,122 L 313,121 L 313,120 L 314,119 L 314,118 L 315,117 L 315,116 L 316,115 L 316,104 L 317,103 L 317,101 L 318,100 L 318,98 L 319,97 L 319,96 L 320,95 L 320,94 L 321,93 L 321,92 L 322,91 L 322,85 L 323,84 L 323,83 L 324,82 L 324,81 L 326,79 L 327,79 L 329,77 L 331,77 L 332,76 L 334,76 L 335,75 L 338,75 L 339,74 L 344,74 L 345,75 L 373,75 L 374,76 L 380,76 L 381,77 L 386,77 L 387,78 L 392,78 L 393,79 L 397,79 L 398,80 L 403,80 L 404,79 L 411,79 L 412,78 L 420,78 L 421,77 L 427,77 L 428,76 L 433,76 L 434,75 L 439,75 L 440,74 L 444,74 L 445,73 L 450,73 L 451,72 L 456,72 L 457,71 L 461,71 L 462,70 L 467,70 L 468,69 L 472,69 L 473,68 L 478,68 L 477,68 L 476,67 L 477,66 L 477,65 L 478,64 L 477,63 Z" fill="#000000" stroke="none" /><path d="M 173,404 L 172,405 L 169,405 L 168,406 L 166,406 L 165,407 L 164,407 L 163,408 L 161,408 L 160,409 L 159,409 L 158,410 L 157,410 L 156,411 L 155,411 L 153,413 L 152,413 L 150,415 L 149,415 L 146,418 L 145,418 L 141,422 L 140,422 L 138,424 L 138,428 L 139,429 L 139,430 L 141,432 L 150,432 L 151,431 L 152,431 L 153,430 L 154,430 L 155,429 L 156,429 L 158,427 L 159,427 L 170,416 L 170,415 L 174,411 L 174,410 L 176,408 L 176,407 L 178,405 L 178,404 Z" fill="#f0c0c0" stroke="none" /><path d="M 478,69 L 477,70 L 472,70 L 471,71 L 467,71 L 466,72 L 461,72 L 460,73 L 456,73 L 455,74 L 450,74 L 449,75 L 445,75 L 444,76 L 439,76 L 438,77 L 433,77 L 432,78 L 427,78 L 426,79 L 420,79 L 419,80 L 411,80 L 410,81 L 403,81 L 402,82 L 399,82 L 398,81 L 393,81 L 392,80 L 388,80 L 387,79 L 382,79 L 381,78 L 375,78 L 374,77 L 346,77 L 345,76 L 338,76 L 337,77 L 334,77 L 333,78 L 331,78 L 330,79 L 329,79 L 327,81 L 326,81 L 326,82 L 325,83 L 325,84 L 324,85 L 324,91 L 323,92 L 323,93 L 322,94 L 322,95 L 321,96 L 321,97 L 320,98 L 320,100 L 319,101 L 319,103 L 318,104 L 318,115 L 317,116 L 317,117 L 316,118 L 316,119 L 315,120 L 315,121 L 314,122 L 314,123 L 313,124 L 313,128 L 315,130 L 315,131 L 316,132 L 316,134 L 317,135 L 317,136 L 316,137 L 316,143 L 315,144 L 315,154 L 316,155 L 316,156 L 318,158 L 320,158 L 321,159 L 322,159 L 323,160 L 326,160 L 327,161 L 342,161 L 343,162 L 348,162 L 349,163 L 350,163 L 352,165 L 352,167 L 353,168 L 353,169 L 352,170 L 352,171 L 351,172 L 351,173 L 348,176 L 348,177 L 346,179 L 346,180 L 344,182 L 344,183 L 342,185 L 342,186 L 341,187 L 341,188 L 340,189 L 340,190 L 339,191 L 339,192 L 338,193 L 338,194 L 337,195 L 337,196 L 336,197 L 336,199 L 335,200 L 335,202 L 334,203 L 334,208 L 333,209 L 333,214 L 334,215 L 334,216 L 334,214 L 337,211 L 343,211 L 343,210 L 344,209 L 344,208 L 345,207 L 345,206 L 346,205 L 346,204 L 343,204 L 342,203 L 342,201 L 343,200 L 347,200 L 348,201 L 349,200 L 345,200 L 344,199 L 344,197 L 345,196 L 352,196 L 353,195 L 353,194 L 403,144 L 404,144 L 406,142 L 407,142 L 408,141 L 409,141 L 410,140 L 411,140 L 412,139 L 413,139 L 414,138 L 415,138 L 416,137 L 418,137 L 419,136 L 420,136 L 421,135 L 423,135 L 424,134 L 426,134 L 427,133 L 430,133 L 431,132 L 440,132 L 441,131 L 449,131 L 450,130 L 458,130 L 459,129 L 468,129 L 469,128 L 481,128 L 482,129 L 482,131 L 483,130 L 483,128 L 484,127 L 484,111 L 483,110 L 483,101 L 482,100 L 482,94 L 481,93 L 481,87 L 480,86 L 480,80 L 479,79 L 479,75 L 478,74 Z" fill="#f0d8d8" stroke="none" /><path d="M 339,216 L 338,217 L 338,223 L 340,223 L 340,222 L 341,221 L 341,218 L 342,217 L 342,216 Z" fill="#f0f0f0" stroke="none" /><path d="M 164,193 L 163,194 L 157,194 L 156,195 L 151,195 L 150,196 L 147,196 L 146,197 L 143,197 L 142,198 L 140,198 L 139,199 L 137,199 L 136,200 L 134,200 L 133,201 L 131,201 L 130,202 L 128,202 L 127,203 L 126,203 L 125,204 L 124,204 L 123,205 L 121,205 L 120,206 L 119,206 L 118,207 L 117,207 L 116,208 L 115,208 L 113,210 L 112,210 L 111,211 L 110,211 L 109,212 L 108,212 L 106,214 L 105,214 L 103,216 L 102,216 L 100,218 L 99,218 L 96,221 L 95,221 L 91,225 L 90,225 L 75,240 L 75,241 L 71,245 L 71,246 L 68,249 L 68,250 L 65,253 L 65,254 L 64,255 L 64,256 L 62,258 L 62,259 L 61,260 L 61,261 L 59,263 L 59,264 L 58,265 L 58,266 L 57,267 L 57,268 L 56,269 L 56,270 L 55,271 L 55,272 L 54,273 L 54,274 L 53,275 L 53,277 L 52,278 L 52,279 L 51,280 L 51,282 L 50,283 L 50,285 L 49,286 L 49,288 L 48,289 L 48,291 L 47,292 L 47,295 L 46,296 L 46,299 L 45,300 L 45,304 L 44,305 L 44,310 L 43,311 L 43,320 L 42,321 L 42,338 L 43,339 L 43,348 L 44,349 L 44,354 L 45,355 L 45,359 L 46,360 L 46,363 L 47,364 L 47,367 L 48,368 L 48,370 L 49,371 L 49,373 L 50,374 L 50,376 L 51,377 L 51,379 L 52,380 L 52,381 L 53,382 L 53,384 L 54,385 L 54,386 L 55,387 L 55,388 L 56,389 L 56,390 L 57,391 L 57,392 L 58,393 L 58,394 L 59,395 L 59,396 L 61,398 L 61,399 L 62,400 L 62,401 L 64,403 L 64,404 L 65,405 L 65,406 L 68,409 L 68,410 L 71,413 L 71,414 L 75,418 L 75,419 L 90,434 L 91,434 L 95,438 L 96,438 L 99,441 L 100,441 L 102,443 L 103,443 L 105,445 L 106,445 L 108,447 L 109,447 L 110,448 L 111,448 L 112,449 L 113,449 L 115,451 L 116,451 L 117,452 L 118,452 L 119,453 L 120,453 L 121,454 L 123,454 L 124,455 L 125,455 L 126,456 L 127,456 L 128,457 L 130,457 L 131,458 L 133,458 L 134,459 L 136,459 L 137,460 L 139,460 L 140,461 L 142,461 L 143,462 L 146,462 L 147,463 L 150,463 L 151,464 L 156,464 L 157,465 L 163,465 L 164,466 L 194,466 L 195,465 L 201,465 L 202,464 L 207,464 L 208,463 L 211,463 L 212,462 L 215,462 L 216,461 L 219,461 L 220,460 L 222,460 L 223,459 L 225,459 L 226,458 L 227,458 L 228,457 L 230,457 L 231,456 L 232,456 L 233,455 L 234,455 L 235,454 L 237,454 L 238,453 L 239,453 L 240,452 L 241,452 L 242,451 L 243,451 L 244,450 L 245,450 L 247,448 L 248,448 L 249,447 L 250,447 L 252,445 L 253,445 L 254,444 L 255,444 L 258,441 L 259,441 L 261,439 L 262,439 L 266,435 L 267,435 L 285,417 L 285,416 L 288,413 L 288,412 L 291,409 L 291,408 L 293,406 L 293,405 L 295,403 L 295,402 L 297,400 L 297,399 L 298,398 L 298,397 L 299,396 L 299,395 L 300,394 L 300,393 L 301,392 L 301,391 L 302,390 L 302,389 L 303,388 L 303,387 L 304,386 L 304,385 L 305,384 L 305,383 L 306,382 L 306,380 L 307,379 L 307,378 L 308,377 L 308,375 L 309,374 L 309,372 L 310,371 L 310,369 L 311,368 L 311,365 L 312,364 L 312,361 L 313,360 L 313,356 L 314,355 L 314,350 L 315,349 L 315,341 L 316,340 L 316,318 L 315,317 L 315,310 L 314,309 L 314,304 L 313,303 L 313,299 L 312,298 L 312,295 L 311,294 L 311,291 L 310,290 L 310,288 L 309,287 L 309,285 L 308,284 L 308,282 L 307,281 L 307,280 L 306,279 L 306,277 L 305,276 L 305,275 L 304,274 L 304,273 L 303,272 L 303,271 L 302,270 L 302,269 L 301,268 L 301,267 L 300,266 L 300,265 L 299,264 L 299,263 L 298,262 L 298,261 L 297,260 L 297,259 L 295,257 L 295,256 L 293,254 L 293,253 L 291,251 L 291,250 L 288,247 L 288,246 L 285,243 L 285,242 L 267,224 L 266,224 L 262,220 L 261,220 L 259,218 L 258,218 L 255,215 L 254,215 L 253,214 L 252,214 L 250,212 L 249,212 L 248,211 L 247,211 L 245,209 L 244,209 L 243,208 L 242,208 L 241,207 L 240,207 L 239,206 L 238,206 L 237,205 L 236,205 L 235,204 L 233,204 L 232,203 L 231,203 L 230,202 L 228,202 L 227,201 L 226,201 L 225,200 L 223,200 L 222,199 L 220,199 L 219,198 L 216,198 L 215,197 L 212,197 L 211,196 L 208,196 L 207,195 L 202,195 L 201,194 L 195,194 L 194,193 Z" fill="#f0f0f0" stroke="none" /></svg>