<?xml version="1.0" encoding="utf-8" ?>
<svg baseProfile="full" height="500" version="1.1" viewBox="0 0 500 500" width="500" xmlns="http://www.w3.org/2000/svg" xmlns:ev="http://www.w3.org/2001/xml-events" xmlns:xlink="http://www.w3.org/1999/xlink"><defs /><path d="M 97,129 L 96,130 L 89,130 L 88,131 L 83,131 L 82,132 L 79,132 L 78,133 L 75,133 L 74,134 L 71,134 L 70,135 L 68,135 L 67,136 L 65,136 L 64,137 L 62,137 L 61,138 L 60,138 L 59,139 L 58,139 L 57,140 L 56,140 L 55,141 L 54,141 L 53,142 L 52,142 L 51,143 L 50,143 L 49,144 L 48,144 L 46,146 L 45,146 L 43,148 L 42,148 L 37,153 L 36,153 L 33,156 L 33,157 L 28,162 L 28,163 L 26,165 L 26,166 L 25,167 L 24,167 L 25,168 L 24,169 L 23,169 L 23,171 L 22,172 L 22,174 L 21,175 L 21,176 L 20,177 L 20,178 L 19,179 L 19,183 L 17,185 L 18,186 L 18,196 L 17,197 L 17,200 L 18,201 L 18,208 L 19,209 L 19,213 L 20,214 L 20,216 L 21,217 L 21,219 L 23,221 L 23,222 L 24,223 L 24,224 L 25,225 L 25,226 L 27,228 L 27,229 L 28,230 L 28,231 L 31,234 L 31,235 L 33,237 L 33,238 L 34,238 L 35,239 L 35,240 L 39,244 L 39,245 L 40,245 L 54,259 L 55,259 L 58,262 L 58,263 L 59,263 L 61,265 L 62,265 L 63,266 L 62,267 L 63,266 L 65,268 L 66,268 L 68,270 L 68,271 L 70,271 L 72,273 L 73,273 L 74,274 L 74,275 L 76,275 L 78,277 L 79,277 L 81,279 L 82,279 L 83,280 L 84,280 L 86,282 L 87,282 L 88,283 L 89,283 L 91,285 L 92,285 L 93,286 L 94,286 L 95,287 L 96,287 L 98,289 L 100,289 L 101,290 L 101,291 L 103,291 L 104,292 L 105,292 L 106,293 L 107,293 L 108,294 L 109,294 L 110,295 L 111,295 L 112,296 L 113,296 L 114,297 L 115,297 L 116,298 L 117,298 L 118,299 L 119,299 L 120,300 L 121,300 L 122,301 L 123,301 L 124,302 L 126,302 L 127,303 L 128,303 L 129,304 L 129,305 L 130,304 L 131,305 L 132,305 L 133,306 L 134,306 L 135,307 L 137,307 L 138,308 L 139,308 L 140,309 L 141,309 L 142,310 L 144,310 L 145,311 L 146,311 L 147,312 L 148,312 L 149,313 L 151,313 L 152,314 L 153,314 L 154,315 L 155,315 L 156,316 L 158,316 L 159,317 L 160,317 L 161,318 L 163,318 L 164,319 L 165,319 L 166,320 L 168,320 L 169,321 L 170,321 L 171,322 L 173,322 L 174,323 L 176,323 L 177,324 L 179,324 L 180,325 L 181,325 L 182,326 L 184,326 L 185,327 L 187,327 L 188,328 L 189,328 L 190,329 L 192,329 L 194,331 L 195,330 L 196,331 L 198,331 L 199,332 L 200,332 L 201,333 L 204,333 L 205,334 L 204,335 L 205,334 L 207,334 L 208,335 L 210,335 L 211,336 L 213,336 L 214,337 L 216,337 L 217,338 L 219,338 L 220,339 L 223,339 L 224,340 L 226,340 L 227,341 L 229,341 L 230,342 L 233,342 L 234,343 L 236,343 L 237,344 L 237,345 L 238,344 L 239,344 L 240,345 L 243,345 L 244,346 L 244,347 L 245,346 L 247,346 L 248,347 L 250,347 L 252,349 L 253,348 L 254,348 L 255,349 L 258,349 L 259,350 L 259,351 L 260,350 L 261,350 L 262,351 L 264,351 L 265,352 L 266,352 L 267,353 L 268,352 L 269,352 L 270,353 L 271,353 L 272,354 L 273,353 L 274,353 L 275,354 L 277,354 L 278,355 L 279,355 L 280,356 L 281,355 L 282,355 L 283,356 L 287,356 L 289,358 L 290,357 L 292,357 L 293,358 L 296,358 L 297,359 L 302,359 L 303,360 L 307,360 L 308,361 L 312,361 L 313,362 L 318,362 L 319,363 L 324,363 L 325,364 L 326,364 L 327,365 L 328,364 L 331,364 L 332,365 L 338,365 L 339,366 L 346,366 L 347,367 L 356,367 L 357,368 L 359,368 L 360,369 L 361,368 L 368,368 L 369,369 L 371,369 L 372,370 L 373,369 L 374,369 L 375,370 L 376,369 L 391,369 L 392,370 L 402,370 L 403,369 L 410,369 L 411,370 L 412,369 L 424,369 L 425,368 L 438,368 L 439,367 L 446,367 L 447,366 L 451,366 L 452,365 L 455,365 L 456,364 L 459,364 L 460,363 L 461,363 L 462,362 L 464,362 L 465,361 L 466,361 L 469,358 L 470,358 L 470,357 L 473,354 L 473,353 L 474,352 L 474,351 L 475,350 L 475,349 L 476,348 L 476,347 L 477,346 L 477,344 L 479,342 L 478,341 L 478,340 L 479,339 L 479,337 L 480,336 L 480,332 L 481,331 L 481,329 L 482,328 L 481,327 L 482,326 L 481,325 L 481,323 L 482,322 L 482,318 L 481,317 L 481,309 L 480,308 L 480,305 L 479,304 L 479,301 L 478,300 L 478,298 L 477,297 L 477,296 L 476,295 L 476,294 L 475,293 L 475,292 L 474,291 L 474,290 L 472,288 L 472,287 L 470,285 L 470,284 L 467,281 L 467,280 L 454,267 L 453,267 L 449,263 L 448,263 L 446,261 L 445,261 L 443,259 L 442,259 L 440,257 L 439,257 L 436,254 L 434,254 L 432,252 L 431,252 L 430,251 L 429,251 L 428,250 L 427,250 L 425,248 L 424,248 L 423,247 L 422,247 L 421,246 L 420,246 L 419,245 L 418,245 L 417,244 L 416,244 L 414,242 L 413,242 L 412,241 L 411,241 L 410,240 L 409,240 L 408,239 L 407,239 L 405,237 L 404,237 L 403,236 L 402,236 L 401,235 L 400,235 L 399,234 L 398,234 L 397,233 L 396,233 L 395,232 L 394,232 L 392,230 L 391,230 L 390,229 L 389,229 L 388,228 L 387,228 L 386,227 L 385,227 L 384,226 L 383,226 L 382,225 L 381,225 L 380,224 L 379,224 L 377,222 L 375,222 L 374,221 L 373,221 L 372,220 L 371,220 L 369,218 L 367,218 L 366,217 L 365,217 L 364,216 L 363,216 L 361,214 L 359,214 L 357,212 L 355,212 L 353,210 L 351,210 L 349,208 L 347,208 L 346,207 L 345,207 L 344,206 L 343,206 L 342,205 L 341,205 L 340,204 L 339,204 L 338,203 L 337,203 L 336,202 L 335,202 L 334,201 L 333,201 L 332,200 L 331,200 L 330,199 L 328,199 L 327,198 L 326,198 L 325,197 L 324,197 L 323,196 L 322,196 L 321,195 L 320,195 L 319,194 L 318,194 L 317,193 L 315,193 L 314,192 L 313,192 L 312,191 L 311,191 L 310,190 L 309,190 L 308,189 L 307,189 L 306,188 L 304,188 L 303,187 L 302,187 L 301,186 L 300,186 L 299,185 L 297,185 L 296,184 L 295,184 L 294,183 L 293,183 L 292,182 L 290,182 L 289,181 L 288,181 L 287,180 L 286,180 L 285,179 L 284,179 L 283,178 L 281,178 L 280,177 L 279,177 L 278,176 L 276,176 L 275,175 L 274,175 L 273,174 L 271,174 L 270,173 L 269,173 L 268,172 L 266,172 L 265,171 L 264,171 L 263,170 L 261,170 L 260,169 L 259,169 L 258,168 L 256,168 L 255,167 L 253,167 L 252,166 L 251,166 L 250,165 L 248,165 L 247,164 L 245,164 L 244,163 L 243,163 L 242,162 L 240,162 L 239,161 L 237,161 L 236,160 L 234,160 L 233,159 L 231,159 L 230,158 L 228,158 L 227,157 L 225,157 L 224,156 L 222,156 L 221,155 L 219,155 L 218,154 L 216,154 L 215,153 L 213,153 L 212,152 L 210,152 L 209,151 L 207,151 L 206,150 L 204,150 L 203,149 L 200,149 L 199,148 L 197,148 L 196,147 L 194,147 L 193,146 L 190,146 L 189,145 L 186,145 L 185,144 L 183,144 L 182,143 L 179,143 L 178,142 L 175,142 L 174,141 L 171,141 L 170,140 L 166,140 L 165,139 L 162,139 L 161,138 L 158,138 L 157,137 L 153,137 L 152,136 L 148,136 L 147,135 L 143,135 L 142,134 L 136,134 L 135,133 L 130,133 L 129,132 L 122,132 L 121,131 L 113,131 L 112,130 L 100,130 L 99,129 Z" fill="#000000" stroke="none" /><path d="M 424,264 L 424,265 L 425,266 L 423,268 L 422,267 L 422,266 L 420,266 L 417,269 L 417,273 L 416,274 L 414,272 L 414,271 L 410,275 L 411,275 L 411,274 L 412,273 L 413,273 L 414,272 L 416,274 L 415,275 L 416,276 L 415,277 L 416,278 L 416,279 L 415,280 L 414,279 L 415,280 L 415,281 L 414,282 L 413,281 L 414,282 L 413,283 L 414,284 L 413,285 L 414,286 L 414,287 L 413,288 L 412,287 L 413,288 L 412,289 L 413,290 L 413,291 L 412,292 L 411,291 L 412,292 L 411,293 L 412,294 L 411,295 L 412,296 L 411,297 L 412,298 L 411,299 L 412,300 L 411,301 L 412,302 L 412,303 L 411,304 L 410,303 L 411,304 L 410,305 L 411,306 L 411,307 L 410,308 L 409,307 L 410,308 L 409,309 L 410,310 L 410,311 L 409,312 L 408,311 L 409,312 L 408,313 L 409,314 L 408,315 L 409,316 L 409,317 L 408,318 L 407,317 L 408,318 L 408,319 L 407,320 L 406,319 L 407,320 L 406,321 L 407,322 L 407,323 L 406,324 L 405,323 L 406,324 L 405,325 L 406,326 L 405,327 L 406,328 L 406,329 L 405,330 L 404,329 L 405,330 L 405,331 L 404,332 L 402,330 L 404,332 L 403,333 L 404,334 L 404,335 L 405,336 L 403,338 L 402,337 L 402,335 L 400,333 L 401,332 L 400,331 L 400,329 L 401,328 L 400,327 L 401,326 L 400,325 L 400,323 L 401,322 L 400,321 L 401,320 L 400,319 L 400,317 L 401,316 L 400,315 L 401,314 L 400,313 L 400,311 L 401,310 L 400,309 L 401,308 L 400,307 L 400,305 L 401,304 L 400,303 L 401,302 L 400,301 L 401,300 L 400,299 L 400,298 L 399,297 L 400,296 L 401,296 L 398,296 L 398,298 L 397,299 L 396,299 L 396,300 L 395,301 L 397,299 L 398,300 L 398,301 L 397,302 L 397,304 L 396,305 L 397,306 L 396,307 L 397,308 L 397,310 L 396,311 L 397,312 L 396,313 L 397,314 L 397,316 L 396,317 L 397,318 L 396,319 L 397,320 L 397,322 L 396,323 L 397,324 L 396,325 L 397,326 L 397,328 L 396,329 L 397,330 L 396,331 L 397,332 L 397,336 L 396,337 L 397,338 L 397,339 L 396,340 L 395,339 L 396,340 L 395,341 L 396,342 L 395,343 L 396,344 L 396,345 L 395,346 L 394,345 L 395,346 L 394,347 L 395,348 L 394,349 L 395,350 L 394,351 L 395,352 L 395,353 L 394,354 L 393,353 L 394,354 L 393,355 L 394,356 L 394,357 L 393,358 L 392,357 L 393,358 L 392,359 L 393,360 L 393,361 L 393,360 L 395,358 L 396,359 L 396,360 L 395,361 L 396,360 L 397,361 L 398,360 L 398,358 L 399,357 L 401,359 L 400,360 L 400,361 L 400,360 L 401,359 L 403,361 L 404,360 L 404,358 L 403,357 L 404,356 L 404,355 L 405,354 L 406,355 L 406,357 L 407,358 L 406,359 L 406,361 L 406,359 L 407,358 L 409,360 L 408,361 L 409,360 L 410,361 L 411,360 L 412,361 L 413,360 L 414,361 L 415,360 L 416,361 L 417,360 L 418,361 L 417,360 L 417,359 L 418,358 L 420,360 L 420,361 L 420,360 L 419,359 L 420,358 L 420,356 L 421,355 L 423,357 L 422,358 L 422,360 L 422,358 L 423,357 L 425,359 L 424,360 L 425,359 L 426,360 L 425,359 L 427,357 L 428,358 L 428,360 L 428,358 L 429,357 L 431,359 L 430,360 L 431,359 L 432,360 L 431,359 L 432,358 L 432,354 L 431,353 L 431,352 L 432,351 L 434,353 L 434,355 L 435,356 L 434,357 L 434,360 L 434,357 L 435,356 L 436,357 L 436,358 L 437,359 L 439,357 L 440,358 L 440,359 L 440,358 L 442,356 L 443,357 L 443,358 L 442,359 L 443,358 L 443,357 L 444,356 L 443,357 L 442,356 L 442,355 L 443,354 L 442,353 L 443,352 L 442,353 L 441,352 L 441,351 L 442,350 L 441,349 L 442,348 L 441,347 L 442,346 L 441,345 L 442,344 L 441,343 L 442,342 L 441,343 L 440,342 L 440,341 L 441,340 L 440,339 L 441,338 L 440,337 L 441,336 L 440,337 L 439,336 L 439,335 L 440,334 L 439,333 L 440,332 L 439,331 L 440,330 L 439,331 L 438,330 L 438,329 L 439,328 L 438,327 L 439,326 L 438,325 L 439,324 L 438,323 L 439,322 L 438,323 L 437,322 L 437,321 L 438,320 L 437,319 L 438,318 L 437,317 L 438,316 L 437,317 L 436,316 L 436,315 L 437,314 L 436,315 L 435,314 L 435,313 L 436,312 L 435,311 L 436,310 L 435,311 L 434,310 L 434,309 L 435,308 L 434,307 L 435,306 L 434,305 L 435,304 L 434,305 L 433,304 L 433,303 L 434,302 L 433,301 L 434,300 L 433,301 L 432,300 L 432,299 L 433,298 L 432,299 L 431,298 L 431,297 L 432,296 L 431,295 L 432,294 L 431,293 L 432,292 L 431,293 L 430,292 L 430,291 L 431,290 L 430,291 L 429,290 L 429,289 L 430,288 L 429,287 L 430,286 L 429,285 L 430,284 L 429,283 L 430,282 L 429,281 L 430,280 L 429,281 L 428,280 L 428,279 L 429,278 L 428,277 L 429,276 L 428,275 L 429,274 L 428,275 L 427,274 L 427,273 L 428,272 L 427,273 L 426,272 L 426,271 L 427,270 L 426,269 L 427,268 L 426,267 L 427,266 L 426,265 L 427,264 L 426,265 L 425,264 Z" fill="#f09048" stroke="none" /><path d="M 314,224 L 313,225 L 314,225 L 315,226 L 313,228 L 313,230 L 315,232 L 314,233 L 315,234 L 314,235 L 315,236 L 313,238 L 312,237 L 312,232 L 311,231 L 311,230 L 309,230 L 310,230 L 311,231 L 309,233 L 308,232 L 305,235 L 306,235 L 306,234 L 307,233 L 309,235 L 308,236 L 308,237 L 307,238 L 306,237 L 307,238 L 306,239 L 306,242 L 305,243 L 306,244 L 305,245 L 306,246 L 305,247 L 306,248 L 305,249 L 306,250 L 305,251 L 306,252 L 305,253 L 306,254 L 305,255 L 306,256 L 305,257 L 306,258 L 306,259 L 305,260 L 304,259 L 305,260 L 304,261 L 305,262 L 304,263 L 305,264 L 305,265 L 304,266 L 303,265 L 304,266 L 304,267 L 303,268 L 302,267 L 303,268 L 302,269 L 303,270 L 302,271 L 303,272 L 303,273 L 302,274 L 301,273 L 302,274 L 301,275 L 302,276 L 301,277 L 302,278 L 301,279 L 302,280 L 301,281 L 302,282 L 301,283 L 302,284 L 301,285 L 302,286 L 301,287 L 302,288 L 302,289 L 301,290 L 300,289 L 301,290 L 301,291 L 300,292 L 299,291 L 300,292 L 299,293 L 300,294 L 300,295 L 299,296 L 298,295 L 299,296 L 298,297 L 299,298 L 298,299 L 299,300 L 298,301 L 299,302 L 298,303 L 299,304 L 299,305 L 298,306 L 297,305 L 298,306 L 297,307 L 298,308 L 298,309 L 297,310 L 296,309 L 297,310 L 296,311 L 297,312 L 297,313 L 296,314 L 295,313 L 296,314 L 295,315 L 296,316 L 296,317 L 295,318 L 294,317 L 295,318 L 294,319 L 295,320 L 294,321 L 295,322 L 294,323 L 295,324 L 294,325 L 295,326 L 294,327 L 295,328 L 295,329 L 294,330 L 293,329 L 294,330 L 294,331 L 293,332 L 292,331 L 293,332 L 293,333 L 292,334 L 291,333 L 292,334 L 292,336 L 291,337 L 292,338 L 291,339 L 292,340 L 291,341 L 292,342 L 291,343 L 292,344 L 291,345 L 292,346 L 292,347 L 291,348 L 290,347 L 291,348 L 290,349 L 292,347 L 293,348 L 293,349 L 293,348 L 295,346 L 296,347 L 296,348 L 295,349 L 295,350 L 296,350 L 295,349 L 296,348 L 296,347 L 298,345 L 299,346 L 299,347 L 298,348 L 298,350 L 298,348 L 299,347 L 301,349 L 300,350 L 301,349 L 302,350 L 302,351 L 302,350 L 301,349 L 302,348 L 302,347 L 303,346 L 305,348 L 304,349 L 304,351 L 305,352 L 307,350 L 308,351 L 308,352 L 308,351 L 307,350 L 309,348 L 310,349 L 310,351 L 311,352 L 310,353 L 311,352 L 312,353 L 315,350 L 316,351 L 316,352 L 315,353 L 315,354 L 315,353 L 316,352 L 317,353 L 317,354 L 317,353 L 319,351 L 320,352 L 320,353 L 319,354 L 320,353 L 321,354 L 322,353 L 323,354 L 323,355 L 323,354 L 324,353 L 326,355 L 325,354 L 326,353 L 326,352 L 327,351 L 327,350 L 326,349 L 328,347 L 329,348 L 329,352 L 328,353 L 328,355 L 329,356 L 331,354 L 332,355 L 332,356 L 332,355 L 333,354 L 332,353 L 333,352 L 332,351 L 333,350 L 332,349 L 333,348 L 332,347 L 333,346 L 332,347 L 331,346 L 331,345 L 332,344 L 331,345 L 330,344 L 330,343 L 331,342 L 330,341 L 331,340 L 330,339 L 331,338 L 330,337 L 331,336 L 330,337 L 329,336 L 329,335 L 330,334 L 329,333 L 330,332 L 329,331 L 330,330 L 329,331 L 328,330 L 328,329 L 329,328 L 328,327 L 329,326 L 328,325 L 329,324 L 328,325 L 327,324 L 327,323 L 328,322 L 327,321 L 328,320 L 327,319 L 328,318 L 327,317 L 328,316 L 327,315 L 328,314 L 327,313 L 328,312 L 327,311 L 328,310 L 327,309 L 328,308 L 327,307 L 328,306 L 327,305 L 328,304 L 327,305 L 326,304 L 326,303 L 327,302 L 326,301 L 327,300 L 326,299 L 327,298 L 326,297 L 327,296 L 326,297 L 325,296 L 325,295 L 326,294 L 325,293 L 326,292 L 325,291 L 326,290 L 325,289 L 326,288 L 325,289 L 324,288 L 324,287 L 325,286 L 324,285 L 325,284 L 324,285 L 323,284 L 323,283 L 324,282 L 323,281 L 324,280 L 323,279 L 324,278 L 323,279 L 322,278 L 322,277 L 323,276 L 322,275 L 323,274 L 322,273 L 323,272 L 322,273 L 321,272 L 321,271 L 322,270 L 321,269 L 322,268 L 321,267 L 322,266 L 321,265 L 322,264 L 321,263 L 322,262 L 321,263 L 320,262 L 320,261 L 321,260 L 320,259 L 321,258 L 320,257 L 321,256 L 320,257 L 319,256 L 319,255 L 320,254 L 319,255 L 318,254 L 318,253 L 319,252 L 318,251 L 319,250 L 318,249 L 319,248 L 318,247 L 319,246 L 318,245 L 319,244 L 318,243 L 319,242 L 318,241 L 319,240 L 318,241 L 317,240 L 317,239 L 318,238 L 317,239 L 316,238 L 316,237 L 317,236 L 316,235 L 317,234 L 316,233 L 317,232 L 316,231 L 317,230 L 316,229 L 317,228 L 316,227 L 317,226 L 316,225 L 317,224 L 316,225 L 315,224 Z" fill="#f09048" stroke="none" /><path d="M 259,178 L 259,179 L 261,181 L 262,180 L 265,183 L 266,182 L 267,183 L 268,182 L 269,183 L 270,182 L 269,183 L 268,182 L 268,181 L 266,181 L 265,180 L 264,180 L 263,179 L 261,179 L 260,178 Z" fill="#f09048" stroke="none" /><path d="M 224,168 L 222,170 L 222,171 L 221,172 L 221,173 L 220,174 L 219,174 L 219,175 L 220,175 L 221,176 L 219,178 L 218,177 L 217,177 L 217,179 L 216,180 L 217,181 L 217,182 L 216,183 L 214,181 L 216,183 L 214,185 L 215,186 L 215,187 L 214,188 L 213,187 L 212,188 L 209,188 L 208,189 L 208,190 L 206,192 L 206,193 L 206,192 L 208,190 L 209,191 L 209,192 L 208,193 L 208,195 L 207,196 L 206,195 L 207,196 L 207,197 L 206,198 L 205,197 L 204,198 L 203,197 L 204,198 L 204,200 L 203,201 L 204,202 L 203,203 L 204,204 L 203,205 L 204,206 L 203,207 L 204,208 L 203,209 L 204,210 L 204,211 L 203,212 L 202,211 L 203,212 L 203,213 L 202,214 L 201,213 L 202,214 L 201,215 L 202,216 L 201,217 L 202,218 L 202,219 L 201,220 L 200,219 L 201,220 L 201,221 L 200,222 L 199,221 L 200,222 L 199,223 L 200,224 L 199,225 L 200,226 L 199,227 L 200,228 L 199,229 L 200,230 L 200,231 L 199,232 L 198,231 L 199,232 L 198,233 L 199,234 L 198,235 L 199,236 L 198,237 L 199,238 L 198,239 L 199,240 L 199,241 L 198,242 L 197,241 L 198,242 L 198,243 L 197,244 L 196,243 L 197,244 L 196,245 L 197,246 L 196,247 L 197,248 L 197,249 L 196,250 L 195,249 L 196,250 L 195,251 L 196,252 L 195,253 L 196,254 L 196,255 L 195,256 L 194,255 L 195,256 L 195,257 L 194,258 L 193,257 L 194,258 L 193,259 L 194,260 L 194,261 L 193,262 L 192,261 L 193,262 L 192,263 L 193,264 L 192,265 L 193,266 L 193,267 L 192,268 L 191,267 L 192,268 L 192,269 L 191,270 L 190,269 L 191,270 L 190,271 L 191,272 L 191,273 L 190,274 L 189,273 L 190,274 L 189,275 L 190,276 L 189,277 L 190,278 L 189,279 L 190,280 L 189,281 L 190,282 L 190,283 L 189,284 L 188,283 L 189,284 L 188,285 L 189,286 L 189,287 L 188,288 L 187,287 L 188,288 L 187,289 L 188,290 L 187,291 L 188,292 L 188,293 L 187,294 L 186,293 L 187,294 L 187,295 L 186,296 L 185,295 L 186,296 L 185,297 L 186,298 L 186,299 L 185,300 L 184,299 L 185,300 L 185,301 L 184,302 L 183,301 L 184,302 L 183,303 L 184,304 L 183,305 L 184,306 L 184,307 L 183,308 L 182,307 L 183,308 L 183,309 L 182,310 L 181,309 L 182,310 L 182,311 L 181,312 L 180,311 L 181,312 L 180,313 L 181,314 L 180,315 L 182,317 L 184,315 L 185,316 L 185,318 L 185,316 L 184,315 L 184,313 L 182,311 L 182,310 L 183,309 L 186,312 L 186,314 L 188,316 L 187,317 L 187,319 L 188,319 L 187,318 L 187,317 L 188,316 L 190,318 L 190,320 L 190,318 L 189,317 L 191,315 L 191,313 L 189,311 L 189,310 L 190,309 L 193,312 L 193,316 L 192,317 L 192,320 L 192,317 L 193,316 L 195,318 L 194,319 L 194,320 L 195,321 L 196,320 L 196,319 L 197,318 L 197,316 L 198,315 L 200,317 L 199,318 L 199,319 L 198,320 L 198,321 L 197,322 L 198,321 L 200,323 L 199,322 L 201,320 L 202,321 L 202,324 L 202,321 L 201,320 L 201,318 L 202,317 L 202,316 L 204,314 L 205,315 L 205,316 L 204,317 L 204,318 L 203,319 L 204,320 L 204,322 L 205,323 L 204,324 L 204,325 L 204,324 L 205,323 L 206,324 L 206,325 L 206,324 L 205,323 L 207,321 L 208,322 L 208,323 L 209,324 L 208,325 L 210,327 L 211,326 L 212,327 L 213,326 L 213,325 L 215,323 L 216,324 L 216,325 L 215,326 L 215,327 L 216,328 L 216,329 L 216,328 L 217,327 L 218,328 L 218,329 L 218,328 L 220,326 L 221,327 L 221,328 L 220,329 L 221,330 L 220,329 L 221,328 L 221,327 L 223,325 L 224,326 L 224,327 L 223,328 L 223,330 L 224,331 L 225,330 L 226,331 L 225,330 L 227,328 L 228,329 L 228,331 L 230,333 L 228,331 L 228,329 L 227,328 L 227,327 L 226,326 L 228,324 L 229,325 L 229,327 L 230,328 L 230,330 L 232,332 L 232,333 L 233,334 L 235,332 L 236,333 L 236,334 L 237,335 L 239,333 L 240,334 L 240,335 L 241,336 L 242,335 L 244,337 L 245,336 L 244,335 L 245,334 L 245,332 L 246,331 L 248,333 L 247,334 L 247,337 L 246,338 L 247,337 L 248,338 L 249,337 L 251,339 L 252,338 L 252,336 L 251,335 L 252,334 L 252,332 L 254,330 L 255,331 L 255,332 L 254,333 L 254,335 L 255,336 L 254,337 L 254,339 L 253,340 L 254,339 L 255,340 L 256,339 L 257,340 L 256,339 L 257,338 L 256,337 L 257,336 L 256,335 L 257,334 L 256,333 L 257,332 L 256,333 L 255,332 L 255,331 L 256,330 L 255,329 L 256,328 L 255,329 L 254,328 L 254,327 L 255,326 L 254,325 L 255,324 L 254,323 L 255,322 L 254,323 L 253,322 L 253,321 L 254,320 L 253,321 L 252,320 L 252,319 L 253,318 L 252,317 L 253,316 L 252,317 L 251,316 L 251,315 L 252,314 L 251,315 L 250,314 L 250,313 L 251,312 L 250,311 L 251,310 L 250,311 L 249,310 L 249,309 L 250,308 L 249,307 L 250,306 L 249,307 L 248,306 L 248,305 L 249,304 L 248,303 L 249,302 L 248,301 L 249,300 L 248,301 L 247,300 L 247,299 L 248,298 L 247,297 L 248,296 L 247,295 L 248,294 L 247,295 L 246,294 L 246,293 L 247,292 L 246,291 L 247,290 L 246,291 L 245,290 L 245,289 L 246,288 L 245,289 L 244,288 L 244,287 L 245,286 L 244,285 L 245,284 L 244,283 L 245,282 L 244,281 L 245,280 L 244,281 L 243,280 L 243,279 L 244,278 L 243,279 L 242,278 L 242,277 L 243,276 L 242,275 L 243,274 L 242,273 L 243,272 L 242,271 L 243,270 L 242,269 L 243,268 L 242,269 L 241,268 L 241,267 L 242,266 L 241,265 L 242,264 L 241,263 L 242,262 L 241,263 L 240,262 L 240,261 L 241,260 L 240,259 L 241,258 L 240,259 L 239,258 L 239,257 L 240,256 L 239,255 L 240,254 L 239,253 L 240,252 L 239,251 L 240,250 L 239,249 L 240,248 L 239,249 L 238,248 L 238,247 L 239,246 L 238,245 L 239,244 L 238,245 L 237,244 L 237,243 L 238,242 L 237,243 L 236,242 L 236,241 L 237,240 L 236,239 L 237,238 L 236,237 L 237,236 L 236,237 L 235,236 L 235,235 L 236,234 L 235,235 L 234,234 L 234,233 L 235,232 L 234,231 L 235,230 L 234,229 L 235,228 L 234,227 L 235,226 L 234,225 L 235,224 L 234,225 L 233,224 L 233,223 L 234,222 L 233,221 L 234,220 L 233,221 L 232,220 L 232,219 L 233,218 L 232,217 L 233,216 L 232,215 L 233,214 L 232,215 L 231,214 L 231,213 L 232,212 L 231,211 L 232,210 L 231,211 L 230,210 L 230,209 L 231,208 L 230,207 L 231,206 L 230,205 L 231,204 L 230,203 L 231,202 L 230,203 L 229,202 L 229,201 L 230,200 L 229,201 L 228,200 L 228,199 L 229,198 L 228,197 L 229,196 L 228,197 L 227,196 L 227,195 L 228,194 L 227,193 L 228,192 L 227,191 L 228,190 L 227,191 L 226,190 L 226,189 L 227,188 L 226,189 L 225,188 L 225,187 L 226,186 L 225,185 L 226,184 L 225,183 L 226,182 L 225,183 L 224,182 L 224,181 L 225,180 L 224,179 L 225,178 L 224,177 L 225,176 L 224,177 L 223,176 L 223,175 L 224,174 L 223,173 L 224,172 L 223,171 L 224,170 L 223,169 L 224,168 L 225,168 Z" fill="#f09048" stroke="none" /><path d="M 63,146 L 62,147 L 60,147 L 59,148 L 59,149 L 60,150 L 60,152 L 59,153 L 60,154 L 59,155 L 60,156 L 60,158 L 59,159 L 60,160 L 59,161 L 60,162 L 60,164 L 59,165 L 60,166 L 59,167 L 60,168 L 60,170 L 59,171 L 60,172 L 59,173 L 60,174 L 60,176 L 59,177 L 60,178 L 59,179 L 60,180 L 60,182 L 59,183 L 60,184 L 59,185 L 60,186 L 60,188 L 59,189 L 60,190 L 59,191 L 60,192 L 60,194 L 59,195 L 60,196 L 59,197 L 60,198 L 60,200 L 59,201 L 60,202 L 59,203 L 60,204 L 60,206 L 59,207 L 60,208 L 59,209 L 60,210 L 60,212 L 59,213 L 60,214 L 59,215 L 60,216 L 60,218 L 59,219 L 60,220 L 59,221 L 60,222 L 60,224 L 59,225 L 60,226 L 59,227 L 60,228 L 60,230 L 59,231 L 60,232 L 59,233 L 60,234 L 60,236 L 59,237 L 60,238 L 59,239 L 60,240 L 60,242 L 59,243 L 60,244 L 59,245 L 60,246 L 60,248 L 58,250 L 57,250 L 58,250 L 59,251 L 59,252 L 61,254 L 62,254 L 62,253 L 63,252 L 65,254 L 64,255 L 65,254 L 64,253 L 65,252 L 64,253 L 63,252 L 63,249 L 64,248 L 63,247 L 64,246 L 63,245 L 63,243 L 64,242 L 63,241 L 64,240 L 63,239 L 63,237 L 64,236 L 63,235 L 64,234 L 63,233 L 63,231 L 64,230 L 63,229 L 64,228 L 63,227 L 63,225 L 64,224 L 63,223 L 64,222 L 63,221 L 63,219 L 64,218 L 63,217 L 64,216 L 63,215 L 63,213 L 64,212 L 63,211 L 64,210 L 63,209 L 63,207 L 64,206 L 63,205 L 64,204 L 63,203 L 63,201 L 64,200 L 63,199 L 64,198 L 63,197 L 63,195 L 64,194 L 63,193 L 64,192 L 63,191 L 63,189 L 64,188 L 63,187 L 64,186 L 63,185 L 63,183 L 64,182 L 63,181 L 64,180 L 63,179 L 63,177 L 64,176 L 63,175 L 64,174 L 63,173 L 63,171 L 64,170 L 63,169 L 64,168 L 63,167 L 63,165 L 64,164 L 63,163 L 64,162 L 63,161 L 63,159 L 64,158 L 63,157 L 64,156 L 63,155 L 63,153 L 64,152 L 63,151 L 64,150 L 63,149 L 64,148 L 64,147 L 65,146 L 66,146 Z" fill="#f09048" stroke="none" /><path d="M 130,145 L 127,148 L 126,148 L 125,149 L 125,151 L 124,152 L 125,153 L 123,155 L 122,154 L 122,153 L 122,154 L 123,155 L 122,156 L 122,157 L 121,158 L 121,159 L 120,160 L 119,159 L 118,160 L 119,161 L 119,162 L 118,163 L 119,164 L 119,165 L 120,166 L 119,167 L 119,168 L 120,169 L 120,172 L 119,173 L 117,171 L 118,170 L 117,169 L 117,165 L 116,164 L 115,164 L 112,167 L 111,167 L 110,168 L 111,168 L 112,167 L 114,167 L 115,168 L 115,169 L 116,170 L 115,171 L 116,172 L 116,174 L 117,175 L 116,176 L 116,178 L 115,179 L 113,177 L 114,176 L 114,173 L 113,172 L 113,169 L 113,172 L 112,173 L 110,171 L 111,170 L 110,170 L 110,171 L 109,172 L 108,171 L 108,169 L 107,169 L 106,170 L 105,170 L 105,171 L 104,172 L 105,171 L 106,171 L 107,170 L 109,172 L 109,174 L 108,175 L 109,176 L 108,177 L 109,178 L 109,179 L 108,180 L 107,179 L 108,180 L 107,181 L 108,182 L 107,183 L 108,184 L 108,185 L 107,186 L 106,185 L 107,186 L 106,187 L 107,188 L 107,189 L 106,190 L 105,189 L 106,190 L 106,191 L 105,192 L 104,191 L 105,192 L 104,193 L 105,194 L 104,195 L 105,196 L 105,197 L 104,198 L 103,197 L 104,198 L 103,199 L 104,200 L 103,201 L 104,202 L 103,203 L 104,204 L 103,205 L 104,206 L 103,207 L 104,208 L 103,209 L 104,210 L 104,211 L 103,212 L 102,211 L 103,212 L 102,213 L 103,214 L 102,215 L 103,216 L 103,217 L 102,218 L 101,217 L 102,218 L 102,219 L 101,220 L 100,219 L 101,220 L 100,221 L 101,222 L 100,223 L 101,224 L 101,225 L 100,226 L 99,225 L 100,226 L 99,227 L 100,228 L 99,229 L 100,230 L 99,231 L 100,232 L 99,233 L 100,234 L 99,235 L 100,236 L 100,237 L 99,238 L 98,237 L 99,238 L 98,239 L 99,240 L 99,241 L 98,242 L 97,241 L 98,242 L 97,243 L 98,244 L 97,245 L 98,246 L 98,247 L 97,248 L 96,247 L 97,248 L 96,249 L 97,250 L 96,251 L 97,252 L 96,253 L 97,254 L 97,255 L 96,256 L 95,255 L 96,256 L 95,257 L 96,258 L 96,259 L 95,260 L 94,259 L 95,260 L 95,261 L 94,262 L 93,261 L 94,262 L 93,263 L 94,264 L 94,265 L 93,266 L 92,265 L 93,266 L 93,267 L 92,268 L 91,267 L 92,268 L 91,269 L 92,270 L 91,271 L 92,272 L 90,274 L 89,274 L 90,274 L 91,273 L 92,274 L 92,275 L 93,276 L 94,275 L 95,276 L 95,277 L 96,278 L 95,277 L 95,276 L 96,275 L 98,277 L 98,278 L 98,277 L 99,276 L 98,275 L 99,274 L 99,272 L 100,271 L 102,273 L 101,274 L 101,277 L 100,278 L 100,280 L 101,281 L 102,280 L 103,281 L 105,279 L 106,280 L 106,281 L 105,282 L 105,283 L 105,282 L 106,281 L 108,283 L 106,281 L 106,280 L 107,279 L 110,282 L 110,285 L 110,282 L 112,280 L 113,281 L 113,282 L 112,283 L 113,284 L 112,285 L 113,286 L 113,287 L 113,286 L 112,285 L 114,283 L 115,284 L 115,286 L 116,287 L 117,286 L 118,287 L 118,289 L 119,290 L 120,290 L 121,291 L 122,290 L 123,291 L 124,290 L 125,291 L 125,292 L 126,293 L 125,292 L 125,291 L 124,290 L 124,288 L 123,287 L 124,286 L 124,285 L 125,284 L 127,286 L 126,287 L 126,289 L 127,290 L 127,291 L 128,292 L 128,293 L 128,292 L 129,291 L 131,293 L 129,295 L 130,294 L 131,295 L 131,296 L 131,295 L 132,294 L 133,295 L 133,296 L 133,295 L 134,294 L 134,292 L 133,291 L 133,290 L 134,289 L 137,292 L 136,293 L 136,295 L 135,296 L 135,297 L 136,298 L 135,297 L 135,296 L 136,295 L 138,297 L 138,298 L 139,299 L 140,298 L 141,299 L 142,298 L 143,299 L 143,301 L 143,299 L 144,298 L 146,300 L 145,301 L 145,302 L 145,301 L 147,299 L 148,300 L 148,301 L 147,302 L 149,304 L 150,303 L 151,304 L 153,302 L 154,303 L 154,304 L 153,305 L 154,304 L 155,305 L 156,304 L 155,305 L 154,304 L 154,303 L 155,302 L 154,301 L 155,300 L 154,299 L 155,298 L 154,297 L 155,296 L 154,295 L 155,294 L 154,295 L 153,294 L 153,293 L 154,292 L 153,291 L 154,290 L 153,289 L 154,288 L 153,287 L 154,286 L 153,287 L 152,286 L 152,285 L 153,284 L 152,285 L 151,284 L 151,283 L 152,282 L 151,281 L 152,280 L 151,279 L 152,278 L 151,279 L 150,278 L 150,277 L 151,276 L 150,275 L 151,274 L 150,273 L 151,272 L 150,271 L 151,270 L 150,269 L 151,268 L 150,269 L 149,268 L 149,267 L 150,266 L 149,265 L 150,264 L 149,263 L 150,262 L 149,263 L 148,262 L 148,261 L 149,260 L 148,259 L 149,258 L 148,257 L 149,256 L 148,257 L 147,256 L 147,255 L 148,254 L 147,253 L 148,252 L 147,251 L 148,250 L 147,249 L 148,248 L 147,249 L 146,248 L 146,247 L 147,246 L 146,245 L 147,244 L 146,243 L 146,241 L 147,240 L 146,241 L 145,240 L 145,239 L 146,238 L 145,239 L 144,238 L 144,237 L 145,236 L 144,235 L 145,234 L 144,235 L 143,234 L 143,233 L 144,232 L 143,233 L 142,232 L 142,231 L 143,230 L 142,229 L 143,228 L 142,227 L 143,226 L 142,225 L 143,224 L 142,225 L 141,224 L 141,223 L 142,222 L 141,221 L 142,220 L 141,219 L 142,218 L 141,217 L 142,216 L 141,215 L 142,214 L 141,215 L 140,214 L 140,213 L 141,212 L 140,211 L 141,210 L 140,209 L 141,208 L 140,207 L 141,206 L 140,207 L 139,206 L 139,205 L 140,204 L 139,205 L 138,204 L 138,203 L 139,202 L 138,201 L 139,200 L 138,199 L 139,198 L 138,199 L 137,198 L 137,197 L 138,196 L 137,197 L 136,196 L 136,195 L 137,194 L 136,195 L 135,194 L 135,193 L 136,192 L 135,191 L 136,190 L 135,189 L 136,188 L 135,189 L 134,188 L 134,187 L 135,186 L 134,185 L 135,184 L 134,183 L 135,182 L 134,183 L 133,182 L 133,181 L 134,180 L 133,181 L 132,180 L 132,179 L 133,178 L 132,179 L 131,178 L 131,177 L 132,176 L 131,175 L 132,174 L 131,173 L 132,172 L 131,173 L 130,172 L 130,171 L 131,170 L 130,169 L 131,168 L 130,169 L 129,168 L 129,167 L 130,166 L 129,167 L 128,166 L 128,165 L 129,164 L 128,163 L 129,162 L 128,161 L 129,160 L 128,159 L 129,158 L 128,157 L 129,156 L 128,155 L 128,151 L 129,150 L 128,149 L 128,148 L 129,147 L 130,148 L 129,147 L 129,146 Z" fill="#f09048" stroke="none" /><path d="M 92,138 L 91,139 L 89,139 L 88,140 L 87,139 L 86,139 L 84,141 L 84,142 L 83,143 L 82,142 L 82,141 L 82,142 L 81,143 L 79,141 L 77,141 L 77,142 L 76,143 L 75,142 L 74,143 L 70,143 L 69,144 L 68,144 L 67,145 L 65,145 L 66,145 L 67,146 L 66,147 L 65,147 L 65,148 L 64,149 L 63,148 L 62,148 L 62,149 L 61,150 L 60,149 L 59,150 L 58,149 L 58,148 L 57,149 L 57,150 L 54,153 L 52,153 L 51,152 L 50,153 L 50,154 L 49,155 L 48,154 L 44,158 L 44,159 L 43,160 L 42,159 L 39,162 L 39,163 L 38,164 L 39,165 L 37,167 L 36,166 L 35,167 L 35,169 L 34,170 L 33,170 L 33,171 L 34,172 L 33,173 L 33,174 L 32,175 L 31,174 L 30,175 L 31,175 L 32,176 L 28,180 L 29,181 L 27,183 L 27,185 L 28,186 L 27,187 L 26,187 L 26,189 L 27,190 L 26,191 L 26,193 L 27,193 L 28,194 L 26,196 L 26,197 L 27,197 L 28,198 L 27,199 L 28,200 L 27,201 L 27,202 L 26,203 L 26,206 L 27,207 L 27,209 L 28,210 L 28,213 L 29,214 L 29,215 L 30,216 L 30,217 L 31,218 L 31,219 L 32,220 L 32,221 L 33,221 L 34,222 L 33,223 L 35,225 L 36,225 L 37,226 L 36,227 L 37,227 L 38,228 L 37,229 L 38,229 L 39,230 L 39,231 L 41,231 L 42,232 L 41,233 L 41,234 L 42,235 L 44,235 L 45,236 L 44,237 L 46,237 L 47,238 L 46,239 L 48,241 L 49,241 L 50,242 L 50,243 L 52,245 L 53,245 L 54,246 L 54,247 L 56,249 L 58,249 L 59,250 L 58,251 L 59,250 L 61,252 L 61,253 L 62,252 L 63,253 L 63,255 L 65,257 L 67,257 L 68,258 L 68,259 L 69,259 L 70,260 L 70,261 L 71,262 L 72,262 L 74,264 L 75,264 L 78,267 L 81,267 L 82,268 L 81,269 L 82,269 L 83,270 L 84,270 L 85,271 L 87,271 L 88,272 L 88,273 L 90,273 L 91,274 L 91,275 L 91,274 L 92,273 L 93,274 L 93,275 L 94,276 L 94,277 L 94,276 L 95,275 L 96,276 L 96,277 L 98,279 L 99,279 L 99,278 L 100,277 L 101,278 L 101,280 L 103,282 L 104,282 L 105,281 L 106,282 L 106,283 L 107,284 L 108,284 L 109,285 L 109,282 L 110,281 L 111,282 L 111,286 L 112,286 L 113,285 L 114,286 L 114,287 L 115,288 L 116,288 L 117,289 L 117,287 L 118,286 L 119,287 L 119,289 L 120,289 L 123,292 L 124,292 L 125,293 L 126,292 L 127,293 L 127,294 L 129,294 L 130,295 L 131,294 L 132,295 L 132,296 L 132,295 L 133,294 L 134,295 L 134,297 L 134,296 L 135,295 L 136,296 L 136,297 L 138,299 L 139,298 L 140,299 L 140,300 L 142,300 L 142,299 L 143,298 L 144,299 L 144,301 L 145,300 L 146,301 L 146,302 L 147,303 L 148,302 L 150,304 L 151,303 L 152,304 L 152,305 L 153,304 L 154,305 L 154,306 L 156,306 L 157,307 L 158,307 L 159,308 L 161,308 L 162,309 L 163,309 L 164,310 L 166,310 L 167,311 L 168,311 L 169,312 L 171,312 L 172,313 L 175,313 L 177,315 L 178,315 L 179,316 L 180,316 L 181,315 L 183,317 L 184,317 L 184,316 L 185,315 L 186,316 L 186,318 L 186,317 L 187,316 L 188,317 L 188,318 L 189,319 L 189,318 L 190,317 L 191,318 L 191,320 L 191,317 L 192,316 L 193,317 L 193,321 L 194,321 L 195,320 L 196,321 L 196,322 L 197,321 L 199,323 L 200,322 L 201,323 L 201,324 L 201,321 L 202,320 L 203,321 L 203,324 L 204,323 L 205,324 L 205,325 L 205,324 L 206,323 L 207,324 L 207,326 L 208,326 L 209,325 L 211,327 L 212,326 L 214,328 L 215,328 L 216,327 L 217,328 L 217,329 L 217,328 L 218,327 L 219,328 L 219,329 L 220,330 L 221,329 L 223,331 L 224,330 L 226,332 L 228,332 L 229,333 L 230,332 L 232,334 L 233,333 L 234,334 L 235,334 L 236,335 L 237,334 L 239,336 L 240,336 L 241,335 L 243,337 L 244,336 L 245,337 L 246,337 L 247,338 L 248,337 L 250,339 L 251,338 L 252,339 L 253,339 L 254,340 L 255,339 L 257,341 L 260,341 L 261,342 L 264,342 L 265,343 L 269,343 L 270,344 L 272,344 L 273,345 L 276,345 L 277,346 L 280,346 L 281,347 L 285,347 L 286,348 L 290,348 L 291,349 L 292,349 L 292,348 L 293,347 L 294,348 L 294,349 L 295,348 L 297,350 L 297,348 L 298,347 L 299,348 L 299,350 L 300,351 L 301,351 L 301,350 L 302,349 L 303,350 L 303,351 L 303,349 L 304,348 L 305,349 L 305,351 L 306,352 L 307,352 L 307,351 L 308,350 L 309,351 L 309,352 L 310,352 L 311,353 L 312,352 L 313,353 L 314,353 L 315,352 L 316,353 L 316,354 L 316,353 L 317,352 L 318,353 L 318,354 L 319,353 L 321,355 L 322,355 L 322,354 L 323,353 L 324,354 L 324,355 L 325,355 L 326,354 L 328,356 L 329,355 L 330,356 L 331,356 L 331,355 L 332,354 L 333,355 L 333,356 L 334,357 L 342,357 L 343,358 L 349,358 L 350,359 L 360,359 L 361,360 L 371,360 L 372,361 L 390,361 L 391,360 L 392,361 L 392,360 L 393,359 L 394,360 L 394,361 L 395,360 L 396,361 L 397,360 L 398,361 L 399,361 L 399,360 L 400,359 L 401,360 L 401,361 L 402,361 L 403,360 L 404,361 L 405,361 L 405,359 L 406,358 L 407,359 L 407,361 L 408,360 L 409,361 L 410,360 L 411,361 L 412,360 L 413,361 L 414,360 L 415,361 L 416,360 L 417,361 L 418,360 L 419,361 L 419,360 L 420,359 L 421,360 L 421,358 L 422,357 L 423,358 L 423,360 L 424,359 L 425,360 L 426,359 L 427,360 L 427,358 L 428,357 L 429,358 L 429,360 L 430,359 L 431,360 L 432,359 L 433,360 L 433,357 L 434,356 L 435,357 L 435,360 L 437,358 L 438,359 L 439,359 L 439,358 L 440,357 L 441,358 L 441,359 L 442,358 L 443,359 L 445,357 L 446,358 L 449,358 L 450,357 L 453,357 L 454,356 L 456,356 L 457,355 L 458,355 L 459,354 L 460,354 L 461,353 L 462,353 L 466,349 L 466,348 L 467,347 L 467,346 L 466,345 L 467,344 L 468,344 L 469,343 L 469,342 L 468,341 L 469,340 L 470,340 L 470,338 L 471,337 L 469,335 L 470,334 L 471,334 L 472,333 L 472,330 L 473,329 L 473,325 L 471,323 L 472,322 L 473,322 L 472,321 L 473,320 L 473,319 L 471,317 L 472,316 L 473,316 L 473,311 L 472,310 L 472,308 L 471,308 L 470,307 L 471,306 L 471,305 L 470,304 L 470,302 L 469,302 L 468,301 L 468,300 L 467,300 L 466,299 L 467,298 L 468,298 L 467,297 L 467,296 L 463,292 L 463,291 L 461,289 L 461,288 L 460,287 L 460,285 L 458,283 L 457,283 L 455,281 L 455,280 L 454,279 L 453,280 L 452,280 L 451,279 L 452,278 L 449,275 L 449,274 L 448,274 L 447,273 L 445,273 L 444,272 L 445,271 L 444,270 L 443,270 L 442,269 L 441,270 L 440,270 L 439,269 L 440,268 L 437,265 L 436,265 L 434,263 L 433,263 L 432,262 L 431,263 L 430,262 L 430,261 L 428,261 L 427,262 L 426,262 L 425,263 L 426,264 L 424,266 L 423,265 L 423,264 L 422,265 L 423,266 L 423,267 L 422,268 L 421,267 L 421,268 L 419,270 L 418,270 L 418,273 L 417,274 L 416,273 L 416,270 L 415,271 L 415,272 L 413,274 L 412,274 L 412,275 L 411,276 L 410,276 L 409,277 L 409,278 L 408,279 L 408,280 L 407,281 L 406,280 L 406,282 L 405,283 L 406,284 L 404,286 L 403,286 L 402,287 L 402,290 L 400,292 L 400,293 L 399,294 L 399,295 L 401,295 L 402,296 L 401,297 L 400,297 L 398,299 L 397,298 L 398,299 L 394,303 L 395,304 L 394,305 L 393,305 L 394,306 L 392,308 L 391,308 L 389,310 L 389,312 L 388,313 L 388,314 L 386,316 L 385,316 L 382,319 L 382,321 L 381,322 L 380,321 L 380,320 L 379,321 L 380,322 L 379,323 L 378,323 L 377,324 L 376,324 L 375,325 L 373,325 L 372,324 L 370,324 L 369,325 L 368,325 L 367,324 L 367,323 L 366,323 L 364,321 L 364,319 L 363,319 L 361,317 L 362,316 L 363,316 L 360,313 L 361,312 L 362,312 L 362,308 L 361,307 L 361,306 L 360,305 L 361,304 L 362,304 L 362,302 L 361,301 L 362,300 L 362,298 L 361,297 L 362,296 L 363,296 L 363,295 L 361,293 L 362,292 L 363,292 L 363,290 L 362,289 L 363,288 L 364,288 L 363,287 L 364,286 L 365,286 L 365,284 L 364,283 L 365,282 L 366,282 L 365,281 L 366,280 L 367,280 L 366,279 L 367,278 L 368,278 L 367,277 L 369,275 L 369,274 L 370,273 L 370,272 L 371,271 L 371,270 L 370,269 L 371,268 L 373,268 L 373,267 L 375,265 L 375,264 L 377,262 L 376,261 L 377,260 L 378,260 L 380,258 L 380,257 L 381,256 L 381,255 L 382,254 L 383,254 L 385,252 L 385,251 L 389,247 L 390,247 L 390,245 L 391,244 L 392,245 L 392,243 L 393,242 L 395,242 L 394,241 L 393,241 L 392,240 L 390,240 L 389,239 L 388,240 L 387,239 L 386,239 L 385,238 L 386,237 L 385,237 L 383,235 L 381,235 L 380,236 L 379,235 L 379,234 L 377,232 L 376,232 L 375,231 L 374,232 L 373,231 L 373,230 L 372,230 L 371,229 L 370,229 L 369,228 L 368,228 L 366,226 L 365,226 L 364,225 L 363,225 L 362,224 L 361,224 L 360,223 L 359,223 L 358,222 L 357,222 L 356,221 L 355,221 L 354,220 L 353,220 L 352,219 L 351,219 L 350,218 L 349,218 L 348,217 L 347,217 L 346,216 L 345,217 L 343,215 L 342,215 L 340,213 L 338,213 L 337,212 L 336,213 L 335,212 L 335,211 L 334,211 L 333,210 L 332,210 L 331,209 L 330,209 L 329,210 L 329,211 L 328,212 L 326,212 L 326,214 L 324,216 L 323,215 L 315,223 L 316,224 L 314,226 L 312,226 L 312,227 L 310,229 L 311,229 L 312,230 L 312,231 L 311,232 L 310,231 L 308,231 L 309,232 L 307,234 L 307,235 L 306,236 L 305,236 L 303,238 L 303,239 L 304,240 L 303,241 L 302,241 L 302,242 L 299,245 L 299,246 L 300,247 L 299,248 L 298,248 L 297,249 L 298,250 L 296,252 L 296,253 L 297,254 L 295,256 L 295,257 L 296,257 L 297,258 L 296,259 L 294,259 L 294,260 L 293,261 L 292,261 L 293,262 L 291,264 L 290,264 L 289,265 L 290,265 L 291,266 L 290,267 L 287,267 L 287,268 L 286,269 L 285,269 L 284,268 L 281,271 L 279,269 L 278,270 L 278,272 L 277,273 L 276,272 L 276,269 L 275,269 L 274,268 L 273,269 L 272,268 L 271,268 L 269,266 L 268,266 L 267,265 L 268,264 L 267,263 L 267,262 L 266,261 L 266,260 L 265,259 L 265,257 L 264,256 L 264,253 L 263,252 L 263,247 L 262,246 L 262,245 L 263,244 L 263,242 L 264,241 L 263,240 L 264,239 L 263,238 L 263,236 L 262,235 L 263,234 L 264,234 L 264,233 L 265,232 L 265,230 L 264,229 L 266,227 L 266,224 L 267,223 L 267,222 L 266,221 L 267,220 L 266,219 L 267,218 L 268,218 L 268,216 L 267,215 L 268,214 L 269,214 L 268,213 L 269,212 L 270,212 L 271,211 L 271,209 L 272,208 L 271,207 L 272,206 L 273,206 L 273,205 L 274,204 L 274,203 L 275,202 L 276,202 L 275,201 L 276,200 L 277,200 L 276,199 L 277,198 L 278,198 L 278,197 L 279,196 L 280,196 L 279,195 L 280,194 L 281,194 L 282,193 L 282,191 L 283,190 L 284,190 L 284,189 L 285,188 L 283,188 L 282,187 L 281,187 L 280,186 L 278,186 L 277,185 L 276,185 L 275,184 L 274,185 L 272,183 L 270,183 L 269,182 L 268,183 L 267,182 L 266,183 L 265,182 L 265,181 L 264,181 L 263,180 L 262,181 L 260,179 L 259,180 L 258,179 L 258,177 L 256,177 L 255,176 L 253,176 L 252,175 L 251,175 L 250,174 L 248,174 L 247,173 L 246,174 L 245,173 L 244,174 L 243,174 L 242,173 L 242,172 L 241,171 L 240,171 L 239,170 L 238,170 L 237,169 L 236,169 L 237,170 L 236,171 L 235,171 L 233,169 L 233,168 L 232,168 L 231,167 L 229,167 L 228,166 L 226,166 L 225,167 L 226,168 L 225,169 L 224,169 L 225,170 L 223,172 L 222,172 L 222,173 L 221,174 L 220,173 L 221,174 L 221,175 L 220,176 L 219,176 L 219,177 L 218,178 L 218,179 L 217,180 L 216,179 L 216,178 L 216,179 L 217,180 L 216,181 L 215,181 L 214,182 L 213,182 L 214,183 L 213,184 L 212,184 L 211,185 L 212,186 L 211,187 L 210,187 L 212,187 L 213,188 L 211,190 L 209,190 L 207,192 L 207,193 L 206,194 L 205,194 L 203,196 L 204,197 L 203,198 L 202,198 L 203,199 L 202,200 L 202,201 L 201,202 L 200,202 L 199,203 L 199,204 L 198,205 L 197,205 L 198,205 L 199,206 L 196,209 L 195,209 L 194,210 L 194,211 L 195,212 L 190,217 L 189,216 L 189,215 L 188,215 L 189,216 L 187,218 L 186,217 L 186,218 L 185,219 L 184,218 L 184,216 L 183,216 L 182,217 L 181,217 L 180,216 L 180,215 L 180,216 L 179,217 L 178,216 L 177,216 L 176,215 L 176,214 L 174,214 L 173,213 L 174,212 L 171,209 L 170,209 L 168,207 L 169,206 L 170,206 L 169,205 L 169,203 L 168,202 L 168,194 L 167,193 L 168,192 L 168,191 L 169,190 L 169,188 L 168,187 L 169,186 L 170,186 L 171,185 L 171,184 L 172,183 L 172,182 L 173,181 L 173,180 L 174,179 L 174,177 L 175,176 L 176,176 L 176,175 L 177,174 L 176,173 L 177,172 L 179,172 L 178,171 L 179,170 L 180,170 L 179,169 L 180,168 L 182,168 L 182,167 L 185,164 L 184,163 L 185,162 L 187,162 L 193,156 L 192,155 L 191,155 L 190,154 L 188,154 L 187,153 L 184,153 L 183,152 L 180,152 L 179,151 L 176,151 L 175,150 L 170,150 L 169,149 L 166,149 L 165,148 L 164,149 L 163,148 L 163,147 L 160,147 L 159,146 L 155,146 L 154,145 L 150,145 L 149,144 L 148,145 L 147,144 L 145,144 L 144,143 L 139,143 L 138,142 L 135,142 L 134,143 L 135,144 L 134,145 L 133,145 L 132,144 L 130,146 L 130,147 L 129,148 L 129,149 L 128,150 L 127,149 L 126,150 L 126,151 L 125,152 L 124,151 L 124,150 L 122,152 L 123,153 L 123,154 L 122,155 L 121,154 L 120,155 L 120,156 L 119,157 L 119,158 L 118,159 L 119,160 L 116,163 L 117,164 L 116,165 L 116,166 L 114,168 L 112,168 L 111,169 L 110,169 L 109,168 L 109,171 L 108,172 L 107,171 L 106,172 L 105,172 L 104,171 L 104,170 L 103,170 L 102,171 L 101,170 L 99,172 L 98,171 L 98,170 L 98,171 L 97,172 L 94,169 L 92,169 L 91,168 L 91,167 L 89,165 L 90,164 L 90,163 L 88,161 L 89,160 L 87,158 L 88,157 L 86,155 L 87,154 L 88,154 L 88,151 L 89,150 L 88,149 L 89,148 L 90,148 L 90,147 L 91,146 L 91,145 L 94,142 L 94,141 L 96,139 L 97,139 L 98,138 L 94,138 L 93,139 Z" fill="#f09060" stroke="none" /><path d="M 402,245 L 387,260 L 387,261 L 384,264 L 384,265 L 381,268 L 381,269 L 380,270 L 380,271 L 378,273 L 378,274 L 377,275 L 377,276 L 376,277 L 376,278 L 375,279 L 375,280 L 374,281 L 374,283 L 373,284 L 373,285 L 372,286 L 372,289 L 371,290 L 371,293 L 370,294 L 370,299 L 369,300 L 369,309 L 370,310 L 370,315 L 371,316 L 371,317 L 372,317 L 373,316 L 374,316 L 382,308 L 382,307 L 385,304 L 385,303 L 387,301 L 387,300 L 389,298 L 389,297 L 390,296 L 390,295 L 391,294 L 391,293 L 392,292 L 392,291 L 393,290 L 393,289 L 394,288 L 394,287 L 395,286 L 395,285 L 396,284 L 396,283 L 397,282 L 397,281 L 398,280 L 398,279 L 400,277 L 400,276 L 403,273 L 403,272 L 411,264 L 412,264 L 416,260 L 417,260 L 420,257 L 421,257 L 422,256 L 421,256 L 420,255 L 419,255 L 417,253 L 416,253 L 415,252 L 414,252 L 413,251 L 412,251 L 411,250 L 410,250 L 408,248 L 407,248 L 406,247 L 405,247 L 404,246 L 403,246 Z" fill="#f0d8a8" stroke="none" /><path d="M 292,192 L 289,195 L 289,196 L 286,199 L 286,200 L 284,202 L 284,203 L 282,205 L 282,206 L 281,207 L 281,208 L 280,209 L 280,210 L 279,211 L 279,212 L 278,213 L 278,214 L 277,215 L 277,216 L 276,217 L 276,219 L 275,220 L 275,222 L 274,223 L 274,225 L 273,226 L 273,229 L 272,230 L 272,235 L 271,236 L 271,254 L 272,255 L 272,256 L 273,257 L 273,258 L 277,262 L 281,262 L 283,260 L 284,260 L 286,258 L 286,257 L 288,255 L 288,252 L 289,251 L 289,249 L 290,248 L 290,247 L 291,246 L 291,245 L 292,244 L 292,243 L 293,242 L 293,241 L 294,240 L 294,239 L 295,238 L 295,237 L 297,235 L 297,234 L 299,232 L 299,231 L 302,228 L 302,227 L 305,224 L 305,223 L 314,214 L 314,213 L 322,205 L 323,205 L 322,205 L 321,204 L 320,204 L 319,203 L 317,203 L 316,202 L 315,202 L 314,201 L 313,201 L 312,200 L 311,200 L 310,199 L 309,199 L 308,198 L 306,198 L 305,197 L 304,197 L 303,196 L 302,196 L 301,195 L 300,195 L 299,194 L 297,194 L 296,193 L 295,193 L 294,192 Z" fill="#f0d8a8" stroke="none" /><path d="M 202,158 L 197,163 L 196,163 L 191,168 L 191,169 L 185,175 L 185,176 L 183,178 L 183,179 L 181,181 L 181,182 L 179,184 L 179,185 L 178,186 L 178,187 L 177,188 L 177,190 L 176,191 L 176,193 L 175,194 L 175,199 L 176,200 L 176,202 L 177,203 L 177,204 L 178,205 L 178,206 L 179,207 L 180,207 L 181,208 L 183,208 L 184,209 L 185,208 L 187,208 L 187,207 L 189,205 L 189,204 L 191,202 L 191,201 L 193,199 L 193,198 L 195,196 L 195,195 L 197,193 L 197,192 L 199,190 L 199,189 L 202,186 L 202,185 L 204,183 L 204,182 L 207,179 L 207,178 L 210,175 L 210,174 L 213,171 L 213,170 L 216,167 L 216,166 L 219,163 L 217,163 L 216,162 L 215,162 L 214,161 L 211,161 L 210,160 L 208,160 L 207,159 L 205,159 L 204,158 Z" fill="#f0d8a8" stroke="none" /><path d="M 108,138 L 98,148 L 98,149 L 96,151 L 96,153 L 95,154 L 95,157 L 96,158 L 96,159 L 97,160 L 97,161 L 99,163 L 104,163 L 105,162 L 106,162 L 108,160 L 109,160 L 111,158 L 111,157 L 112,156 L 112,154 L 114,152 L 114,151 L 116,149 L 116,148 L 123,141 L 124,141 L 125,140 L 121,140 L 120,139 L 111,139 L 110,138 Z" fill="#f0d8a8" stroke="none" /></svg>