<?xml version="1.0" encoding="utf-8" ?>
<svg baseProfile="full" height="500" version="1.1" viewBox="0 0 500 500" width="500" xmlns="http://www.w3.org/2000/svg" xmlns:ev="http://www.w3.org/2001/xml-events" xmlns:xlink="http://www.w3.org/1999/xlink"><defs /><path d="M 162,10 L 161,11 L 159,11 L 158,12 L 157,12 L 154,15 L 154,16 L 153,17 L 153,26 L 152,27 L 149,27 L 148,28 L 144,28 L 143,29 L 141,29 L 140,30 L 139,30 L 138,31 L 137,31 L 136,32 L 135,32 L 134,33 L 133,33 L 130,36 L 129,36 L 124,41 L 123,41 L 120,44 L 120,45 L 114,51 L 114,52 L 111,55 L 111,56 L 109,58 L 109,59 L 107,61 L 107,62 L 105,64 L 105,65 L 104,66 L 104,67 L 103,68 L 103,69 L 101,71 L 101,72 L 100,73 L 100,74 L 99,75 L 99,76 L 98,77 L 98,78 L 97,79 L 97,81 L 96,82 L 96,83 L 95,84 L 95,85 L 94,86 L 94,88 L 93,89 L 93,90 L 92,91 L 92,93 L 91,94 L 91,96 L 90,97 L 90,99 L 89,100 L 89,102 L 88,103 L 88,106 L 87,107 L 87,109 L 86,110 L 86,113 L 85,114 L 85,117 L 84,118 L 84,121 L 83,122 L 83,126 L 82,127 L 82,131 L 81,132 L 81,137 L 80,138 L 80,146 L 79,147 L 79,167 L 80,168 L 80,193 L 81,194 L 81,230 L 82,231 L 82,266 L 83,267 L 83,302 L 84,303 L 84,337 L 85,338 L 85,369 L 86,370 L 86,379 L 87,380 L 88,380 L 91,383 L 92,383 L 95,386 L 96,386 L 99,389 L 100,389 L 103,392 L 104,392 L 107,395 L 108,395 L 110,397 L 111,397 L 114,400 L 115,400 L 118,403 L 119,403 L 122,406 L 123,406 L 126,409 L 127,409 L 130,412 L 131,412 L 134,415 L 135,415 L 137,417 L 138,417 L 141,420 L 142,420 L 145,423 L 146,423 L 149,426 L 150,426 L 152,428 L 153,428 L 156,431 L 157,431 L 160,434 L 161,434 L 164,437 L 165,437 L 168,440 L 169,440 L 172,443 L 173,443 L 175,445 L 176,445 L 179,448 L 180,448 L 183,451 L 184,451 L 187,454 L 188,454 L 191,457 L 192,457 L 194,459 L 195,459 L 198,462 L 199,462 L 202,465 L 203,465 L 206,468 L 207,468 L 209,470 L 210,470 L 213,473 L 214,473 L 217,476 L 218,476 L 220,478 L 221,478 L 225,482 L 226,482 L 229,485 L 230,485 L 232,487 L 233,487 L 236,490 L 237,490 L 238,491 L 239,491 L 239,472 L 238,471 L 238,394 L 237,393 L 238,392 L 237,391 L 237,313 L 236,312 L 236,236 L 237,235 L 238,236 L 238,237 L 240,239 L 240,240 L 242,242 L 242,243 L 247,248 L 248,248 L 250,250 L 251,250 L 252,251 L 253,251 L 254,252 L 257,252 L 258,253 L 268,253 L 269,252 L 272,252 L 273,251 L 275,251 L 276,250 L 277,250 L 278,249 L 279,249 L 281,247 L 282,247 L 283,246 L 284,246 L 287,243 L 288,243 L 297,234 L 297,233 L 302,228 L 302,227 L 304,225 L 304,224 L 306,222 L 306,221 L 308,219 L 308,218 L 310,216 L 310,215 L 311,214 L 311,213 L 312,212 L 312,211 L 313,210 L 313,209 L 314,208 L 314,207 L 315,206 L 315,205 L 316,204 L 316,203 L 317,202 L 317,201 L 318,200 L 318,199 L 319,198 L 319,196 L 320,195 L 320,194 L 321,193 L 321,191 L 322,190 L 322,189 L 323,188 L 323,186 L 324,185 L 324,183 L 325,182 L 325,179 L 326,178 L 326,176 L 328,174 L 329,174 L 330,173 L 332,173 L 333,172 L 335,172 L 336,171 L 339,171 L 340,170 L 343,170 L 344,169 L 347,169 L 348,168 L 351,168 L 352,167 L 356,167 L 357,166 L 361,166 L 362,165 L 368,165 L 369,164 L 374,164 L 375,165 L 379,165 L 380,166 L 383,166 L 384,167 L 386,167 L 387,168 L 389,168 L 390,169 L 392,169 L 393,170 L 395,170 L 396,171 L 398,171 L 399,172 L 401,172 L 402,173 L 403,173 L 404,174 L 406,174 L 407,175 L 419,175 L 419,94 L 416,91 L 415,91 L 413,89 L 412,89 L 411,88 L 410,88 L 409,87 L 408,87 L 407,86 L 405,86 L 404,85 L 400,85 L 399,84 L 396,84 L 395,83 L 392,83 L 391,82 L 389,82 L 388,81 L 385,81 L 384,80 L 382,80 L 381,79 L 379,79 L 378,78 L 376,78 L 375,77 L 372,77 L 371,76 L 369,76 L 368,75 L 366,75 L 365,74 L 362,74 L 361,73 L 359,73 L 358,72 L 356,72 L 355,71 L 353,71 L 352,70 L 350,70 L 349,69 L 347,69 L 346,68 L 343,68 L 342,67 L 340,67 L 339,66 L 337,66 L 336,65 L 334,65 L 333,64 L 331,64 L 330,63 L 328,63 L 327,62 L 324,62 L 323,61 L 321,61 L 320,60 L 318,60 L 317,59 L 315,59 L 314,58 L 312,58 L 311,57 L 309,57 L 308,56 L 306,56 L 305,55 L 303,55 L 302,54 L 300,54 L 299,53 L 296,53 L 295,52 L 293,52 L 292,51 L 290,51 L 289,50 L 287,50 L 286,49 L 284,49 L 283,48 L 281,48 L 280,47 L 278,47 L 277,46 L 275,46 L 274,45 L 272,45 L 271,44 L 269,44 L 268,43 L 266,43 L 265,42 L 262,42 L 261,41 L 259,41 L 258,40 L 256,40 L 255,39 L 253,39 L 252,38 L 250,38 L 249,37 L 247,37 L 246,36 L 244,36 L 243,35 L 241,35 L 240,34 L 238,34 L 237,33 L 235,33 L 234,32 L 232,32 L 231,31 L 229,31 L 228,30 L 226,30 L 225,29 L 223,29 L 222,28 L 219,28 L 218,27 L 216,27 L 215,26 L 213,26 L 212,25 L 210,25 L 209,24 L 207,24 L 206,23 L 204,23 L 203,22 L 201,22 L 200,21 L 198,21 L 197,20 L 195,20 L 194,19 L 192,19 L 191,18 L 189,18 L 188,17 L 186,17 L 185,16 L 183,16 L 182,15 L 180,15 L 179,14 L 177,14 L 176,13 L 174,13 L 173,12 L 170,12 L 169,11 L 167,11 L 166,10 Z" fill="#000000" stroke="none" /><path d="M 269,169 L 269,183 L 270,184 L 270,186 L 271,187 L 271,188 L 274,191 L 277,191 L 278,190 L 279,190 L 285,184 L 285,183 L 287,181 L 287,180 L 288,179 L 288,178 L 286,178 L 285,177 L 284,177 L 283,176 L 282,176 L 281,175 L 279,175 L 278,174 L 277,174 L 276,173 L 275,173 L 274,172 L 273,172 L 272,171 L 272,170 L 270,170 Z" fill="#601800" stroke="none" /><path d="M 204,39 L 204,41 L 206,41 L 207,42 L 209,42 L 210,43 L 213,43 L 214,44 L 216,44 L 217,45 L 219,45 L 220,46 L 222,46 L 223,47 L 226,47 L 227,48 L 229,48 L 230,49 L 232,49 L 233,50 L 235,50 L 236,51 L 239,51 L 240,52 L 242,52 L 243,53 L 245,53 L 246,54 L 248,54 L 249,55 L 252,55 L 253,56 L 255,56 L 256,57 L 258,57 L 259,58 L 262,58 L 263,59 L 265,59 L 266,60 L 268,60 L 269,61 L 271,61 L 272,62 L 275,62 L 276,63 L 278,63 L 279,64 L 281,64 L 282,65 L 285,65 L 286,66 L 288,66 L 289,67 L 291,67 L 292,68 L 294,68 L 295,69 L 297,69 L 298,70 L 301,70 L 302,71 L 304,71 L 305,72 L 306,72 L 307,73 L 310,73 L 311,74 L 312,74 L 314,76 L 315,76 L 324,85 L 324,86 L 325,87 L 325,88 L 326,89 L 326,90 L 327,91 L 327,92 L 328,93 L 328,94 L 329,95 L 329,97 L 330,98 L 330,100 L 331,100 L 336,95 L 336,94 L 340,90 L 340,89 L 342,87 L 342,86 L 344,84 L 342,84 L 341,83 L 339,83 L 338,82 L 336,82 L 335,81 L 333,81 L 332,80 L 330,80 L 329,79 L 327,79 L 326,78 L 324,78 L 323,77 L 320,77 L 319,76 L 317,76 L 316,75 L 314,75 L 313,74 L 311,74 L 310,73 L 308,73 L 307,72 L 305,72 L 304,71 L 302,71 L 301,70 L 299,70 L 298,69 L 296,69 L 295,68 L 293,68 L 292,67 L 289,67 L 288,66 L 286,66 L 285,65 L 283,65 L 282,64 L 280,64 L 279,63 L 277,63 L 276,62 L 274,62 L 273,61 L 271,61 L 270,60 L 268,60 L 267,59 L 265,59 L 264,58 L 262,58 L 261,57 L 258,57 L 257,56 L 255,56 L 254,55 L 252,55 L 251,54 L 249,54 L 248,53 L 246,53 L 245,52 L 243,52 L 242,51 L 240,51 L 239,50 L 237,50 L 236,49 L 234,49 L 233,48 L 230,48 L 229,47 L 227,47 L 226,46 L 224,46 L 223,45 L 221,45 L 220,44 L 218,44 L 217,43 L 215,43 L 214,42 L 212,42 L 211,41 L 208,41 L 207,40 L 205,40 Z" fill="#a86000" stroke="none" /><path d="M 406,103 L 404,105 L 402,105 L 401,106 L 400,106 L 399,107 L 398,107 L 397,108 L 396,108 L 395,109 L 394,109 L 393,110 L 392,110 L 391,111 L 390,111 L 389,112 L 388,112 L 387,113 L 386,113 L 385,114 L 383,114 L 382,115 L 381,115 L 380,116 L 379,116 L 378,117 L 376,117 L 375,118 L 374,118 L 373,119 L 372,119 L 371,120 L 370,120 L 369,121 L 367,121 L 366,122 L 363,122 L 362,123 L 360,123 L 359,124 L 357,124 L 356,125 L 355,125 L 354,126 L 352,126 L 351,127 L 350,127 L 349,128 L 347,128 L 346,129 L 345,129 L 344,130 L 343,130 L 342,131 L 341,131 L 340,132 L 339,132 L 338,133 L 337,133 L 336,134 L 335,134 L 334,135 L 333,135 L 332,136 L 331,136 L 330,137 L 329,137 L 327,139 L 326,139 L 324,141 L 323,141 L 321,143 L 320,143 L 318,145 L 317,145 L 309,153 L 309,154 L 308,155 L 308,156 L 307,157 L 307,159 L 306,160 L 306,163 L 305,164 L 305,175 L 306,175 L 307,174 L 310,174 L 311,173 L 314,173 L 315,172 L 317,172 L 318,171 L 319,171 L 320,170 L 322,170 L 323,169 L 324,169 L 325,168 L 327,168 L 328,167 L 330,167 L 331,166 L 333,166 L 334,165 L 337,165 L 338,164 L 340,164 L 341,163 L 344,163 L 345,162 L 349,162 L 350,161 L 353,161 L 354,160 L 358,160 L 359,159 L 365,159 L 366,158 L 377,158 L 378,159 L 381,159 L 382,160 L 385,160 L 386,161 L 388,161 L 389,162 L 391,162 L 392,163 L 394,163 L 395,164 L 397,164 L 398,165 L 400,165 L 401,166 L 403,166 L 404,167 L 406,167 Z" fill="#d8a800" stroke="none" /><path d="M 161,17 L 159,19 L 159,27 L 160,27 L 161,28 L 164,28 L 165,29 L 167,29 L 168,30 L 170,30 L 171,31 L 173,31 L 174,32 L 177,32 L 178,33 L 180,33 L 181,34 L 183,34 L 184,35 L 187,35 L 188,36 L 190,36 L 191,37 L 193,37 L 194,38 L 196,38 L 198,36 L 198,35 L 200,33 L 200,32 L 201,31 L 203,31 L 204,32 L 207,32 L 208,33 L 210,33 L 211,34 L 213,34 L 214,35 L 216,35 L 217,36 L 219,36 L 220,37 L 222,37 L 223,38 L 225,38 L 226,39 L 228,39 L 229,40 L 232,40 L 233,41 L 235,41 L 236,42 L 238,42 L 239,43 L 241,43 L 242,44 L 244,44 L 245,45 L 247,45 L 248,46 L 250,46 L 251,47 L 253,47 L 254,48 L 257,48 L 258,49 L 260,49 L 261,50 L 263,50 L 264,51 L 266,51 L 267,52 L 269,52 L 270,53 L 272,53 L 273,54 L 275,54 L 276,55 L 278,55 L 279,56 L 281,56 L 282,57 L 285,57 L 286,58 L 288,58 L 289,59 L 291,59 L 292,60 L 294,60 L 295,61 L 297,61 L 298,62 L 300,62 L 301,63 L 303,63 L 304,64 L 306,64 L 307,65 L 309,65 L 310,66 L 312,66 L 313,67 L 316,67 L 317,68 L 319,68 L 320,69 L 322,69 L 323,70 L 325,70 L 326,71 L 328,71 L 329,72 L 331,72 L 332,73 L 334,73 L 335,74 L 337,74 L 338,75 L 340,75 L 341,76 L 343,76 L 344,77 L 347,77 L 348,78 L 350,78 L 352,80 L 352,83 L 351,84 L 351,86 L 350,87 L 350,88 L 349,89 L 349,90 L 346,93 L 346,94 L 342,98 L 342,99 L 321,120 L 320,120 L 315,125 L 314,125 L 311,128 L 310,128 L 308,130 L 307,130 L 306,131 L 305,131 L 303,133 L 302,133 L 300,135 L 299,135 L 298,136 L 297,136 L 295,138 L 294,138 L 292,140 L 291,140 L 289,142 L 289,143 L 288,144 L 286,144 L 282,148 L 282,149 L 281,150 L 281,152 L 280,153 L 280,156 L 279,157 L 279,167 L 280,167 L 281,168 L 282,168 L 283,169 L 285,169 L 286,170 L 287,170 L 288,171 L 289,171 L 290,172 L 292,172 L 293,173 L 294,173 L 295,174 L 297,174 L 297,168 L 298,167 L 298,161 L 299,160 L 299,157 L 300,156 L 300,155 L 301,154 L 301,152 L 302,151 L 302,150 L 305,147 L 305,146 L 308,143 L 309,143 L 313,139 L 314,139 L 317,136 L 318,136 L 320,134 L 321,134 L 322,133 L 323,133 L 325,131 L 326,131 L 327,130 L 328,130 L 330,128 L 331,128 L 332,127 L 333,127 L 334,126 L 335,126 L 336,125 L 337,125 L 338,124 L 339,124 L 340,123 L 342,123 L 343,122 L 344,122 L 345,121 L 346,121 L 347,120 L 349,120 L 350,119 L 351,119 L 352,118 L 354,118 L 355,117 L 357,117 L 358,116 L 360,116 L 361,115 L 363,115 L 364,114 L 366,114 L 367,113 L 369,113 L 370,112 L 371,112 L 372,111 L 373,111 L 374,110 L 375,110 L 376,109 L 378,109 L 379,108 L 380,108 L 381,107 L 382,107 L 383,106 L 384,106 L 385,105 L 387,105 L 388,104 L 389,104 L 390,103 L 391,103 L 392,102 L 393,102 L 394,101 L 395,101 L 396,100 L 397,100 L 398,99 L 399,99 L 400,98 L 401,98 L 402,97 L 403,97 L 404,96 L 405,96 L 406,95 L 407,95 L 408,94 L 409,94 L 408,94 L 407,93 L 406,93 L 405,92 L 403,92 L 402,91 L 398,91 L 397,90 L 393,90 L 392,89 L 390,89 L 389,88 L 386,88 L 385,87 L 383,87 L 382,86 L 380,86 L 379,85 L 376,85 L 375,84 L 373,84 L 372,83 L 370,83 L 369,82 L 367,82 L 366,81 L 363,81 L 362,80 L 360,80 L 359,79 L 357,79 L 356,78 L 354,78 L 353,77 L 351,77 L 350,76 L 347,76 L 346,75 L 344,75 L 343,74 L 341,74 L 340,73 L 338,73 L 337,72 L 335,72 L 334,71 L 332,71 L 331,70 L 328,70 L 327,69 L 325,69 L 324,68 L 322,68 L 321,67 L 319,67 L 318,66 L 316,66 L 315,65 L 313,65 L 312,64 L 310,64 L 309,63 L 307,63 L 306,62 L 303,62 L 302,61 L 300,61 L 299,60 L 297,60 L 296,59 L 294,59 L 293,58 L 291,58 L 290,57 L 288,57 L 287,56 L 285,56 L 284,55 L 282,55 L 281,54 L 279,54 L 278,53 L 276,53 L 275,52 L 272,52 L 271,51 L 269,51 L 268,50 L 266,50 L 265,49 L 263,49 L 262,48 L 260,48 L 259,47 L 257,47 L 256,46 L 254,46 L 253,45 L 251,45 L 250,44 L 248,44 L 247,43 L 245,43 L 244,42 L 242,42 L 241,41 L 239,41 L 238,40 L 236,40 L 235,39 L 233,39 L 232,38 L 229,38 L 228,37 L 226,37 L 225,36 L 223,36 L 222,35 L 220,35 L 219,34 L 217,34 L 216,33 L 214,33 L 213,32 L 211,32 L 210,31 L 208,31 L 207,30 L 205,30 L 204,29 L 202,29 L 201,28 L 199,28 L 198,27 L 196,27 L 195,26 L 193,26 L 192,25 L 190,25 L 189,24 L 186,24 L 185,23 L 183,23 L 182,22 L 181,22 L 180,21 L 177,21 L 176,20 L 174,20 L 173,19 L 171,19 L 170,18 L 168,18 L 167,17 Z" fill="#d8a800" stroke="none" /><path d="M 296,79 L 295,80 L 293,80 L 292,81 L 290,81 L 289,82 L 288,82 L 286,84 L 285,84 L 284,85 L 283,85 L 279,89 L 278,89 L 272,95 L 272,96 L 267,101 L 267,102 L 264,105 L 264,106 L 262,108 L 262,109 L 261,110 L 261,111 L 259,113 L 259,114 L 258,115 L 258,116 L 257,117 L 257,118 L 255,120 L 255,121 L 254,122 L 254,123 L 253,124 L 253,126 L 252,127 L 252,128 L 251,129 L 251,130 L 250,131 L 250,132 L 249,133 L 249,135 L 248,136 L 248,138 L 247,139 L 247,140 L 246,141 L 246,143 L 245,144 L 245,146 L 244,147 L 244,149 L 243,150 L 243,153 L 242,154 L 242,157 L 241,158 L 241,161 L 240,162 L 240,166 L 239,167 L 239,171 L 238,172 L 238,178 L 237,179 L 237,189 L 236,190 L 236,202 L 237,203 L 237,212 L 238,213 L 238,218 L 239,219 L 239,222 L 240,223 L 240,225 L 241,226 L 241,228 L 242,229 L 242,230 L 243,231 L 243,232 L 244,233 L 244,234 L 245,235 L 245,236 L 247,238 L 247,239 L 251,243 L 252,243 L 254,245 L 256,245 L 257,246 L 259,246 L 260,247 L 266,247 L 267,246 L 270,246 L 271,245 L 272,245 L 273,244 L 275,244 L 277,242 L 278,242 L 280,240 L 281,240 L 285,236 L 286,236 L 292,230 L 292,229 L 296,225 L 296,224 L 299,221 L 299,220 L 301,218 L 301,217 L 303,215 L 303,214 L 304,213 L 304,212 L 306,210 L 306,209 L 307,208 L 307,207 L 308,206 L 308,205 L 309,204 L 309,203 L 310,202 L 310,201 L 311,200 L 311,199 L 312,198 L 312,196 L 313,195 L 313,194 L 314,193 L 314,192 L 315,191 L 315,189 L 316,188 L 316,186 L 317,185 L 317,184 L 318,183 L 318,181 L 319,180 L 319,179 L 317,179 L 316,180 L 314,180 L 313,181 L 309,181 L 308,182 L 303,182 L 302,183 L 300,183 L 299,182 L 296,182 L 295,181 L 294,182 L 294,183 L 292,185 L 292,186 L 290,188 L 290,189 L 284,195 L 283,195 L 281,197 L 279,197 L 278,198 L 272,198 L 271,197 L 270,197 L 266,193 L 266,192 L 264,190 L 264,188 L 263,187 L 263,185 L 262,184 L 262,165 L 263,164 L 263,160 L 264,159 L 264,156 L 265,155 L 265,153 L 266,152 L 266,150 L 267,149 L 267,148 L 268,147 L 268,146 L 269,145 L 269,144 L 270,143 L 270,142 L 271,141 L 271,140 L 273,138 L 273,137 L 280,130 L 281,130 L 282,129 L 283,129 L 284,128 L 291,128 L 292,129 L 293,129 L 294,130 L 296,128 L 297,128 L 298,127 L 299,127 L 301,125 L 302,125 L 304,123 L 305,123 L 306,122 L 307,122 L 311,118 L 312,118 L 317,113 L 318,113 L 324,107 L 324,103 L 323,102 L 323,100 L 322,99 L 322,97 L 321,96 L 321,95 L 320,94 L 320,93 L 319,92 L 319,91 L 318,90 L 318,89 L 311,82 L 310,82 L 309,81 L 308,81 L 307,80 L 305,80 L 304,79 Z" fill="#d8f0f0" stroke="none" /><path d="M 152,33 L 151,34 L 146,34 L 145,35 L 143,35 L 142,36 L 141,36 L 140,37 L 139,37 L 138,38 L 137,38 L 134,41 L 133,41 L 129,45 L 128,45 L 124,49 L 124,50 L 119,55 L 119,56 L 116,59 L 116,60 L 114,62 L 114,63 L 112,65 L 112,66 L 110,68 L 110,69 L 109,70 L 109,71 L 108,72 L 108,73 L 106,75 L 106,77 L 105,78 L 105,79 L 104,80 L 104,81 L 103,82 L 103,83 L 102,84 L 102,85 L 101,86 L 101,87 L 100,88 L 100,90 L 99,91 L 99,92 L 98,93 L 98,95 L 97,96 L 97,98 L 96,99 L 96,101 L 95,102 L 95,104 L 94,105 L 94,108 L 93,109 L 93,111 L 92,112 L 92,115 L 91,116 L 91,119 L 90,120 L 90,123 L 89,124 L 89,128 L 88,129 L 88,134 L 87,135 L 87,140 L 86,141 L 86,150 L 85,151 L 85,163 L 86,164 L 86,182 L 87,183 L 87,218 L 88,219 L 88,255 L 89,256 L 89,290 L 90,291 L 90,326 L 91,327 L 91,359 L 92,360 L 92,375 L 95,378 L 96,378 L 99,381 L 100,381 L 103,384 L 104,384 L 107,387 L 108,387 L 111,390 L 112,390 L 115,393 L 116,393 L 118,395 L 119,395 L 122,398 L 123,398 L 126,401 L 127,401 L 130,404 L 131,404 L 134,407 L 135,407 L 138,410 L 139,410 L 142,413 L 143,413 L 145,415 L 146,415 L 149,418 L 150,418 L 153,421 L 154,421 L 157,424 L 158,424 L 161,427 L 162,427 L 164,429 L 165,429 L 168,432 L 169,432 L 172,435 L 173,435 L 176,438 L 177,438 L 180,441 L 181,441 L 183,443 L 184,443 L 187,446 L 188,446 L 191,449 L 192,449 L 195,452 L 196,452 L 199,455 L 200,455 L 202,457 L 203,457 L 206,460 L 207,460 L 210,463 L 211,463 L 214,466 L 215,466 L 217,468 L 218,468 L 221,471 L 222,471 L 225,474 L 226,474 L 229,477 L 230,477 L 232,479 L 232,418 L 231,417 L 231,339 L 230,338 L 230,259 L 229,258 L 229,185 L 230,184 L 230,176 L 231,175 L 231,170 L 232,169 L 232,164 L 233,163 L 233,160 L 234,159 L 234,156 L 235,155 L 235,152 L 236,151 L 236,148 L 237,147 L 237,145 L 238,144 L 238,142 L 239,141 L 239,139 L 240,138 L 240,137 L 241,136 L 241,134 L 242,133 L 242,131 L 243,130 L 243,129 L 244,128 L 244,127 L 245,126 L 245,124 L 246,123 L 246,122 L 247,121 L 247,120 L 248,119 L 248,118 L 249,117 L 249,116 L 251,114 L 251,113 L 252,112 L 252,111 L 253,110 L 253,109 L 255,107 L 255,106 L 257,104 L 257,103 L 259,101 L 259,100 L 261,98 L 261,97 L 266,92 L 266,91 L 273,84 L 274,84 L 278,80 L 279,80 L 281,78 L 282,78 L 284,76 L 285,76 L 286,75 L 287,75 L 288,74 L 289,74 L 287,74 L 286,73 L 283,73 L 282,72 L 280,72 L 279,71 L 277,71 L 276,70 L 274,70 L 273,69 L 270,69 L 269,68 L 267,68 L 266,67 L 264,67 L 263,66 L 260,66 L 259,65 L 257,65 L 256,64 L 254,64 L 253,63 L 251,63 L 250,62 L 247,62 L 246,61 L 244,61 L 243,60 L 241,60 L 240,59 L 238,59 L 237,58 L 234,58 L 233,57 L 231,57 L 230,56 L 228,56 L 227,55 L 225,55 L 224,54 L 221,54 L 220,53 L 218,53 L 217,52 L 215,52 L 214,51 L 212,51 L 211,50 L 208,50 L 207,49 L 205,49 L 204,48 L 202,48 L 201,47 L 198,47 L 197,46 L 195,46 L 194,45 L 192,45 L 191,44 L 189,44 L 188,43 L 186,43 L 185,42 L 182,42 L 181,41 L 179,41 L 178,40 L 176,40 L 175,39 L 172,39 L 171,38 L 169,38 L 168,37 L 166,37 L 165,36 L 162,36 L 161,35 L 159,35 L 158,34 L 155,34 L 154,33 Z" fill="#f0f0f0" stroke="none" /></svg>