<?xml version="1.0" encoding="utf-8" ?>
<svg baseProfile="full" height="500" version="1.1" viewBox="0 0 500 500" width="500" xmlns="http://www.w3.org/2000/svg" xmlns:ev="http://www.w3.org/2001/xml-events" xmlns:xlink="http://www.w3.org/1999/xlink"><defs /><path d="M 392,137 L 391,138 L 389,138 L 384,143 L 384,145 L 383,146 L 383,151 L 384,152 L 384,154 L 389,159 L 391,159 L 392,160 L 397,160 L 398,159 L 399,159 L 400,158 L 401,158 L 404,155 L 404,154 L 405,153 L 405,152 L 406,151 L 406,146 L 405,145 L 405,144 L 404,143 L 404,142 L 401,139 L 400,139 L 399,138 L 398,138 L 397,137 Z" fill="#000000" stroke="none" /><path d="M 108,48 L 107,49 L 101,49 L 100,50 L 96,50 L 95,51 L 92,51 L 91,52 L 88,52 L 87,53 L 85,53 L 84,54 L 82,54 L 81,55 L 79,55 L 78,56 L 77,56 L 76,57 L 75,57 L 74,58 L 72,58 L 71,59 L 70,59 L 69,60 L 68,60 L 67,61 L 66,61 L 64,63 L 63,63 L 62,64 L 61,64 L 59,66 L 58,66 L 56,68 L 55,68 L 52,71 L 51,71 L 46,76 L 45,76 L 38,83 L 38,84 L 37,85 L 36,85 L 36,86 L 33,89 L 33,90 L 30,93 L 30,94 L 27,97 L 27,98 L 26,99 L 26,100 L 24,102 L 24,103 L 23,104 L 23,105 L 21,107 L 21,109 L 20,110 L 20,111 L 19,112 L 19,113 L 18,114 L 18,116 L 17,117 L 17,118 L 16,119 L 16,121 L 15,122 L 15,124 L 14,125 L 14,127 L 13,128 L 13,131 L 12,132 L 12,136 L 11,137 L 11,142 L 10,143 L 10,153 L 9,154 L 9,162 L 10,163 L 10,173 L 11,174 L 11,179 L 12,180 L 12,183 L 13,184 L 13,187 L 14,188 L 13,189 L 14,190 L 14,191 L 15,192 L 14,193 L 16,195 L 16,196 L 17,197 L 17,199 L 18,200 L 18,201 L 19,202 L 19,204 L 20,205 L 20,206 L 21,207 L 21,208 L 22,209 L 22,210 L 24,212 L 24,213 L 25,214 L 25,215 L 26,216 L 26,217 L 28,219 L 28,220 L 31,223 L 31,224 L 33,226 L 33,227 L 49,243 L 50,243 L 54,247 L 55,247 L 57,249 L 58,249 L 60,251 L 61,251 L 62,252 L 62,253 L 63,252 L 65,254 L 66,254 L 67,255 L 68,255 L 69,256 L 70,256 L 71,257 L 72,257 L 73,258 L 74,258 L 75,259 L 77,259 L 78,260 L 79,260 L 80,261 L 82,261 L 83,262 L 85,262 L 86,263 L 88,263 L 89,264 L 92,264 L 93,265 L 95,265 L 96,266 L 99,266 L 100,267 L 100,279 L 98,281 L 94,281 L 93,282 L 92,282 L 91,283 L 90,283 L 86,287 L 86,288 L 84,290 L 84,291 L 83,292 L 83,293 L 82,294 L 82,295 L 81,296 L 81,298 L 80,299 L 80,301 L 79,302 L 79,304 L 78,305 L 79,306 L 78,307 L 78,310 L 77,311 L 78,312 L 78,315 L 77,316 L 77,338 L 78,339 L 77,340 L 78,341 L 78,460 L 77,461 L 78,462 L 77,463 L 78,464 L 78,480 L 77,481 L 78,482 L 77,483 L 78,484 L 78,492 L 146,492 L 146,456 L 147,455 L 148,456 L 148,457 L 149,458 L 149,459 L 151,461 L 151,462 L 152,463 L 153,463 L 155,465 L 156,465 L 157,466 L 158,466 L 159,467 L 170,467 L 171,466 L 173,466 L 175,464 L 176,464 L 180,460 L 180,459 L 181,458 L 181,457 L 182,456 L 182,455 L 183,454 L 183,453 L 184,452 L 184,451 L 185,450 L 185,449 L 186,448 L 186,447 L 187,446 L 188,446 L 187,445 L 188,444 L 188,443 L 189,442 L 189,441 L 190,440 L 190,439 L 191,438 L 191,437 L 192,436 L 192,435 L 193,434 L 193,433 L 194,432 L 194,431 L 196,429 L 196,428 L 197,427 L 197,426 L 198,425 L 198,424 L 200,422 L 200,420 L 201,419 L 201,418 L 202,417 L 202,416 L 203,415 L 203,414 L 204,413 L 204,412 L 205,411 L 205,410 L 207,408 L 207,406 L 208,405 L 208,404 L 209,403 L 209,402 L 210,401 L 210,400 L 211,399 L 211,398 L 212,397 L 212,396 L 213,395 L 213,394 L 215,392 L 215,390 L 216,389 L 216,388 L 218,386 L 218,385 L 219,384 L 219,383 L 220,382 L 220,381 L 221,380 L 221,378 L 222,377 L 222,376 L 223,375 L 226,375 L 228,373 L 229,373 L 230,372 L 232,372 L 232,371 L 233,370 L 234,370 L 235,369 L 236,369 L 239,366 L 240,366 L 245,361 L 246,361 L 253,354 L 253,353 L 255,351 L 255,350 L 257,348 L 258,348 L 257,347 L 259,345 L 259,344 L 260,343 L 260,342 L 261,341 L 261,340 L 262,339 L 262,338 L 263,337 L 263,336 L 264,335 L 264,333 L 265,332 L 265,331 L 266,330 L 265,329 L 266,328 L 266,323 L 267,322 L 267,310 L 266,309 L 267,308 L 266,307 L 266,305 L 265,304 L 265,301 L 264,300 L 264,299 L 263,298 L 263,297 L 262,296 L 262,295 L 261,294 L 261,293 L 255,287 L 254,287 L 251,284 L 251,283 L 244,276 L 243,276 L 242,275 L 241,275 L 240,274 L 237,274 L 236,273 L 224,273 L 222,275 L 221,275 L 219,277 L 219,278 L 218,279 L 218,280 L 217,281 L 217,282 L 216,283 L 216,285 L 214,287 L 215,288 L 214,289 L 214,291 L 212,293 L 210,291 L 209,291 L 208,290 L 201,290 L 197,294 L 197,296 L 196,297 L 196,299 L 195,300 L 195,305 L 194,306 L 194,308 L 193,309 L 194,310 L 194,316 L 193,317 L 193,337 L 192,338 L 192,350 L 191,351 L 190,351 L 188,353 L 187,353 L 186,354 L 186,355 L 184,357 L 184,358 L 183,359 L 183,360 L 182,361 L 182,362 L 181,363 L 181,364 L 180,365 L 180,366 L 178,368 L 178,369 L 177,370 L 177,371 L 176,372 L 176,373 L 174,375 L 173,375 L 172,374 L 172,373 L 171,372 L 171,370 L 170,369 L 170,368 L 169,367 L 169,366 L 168,365 L 168,362 L 166,360 L 166,358 L 165,357 L 165,356 L 164,355 L 164,354 L 163,353 L 163,351 L 162,350 L 162,349 L 161,348 L 161,346 L 160,345 L 160,344 L 159,343 L 159,341 L 158,340 L 158,339 L 157,338 L 157,337 L 156,336 L 156,334 L 155,333 L 155,332 L 154,331 L 154,329 L 153,328 L 153,327 L 152,326 L 152,324 L 151,323 L 151,322 L 150,321 L 150,320 L 149,319 L 149,317 L 148,316 L 148,315 L 147,314 L 147,312 L 146,311 L 146,297 L 145,296 L 145,293 L 144,292 L 144,291 L 143,290 L 143,289 L 136,282 L 136,268 L 137,267 L 139,267 L 140,266 L 142,266 L 143,267 L 144,266 L 146,266 L 147,265 L 151,265 L 152,264 L 156,264 L 157,263 L 159,263 L 160,262 L 161,263 L 162,262 L 163,262 L 164,261 L 165,262 L 167,260 L 168,260 L 169,259 L 171,259 L 172,258 L 173,258 L 174,257 L 175,257 L 176,256 L 177,256 L 178,255 L 179,256 L 179,255 L 180,254 L 181,254 L 182,253 L 183,253 L 185,251 L 186,251 L 189,248 L 190,248 L 193,245 L 194,245 L 195,244 L 196,244 L 196,243 L 197,242 L 198,242 L 198,241 L 202,237 L 202,236 L 206,232 L 206,231 L 208,229 L 208,228 L 210,226 L 210,225 L 211,224 L 211,223 L 214,220 L 214,218 L 215,217 L 215,216 L 216,215 L 216,214 L 222,208 L 223,208 L 227,204 L 228,204 L 230,202 L 231,202 L 232,201 L 233,201 L 234,200 L 235,200 L 240,195 L 240,194 L 241,193 L 241,192 L 242,191 L 242,179 L 241,178 L 241,176 L 240,175 L 240,174 L 239,173 L 239,172 L 238,171 L 238,170 L 236,168 L 236,167 L 234,165 L 234,164 L 231,161 L 231,160 L 229,158 L 229,146 L 228,145 L 228,139 L 227,138 L 227,134 L 226,133 L 226,130 L 225,129 L 225,126 L 224,125 L 224,123 L 223,122 L 223,120 L 222,119 L 222,118 L 221,117 L 221,115 L 220,114 L 220,113 L 219,112 L 219,111 L 218,110 L 218,109 L 217,108 L 217,107 L 216,106 L 216,105 L 215,104 L 215,103 L 214,102 L 214,101 L 212,99 L 212,98 L 210,96 L 210,95 L 208,93 L 208,92 L 204,88 L 204,87 L 190,73 L 189,73 L 185,69 L 184,69 L 181,66 L 180,66 L 179,65 L 178,65 L 176,63 L 175,63 L 174,62 L 173,62 L 172,61 L 171,61 L 170,60 L 169,60 L 168,59 L 167,59 L 166,58 L 165,58 L 164,57 L 163,57 L 162,56 L 160,56 L 159,55 L 158,55 L 157,54 L 155,54 L 154,53 L 152,53 L 151,52 L 148,52 L 147,51 L 144,51 L 143,50 L 139,50 L 138,49 L 132,49 L 131,48 Z" fill="#000000" stroke="none" /><path d="M 444,47 L 443,48 L 435,48 L 434,49 L 429,49 L 428,50 L 425,50 L 424,51 L 421,51 L 420,52 L 418,52 L 417,53 L 415,53 L 414,54 L 412,54 L 411,55 L 409,55 L 408,56 L 407,56 L 406,57 L 405,57 L 404,58 L 403,58 L 402,59 L 401,59 L 400,60 L 399,60 L 398,61 L 397,61 L 396,62 L 395,62 L 393,64 L 392,64 L 391,65 L 390,65 L 387,68 L 386,68 L 384,70 L 383,70 L 378,75 L 377,75 L 368,84 L 368,85 L 363,90 L 363,91 L 361,93 L 361,94 L 360,95 L 359,95 L 359,96 L 358,97 L 358,98 L 357,99 L 357,100 L 354,103 L 354,105 L 353,106 L 353,107 L 352,108 L 352,109 L 351,110 L 351,111 L 350,112 L 350,113 L 349,114 L 349,115 L 348,116 L 348,118 L 347,119 L 347,121 L 346,122 L 346,124 L 345,125 L 345,127 L 344,128 L 344,131 L 343,132 L 343,135 L 342,136 L 342,141 L 340,143 L 341,144 L 341,151 L 340,152 L 340,159 L 337,162 L 337,163 L 334,166 L 334,167 L 332,169 L 332,170 L 331,171 L 331,172 L 330,173 L 330,174 L 329,175 L 329,176 L 328,177 L 328,180 L 327,181 L 327,189 L 328,190 L 328,192 L 329,193 L 329,194 L 330,195 L 330,196 L 334,200 L 335,200 L 336,201 L 337,201 L 339,203 L 340,203 L 341,204 L 342,204 L 345,207 L 346,207 L 354,215 L 354,216 L 355,217 L 355,218 L 356,219 L 356,220 L 357,221 L 357,222 L 358,223 L 358,224 L 360,226 L 360,227 L 362,229 L 362,230 L 364,232 L 364,233 L 367,236 L 367,237 L 368,238 L 369,238 L 370,239 L 370,240 L 371,240 L 372,241 L 372,242 L 374,244 L 375,244 L 379,248 L 380,248 L 383,251 L 384,251 L 385,252 L 385,253 L 386,252 L 388,254 L 389,254 L 390,255 L 391,255 L 392,256 L 393,256 L 394,257 L 395,257 L 396,258 L 397,258 L 398,259 L 399,259 L 400,260 L 402,260 L 403,261 L 403,262 L 404,261 L 405,261 L 406,262 L 408,262 L 409,263 L 411,263 L 412,264 L 415,264 L 416,265 L 417,265 L 418,266 L 419,265 L 420,265 L 421,266 L 426,266 L 427,267 L 433,267 L 434,268 L 434,282 L 427,289 L 427,290 L 426,291 L 426,293 L 425,294 L 425,298 L 424,299 L 424,492 L 480,492 L 480,282 L 479,282 L 478,281 L 476,281 L 475,280 L 471,280 L 470,279 L 470,267 L 471,266 L 472,266 L 473,267 L 474,266 L 475,266 L 476,265 L 479,265 L 480,264 L 480,257 L 481,256 L 480,256 L 479,255 L 479,242 L 477,242 L 476,243 L 474,243 L 473,244 L 470,244 L 469,245 L 465,245 L 464,246 L 454,246 L 453,247 L 449,247 L 448,246 L 433,246 L 432,245 L 427,245 L 426,244 L 422,244 L 421,243 L 418,243 L 417,242 L 414,242 L 413,241 L 411,241 L 410,240 L 409,240 L 408,239 L 406,239 L 405,238 L 404,238 L 403,237 L 402,237 L 400,235 L 399,235 L 398,234 L 397,234 L 394,231 L 393,231 L 382,220 L 382,219 L 379,216 L 379,215 L 377,213 L 377,212 L 376,211 L 376,210 L 375,209 L 375,208 L 374,207 L 374,206 L 373,205 L 373,203 L 370,200 L 370,199 L 366,195 L 365,195 L 359,189 L 358,189 L 356,187 L 355,187 L 353,185 L 352,185 L 350,183 L 350,182 L 351,181 L 351,180 L 353,178 L 353,177 L 361,169 L 361,165 L 362,164 L 362,149 L 363,148 L 363,142 L 364,141 L 364,138 L 365,137 L 365,134 L 366,133 L 366,131 L 367,130 L 367,128 L 368,127 L 368,125 L 369,124 L 369,123 L 370,122 L 370,121 L 371,120 L 371,119 L 372,118 L 372,117 L 373,116 L 373,115 L 374,114 L 374,113 L 375,112 L 375,111 L 377,109 L 377,108 L 380,105 L 380,104 L 384,100 L 384,99 L 392,91 L 393,91 L 397,87 L 398,87 L 401,84 L 402,84 L 404,82 L 405,82 L 406,81 L 407,81 L 409,79 L 410,79 L 411,78 L 412,78 L 413,77 L 415,77 L 416,76 L 417,76 L 418,75 L 420,75 L 421,74 L 422,74 L 423,73 L 426,73 L 427,72 L 429,72 L 430,71 L 434,71 L 435,70 L 440,70 L 441,69 L 460,69 L 461,70 L 467,70 L 468,71 L 471,71 L 472,72 L 475,72 L 476,73 L 478,73 L 480,75 L 480,51 L 478,51 L 477,50 L 474,50 L 473,49 L 468,49 L 467,48 L 459,48 L 458,47 Z" fill="#000000" stroke="none" /><path d="M 241,295 L 240,296 L 240,297 L 239,298 L 239,299 L 238,300 L 238,301 L 237,302 L 237,303 L 236,304 L 236,305 L 235,306 L 235,307 L 234,308 L 234,310 L 233,311 L 233,312 L 232,313 L 232,314 L 231,315 L 231,316 L 229,318 L 228,318 L 227,319 L 224,319 L 223,318 L 222,318 L 216,312 L 216,314 L 215,315 L 215,318 L 214,319 L 214,322 L 213,323 L 213,327 L 212,328 L 212,332 L 211,333 L 211,338 L 210,339 L 210,343 L 209,344 L 209,348 L 210,348 L 211,349 L 212,349 L 213,350 L 214,350 L 215,351 L 216,351 L 217,352 L 218,352 L 219,353 L 220,353 L 221,354 L 223,354 L 225,356 L 226,356 L 227,357 L 227,358 L 228,359 L 229,358 L 230,358 L 232,356 L 233,356 L 245,344 L 245,343 L 247,341 L 247,340 L 249,338 L 249,337 L 250,336 L 250,335 L 251,334 L 251,333 L 252,332 L 252,330 L 253,329 L 253,327 L 254,326 L 254,321 L 255,320 L 255,312 L 254,311 L 254,307 L 253,306 L 253,304 L 252,303 L 252,302 L 251,301 L 251,300 L 248,297 L 246,297 L 245,296 L 244,296 L 243,295 Z" fill="#f0f0f0" stroke="none" /><path d="M 229,285 L 228,286 L 228,288 L 227,289 L 227,290 L 226,291 L 226,294 L 225,295 L 225,297 L 224,298 L 224,300 L 224,299 L 225,298 L 225,297 L 226,296 L 226,295 L 227,294 L 227,293 L 228,292 L 228,291 L 229,290 L 229,289 L 233,285 Z" fill="#f0f0f0" stroke="none" /><path d="M 440,71 L 439,72 L 434,72 L 433,73 L 429,73 L 428,74 L 426,74 L 425,75 L 423,75 L 422,76 L 420,76 L 419,77 L 417,77 L 416,78 L 415,78 L 414,79 L 413,79 L 412,80 L 411,80 L 410,81 L 409,81 L 408,82 L 407,82 L 405,84 L 404,84 L 402,86 L 401,86 L 399,88 L 398,88 L 393,93 L 392,93 L 386,99 L 386,100 L 382,104 L 382,105 L 379,108 L 379,109 L 377,111 L 377,112 L 376,113 L 376,114 L 374,116 L 374,117 L 373,118 L 373,119 L 372,120 L 372,121 L 371,122 L 371,124 L 370,125 L 370,126 L 369,127 L 369,129 L 368,130 L 368,132 L 367,133 L 367,136 L 366,137 L 366,140 L 365,141 L 365,146 L 364,147 L 364,162 L 363,163 L 363,169 L 355,177 L 355,178 L 353,180 L 353,181 L 352,182 L 352,183 L 353,183 L 355,185 L 356,185 L 358,187 L 359,187 L 364,192 L 365,192 L 373,200 L 373,201 L 374,202 L 374,203 L 375,204 L 375,205 L 376,206 L 376,207 L 377,208 L 377,209 L 378,210 L 378,211 L 379,212 L 379,213 L 381,215 L 381,216 L 384,219 L 384,220 L 393,229 L 394,229 L 397,232 L 398,232 L 399,233 L 400,233 L 402,235 L 403,235 L 404,236 L 405,236 L 406,237 L 408,237 L 409,238 L 410,238 L 411,239 L 413,239 L 414,240 L 416,240 L 417,241 L 420,241 L 421,242 L 424,242 L 425,243 L 430,243 L 431,244 L 441,244 L 442,245 L 457,245 L 458,244 L 465,244 L 466,243 L 470,243 L 471,242 L 474,242 L 475,241 L 477,241 L 478,240 L 480,240 L 480,143 L 479,142 L 480,141 L 479,140 L 480,139 L 479,138 L 479,137 L 480,136 L 479,135 L 479,75 L 476,75 L 475,74 L 473,74 L 472,73 L 469,73 L 468,72 L 463,72 L 462,71 Z" fill="#f0f0f0" stroke="none" /><path d="M 118,70 L 117,71 L 106,71 L 105,72 L 101,72 L 100,73 L 97,73 L 96,74 L 93,74 L 92,75 L 90,75 L 89,76 L 88,76 L 87,77 L 85,77 L 84,78 L 83,78 L 82,79 L 81,79 L 80,80 L 79,80 L 78,81 L 77,81 L 76,82 L 75,82 L 73,84 L 72,84 L 70,86 L 69,86 L 66,89 L 65,89 L 60,94 L 59,94 L 56,97 L 56,98 L 50,104 L 50,105 L 47,108 L 47,109 L 45,111 L 45,112 L 44,113 L 44,114 L 43,115 L 43,116 L 42,117 L 42,118 L 41,119 L 41,120 L 40,121 L 40,122 L 39,123 L 39,124 L 38,125 L 38,127 L 37,128 L 37,129 L 36,130 L 36,133 L 35,134 L 35,136 L 34,137 L 34,141 L 33,142 L 33,148 L 32,149 L 32,167 L 33,168 L 33,174 L 34,175 L 34,178 L 35,179 L 35,182 L 36,183 L 36,185 L 37,186 L 37,188 L 38,189 L 38,191 L 39,192 L 39,193 L 40,194 L 40,195 L 41,196 L 41,197 L 42,198 L 42,199 L 43,200 L 43,201 L 44,202 L 44,203 L 46,205 L 46,206 L 48,208 L 48,209 L 51,212 L 51,213 L 64,226 L 65,226 L 68,229 L 69,229 L 71,231 L 72,231 L 74,233 L 75,233 L 76,234 L 77,234 L 78,235 L 79,235 L 80,236 L 81,236 L 82,237 L 83,237 L 84,238 L 85,238 L 86,239 L 88,239 L 89,240 L 91,240 L 92,241 L 94,241 L 95,242 L 97,242 L 98,243 L 102,243 L 103,244 L 108,244 L 109,245 L 133,245 L 134,244 L 141,244 L 142,243 L 146,243 L 147,242 L 151,242 L 152,241 L 154,241 L 155,240 L 157,240 L 158,239 L 160,239 L 161,238 L 162,238 L 163,237 L 164,237 L 165,236 L 167,236 L 169,234 L 170,234 L 171,233 L 172,233 L 174,231 L 175,231 L 179,227 L 180,227 L 185,222 L 185,221 L 188,218 L 188,217 L 191,214 L 191,213 L 192,212 L 192,211 L 193,210 L 193,209 L 194,208 L 194,207 L 195,206 L 195,205 L 196,204 L 196,203 L 197,202 L 197,201 L 208,190 L 209,190 L 212,187 L 213,187 L 215,185 L 216,185 L 218,183 L 219,183 L 218,182 L 218,181 L 216,179 L 216,178 L 212,174 L 212,173 L 208,169 L 208,168 L 207,167 L 207,153 L 206,152 L 206,144 L 205,143 L 205,139 L 204,138 L 204,135 L 203,134 L 203,132 L 202,131 L 202,129 L 201,128 L 201,126 L 200,125 L 200,124 L 199,123 L 199,121 L 198,120 L 198,119 L 197,118 L 197,117 L 195,115 L 195,114 L 194,113 L 194,112 L 192,110 L 192,109 L 190,107 L 190,106 L 187,103 L 187,102 L 175,90 L 174,90 L 171,87 L 170,87 L 168,85 L 167,85 L 165,83 L 164,83 L 163,82 L 162,82 L 160,80 L 159,80 L 158,79 L 157,79 L 156,78 L 154,78 L 153,77 L 152,77 L 151,76 L 149,76 L 148,75 L 146,75 L 145,74 L 143,74 L 142,73 L 139,73 L 138,72 L 133,72 L 132,71 L 123,71 L 122,70 L 121,71 L 120,70 Z" fill="#f0f0f0" stroke="none" /></svg>