<?xml version="1.0" encoding="utf-8" ?>
<svg baseProfile="full" height="500" version="1.1" viewBox="0 0 500 500" width="500" xmlns="http://www.w3.org/2000/svg" xmlns:ev="http://www.w3.org/2001/xml-events" xmlns:xlink="http://www.w3.org/1999/xlink"><defs /><path d="M 132,146 L 131,147 L 126,147 L 125,148 L 123,148 L 122,149 L 120,149 L 119,150 L 118,150 L 117,151 L 116,151 L 114,153 L 113,153 L 109,157 L 109,158 L 107,160 L 107,161 L 106,162 L 106,165 L 105,166 L 105,170 L 104,171 L 104,194 L 105,195 L 105,203 L 106,204 L 106,208 L 107,209 L 107,210 L 106,211 L 108,213 L 108,214 L 107,215 L 107,223 L 106,224 L 106,238 L 105,239 L 105,280 L 106,281 L 106,291 L 107,292 L 107,299 L 108,300 L 108,305 L 109,306 L 109,310 L 110,311 L 110,315 L 111,316 L 111,318 L 112,319 L 112,322 L 113,323 L 113,325 L 114,326 L 114,327 L 115,328 L 115,329 L 123,337 L 124,337 L 129,342 L 130,342 L 133,345 L 134,345 L 138,349 L 139,349 L 142,352 L 143,352 L 146,355 L 147,355 L 149,357 L 150,357 L 153,360 L 154,360 L 156,362 L 157,362 L 159,364 L 160,364 L 162,366 L 163,366 L 165,368 L 166,368 L 167,369 L 168,369 L 170,371 L 171,371 L 172,372 L 173,372 L 175,374 L 176,374 L 177,375 L 178,375 L 180,377 L 181,377 L 182,378 L 183,378 L 184,379 L 185,379 L 186,380 L 187,380 L 188,381 L 189,381 L 190,382 L 191,382 L 192,383 L 193,383 L 194,384 L 195,384 L 196,385 L 198,385 L 199,386 L 200,386 L 201,387 L 203,387 L 204,388 L 205,388 L 206,389 L 209,389 L 210,390 L 212,390 L 213,391 L 216,391 L 217,392 L 219,392 L 220,393 L 220,405 L 219,406 L 219,419 L 218,420 L 218,432 L 217,433 L 217,446 L 216,447 L 216,459 L 215,460 L 215,473 L 214,474 L 214,482 L 216,484 L 217,484 L 218,485 L 221,485 L 222,486 L 226,486 L 227,487 L 237,487 L 238,488 L 260,488 L 261,487 L 272,487 L 273,486 L 278,486 L 279,485 L 282,485 L 283,484 L 285,484 L 286,483 L 287,483 L 289,481 L 289,479 L 288,478 L 288,469 L 287,468 L 287,459 L 286,458 L 286,449 L 285,448 L 285,439 L 284,438 L 284,429 L 283,428 L 283,419 L 282,418 L 282,409 L 281,408 L 281,399 L 280,398 L 280,393 L 281,392 L 282,392 L 283,391 L 286,391 L 287,390 L 290,390 L 291,389 L 293,389 L 294,388 L 295,388 L 296,387 L 298,387 L 299,386 L 300,386 L 301,385 L 303,385 L 304,384 L 305,384 L 306,383 L 307,383 L 308,382 L 309,382 L 310,381 L 311,381 L 312,380 L 313,380 L 314,379 L 315,379 L 316,378 L 317,378 L 318,377 L 319,377 L 321,375 L 322,375 L 323,374 L 324,374 L 325,373 L 326,373 L 328,371 L 329,371 L 331,369 L 332,369 L 333,368 L 334,368 L 336,366 L 337,366 L 339,364 L 340,364 L 342,362 L 343,362 L 345,360 L 346,360 L 349,357 L 350,357 L 352,355 L 353,355 L 356,352 L 358,352 L 358,351 L 360,349 L 361,349 L 365,345 L 366,345 L 369,342 L 370,342 L 374,338 L 375,338 L 381,332 L 382,332 L 382,331 L 384,329 L 384,328 L 385,327 L 385,326 L 386,325 L 386,323 L 387,322 L 387,320 L 388,319 L 388,317 L 389,316 L 389,313 L 390,312 L 390,308 L 391,307 L 391,303 L 392,302 L 392,296 L 393,295 L 393,293 L 394,292 L 393,291 L 393,287 L 394,286 L 394,271 L 395,270 L 395,251 L 394,250 L 394,231 L 393,230 L 393,218 L 392,217 L 391,218 L 390,217 L 390,216 L 391,215 L 391,213 L 392,212 L 392,209 L 393,208 L 393,203 L 394,202 L 394,195 L 395,194 L 395,172 L 394,171 L 394,165 L 393,164 L 393,162 L 392,161 L 392,160 L 391,159 L 391,158 L 387,154 L 386,154 L 383,151 L 382,151 L 381,150 L 380,150 L 379,149 L 377,149 L 376,148 L 374,148 L 373,147 L 368,147 L 367,146 L 366,146 L 365,147 L 360,147 L 359,148 L 358,148 L 357,149 L 356,149 L 353,152 L 353,153 L 352,154 L 352,155 L 351,156 L 351,159 L 350,160 L 350,165 L 351,166 L 351,171 L 352,172 L 352,175 L 353,176 L 353,178 L 354,179 L 354,181 L 355,182 L 355,184 L 356,185 L 356,186 L 355,187 L 353,187 L 352,188 L 350,188 L 349,189 L 348,189 L 347,190 L 346,190 L 345,191 L 345,192 L 344,193 L 344,194 L 343,195 L 343,198 L 342,199 L 343,200 L 343,201 L 344,202 L 344,203 L 345,204 L 345,205 L 346,206 L 346,207 L 348,209 L 348,211 L 349,211 L 350,212 L 350,213 L 353,216 L 353,217 L 356,220 L 356,221 L 360,225 L 360,230 L 361,231 L 361,247 L 362,248 L 362,272 L 361,273 L 361,286 L 360,287 L 360,293 L 359,294 L 359,299 L 358,300 L 358,304 L 357,305 L 357,307 L 356,308 L 356,310 L 354,312 L 353,312 L 349,316 L 348,316 L 344,320 L 343,320 L 340,323 L 339,323 L 336,326 L 335,326 L 332,329 L 331,329 L 328,332 L 327,332 L 325,334 L 324,334 L 322,336 L 321,336 L 319,338 L 318,338 L 316,340 L 315,340 L 314,341 L 313,341 L 311,343 L 310,343 L 308,345 L 307,345 L 306,346 L 305,346 L 304,347 L 303,347 L 301,349 L 300,349 L 299,350 L 298,350 L 297,351 L 296,351 L 295,352 L 294,352 L 293,353 L 292,353 L 291,354 L 290,354 L 289,355 L 287,355 L 286,356 L 285,356 L 284,357 L 282,357 L 281,358 L 279,358 L 278,359 L 275,359 L 274,360 L 272,360 L 271,359 L 271,358 L 273,356 L 276,356 L 277,355 L 279,355 L 280,354 L 282,354 L 283,353 L 285,353 L 286,352 L 287,352 L 288,351 L 289,351 L 290,350 L 291,350 L 292,349 L 293,349 L 294,348 L 295,348 L 296,347 L 297,347 L 298,346 L 299,346 L 301,344 L 302,344 L 305,341 L 306,341 L 310,337 L 311,337 L 320,328 L 320,327 L 323,324 L 323,323 L 326,320 L 326,319 L 328,317 L 328,316 L 329,315 L 329,314 L 330,313 L 330,312 L 332,310 L 332,308 L 333,307 L 333,306 L 334,305 L 334,304 L 335,303 L 335,301 L 336,300 L 336,298 L 337,297 L 337,295 L 338,294 L 338,291 L 339,290 L 339,286 L 340,285 L 340,280 L 341,279 L 341,260 L 340,259 L 340,254 L 339,253 L 339,249 L 338,248 L 338,245 L 337,244 L 337,242 L 336,241 L 336,239 L 335,238 L 335,236 L 334,235 L 334,234 L 333,233 L 333,232 L 332,231 L 332,230 L 331,229 L 331,228 L 330,227 L 330,226 L 329,225 L 329,224 L 328,223 L 328,222 L 326,220 L 326,219 L 323,216 L 323,215 L 320,212 L 320,211 L 310,201 L 309,201 L 305,197 L 304,197 L 302,195 L 301,195 L 299,193 L 298,193 L 297,192 L 296,192 L 295,191 L 294,191 L 293,190 L 292,190 L 291,189 L 290,189 L 289,188 L 288,188 L 287,187 L 286,187 L 285,186 L 283,186 L 282,185 L 280,185 L 279,184 L 277,184 L 276,183 L 273,183 L 272,182 L 269,182 L 268,181 L 262,181 L 261,180 L 241,180 L 240,181 L 235,181 L 234,182 L 230,182 L 229,183 L 226,183 L 225,184 L 223,184 L 222,185 L 220,185 L 219,186 L 218,186 L 217,187 L 215,187 L 214,188 L 213,188 L 212,189 L 211,189 L 210,190 L 209,190 L 208,191 L 207,191 L 205,193 L 204,193 L 203,194 L 202,194 L 200,196 L 199,196 L 196,199 L 195,199 L 181,213 L 181,214 L 178,217 L 178,218 L 176,220 L 176,221 L 174,223 L 174,224 L 173,225 L 173,226 L 172,227 L 172,228 L 171,229 L 171,230 L 170,231 L 170,232 L 169,233 L 169,234 L 168,235 L 168,237 L 167,238 L 167,240 L 166,241 L 166,243 L 165,244 L 165,246 L 164,247 L 164,250 L 163,251 L 163,256 L 162,257 L 162,282 L 163,283 L 163,288 L 164,289 L 164,292 L 165,293 L 165,295 L 166,296 L 166,298 L 167,299 L 167,301 L 168,302 L 168,304 L 169,305 L 169,306 L 170,307 L 170,308 L 171,309 L 171,310 L 172,311 L 172,312 L 173,313 L 173,314 L 174,315 L 174,316 L 176,318 L 176,319 L 177,320 L 177,321 L 181,325 L 181,326 L 194,339 L 195,339 L 198,342 L 199,342 L 202,345 L 203,345 L 204,346 L 205,346 L 207,348 L 208,348 L 209,349 L 210,349 L 211,350 L 212,350 L 213,351 L 214,351 L 215,352 L 217,352 L 218,353 L 219,353 L 220,354 L 222,354 L 223,355 L 225,355 L 226,356 L 229,356 L 230,357 L 231,357 L 232,358 L 232,359 L 231,360 L 225,360 L 224,359 L 221,359 L 220,358 L 218,358 L 217,357 L 215,357 L 214,356 L 213,356 L 212,355 L 211,355 L 210,354 L 208,354 L 207,353 L 206,353 L 205,352 L 204,352 L 203,351 L 202,351 L 201,350 L 200,350 L 199,349 L 198,349 L 196,347 L 195,347 L 194,346 L 193,346 L 192,345 L 191,345 L 189,343 L 188,343 L 186,341 L 185,341 L 184,340 L 183,340 L 181,338 L 180,338 L 178,336 L 177,336 L 175,334 L 174,334 L 171,331 L 170,331 L 168,329 L 167,329 L 164,326 L 163,326 L 160,323 L 159,323 L 156,320 L 155,320 L 152,317 L 151,317 L 146,312 L 145,312 L 143,310 L 143,307 L 142,306 L 142,303 L 141,302 L 141,298 L 140,297 L 140,291 L 139,290 L 139,289 L 140,288 L 139,287 L 139,281 L 138,280 L 138,238 L 139,237 L 139,225 L 143,221 L 143,220 L 146,217 L 146,216 L 149,213 L 149,212 L 151,210 L 151,209 L 153,207 L 153,206 L 154,205 L 154,204 L 155,203 L 155,201 L 156,200 L 156,195 L 155,194 L 155,193 L 154,192 L 154,191 L 153,190 L 152,190 L 151,189 L 150,189 L 149,188 L 147,188 L 146,187 L 144,187 L 143,186 L 143,185 L 144,184 L 144,183 L 145,182 L 145,179 L 146,178 L 146,176 L 147,175 L 147,172 L 148,171 L 148,166 L 149,165 L 149,160 L 148,159 L 148,156 L 147,155 L 147,154 L 146,153 L 146,152 L 143,149 L 142,149 L 141,148 L 140,148 L 139,147 L 134,147 L 133,146 Z" fill="#000000" stroke="none" /><path d="M 205,13 L 203,15 L 203,27 L 204,28 L 204,33 L 205,34 L 205,37 L 206,38 L 206,41 L 207,42 L 207,45 L 208,46 L 208,48 L 209,49 L 209,51 L 210,52 L 210,53 L 211,54 L 211,55 L 212,56 L 212,58 L 213,59 L 213,60 L 214,61 L 214,62 L 215,63 L 215,64 L 216,65 L 216,66 L 217,67 L 217,68 L 218,69 L 218,70 L 219,71 L 219,72 L 220,73 L 220,74 L 221,75 L 221,76 L 222,77 L 222,79 L 223,80 L 223,82 L 224,83 L 224,86 L 225,87 L 225,89 L 224,90 L 222,90 L 218,86 L 218,85 L 217,84 L 217,82 L 216,81 L 216,79 L 215,78 L 215,76 L 214,75 L 214,74 L 213,73 L 213,72 L 210,69 L 205,69 L 202,72 L 202,74 L 201,75 L 201,79 L 200,80 L 200,122 L 199,123 L 199,129 L 198,130 L 198,133 L 197,134 L 197,135 L 196,136 L 194,134 L 194,132 L 193,131 L 193,127 L 192,126 L 192,119 L 191,118 L 191,101 L 190,100 L 190,88 L 188,86 L 185,86 L 184,87 L 183,87 L 183,88 L 182,89 L 182,90 L 181,91 L 181,93 L 180,94 L 180,96 L 179,97 L 179,99 L 178,100 L 178,102 L 177,103 L 177,105 L 176,106 L 176,108 L 175,109 L 175,110 L 174,111 L 174,113 L 173,114 L 173,116 L 172,117 L 172,118 L 171,119 L 171,121 L 170,122 L 170,123 L 169,124 L 169,125 L 168,126 L 168,127 L 167,128 L 167,129 L 166,130 L 166,131 L 165,132 L 165,133 L 164,134 L 164,135 L 162,137 L 162,138 L 161,139 L 160,138 L 160,127 L 161,126 L 161,121 L 162,120 L 162,116 L 163,115 L 163,111 L 164,110 L 164,107 L 165,106 L 165,103 L 166,102 L 166,99 L 167,98 L 167,95 L 168,94 L 168,88 L 166,86 L 162,86 L 160,88 L 160,89 L 158,91 L 158,92 L 156,94 L 156,95 L 153,98 L 153,99 L 151,101 L 151,102 L 149,104 L 149,105 L 147,107 L 147,108 L 143,112 L 143,113 L 140,116 L 140,117 L 137,120 L 136,119 L 136,117 L 137,116 L 137,115 L 138,114 L 138,112 L 139,111 L 139,110 L 140,109 L 140,108 L 141,107 L 141,106 L 142,105 L 142,103 L 143,102 L 143,101 L 144,100 L 144,99 L 145,98 L 145,97 L 146,96 L 146,95 L 147,94 L 147,93 L 148,92 L 148,90 L 149,89 L 149,88 L 150,87 L 150,86 L 151,85 L 151,84 L 152,83 L 152,82 L 153,81 L 153,77 L 152,76 L 151,76 L 150,75 L 147,75 L 144,78 L 143,78 L 140,81 L 139,81 L 135,85 L 134,85 L 131,88 L 130,88 L 128,90 L 127,90 L 125,92 L 124,92 L 123,91 L 123,90 L 125,88 L 125,87 L 128,84 L 128,83 L 134,77 L 134,76 L 145,65 L 145,64 L 149,60 L 149,59 L 152,56 L 152,55 L 154,53 L 154,52 L 156,50 L 156,49 L 157,48 L 157,47 L 159,45 L 159,44 L 160,43 L 160,42 L 161,41 L 161,40 L 162,39 L 162,37 L 163,36 L 163,34 L 164,33 L 164,31 L 165,30 L 165,27 L 166,26 L 166,17 L 164,15 L 161,15 L 160,16 L 159,16 L 158,17 L 158,18 L 157,19 L 157,24 L 156,25 L 156,28 L 155,29 L 155,31 L 154,32 L 154,34 L 153,35 L 153,36 L 152,37 L 152,38 L 151,39 L 151,40 L 150,41 L 150,42 L 148,44 L 148,45 L 147,46 L 147,47 L 144,50 L 144,51 L 142,53 L 142,54 L 137,59 L 137,60 L 125,72 L 125,73 L 120,78 L 120,79 L 117,82 L 117,83 L 115,85 L 115,86 L 114,87 L 114,88 L 113,89 L 113,90 L 112,91 L 112,99 L 115,102 L 116,102 L 117,103 L 122,103 L 123,102 L 125,102 L 126,101 L 128,101 L 130,99 L 131,99 L 133,97 L 134,97 L 135,98 L 134,99 L 134,100 L 133,101 L 133,102 L 132,103 L 132,104 L 131,105 L 131,106 L 130,107 L 130,109 L 129,110 L 129,111 L 128,112 L 128,114 L 127,115 L 127,116 L 126,117 L 126,118 L 125,119 L 126,120 L 126,127 L 127,128 L 127,129 L 128,130 L 129,130 L 130,131 L 132,131 L 133,132 L 135,132 L 136,131 L 137,131 L 138,132 L 138,131 L 140,129 L 141,129 L 148,122 L 148,121 L 151,118 L 152,119 L 152,124 L 151,125 L 151,142 L 152,143 L 152,144 L 153,145 L 153,146 L 154,147 L 155,147 L 156,148 L 164,148 L 165,147 L 166,147 L 169,144 L 170,144 L 170,142 L 172,140 L 172,139 L 173,138 L 173,137 L 174,136 L 174,135 L 175,134 L 175,133 L 176,132 L 176,131 L 177,130 L 177,129 L 178,128 L 178,126 L 179,125 L 179,124 L 180,123 L 180,122 L 181,121 L 181,120 L 182,119 L 183,120 L 183,128 L 184,129 L 184,133 L 185,134 L 185,137 L 186,138 L 186,139 L 187,140 L 187,141 L 191,145 L 193,145 L 194,146 L 197,146 L 198,145 L 200,145 L 205,140 L 205,139 L 206,138 L 206,136 L 207,135 L 207,132 L 208,131 L 208,125 L 209,124 L 209,92 L 210,91 L 211,92 L 211,93 L 214,96 L 215,96 L 217,98 L 218,98 L 219,99 L 222,99 L 223,100 L 226,100 L 227,99 L 229,99 L 230,98 L 231,98 L 232,97 L 232,96 L 233,95 L 233,94 L 234,93 L 234,85 L 233,84 L 233,81 L 232,80 L 232,78 L 231,77 L 231,75 L 230,74 L 230,73 L 229,72 L 229,70 L 228,69 L 228,68 L 227,67 L 227,66 L 226,65 L 226,64 L 225,63 L 225,62 L 224,61 L 224,60 L 223,59 L 223,58 L 222,57 L 222,56 L 221,55 L 221,54 L 220,53 L 220,52 L 219,51 L 219,49 L 218,48 L 218,47 L 217,46 L 217,44 L 216,43 L 216,40 L 215,39 L 215,37 L 214,36 L 214,32 L 213,31 L 213,26 L 212,25 L 212,16 L 209,13 Z" fill="#000000" stroke="none" /><path d="M 329,8 L 328,9 L 327,9 L 326,10 L 326,14 L 327,15 L 327,18 L 328,19 L 328,21 L 329,22 L 329,24 L 330,25 L 330,26 L 331,27 L 331,28 L 332,29 L 332,30 L 333,31 L 333,32 L 334,33 L 334,34 L 336,36 L 336,37 L 338,39 L 338,40 L 341,43 L 341,44 L 348,51 L 348,52 L 351,55 L 352,55 L 360,63 L 361,63 L 377,79 L 377,80 L 376,81 L 374,81 L 373,80 L 372,80 L 371,79 L 370,79 L 369,78 L 368,78 L 366,76 L 365,76 L 364,75 L 363,75 L 361,73 L 360,73 L 359,72 L 358,72 L 357,71 L 353,71 L 351,73 L 351,77 L 352,78 L 352,79 L 354,81 L 354,82 L 355,83 L 355,84 L 357,86 L 357,87 L 358,88 L 358,89 L 360,91 L 360,92 L 361,93 L 361,94 L 362,95 L 362,96 L 363,97 L 363,98 L 365,100 L 365,101 L 366,102 L 366,103 L 367,104 L 367,105 L 368,106 L 368,108 L 369,109 L 369,110 L 368,111 L 367,110 L 366,110 L 355,99 L 355,98 L 348,91 L 348,90 L 343,85 L 343,84 L 338,79 L 337,79 L 336,78 L 335,78 L 334,79 L 333,79 L 332,80 L 332,81 L 331,82 L 331,83 L 332,84 L 332,86 L 333,87 L 333,89 L 334,90 L 334,91 L 335,92 L 335,94 L 336,95 L 336,97 L 337,98 L 337,100 L 338,101 L 338,103 L 339,104 L 339,106 L 340,107 L 340,109 L 341,110 L 341,112 L 342,113 L 342,116 L 343,117 L 343,120 L 344,121 L 344,124 L 345,125 L 345,130 L 344,131 L 341,128 L 341,127 L 338,124 L 338,123 L 336,121 L 336,120 L 335,119 L 335,118 L 334,117 L 334,116 L 332,114 L 332,113 L 331,112 L 331,111 L 330,110 L 330,109 L 329,108 L 329,107 L 328,106 L 328,105 L 327,104 L 327,103 L 326,102 L 326,101 L 325,100 L 325,99 L 324,98 L 324,97 L 323,96 L 323,95 L 322,94 L 322,93 L 321,92 L 321,90 L 320,89 L 320,88 L 319,87 L 319,86 L 318,85 L 318,84 L 317,83 L 317,82 L 316,82 L 315,81 L 312,81 L 310,83 L 310,95 L 311,96 L 311,107 L 312,108 L 312,131 L 310,133 L 309,132 L 309,131 L 308,130 L 308,129 L 307,128 L 307,126 L 306,125 L 306,123 L 305,122 L 305,118 L 304,117 L 304,113 L 303,112 L 303,106 L 302,105 L 302,98 L 301,97 L 301,90 L 300,89 L 300,82 L 299,81 L 299,77 L 298,76 L 298,73 L 297,72 L 297,70 L 293,66 L 289,66 L 288,67 L 287,67 L 287,68 L 285,70 L 285,72 L 284,73 L 284,75 L 283,76 L 283,79 L 282,80 L 282,84 L 281,85 L 281,86 L 279,88 L 278,88 L 277,89 L 276,89 L 275,88 L 275,83 L 276,82 L 276,78 L 277,77 L 277,75 L 278,74 L 278,72 L 279,71 L 279,69 L 280,68 L 280,66 L 281,65 L 281,64 L 282,63 L 282,61 L 283,60 L 283,58 L 284,57 L 284,56 L 285,55 L 285,52 L 286,51 L 286,49 L 287,48 L 287,44 L 288,43 L 288,39 L 289,38 L 289,31 L 290,30 L 290,15 L 289,14 L 290,13 L 288,11 L 283,11 L 281,13 L 281,28 L 280,29 L 280,36 L 279,37 L 279,42 L 278,43 L 278,46 L 277,47 L 277,49 L 276,50 L 276,53 L 275,54 L 275,55 L 274,56 L 274,58 L 273,59 L 273,60 L 272,61 L 272,63 L 271,64 L 271,66 L 270,67 L 270,69 L 269,70 L 269,72 L 268,73 L 268,76 L 267,77 L 267,81 L 266,82 L 266,91 L 267,92 L 267,94 L 271,98 L 272,98 L 273,99 L 277,99 L 278,98 L 280,98 L 281,97 L 282,97 L 283,96 L 284,96 L 289,91 L 289,90 L 290,89 L 292,91 L 292,98 L 293,99 L 293,106 L 294,107 L 294,113 L 295,114 L 295,119 L 296,120 L 296,123 L 297,124 L 297,127 L 298,128 L 298,130 L 299,131 L 299,133 L 300,134 L 300,135 L 302,137 L 302,138 L 305,141 L 306,141 L 307,142 L 310,142 L 311,143 L 312,142 L 315,142 L 316,141 L 317,141 L 317,140 L 319,138 L 319,137 L 320,136 L 320,134 L 321,133 L 321,115 L 322,114 L 323,115 L 323,116 L 324,117 L 324,118 L 325,119 L 325,120 L 326,121 L 326,122 L 327,123 L 327,124 L 329,126 L 329,127 L 331,129 L 331,130 L 333,132 L 333,133 L 339,139 L 340,139 L 341,140 L 349,140 L 351,138 L 352,138 L 352,137 L 353,136 L 353,135 L 354,134 L 354,124 L 353,123 L 353,119 L 352,118 L 352,115 L 351,114 L 351,111 L 350,110 L 350,109 L 351,108 L 353,110 L 353,111 L 354,111 L 362,119 L 364,119 L 365,120 L 366,120 L 367,121 L 372,121 L 373,120 L 374,120 L 378,116 L 378,114 L 379,113 L 379,110 L 378,109 L 379,108 L 378,107 L 378,106 L 377,105 L 377,104 L 376,103 L 376,102 L 375,101 L 375,99 L 373,97 L 373,96 L 372,95 L 372,94 L 371,93 L 371,92 L 370,91 L 370,90 L 371,89 L 372,90 L 374,90 L 375,91 L 380,91 L 381,92 L 382,91 L 383,91 L 384,90 L 385,90 L 386,89 L 387,89 L 387,88 L 388,87 L 388,85 L 389,84 L 389,83 L 388,82 L 388,79 L 387,78 L 387,77 L 385,75 L 385,74 L 379,68 L 379,67 L 374,62 L 373,62 L 365,54 L 364,54 L 349,39 L 349,38 L 346,35 L 346,34 L 343,31 L 343,30 L 342,29 L 342,28 L 340,26 L 340,25 L 339,24 L 339,23 L 338,22 L 338,20 L 337,19 L 337,17 L 336,16 L 336,13 L 335,12 L 335,11 L 334,10 L 334,9 L 333,9 L 332,8 Z" fill="#000000" stroke="none" /><path d="M 251,196 L 250,197 L 239,197 L 238,198 L 235,198 L 234,199 L 231,199 L 230,200 L 228,200 L 227,201 L 225,201 L 224,202 L 223,202 L 222,203 L 220,203 L 219,204 L 218,204 L 217,205 L 216,205 L 214,207 L 213,207 L 212,208 L 211,208 L 208,211 L 207,211 L 203,215 L 202,215 L 197,220 L 197,221 L 192,226 L 192,227 L 190,229 L 190,230 L 188,232 L 188,233 L 187,234 L 187,235 L 186,236 L 186,237 L 185,238 L 185,239 L 184,240 L 184,241 L 183,242 L 183,244 L 182,245 L 182,247 L 181,248 L 181,250 L 180,251 L 180,255 L 179,256 L 179,262 L 178,263 L 178,276 L 179,277 L 179,283 L 180,284 L 180,287 L 181,288 L 181,291 L 182,292 L 182,294 L 183,295 L 183,296 L 184,297 L 184,299 L 185,300 L 185,301 L 186,302 L 186,303 L 187,304 L 187,305 L 188,306 L 188,307 L 190,309 L 190,310 L 192,312 L 192,313 L 197,318 L 197,319 L 202,324 L 203,324 L 207,328 L 208,328 L 211,331 L 212,331 L 213,332 L 214,332 L 215,333 L 216,333 L 218,335 L 219,335 L 220,336 L 222,336 L 223,337 L 224,337 L 225,338 L 227,338 L 228,339 L 230,339 L 231,340 L 234,340 L 235,341 L 239,341 L 240,342 L 250,342 L 251,343 L 252,343 L 253,342 L 263,342 L 264,341 L 268,341 L 269,340 L 272,340 L 273,339 L 275,339 L 276,338 L 278,338 L 279,337 L 280,337 L 281,336 L 282,336 L 283,335 L 284,335 L 285,334 L 286,334 L 287,333 L 288,333 L 289,332 L 290,332 L 292,330 L 293,330 L 296,327 L 297,327 L 309,315 L 309,314 L 312,311 L 312,310 L 313,309 L 313,308 L 315,306 L 315,305 L 316,304 L 316,303 L 317,302 L 317,301 L 318,300 L 318,299 L 319,298 L 319,296 L 320,295 L 320,294 L 321,293 L 321,291 L 322,290 L 322,287 L 323,286 L 323,282 L 324,281 L 324,258 L 323,257 L 323,253 L 322,252 L 322,249 L 321,248 L 321,246 L 320,245 L 320,244 L 319,243 L 319,241 L 318,240 L 318,239 L 317,238 L 317,237 L 316,236 L 316,235 L 315,234 L 315,233 L 314,232 L 314,231 L 312,229 L 312,228 L 309,225 L 309,224 L 297,212 L 296,212 L 293,209 L 292,209 L 290,207 L 289,207 L 288,206 L 287,206 L 286,205 L 285,205 L 284,204 L 283,204 L 282,203 L 281,203 L 280,202 L 279,202 L 278,201 L 276,201 L 275,200 L 273,200 L 272,199 L 269,199 L 268,198 L 264,198 L 263,197 L 253,197 L 252,196 Z" fill="#f0f0f0" stroke="none" /><path d="M 364,159 L 363,160 L 363,168 L 364,169 L 364,171 L 365,172 L 365,175 L 366,176 L 366,177 L 367,178 L 367,180 L 368,181 L 368,182 L 369,183 L 369,185 L 370,186 L 370,187 L 371,188 L 371,189 L 372,190 L 372,195 L 368,199 L 356,199 L 357,200 L 357,201 L 359,203 L 359,204 L 361,206 L 361,207 L 364,210 L 364,211 L 369,216 L 369,217 L 371,217 L 372,216 L 373,216 L 375,214 L 376,214 L 379,211 L 379,210 L 380,209 L 380,206 L 381,205 L 381,200 L 382,199 L 382,188 L 383,187 L 383,177 L 382,176 L 382,169 L 381,168 L 381,166 L 377,162 L 376,162 L 375,161 L 374,161 L 373,160 L 371,160 L 370,159 Z" fill="#f0f0f0" stroke="none" /><path d="M 129,159 L 128,160 L 126,160 L 125,161 L 124,161 L 123,162 L 122,162 L 118,166 L 118,168 L 117,169 L 117,176 L 116,177 L 116,188 L 117,189 L 117,199 L 118,200 L 118,205 L 119,206 L 119,209 L 120,210 L 120,211 L 123,214 L 124,214 L 126,216 L 130,216 L 135,211 L 135,210 L 138,207 L 138,206 L 140,204 L 140,203 L 142,201 L 142,200 L 143,199 L 131,199 L 127,195 L 127,190 L 128,189 L 128,188 L 129,187 L 129,186 L 130,185 L 130,183 L 131,182 L 131,181 L 132,180 L 132,178 L 133,177 L 133,175 L 134,174 L 134,172 L 135,171 L 135,168 L 136,167 L 136,160 L 135,159 Z" fill="#f0f0f0" stroke="none" /><path d="M 200,16 L 199,17 L 188,17 L 187,18 L 186,17 L 180,17 L 179,18 L 168,18 L 168,25 L 167,26 L 167,30 L 166,31 L 166,33 L 165,34 L 165,36 L 164,37 L 164,38 L 163,39 L 163,41 L 162,42 L 162,43 L 161,44 L 161,45 L 159,47 L 159,48 L 158,49 L 158,50 L 156,52 L 156,53 L 154,55 L 154,56 L 152,58 L 152,59 L 148,63 L 148,64 L 139,73 L 139,74 L 131,82 L 131,83 L 127,87 L 127,88 L 126,89 L 127,88 L 128,88 L 131,85 L 132,85 L 135,82 L 136,82 L 140,78 L 141,78 L 144,75 L 145,75 L 146,74 L 147,74 L 148,73 L 150,73 L 151,74 L 152,74 L 155,77 L 155,81 L 154,82 L 154,83 L 153,84 L 153,85 L 152,86 L 152,87 L 151,88 L 151,89 L 150,90 L 150,92 L 149,93 L 149,94 L 148,95 L 148,96 L 147,97 L 147,98 L 146,99 L 146,100 L 145,101 L 145,102 L 144,103 L 144,104 L 143,105 L 143,107 L 142,108 L 142,109 L 141,110 L 141,111 L 140,112 L 140,113 L 139,114 L 139,115 L 141,113 L 141,112 L 144,109 L 144,108 L 147,105 L 147,104 L 149,102 L 149,101 L 151,99 L 151,98 L 153,96 L 153,95 L 155,93 L 155,92 L 158,89 L 158,88 L 162,84 L 166,84 L 167,85 L 168,85 L 169,86 L 169,87 L 170,88 L 170,93 L 169,94 L 169,97 L 168,98 L 168,101 L 167,102 L 167,105 L 166,106 L 166,110 L 165,111 L 165,115 L 164,116 L 164,119 L 163,120 L 163,125 L 162,126 L 162,134 L 161,135 L 161,136 L 162,135 L 162,134 L 163,133 L 163,132 L 164,131 L 164,130 L 165,129 L 165,128 L 166,127 L 166,126 L 167,125 L 167,124 L 168,123 L 168,122 L 169,121 L 169,119 L 170,118 L 170,117 L 171,116 L 171,114 L 172,113 L 172,112 L 173,111 L 173,109 L 174,108 L 174,106 L 175,105 L 175,103 L 176,102 L 176,101 L 177,100 L 177,98 L 178,97 L 178,95 L 179,94 L 179,92 L 180,91 L 180,89 L 181,88 L 181,87 L 183,85 L 184,85 L 185,84 L 188,84 L 192,88 L 192,103 L 193,104 L 193,119 L 194,120 L 194,127 L 195,128 L 195,132 L 196,133 L 196,131 L 197,130 L 197,125 L 198,124 L 198,81 L 199,80 L 199,75 L 200,74 L 200,72 L 205,67 L 210,67 L 215,72 L 215,73 L 216,74 L 216,75 L 217,76 L 217,78 L 218,79 L 218,81 L 219,82 L 219,84 L 220,85 L 220,86 L 222,88 L 223,88 L 223,86 L 222,85 L 222,83 L 221,82 L 221,80 L 220,79 L 220,77 L 219,76 L 219,75 L 218,74 L 218,73 L 217,72 L 217,71 L 216,70 L 216,68 L 214,66 L 214,65 L 213,64 L 213,63 L 212,62 L 212,61 L 211,60 L 211,59 L 210,58 L 210,56 L 209,55 L 209,54 L 208,53 L 208,51 L 207,50 L 207,48 L 206,47 L 206,45 L 205,44 L 205,42 L 204,41 L 204,38 L 203,37 L 203,33 L 202,32 L 202,26 L 201,25 L 201,16 Z" fill="#f0f0f0" stroke="none" /><path d="M 308,12 L 307,13 L 297,13 L 296,14 L 295,13 L 291,13 L 291,14 L 292,15 L 292,27 L 291,28 L 291,37 L 290,38 L 290,43 L 289,44 L 289,47 L 288,48 L 288,51 L 287,52 L 287,54 L 286,55 L 286,57 L 285,58 L 285,60 L 284,61 L 284,63 L 283,64 L 283,65 L 282,66 L 282,68 L 281,69 L 281,70 L 280,71 L 280,73 L 279,74 L 279,77 L 278,78 L 278,81 L 277,82 L 277,87 L 280,84 L 280,81 L 281,80 L 281,77 L 282,76 L 282,73 L 283,72 L 283,70 L 285,68 L 285,67 L 287,65 L 288,65 L 289,64 L 293,64 L 294,65 L 295,65 L 297,67 L 297,68 L 299,70 L 299,72 L 300,73 L 300,76 L 301,77 L 301,82 L 302,83 L 302,90 L 303,91 L 303,98 L 304,99 L 304,106 L 305,107 L 305,112 L 306,113 L 306,118 L 307,119 L 307,122 L 308,123 L 308,126 L 309,127 L 309,128 L 310,129 L 310,130 L 310,106 L 309,105 L 309,94 L 308,93 L 308,83 L 312,79 L 315,79 L 316,80 L 317,80 L 319,82 L 319,83 L 320,84 L 320,85 L 321,86 L 321,87 L 322,88 L 322,89 L 323,90 L 323,92 L 324,93 L 324,94 L 325,95 L 325,96 L 326,97 L 326,98 L 327,99 L 327,100 L 328,101 L 328,102 L 329,103 L 329,104 L 330,105 L 330,106 L 331,107 L 331,108 L 332,109 L 332,110 L 333,111 L 333,112 L 334,113 L 334,114 L 336,116 L 336,117 L 337,118 L 337,119 L 339,121 L 339,122 L 340,123 L 340,124 L 343,127 L 343,128 L 343,125 L 342,124 L 342,120 L 341,119 L 341,116 L 340,115 L 340,113 L 339,112 L 339,110 L 338,109 L 338,107 L 337,106 L 337,104 L 336,103 L 336,101 L 335,100 L 335,98 L 334,97 L 334,95 L 333,94 L 333,92 L 332,91 L 332,89 L 331,88 L 331,87 L 330,86 L 330,80 L 333,77 L 338,77 L 346,85 L 346,86 L 351,91 L 351,92 L 359,100 L 359,101 L 365,107 L 366,107 L 367,108 L 366,107 L 366,106 L 365,105 L 365,104 L 364,103 L 364,102 L 363,101 L 363,100 L 361,98 L 361,97 L 360,96 L 360,95 L 359,94 L 359,93 L 357,91 L 357,90 L 356,89 L 356,88 L 355,87 L 355,86 L 353,84 L 353,83 L 352,82 L 352,81 L 351,80 L 351,79 L 349,77 L 349,73 L 350,72 L 350,71 L 351,70 L 352,70 L 353,69 L 357,69 L 358,70 L 359,70 L 360,71 L 361,71 L 363,73 L 364,73 L 365,74 L 366,74 L 368,76 L 369,76 L 370,77 L 371,77 L 372,78 L 373,78 L 374,79 L 375,79 L 362,66 L 361,66 L 354,59 L 353,59 L 343,49 L 343,48 L 338,43 L 338,42 L 335,39 L 335,38 L 333,36 L 333,35 L 332,34 L 332,33 L 331,32 L 331,31 L 330,30 L 330,29 L 329,28 L 329,27 L 328,26 L 328,25 L 327,24 L 327,22 L 326,21 L 326,19 L 325,18 L 325,14 L 324,13 L 325,12 Z" fill="#f0f0f0" stroke="none" /></svg>