<?xml version="1.0" encoding="UTF-8"?>
<!-- Generator: visioncortex VTracer -->
<svg id="svg" version="1.1" xmlns="http://www.w3.org/2000/svg" style="display: block;" viewBox="0 0 500 500"><path d="M0 0 C0.87235894 -0.00297112 1.74471789 -0.00594224 2.64351195 -0.0090034 C5.57214 -0.01768803 8.50072716 -0.01919845 11.42936707 -0.02069092 C13.52694791 -0.02531923 15.62452791 -0.0303439 17.72210693 -0.03573608 C23.42463723 -0.04886013 29.12715576 -0.05530496 34.8296988 -0.05974674 C38.39170315 -0.06267723 41.95370428 -0.06678197 45.51570702 -0.07125092 C56.65841749 -0.08492534 67.80112061 -0.09459249 78.94383889 -0.09845281 C91.81034044 -0.10293472 104.67673582 -0.12048912 117.54320508 -0.1494534 C127.48641485 -0.17106082 137.42959471 -0.18115657 147.37282771 -0.18249393 C153.31260711 -0.18354255 159.2522867 -0.18946272 165.1920414 -0.20731354 C170.77919044 -0.22377807 176.36616445 -0.22595752 181.95332909 -0.21717453 C184.00318241 -0.21640331 186.05304508 -0.22075798 188.10287476 -0.23063278 C190.90302043 -0.24333038 193.70254416 -0.23748728 196.50268555 -0.22705078 C197.31223011 -0.23510719 198.12177468 -0.24316359 198.9558509 -0.25146413 C205.14444505 -0.19758522 209.83250691 1.02478406 214.75431824 5.01544189 C218.0982901 9.22636942 218.68954492 13.03164773 218.6443634 18.32240295 C218.63869858 19.56615692 218.63303375 20.80991089 218.62719727 22.09135437 C218.61067789 23.4616417 218.59396299 24.83192668 218.57707214 26.20220947 C218.56664108 27.6511984 218.55710677 29.10019402 218.54840088 30.54919434 C218.52226717 34.47657289 218.48359968 38.40373961 218.44267702 42.33098817 C218.40201892 46.43755726 218.37289413 50.54420777 218.34254456 54.65086365 C218.28334229 62.42458539 218.21377173 70.19817836 218.14047372 77.97177857 C218.05752038 86.82293294 217.98612911 95.67416876 217.91570783 104.52543032 C217.77060754 122.73055469 217.61099133 140.93552611 217.44181824 159.14044189 C220.74181824 159.14044189 224.04181824 159.14044189 227.44181824 159.14044189 C228.57902761 165.39509346 229.00962402 171.79834002 228.44181824 178.14044189 C226.44181824 180.14044189 226.44181824 180.14044189 224.55309242 180.38998955 C223.7767267 180.38977219 223.00036097 180.38955482 222.20046902 180.38933086 C221.30535435 180.39392966 220.41023969 180.39852846 219.48800033 180.40326661 C218.49842537 180.39812305 217.50885041 180.39297948 216.48928833 180.38768005 C215.44289564 180.39009447 214.39650295 180.39250888 213.3184014 180.39499646 C209.78908423 180.40066176 206.25994581 180.39194901 202.7306366 180.38336182 C200.20982819 180.38443399 197.68902003 180.3863717 195.16821289 180.38911438 C189.01857375 180.39347039 182.86900169 180.38850611 176.71936982 180.37926408 C169.56458717 180.36889659 162.40981623 180.36894982 155.25502748 180.36943666 C142.49363062 180.36993763 129.7322588 180.36076609 116.97087097 180.34625244 C104.57470748 180.33216137 92.17856602 180.32508177 79.78239441 180.32574463 C78.63702438 180.32580456 78.63702438 180.32580456 77.46851557 180.32586571 C76.32516721 180.32592624 76.32516721 180.32592624 75.15872091 180.32598799 C61.06425876 180.32667706 46.96980602 180.3207926 32.87534691 180.31183478 C27.88242231 180.3088129 22.88949943 180.30775457 17.89657402 180.30730247 C11.18340786 180.30655087 4.47026825 180.30022614 -2.24289131 180.29013634 C-4.71452186 180.28720311 -7.1861551 180.28598762 -9.65778732 180.28656387 C-13.01609529 180.28705076 -16.37433675 180.28143661 -19.7326355 180.27415466 C-21.22034402 180.27647757 -21.22034402 180.27647757 -22.73810726 180.2788474 C-24.07686764 180.27401073 -24.07686764 180.27401073 -25.44267368 180.26907635 C-26.21887705 180.26837192 -26.99508042 180.2676675 -27.79480511 180.26694173 C-29.55818176 180.14044189 -29.55818176 180.14044189 -30.55818176 179.14044189 C-30.64487608 177.6517233 -30.6652167 176.1589969 -30.65583801 174.66778564 C-30.65261536 173.76866455 -30.6493927 172.86954346 -30.64607239 171.94317627 C-30.63769348 170.99764893 -30.62931458 170.05212158 -30.62068176 169.07794189 C-30.61617004 168.12854736 -30.61165833 167.17915283 -30.60700989 166.20098877 C-30.59518304 163.84744658 -30.57724698 161.49393658 -30.55818176 159.14044189 C-27.58818176 159.14044189 -24.61818176 159.14044189 -21.55818176 159.14044189 C-21.720513 158.23547974 -21.88284424 157.33051758 -22.0500946 156.39813232 C-22.82059346 150.95730095 -22.69740539 145.50173776 -22.68757629 140.01739502 C-22.68932861 138.81151733 -22.69108093 137.60563965 -22.69288635 136.36322021 C-22.69652332 133.06933051 -22.69568389 129.77548125 -22.69250727 126.48159218 C-22.68996174 123.01594589 -22.69232772 119.55030216 -22.69389343 116.08465576 C-22.69571069 110.25754314 -22.69332249 104.43044321 -22.68855286 98.60333252 C-22.68313154 91.90347534 -22.68485912 85.2036487 -22.69037926 78.50379229 C-22.6949476 72.72426868 -22.69554228 66.94475416 -22.69294059 61.16522932 C-22.6913955 57.72585521 -22.69113437 54.28649534 -22.69447708 50.84712219 C-22.72027847 12.15216277 -22.72027847 12.15216277 -18.55818176 5.14044189 C-12.40691027 0.29795157 -7.61018236 -0.00807865 0 0 Z " transform="translate(230.5581817626953,42.85955810546875)" style="fill: #156331;"/><path d="M0 0 C9.69201615 9.07406881 15.0709285 20.81734689 16.515625 33.9296875 C16.47239992 44.53063926 15.46229869 54.42179521 10.515625 63.9296875 C9.855625 63.9296875 9.195625 63.9296875 8.515625 63.9296875 C8.350625 64.7753125 8.185625 65.6209375 8.015625 66.4921875 C5.90793278 71.3223155 2.60118333 73.72729907 -1.484375 76.9296875 C-2.18691406 77.50460938 -2.88945312 78.07953125 -3.61328125 78.671875 C-7.22150621 81.53380675 -9.80654493 83.36267779 -14.484375 83.9296875 C-14.814375 84.5896875 -15.144375 85.2496875 -15.484375 85.9296875 C-17.55078125 86.34375 -17.55078125 86.34375 -20.046875 86.5546875 C-21.28630859 86.66683594 -21.28630859 86.66683594 -22.55078125 86.78125 C-23.18886719 86.83023438 -23.82695313 86.87921875 -24.484375 86.9296875 C-23.47276652 91.32283543 -23.47276652 91.32283543 -20.359375 94.3046875 C-19.740625 94.5109375 -19.121875 94.7171875 -18.484375 94.9296875 C-18.484375 95.5896875 -18.484375 96.2496875 -18.484375 96.9296875 C-17.824375 96.9296875 -17.164375 96.9296875 -16.484375 96.9296875 C-13.84270871 103.10053642 -11.24994838 109.24493426 -9.21435547 115.64526367 C-7.57118476 120.78745376 -5.83998451 125.90116069 -4.08984375 131.0078125 C-0.15866686 142.53615017 3.32430804 154.17479801 6.515625 165.9296875 C6.72598389 166.61756348 6.93634277 167.30543945 7.15307617 168.01416016 C7.515625 169.9296875 7.515625 169.9296875 6.515625 172.9296875 C7.175625 173.2596875 7.835625 173.5896875 8.515625 173.9296875 C8.515625 178.8796875 8.515625 183.8296875 8.515625 188.9296875 C9.175625 189.2596875 9.835625 189.5896875 10.515625 189.9296875 C10.495 190.8784375 10.474375 191.8271875 10.453125 192.8046875 C10.29010674 195.83635033 10.29010674 195.83635033 11.515625 197.9296875 C11.83063105 201.00974662 12.02646148 204.09068662 12.234375 207.1796875 C12.34749992 209.88834743 12.34749992 209.88834743 13.515625 211.9296875 C13.69705443 213.80157845 13.83670003 215.67763194 13.953125 217.5546875 C14.27554801 221.85877881 14.87700854 225.73355135 16.046875 229.87109375 C16.62037262 232.38970415 16.81783303 234.85485991 17.015625 237.4296875 C17.50432266 243.52998248 18.56112062 248.79159769 21.078125 254.4296875 C24.84938428 263.61188401 23.03315021 270.82426187 19.515625 279.9296875 C16.19329525 285.72022579 16.19329525 285.72022579 12.078125 286.9921875 C8.06125334 286.92171607 6.54239087 286.53606922 3.515625 283.9296875 C-2.23231783 275.20132987 -2.04717785 263.99469665 -1.484375 253.9296875 C-1.154375 252.9396875 -0.824375 251.9496875 -0.484375 250.9296875 C-1.144375 250.5996875 -1.804375 250.2696875 -2.484375 249.9296875 C-2.79296875 248.0234375 -2.79296875 248.0234375 -2.921875 245.4296875 C-3.26540512 240.76241615 -3.92426813 236.27729359 -4.796875 231.6796875 C-6.67226142 221.69186103 -7.87224739 211.61054875 -9.1262207 201.53027344 C-9.28823975 200.23379883 -9.45025879 198.93732422 -9.6171875 197.6015625 C-9.76043457 196.4372168 -9.90368164 195.27287109 -10.05126953 194.07324219 C-10.43147421 190.98354138 -10.43147421 190.98354138 -11.10107422 188.20019531 C-11.484375 185.9296875 -11.484375 185.9296875 -10.484375 182.9296875 C-11.144375 182.5996875 -11.804375 182.2696875 -12.484375 181.9296875 C-12.41089844 180.49302734 -12.41089844 180.49302734 -12.3359375 179.02734375 C-12.33833536 174.26159367 -13.58350317 169.92950447 -14.859375 165.3671875 C-15.08109375 164.54283203 -15.3028125 163.71847656 -15.53125 162.86914062 C-16.7176447 158.50390602 -18.05180462 154.22100323 -19.484375 149.9296875 C-19.85357691 147.93599719 -20.19763082 145.93689673 -20.484375 143.9296875 C-21.144375 143.9296875 -21.804375 143.9296875 -22.484375 143.9296875 C-22.42451416 145.23212402 -22.36465332 146.53456055 -22.30297852 147.87646484 C-21.69898534 161.06274132 -21.11252993 174.24968541 -20.55444336 187.43798828 C-20.46530106 189.53373534 -20.37511432 191.62943821 -20.28393555 193.72509766 C-19.3936106 214.20415278 -19.3936106 214.20415278 -19.48266602 223.54394531 C-19.48528918 227.20587765 -19.24601188 230.84116371 -18.984375 234.4921875 C-18.67095583 239.14158107 -18.45158389 243.70517732 -18.609375 248.3671875 C-18.66712623 253.8618041 -17.72602575 259.13741598 -16.7644043 264.52514648 C-15.48555179 271.70468236 -14.50014914 278.90889412 -13.57495117 286.1418457 C-13.00725776 290.47860493 -12.34889653 294.75543278 -11.4609375 299.0390625 C-10.52185369 303.57017529 -9.90890357 308.08044381 -9.421875 312.6796875 C-8.81876588 318.25504892 -8.81876588 318.25504892 -8.00463867 323.80273438 C-7.1276221 329.07388794 -6.51093247 334.37673365 -5.859375 339.6796875 C-5.71242188 340.82824219 -5.56546875 341.97679687 -5.4140625 343.16015625 C-5.21296875 344.80177734 -5.21296875 344.80177734 -5.0078125 346.4765625 C-4.88325684 347.47526367 -4.75870117 348.47396484 -4.63037109 349.50292969 C-4.484375 351.9296875 -4.484375 351.9296875 -5.484375 353.9296875 C-5.65827296 355.35532211 -5.77975839 356.78755059 -5.87329102 358.22070312 C-5.93327774 359.10922974 -5.99326447 359.99775635 -6.05506897 360.91320801 C-6.11552902 361.87770874 -6.17598907 362.84220947 -6.23828125 363.8359375 C-6.30345444 364.83040894 -6.36862762 365.82488037 -6.43577576 366.8494873 C-6.57312463 368.96104674 -6.70832125 371.07274709 -6.84155273 373.18457031 C-7.04430486 376.38906645 -7.25499879 379.59296551 -7.46679688 382.796875 C-7.59943847 384.85153156 -7.73161428 386.90621825 -7.86328125 388.9609375 C-7.92576553 389.90924438 -7.98824982 390.85755127 -8.05262756 391.83459473 C-8.38365309 397.15657725 -8.5393572 402.43945469 -8.48141479 407.77189636 C-8.48701256 411.85229458 -8.963075 415.89280725 -9.36328125 419.94921875 C-9.6002525 425.78176925 -7.66604812 429.9142402 -4.984375 434.9921875 C-0.0549401 444.38582951 -0.0549401 444.38582951 -1.12109375 448.21875 C-1.64123047 449.37503906 -1.64123047 449.37503906 -2.171875 450.5546875 C-2.67267578 451.71871094 -2.67267578 451.71871094 -3.18359375 452.90625 C-5.12453494 455.92549186 -7.26175631 456.5940231 -10.6328125 457.51953125 C-16.49891015 458.43546579 -16.49891015 458.43546579 -19.40234375 456.9453125 C-21.046875 455.6171875 -21.046875 455.6171875 -23.484375 452.9296875 C-23.484375 452.2696875 -23.484375 451.6096875 -23.484375 450.9296875 C-24.144375 450.5996875 -24.804375 450.2696875 -25.484375 449.9296875 C-26.44580078 448.28735352 -26.44580078 448.28735352 -27.4296875 446.18359375 C-27.78417969 445.42884766 -28.13867188 444.67410156 -28.50390625 443.89648438 C-28.86871094 443.10306641 -29.23351562 442.30964844 -29.609375 441.4921875 C-29.98191406 440.70263672 -30.35445312 439.91308594 -30.73828125 439.09960938 C-33.484375 433.20003434 -33.484375 433.20003434 -33.484375 430.9296875 C-34.144375 430.5996875 -34.804375 430.2696875 -35.484375 429.9296875 C-35.609375 422.1796875 -35.609375 422.1796875 -34.484375 419.9296875 C-34.25961751 417.73733236 -34.09102794 415.53912253 -33.94921875 413.33984375 C-33.90624161 412.68068466 -33.86326447 412.02152557 -33.81898499 411.34239197 C-33.72870003 409.94120457 -33.64058023 408.53987625 -33.55444336 407.13842773 C-33.42429202 405.03131828 -33.28596047 402.92486963 -33.14648438 400.81835938 C-32.70365855 393.92450333 -32.38192614 387.07392798 -32.54907227 380.16186523 C-32.48408067 377.91953249 -32.04513938 376.09316285 -31.484375 373.9296875 C-31.34125663 372.32713619 -31.23889796 370.72064636 -31.16796875 369.11328125 C-31.10512695 367.71819336 -31.10512695 367.71819336 -31.04101562 366.29492188 C-31.00169922 365.32876953 -30.96238281 364.36261719 -30.921875 363.3671875 C-30.85709961 361.95856445 -30.85709961 361.95856445 -30.79101562 360.52148438 C-30.66719403 357.65786435 -30.57021209 354.79468444 -30.484375 351.9296875 C-30.45230957 351.04394043 -30.42024414 350.15819336 -30.38720703 349.24560547 C-30.23216887 341.73928878 -31.27233745 334.57475446 -32.484375 327.1796875 C-34.77050961 313.04581475 -34.77050961 313.04581475 -34.484375 306.9296875 C-35.144375 306.5996875 -35.804375 306.2696875 -36.484375 305.9296875 C-36.8984375 303.20703125 -36.8984375 303.20703125 -37.109375 299.8671875 C-37.18414062 298.76246094 -37.25890625 297.65773438 -37.3359375 296.51953125 C-37.38492188 295.66488281 -37.43390625 294.81023437 -37.484375 293.9296875 C-38.34456308 298.53680302 -39.19887793 303.14495513 -40.04785156 307.75415039 C-40.33726824 309.32085286 -40.62826641 310.88726406 -40.92089844 312.45336914 C-41.34209141 314.70904377 -41.75752022 316.96571676 -42.171875 319.22265625 C-42.36873901 320.26669868 -42.36873901 320.26669868 -42.56958008 321.33183289 C-43.22300241 324.92360143 -43.52301026 328.28710657 -43.484375 331.9296875 C-43.79375 332.9403125 -44.103125 333.9509375 -44.421875 334.9921875 C-47.05448485 343.73621307 -46.470516 352.67088204 -45.73828125 361.65234375 C-45.32100222 367.57204791 -45.43745891 373.50308299 -45.52172852 379.43334961 C-45.5607592 383.39288039 -45.50297977 387.22400391 -44.984375 391.15234375 C-42.82140281 408.73421768 -43.78811133 426.39927401 -52.484375 441.9296875 C-53.22294693 443.85586347 -53.93542918 445.79245947 -54.609375 447.7421875 C-55.75547161 450.60023595 -56.39132098 451.84195086 -58.671875 453.9921875 C-62.64936018 455.31801589 -66.26617159 456.27190506 -70.484375 455.9296875 C-75.30019193 453.25423365 -77.85382709 449.91154292 -79.421875 444.6015625 C-79.53330197 439.83805935 -77.2066195 436.06035967 -75 431.9453125 C-73.61097195 429.18157628 -72.91229372 426.97016261 -72.484375 423.9296875 C-71.824375 423.9296875 -71.164375 423.9296875 -70.484375 423.9296875 C-69.23949579 418.95017067 -68.84602284 413.74016729 -69.98876953 408.70898438 C-70.5529258 405.54526273 -70.57961225 402.61214377 -70.546875 399.3984375 C-70.53849609 398.12282959 -70.53011719 396.84722168 -70.52148438 395.53295898 C-70.51217896 394.52807938 -70.51217896 394.52807938 -70.50268555 393.50289917 C-70.41385943 383.44556204 -70.42668889 373.41311212 -70.984375 363.3671875 C-72.20861662 340.93214726 -72.20861662 340.93214726 -69.484375 332.9296875 C-69.484375 332.1046875 -69.484375 331.2796875 -69.484375 330.4296875 C-69.484375 327.77351553 -68.82701671 325.69838156 -68.05078125 323.1796875 C-67.32655826 320.30277409 -66.94443241 317.43210785 -66.546875 314.4921875 C-65.58976153 307.4537223 -64.31949852 300.49955281 -62.97900391 293.52685547 C-61.91817738 287.95673079 -60.89175616 282.38013974 -59.859375 276.8046875 C-59.64112061 275.63010986 -59.42286621 274.45553223 -59.19799805 273.24536133 C-58.99086182 272.12798584 -58.78372559 271.01061035 -58.5703125 269.859375 C-58.3851709 268.86147949 -58.2000293 267.86358398 -58.00927734 266.83544922 C-57.47376939 263.87097683 -56.97909692 260.90120444 -56.484375 257.9296875 C-56.16369404 256.16211492 -55.83946945 254.3951816 -55.51171875 252.62890625 C-55.33447266 251.65115234 -55.15722656 250.67339844 -54.97460938 249.66601562 C-54.60805089 247.64411531 -54.23571369 245.62325356 -53.85742188 243.60351562 C-52.91686108 238.35635778 -52.27893276 233.40780143 -52.51391602 228.07348633 C-52.484375 225.9296875 -52.484375 225.9296875 -51.99194336 223.05395508 C-51.4791269 219.89738352 -51.38597436 216.99153351 -51.421875 213.796875 C-51.43347656 212.09337891 -51.43347656 212.09337891 -51.4453125 210.35546875 C-51.45820312 209.18371094 -51.47109375 208.01195312 -51.484375 206.8046875 C-51.50990386 204.4687966 -51.53092977 202.13285098 -51.546875 199.796875 C-51.55847656 198.76675293 -51.57007813 197.73663086 -51.58203125 196.67529297 C-51.4949216 194.22620512 -51.12430476 192.27505508 -50.484375 189.9296875 C-50.43863216 187.59680258 -50.44612877 185.26270736 -50.484375 182.9296875 C-50.5594214 175.63483652 -50.27022032 168.39088125 -49.83984375 161.109375 C-49.51198143 155.3764681 -49.42979148 149.67157108 -49.484375 143.9296875 C-49.74992187 144.88746094 -50.01546875 145.84523437 -50.2890625 146.83203125 C-51.12555553 149.76418276 -52.03748888 152.66283391 -52.9921875 155.55859375 C-53.25644531 156.36619141 -53.52070312 157.17378906 -53.79296875 158.00585938 C-54.33916118 159.6692636 -54.89129275 161.33072891 -55.44921875 162.99023438 C-56.91090145 167.49408918 -57.6901758 171.14824901 -57.484375 175.9296875 C-57.78215829 177.6030715 -58.11648137 179.27030714 -58.484375 180.9296875 C-59.61248782 188.18184134 -60.55432832 195.4547954 -61.421875 202.7421875 C-62.20063021 209.26916463 -63.26943227 215.71790158 -64.51928711 222.17114258 C-65.26725816 226.14892296 -65.62302716 229.88356547 -65.484375 233.9296875 C-66.144375 233.9296875 -66.804375 233.9296875 -67.484375 233.9296875 C-67.47277344 234.54714844 -67.46117188 235.16460937 -67.44921875 235.80078125 C-67.40497421 239.95344778 -67.42624984 243.99806662 -67.984375 248.1171875 C-68.51794114 252.15806176 -68.41886142 256.04536494 -68.296875 260.1171875 C-68.23414979 267.88727285 -68.967537 277.40115637 -73.91015625 283.765625 C-76.6298842 285.77673897 -79.17333968 285.81551387 -82.484375 285.9296875 C-85.56042077 284.533172 -87.13446747 283.56501809 -88.77734375 280.58203125 C-89.72420257 277.70837676 -90.6374505 274.83452358 -91.484375 271.9296875 C-91.75894531 271.09695313 -92.03351563 270.26421875 -92.31640625 269.40625 C-94.02692397 263.22437893 -92.87003548 259.43468242 -90.62890625 253.55078125 C-89.22839039 249.11979763 -88.58515339 244.77755959 -87.984375 240.1796875 C-86.95002131 232.2728354 -85.76723739 224.41502301 -84.421875 216.5546875 C-81.61317861 201.7828251 -81.61317861 201.7828251 -80.5 186.84375 C-80.484848 184.01790119 -80.0811189 181.68294041 -79.484375 178.9296875 C-79.11479004 176.32640658 -78.75871784 173.7246006 -78.421875 171.1171875 C-78.33099609 170.42431641 -78.24011719 169.73144531 -78.14648438 169.01757812 C-77.92428035 167.32181058 -77.70411973 165.62577549 -77.484375 163.9296875 C-76.824375 163.9296875 -76.164375 163.9296875 -75.484375 163.9296875 C-75.35595215 162.9089917 -75.2275293 161.8882959 -75.09521484 160.83666992 C-73.35475809 149.70456381 -69.27336698 138.83143233 -65.859375 128.1171875 C-65.66182617 127.48417725 -65.46427734 126.85116699 -65.26074219 126.19897461 C-64.68380981 124.35038318 -64.09600007 122.50519734 -63.5078125 120.66015625 C-63.16669434 119.58145264 -62.82557617 118.50274902 -62.47412109 117.39135742 C-61.484375 114.9296875 -61.484375 114.9296875 -59.484375 113.9296875 C-59.01914437 112.03435408 -59.01914437 112.03435408 -58.859375 109.8671875 C-58.67375 107.918125 -58.67375 107.918125 -58.484375 105.9296875 C-57.824375 105.9296875 -57.164375 105.9296875 -56.484375 105.9296875 C-56.38125 105.2078125 -56.278125 104.4859375 -56.171875 103.7421875 C-54.97501863 98.84595689 -52.79945349 95.57441302 -48.484375 92.9296875 C-47.824375 92.9296875 -47.164375 92.9296875 -46.484375 92.9296875 C-46.2730297 90.538458 -46.2730297 90.538458 -47.484375 87.9296875 C-49.54592383 86.71618489 -51.67135803 85.89192058 -53.890625 85 C-66.30328886 79.87790678 -76.12846878 70.31522063 -81.484375 57.9296875 C-87.97692219 40.49599597 -85.39730268 27.27368782 -78.1796875 10.9453125 C-76.3243034 7.64495184 -74.26450656 5.48243176 -71.484375 2.9296875 C-70.87335938 2.33285156 -70.26234375 1.73601563 -69.6328125 1.12109375 C-49.41436508 -17.44959474 -20.85244213 -17.37703511 0 0 Z M-22.484375 139.9296875 C-21.484375 142.9296875 -21.484375 142.9296875 -21.484375 142.9296875 Z " transform="translate(135.484375,31.0703125)" style="fill: #000000;"/><path d="M0 0 C0.87235894 -0.00297112 1.74471789 -0.00594224 2.64351195 -0.0090034 C5.57214 -0.01768803 8.50072716 -0.01919845 11.42936707 -0.02069092 C13.52694791 -0.02531923 15.62452791 -0.0303439 17.72210693 -0.03573608 C23.42463723 -0.04886013 29.12715576 -0.05530496 34.8296988 -0.05974674 C38.39170315 -0.06267723 41.95370428 -0.06678197 45.51570702 -0.07125092 C56.65841749 -0.08492534 67.80112061 -0.09459249 78.94383889 -0.09845281 C91.81034044 -0.10293472 104.67673582 -0.12048912 117.54320508 -0.1494534 C127.48641485 -0.17106082 137.42959471 -0.18115657 147.37282771 -0.18249393 C153.31260711 -0.18354255 159.2522867 -0.18946272 165.1920414 -0.20731354 C170.77919044 -0.22377807 176.36616445 -0.22595752 181.95332909 -0.21717453 C184.00318241 -0.21640331 186.05304508 -0.22075798 188.10287476 -0.23063278 C190.90302043 -0.24333038 193.70254416 -0.23748728 196.50268555 -0.22705078 C197.31223011 -0.23510719 198.12177468 -0.24316359 198.9558509 -0.25146413 C205.14444505 -0.19758522 209.83250691 1.02478406 214.75431824 5.01544189 C218.0982901 9.22636942 218.68954492 13.03164773 218.6443634 18.32240295 C218.63869858 19.56615692 218.63303375 20.80991089 218.62719727 22.09135437 C218.61067789 23.4616417 218.59396299 24.83192668 218.57707214 26.20220947 C218.56664108 27.6511984 218.55710677 29.10019402 218.54840088 30.54919434 C218.52226717 34.47657289 218.48359968 38.40373961 218.44267702 42.33098817 C218.40201892 46.43755726 218.37289413 50.54420777 218.34254456 54.65086365 C218.28334229 62.42458539 218.21377173 70.19817836 218.14047372 77.97177857 C218.05752038 86.82293294 217.98612911 95.67416876 217.91570783 104.52543032 C217.77060754 122.73055469 217.61099133 140.93552611 217.44181824 159.14044189 C220.74181824 159.14044189 224.04181824 159.14044189 227.44181824 159.14044189 C228.57902761 165.39509346 229.00962402 171.79834002 228.44181824 178.14044189 C226.44181824 180.14044189 226.44181824 180.14044189 224.55309242 180.38998955 C223.7767267 180.38977219 223.00036097 180.38955482 222.20046902 180.38933086 C221.30535435 180.39392966 220.41023969 180.39852846 219.48800033 180.40326661 C218.49842537 180.39812305 217.50885041 180.39297948 216.48928833 180.38768005 C215.44289564 180.39009447 214.39650295 180.39250888 213.3184014 180.39499646 C209.78908423 180.40066176 206.25994581 180.39194901 202.7306366 180.38336182 C200.20982819 180.38443399 197.68902003 180.3863717 195.16821289 180.38911438 C189.01857375 180.39347039 182.86900169 180.38850611 176.71936982 180.37926408 C169.56458717 180.36889659 162.40981623 180.36894982 155.25502748 180.36943666 C142.49363062 180.36993763 129.7322588 180.36076609 116.97087097 180.34625244 C104.57470748 180.33216137 92.17856602 180.32508177 79.78239441 180.32574463 C78.63702438 180.32580456 78.63702438 180.32580456 77.46851557 180.32586571 C76.32516721 180.32592624 76.32516721 180.32592624 75.15872091 180.32598799 C61.06425876 180.32667706 46.96980602 180.3207926 32.87534691 180.31183478 C27.88242231 180.3088129 22.88949943 180.30775457 17.89657402 180.30730247 C11.18340786 180.30655087 4.47026825 180.30022614 -2.24289131 180.29013634 C-4.71452186 180.28720311 -7.1861551 180.28598762 -9.65778732 180.28656387 C-13.01609529 180.28705076 -16.37433675 180.28143661 -19.7326355 180.27415466 C-21.22034402 180.27647757 -21.22034402 180.27647757 -22.73810726 180.2788474 C-24.07686764 180.27401073 -24.07686764 180.27401073 -25.44267368 180.26907635 C-26.21887705 180.26837192 -26.99508042 180.2676675 -27.79480511 180.26694173 C-29.55818176 180.14044189 -29.55818176 180.14044189 -30.55818176 179.14044189 C-30.64487608 177.6517233 -30.6652167 176.1589969 -30.65583801 174.66778564 C-30.65261536 173.76866455 -30.6493927 172.86954346 -30.64607239 171.94317627 C-30.63769348 170.99764893 -30.62931458 170.05212158 -30.62068176 169.07794189 C-30.61617004 168.12854736 -30.61165833 167.17915283 -30.60700989 166.20098877 C-30.59518304 163.84744658 -30.57724698 161.49393658 -30.55818176 159.14044189 C-27.58818176 159.14044189 -24.61818176 159.14044189 -21.55818176 159.14044189 C-21.720513 158.23547974 -21.88284424 157.33051758 -22.0500946 156.39813232 C-22.82059346 150.95730095 -22.69740539 145.50173776 -22.68757629 140.01739502 C-22.68932861 138.81151733 -22.69108093 137.60563965 -22.69288635 136.36322021 C-22.69652332 133.06933051 -22.69568389 129.77548125 -22.69250727 126.48159218 C-22.68996174 123.01594589 -22.69232772 119.55030216 -22.69389343 116.08465576 C-22.69571069 110.25754314 -22.69332249 104.43044321 -22.68855286 98.60333252 C-22.68313154 91.90347534 -22.68485912 85.2036487 -22.69037926 78.50379229 C-22.6949476 72.72426868 -22.69554228 66.94475416 -22.69294059 61.16522932 C-22.6913955 57.72585521 -22.69113437 54.28649534 -22.69447708 50.84712219 C-22.72027847 12.15216277 -22.72027847 12.15216277 -18.55818176 5.14044189 C-12.40691027 0.29795157 -7.61018236 -0.00807865 0 0 Z M-5.55818176 17.14044189 C-7.83884254 20.56143306 -7.80593692 21.76020895 -7.7986908 25.77818298 C-7.80144012 26.95187439 -7.80418945 28.1255658 -7.80702209 29.33482361 C-7.79983154 30.62379044 -7.79264099 31.91275726 -7.78523254 33.24078369 C-7.78466845 34.61066683 -7.78498496 35.98055057 -7.78611755 37.35043335 C-7.78669214 41.07126424 -7.7749208 44.79196658 -7.76096964 48.51276755 C-7.74847985 52.40051865 -7.74729316 56.28827259 -7.74491882 60.17604065 C-7.7386989 67.53894881 -7.72228116 74.90179769 -7.70221984 82.26467973 C-7.67987678 90.64668548 -7.66887143 99.02869403 -7.65882897 107.41072214 C-7.63791536 124.65399637 -7.60272944 141.89721287 -7.55818176 159.14044189 C2.32298575 160.43230663 12.17468309 160.27374454 22.12004089 160.25396729 C24.11163837 160.25368489 26.10323596 160.25384416 28.09483337 160.25440979 C33.47837623 160.25469574 38.86189663 160.24883178 44.24543428 160.24183583 C49.88017951 160.23556853 55.51492529 160.23499583 61.14967346 160.23381042 C71.80955153 160.23070705 82.4694193 160.22250708 93.12929285 160.21246094 C105.2695584 160.20126891 117.40982446 160.19578157 129.55009389 160.1907655 C154.51400771 160.18032362 179.47791239 160.16274346 204.44181824 160.14044189 C204.55861407 141.97312782 204.64678791 123.80591116 204.7008791 105.6383028 C204.72666205 97.20277164 204.76181409 88.76747373 204.8190155 80.33209229 C204.86884796 72.97989264 204.9011086 65.62786192 204.91226071 58.27549809 C204.91877985 54.38229314 204.93410274 50.48957145 204.97046852 46.59652138 C205.00442605 42.93156186 205.01487205 39.26728429 205.00735664 35.60218239 C205.00938645 33.61707484 205.03628305 31.63204145 205.06391907 29.64712524 C205.2917016 22.65202052 205.2917016 22.65202052 201.96884155 16.86424255 C201.13492386 16.29538834 200.30100616 15.72653412 199.44181824 15.14044189 C199.11181824 14.81044189 198.78181824 14.48044189 198.44181824 14.14044189 C195.88599314 14.03602385 193.35695317 13.99711552 190.80039978 14 C189.58546951 13.99554332 189.58546951 13.99554332 188.34599519 13.9909966 C185.61067336 13.98227076 182.8753951 13.98079808 180.14006042 13.97930908 C178.18745835 13.97468359 176.23485718 13.9696593 174.28225708 13.96426392 C168.96190267 13.95111056 163.64156089 13.94468907 158.32119274 13.94025326 C154.9999315 13.9373268 151.67867374 13.93322278 148.35741425 13.92874908 C137.97395459 13.91506542 127.59050287 13.90540345 117.20703483 13.90154719 C105.20643759 13.89706642 93.20595425 13.87952122 81.20539165 13.8505466 C71.93997486 13.82894987 62.67459015 13.81884396 53.40914845 13.81750607 C47.87068515 13.81645645 42.33232879 13.81051554 36.79389191 13.79268646 C31.58352109 13.77624086 26.37333799 13.7740332 21.16295052 13.78282547 C19.24932669 13.78359777 17.33569292 13.77922778 15.42209435 13.76936722 C12.8115615 13.7567034 10.20169902 13.7624941 7.59117126 13.77294922 C6.83211888 13.76489281 6.0730665 13.75683641 5.29101253 13.74853587 C0.83020056 13.79037875 -2.0278493 14.36289956 -5.55818176 17.14044189 Z " transform="translate(230.5581817626953,42.85955810546875)" style="fill: #030201;"/><path d="M0 0 C8.73091835 6.06829786 15.00472168 15.49153416 17 26 C18.17172107 38.62854928 16.09187669 50.04391881 8 60 C5.4375 62.8125 5.4375 62.8125 3 65 C2.2575 65.680625 1.515 66.36125 0.75 67.0625 C-8.84576413 73.823152 -20.17189454 76.50292496 -31.73046875 74.53515625 C-41.55916431 72.19235011 -50.83941114 67.17897249 -57 59 C-63.54859009 47.76304287 -67.26917687 37.03079321 -64.3125 23.9609375 C-60.34916115 12.23606008 -52.9018286 2.35158468 -41.95703125 -3.67578125 C-27.58458716 -9.89041907 -13.1873654 -7.89562005 0 0 Z " transform="translate(125,35)" style="fill: #FBFBFB;"/><path d="M0 0 C81.51 0 163.02 0 247 0 C247 2.97 247 5.94 247 9 C165.49 9 83.98 9 0 9 C0 6.03 0 3.06 0 0 Z " transform="translate(205,208)" style="fill: #9E592D;"/><path d="M0 0 C0.87614478 -0.00297112 1.75228956 -0.00594224 2.65498418 -0.0090034 C5.60831175 -0.01771628 8.56159892 -0.01920083 11.51493835 -0.02069092 C13.62532132 -0.02531726 15.73570345 -0.03034167 17.84608459 -0.03573608 C23.59198609 -0.04887981 29.33787588 -0.05530889 35.08379006 -0.05974674 C38.67089449 -0.0626743 42.25799569 -0.06677849 45.8450985 -0.07125092 C57.06042698 -0.08493106 68.27574814 -0.09459518 79.4910844 -0.09845281 C92.45214655 -0.10293495 105.41310331 -0.12048798 118.37413341 -0.1494534 C128.38266382 -0.17104668 138.39116452 -0.18115583 148.39971799 -0.18249393 C154.38194047 -0.18354365 160.36406395 -0.18948689 166.34626198 -0.20731354 C171.97277518 -0.22375351 177.59911455 -0.22596954 183.22564316 -0.21717453 C185.2924604 -0.21640197 187.35928683 -0.22077559 189.4260807 -0.23063278 C192.24454909 -0.24328809 195.06239581 -0.23751042 197.88085938 -0.22705078 C199.11179753 -0.23913539 199.11179753 -0.23913539 200.36760312 -0.25146413 C204.95627532 -0.21155314 207.99688124 0.25209223 211.63090515 3.14044189 C212.98657774 5.85178708 212.75372879 7.96290643 212.75115967 10.99960327 C212.75322166 12.87166946 212.75322166 12.87166946 212.75532532 14.78155518 C212.75178594 16.17218041 212.74815113 17.56280541 212.74443054 18.95343018 C212.74414859 20.4118347 212.74430655 21.87023936 212.74487305 23.3286438 C212.74516072 27.29535337 212.73926879 31.26203288 212.73229909 35.22873545 C212.72606061 39.37141169 212.72546136 43.51408858 212.72427368 47.6567688 C212.72116183 55.50488721 212.7129504 63.35299175 212.70292419 71.20110404 C212.69175853 80.13447311 212.68625146 89.06784283 212.68122876 98.00121713 C212.67076767 116.38096659 212.65317104 134.76070313 212.63090515 153.14044189 C211.97090515 153.14044189 211.31090515 153.14044189 210.63090515 153.14044189 C210.6285168 152.41837461 210.62612844 151.69630732 210.62366772 150.9523592 C210.56453487 133.38385719 210.48899585 115.81550252 210.39519024 98.24715137 C210.35022229 89.75122632 210.31080995 81.25534329 210.2844696 72.75933838 C210.26149759 65.35432321 210.22810855 57.94944088 210.18220359 50.54453105 C210.15826052 46.62357306 210.13953889 42.70274673 210.13329124 38.7817173 C210.12724522 35.09051895 210.10726322 31.39965749 210.07662964 27.70858383 C210.06365374 25.70929126 210.06542067 23.70992001 210.06762695 21.71058655 C210.05508881 20.5173175 210.04255066 19.32404846 210.02963257 18.09461975 C210.02271912 16.54185947 210.02271912 16.54185947 210.01566601 14.95773029 C209.42009071 10.59682051 207.83883197 8.13661175 204.46250057 5.3521719 C200.73146468 3.75554263 197.31279767 3.72184366 193.32537842 3.75276184 C192.49229501 3.7473763 191.6592116 3.74199077 190.80088323 3.73644203 C188.01108181 3.72214157 185.22175347 3.7292713 182.43193054 3.73638916 C180.4310976 3.73068669 178.43026791 3.72372291 176.42944336 3.71559143 C170.99557876 3.69763143 165.56187539 3.69883376 160.12799001 3.70453382 C155.59256875 3.70762153 151.05717866 3.70153787 146.52176183 3.69549507 C135.82284646 3.68144214 125.12401092 3.68301756 114.4250946 3.69439697 C103.38521443 3.70587951 92.34557714 3.69180189 81.30572897 3.6650005 C71.82873766 3.64285412 62.35182265 3.63620372 52.8748073 3.64207691 C47.21395486 3.64545015 41.55325814 3.64300693 35.89242744 3.62582588 C30.56948638 3.61037581 25.24690554 3.61429093 19.92397881 3.63313103 C17.97046351 3.63682224 16.01692163 3.63369298 14.06343079 3.62324524 C11.39634225 3.61007008 8.73045238 3.62155172 6.06341553 3.63923645 C5.29054972 3.62963144 4.51768392 3.62002644 3.72139794 3.61013037 C-1.45895798 3.68079507 -4.47910548 4.71365038 -8.36909485 8.14044189 C-10.98511101 12.20582979 -11.74615091 15.34524221 -11.76782227 20.13894653 C-11.78662949 21.90566963 -11.78662949 21.90566963 -11.80581665 23.70808411 C-11.80366402 25.62535561 -11.80366402 25.62535561 -11.8014679 27.58135986 C-11.81049166 28.95169455 -11.82082039 30.32202116 -11.83235168 31.69233704 C-11.85987597 35.40056263 -11.86919992 39.10863488 -11.87520576 42.81694937 C-11.88460139 46.6967432 -11.91080572 50.57642302 -11.93521118 54.45614624 C-11.97884723 61.79765378 -12.00741193 69.13913917 -12.03053457 76.48073685 C-12.05760179 84.84112119 -12.10151234 93.20139068 -12.14682329 101.56169295 C-12.23962808 118.7545501 -12.31132785 135.94743206 -12.36909485 153.14044189 C-13.02909485 153.14044189 -13.68909485 153.14044189 -14.36909485 153.14044189 C-14.46252418 134.0604205 -14.53306716 114.9804455 -14.57634354 95.90024281 C-14.59697135 87.04102241 -14.62509608 78.18194413 -14.67085266 69.32281494 C-14.71071378 61.60145193 -14.73652607 53.88019183 -14.74544883 46.15872878 C-14.75066484 42.06998721 -14.76292867 37.98154007 -14.79201508 33.89289284 C-14.81917289 30.04414976 -14.82753922 26.19582229 -14.82152557 22.34699249 C-14.82262566 20.93485696 -14.83057777 19.52270748 -14.84591675 18.11065483 C-14.86584599 16.18133996 -14.85864282 14.2518019 -14.85011292 12.32240295 C-14.85380009 11.24298337 -14.85748726 10.16356379 -14.86128616 9.05143452 C-14.2486457 5.42806327 -12.89228843 3.76142402 -10.36909485 1.14044189 C-7.12548756 -0.48136175 -3.56407729 -0.0037328 0 0 Z " transform="translate(229.3690948486328,48.85955810546875)" style="fill: #96542A;"/><path d="M0 0 C2.90748498 0.44730538 4.27395239 1.20387155 6.6875 3 C10.82918064 5.50063737 14.17006932 6.36652088 19 6 C22.93060236 4.67636126 26.06729533 2.93270467 29 0 C31.625 0.375 31.625 0.375 34 1 C33.61139184 3.37202385 33.30737569 4.69347107 31.58203125 6.4140625 C24.76365058 11.08006252 18.33574804 13.28439877 10 12 C5.77262172 10.14651205 2.01267829 7.51791005 -1 4 C-0.6875 1.8125 -0.6875 1.8125 0 0 Z " transform="translate(85,87)" style="fill: #090908;"/><path d="M0 0 C1.9375 1.0625 1.9375 1.0625 3 3 C2.66666667 9.33333333 2.66666667 9.33333333 0 12 C-3.4375 12.375 -3.4375 12.375 -7 12 C-9 10.375 -9 10.375 -10 8 C-9.875 4.875 -9.875 4.875 -9 2 C-5.53076119 -0.31282587 -4.07794425 -0.42478586 0 0 Z " transform="translate(122,59)" style="fill: #090908;"/><path d="M0 0 C1.875 1.125 1.875 1.125 3 3 C3.38976435 6.11811483 3.50422245 8.11019567 1.9375 10.875 C-1.14071911 12.66235303 -3.52906068 12.43386742 -7 12 C-9 10.3125 -9 10.3125 -10 8 C-9.8624874 5.18099161 -9.35530428 3.54230653 -7.8125 1.1875 C-5.11075568 -0.58260835 -3.15326426 -0.39415803 0 0 Z " transform="translate(87,59)" style="fill: #090909;"/><path d="M0 0 C0.97771193 2.9331358 1.13419011 4.88178994 1.125 7.9375 C1.12757813 8.79214844 1.13015625 9.64679688 1.1328125 10.52734375 C1.00930254 12.82680852 0.64420687 14.79640348 0 17 C-0.66 17 -1.32 17 -2 17 C-3.04792525 13.56513389 -3.13372185 10.39281963 -3.125 6.8125 C-3.12757813 5.74644531 -3.13015625 4.68039062 -3.1328125 3.58203125 C-2.94856278 0 -2.94856278 0 0 0 Z " transform="translate(147,287)" style="fill: #DEDEDE;"/><path d="M0 0 C0.05423638 1.91635217 0.09289963 3.83314925 0.125 5.75 C0.14820313 6.81734375 0.17140625 7.8846875 0.1953125 8.984375 C0.00487687 11.92470106 -0.47329896 13.52361878 -2 16 C-3.9960615 12.67849055 -4.24399211 10.15909894 -4.1875 6.3125 C-4.18105469 5.33925781 -4.17460938 4.36601562 -4.16796875 3.36328125 C-3.91531229 -0.19153634 -3.63739778 0 0 0 Z " transform="translate(57,288)" style="fill: #E1E1E1;"/></svg>