<?xml version="1.0" encoding="utf-8" ?>
<svg baseProfile="full" height="500" version="1.1" viewBox="0 0 500 500" width="500" xmlns="http://www.w3.org/2000/svg" xmlns:ev="http://www.w3.org/2001/xml-events" xmlns:xlink="http://www.w3.org/1999/xlink"><defs /><path d="M 396,17 L 395,18 L 391,18 L 390,19 L 388,19 L 387,20 L 386,20 L 385,21 L 383,21 L 382,22 L 381,22 L 379,24 L 378,24 L 371,31 L 371,33 L 370,34 L 370,35 L 369,36 L 369,38 L 368,39 L 368,41 L 367,42 L 367,45 L 366,46 L 366,51 L 365,52 L 365,62 L 364,63 L 365,64 L 365,68 L 366,69 L 366,73 L 367,74 L 367,77 L 368,78 L 368,79 L 369,80 L 369,83 L 371,85 L 371,86 L 373,88 L 373,89 L 374,90 L 374,91 L 375,92 L 376,92 L 377,93 L 377,94 L 379,96 L 380,96 L 384,100 L 384,103 L 383,104 L 381,104 L 380,105 L 379,105 L 378,106 L 377,106 L 376,107 L 375,107 L 374,108 L 373,108 L 372,109 L 371,109 L 370,110 L 369,110 L 367,112 L 366,112 L 365,113 L 364,113 L 363,114 L 362,114 L 360,116 L 359,116 L 357,118 L 356,118 L 355,119 L 354,119 L 351,122 L 350,122 L 347,125 L 346,125 L 322,149 L 322,150 L 321,151 L 320,151 L 320,152 L 316,156 L 315,156 L 314,155 L 313,155 L 312,154 L 310,154 L 309,153 L 308,153 L 307,152 L 305,152 L 304,151 L 303,151 L 302,150 L 301,150 L 300,149 L 300,49 L 301,48 L 300,47 L 300,46 L 299,45 L 299,42 L 294,37 L 293,37 L 292,36 L 291,36 L 290,35 L 42,35 L 41,36 L 39,36 L 36,39 L 35,39 L 35,40 L 33,42 L 33,43 L 31,45 L 32,46 L 31,47 L 31,66 L 30,67 L 31,68 L 31,70 L 30,71 L 31,72 L 30,73 L 31,74 L 30,75 L 31,76 L 30,77 L 31,78 L 31,180 L 30,181 L 31,182 L 30,183 L 31,184 L 30,185 L 31,186 L 31,213 L 30,214 L 21,214 L 21,236 L 311,236 L 311,214 L 301,214 L 300,213 L 300,183 L 301,182 L 302,182 L 303,183 L 305,183 L 306,184 L 308,184 L 309,185 L 311,185 L 312,186 L 314,186 L 315,187 L 318,187 L 319,188 L 322,188 L 323,189 L 325,189 L 326,188 L 328,188 L 329,187 L 330,187 L 332,185 L 333,185 L 336,182 L 337,182 L 350,169 L 351,169 L 352,170 L 352,181 L 351,182 L 351,192 L 350,193 L 351,194 L 351,205 L 350,206 L 350,216 L 349,217 L 350,218 L 350,229 L 349,230 L 349,240 L 348,241 L 349,242 L 349,253 L 348,254 L 348,264 L 347,265 L 348,266 L 348,277 L 347,278 L 347,288 L 346,289 L 347,290 L 347,301 L 346,302 L 346,312 L 345,313 L 346,314 L 346,325 L 345,326 L 345,336 L 344,337 L 345,338 L 345,348 L 346,349 L 348,349 L 349,350 L 350,349 L 351,349 L 352,350 L 352,356 L 353,357 L 353,375 L 354,376 L 354,396 L 355,397 L 355,406 L 354,407 L 355,408 L 355,414 L 356,415 L 356,430 L 357,431 L 357,443 L 358,444 L 358,450 L 359,451 L 359,453 L 358,454 L 358,455 L 357,456 L 357,457 L 356,458 L 356,459 L 355,460 L 355,462 L 354,463 L 354,465 L 353,466 L 353,473 L 355,475 L 356,475 L 357,476 L 359,476 L 360,477 L 361,477 L 362,478 L 363,477 L 365,477 L 366,476 L 367,476 L 368,477 L 369,476 L 370,476 L 371,475 L 372,475 L 374,473 L 375,473 L 376,472 L 376,471 L 378,469 L 379,469 L 379,468 L 383,464 L 383,463 L 388,458 L 388,457 L 389,456 L 389,455 L 391,453 L 391,450 L 392,449 L 392,440 L 393,439 L 393,420 L 394,419 L 394,393 L 395,392 L 395,362 L 396,361 L 396,356 L 397,355 L 398,356 L 398,372 L 397,373 L 398,374 L 398,386 L 399,387 L 399,402 L 398,403 L 399,404 L 399,415 L 400,416 L 400,435 L 401,436 L 401,448 L 402,449 L 402,452 L 403,453 L 403,454 L 405,456 L 405,457 L 408,460 L 408,461 L 412,465 L 412,466 L 418,472 L 418,473 L 419,473 L 421,475 L 422,475 L 423,476 L 427,476 L 428,477 L 433,477 L 434,476 L 435,477 L 436,476 L 437,476 L 440,473 L 440,470 L 441,469 L 440,468 L 440,465 L 439,464 L 439,462 L 438,461 L 439,460 L 437,458 L 437,457 L 436,456 L 436,455 L 435,454 L 435,453 L 434,452 L 435,451 L 435,446 L 436,445 L 436,434 L 437,433 L 437,418 L 438,417 L 438,400 L 439,399 L 439,397 L 440,396 L 439,395 L 439,393 L 440,392 L 439,391 L 440,390 L 439,389 L 439,381 L 440,380 L 440,371 L 441,370 L 440,369 L 440,367 L 441,366 L 440,365 L 440,361 L 441,360 L 441,351 L 442,350 L 441,349 L 442,348 L 452,348 L 453,347 L 453,319 L 452,318 L 452,281 L 453,280 L 454,281 L 455,281 L 456,282 L 457,282 L 458,283 L 458,288 L 459,289 L 459,290 L 460,290 L 463,293 L 464,292 L 466,292 L 469,289 L 469,288 L 470,287 L 470,285 L 471,284 L 471,280 L 472,279 L 472,263 L 473,262 L 473,255 L 472,254 L 472,237 L 471,236 L 471,219 L 470,218 L 470,198 L 469,197 L 469,183 L 468,182 L 468,176 L 467,175 L 467,171 L 468,170 L 466,168 L 466,163 L 465,162 L 465,157 L 464,156 L 464,152 L 463,151 L 463,147 L 462,146 L 462,143 L 461,142 L 461,139 L 460,138 L 460,135 L 459,134 L 459,133 L 458,132 L 458,130 L 457,129 L 457,128 L 456,127 L 456,126 L 453,123 L 452,123 L 449,120 L 448,120 L 447,119 L 446,119 L 444,117 L 443,117 L 442,116 L 441,116 L 440,115 L 439,115 L 437,113 L 436,113 L 435,112 L 434,112 L 432,110 L 431,110 L 430,109 L 429,109 L 428,108 L 427,108 L 426,107 L 425,107 L 424,106 L 423,106 L 422,105 L 421,105 L 419,103 L 418,103 L 417,102 L 416,102 L 415,101 L 416,100 L 415,99 L 420,94 L 421,94 L 421,93 L 424,90 L 424,89 L 425,88 L 426,88 L 426,87 L 427,86 L 427,84 L 428,83 L 428,82 L 429,81 L 429,79 L 430,78 L 430,76 L 431,75 L 431,72 L 432,71 L 432,66 L 433,65 L 433,55 L 432,54 L 432,49 L 431,48 L 431,45 L 430,44 L 430,42 L 429,41 L 429,39 L 428,38 L 428,36 L 427,35 L 427,32 L 426,31 L 426,30 L 424,28 L 424,27 L 421,24 L 420,24 L 419,23 L 418,23 L 417,22 L 416,22 L 415,21 L 414,21 L 413,20 L 411,20 L 410,19 L 408,19 L 407,18 L 403,18 L 402,17 Z" fill="#000000" stroke="none" /><path d="M 54,50 L 53,51 L 51,51 L 47,55 L 47,57 L 46,58 L 46,213 L 47,213 L 48,214 L 49,213 L 50,214 L 51,213 L 52,214 L 53,213 L 54,214 L 55,214 L 56,213 L 57,214 L 58,214 L 59,213 L 60,214 L 61,214 L 62,213 L 63,214 L 64,214 L 65,213 L 66,214 L 68,214 L 69,213 L 70,214 L 71,214 L 72,213 L 73,214 L 74,214 L 75,213 L 76,214 L 78,214 L 79,213 L 80,214 L 81,214 L 82,213 L 83,214 L 84,214 L 85,213 L 86,214 L 87,214 L 88,213 L 89,214 L 90,214 L 91,213 L 92,214 L 93,214 L 94,213 L 95,214 L 97,214 L 98,213 L 99,214 L 100,214 L 101,213 L 102,214 L 103,214 L 104,213 L 105,214 L 106,214 L 107,213 L 108,214 L 109,214 L 110,213 L 111,214 L 113,214 L 114,213 L 115,214 L 116,214 L 117,213 L 118,214 L 119,214 L 120,213 L 121,214 L 122,214 L 123,213 L 124,214 L 125,213 L 126,214 L 127,213 L 128,214 L 129,214 L 130,213 L 131,214 L 132,214 L 133,213 L 134,214 L 135,214 L 136,213 L 137,214 L 138,213 L 139,214 L 140,214 L 141,213 L 142,214 L 143,214 L 144,213 L 145,214 L 147,214 L 148,213 L 149,214 L 150,214 L 151,213 L 152,214 L 153,214 L 154,213 L 155,214 L 157,214 L 158,213 L 159,214 L 160,214 L 161,213 L 162,214 L 164,214 L 165,213 L 166,214 L 168,214 L 169,213 L 170,214 L 171,214 L 172,213 L 173,214 L 174,213 L 175,214 L 176,214 L 177,213 L 178,214 L 180,214 L 181,213 L 182,214 L 183,214 L 184,213 L 185,214 L 186,213 L 187,214 L 188,214 L 189,213 L 190,214 L 191,213 L 192,214 L 193,214 L 194,213 L 195,214 L 197,214 L 198,213 L 199,214 L 200,214 L 201,213 L 202,214 L 203,214 L 204,213 L 205,214 L 206,214 L 207,213 L 208,214 L 210,214 L 211,213 L 212,214 L 213,214 L 214,213 L 215,214 L 216,214 L 217,213 L 218,214 L 220,214 L 221,213 L 222,214 L 224,214 L 225,213 L 226,214 L 227,214 L 228,213 L 229,214 L 230,213 L 231,214 L 232,214 L 233,213 L 234,214 L 236,214 L 237,213 L 238,214 L 239,214 L 240,213 L 241,214 L 242,214 L 243,213 L 244,214 L 245,213 L 246,214 L 247,213 L 248,214 L 249,214 L 250,213 L 251,214 L 252,214 L 253,213 L 254,214 L 255,214 L 256,213 L 257,214 L 258,214 L 259,213 L 260,214 L 261,214 L 262,213 L 263,214 L 265,214 L 266,213 L 267,214 L 268,214 L 269,213 L 270,214 L 271,214 L 272,213 L 273,214 L 274,213 L 275,214 L 276,214 L 277,213 L 278,214 L 279,214 L 280,213 L 281,214 L 282,213 L 283,214 L 284,213 L 285,213 L 285,176 L 284,176 L 283,175 L 282,175 L 281,174 L 280,174 L 279,173 L 278,173 L 276,171 L 275,171 L 274,170 L 273,170 L 272,169 L 272,168 L 270,166 L 270,165 L 268,165 L 267,164 L 265,164 L 264,163 L 263,163 L 262,162 L 260,162 L 258,160 L 257,160 L 252,155 L 252,153 L 251,152 L 251,148 L 250,147 L 250,144 L 249,143 L 249,142 L 247,140 L 247,139 L 246,138 L 246,137 L 244,135 L 244,132 L 243,131 L 243,130 L 244,129 L 244,128 L 246,126 L 247,126 L 248,125 L 249,125 L 250,126 L 252,126 L 253,127 L 254,127 L 255,128 L 256,128 L 258,130 L 259,130 L 260,131 L 261,131 L 263,133 L 264,133 L 265,134 L 266,134 L 268,136 L 269,136 L 271,138 L 272,138 L 273,137 L 277,137 L 278,138 L 279,138 L 280,139 L 281,139 L 282,140 L 283,140 L 284,141 L 285,141 L 285,56 L 284,55 L 284,54 L 283,54 L 282,53 L 282,52 L 281,51 L 279,51 L 278,50 Z" fill="#006018" stroke="none" /><path d="M 408,114 L 407,115 L 405,115 L 404,116 L 400,116 L 399,117 L 397,117 L 396,116 L 393,116 L 392,115 L 391,115 L 391,120 L 392,121 L 392,127 L 393,128 L 393,134 L 394,135 L 394,142 L 395,143 L 395,149 L 396,150 L 396,156 L 397,157 L 397,164 L 398,165 L 398,171 L 399,172 L 399,167 L 400,166 L 400,161 L 401,160 L 401,155 L 402,154 L 402,148 L 403,147 L 403,142 L 404,141 L 404,136 L 405,135 L 405,130 L 406,129 L 406,124 L 407,123 L 407,118 L 408,117 Z" fill="#30a860" stroke="none" /><path d="M 358,350 L 358,357 L 359,358 L 359,377 L 360,378 L 360,396 L 361,397 L 361,415 L 362,416 L 362,431 L 363,432 L 363,444 L 364,445 L 364,448 L 365,449 L 370,449 L 371,450 L 381,450 L 382,449 L 386,449 L 386,442 L 385,441 L 387,439 L 387,421 L 388,420 L 388,394 L 389,393 L 389,364 L 390,363 L 390,350 L 380,350 L 379,351 L 378,350 L 377,351 L 376,350 L 365,350 L 364,351 L 363,350 L 362,351 L 361,350 Z" fill="#78c0f0" stroke="none" /><path d="M 403,349 L 403,357 L 404,358 L 404,388 L 405,389 L 405,401 L 406,402 L 405,403 L 405,416 L 406,417 L 406,436 L 407,437 L 407,448 L 408,449 L 411,449 L 412,450 L 423,450 L 424,449 L 428,449 L 429,448 L 429,446 L 430,445 L 430,435 L 431,434 L 431,419 L 432,418 L 432,401 L 433,400 L 433,382 L 434,381 L 434,362 L 435,361 L 435,349 Z" fill="#78c0f0" stroke="none" /><path d="M 429,455 L 428,456 L 420,456 L 419,457 L 417,457 L 416,456 L 415,457 L 414,456 L 412,456 L 413,457 L 413,458 L 417,462 L 417,463 L 424,470 L 426,470 L 427,471 L 434,471 L 435,470 L 435,468 L 434,467 L 434,465 L 433,464 L 433,462 L 432,461 L 432,460 L 431,459 L 431,458 L 430,457 L 430,456 Z" fill="#904818" stroke="none" /><path d="M 364,455 L 364,456 L 362,458 L 362,460 L 361,461 L 361,462 L 360,463 L 360,465 L 359,466 L 359,470 L 360,471 L 366,471 L 367,470 L 369,470 L 378,461 L 378,460 L 381,457 L 381,456 L 380,456 L 379,457 L 378,456 L 377,457 L 376,456 L 375,457 L 374,457 L 373,456 L 365,456 Z" fill="#904818" stroke="none" /><path d="M 395,23 L 394,24 L 391,24 L 390,25 L 389,25 L 388,26 L 386,26 L 385,27 L 384,27 L 382,29 L 381,29 L 377,33 L 377,34 L 376,35 L 376,36 L 375,37 L 375,38 L 374,39 L 374,41 L 373,42 L 373,44 L 376,41 L 376,40 L 383,33 L 390,33 L 391,32 L 393,32 L 394,31 L 396,31 L 397,30 L 398,30 L 399,29 L 400,29 L 401,28 L 405,28 L 408,31 L 408,32 L 409,32 L 410,33 L 412,33 L 413,34 L 414,34 L 416,36 L 416,37 L 417,38 L 417,39 L 419,41 L 420,41 L 421,42 L 422,42 L 424,44 L 424,45 L 425,46 L 425,45 L 424,44 L 424,42 L 423,41 L 423,39 L 422,38 L 422,36 L 421,35 L 421,33 L 419,31 L 419,30 L 418,29 L 417,29 L 416,28 L 415,28 L 414,27 L 413,27 L 412,26 L 411,26 L 410,25 L 408,25 L 407,24 L 404,24 L 403,23 Z" fill="#904818" stroke="none" /><path d="M 27,221 L 27,229 L 305,229 L 305,221 Z" fill="#a86000" stroke="none" /><path d="M 293,180 L 293,213 L 294,213 L 294,180 Z" fill="#a86000" stroke="none" /><path d="M 44,41 L 43,42 L 42,42 L 38,46 L 38,50 L 37,51 L 38,52 L 37,53 L 38,54 L 38,55 L 37,56 L 38,57 L 38,58 L 37,59 L 38,60 L 37,61 L 38,62 L 38,213 L 39,213 L 39,56 L 40,55 L 40,53 L 41,52 L 41,51 L 43,49 L 43,48 L 44,47 L 45,47 L 47,45 L 48,45 L 49,44 L 50,44 L 51,43 L 280,43 L 281,44 L 283,44 L 284,45 L 285,45 L 290,50 L 290,51 L 291,52 L 291,53 L 292,54 L 292,57 L 293,58 L 293,145 L 294,146 L 294,48 L 293,47 L 293,46 L 292,45 L 292,44 L 291,43 L 290,43 L 289,42 L 288,42 L 287,41 Z" fill="#a86000" stroke="none" /><path d="M 456,264 L 456,273 L 457,273 L 459,271 L 461,271 L 462,272 L 463,272 L 464,273 L 464,274 L 466,276 L 465,277 L 465,279 L 464,280 L 464,285 L 464,284 L 465,283 L 465,279 L 466,278 L 466,264 L 465,265 L 464,264 L 460,264 L 459,265 L 458,264 Z" fill="#f0d8d8" stroke="none" /><path d="M 251,133 L 252,134 L 252,135 L 253,136 L 253,137 L 255,139 L 255,140 L 256,141 L 256,142 L 257,143 L 257,147 L 258,148 L 258,151 L 259,152 L 259,153 L 260,154 L 261,154 L 262,155 L 263,155 L 264,156 L 265,155 L 266,156 L 266,157 L 267,157 L 268,158 L 270,158 L 270,150 L 269,149 L 271,147 L 270,146 L 270,145 L 269,144 L 268,144 L 266,142 L 265,142 L 264,141 L 263,141 L 261,139 L 260,140 L 259,139 L 259,138 L 258,137 L 256,137 L 255,136 L 254,136 Z" fill="#f0d8d8" stroke="none" /><path d="M 409,102 L 408,103 L 406,103 L 405,104 L 396,104 L 395,105 L 394,104 L 393,105 L 391,103 L 389,103 L 389,104 L 390,105 L 390,107 L 391,108 L 390,109 L 391,109 L 392,110 L 393,110 L 394,111 L 403,111 L 404,110 L 405,110 L 406,109 L 407,109 L 408,108 L 409,108 Z" fill="#f0d8d8" stroke="none" /><path d="M 402,35 L 401,36 L 400,36 L 399,37 L 398,37 L 397,38 L 394,38 L 393,39 L 390,39 L 390,40 L 389,41 L 388,40 L 385,40 L 383,42 L 383,43 L 376,50 L 376,51 L 373,54 L 373,55 L 372,56 L 372,57 L 371,58 L 371,68 L 372,69 L 372,70 L 373,71 L 372,72 L 374,74 L 373,75 L 374,76 L 374,78 L 376,80 L 376,82 L 377,83 L 377,84 L 379,86 L 379,87 L 384,92 L 385,92 L 387,94 L 388,94 L 390,96 L 392,96 L 393,97 L 396,97 L 397,96 L 398,97 L 404,97 L 405,96 L 407,96 L 409,94 L 411,94 L 414,91 L 415,91 L 416,90 L 416,89 L 420,85 L 420,84 L 421,83 L 421,82 L 422,81 L 422,80 L 423,79 L 423,78 L 424,77 L 424,75 L 425,74 L 425,72 L 426,71 L 426,68 L 425,67 L 427,65 L 426,64 L 427,63 L 427,59 L 426,59 L 425,58 L 425,57 L 423,55 L 423,54 L 422,54 L 421,53 L 421,51 L 420,51 L 419,50 L 419,49 L 417,47 L 416,47 L 415,46 L 414,46 L 411,43 L 411,41 L 410,41 L 409,40 L 408,40 L 407,39 L 406,39 Z" fill="#f0d8d8" stroke="none" /><path d="M 132,157 L 131,158 L 112,158 L 112,160 L 122,160 L 123,161 L 118,166 L 117,166 L 113,170 L 112,170 L 111,171 L 122,171 L 123,172 L 126,172 L 127,173 L 128,173 L 133,178 L 133,184 L 131,186 L 130,186 L 129,187 L 127,187 L 126,188 L 120,188 L 119,189 L 112,189 L 111,188 L 109,188 L 109,190 L 126,190 L 127,189 L 129,189 L 130,188 L 131,188 L 132,187 L 133,187 L 134,186 L 134,185 L 135,184 L 135,178 L 134,177 L 134,176 L 130,172 L 129,172 L 128,171 L 127,171 L 126,170 L 123,170 L 122,169 L 120,169 L 119,168 L 124,163 L 125,163 L 129,159 L 130,159 Z" fill="#f0f0f0" stroke="none" /><path d="M 139,142 L 138,143 L 127,143 L 126,144 L 114,144 L 113,145 L 102,145 L 101,146 L 90,146 L 89,147 L 83,147 L 83,149 L 88,149 L 89,148 L 99,148 L 100,147 L 112,147 L 113,146 L 124,146 L 125,145 L 136,145 L 137,144 L 145,144 L 145,142 Z" fill="#f0f0f0" stroke="none" /><path d="M 411,138 L 411,141 L 410,142 L 410,147 L 409,148 L 409,153 L 408,154 L 408,159 L 407,160 L 407,165 L 406,166 L 406,171 L 405,172 L 405,175 L 405,174 L 406,173 L 406,172 L 407,171 L 407,169 L 408,168 L 408,167 L 409,166 L 409,165 L 410,164 L 410,163 L 411,162 L 411,160 L 412,159 L 412,158 L 413,157 L 413,156 L 414,155 L 414,153 L 415,152 L 415,151 L 416,150 L 416,149 L 417,148 L 417,147 L 418,146 L 417,145 L 417,144 Z" fill="#f0f0f0" stroke="none" /><path d="M 384,114 L 384,115 L 383,116 L 383,117 L 382,118 L 382,119 L 381,120 L 381,121 L 380,122 L 380,123 L 379,124 L 379,125 L 378,126 L 378,127 L 377,128 L 377,129 L 376,130 L 377,130 L 379,132 L 380,132 L 383,135 L 384,135 L 387,138 L 387,140 L 386,141 L 385,141 L 382,144 L 381,144 L 379,146 L 379,147 L 380,148 L 380,149 L 381,150 L 381,151 L 382,152 L 382,153 L 383,154 L 383,156 L 384,157 L 384,158 L 385,159 L 385,160 L 386,161 L 386,163 L 387,164 L 387,165 L 388,166 L 388,167 L 389,168 L 389,169 L 390,170 L 390,172 L 391,173 L 391,174 L 392,175 L 392,176 L 392,171 L 391,170 L 391,164 L 390,163 L 390,156 L 389,155 L 389,149 L 388,148 L 388,142 L 387,141 L 387,134 L 386,133 L 386,127 L 385,126 L 385,120 L 384,119 Z" fill="#f0f0f0" stroke="none" /><path d="M 420,111 L 421,112 L 421,114 L 422,115 L 422,116 L 423,117 L 423,118 L 424,119 L 424,121 L 425,122 L 425,123 L 426,124 L 426,127 L 425,128 L 424,128 L 420,132 L 419,132 L 416,135 L 416,136 L 420,140 L 420,141 L 423,144 L 423,147 L 422,148 L 422,149 L 421,150 L 421,151 L 420,152 L 420,154 L 419,155 L 419,156 L 418,157 L 418,158 L 417,159 L 417,160 L 416,161 L 416,163 L 415,164 L 415,165 L 414,166 L 414,167 L 413,168 L 413,170 L 412,171 L 412,172 L 411,173 L 411,174 L 410,175 L 410,176 L 409,177 L 409,179 L 408,180 L 408,181 L 407,182 L 407,183 L 406,184 L 406,186 L 405,187 L 405,188 L 404,189 L 404,190 L 403,191 L 403,192 L 402,193 L 402,195 L 401,196 L 401,343 L 404,343 L 405,342 L 406,343 L 409,343 L 410,342 L 447,342 L 447,314 L 446,313 L 446,273 L 445,272 L 445,233 L 444,232 L 444,192 L 443,191 L 443,156 L 444,155 L 448,155 L 449,156 L 449,157 L 450,158 L 450,198 L 451,199 L 451,238 L 452,239 L 452,256 L 453,256 L 454,257 L 467,257 L 467,253 L 466,252 L 466,235 L 465,234 L 465,217 L 464,216 L 464,195 L 463,194 L 463,183 L 462,182 L 462,175 L 461,174 L 461,169 L 460,168 L 460,163 L 459,162 L 459,157 L 458,156 L 458,152 L 457,151 L 457,148 L 456,147 L 456,143 L 455,142 L 455,139 L 454,138 L 454,136 L 453,135 L 453,133 L 452,132 L 452,131 L 451,130 L 451,129 L 450,128 L 449,128 L 447,126 L 446,126 L 444,124 L 443,124 L 442,123 L 441,123 L 439,121 L 438,121 L 437,120 L 436,120 L 435,119 L 434,119 L 432,117 L 431,117 L 430,116 L 429,116 L 428,115 L 427,115 L 425,113 L 424,113 L 423,112 L 422,112 L 421,111 Z" fill="#f0f0f0" stroke="none" /><path d="M 415,111 L 415,116 L 414,117 L 414,122 L 413,123 L 413,128 L 412,129 L 412,132 L 416,128 L 417,128 L 420,125 L 420,123 L 419,122 L 419,121 L 418,120 L 418,118 L 417,117 L 417,116 L 416,115 L 416,113 L 415,112 Z" fill="#f0f0f0" stroke="none" /><path d="M 380,111 L 379,112 L 378,112 L 377,113 L 376,113 L 375,114 L 374,114 L 372,116 L 371,116 L 370,117 L 369,117 L 368,118 L 367,118 L 365,120 L 364,120 L 363,121 L 362,121 L 360,123 L 359,123 L 357,125 L 356,125 L 354,127 L 353,127 L 339,141 L 338,141 L 337,142 L 337,143 L 322,158 L 322,159 L 319,162 L 314,162 L 313,161 L 312,161 L 311,160 L 309,160 L 308,159 L 307,159 L 306,158 L 304,158 L 303,157 L 302,157 L 301,156 L 300,156 L 299,155 L 298,155 L 297,154 L 295,154 L 294,153 L 293,153 L 292,152 L 291,152 L 290,151 L 289,151 L 288,150 L 287,150 L 286,149 L 285,149 L 284,148 L 283,148 L 282,147 L 281,147 L 280,146 L 279,146 L 278,145 L 278,147 L 277,148 L 277,164 L 278,165 L 279,165 L 281,167 L 282,167 L 283,168 L 284,168 L 285,169 L 286,169 L 287,170 L 288,170 L 289,171 L 290,171 L 291,172 L 293,172 L 294,173 L 295,173 L 296,174 L 298,174 L 299,175 L 300,175 L 301,176 L 303,176 L 304,177 L 306,177 L 307,178 L 309,178 L 310,179 L 312,179 L 313,180 L 315,180 L 316,181 L 318,181 L 319,182 L 323,182 L 324,183 L 325,182 L 326,182 L 327,181 L 328,181 L 330,179 L 331,179 L 351,159 L 351,158 L 353,156 L 357,156 L 358,157 L 358,178 L 357,179 L 357,202 L 356,203 L 356,226 L 355,227 L 355,250 L 354,251 L 354,274 L 353,275 L 353,298 L 352,299 L 352,322 L 351,323 L 351,343 L 396,343 L 396,197 L 395,196 L 395,194 L 394,193 L 394,192 L 393,191 L 393,190 L 392,189 L 392,188 L 391,187 L 391,185 L 390,184 L 390,183 L 389,182 L 389,181 L 388,180 L 388,178 L 387,177 L 387,176 L 386,175 L 386,174 L 385,173 L 385,172 L 384,171 L 384,169 L 383,168 L 383,167 L 382,166 L 382,165 L 381,164 L 381,162 L 380,161 L 380,160 L 379,159 L 379,158 L 378,157 L 378,156 L 377,155 L 377,153 L 376,152 L 376,151 L 375,150 L 375,149 L 374,148 L 374,146 L 373,145 L 378,140 L 379,140 L 380,139 L 377,136 L 376,136 L 374,134 L 373,134 L 371,132 L 371,128 L 372,127 L 372,126 L 373,125 L 373,124 L 374,123 L 374,122 L 375,121 L 375,120 L 376,119 L 376,118 L 377,117 L 377,116 L 378,115 L 378,114 L 379,113 L 379,112 Z" fill="#f0f0f0" stroke="none" /><path d="M 105,107 L 103,109 L 103,110 L 102,111 L 102,112 L 101,113 L 103,113 L 104,112 L 104,111 L 106,109 L 108,109 L 109,110 L 109,111 L 110,112 L 110,113 L 111,114 L 111,116 L 110,117 L 110,120 L 109,121 L 109,122 L 108,123 L 108,124 L 107,125 L 107,126 L 105,128 L 105,129 L 101,133 L 111,133 L 112,132 L 123,132 L 123,130 L 114,130 L 113,131 L 108,131 L 107,130 L 107,129 L 108,128 L 108,127 L 110,125 L 110,123 L 111,122 L 111,121 L 112,120 L 112,111 L 110,109 L 110,108 L 109,108 L 108,107 Z" fill="#f0f0f0" stroke="none" /><path d="M 85,100 L 84,101 L 84,103 L 85,104 L 85,108 L 84,109 L 82,109 L 81,110 L 78,110 L 77,111 L 77,113 L 78,112 L 81,112 L 82,111 L 85,111 L 86,112 L 86,113 L 87,114 L 87,118 L 89,118 L 89,114 L 88,113 L 88,111 L 90,109 L 93,109 L 94,108 L 97,108 L 97,107 L 96,106 L 94,106 L 93,107 L 90,107 L 89,108 L 88,108 L 87,107 L 87,104 L 86,103 L 86,100 Z" fill="#f0f0f0" stroke="none" /><path d="M 99,63 L 97,65 L 97,66 L 93,70 L 93,71 L 89,75 L 90,76 L 91,76 L 94,73 L 94,72 L 95,71 L 96,71 L 97,72 L 97,87 L 99,87 Z" fill="#f0f0f0" stroke="none" /></svg>