<?xml version="1.0" encoding="utf-8" ?>
<svg baseProfile="full" height="500" version="1.1" viewBox="0 0 500 500" width="500" xmlns="http://www.w3.org/2000/svg" xmlns:ev="http://www.w3.org/2001/xml-events" xmlns:xlink="http://www.w3.org/1999/xlink"><defs /><path d="M 391,219 L 390,220 L 389,220 L 385,224 L 385,225 L 384,226 L 384,231 L 385,232 L 385,233 L 388,236 L 389,236 L 390,237 L 392,237 L 393,238 L 397,238 L 398,239 L 401,239 L 402,240 L 403,240 L 406,243 L 406,244 L 405,245 L 405,246 L 403,248 L 402,248 L 401,249 L 395,249 L 394,248 L 393,248 L 390,245 L 390,244 L 389,243 L 389,242 L 388,243 L 384,243 L 384,246 L 385,247 L 385,248 L 390,253 L 393,253 L 394,254 L 401,254 L 402,253 L 404,253 L 405,252 L 406,252 L 407,251 L 408,251 L 410,249 L 410,248 L 411,247 L 411,245 L 412,244 L 412,242 L 411,241 L 411,239 L 410,238 L 410,237 L 409,236 L 408,236 L 407,235 L 405,235 L 404,234 L 402,234 L 401,233 L 398,233 L 397,232 L 394,232 L 393,231 L 392,231 L 390,229 L 390,226 L 392,224 L 394,224 L 395,223 L 399,223 L 400,224 L 401,224 L 404,227 L 404,229 L 405,228 L 410,228 L 410,227 L 409,226 L 409,224 L 408,223 L 408,222 L 407,221 L 406,221 L 405,220 L 404,220 L 403,219 Z" fill="#000000" stroke="none" /><path d="M 430,216 L 429,217 L 425,217 L 424,218 L 423,218 L 420,221 L 420,222 L 419,223 L 419,230 L 423,234 L 424,234 L 425,235 L 428,235 L 429,236 L 432,236 L 433,237 L 436,237 L 437,238 L 438,238 L 440,240 L 440,243 L 437,246 L 436,246 L 435,247 L 430,247 L 429,246 L 428,246 L 424,242 L 424,240 L 422,240 L 421,241 L 418,241 L 418,242 L 419,243 L 419,245 L 421,247 L 421,248 L 422,249 L 423,249 L 425,251 L 429,251 L 430,252 L 433,252 L 434,251 L 438,251 L 439,250 L 441,250 L 445,246 L 445,245 L 446,244 L 446,237 L 442,233 L 441,233 L 440,232 L 437,232 L 436,231 L 433,231 L 432,230 L 429,230 L 428,229 L 427,229 L 424,226 L 424,225 L 427,222 L 428,222 L 429,221 L 434,221 L 435,222 L 436,222 L 438,224 L 438,225 L 439,226 L 443,226 L 444,225 L 444,223 L 443,222 L 443,221 L 440,218 L 439,218 L 438,217 L 435,217 L 434,216 Z" fill="#000000" stroke="none" /><path d="M 464,213 L 463,214 L 460,214 L 459,215 L 458,215 L 454,219 L 454,221 L 453,222 L 453,225 L 454,226 L 454,227 L 455,228 L 455,229 L 456,230 L 457,230 L 458,231 L 459,231 L 460,232 L 462,232 L 463,233 L 467,233 L 468,234 L 471,234 L 472,235 L 473,235 L 475,237 L 475,240 L 472,243 L 470,243 L 469,244 L 465,244 L 464,243 L 462,243 L 459,240 L 459,238 L 458,237 L 457,237 L 456,238 L 453,238 L 453,240 L 454,241 L 454,242 L 455,243 L 455,244 L 458,247 L 459,247 L 460,248 L 464,248 L 465,249 L 468,249 L 469,248 L 473,248 L 474,247 L 475,247 L 476,246 L 477,246 L 479,244 L 479,243 L 480,242 L 480,240 L 481,239 L 481,236 L 480,235 L 480,233 L 478,231 L 477,231 L 476,230 L 475,230 L 474,229 L 472,229 L 471,228 L 468,228 L 467,227 L 464,227 L 463,226 L 461,226 L 459,224 L 459,221 L 461,219 L 462,219 L 463,218 L 469,218 L 473,222 L 473,223 L 478,223 L 479,222 L 479,221 L 478,220 L 478,218 L 475,215 L 474,215 L 473,214 L 470,214 L 469,213 Z" fill="#000000" stroke="none" /><path d="M 164,27 L 163,28 L 157,28 L 156,29 L 151,29 L 150,30 L 146,30 L 145,31 L 142,31 L 141,32 L 138,32 L 137,33 L 135,33 L 134,34 L 131,34 L 130,35 L 128,35 L 127,36 L 125,36 L 124,37 L 122,37 L 121,38 L 120,38 L 119,39 L 117,39 L 116,40 L 115,40 L 114,41 L 112,41 L 111,42 L 110,42 L 109,43 L 108,43 L 107,44 L 106,44 L 105,45 L 104,45 L 103,46 L 102,46 L 101,47 L 100,47 L 99,48 L 98,48 L 97,49 L 96,49 L 95,50 L 94,50 L 93,51 L 92,51 L 90,53 L 89,53 L 87,55 L 86,55 L 85,56 L 84,56 L 82,58 L 81,58 L 79,60 L 78,60 L 75,63 L 74,63 L 69,68 L 68,68 L 61,75 L 60,75 L 57,78 L 57,79 L 48,88 L 48,89 L 44,93 L 44,94 L 41,97 L 41,98 L 39,100 L 39,101 L 37,103 L 37,104 L 35,106 L 35,107 L 33,109 L 33,110 L 32,111 L 32,112 L 31,113 L 31,114 L 30,115 L 30,116 L 28,118 L 28,119 L 27,120 L 27,121 L 26,122 L 26,124 L 25,125 L 25,126 L 24,127 L 24,128 L 23,129 L 23,130 L 22,131 L 22,133 L 21,134 L 21,135 L 20,136 L 20,138 L 19,139 L 19,141 L 18,142 L 18,144 L 17,145 L 17,148 L 16,149 L 16,151 L 15,152 L 15,155 L 14,156 L 14,160 L 13,161 L 13,165 L 12,166 L 12,171 L 11,172 L 11,180 L 10,181 L 10,207 L 11,208 L 11,216 L 12,217 L 12,223 L 13,224 L 13,228 L 14,229 L 14,232 L 15,233 L 15,236 L 16,237 L 16,240 L 17,241 L 17,243 L 18,244 L 18,246 L 19,247 L 19,249 L 20,250 L 20,252 L 21,253 L 21,254 L 22,255 L 22,257 L 23,258 L 23,259 L 24,260 L 24,262 L 25,263 L 25,264 L 26,265 L 26,266 L 27,267 L 27,268 L 28,269 L 28,270 L 29,271 L 29,272 L 31,274 L 31,275 L 32,276 L 32,277 L 34,279 L 34,280 L 35,281 L 35,282 L 37,284 L 37,285 L 39,287 L 39,288 L 40,289 L 40,290 L 43,293 L 43,294 L 46,297 L 46,298 L 50,302 L 50,303 L 57,310 L 57,311 L 58,312 L 59,312 L 62,315 L 62,316 L 63,316 L 70,323 L 71,323 L 75,327 L 76,327 L 79,330 L 80,330 L 82,332 L 83,332 L 85,334 L 86,334 L 88,336 L 89,336 L 90,337 L 91,337 L 93,339 L 94,339 L 95,340 L 96,340 L 97,341 L 98,341 L 99,342 L 100,342 L 101,343 L 102,343 L 103,344 L 104,344 L 105,345 L 106,345 L 107,346 L 108,346 L 109,347 L 111,347 L 112,348 L 113,348 L 114,349 L 116,349 L 117,350 L 119,350 L 120,351 L 122,351 L 123,352 L 125,352 L 126,353 L 128,353 L 129,354 L 132,354 L 133,355 L 136,355 L 137,356 L 141,356 L 142,357 L 146,357 L 147,358 L 150,358 L 151,359 L 151,369 L 150,370 L 150,397 L 149,398 L 149,402 L 169,402 L 170,403 L 195,403 L 195,390 L 196,389 L 196,362 L 197,361 L 197,358 L 198,357 L 203,357 L 204,356 L 208,356 L 209,355 L 212,355 L 213,354 L 216,354 L 217,353 L 220,353 L 221,352 L 223,352 L 224,351 L 226,351 L 227,350 L 229,350 L 230,349 L 232,349 L 233,348 L 235,348 L 236,347 L 237,347 L 238,346 L 240,346 L 241,345 L 242,345 L 243,344 L 244,344 L 245,343 L 246,343 L 247,342 L 248,342 L 249,341 L 250,341 L 251,340 L 252,340 L 253,339 L 254,339 L 255,338 L 256,338 L 257,337 L 258,337 L 259,336 L 260,336 L 261,335 L 262,335 L 263,334 L 264,334 L 266,332 L 267,332 L 268,331 L 269,331 L 270,330 L 271,330 L 273,328 L 274,328 L 275,327 L 276,327 L 278,325 L 279,325 L 281,323 L 282,323 L 284,321 L 285,321 L 288,318 L 289,318 L 303,304 L 303,303 L 307,299 L 307,298 L 309,296 L 309,295 L 310,294 L 310,293 L 312,291 L 320,291 L 321,290 L 324,290 L 325,291 L 324,292 L 324,294 L 323,295 L 323,297 L 322,298 L 322,300 L 321,301 L 321,303 L 320,304 L 320,306 L 319,307 L 319,309 L 318,310 L 318,312 L 317,313 L 317,317 L 316,318 L 316,321 L 315,322 L 315,326 L 314,327 L 314,332 L 313,333 L 313,338 L 312,339 L 312,346 L 311,347 L 311,354 L 310,355 L 310,362 L 309,363 L 309,371 L 308,372 L 308,379 L 307,380 L 307,385 L 306,386 L 306,391 L 305,392 L 305,396 L 304,397 L 304,401 L 303,402 L 303,406 L 302,407 L 302,411 L 301,412 L 301,416 L 300,417 L 300,420 L 299,421 L 299,425 L 298,426 L 298,429 L 297,430 L 297,433 L 296,434 L 296,437 L 295,438 L 295,441 L 294,442 L 294,444 L 293,445 L 293,448 L 292,449 L 292,451 L 291,452 L 291,454 L 290,455 L 290,462 L 291,463 L 297,463 L 298,462 L 298,457 L 299,456 L 299,454 L 300,453 L 300,451 L 301,450 L 301,447 L 302,446 L 302,444 L 303,443 L 303,440 L 304,439 L 304,436 L 305,435 L 305,432 L 306,431 L 306,427 L 307,426 L 307,423 L 308,422 L 308,419 L 309,418 L 309,414 L 310,413 L 310,409 L 311,408 L 311,404 L 312,403 L 312,399 L 313,398 L 313,394 L 314,393 L 314,388 L 315,387 L 315,382 L 316,381 L 316,374 L 317,373 L 317,365 L 318,364 L 318,357 L 319,356 L 319,349 L 320,348 L 320,341 L 321,340 L 321,335 L 322,334 L 322,329 L 323,328 L 323,324 L 324,323 L 324,319 L 325,318 L 325,315 L 326,314 L 326,312 L 327,311 L 327,309 L 328,308 L 328,306 L 329,305 L 329,303 L 330,302 L 330,300 L 331,299 L 331,297 L 332,296 L 332,294 L 333,293 L 333,291 L 334,290 L 334,288 L 335,287 L 335,285 L 336,284 L 336,282 L 337,281 L 337,279 L 338,278 L 338,276 L 339,275 L 339,273 L 340,272 L 340,270 L 341,269 L 341,266 L 342,265 L 342,263 L 343,262 L 343,260 L 344,259 L 344,257 L 345,256 L 345,255 L 346,254 L 346,253 L 347,252 L 347,251 L 348,250 L 348,244 L 349,243 L 349,241 L 350,240 L 350,238 L 351,237 L 351,234 L 352,233 L 352,231 L 353,230 L 353,228 L 354,227 L 354,224 L 355,223 L 355,221 L 356,220 L 356,219 L 357,218 L 360,218 L 363,221 L 363,222 L 364,223 L 364,226 L 363,227 L 363,232 L 362,233 L 362,238 L 361,239 L 361,244 L 360,245 L 360,249 L 359,250 L 359,254 L 358,255 L 358,260 L 357,261 L 357,265 L 356,266 L 356,270 L 355,271 L 355,276 L 354,277 L 354,281 L 353,282 L 353,287 L 352,288 L 352,293 L 351,294 L 351,298 L 350,299 L 350,300 L 347,303 L 346,303 L 344,305 L 343,305 L 341,307 L 340,307 L 331,316 L 331,321 L 332,322 L 336,322 L 346,312 L 347,312 L 349,310 L 350,310 L 352,308 L 353,308 L 354,307 L 355,307 L 356,306 L 357,306 L 359,304 L 360,304 L 361,303 L 362,303 L 363,302 L 364,302 L 365,301 L 366,301 L 367,300 L 368,300 L 369,299 L 370,299 L 372,297 L 373,297 L 374,296 L 375,296 L 377,294 L 378,294 L 379,293 L 380,293 L 382,291 L 383,291 L 385,289 L 386,289 L 387,288 L 393,288 L 394,289 L 395,289 L 399,293 L 399,294 L 400,295 L 400,296 L 401,297 L 401,298 L 402,299 L 402,301 L 403,302 L 403,303 L 404,304 L 404,305 L 405,306 L 405,307 L 406,308 L 406,309 L 407,310 L 407,311 L 408,312 L 408,313 L 409,314 L 409,315 L 410,316 L 410,317 L 409,318 L 408,318 L 407,317 L 383,317 L 382,316 L 381,317 L 380,316 L 364,316 L 363,315 L 361,315 L 360,316 L 359,316 L 358,317 L 357,317 L 357,318 L 356,319 L 356,320 L 355,321 L 355,329 L 356,330 L 356,331 L 361,331 L 362,330 L 362,324 L 363,323 L 371,323 L 372,324 L 401,324 L 402,325 L 410,325 L 413,328 L 413,330 L 414,331 L 414,333 L 415,334 L 414,335 L 412,335 L 411,334 L 410,334 L 409,333 L 408,333 L 407,332 L 405,332 L 404,331 L 403,331 L 402,330 L 401,330 L 400,329 L 398,329 L 397,328 L 393,328 L 392,329 L 392,330 L 391,331 L 392,332 L 392,334 L 393,334 L 394,335 L 395,335 L 396,336 L 397,336 L 398,337 L 400,337 L 401,338 L 402,338 L 403,339 L 404,339 L 405,340 L 406,340 L 407,341 L 409,341 L 410,342 L 411,342 L 412,343 L 413,343 L 414,344 L 415,344 L 417,346 L 418,346 L 419,347 L 420,347 L 422,349 L 422,353 L 423,354 L 422,355 L 422,362 L 421,363 L 421,366 L 420,367 L 420,372 L 419,373 L 419,376 L 418,377 L 418,379 L 417,380 L 417,382 L 416,383 L 416,384 L 414,386 L 414,387 L 413,388 L 413,390 L 412,391 L 412,392 L 409,395 L 408,394 L 407,394 L 406,393 L 405,393 L 404,392 L 404,389 L 405,388 L 405,385 L 406,384 L 406,381 L 407,380 L 407,377 L 408,376 L 408,372 L 409,371 L 409,366 L 411,364 L 417,364 L 418,363 L 419,363 L 419,362 L 420,361 L 420,359 L 418,357 L 405,357 L 403,359 L 403,362 L 402,363 L 402,368 L 401,369 L 401,373 L 400,374 L 400,378 L 399,379 L 399,382 L 398,383 L 398,386 L 397,387 L 397,389 L 396,390 L 396,391 L 395,392 L 395,395 L 394,396 L 394,398 L 393,399 L 393,401 L 392,402 L 392,403 L 391,404 L 391,405 L 390,406 L 390,408 L 389,409 L 389,410 L 388,411 L 388,412 L 387,413 L 387,414 L 385,416 L 385,417 L 384,418 L 384,419 L 383,420 L 383,421 L 381,423 L 381,424 L 379,426 L 379,427 L 375,431 L 375,432 L 368,439 L 368,440 L 367,441 L 367,446 L 366,447 L 366,452 L 365,453 L 365,459 L 364,460 L 364,467 L 365,468 L 370,468 L 372,466 L 372,462 L 373,461 L 373,455 L 374,454 L 374,449 L 375,448 L 375,444 L 382,437 L 382,436 L 385,433 L 385,432 L 387,430 L 387,429 L 389,427 L 389,426 L 391,424 L 391,423 L 392,422 L 392,421 L 393,420 L 393,419 L 394,418 L 394,417 L 395,416 L 395,415 L 396,414 L 396,413 L 397,412 L 397,411 L 398,410 L 398,409 L 399,408 L 399,406 L 400,405 L 400,404 L 401,403 L 401,402 L 402,401 L 403,401 L 404,402 L 406,402 L 407,403 L 412,403 L 413,402 L 414,402 L 415,401 L 416,401 L 417,400 L 417,399 L 418,398 L 418,397 L 419,396 L 419,395 L 420,394 L 420,393 L 421,392 L 421,391 L 422,390 L 422,389 L 423,388 L 423,387 L 424,386 L 424,385 L 425,384 L 425,382 L 426,381 L 426,379 L 427,378 L 427,375 L 428,374 L 428,369 L 429,368 L 429,365 L 430,364 L 430,358 L 431,357 L 431,351 L 430,350 L 430,347 L 429,346 L 429,345 L 428,344 L 428,343 L 426,341 L 425,341 L 423,339 L 423,332 L 422,331 L 422,328 L 421,327 L 421,321 L 420,320 L 420,318 L 419,317 L 419,316 L 418,315 L 418,314 L 417,313 L 417,312 L 416,311 L 416,310 L 415,309 L 415,308 L 414,307 L 414,306 L 413,305 L 413,304 L 412,303 L 412,301 L 411,300 L 411,299 L 410,298 L 410,297 L 409,296 L 409,294 L 408,293 L 408,292 L 407,291 L 407,290 L 405,288 L 405,287 L 401,283 L 400,283 L 398,281 L 396,281 L 395,280 L 384,280 L 383,281 L 382,281 L 380,283 L 379,283 L 378,284 L 377,284 L 375,286 L 374,286 L 372,288 L 371,288 L 370,289 L 369,289 L 367,291 L 366,291 L 365,292 L 364,292 L 363,293 L 362,293 L 361,294 L 360,293 L 360,289 L 361,288 L 361,284 L 362,283 L 362,279 L 363,278 L 363,273 L 364,272 L 364,268 L 365,267 L 365,263 L 366,262 L 366,257 L 367,256 L 367,252 L 368,251 L 368,247 L 369,246 L 369,241 L 370,240 L 370,235 L 371,234 L 371,229 L 372,228 L 372,222 L 371,221 L 371,218 L 370,217 L 370,216 L 366,212 L 365,212 L 364,211 L 363,211 L 362,210 L 352,210 L 351,211 L 350,211 L 350,212 L 349,213 L 349,215 L 348,216 L 348,218 L 347,219 L 347,221 L 346,222 L 346,225 L 345,226 L 345,228 L 344,229 L 344,231 L 343,232 L 342,232 L 337,227 L 337,226 L 338,225 L 338,220 L 339,219 L 339,209 L 340,208 L 341,208 L 342,207 L 343,207 L 345,205 L 346,205 L 347,204 L 348,204 L 352,200 L 353,200 L 356,197 L 356,196 L 358,194 L 358,193 L 360,191 L 360,190 L 361,189 L 361,187 L 362,186 L 362,180 L 363,179 L 363,178 L 362,177 L 362,172 L 361,171 L 361,169 L 360,168 L 360,166 L 359,165 L 359,164 L 358,163 L 358,162 L 356,160 L 356,159 L 354,157 L 354,156 L 350,152 L 350,151 L 345,146 L 345,145 L 338,138 L 338,137 L 329,128 L 329,127 L 323,121 L 323,120 L 321,118 L 321,117 L 320,116 L 320,115 L 318,113 L 318,112 L 316,110 L 316,109 L 314,107 L 314,106 L 313,105 L 313,104 L 311,102 L 311,101 L 309,99 L 309,98 L 306,95 L 306,94 L 303,91 L 303,90 L 300,87 L 300,86 L 294,80 L 294,79 L 279,64 L 278,64 L 273,59 L 272,59 L 269,56 L 268,56 L 265,53 L 264,53 L 262,51 L 261,51 L 259,49 L 258,49 L 257,48 L 256,48 L 254,46 L 253,46 L 252,45 L 251,45 L 250,44 L 249,44 L 248,43 L 247,43 L 245,41 L 243,41 L 242,40 L 241,40 L 240,39 L 239,39 L 238,38 L 237,38 L 236,37 L 234,37 L 233,36 L 232,36 L 231,35 L 229,35 L 228,34 L 226,34 L 225,33 L 223,33 L 222,32 L 219,32 L 218,31 L 215,31 L 214,30 L 211,30 L 210,29 L 205,29 L 204,28 L 198,28 L 197,27 Z" fill="#000000" stroke="none" /><path d="M 418,365 L 417,366 L 411,366 L 411,370 L 410,371 L 410,375 L 409,376 L 409,380 L 408,381 L 408,384 L 407,385 L 407,387 L 406,388 L 406,391 L 407,392 L 408,392 L 409,393 L 410,392 L 410,391 L 411,390 L 411,389 L 412,388 L 412,386 L 414,384 L 414,383 L 415,382 L 415,380 L 416,379 L 416,377 L 417,376 L 417,374 L 418,373 L 418,369 L 419,368 L 419,365 Z" fill="#f0f0f0" stroke="none" /><path d="M 357,220 L 357,223 L 356,224 L 356,226 L 355,227 L 355,229 L 354,230 L 354,233 L 353,234 L 353,236 L 352,237 L 352,239 L 351,240 L 351,243 L 350,244 L 350,250 L 349,251 L 349,252 L 348,253 L 348,254 L 346,256 L 346,259 L 345,260 L 345,262 L 344,263 L 344,265 L 343,266 L 343,268 L 342,269 L 342,271 L 341,272 L 341,274 L 340,275 L 340,278 L 339,279 L 339,281 L 338,282 L 338,284 L 337,285 L 337,287 L 336,288 L 336,290 L 335,291 L 335,293 L 334,294 L 334,296 L 333,297 L 333,299 L 332,300 L 332,302 L 331,303 L 331,304 L 330,305 L 330,307 L 329,308 L 329,310 L 328,311 L 328,314 L 327,315 L 327,318 L 326,319 L 326,322 L 325,323 L 325,327 L 324,328 L 324,333 L 323,334 L 323,339 L 322,340 L 322,346 L 321,347 L 321,354 L 320,355 L 320,363 L 319,364 L 319,371 L 318,372 L 318,379 L 317,380 L 317,386 L 316,387 L 316,392 L 315,393 L 315,397 L 314,398 L 314,402 L 313,403 L 313,407 L 312,408 L 312,412 L 311,413 L 311,417 L 310,418 L 310,421 L 309,422 L 309,426 L 308,427 L 308,430 L 307,431 L 307,434 L 306,435 L 306,438 L 305,439 L 305,442 L 304,443 L 304,446 L 303,447 L 303,450 L 302,451 L 302,453 L 301,454 L 301,456 L 300,457 L 300,459 L 299,460 L 299,461 L 309,461 L 310,462 L 320,462 L 321,461 L 322,462 L 324,462 L 325,463 L 339,463 L 340,464 L 350,464 L 351,463 L 352,464 L 353,464 L 354,465 L 362,465 L 362,461 L 363,460 L 363,455 L 364,454 L 364,448 L 365,447 L 365,441 L 366,440 L 366,439 L 373,432 L 373,431 L 377,427 L 377,426 L 379,424 L 379,423 L 381,421 L 381,420 L 382,419 L 382,418 L 384,416 L 384,415 L 385,414 L 385,413 L 386,412 L 386,411 L 387,410 L 387,409 L 388,408 L 388,407 L 389,406 L 389,404 L 390,403 L 390,402 L 391,401 L 391,399 L 392,398 L 392,397 L 393,396 L 393,394 L 394,393 L 394,390 L 395,389 L 395,387 L 396,386 L 396,384 L 397,383 L 397,380 L 398,379 L 398,375 L 399,374 L 399,370 L 400,369 L 400,364 L 401,363 L 401,359 L 402,358 L 402,357 L 403,356 L 404,356 L 405,355 L 418,355 L 420,357 L 421,357 L 421,352 L 420,351 L 420,349 L 419,349 L 418,348 L 417,348 L 415,346 L 414,346 L 413,345 L 412,345 L 411,344 L 410,344 L 409,343 L 408,343 L 407,342 L 405,342 L 404,341 L 403,341 L 402,340 L 401,340 L 400,339 L 399,339 L 398,338 L 396,338 L 395,337 L 394,337 L 393,336 L 392,336 L 390,334 L 390,329 L 393,326 L 397,326 L 398,327 L 399,327 L 400,328 L 402,328 L 403,329 L 404,329 L 405,330 L 406,330 L 407,331 L 409,331 L 410,332 L 411,332 L 412,333 L 413,333 L 412,332 L 412,330 L 411,329 L 411,328 L 410,327 L 405,327 L 404,326 L 377,326 L 376,325 L 364,325 L 364,330 L 361,333 L 356,333 L 354,331 L 354,330 L 353,329 L 353,322 L 354,321 L 354,319 L 355,318 L 355,317 L 357,315 L 358,315 L 359,314 L 376,314 L 377,315 L 404,315 L 405,316 L 408,316 L 407,315 L 407,314 L 406,313 L 406,312 L 405,311 L 405,310 L 404,309 L 404,308 L 403,307 L 403,306 L 402,305 L 402,304 L 401,303 L 401,301 L 400,300 L 400,299 L 399,298 L 399,297 L 398,296 L 398,295 L 397,294 L 397,293 L 395,291 L 394,291 L 393,290 L 390,290 L 389,289 L 388,290 L 387,290 L 386,291 L 385,291 L 383,293 L 382,293 L 380,295 L 379,295 L 378,296 L 377,296 L 375,298 L 374,298 L 373,299 L 372,299 L 370,301 L 369,301 L 368,302 L 367,302 L 366,303 L 365,303 L 364,304 L 363,304 L 362,305 L 361,305 L 360,306 L 359,306 L 358,307 L 357,307 L 355,309 L 354,309 L 353,310 L 352,310 L 350,312 L 349,312 L 347,314 L 346,314 L 336,324 L 333,324 L 332,323 L 331,323 L 329,321 L 329,316 L 340,305 L 341,305 L 343,303 L 344,303 L 346,301 L 347,301 L 349,299 L 349,295 L 350,294 L 350,289 L 351,288 L 351,283 L 352,282 L 352,278 L 353,277 L 353,272 L 354,271 L 354,267 L 355,266 L 355,262 L 356,261 L 356,256 L 357,255 L 357,251 L 358,250 L 358,246 L 359,245 L 359,240 L 360,239 L 360,234 L 361,233 L 361,229 L 362,228 L 362,223 L 361,222 L 361,221 L 360,220 Z" fill="#f0f0f0" stroke="none" /><path d="M 168,44 L 167,45 L 160,45 L 159,46 L 154,46 L 153,47 L 149,47 L 148,48 L 145,48 L 144,49 L 141,49 L 140,50 L 138,50 L 137,51 L 135,51 L 134,52 L 132,52 L 131,53 L 129,53 L 128,54 L 127,54 L 126,55 L 124,55 L 123,56 L 121,56 L 120,57 L 119,57 L 118,58 L 117,58 L 116,59 L 115,59 L 114,60 L 113,60 L 112,61 L 111,61 L 110,62 L 108,62 L 106,64 L 105,64 L 104,65 L 103,65 L 102,66 L 101,66 L 100,67 L 99,67 L 97,69 L 96,69 L 94,71 L 93,71 L 91,73 L 90,73 L 88,75 L 87,75 L 84,78 L 83,78 L 78,83 L 77,83 L 64,96 L 64,97 L 59,102 L 59,103 L 56,106 L 56,107 L 53,110 L 53,111 L 51,113 L 51,114 L 49,116 L 49,117 L 48,118 L 48,119 L 47,120 L 47,121 L 45,123 L 45,124 L 44,125 L 44,126 L 43,127 L 43,128 L 42,129 L 42,130 L 41,131 L 41,132 L 40,133 L 40,135 L 39,136 L 39,137 L 38,138 L 38,139 L 37,140 L 37,142 L 36,143 L 36,145 L 35,146 L 35,148 L 34,149 L 34,151 L 33,152 L 33,154 L 32,155 L 32,158 L 31,159 L 31,163 L 30,164 L 30,168 L 29,169 L 29,174 L 28,175 L 28,185 L 27,186 L 27,203 L 28,204 L 28,213 L 29,214 L 29,220 L 30,221 L 30,225 L 31,226 L 31,229 L 32,230 L 32,233 L 33,234 L 33,236 L 34,237 L 34,239 L 35,240 L 35,242 L 36,243 L 36,245 L 37,246 L 37,248 L 38,249 L 38,250 L 39,251 L 39,253 L 40,254 L 40,255 L 41,256 L 41,257 L 42,258 L 42,259 L 43,260 L 43,261 L 44,262 L 44,263 L 45,264 L 45,265 L 47,267 L 47,268 L 48,269 L 48,270 L 50,272 L 50,273 L 51,274 L 51,275 L 53,277 L 53,278 L 55,280 L 55,281 L 57,283 L 57,284 L 61,288 L 61,289 L 65,293 L 65,294 L 79,308 L 80,308 L 84,312 L 85,312 L 88,315 L 89,315 L 91,317 L 92,317 L 95,320 L 96,320 L 97,321 L 98,321 L 100,323 L 101,323 L 102,324 L 103,324 L 104,325 L 105,325 L 106,326 L 107,326 L 108,327 L 109,327 L 110,328 L 111,328 L 112,329 L 113,329 L 114,330 L 115,330 L 116,331 L 117,331 L 118,332 L 120,332 L 121,333 L 122,333 L 123,334 L 125,334 L 126,335 L 128,335 L 129,336 L 132,336 L 133,337 L 135,337 L 136,338 L 139,338 L 140,339 L 144,339 L 145,340 L 149,340 L 150,341 L 157,341 L 158,342 L 187,342 L 188,341 L 193,341 L 194,340 L 200,340 L 201,339 L 205,339 L 206,338 L 209,338 L 210,337 L 213,337 L 214,336 L 216,336 L 217,335 L 219,335 L 220,334 L 222,334 L 223,333 L 225,333 L 226,332 L 228,332 L 229,331 L 231,331 L 232,330 L 233,330 L 234,329 L 235,329 L 236,328 L 238,328 L 239,327 L 240,327 L 241,326 L 242,326 L 243,325 L 244,325 L 246,323 L 247,323 L 248,322 L 249,322 L 250,321 L 251,321 L 252,320 L 253,320 L 254,319 L 255,319 L 256,318 L 257,318 L 258,317 L 259,317 L 261,315 L 262,315 L 263,314 L 264,314 L 266,312 L 267,312 L 268,311 L 269,311 L 271,309 L 272,309 L 274,307 L 275,307 L 279,303 L 280,303 L 288,295 L 288,294 L 292,290 L 292,289 L 294,287 L 294,286 L 296,284 L 296,283 L 297,282 L 297,281 L 298,280 L 298,279 L 303,274 L 305,274 L 306,273 L 308,273 L 309,274 L 317,274 L 317,269 L 316,268 L 316,265 L 315,264 L 315,261 L 314,260 L 314,250 L 315,249 L 315,248 L 318,245 L 319,245 L 320,244 L 329,244 L 327,242 L 327,241 L 322,236 L 322,235 L 321,234 L 321,233 L 320,232 L 320,223 L 321,222 L 321,217 L 322,216 L 322,201 L 323,200 L 323,199 L 324,198 L 324,197 L 326,195 L 327,195 L 328,194 L 330,194 L 331,193 L 332,193 L 333,192 L 334,192 L 335,191 L 336,191 L 338,189 L 339,189 L 344,184 L 344,183 L 345,182 L 345,175 L 344,174 L 344,173 L 343,172 L 343,171 L 342,170 L 342,169 L 339,166 L 339,165 L 335,161 L 335,160 L 329,154 L 329,153 L 321,145 L 321,144 L 310,133 L 310,132 L 309,131 L 309,130 L 307,128 L 307,127 L 305,125 L 305,124 L 303,122 L 303,121 L 302,120 L 302,119 L 300,117 L 300,116 L 298,114 L 298,113 L 296,111 L 296,110 L 294,108 L 294,107 L 292,105 L 292,104 L 289,101 L 289,100 L 285,96 L 285,95 L 275,85 L 275,84 L 274,83 L 273,83 L 264,74 L 263,74 L 259,70 L 258,70 L 256,68 L 255,68 L 252,65 L 251,65 L 250,64 L 249,64 L 247,62 L 246,62 L 245,61 L 244,61 L 242,59 L 241,59 L 240,58 L 239,58 L 238,57 L 237,57 L 236,56 L 235,56 L 234,55 L 233,55 L 232,54 L 230,54 L 229,53 L 228,53 L 227,52 L 225,52 L 224,51 L 222,51 L 221,50 L 219,50 L 218,49 L 216,49 L 215,48 L 212,48 L 211,47 L 208,47 L 207,46 L 202,46 L 201,45 L 195,45 L 194,44 Z" fill="#f0f0f0" stroke="none" /></svg>