<?xml version="1.0" encoding="UTF-8"?>
<!-- Generator: visioncortex VTracer -->
<svg id="svg" version="1.1" xmlns="http://www.w3.org/2000/svg" style="display: block;" viewBox="0 0 500 500"><path d="M0 0 C3.05630252 2.64480581 5.87706112 5.45590986 8.66796875 8.37890625 C9.60962891 9.36503906 9.60962891 9.36503906 10.5703125 10.37109375 C18.28498511 19.51877171 21.35351066 33.20603686 21.98046875 44.94140625 C22.3431467 49.83413703 23.74573199 52.69956426 26.50390625 56.68359375 C28.14077322 59.06748726 28.81409685 60.45634429 28.66796875 63.37890625 C26.29589444 69.24418452 23.23413517 72.00737321 17.5234375 74.4609375 C14.72217813 75.84682371 13.37997087 77.81090307 11.66796875 80.37890625 C3.31277778 92.91169271 -6.59801053 99.82167882 -21.46875 103.0625 C-24.08534765 103.54829598 -26.69921676 103.99187743 -29.33203125 104.37890625 C-28.83221456 107.02395386 -28.30173868 109.46372544 -27.39453125 112.00390625 C-26.50786007 114.82039117 -25.92463311 117.40825264 -25.421875 120.3046875 C-24.31463493 126.53567716 -23.08260377 132.73780863 -21.83203125 138.94140625 C-21.61933594 140.00037109 -21.40664062 141.05933594 -21.1875 142.15039062 C-20.76851471 144.23632048 -20.34917223 146.32217863 -19.92944336 148.40795898 C-19.06016317 152.73091387 -18.1959426 157.05487584 -17.33203125 161.37890625 C-17.13480469 162.36503906 -16.93757813 163.35117188 -16.734375 164.3671875 C-15.33203125 171.37890625 -15.33203125 171.37890625 -14.83203125 173.984375 C-14.34656247 176.50255416 -14.34656247 176.50255416 -13.39453125 179.37890625 C-12.07517817 183.86470672 -11.51105701 188.4595385 -10.83984375 193.078125 C-10.25657635 196.86936309 -9.50869582 200.60696722 -8.69921875 204.35546875 C-8.33203125 206.37890625 -8.33203125 206.37890625 -8.33203125 209.37890625 C-7.24664062 209.48614014 -6.16125 209.59337402 -5.04296875 209.70385742 C0.43752862 210.39304919 5.7048622 211.78975244 11.04296875 213.1796875 C12.12570068 213.45733444 13.20843262 213.73498138 14.32397461 214.02104187 C17.77317838 214.90655145 21.22060066 215.79877984 24.66796875 216.69140625 C28.0783363 217.56951181 31.48905354 218.44624502 34.89990234 219.32247925 C37.10781374 219.89074291 39.31517893 220.46113327 41.52197266 221.03372192 C46.22112278 222.25099165 50.9191527 223.4532708 55.6484375 224.54833984 C56.74853149 224.80685982 56.74853149 224.80685982 57.87084961 225.07060242 C59.74367922 225.50632566 61.61974476 225.92807933 63.49609375 226.34838867 C69.21077795 228.20504523 73.88981303 231.73717208 77.66796875 236.37890625 C77.88453125 238.01859375 77.88453125 238.01859375 78.10546875 239.69140625 C78.78352214 244.13642292 80.43678828 245.99881443 83.18359375 249.42578125 C85.31905337 252.23559654 86.45434301 255.06901786 87.66796875 258.37890625 C88.14363281 259.65507813 88.14363281 259.65507813 88.62890625 260.95703125 C92.17832322 270.93809853 94.45393938 281.32079727 95.42578125 291.875 C95.68013294 294.50466825 96.01275247 297.12077949 96.34570312 299.74145508 C97.54159841 309.29400584 98.29309766 318.86623722 98.97045898 328.46850586 C99.08562866 330.06964233 99.08562866 330.06964233 99.203125 331.703125 C99.30185913 333.12757935 99.30185913 333.12757935 99.40258789 334.58081055 C99.63672615 337.42762568 99.63672615 337.42762568 100.19091797 340.40991211 C100.6378717 343.19159292 100.78298398 345.74643953 100.765625 348.55859375 C100.76240234 349.48671875 100.75917969 350.41484375 100.75585938 351.37109375 C100.74748047 352.32242187 100.73910156 353.27375 100.73046875 354.25390625 C100.72595703 355.2284375 100.72144531 356.20296875 100.71679688 357.20703125 C100.70507781 359.59772059 100.68867094 361.98828065 100.66796875 364.37890625 C101.80234375 364.42789062 102.93671875 364.476875 104.10546875 364.52734375 C105.62632273 364.60244765 107.147155 364.67799209 108.66796875 364.75390625 C109.41175781 364.78484375 110.15554687 364.81578125 110.921875 364.84765625 C118.28726413 365.23193742 125.21658354 365.92752104 130.66796875 371.37890625 C133.16402482 374.87338475 133.72330988 379.14926308 133.66796875 383.37890625 C132.10504751 388.5886437 130.23074678 391.41310053 125.66796875 394.37890625 C112.849056 398.65187717 94.10218354 396.4648573 81.66796875 391.37890625 C78.02676662 389.50824524 75.85416226 387.83814491 73.66796875 384.37890625 C73.06787109 381.83276367 73.06787109 381.83276367 72.75390625 378.984375 C72.63273438 377.94603516 72.5115625 376.90769531 72.38671875 375.83789062 C72.27328125 374.75830078 72.15984375 373.67871094 72.04296875 372.56640625 C71.80112726 370.43485655 71.5589483 368.3033451 71.31640625 366.171875 C71.21505371 365.22852295 71.11370117 364.2851709 71.00927734 363.31323242 C70.76533703 361.2160088 70.48537614 359.12284874 70.18164062 357.03344727 C69.62426733 353.06799059 69.19740688 349.0971471 68.80078125 345.11328125 C68.63723522 343.49625366 68.47365984 341.87922904 68.31005859 340.26220703 C68.22568542 339.42336975 68.14131226 338.58453247 68.05438232 337.72027588 C67.61332517 333.34811532 67.16357795 328.97684688 66.71484375 324.60546875 C66.21290046 319.7136025 65.71146299 314.82171346 65.22070312 309.92871094 C64.83832973 306.11935989 64.44159417 302.31159309 64.04296875 298.50390625 C63.93227051 297.37694336 63.82157227 296.24998047 63.70751953 295.08886719 C63.59907715 294.0734082 63.49063477 293.05794922 63.37890625 292.01171875 C63.24427979 290.69518311 63.24427979 290.69518311 63.10693359 289.35205078 C62.9620752 288.70091309 62.8172168 288.04977539 62.66796875 287.37890625 C62.00796875 287.04890625 61.34796875 286.71890625 60.66796875 286.37890625 C60.67844238 287.2797998 60.68891602 288.18069336 60.69970703 289.10888672 C60.88799375 308.08294489 60.67010362 326.9871103 59.73046875 345.94140625 C59.66511932 347.27301788 59.66511932 347.27301788 59.59844971 348.63153076 C59.32011143 354.21604047 59.01021812 359.79795881 58.66796875 365.37890625 C58.59344482 366.61543945 58.5189209 367.85197266 58.44213867 369.12597656 C58.36713135 370.19557617 58.29212402 371.26517578 58.21484375 372.3671875 C58.12154785 373.7116394 58.12154785 373.7116394 58.02636719 375.08325195 C57.451136 378.76778798 56.18663149 380.64435813 53.66796875 383.37890625 C50.99452361 385.16120301 49.93026516 385.37890625 46.66796875 385.37890625 C46.73757812 386.01957031 46.8071875 386.66023438 46.87890625 387.3203125 C47.19319144 392.34139249 47.15991976 395.51874488 43.79296875 399.44140625 C40.48041519 402.84197452 38.22351312 403.60051595 33.48046875 403.81640625 C29.47081617 403.75852413 26.84584206 403.43076812 23.60546875 401.00390625 C20.91464401 398.20261287 20.1349643 395.95626776 19.484375 392.15234375 C19.32525635 391.25692871 19.1661377 390.36151367 19.00219727 389.43896484 C18.89190186 388.75914551 18.78160645 388.07932617 18.66796875 387.37890625 C17.73227051 387.38414307 16.79657227 387.38937988 15.83251953 387.39477539 C-25.24139164 387.59435953 -25.24139164 387.59435953 -42.33203125 385.37890625 C-42.27015625 386.41015625 -42.20828125 387.44140625 -42.14453125 388.50390625 C-42.3505821 392.76229042 -42.97901488 394.8493817 -45.33203125 398.37890625 C-49.63211601 402.07897919 -53.70885274 403.63757246 -59.33203125 403.37890625 C-63.53050461 402.08706829 -65.04232516 400.76009847 -67.70703125 397.25390625 C-69.87923982 393.06208227 -69.70854011 388.99113973 -69.33203125 384.37890625 C-70.56179687 383.81623047 -70.56179687 383.81623047 -71.81640625 383.2421875 C-72.8940625 382.73042969 -73.97171875 382.21867187 -75.08203125 381.69140625 C-76.149375 381.19253906 -77.21671875 380.69367188 -78.31640625 380.1796875 C-82.48317659 377.69149951 -84.55846021 375.09021453 -86.546875 370.69140625 C-87.60124986 366.24309836 -87.75936639 361.93709976 -87.89453125 357.37890625 C-87.96860943 355.41666135 -88.04283252 353.45442193 -88.1171875 351.4921875 C-88.15215332 350.48623535 -88.18711914 349.4802832 -88.22314453 348.44384766 C-88.39936825 343.48350566 -88.61409175 338.52506087 -88.83203125 333.56640625 C-88.86756104 332.67888672 -88.90309082 331.79136719 -88.93969727 330.87695312 C-89.11096328 326.89906469 -89.35504338 322.97756921 -89.859375 319.02734375 C-90.54064824 313.29845514 -90.4396754 307.57749425 -90.39453125 301.81640625 C-90.39001953 300.71232422 -90.38550781 299.60824219 -90.38085938 298.47070312 C-90.36918265 295.77337925 -90.3528065 293.07617278 -90.33203125 290.37890625 C-91.96398437 290.20101562 -91.96398437 290.20101562 -93.62890625 290.01953125 C-98.90145619 289.10740236 -101.75754536 286.51094076 -104.8984375 282.2578125 C-106.80137286 278.43638646 -107.38561009 274.76137087 -108.01953125 270.56640625 C-108.21385742 269.41301758 -108.21385742 269.41301758 -108.41210938 268.23632812 C-110.02210352 258.14192041 -109.359476 249.69705182 -104.89453125 240.37890625 C-103.33203125 238.37890625 -103.33203125 238.37890625 -101.20703125 237.56640625 C-100.27890625 236.97859375 -100.27890625 236.97859375 -99.33203125 236.37890625 C-97.97214267 228.9683742 -98.27208036 221.54818346 -98.37109375 214.04296875 C-98.42134276 207.74509337 -98.06148127 201.63215233 -97.33203125 195.37890625 C-96.66485839 188.43077752 -97.42013348 184.13074722 -101.23828125 178.19140625 C-102.33203125 176.37890625 -102.33203125 176.37890625 -102.33203125 174.37890625 C-102.99203125 174.04890625 -103.65203125 173.71890625 -104.33203125 173.37890625 C-105.11328125 171.15625 -105.11328125 171.15625 -105.83203125 168.31640625 C-106.06921875 167.39730469 -106.30640625 166.47820312 -106.55078125 165.53125 C-106.80859375 164.49097656 -107.06640625 163.45070312 -107.33203125 162.37890625 C-107.65042969 161.22261719 -107.96882813 160.06632813 -108.296875 158.875 C-109.80307223 152.83659655 -110.54135544 146.66104575 -111.39453125 140.50390625 C-111.56791016 139.28832031 -111.74128906 138.07273438 -111.91992188 136.8203125 C-112.78274324 130.69130556 -113.54045264 124.5741931 -114.11352539 118.41162109 C-114.36947847 116.03054247 -114.85507901 113.724573 -115.33203125 111.37890625 C-117.21103142 92.83943788 -119.16736754 70.26181626 -107.08203125 54.69140625 C-103.43309082 50.92969503 -99.38043905 49.47787938 -94.33203125 48.37890625 C-94.42742187 47.81042969 -94.5228125 47.24195313 -94.62109375 46.65625 C-95.38741242 41.31875137 -95.15927404 37.55609416 -93.33203125 32.37890625 C-93.17863281 31.74984375 -93.02523437 31.12078125 -92.8671875 30.47265625 C-90.27915004 20.34719583 -85.07223366 11.39908983 -77.33203125 4.37890625 C-76.68492188 3.75113281 -76.0378125 3.12335937 -75.37109375 2.4765625 C-54.94974808 -16.76249474 -21.84597427 -17.85990633 0 0 Z M-54.33203125 100.37890625 C-53.67203125 103.34890625 -53.01203125 106.31890625 -52.33203125 109.37890625 C-51.67203125 109.37890625 -51.01203125 109.37890625 -50.33203125 109.37890625 C-50.33203125 107.06890625 -50.33203125 104.75890625 -50.33203125 102.37890625 C-51.65203125 101.71890625 -52.97203125 101.05890625 -54.33203125 100.37890625 Z " transform="translate(134.33203125,53.62109375)" style="fill: #010000;"/><path d="M0 0 C1.37478516 -0.00833862 1.37478516 -0.00833862 2.77734375 -0.0168457 C10.5454151 0.06743326 10.5454151 0.06743326 13.9375 2.3125 C14.15792969 3.27800781 14.37835938 4.24351563 14.60546875 5.23828125 C15.58095945 8.35577141 15.58095945 8.35577141 17.71728516 9.27880859 C20.20841069 10.1170394 22.7105777 10.82191419 25.25 11.5 C40.74875574 16.13795132 55.02884131 23.56201672 67.9375 33.3125 C68.5975 33.6425 69.2575 33.9725 69.9375 34.3125 C69.9375 34.9725 69.9375 35.6325 69.9375 36.3125 C70.81692261 36.73366089 70.81692261 36.73366089 71.71411133 37.16333008 C76.29165808 39.52925877 80.02373027 41.94027336 81.93603516 46.90478516 C82.67735822 49.96766023 83.24583976 53.01442644 83.75 56.125 C84.13127195 58.21488727 84.51277879 60.3047317 84.89453125 62.39453125 C85.06815186 63.40733154 85.24177246 64.42013184 85.4206543 65.46362305 C85.87084604 67.94510035 86.41041083 70.37132469 87.0078125 72.8203125 C88.25630503 78.28100304 88.59996186 83.79881624 89 89.375 C89.15599423 91.44933649 89.31351498 93.52355882 89.47265625 95.59765625 C89.54734131 96.58701172 89.62202637 97.57636719 89.69897461 98.59570312 C89.89663744 100.84707669 90.17183073 103.05184859 90.5078125 105.28515625 C92.93293832 123.74319026 91.10881467 146.94618939 80.8828125 162.94921875 C78.44295899 165.91329781 75.95999664 167.74144955 72.5390625 169.4453125 C70.74552863 170.21845017 70.74552863 170.21845017 69.9375 172.3125 C70.80439453 172.29155273 71.67128906 172.27060547 72.56445312 172.24902344 C75.8147379 172.18040438 79.06465057 172.13048549 82.31542969 172.09277344 C83.71594473 172.0727937 85.11637782 172.0455998 86.51660156 172.01074219 C101.69055966 171.64275747 101.69055966 171.64275747 107.9375 176.3125 C110.24799863 180.6584379 110.2633723 185.00644518 110.3125 189.875 C110.34085938 191.15503906 110.36921875 192.43507813 110.3984375 193.75390625 C109.8683038 197.84671815 108.81268651 199.4213106 105.9375 202.3125 C103.25341712 204.02055274 102.17580467 204.3125 98.9375 204.3125 C98.93934359 205.03125714 98.94118717 205.75001429 98.94308662 206.49055195 C98.98722422 223.96644602 99.02033636 241.44232596 99.04112434 258.91826344 C99.05144404 267.3694388 99.06551758 275.820577 99.08837891 284.27172852 C99.1082916 291.63635952 99.12121139 299.00096361 99.12567699 306.36562079 C99.12828797 310.26640795 99.13443924 314.16711811 99.14896011 318.06788063 C99.16251057 321.73760747 99.16672781 325.40722539 99.16371536 329.07697487 C99.16453001 331.06954968 99.1753049 333.06211256 99.18634033 335.05465698 C99.183591 336.23676254 99.18084167 337.4188681 99.17800903 338.63679504 C99.17985262 339.66643781 99.18169621 340.69608057 99.18359566 341.75692463 C98.9375 344.3125 98.9375 344.3125 96.9375 347.3125 C93.3288491 348.09453347 89.62190085 348.05757151 85.9375 348.1875 C84.91398438 348.24679687 83.89046875 348.30609375 82.8359375 348.3671875 C81.37027344 348.4290625 81.37027344 348.4290625 79.875 348.4921875 C78.97652344 348.53069824 78.07804688 348.56920898 77.15234375 348.60888672 C76.42144531 348.5110791 75.69054687 348.41327148 74.9375 348.3125 C72.64577174 344.87490761 72.68980339 343.6418458 72.69699097 339.59883118 C72.69424164 338.40831146 72.69149231 337.21779175 72.68865967 335.99119568 C72.6994455 334.02969322 72.6994455 334.02969322 72.71044922 332.02856445 C72.71101331 330.63897713 72.71069682 329.24938922 72.70956421 327.85980225 C72.7089896 324.08525482 72.72076141 320.3108341 72.73471212 316.53631616 C72.74720142 312.59251053 72.74838856 308.64870211 72.75076294 304.70487976 C72.75698301 297.2357241 72.77340094 289.76662688 72.79346192 282.29749697 C72.81998097 272.20515041 72.8307893 262.11278791 72.84246635 252.02041531 C72.86128118 236.11773309 72.90112331 220.21517419 72.9375 204.3125 C45.2175 204.3125 17.4975 204.3125 -11.0625 204.3125 C-11.05089844 214.31175781 -11.03929687 224.31101562 -11.02734375 234.61328125 C-11.02223642 240.93424505 -11.01738132 247.25520736 -11.01367188 253.57617188 C-11.00773216 263.6171113 -11.00073958 273.65804235 -10.98706055 283.69897461 C-10.97710409 291.01086772 -10.97064427 298.32275405 -10.96841151 305.63465375 C-10.96710604 309.50746988 -10.9640305 313.38026662 -10.95676994 317.25307655 C-10.94999458 320.89651705 -10.94788615 324.53993012 -10.94939232 328.18337631 C-10.94898501 330.16162719 -10.94359769 332.13987506 -10.93807983 334.11811829 C-10.9394545 335.29180969 -10.94082916 336.4655011 -10.94224548 337.67475891 C-10.94132369 338.69702733 -10.9404019 339.71929575 -10.93945217 340.772542 C-11.0625 343.3125 -11.0625 343.3125 -12.0625 346.3125 C-14.49141182 347.52695591 -16.06969443 347.44174198 -18.78125 347.4453125 C-19.71324219 347.44660156 -20.64523437 347.44789063 -21.60546875 347.44921875 C-23.06919922 347.44341797 -23.06919922 347.44341797 -24.5625 347.4375 C-26.02623047 347.44330078 -26.02623047 347.44330078 -27.51953125 347.44921875 C-28.91751953 347.44728516 -28.91751953 347.44728516 -30.34375 347.4453125 C-31.62862305 347.44362061 -31.62862305 347.44362061 -32.93945312 347.44189453 C-35.0625 347.3125 -35.0625 347.3125 -37.0625 346.3125 C-37.0625 299.4525 -37.0625 252.5925 -37.0625 204.3125 C-39.3725 203.9825 -41.6825 203.6525 -44.0625 203.3125 C-48.12098571 199.67976824 -49.65030769 197.03074924 -50.11303711 191.44970703 C-50.13760986 190.76505371 -50.16218262 190.08040039 -50.1875 189.375 C-50.22045166 188.66714355 -50.25340332 187.95928711 -50.28735352 187.22998047 C-50.35597468 183.3044865 -50.16843439 180.25681866 -48 176.9375 C-43.47233998 172.89150594 -39.72308064 172.33772291 -33.85546875 171.7734375 C-32.95723389 171.68626465 -32.05899902 171.5990918 -31.13354492 171.50927734 C-30.10837769 171.41187256 -30.10837769 171.41187256 -29.0625 171.3125 C-29.01294128 166.41952988 -28.9767054 161.52670695 -28.95263672 156.63354492 C-28.94259943 154.97010756 -28.92896669 153.30668775 -28.91162109 151.64331055 C-28.88727251 149.24783995 -28.87599412 146.85260332 -28.8671875 144.45703125 C-28.85170364 143.34736748 -28.85170364 143.34736748 -28.83590698 142.21528625 C-28.8350136 138.07342949 -29.36602258 135.06830368 -31.0625 131.3125 C-31.40208173 129.64973754 -31.68468528 127.97448022 -31.9140625 126.29296875 C-32.04296875 125.35259766 -32.171875 124.41222656 -32.3046875 123.44335938 C-32.43101562 122.47205078 -32.55734375 121.50074219 -32.6875 120.5 C-32.8215625 119.54029297 -32.955625 118.58058594 -33.09375 117.59179688 C-33.65254101 113.41511914 -34.14158413 109.33108981 -34.0859375 105.11328125 C-33.97204338 101.34636034 -33.97204338 101.34636034 -34.55053711 97.78417969 C-35.23862843 92.51551211 -35.22470183 87.27142811 -35.23046875 81.96484375 C-35.23379715 80.87651749 -35.23712555 79.78819122 -35.24055481 78.66688538 C-35.24560327 76.36313293 -35.24796378 74.05937321 -35.24780273 71.75561523 C-35.2499606 68.31285695 -35.26805886 64.87043485 -35.28710938 61.42773438 C-35.31705252 50.51203447 -35.1336968 39.64109145 -34.30078125 28.75390625 C-34.23980759 27.84470932 -34.17883392 26.93551239 -34.11601257 25.99876404 C-33.44858926 18.4450669 -31.31673449 11.73021035 -27.125 5.375 C-19.08227394 -0.0415298 -9.37606665 0.049102 0 0 Z M5.9375 170.3125 C5.9375 170.9725 5.9375 171.6325 5.9375 172.3125 C15.5075 172.3125 25.0775 172.3125 34.9375 172.3125 C35.2675 171.6525 35.5975 170.9925 35.9375 170.3125 C26.0375 170.3125 16.1375 170.3125 5.9375 170.3125 Z " transform="translate(371.0625,93.6875)" style="fill: #020201;"/><path d="M0 0 C1.20011719 0.02707031 2.40023438 0.05414063 3.63671875 0.08203125 C4.51972656 0.11683594 5.40273438 0.15164062 6.3125 0.1875 C9.47345943 7.15967338 10.33701586 14.25003005 11.19287109 21.79150391 C11.43239006 23.89267329 11.68941178 25.99109826 11.94921875 28.08984375 C14.13779073 46.2843245 14.47919615 64.48594051 14.44287109 82.79516602 C14.43752256 85.98653957 14.44284924 89.17777136 14.44921875 92.36914062 C14.45324068 106.33206622 14.04414738 120.24406111 13.3125 134.1875 C14.96864657 134.56968767 16.63707024 134.90145102 18.3125 135.1875 C22.84226569 130.65773431 20.49533557 110.56786739 20.515625 104.62890625 C20.51845238 103.96548658 20.52127975 103.30206692 20.52419281 102.61854362 C20.53903738 99.09326689 20.54835397 95.56802938 20.55273438 92.04272461 C20.55707201 89.21120994 20.57080009 86.38000809 20.59375 83.54858398 C20.74837699 64.06666795 19.77983728 45.01069379 17.67224121 25.63693237 C17.1358639 20.49379839 16.71410935 15.34269212 16.3125 10.1875 C36.21442548 13.44417872 53.77678539 24.9138161 69.3125 37.1875 C70.19421875 37.7134375 71.0759375 38.239375 71.984375 38.78125 C75.62558647 42.54464977 76.020301 46.83020531 76.9375 51.875 C77.14205811 52.94371338 77.34661621 54.01242676 77.55737305 55.11352539 C78.17823541 58.46637821 78.75464874 61.82362237 79.3125 65.1875 C79.48056152 66.19103516 79.64862305 67.19457031 79.82177734 68.22851562 C83.47314482 91.03726497 88.8953478 129.84974134 75.3125 150.1875 C72.03797426 153.80692967 69.09221596 156.50001005 64.0919342 156.9090271 C62.51062582 156.92622277 60.92873766 156.91090664 59.34790039 156.86865234 C58.47881042 156.8695285 57.60972046 156.87040466 56.71429443 156.87130737 C53.86197784 156.86715083 51.01205827 156.8205924 48.16015625 156.7734375 C46.17477198 156.76223844 44.18937105 156.75370161 42.20396423 156.74771118 C36.99378186 156.72486883 31.78461279 156.66598498 26.5748291 156.5994873 C21.25249945 156.5379657 15.93000508 156.51067507 10.60742188 156.48046875 C0.17533753 156.41623747 -10.25599677 156.31391351 -20.6875 156.1875 C-20.80548604 152.41693831 -20.87533864 148.64686235 -20.9375 144.875 C-20.97101563 143.82248047 -21.00453125 142.76996094 -21.0390625 141.68554688 C-21.12112589 135.01789658 -20.25019174 129.79647374 -17.67730713 123.63140869 C-6.35736534 95.68161594 -12.06345402 57.24472776 -15.6875 28.1875 C-15.97848895 25.71897633 -16.26755197 23.25022486 -16.5546875 20.78125 C-17.24175409 14.91361274 -17.95338206 9.04942785 -18.6875 3.1875 C-12.32401577 1.25205234 -6.66464059 -0.19795962 0 0 Z " transform="translate(370.6875,100.8125)" style="fill: #6B6B69;"/><path d="M0 0 C0.18996405 39.35470662 0.18996405 39.35470662 -0.4375 57.75 C-0.47673584 58.91096191 -0.51597168 60.07192383 -0.55639648 61.26806641 C-0.67995314 64.51374087 -0.83346474 67.75626866 -1 71 C-1.05043457 72.16595703 -1.10086914 73.33191406 -1.15283203 74.53320312 C-1.21712402 75.68240234 -1.28141602 76.83160156 -1.34765625 78.015625 C-1.40058838 79.04461914 -1.45352051 80.07361328 -1.50805664 81.13378906 C-2.06762191 84.39398573 -3.01661817 86.36411643 -5 89 C-7.94019415 89.98006472 -9.85451969 90.13201904 -12.91894531 90.14526367 C-13.92987747 90.15154785 -14.94080963 90.15783203 -15.9823761 90.16430664 C-17.08647324 90.16551514 -18.19057037 90.16672363 -19.328125 90.16796875 C-20.48487228 90.1721582 -21.64161957 90.17634766 -22.8334198 90.18066406 C-26.63898018 90.19053134 -30.4444288 90.19043637 -34.25 90.1875 C-35.54366486 90.18722809 -36.83732971 90.18695618 -38.17019653 90.18667603 C-56.27033798 90.16920093 -74.35008381 89.90759888 -92.4375 89.1875 C-93.4121521 89.15256439 -94.3868042 89.11762878 -95.39099121 89.08163452 C-119.97979562 88.17088964 -119.97979562 88.17088964 -125.71264648 83.64916992 C-128.12365828 80.56053259 -128.15977796 76.92844091 -128.38891602 73.12158203 C-128.44890274 72.15181427 -128.50888947 71.18204651 -128.57069397 70.18289185 C-128.63115402 69.13511566 -128.69161407 68.08733948 -128.75390625 67.0078125 C-128.85166603 65.36327591 -128.85166603 65.36327591 -128.95140076 63.68551636 C-129.08864162 61.35377384 -129.22384442 59.02191062 -129.35717773 56.68994141 C-129.55815962 53.20036055 -129.76985397 49.71154783 -129.98242188 46.22265625 C-130.11524743 43.94274693 -130.24742681 41.66279985 -130.37890625 39.3828125 C-130.47263268 37.86580246 -130.47263268 37.86580246 -130.56825256 36.31814575 C-131.16438833 25.55115325 -131.05879056 14.77936244 -131 4 C-129.89404984 4.00222061 -128.78809967 4.00444122 -127.64863586 4.00672913 C-117.13313577 4.0271614 -106.61763979 4.04206763 -96.10212421 4.05181217 C-90.69836399 4.05699061 -85.29462002 4.06399454 -79.89086914 4.07543945 C-74.65830009 4.08645016 -69.42574649 4.09231457 -64.19316673 4.09487724 C-62.21489405 4.09669923 -60.23662204 4.10025532 -58.25835609 4.10573006 C-48.04707167 4.13281834 -37.85587764 4.03675552 -27.65307617 3.59155273 C-26.8091673 3.55741052 -25.96525843 3.5232683 -25.09577656 3.48809147 C-18.51058509 3.16364016 -12.25298846 2.10140683 -5.8359375 0.62109375 C-3 0 -3 0 0 0 Z " transform="translate(185,341)" style="fill: #AF2919;"/><path d="M0 0 C9.37852441 7.56475318 15.89781529 18.0660591 18 30 C18.26951517 33.45437423 18.43139172 36.91469343 18.4465332 40.37963867 C18.56665122 45.18731808 19.65979229 47.56682428 23 51 C21.56027891 54.53037992 19.86210086 56.04396114 16.75 58.1875 C13.39503486 60.68633369 11.13704422 62.94316127 8.9375 66.5 C3.84929013 74.6829567 -2.77716402 79.31121083 -12 82 C-25.67508287 84.86002426 -40.19988382 83.84975014 -52.328125 76.7578125 C-63.05071062 69.70347986 -69.54080491 60.67840501 -73.3046875 48.40625 C-76.09527673 34.73549828 -73.82743287 23.20227793 -66.75 11.25 C-60.09228766 1.30592753 -50.4166904 -5.34786477 -38.8671875 -8.49609375 C-24.51739541 -11.01805993 -11.98766218 -8.00930061 0 0 Z " transform="translate(126,62)" style="fill: #FCFCFC;"/><path d="M0 0 C0.92271698 -0.00526703 1.84543396 -0.01053406 2.79611206 -0.01596069 C13.12153895 -0.06176738 23.16029775 0.29286863 33.38745117 1.76635742 C36.52714163 2.2179458 39.65417006 2.52835959 42.8125 2.8125 C47.19400606 3.61927432 48.89756495 5.08527105 51.5625 8.625 C52.10390625 9.42808594 52.6453125 10.23117187 53.203125 11.05859375 C56.63572227 15.92143988 61.29782315 17.50318606 66.75 19.25 C66.804348 21.3122048 66.84294961 23.37482816 66.875 25.4375 C66.89820313 26.58605469 66.92140625 27.73460937 66.9453125 28.91796875 C66.74585716 32.32067684 66.58632644 34.37597108 64.75 37.25 C61.80078125 38.5078125 61.80078125 38.5078125 58.0625 39.375 C56.86238281 39.66632813 55.66226563 39.95765625 54.42578125 40.2578125 C52.86774584 40.59116205 51.30905886 40.92147036 49.75 41.25 C48.67819992 41.49069717 47.60639984 41.73139435 46.50212097 41.97938538 C37.88348176 43.83389058 29.65255826 44.76547759 20.8125 44.92578125 C18.84325562 44.97500481 18.84325562 44.97500481 16.83422852 45.02522278 C0.86339135 45.40188475 -15.11534772 45.43709674 -31.08984375 45.43530273 C-35.43142631 45.43519972 -39.77285046 45.449055 -44.11439514 45.46607494 C-47.53085033 45.47727062 -50.94726738 45.47921993 -54.36373901 45.47869301 C-55.96459518 45.47985388 -57.56545299 45.48416559 -59.16629028 45.49202538 C-86.37216877 45.61356932 -86.37216877 45.61356932 -91.61450195 41.30802917 C-96.34360122 35.35716651 -95.43896729 26.02306499 -95.5 18.75 C-95.5093457 17.96028809 -95.51869141 17.17057617 -95.52832031 16.35693359 C-95.50654074 12.47430567 -95.45063838 10.55095757 -93.25 7.25 C-66.30985564 -2.92981163 -28.46879041 0.08275199 0 0 Z " transform="translate(131.25,291.75)" style="fill: #AF2919;"/><path d="M0 0 C0.25652344 0.78761719 0.51304688 1.57523437 0.77734375 2.38671875 C4.76799405 13.74058913 10.46360205 23.87736229 20.078125 31.4375 C20.71234375 31.953125 21.3465625 32.46875 22 33 C23.22009766 33.91458984 23.22009766 33.91458984 24.46484375 34.84765625 C28.72882327 39.22859064 29.78732355 45.71183165 31.3125 51.4375 C31.48842682 52.09228333 31.66435364 52.74706665 31.84561157 53.42169189 C37.77604762 75.97897363 38.50863792 102.54996669 27.59765625 123.64453125 C25.92593262 126.10919958 24.55870156 127.49315472 22 129 C15.77590643 129.72614425 11.03005137 128.86849333 6 125 C-8.18204773 110.20006222 -10.0424108 83.43666691 -12 64 C-12.09023438 63.14035645 -12.18046875 62.28071289 -12.2734375 61.39501953 C-16.7789028 17.79398791 -16.7789028 17.79398791 -9 5.4375 C-8.34 4.633125 -7.68 3.82875 -7 3 C-6.505 2.38125 -6.01 1.7625 -5.5 1.125 C-4 0 -4 0 0 0 Z " transform="translate(42,112)" style="fill: #AF2919;"/><path d="M0 0 C1.76676086 -0.00845947 1.76676086 -0.00845947 3.56921387 -0.01708984 C4.86798462 -0.01304138 6.16675537 -0.00899292 7.50488281 -0.00482178 C8.88122747 -0.00753069 10.25757068 -0.01109106 11.63391113 -0.01544189 C15.37764523 -0.02458008 19.12126941 -0.0210158 22.86500549 -0.01468372 C26.77719424 -0.0096311 30.68937339 -0.01431312 34.6015625 -0.01745605 C41.17221776 -0.02109786 47.74282811 -0.016291 54.31347656 -0.0067749 C61.9172615 0.00411007 69.52093919 0.00058465 77.12472153 -0.01042771 C83.64534297 -0.0194945 90.16593206 -0.02078886 96.68655777 -0.01555037 C100.58447274 -0.01242731 104.48233726 -0.0120305 108.38024902 -0.01862335 C112.0442763 -0.02438738 115.70816488 -0.02041737 119.37217712 -0.00883484 C121.36371671 -0.0049151 123.35526799 -0.01088194 125.34680176 -0.01708984 C126.52464233 -0.0114502 127.70248291 -0.00581055 128.91601562 0 C129.94398254 0.00075405 130.97194946 0.0015081 132.03106689 0.002285 C134.45800781 0.25396729 134.45800781 0.25396729 136.45800781 2.25396729 C136.68847656 5.00396729 136.68847656 5.00396729 136.64550781 8.25396729 C136.63583984 9.86271729 136.63583984 9.86271729 136.62597656 11.50396729 C136.45800781 14.25396729 136.45800781 14.25396729 135.45800781 16.25396729 C117.10844251 16.30063875 98.75889256 16.33593226 80.40928078 16.35759163 C71.88969568 16.36791468 63.3701474 16.3819946 54.85058594 16.40484619 C47.42700088 16.42474865 40.00344248 16.43767623 32.57983148 16.44214427 C28.64721844 16.44475701 24.71468169 16.45091926 20.78209305 16.4654274 C17.0836424 16.47896172 13.38529977 16.4831984 9.68682671 16.48018265 C7.67616781 16.48099869 5.66552079 16.49178197 3.65489197 16.50280762 C2.46574692 16.50005829 1.27660187 16.49730896 0.05142212 16.49447632 C-1.50548623 16.4972417 -1.50548623 16.4972417 -3.09384727 16.50006294 C-5.54199219 16.25396729 -5.54199219 16.25396729 -7.54199219 14.25396729 C-7.80761719 11.50396729 -7.80761719 11.50396729 -7.79199219 8.25396729 C-7.79714844 7.18146729 -7.80230469 6.10896729 -7.80761719 5.00396729 C-7.30135321 -0.23735389 -4.56566784 0.00334908 0 0 Z " transform="translate(336.5419921875,273.74603271484375)" style="fill: #CC8943;"/><path d="M0 0 C0.66 0 1.32 0 2 0 C2.43065816 6.9740773 2.85749807 13.94838093 3.28173828 20.92285156 C3.42637542 23.29334756 3.57187271 25.66379124 3.71826172 28.03417969 C3.92904532 31.44973432 4.13669114 34.86546779 4.34375 38.28125 C4.40937134 39.33364868 4.47499268 40.38604736 4.54260254 41.47033691 C4.87415325 46.99284664 5.06944442 52.4675947 5 58 C3.9584375 58.04898438 2.916875 58.09796875 1.84375 58.1484375 C-6.94891585 58.59608292 -15.59953614 59.3549807 -24.31640625 60.59765625 C-28.26575429 61.02902725 -32.03119204 61.06578135 -36 61 C-36.07025156 51.7160612 -35.86072643 42.46401875 -35.5 33.1875 C-35.45230469 31.91068359 -35.40460937 30.63386719 -35.35546875 29.31835938 C-35.23913138 26.21215159 -35.12061062 23.10604428 -35 20 C-33.60563721 20.48460693 -33.60563721 20.48460693 -32.18310547 20.97900391 C-25.87263769 23.00311621 -18.69797286 23.15014739 -12.5625 20.4375 C-4.93113804 15.88712268 -2.61273101 8.07173324 0 0 Z " transform="translate(82,227)" style="fill: #AD2919;"/><path d="M0 0 C0 44.55 0 89.1 0 135 C-3.63 135 -7.26 135 -11 135 C-11.02311837 117.54584216 -11.0409789 100.09169041 -11.05181217 82.63752079 C-11.05697525 74.53381391 -11.06401816 66.43011669 -11.07543945 58.32641602 C-11.08538594 51.26577878 -11.09185334 44.20514854 -11.09408849 37.14450449 C-11.09539566 33.40365542 -11.09848189 29.66282638 -11.10573006 25.92198372 C-11.11374324 21.75274887 -11.11399116 17.58354916 -11.11352539 13.41430664 C-11.11712067 12.16490295 -11.12071594 10.91549927 -11.12442017 9.62823486 C-11.1230455 8.49936356 -11.12167084 7.37049225 -11.12025452 6.20741272 C-11.12117631 5.22017243 -11.1220981 4.23293215 -11.12304783 3.21577549 C-10.78885437 -2.80219074 -7.04997587 0 0 0 Z " transform="translate(352,298)" style="fill: #C1813F;"/><path d="M0 0 C3.3 0 6.6 0 10 0 C10 44.22 10 88.44 10 134 C6.7 134 3.4 134 0 134 C0 89.78 0 45.56 0 0 Z " transform="translate(452,299)" style="fill: #CE8A43;"/><path d="M0 0 C4.83978487 32.68439867 9.22892815 66.08640434 4 99 C3.83242188 100.19496094 3.66484375 101.38992187 3.4921875 102.62109375 C2.29201245 110.70798755 2.29201245 110.70798755 0 113 C-0.31942441 110.95940522 -0.63001362 108.91742776 -0.9375 106.875 C-1.11152344 105.73804688 -1.28554688 104.60109375 -1.46484375 103.4296875 C-3.01797194 91.57988153 -3.15068485 79.72296178 -3.1328125 67.796875 C-3.13348845 66.1817422 -3.13446088 64.56660951 -3.13571167 62.95147705 C-3.13717329 59.5932924 -3.13508296 56.23513462 -3.13037109 52.87695312 C-3.12465619 48.59833021 -3.12797373 44.31976981 -3.13394356 40.04114914 C-3.13757518 36.71579526 -3.13639899 33.39045596 -3.13381577 30.06510162 C-3.13315464 28.4880294 -3.13394601 26.9109558 -3.13629532 25.33388519 C-3.15727928 7.30742697 -3.15727928 7.30742697 -2 1 C-1 0 -1 0 0 0 Z " transform="translate(346,110)" style="fill: #8FC1B4;"/><path d="M0 0 C5.24993606 0.26999671 9.03032766 3.40436044 13.1875 6.3125 C13.91130859 6.79912109 14.63511719 7.28574219 15.38085938 7.78710938 C16.07373047 8.26599609 16.76660156 8.74488281 17.48046875 9.23828125 C18.10848389 9.67180908 18.73649902 10.10533691 19.38354492 10.55200195 C21.22090774 12.19788609 22.03834775 13.74711514 23 16 C22.01 17.32 21.02 18.64 20 20 C13.91073092 17.24259514 8.76987616 13.80540813 3.41796875 9.8046875 C1.64944114 8.4847202 -0.16382437 7.22411709 -2 6 C-1.125 1.125 -1.125 1.125 0 0 Z " transform="translate(312,93)" style="fill: #6CAA68;"/><path d="M0 0 C2.94140625 1.03515625 2.94140625 1.03515625 4.94140625 3.03515625 C4.81640625 5.03515625 4.81640625 5.03515625 3.94140625 7.03515625 C2.25390625 8.41015625 2.25390625 8.41015625 -0.05859375 9.03515625 C-2.93359375 8.22265625 -2.93359375 8.22265625 -6.05859375 7.03515625 C-8.05228406 6.66595434 -10.05138452 6.32190043 -12.05859375 6.03515625 C-12.05859375 5.37515625 -12.05859375 4.71515625 -12.05859375 4.03515625 C-14.69859375 3.70515625 -17.33859375 3.37515625 -20.05859375 3.03515625 C-20.71859375 1.05515625 -21.37859375 -0.92484375 -22.05859375 -2.96484375 C-15.93957018 -6.02435553 -6.10385367 -1.73172979 0 0 Z " transform="translate(317.05859375,135.96484375)" style="fill: #69A565;"/><path d="M0 0 C0.88671875 2.11328125 0.88671875 2.11328125 1 5 C-0.72822476 7.42738813 -2.93076951 9.2596278 -5.1875 11.1875 C-5.77853516 11.72052734 -6.36957031 12.25355469 -6.97851562 12.80273438 C-9.86568553 15.36159733 -12.48211575 17.364698 -16 19 C-17.5625 17.8125 -17.5625 17.8125 -19 16 C-18.97676934 13.32382781 -18.52745029 11.61796635 -16.77368164 9.56323242 C-15.15273696 8.02815539 -13.4766432 6.60244066 -11.75 5.1875 C-11.17636719 4.68541016 -10.60273438 4.18332031 -10.01171875 3.66601562 C-6.64383771 0.84666191 -4.45040843 -0.69433064 0 0 Z " transform="translate(318,198)" style="fill: #6DAD69;"/><path d="M0 0 C0 1.98 0 3.96 0 6 C-4.24498319 7.67824917 -6.61029782 8.12294707 -11 7 C-13.30295076 6.7635909 -15.60644469 6.56398822 -17.9140625 6.37890625 C-20 6 -20 6 -23 4 C-23.1875 1.375 -23.1875 1.375 -23 -1 C-17.03522382 -3.98238809 -6.5543397 -1.09238995 0 0 Z " transform="translate(315,172)" style="fill: #6BA867;"/><path d="M0 0 C3.5625 0.3125 3.5625 0.3125 5.5 1.4375 C7.06672245 4.20230433 6.95226435 6.19438517 6.5625 9.3125 C5.4375 11.1875 5.4375 11.1875 3.5625 12.3125 C-0.09009739 12.85650387 -1.7808886 12.75024093 -4.875 10.6875 C-6.4375 8.3125 -6.4375 8.3125 -6.3125 5.1875 C-5.05064741 1.04141292 -4.36200713 0.3965461 0 0 Z " transform="translate(126.4375,92.6875)" style="fill: #0B0A0A;"/><path d="M0 0 C1.65 0.33 3.3 0.66 5 1 C5.75 2.6875 5.75 2.6875 6 5 C4.1875 7.5 4.1875 7.5 2 10 C1.690625 10.70125 1.38125 11.4025 1.0625 12.125 C-0.41188955 14.7268639 -2.39962596 15.63138209 -5 17 C-5.99 16.34 -6.98 15.68 -8 15 C-8.65251301 11.58013271 -8.16485551 10.25206702 -6.25 7.32421875 C-5.5075 6.45410156 -4.765 5.58398438 -4 4.6875 C-2.88625 3.36298828 -2.88625 3.36298828 -1.75 2.01171875 C-1.1725 1.34785156 -0.595 0.68398437 0 0 Z " transform="translate(327,222)" style="fill: #6BA967;"/><path d="M0 0 C1.44010481 0.25662245 2.8770687 0.53090821 4.3125 0.8125 C5.11300781 0.96332031 5.91351563 1.11414063 6.73828125 1.26953125 C9.299268 2.09665478 10.43467731 2.81678678 12 5 C11.6875 8.6875 11.6875 8.6875 11 12 C8.1127427 12.34372111 5.88111181 12.50436056 3.30078125 11.02734375 C1.01239523 9.21547395 -0.74970071 7.531886 -2 4.875 C-2 3 -2 3 0 0 Z " transform="translate(190,289)" style="fill: #F1F2F2;"/><path d="M0 0 C6.27 0 12.54 0 19 0 C19 0.99 19 1.98 19 3 C12.73 3 6.46 3 0 3 C0 2.01 0 1.02 0 0 Z " transform="translate(415,264)" style="fill: #656463;"/><path d="M0 0 C6.27 0 12.54 0 19 0 C19 0.99 19 1.98 19 3 C12.73 3 6.46 3 0 3 C0 2.01 0 1.02 0 0 Z " transform="translate(351,264)" style="fill: #656463;"/><path d="M0 0 C2.5 0.125 2.5 0.125 3.5 1.125 C3.54080783 3.12458364 3.54254356 5.12545254 3.5 7.125 C0.625 7.75 0.625 7.75 -2.5 8.125 C-3.16 7.465 -3.82 6.805 -4.5 6.125 C-3.77607362 0.18880368 -3.77607362 0.18880368 0 0 Z " transform="translate(167.5,439.875)" style="fill: #9F2517;"/><path d="M0 0 C2.4375 0.1875 2.4375 0.1875 3.4375 1.1875 C3.625 3.625 3.625 3.625 3.4375 6.1875 C2.7775 6.8475 2.1175 7.5075 1.4375 8.1875 C-1.1875 7.8125 -1.1875 7.8125 -3.5625 7.1875 C-4.1875 4.8125 -4.1875 4.8125 -4.5625 2.1875 C-2.5625 0.1875 -2.5625 0.1875 0 0 Z " transform="translate(78.5625,438.8125)" style="fill: #A32617;"/><path d="M0 0 C0.66 0.33 1.32 0.66 2 1 C1.36191406 1.60328125 0.72382813 2.2065625 0.06640625 2.828125 C-0.75988281 3.62734375 -1.58617187 4.4265625 -2.4375 5.25 C-3.26121094 6.03890625 -4.08492188 6.8278125 -4.93359375 7.640625 C-6.91885207 9.90734717 -7.6300359 11.0671937 -8 14 C-7.01 14.33 -6.02 14.66 -5 15 C-5.99 15.495 -5.99 15.495 -7 16 C-8.5625 14.8125 -8.5625 14.8125 -10 13 C-9.82068564 9.63785576 -9.23699562 8.25670793 -6.93359375 5.76171875 C-6.10988281 5.07722656 -5.28617187 4.39273438 -4.4375 3.6875 C-3.61121094 2.99011719 -2.78492188 2.29273438 -1.93359375 1.57421875 C-1.29550781 1.05472656 -0.65742188 0.53523437 0 0 Z " transform="translate(309,201)" style="fill: #618F5D;"/><path d="" transform="translate(0,0)" style="fill: #000000;"/></svg>