<?xml version="1.0" encoding="UTF-8"?>
<!-- Generator: visioncortex VTracer -->
<svg id="svg" version="1.1" xmlns="http://www.w3.org/2000/svg" style="display: block;" viewBox="0 0 500 500"><path d="M0 0 C3.83984098 2.92614388 7.30749617 6.05835163 10.59765625 9.58984375 C11.9169674 11.06014379 11.9169674 11.06014379 13.9375 11.9375 C14.89023031 13.53672587 15.83414562 15.14192799 16.73046875 16.7734375 C18.09514986 19.22014733 19.54325567 21.60703537 21 24 C26.9375 33.89082278 26.9375 33.89082278 26.9375 37.9375 C27.5975 38.2675 28.2575 38.5975 28.9375 38.9375 C29.57517584 41.30818962 30.07553524 43.58890559 30.5 46 C30.69070068 47.07604492 30.69070068 47.07604492 30.88525391 48.17382812 C34.65640853 70.57575832 31.87624556 92.2343373 18.859375 111.4140625 C16.12258695 115.00748746 13.16419824 118.3446148 10.078125 121.640625 C7.7033012 124.1887936 5.50016444 126.84420148 3.32421875 129.5625 C1.66453378 131.20815947 0.05223361 131.94729806 -2.0625 132.9375 C-4.66283624 134.50094204 -7.24179952 136.09617537 -9.8203125 137.6953125 C-12.0625 138.9375 -12.0625 138.9375 -14.0625 138.9375 C-14.3925 139.5975 -14.7225 140.2575 -15.0625 140.9375 C-13.95638002 142.04361998 -12.8498709 143.1493519 -11.7421875 144.25390625 C-10.49232266 145.50667776 -9.24847249 146.76545574 -8.0078125 148.02734375 C-7.26273438 148.78144531 -6.51765625 149.53554687 -5.75 150.3125 C-4.70392578 151.37597656 -4.70392578 151.37597656 -3.63671875 152.4609375 C-1.69918848 154.32496511 0.24346075 156.05718092 2.2890625 157.79296875 C8.47611335 163.16697998 14.19134459 169.04272099 19.97387695 174.84350586 C21.99514268 176.8701298 24.02169574 178.89135547 26.04882812 180.91210938 C27.35699867 182.22112652 28.66494571 183.53036706 29.97265625 184.83984375 C30.60611969 185.47046722 31.23958313 186.1010907 31.89224243 186.75082397 C35.0522941 189.92404362 37.91716355 193.11207353 40.62109375 196.69140625 C44.69753666 201.43774739 50.00668814 201.93990958 55.9375 202.9375 C57.26894564 203.19340285 58.59965009 203.45318455 59.9296875 203.71630859 C63.52158344 204.41957069 67.11949788 205.08169965 70.72216797 205.72729492 C72.96298351 206.1295749 75.20220799 206.53999489 77.44140625 206.95117188 C78.87751735 207.21141704 80.3137123 207.47120001 81.75 207.73046875 C83.03519531 207.9627417 84.32039063 208.19501465 85.64453125 208.43432617 C89.04131915 209.03819951 89.04131915 209.03819951 92.9375 208.9375 C93.18886719 208.12925781 93.44023437 207.32101562 93.69921875 206.48828125 C95.17324317 202.26150459 96.925298 198.21011556 98.75 194.125 C99.10384766 193.32980957 99.45769531 192.53461914 99.82226562 191.71533203 C102.26524903 186.28536755 104.89971011 181.06377044 107.9375 175.9375 C115.34392425 177.91086199 122.685219 180.04034178 130.00390625 182.31640625 C131.05266937 182.64091263 132.1014325 182.96541901 133.18197632 183.29975891 C136.62189394 184.3646555 140.06097287 185.43223144 143.5 186.5 C145.91410549 187.24833348 148.32825008 187.99654085 150.74243164 188.74462891 C154.53020423 189.91857364 158.31790772 191.09273888 162.10527039 192.26800537 C170.11156529 194.75239102 178.11955147 197.23123415 186.12898254 199.70549011 C190.78308019 201.14325647 195.43662555 202.58280609 200.09000683 204.02288914 C203.28730026 205.01229206 206.48488029 206.00074238 209.68289185 206.98782349 C213.25674491 208.09118924 216.82964785 209.1975815 220.40234375 210.3046875 C221.98165176 210.79114494 221.98165176 210.79114494 223.59286499 211.28742981 C229.11714683 213.0028641 234.54472593 214.84399066 239.9375 216.9375 C239.25213317 221.34584714 237.70245539 225.28012529 236 229.375 C234.15497367 233.85064781 232.41362911 238.32370515 230.9375 242.9375 C230.2775 242.9375 229.6175 242.9375 228.9375 242.9375 C228.75574219 243.48277344 228.57398438 244.02804687 228.38671875 244.58984375 C226.5703125 250.0390625 224.75390625 255.48828125 222.9375 260.9375 C222.2775 260.9375 221.6175 260.9375 220.9375 260.9375 C220.75392944 262.01994995 220.75392944 262.01994995 220.56665039 263.12426758 C219.93662646 265.94140603 219.03685468 268.31280556 217.87109375 270.94921875 C217.46826172 271.87154297 217.06542969 272.79386719 216.65039062 273.74414062 C216.22951172 274.69482422 215.80863281 275.64550781 215.375 276.625 C214.53710208 278.52330288 213.70230304 280.42297761 212.87109375 282.32421875 C212.50040771 283.16170654 212.12972168 283.99919434 211.74780273 284.86206055 C210.81627047 286.87667145 210.81627047 286.87667145 210.9375 288.9375 C210.2775 288.9375 209.6175 288.9375 208.9375 288.9375 C208.545625 290.195625 208.15375 291.45375 207.75 292.75 C205.89865906 298.33962552 203.45204474 303.62018207 200.9375 308.9375 C195.94905691 308.3275874 191.33594654 307.30275565 186.5 305.875 C185.26378906 305.51277344 184.02757812 305.15054687 182.75390625 304.77734375 C181.35978516 304.36162109 181.35978516 304.36162109 179.9375 303.9375 C172.41998845 319.9058712 172.41998845 319.9058712 165.625 336.1875 C163.10940793 342.657198 160.12845698 348.77860991 156.9375 354.9375 C155.59328671 357.64760744 154.25525777 360.36069055 152.91796875 363.07421875 C151.9375 364.9375 151.9375 364.9375 150.9375 365.9375 C148 366.125 148 366.125 144.9375 365.9375 C142.9375 363.9375 142.9375 363.9375 142.64526367 360.72412109 C142.95957508 356.65146446 143.88715159 354.03752647 145.61328125 350.3515625 C145.89458389 349.74034042 146.17588654 349.12911835 146.4657135 348.49937439 C147.38197844 346.51467894 148.31593819 344.53887266 149.25 342.5625 C149.88708397 341.18941778 150.52264886 339.81562978 151.15673828 338.44116211 C152.12513591 336.34239991 153.09440174 334.24409861 154.06854248 332.147995 C157.24628307 325.30685141 160.29127453 318.41159141 163.3125 311.5 C163.78212158 310.4289502 164.25174316 309.35790039 164.7355957 308.25439453 C165.80440731 305.81608574 166.87177945 303.37716096 167.9375 300.9375 C160.3625556 297.92939934 152.61275422 295.84249363 144.75195312 293.71875 C143.70845703 293.43257813 142.66496094 293.14640625 141.58984375 292.8515625 C140.55089997 292.57103625 139.5119562 292.29051001 138.44152927 292.00148296 C134.9375 290.9375 134.9375 290.9375 132.0798254 289.6800127 C119.16898887 284.26621861 105.40245816 285.21938161 91.6500169 285.2726289 C87.80765382 285.28197442 83.96541872 285.26229089 80.12309265 285.24630737 C73.48202182 285.22257303 66.84113646 285.21683186 60.20002937 285.22365379 C50.59839597 285.23349032 40.99696689 285.21565923 31.3953666 285.19128648 C15.81378474 285.15247599 0.23226168 285.13573864 -15.34936523 285.13305664 C-30.47667453 285.13040518 -45.60391518 285.11724986 -60.73120117 285.09008789 C-62.13216481 285.08757782 -62.13216481 285.08757782 -63.56143074 285.08501705 C-68.24736993 285.07655698 -72.9333087 285.06789167 -77.61924732 285.05912435 C-116.4336539 284.98676828 -155.24803073 284.95030824 -194.0625 284.9375 C-194.0625 285.5975 -194.0625 286.2575 -194.0625 286.9375 C-195.2179536 288.11640377 -196.37953647 289.28985113 -197.56933594 290.43408203 C-200.33555526 293.21929763 -202.73192793 296.3171876 -205.1875 299.375 C-206.03030518 300.41648193 -206.03030518 300.41648193 -206.89013672 301.47900391 C-209.70813149 304.97116011 -212.49783111 308.48306625 -215.25 312.02734375 C-215.74612793 312.66551025 -216.24225586 313.30367676 -216.75341797 313.96118164 C-217.68916959 315.16918377 -218.62069479 316.38047514 -219.54736328 317.59545898 C-221.59524265 320.24466234 -223.24563485 322.0595899 -226.0625 323.9375 C-229.38490324 323.6133631 -230.67026303 323.32973697 -233.0625 320.9375 C-232.84926365 315.62540628 -231.69110906 312.80876747 -228.1875 308.875 C-226.96353516 307.45767578 -226.96353516 307.45767578 -225.71484375 306.01171875 C-225.28026855 305.51333496 -224.84569336 305.01495117 -224.39794922 304.50146484 C-222.59525739 302.39030509 -220.88363055 300.21549264 -219.183918 298.02097225 C-218.26928304 296.85147872 -217.34390106 295.69025724 -216.40476608 294.54034519 C-213.92054265 291.47366427 -211.74347012 288.47739551 -209.86920166 284.9997406 C-206.75113901 279.64090761 -203.47056024 274.96774842 -197.31404114 273.10664749 C-189.58833978 271.89725676 -181.80071824 272.16395727 -174.00849438 272.41659093 C-170.59370243 272.51117597 -167.17865604 272.51923335 -163.76275635 272.53697205 C-157.31205298 272.58336538 -150.86522031 272.70611275 -144.41621232 272.85721439 C-137.06716814 273.02561861 -129.71792639 273.10752954 -122.36742926 273.18264592 C-107.26363924 273.33890905 -92.16345891 273.60226649 -77.0625 273.9375 C-77.02414866 273.04684971 -77.02414866 273.04684971 -76.98502254 272.13820648 C-76.8657906 269.40645992 -76.74236958 266.67491739 -76.61889648 263.94335938 C-76.57876183 263.00957458 -76.53862717 262.07578979 -76.49727631 261.1137085 C-76.13208584 253.14203517 -75.25505475 245.33901805 -74.125 237.4375 C-73.75751199 234.76115082 -73.39754586 232.08381868 -73.0390625 229.40625 C-72.86793945 228.12878906 -72.69681641 226.85132813 -72.52050781 225.53515625 C-71.90212004 220.67771369 -71.42604801 215.81506403 -71 210.9375 C-70.03320815 199.89270235 -68.56748072 188.92024003 -67.0625 177.9375 C-67.40023437 178.515 -67.73796875 179.0925 -68.0859375 179.6875 C-68.53195313 180.43 -68.97796875 181.1725 -69.4375 181.9375 C-69.87835938 182.68 -70.31921875 183.4225 -70.7734375 184.1875 C-71.19882813 184.765 -71.62421875 185.3425 -72.0625 185.9375 C-72.7225 185.9375 -73.3825 185.9375 -74.0625 185.9375 C-74.42601562 187.00097656 -74.42601562 187.00097656 -74.796875 188.0859375 C-76.25180321 191.3640165 -78.07663243 193.75656023 -80.3125 196.5625 C-84.61224764 202.02518291 -88.76989797 207.57719389 -92.875 213.1875 C-121.38469442 252.04489814 -121.38469442 252.04489814 -127.0625 253.9375 C-132.30253023 254.43929253 -136.68956251 254.586525 -141.5 252.3125 C-147.12895269 247.09542189 -149.69196112 240.57723534 -152.625 233.625 C-153.49789283 231.582989 -154.37162297 229.54133576 -155.24609375 227.5 C-155.92841064 225.90285156 -155.92841064 225.90285156 -156.62451172 224.2734375 C-158.11406234 220.81788237 -159.63228934 217.37627516 -161.16015625 213.9375 C-161.66538818 212.79966064 -162.17062012 211.66182129 -162.69116211 210.48950195 C-163.67789609 208.2708397 -164.66693992 206.0532031 -165.65844727 203.83666992 C-166.10373779 202.83224854 -166.54902832 201.82782715 -167.0078125 200.79296875 C-167.40500488 199.90246826 -167.80219727 199.01196777 -168.21142578 198.09448242 C-169.0625 195.9375 -169.0625 195.9375 -169.0625 193.9375 C-169.7225 194.2675 -170.3825 194.5975 -171.0625 194.9375 C-173.82617582 195.08909403 -176.54782157 195.16891393 -179.3125 195.1875 C-180.43978516 195.2184375 -180.43978516 195.2184375 -181.58984375 195.25 C-186.5037523 195.28430303 -189.7912777 194.61987906 -194.0625 191.9375 C-197.31956282 188.58996321 -198.95340553 185.47470465 -200.0625 180.9375 C-199.7325 180.2775 -199.4025 179.6175 -199.0625 178.9375 C-199.784375 178.73125 -200.50625 178.525 -201.25 178.3125 C-205.04706 176.45615956 -206.5606308 174.34282197 -209.0625 170.9375 C-210.53714787 166.51355639 -210.44194235 162.45526941 -209.3125 157.9375 C-209.00952067 154.30174807 -210.2217124 152.79365878 -212.12109375 149.7890625 C-213.79148937 146.50372007 -213.71996866 143.50762552 -213.0625 139.9375 C-210.3611755 132.60533351 -204.85442622 129.40206842 -198.0625 125.9375 C-188.18014706 121.9375 -188.18014706 121.9375 -183.0625 121.9375 C-183.38605469 121.27363281 -183.70960938 120.60976562 -184.04296875 119.92578125 C-185.28402036 116.2882162 -185.4056266 112.92358575 -185.375 109.125 C-185.36762817 108.05596436 -185.36762817 108.05596436 -185.36010742 106.96533203 C-185.17291756 98.57730647 -183.00367376 92.87867376 -177.0625 86.9375 C-172.32209995 83.70540906 -167.66067467 82.89597913 -162.0625 83.9375 C-157.99894887 86.30174793 -155.92765919 88.40996424 -154.625 92.875 C-153.81241405 96.44012934 -154.45043278 99.35992401 -155.0625 102.9375 C-156.06355457 115.19711051 -156.06355457 115.19711051 -151.0625 125.9375 C-150.5564624 126.41928711 -150.0504248 126.90107422 -149.52905273 127.39746094 C-146.18294875 130.72564394 -144.66435703 133.06989088 -144.51171875 137.85546875 C-144.56035929 139.61310114 -144.6404002 141.37011385 -144.75 143.125 C-144.82036209 144.88916958 -144.88691206 146.6534963 -144.94921875 148.41796875 C-145.01435669 149.57655396 -145.01435669 149.57655396 -145.08081055 150.75854492 C-145.06205282 152.99071397 -144.62405459 154.78737652 -144.0625 156.9375 C-144.11850417 159.2924753 -144.20542546 161.64679364 -144.3125 164 C-144.45036342 171.49057929 -142.52008088 176.41034607 -139.0625 182.9375 C-137.81198574 185.66938195 -136.62534145 188.42789712 -135.4375 191.1875 C-134.8623799 192.50538329 -134.28687086 193.82309692 -133.7109375 195.140625 C-132.1475372 198.73367043 -130.6026682 202.33443985 -129.0625 205.9375 C-124.43710655 201.61929587 -120.76079041 196.76309327 -117 191.6875 C-116.3387915 190.79998047 -115.67758301 189.91246094 -114.99633789 188.99804688 C-109.42578607 181.49104917 -104.00354181 173.88849573 -98.66162109 166.21777344 C-96.85880393 163.64703873 -95.03379306 161.09283314 -93.20703125 158.5390625 C-91.90880903 156.71357376 -90.61063123 154.88805344 -89.3125 153.0625 C-88.69109131 152.19947266 -88.06968262 151.33644531 -87.42944336 150.44726562 C-86.8597583 149.64224609 -86.29007324 148.83722656 -85.703125 148.0078125 C-85.19297852 147.29383301 -84.68283203 146.57985352 -84.15722656 145.84423828 C-82.81354614 143.87032724 -82.81354614 143.87032724 -83.0625 140.9375 C-84.332053 140.28915346 -85.60319706 139.64392185 -86.875 139 C-87.93654297 138.46052734 -87.93654297 138.46052734 -89.01953125 137.91015625 C-91.18060285 136.83019484 -91.18060285 136.83019484 -94.0625 135.9375 C-95.39583333 134.60416667 -96.72916667 133.27083333 -98.0625 131.9375 C-98.7225 131.628125 -99.3825 131.31875 -100.0625 131 C-102.83311217 129.52811229 -104.16107268 127.41511742 -106.0625 124.9375 C-108.32683577 122.61655583 -110.62949563 120.35017967 -112.9765625 118.11328125 C-121.26494084 109.46791283 -125.4825665 99.12983639 -129.0625 87.9375 C-129.41570312 86.90238281 -129.76890625 85.86726563 -130.1328125 84.80078125 C-135.88772988 64.96964705 -130.74994342 42.22246252 -121.125 24.4921875 C-118.51991509 19.90445032 -115.62491083 15.83477745 -112.0625 11.9375 C-111.27359375 11.05707031 -110.4846875 10.17664063 -109.671875 9.26953125 C-80.411396 -21.74486535 -34.32791851 -24.15147272 0 0 Z M-28.0625 173.9375 C-27.51174714 180.57207126 -26.96032154 187.20658638 -26.40844727 193.84106445 C-26.22112099 196.09398152 -26.03394384 198.346911 -25.84692383 200.59985352 C-25.57673543 203.85436288 -25.30599534 207.10882598 -25.03515625 210.36328125 C-24.9116555 211.85303215 -24.9116555 211.85303215 -24.78565979 213.37287903 C-24.62660713 215.28166108 -24.46586245 217.19030305 -24.30325317 219.0987854 C-24.13550418 221.07670954 -23.97304593 223.0550865 -23.81466675 225.03378296 C-23.73201569 226.02447784 -23.64936462 227.01517273 -23.56420898 228.03588867 C-23.49177475 228.92918381 -23.41934052 229.82247894 -23.3447113 230.74284363 C-23.17989554 232.97728066 -23.17989554 232.97728066 -22.0625 234.9375 C-21.99340954 237.21316699 -22.06501604 239.4704524 -22.125 241.74609375 C-22.1630187 244.11769941 -22.1630187 244.11769941 -21.0625 246.9375 C-20.92759318 248.40826252 -20.83874144 249.88355761 -20.78125 251.359375 C-20.74386719 252.22046875 -20.70648438 253.0815625 -20.66796875 253.96875 C-20.63316406 254.8659375 -20.59835938 255.763125 -20.5625 256.6875 C-20.49279915 258.45325487 -20.41993916 260.21888819 -20.34375 261.984375 C-20.31345703 262.76651367 -20.28316406 263.54865234 -20.25195312 264.35449219 C-20.0164962 267.56471679 -19.51771384 270.75100313 -19.0625 273.9375 C13.2775 273.9375 45.6175 273.9375 78.9375 273.9375 C75.92259443 271.92756295 73.7225073 271.21126659 70.25 270.3125 C69.25613281 270.05210937 68.26226562 269.79171875 67.23828125 269.5234375 C66.47902344 269.33007812 65.71976562 269.13671875 64.9375 268.9375 C66.94338453 262.05524101 70.32265867 255.78000864 73.48046875 249.37304688 C73.92261719 248.46232422 74.36476563 247.55160156 74.8203125 246.61328125 C75.22652832 245.78739502 75.63274414 244.96150879 76.05126953 244.1105957 C77.126312 241.86566373 77.126312 241.86566373 76.9375 238.9375 C71.13256622 237.7547415 65.31874926 236.6274112 59.49609375 235.53515625 C57.47491885 235.15326358 55.45386782 234.77072228 53.43286133 234.38793945 C52.05954925 234.12904837 50.68584747 233.87221607 49.31176758 233.61743164 C27.62241974 229.58922558 27.62241974 229.58922558 22.9375 224.375 C22.380625 223.77558594 21.82375 223.17617188 21.25 222.55859375 C19.9375 220.9375 19.9375 220.9375 18.9375 218.9375 C18.2775 218.9375 17.6175 218.9375 16.9375 218.9375 C16.6796875 218.35484375 16.421875 217.7721875 16.15625 217.171875 C14.83915983 214.7572097 13.38661616 213.12009823 11.4375 211.1875 C10.8290625 210.57390625 10.220625 209.9603125 9.59375 209.328125 C8.04265723 207.72315912 8.04265723 207.72315912 5.9375 207.9375 C5.7003125 207.37579102 5.463125 206.81408203 5.21875 206.23535156 C3.64430643 203.41167342 1.72065455 201.46135158 -0.5625 199.171875 C-1.449375 198.28242188 -2.33625 197.39296875 -3.25 196.4765625 C-4.178125 195.55617188 -5.10625 194.63578125 -6.0625 193.6875 C-6.990625 192.75164062 -7.91875 191.81578125 -8.875 190.8515625 C-10.2053125 189.52511719 -10.2053125 189.52511719 -11.5625 188.171875 C-12.3771875 187.35944336 -13.191875 186.54701172 -14.03125 185.70996094 C-15.86434993 183.71834061 -15.86434993 183.71834061 -18.0625 183.9375 C-18.26875 183.40125 -18.475 182.865 -18.6875 182.3125 C-20.59500426 179.01771991 -23.11069384 176.34386372 -26.0625 173.9375 C-26.7225 173.9375 -27.3825 173.9375 -28.0625 173.9375 Z " transform="translate(241.0625,96.0625)" style="fill: #010000;"/><path d="M0 0 C0.92876953 -0.00322266 1.85753906 -0.00644531 2.81445312 -0.00976562 C20.78314334 0.12894005 35.59430084 7.36028881 48.625 19.5 C62.8655372 34.32751275 66.47908117 51.0364582 66.21484375 70.80859375 C65.9872135 77.48461535 64.60400328 83.19034137 61.9375 89.3125 C61.51339844 90.33472656 61.08929688 91.35695313 60.65234375 92.41015625 C57.24973661 99.90726558 52.76818019 105.55007191 46.9375 111.3125 C46.24914062 112.02277344 45.56078125 112.73304688 44.8515625 113.46484375 C31.51862523 126.37648002 14.85655397 129.85779023 -3.12744141 129.80273438 C-11.66505478 129.58433341 -18.38071421 128.23238298 -26.0625 124.3125 C-27.65964844 123.49845703 -27.65964844 123.49845703 -29.2890625 122.66796875 C-44.14827279 114.50093382 -55.62405225 101.77703477 -60.9921875 85.4921875 C-66.00044057 67.9871506 -65.12936028 50.75425869 -56.875 34.4375 C-53.32586102 28.31542444 -49.08317424 23.27350579 -44.0625 18.3125 C-43.37542969 17.60351562 -42.68835938 16.89453125 -41.98046875 16.1640625 C-30.68118286 5.22115483 -15.55090643 -0.27092171 0 0 Z " transform="translate(190.0625,96.6875)" style="fill: #FCFCFC;"/><path d="M0 0 C7.89270093 1.35405253 15.38810059 3.55102748 23 6 C24.87229541 6.59797077 26.74470067 7.19559766 28.6171875 7.79296875 C37.07547159 10.49456 45.53218807 13.20086368 53.98046875 15.93359375 C63.13950514 18.88622931 72.2774188 21.73587312 81.61328125 24.078125 C85.80410073 25.21887863 89.88902463 26.60290573 94 28 C95.58156191 28.5248539 97.16359463 29.0482912 98.74609375 29.5703125 C100.30989583 30.08854167 101.87369792 30.60677083 103.4375 31.125 C104.23865234 31.38925781 105.03980469 31.65351563 105.86523438 31.92578125 C106.63029297 32.17972656 107.39535156 32.43367188 108.18359375 32.6953125 C108.86993896 32.92234863 109.55628418 33.14938477 110.26342773 33.38330078 C112 34 112 34 114 35 C112.34805089 41.19145153 110.24030213 46.90610029 107.51171875 52.69921875 C105.61433212 56.84209137 103.87328304 61.04252941 102.125 65.25 C99.66687924 71.14798567 97.12387079 76.9817517 94.375 82.75 C90.91649378 90.04689412 87.92826865 97.47534681 85 105 C84.33525036 106.6674322 83.66937493 108.33441919 83 110 C76.41311815 108.62383604 70.04619145 106.87838016 63.625 104.875 C61.58100572 104.24519551 59.53672269 103.61632755 57.4921875 102.98828125 C56.42967773 102.66166504 55.36716797 102.33504883 54.27246094 101.99853516 C48.77452985 100.32093607 43.26260953 98.69109835 37.75 97.0625 C36.62223145 96.72911621 35.49446289 96.39573242 34.33251953 96.05224609 C32.03490213 95.37329347 29.73721312 94.69458316 27.43945312 94.01611328 C20.68230192 92.01985666 13.92738013 90.01606948 7.17211914 88.01342773 C1.28623073 86.26887123 -4.60043721 84.52700845 -10.48828125 82.7890625 C-11.71417969 82.42683594 -12.94007813 82.06460938 -14.203125 81.69140625 C-16.55053212 80.99785415 -18.89817589 80.30510233 -21.24609375 79.61328125 C-22.30570312 79.30003906 -23.3653125 78.98679687 -24.45703125 78.6640625 C-25.38491455 78.39029785 -26.31279785 78.1165332 -27.26879883 77.83447266 C-30.19709354 76.93978138 -33.09908955 75.97951434 -36 75 C-26.89413111 55.73153175 -17.7012346 36.50553359 -8.4375 17.3125 C-8.12986725 16.67499817 -7.8222345 16.03749634 -7.50527954 15.38067627 C-1.97221545 3.91685158 -1.97221545 3.91685158 0 0 Z " transform="translate(354,284)" style="fill: #EC1F23;"/><path d="M0 0 C1.53021286 0.04185928 1.53021286 0.04185928 3.09133911 0.08456421 C6.40891769 0.18222412 9.7231109 0.3228619 13.0390625 0.46484375 C15.3091571 0.54114791 17.57934274 0.61478932 19.84960938 0.68579102 C24.35977599 0.83108684 28.86886209 0.99288157 33.37792969 1.16894531 C38.85032866 1.3793824 44.32173988 1.52948869 49.796875 1.64453125 C51.9293233 1.6935049 54.0617428 1.74354865 56.19415283 1.79415894 C58.12985866 1.83905052 60.06566256 1.87964693 62.00146484 1.92016602 C63.13793457 1.95424561 64.2744043 1.9883252 65.4453125 2.0234375 C66.41533203 2.04849365 67.38535156 2.0735498 68.38476562 2.09936523 C70.6640625 2.40234375 70.6640625 2.40234375 72.6640625 4.40234375 C72.28487388 8.26763912 70.1237897 11.65603917 68.34765625 15.046875 C67.84553368 16.01713875 67.84553368 16.01713875 67.33326721 17.00700378 C66.25995337 19.07834583 65.18076034 21.14656242 64.1015625 23.21484375 C63.40262863 24.56296127 62.70405766 25.911267 62.00585938 27.25976562 C55.40655738 39.9856019 48.67433328 52.64131046 41.7890625 65.21484375 C41.31726563 66.08431641 40.84546875 66.95378906 40.359375 67.84960938 C39.905625 68.67783203 39.451875 69.50605469 38.984375 70.359375 C38.38520264 71.4572937 38.38520264 71.4572937 37.77392578 72.57739258 C36.6640625 74.40234375 36.6640625 74.40234375 34.6640625 76.40234375 C31.60855456 76.67052502 28.57810606 76.71718875 25.51171875 76.765625 C24.57199219 76.97574219 23.63226563 77.18585938 22.6640625 77.40234375 C22.11663643 78.64198128 22.11663643 78.64198128 21.55815125 79.90666199 C19.6640625 82.40234375 19.6640625 82.40234375 17.86477089 82.861063 C15.40105073 83.02027017 12.97952293 83.02000577 10.51098633 82.9699707 C9.57420547 82.97070084 8.63742462 82.97143097 7.67225647 82.97218323 C4.57128287 82.96869564 1.4718054 82.92977855 -1.62890625 82.890625 C-3.77695393 82.88130106 -5.92501223 82.87418297 -8.07307434 82.8691864 C-13.73030894 82.85008378 -19.38690299 82.80095424 -25.04388428 82.7456665 C-30.81497532 82.69454473 -36.58616974 82.67168745 -42.35742188 82.64648438 C-53.68387539 82.59283917 -65.00985321 82.50748643 -76.3359375 82.40234375 C-75.08838101 73.06194257 -75.08838101 73.06194257 -71.56640625 69.7265625 C-68.81497401 66.85948337 -66.66457781 63.69155317 -64.4609375 60.40234375 C-63.48526979 58.96423628 -62.50866198 57.52676629 -61.53125 56.08984375 C-61.0146582 55.32929688 -60.49806641 54.56875 -59.96582031 53.78515625 C-57.1252359 49.63235459 -54.2284191 45.519085 -51.3359375 41.40234375 C-47.44387722 35.85804385 -43.56702835 30.30496799 -39.74633789 24.71118164 C-38.38911846 22.72997487 -37.01738348 20.75945206 -35.64453125 18.7890625 C-34.24958541 16.77711068 -32.98080899 14.79243016 -31.74609375 12.671875 C-30.39599496 10.46084364 -29.42848196 8.93151086 -27.3359375 7.40234375 C-24.22318639 6.87786651 -21.39034831 6.7716261 -18.23828125 6.92578125 C-17.28050781 6.75304687 -16.32273438 6.5803125 -15.3359375 6.40234375 C-14.66425537 5.40984619 -13.99257324 4.41734863 -13.30053711 3.39477539 C-9.71226146 -1.0877545 -5.33730006 -0.27334808 0 0 Z " transform="translate(174.3359375,383.59765625)" style="fill: #FCFCFC;"/><path d="M0 0 C1.53021286 0.04185928 1.53021286 0.04185928 3.09133911 0.08456421 C6.40891769 0.18222412 9.7231109 0.3228619 13.0390625 0.46484375 C15.3091571 0.54114791 17.57934274 0.61478932 19.84960938 0.68579102 C24.35977599 0.83108684 28.86886209 0.99288157 33.37792969 1.16894531 C38.85032866 1.3793824 44.32173988 1.52948869 49.796875 1.64453125 C51.9293233 1.6935049 54.0617428 1.74354865 56.19415283 1.79415894 C58.12985866 1.83905052 60.06566256 1.87964693 62.00146484 1.92016602 C63.13793457 1.95424561 64.2744043 1.9883252 65.4453125 2.0234375 C66.41533203 2.04849365 67.38535156 2.0735498 68.38476562 2.09936523 C70.6640625 2.40234375 70.6640625 2.40234375 72.6640625 4.40234375 C72.28487388 8.26763912 70.1237897 11.65603917 68.34765625 15.046875 C67.84553368 16.01713875 67.84553368 16.01713875 67.33326721 17.00700378 C66.25995337 19.07834583 65.18076034 21.14656242 64.1015625 23.21484375 C63.40262863 24.56296127 62.70405766 25.911267 62.00585938 27.25976562 C55.40655738 39.9856019 48.67433328 52.64131046 41.7890625 65.21484375 C41.31726563 66.08431641 40.84546875 66.95378906 40.359375 67.84960938 C39.905625 68.67783203 39.451875 69.50605469 38.984375 70.359375 C38.38520264 71.4572937 38.38520264 71.4572937 37.77392578 72.57739258 C36.6640625 74.40234375 36.6640625 74.40234375 34.6640625 76.40234375 C31.60855456 76.67052502 28.57810606 76.71718875 25.51171875 76.765625 C24.57199219 76.97574219 23.63226563 77.18585938 22.6640625 77.40234375 C22.11663643 78.64198128 22.11663643 78.64198128 21.55815125 79.90666199 C19.6640625 82.40234375 19.6640625 82.40234375 17.86477089 82.861063 C15.40105073 83.02027017 12.97952293 83.02000577 10.51098633 82.9699707 C9.57420547 82.97070084 8.63742462 82.97143097 7.67225647 82.97218323 C4.57128287 82.96869564 1.4718054 82.92977855 -1.62890625 82.890625 C-3.77695393 82.88130106 -5.92501223 82.87418297 -8.07307434 82.8691864 C-13.73030894 82.85008378 -19.38690299 82.80095424 -25.04388428 82.7456665 C-30.81497532 82.69454473 -36.58616974 82.67168745 -42.35742188 82.64648438 C-53.68387539 82.59283917 -65.00985321 82.50748643 -76.3359375 82.40234375 C-75.08838101 73.06194257 -75.08838101 73.06194257 -71.56640625 69.7265625 C-68.81497401 66.85948337 -66.66457781 63.69155317 -64.4609375 60.40234375 C-63.48526979 58.96423628 -62.50866198 57.52676629 -61.53125 56.08984375 C-61.0146582 55.32929688 -60.49806641 54.56875 -59.96582031 53.78515625 C-57.1252359 49.63235459 -54.2284191 45.519085 -51.3359375 41.40234375 C-47.44387722 35.85804385 -43.56702835 30.30496799 -39.74633789 24.71118164 C-38.38911846 22.72997487 -37.01738348 20.75945206 -35.64453125 18.7890625 C-34.24958541 16.77711068 -32.98080899 14.79243016 -31.74609375 12.671875 C-30.39599496 10.46084364 -29.42848196 8.93151086 -27.3359375 7.40234375 C-24.22318639 6.87786651 -21.39034831 6.7716261 -18.23828125 6.92578125 C-17.28050781 6.75304687 -16.32273438 6.5803125 -15.3359375 6.40234375 C-14.66425537 5.40984619 -13.99257324 4.41734863 -13.30053711 3.39477539 C-9.71226146 -1.0877545 -5.33730006 -0.27334808 0 0 Z M-36.63623047 29.43798828 C-39.53332879 34.49064095 -42.95917376 39.16305444 -46.3359375 43.90234375 C-47.67148845 45.82137521 -49.00482864 47.74194718 -50.3359375 49.6640625 C-53.02676197 53.53344171 -55.7362066 57.38880066 -58.4609375 61.234375 C-59.11320312 62.15734375 -59.76546875 63.0803125 -60.4375 64.03125 C-61.67837642 65.78532839 -62.92301535 67.53675274 -64.171875 69.28515625 C-64.99558594 70.45111328 -64.99558594 70.45111328 -65.8359375 71.640625 C-66.320625 72.32165283 -66.8053125 73.00268066 -67.3046875 73.7043457 C-68.50896976 75.35614495 -68.50896976 75.35614495 -68.3359375 77.40234375 C-57.48778308 77.6341891 -46.64021904 77.81179644 -35.79009056 77.92046547 C-30.75158483 77.97262689 -25.71477538 78.04334944 -20.67724609 78.15673828 C-15.81415832 78.26551378 -10.95269999 78.32520784 -6.08848953 78.35111618 C-4.23432375 78.3695741 -2.38024591 78.40562257 -0.52677536 78.45964432 C9.42217354 79.14610227 9.42217354 79.14610227 18.06590271 75.30099487 C19.6522967 72.70765939 20.69836823 70.27803832 21.6640625 67.40234375 C22.20522705 66.41476074 22.7463916 65.42717773 23.30395508 64.40966797 C23.71798584 63.60029785 24.1320166 62.79092773 24.55859375 61.95703125 C25.27281494 60.57124878 25.27281494 60.57124878 26.00146484 59.1574707 C26.48824707 58.20702881 26.9750293 57.25658691 27.4765625 56.27734375 C31.05094129 49.35497462 34.67614967 42.48079409 38.5390625 35.71484375 C45.30299316 25.49559602 45.30299316 25.49559602 48.6640625 14.40234375 C36.46068852 13.49752663 24.27115848 12.96889445 12.03637695 12.75512695 C10.49168911 12.72661685 8.94701112 12.69756735 7.40234375 12.66796875 C6.64850906 12.65388474 5.89467438 12.63980072 5.11799622 12.62528992 C0.62630826 12.51861904 -3.76607218 12.18318915 -8.23046875 11.63671875 C-24.39200564 9.92161688 -29.08904099 15.72266388 -36.63623047 29.43798828 Z " transform="translate(174.3359375,383.59765625)" style="fill: #040404;"/><path d="M0 0 C0.495 0.495 0.495 0.495 1 1 C0.90672411 2.94074038 0.7483362 4.87842696 0.5625 6.8125 C0.37418624 9.20826951 0.18669322 11.60410366 0 14 C-0.13921875 15.53914063 -0.13921875 15.53914063 -0.28125 17.109375 C-0.73500834 25.68540763 1.72195949 33.23581852 7.546875 39.72265625 C8.23523438 40.35494141 8.23523438 40.35494141 8.9375 41 C9.618125 41.66 10.29875 42.32 11 43 C10.8125 45.3125 10.8125 45.3125 10 47 C9.54625 46.175 9.0925 45.35 8.625 44.5 C5.69918127 41.71350598 5.04991357 41.57271387 1.1875 41.4375 C-2.42735769 41.58526061 -4.56421585 42.09549229 -7.5 44.1875 C-11.48266294 46.24995045 -12.00022973 46.08385135 -16.0625 44.8125 C-17.70869325 44.20931469 -19.35455424 43.60522143 -21 43 C-22.99207741 42.62219222 -24.98973965 42.26450794 -27 42 C-27.33 43.65 -27.66 45.3 -28 47 C-25.61153168 48.20474943 -23.21609848 49.38864958 -20.8125 50.5625 C-20.13896484 50.90474609 -19.46542969 51.24699219 -18.77148438 51.59960938 C-15.65983199 53.1023098 -13.66019305 54.03632424 -10.16015625 53.84375 C-7.80350182 53.06269283 -7.80350182 53.06269283 -5.625 50.9375 C-2.25601886 48.45087106 -0.08975994 48.67923451 4 49 C3.43419432 56.07257095 1.08644278 59.71484838 -3.625 64.875 C-8.27460703 67.80253036 -11.64667464 67.82001805 -17 67 C-25.58922701 64.88992978 -35.97715692 60.53426462 -41 53 C-41.1875 50.1875 -41.1875 50.1875 -40 47 C-31.95033137 39.47086422 -20.57128184 36.74277098 -10 35 C-8.99445356 31.55868633 -8.99445356 31.55868633 -9.77734375 28.18359375 C-10.16019531 27.60738281 -10.54304688 27.03117187 -10.9375 26.4375 C-13.82202038 21.12073595 -13.7930516 15.90823443 -13 10 C-11.7340707 5.96323566 -9.9491525 3.01038814 -7.0625 -0.0625 C-4.33036887 -1.30437779 -2.81077386 -0.91160233 0 0 Z " transform="translate(77,189)" style="fill: #F6F6F6;"/><path d="M0 0 C6.88852312 2.78821174 10.01104217 12.67197268 12.9375 19 C13.89951632 21.05540212 14.86306655 23.11008697 15.828125 25.1640625 C16.53485352 26.66888184 16.53485352 26.66888184 17.25585938 28.20410156 C18.8191511 31.46783542 20.472846 34.67558798 22.14941406 37.88208008 C30.05716114 53.06339226 30.05716114 53.06339226 27.625 61.0625 C19.42722004 57.59420848 16.29164704 52.24200567 12.875 44.4375 C12.01775208 42.55702672 11.15698744 40.6781532 10.29296875 38.80078125 C9.85645996 37.84896973 9.41995117 36.8971582 8.97021484 35.91650391 C6.11356358 29.85584087 2.90944321 23.97489515 -0.24609375 18.06640625 C-6.06633215 7.13226907 -6.06633215 7.13226907 -5.375 2.0625 C-2.375 0.0625 -2.375 0.0625 0 0 Z " transform="translate(249.375,405.9375)" style="fill: #000000;"/><path d="M0 0 C24.68324114 -0.16467317 49.32723497 0.30096001 74 1 C72.5434718 4.85113676 70.7857694 8.42373691 68.83984375 12.05078125 C68.53397842 12.62208267 68.2281131 13.19338409 67.91297913 13.78199768 C66.92393944 15.62701012 65.93086127 17.46981126 64.9375 19.3125 C64.25318793 20.58671517 63.56894344 21.86096664 62.88476562 23.13525391 C58.99052844 30.3758024 55.0273081 37.57227807 50.95117188 44.7121582 C47.37653308 51.01358264 44.16593597 57.48489061 41 64 C38.69 64 36.38 64 34 64 C35.30892184 59.74699145 36.93955 55.97434013 39.0546875 52.0625 C39.6643335 50.93005859 40.27397949 49.79761719 40.90209961 48.63085938 C41.22419403 48.03813232 41.54628845 47.44540527 41.87814331 46.8347168 C42.88645797 44.97891158 43.88831383 43.11973905 44.88891602 41.25976562 C48.10731077 35.28681337 51.36026171 29.33465939 54.66015625 23.40625 C55.21525879 22.40464844 55.77036133 21.40304687 56.34228516 20.37109375 C57.38500952 18.49438139 58.43517038 16.62177652 59.49365234 14.75390625 C60.19095459 13.49900391 60.19095459 13.49900391 60.90234375 12.21875 C61.30960693 11.49623047 61.71687012 10.77371094 62.13647461 10.02929688 C63.26103545 7.75412714 63.26103545 7.75412714 63 4 C41.88 3.34 20.76 2.68 -1 2 C-0.67 1.34 -0.34 0.68 0 0 Z " transform="translate(166,390)" style="fill: #EBEBEB;"/><path d="M0 0 C0.73863281 0.24105469 1.47726563 0.48210937 2.23828125 0.73046875 C3.17578125 2.79296875 3.17578125 2.79296875 3.23828125 5.73046875 C-2.17723392 13.399537 -11.63307739 18.95659225 -20.76171875 20.73046875 C-33.56122359 21.96090181 -41.98286656 19.18667168 -52.14453125 11.609375 C-53.76171875 9.73046875 -53.76171875 9.73046875 -54.12890625 7.1328125 C-53.76171875 4.73046875 -53.76171875 4.73046875 -51.76171875 2.73046875 C-48.35036834 3.08386446 -46.07512566 4.71801914 -43.32421875 6.66796875 C-36.24126072 11.68147122 -30.34845144 12.56767519 -21.76171875 11.73046875 C-14.55697619 10.07589124 -9.92349666 6.52617287 -4.8671875 1.2421875 C-2.76171875 -0.26953125 -2.76171875 -0.26953125 0 0 Z " transform="translate(221.76171875,189.26953125)" style="fill: #080808;"/><path d="M0 0 C3.6578218 2.03993908 5.66946174 3.50419262 8 7 C8.4606067 11.97455239 8.16781812 15.06753613 5 19 C2.3017982 21.11480682 0.44278066 21.92463308 -2.9375 22.5 C-7.25011712 21.79589925 -8.88856971 20.03907145 -12 17 C-13.61429923 13.77140153 -13.59570657 10.49006347 -13 7 C-9.78955153 1.40567374 -6.38167969 -0.61362305 0 0 Z " transform="translate(166,159)" style="fill: #060606;"/><path d="M0 0 C3.06471302 1.65023009 5.30778907 3.056076 7.375 5.875 C8.69601084 10.36643685 8.48383625 13.10144696 6.25 17.25 C3.25670518 20.90847144 1.71641956 21.81740217 -2.9375 22.3125 C-6.43355571 21.95575962 -8.20520785 21.09609412 -11 19 C-13.48239134 15.276413 -13.59530761 12.91116145 -13.51171875 8.51953125 C-12.75031753 4.77064737 -10.99047197 3.16503247 -7.93359375 1 C-4.99910036 -0.51763699 -3.23219103 -0.68770022 0 0 Z " transform="translate(225,155)" style="fill: #060606;"/><path d="M0 0 C0.67804687 0.33773438 1.35609375 0.67546875 2.0546875 1.0234375 C13.28212291 6.40389824 23.91724593 9.02758469 36 5 C35.67 6.65 35.34 8.3 35 10 C28.89870361 12.71168728 23.47008941 13.3266154 16.875 13.375 C16.1113916 13.38853516 15.3477832 13.40207031 14.56103516 13.41601562 C8.56289712 13.369287 3.40661022 12.40661022 -1 8 C-1.1875 4.4375 -1.1875 4.4375 -1 1 C-0.67 0.67 -0.34 0.34 0 0 Z " transform="translate(41,256)" style="fill: #F6F6F6;"/><path d="M0 0 C-0.88312038 1.13500694 -1.78218855 2.25761307 -2.6875 3.375 C-3.18636719 4.00148438 -3.68523437 4.62796875 -4.19921875 5.2734375 C-8.22459568 9.13290952 -12.61244977 9.3169445 -18 9.375 C-19.19625 9.40335937 -20.3925 9.43171875 -21.625 9.4609375 C-25.57806096 8.92105186 -27.23094316 7.8215011 -30 5 C-30 4.34 -30 3.68 -30 3 C-28.81664062 2.96261719 -27.63328125 2.92523438 -26.4140625 2.88671875 C-14.8727028 2.46165412 -14.8727028 2.46165412 -3.75 -0.4765625 C-2 -1 -2 -1 0 0 Z " transform="translate(80,274)" style="fill: #F0F0F0;"/><path d="M0 0 C2.67555523 2.67555523 3.00799083 4.08390374 3.375 7.9375 C3.24334167 11.64472145 2.31846144 14.03236935 0 17 C-0.33 17 -0.66 17 -1 17 C-1.09087891 15.96939453 -1.09087891 15.96939453 -1.18359375 14.91796875 C-1.26738281 14.01691406 -1.35117188 13.11585938 -1.4375 12.1875 C-1.51871094 11.29417969 -1.59992188 10.40085937 -1.68359375 9.48046875 C-1.93489767 6.87256441 -1.93489767 6.87256441 -3 4 C-1.5625 1.8125 -1.5625 1.8125 0 0 Z " transform="translate(86,250)" style="fill: #E3E3E3;"/></svg>