<?xml version="1.0" encoding="utf-8" ?>
<svg baseProfile="full" height="500" version="1.1" viewBox="0 0 500 500" width="500" xmlns="http://www.w3.org/2000/svg" xmlns:ev="http://www.w3.org/2001/xml-events" xmlns:xlink="http://www.w3.org/1999/xlink"><defs /><path d="M 64,125 L 63,126 L 61,126 L 60,127 L 59,127 L 58,128 L 58,129 L 55,132 L 51,128 L 50,128 L 49,127 L 48,127 L 47,126 L 43,126 L 42,127 L 41,127 L 40,128 L 39,128 L 38,129 L 37,129 L 34,132 L 34,133 L 33,134 L 33,135 L 32,136 L 32,142 L 33,143 L 33,144 L 34,145 L 34,146 L 35,147 L 35,148 L 33,150 L 32,150 L 31,151 L 30,151 L 26,155 L 26,157 L 25,158 L 25,164 L 26,165 L 26,167 L 27,168 L 27,169 L 29,171 L 29,172 L 31,174 L 31,175 L 34,178 L 34,179 L 38,183 L 38,184 L 41,187 L 41,188 L 45,192 L 45,193 L 49,197 L 49,198 L 76,225 L 76,226 L 81,231 L 82,231 L 83,232 L 83,233 L 87,237 L 87,238 L 96,247 L 96,248 L 98,250 L 99,250 L 106,257 L 106,258 L 108,260 L 108,261 L 109,262 L 108,263 L 106,263 L 105,262 L 102,262 L 101,261 L 97,261 L 96,260 L 91,260 L 90,259 L 86,259 L 85,258 L 82,258 L 81,257 L 74,257 L 73,256 L 71,256 L 70,257 L 63,257 L 62,258 L 60,258 L 59,259 L 57,259 L 56,260 L 55,260 L 54,261 L 53,261 L 51,263 L 50,263 L 45,268 L 45,269 L 44,270 L 44,271 L 43,272 L 43,280 L 46,283 L 48,283 L 49,284 L 55,284 L 56,283 L 71,283 L 72,284 L 74,284 L 75,285 L 77,285 L 78,286 L 81,286 L 82,287 L 85,287 L 86,288 L 89,288 L 90,289 L 93,289 L 94,290 L 96,290 L 97,291 L 99,291 L 100,292 L 101,292 L 102,293 L 103,293 L 104,294 L 106,294 L 107,295 L 108,295 L 109,296 L 110,296 L 111,297 L 114,297 L 115,298 L 117,298 L 118,299 L 123,299 L 124,300 L 137,300 L 138,301 L 157,301 L 158,302 L 176,302 L 180,306 L 181,306 L 185,310 L 186,310 L 191,315 L 192,315 L 193,316 L 193,317 L 191,319 L 190,319 L 188,321 L 187,321 L 185,323 L 184,323 L 182,325 L 181,325 L 179,327 L 178,327 L 176,329 L 175,329 L 173,331 L 172,331 L 170,333 L 169,333 L 168,334 L 167,334 L 165,336 L 164,336 L 161,339 L 160,339 L 159,340 L 158,340 L 156,342 L 155,342 L 152,345 L 151,345 L 149,347 L 148,347 L 146,349 L 145,349 L 142,352 L 141,352 L 138,355 L 137,355 L 131,361 L 130,361 L 130,364 L 131,365 L 134,365 L 135,364 L 135,363 L 137,361 L 138,361 L 142,357 L 143,357 L 146,354 L 147,354 L 150,351 L 151,351 L 153,349 L 154,349 L 156,347 L 157,347 L 159,345 L 160,345 L 162,343 L 163,343 L 165,341 L 166,341 L 168,339 L 169,339 L 171,337 L 172,337 L 173,336 L 174,336 L 176,334 L 177,334 L 179,332 L 180,332 L 182,330 L 183,330 L 185,328 L 186,328 L 188,326 L 189,326 L 191,324 L 192,324 L 194,322 L 195,322 L 197,320 L 199,320 L 205,326 L 206,326 L 212,332 L 213,332 L 220,339 L 221,339 L 228,346 L 229,346 L 237,354 L 238,354 L 247,363 L 248,363 L 254,369 L 248,375 L 247,375 L 223,399 L 223,400 L 212,411 L 211,411 L 201,421 L 200,421 L 194,427 L 193,427 L 189,431 L 188,431 L 186,433 L 184,433 L 184,437 L 185,438 L 187,438 L 188,437 L 189,437 L 193,433 L 194,433 L 199,428 L 200,428 L 206,422 L 207,422 L 254,375 L 255,375 L 257,373 L 263,379 L 264,379 L 285,400 L 285,401 L 298,414 L 299,414 L 300,415 L 300,416 L 301,416 L 309,424 L 310,424 L 316,430 L 317,430 L 321,434 L 322,434 L 325,437 L 328,437 L 329,436 L 329,434 L 327,432 L 326,432 L 322,428 L 321,428 L 316,423 L 315,423 L 308,416 L 307,416 L 285,394 L 285,393 L 273,381 L 272,381 L 259,368 L 259,367 L 258,367 L 257,366 L 256,366 L 246,356 L 245,356 L 237,348 L 236,348 L 228,340 L 227,340 L 220,333 L 219,333 L 212,326 L 211,326 L 205,320 L 204,320 L 198,314 L 197,314 L 192,309 L 191,309 L 186,304 L 185,304 L 181,300 L 180,300 L 178,298 L 169,298 L 168,297 L 147,297 L 146,296 L 129,296 L 128,295 L 121,295 L 120,294 L 117,294 L 116,293 L 114,293 L 113,292 L 111,292 L 110,291 L 109,291 L 108,290 L 107,290 L 106,289 L 104,289 L 103,288 L 102,288 L 101,287 L 99,287 L 98,286 L 96,286 L 95,285 L 93,285 L 92,284 L 89,284 L 88,283 L 84,283 L 83,282 L 80,282 L 79,281 L 77,281 L 76,280 L 74,280 L 73,279 L 68,279 L 67,278 L 66,278 L 65,277 L 65,274 L 62,271 L 53,271 L 52,272 L 51,272 L 49,274 L 48,273 L 48,272 L 54,266 L 55,266 L 57,264 L 59,264 L 60,263 L 61,263 L 62,262 L 65,262 L 66,261 L 78,261 L 79,262 L 83,262 L 84,263 L 87,263 L 88,264 L 93,264 L 94,265 L 98,265 L 99,266 L 103,266 L 104,267 L 111,267 L 112,266 L 114,266 L 115,265 L 115,263 L 114,262 L 114,261 L 112,259 L 112,258 L 111,257 L 111,256 L 108,253 L 108,252 L 104,248 L 103,248 L 94,239 L 94,238 L 89,233 L 89,232 L 65,208 L 65,207 L 51,193 L 51,192 L 47,188 L 47,187 L 43,183 L 43,182 L 40,179 L 40,178 L 36,174 L 36,173 L 34,171 L 34,170 L 31,167 L 31,166 L 32,165 L 35,168 L 39,168 L 40,167 L 41,167 L 42,166 L 43,166 L 44,165 L 44,164 L 46,162 L 53,169 L 53,170 L 60,177 L 60,178 L 73,191 L 74,191 L 79,196 L 80,196 L 83,199 L 84,199 L 88,203 L 89,203 L 102,216 L 104,216 L 105,215 L 105,214 L 103,212 L 103,211 L 94,202 L 93,202 L 89,198 L 88,198 L 85,195 L 84,195 L 80,191 L 79,191 L 74,186 L 73,186 L 67,180 L 67,179 L 59,171 L 59,170 L 52,163 L 52,162 L 46,156 L 46,155 L 42,151 L 42,150 L 41,149 L 41,148 L 39,146 L 39,145 L 40,144 L 42,146 L 45,146 L 46,145 L 47,145 L 48,144 L 49,144 L 52,141 L 52,140 L 53,139 L 54,139 L 55,140 L 55,141 L 61,147 L 62,147 L 70,155 L 71,155 L 77,161 L 78,161 L 109,192 L 110,192 L 112,194 L 113,194 L 115,196 L 116,196 L 118,198 L 119,198 L 120,199 L 121,199 L 122,200 L 124,200 L 124,197 L 123,196 L 122,196 L 120,194 L 119,194 L 118,193 L 117,193 L 115,191 L 114,191 L 109,186 L 108,186 L 102,180 L 102,179 L 101,179 L 98,176 L 98,175 L 97,175 L 95,173 L 95,172 L 94,172 L 93,171 L 93,170 L 86,163 L 85,163 L 78,156 L 77,156 L 70,149 L 69,149 L 67,147 L 67,146 L 68,145 L 69,145 L 70,144 L 71,144 L 73,142 L 73,141 L 74,140 L 74,138 L 73,137 L 73,136 L 72,135 L 73,134 L 74,134 L 76,136 L 77,136 L 79,138 L 80,138 L 82,140 L 83,140 L 87,144 L 88,144 L 92,148 L 93,148 L 96,151 L 97,151 L 101,155 L 102,155 L 107,160 L 108,160 L 113,165 L 114,165 L 134,185 L 135,185 L 138,188 L 141,188 L 142,187 L 142,186 L 141,185 L 141,184 L 138,181 L 138,180 L 133,175 L 133,174 L 126,167 L 126,166 L 111,151 L 110,151 L 105,146 L 104,146 L 102,144 L 103,143 L 104,143 L 105,144 L 108,144 L 111,141 L 112,141 L 112,138 L 113,137 L 114,137 L 116,139 L 117,139 L 119,141 L 120,141 L 123,144 L 124,144 L 127,147 L 128,147 L 131,150 L 132,150 L 141,159 L 142,159 L 162,179 L 163,179 L 195,211 L 195,212 L 202,219 L 202,220 L 206,224 L 206,225 L 210,229 L 210,230 L 213,233 L 213,234 L 215,236 L 215,237 L 218,240 L 218,241 L 220,243 L 220,244 L 221,245 L 221,246 L 223,248 L 223,249 L 225,251 L 225,252 L 229,256 L 229,257 L 231,259 L 232,259 L 239,266 L 240,266 L 244,270 L 245,270 L 249,274 L 250,274 L 253,277 L 254,277 L 257,280 L 258,280 L 261,283 L 262,283 L 264,285 L 265,285 L 267,287 L 268,287 L 270,289 L 271,289 L 273,291 L 274,291 L 277,294 L 278,294 L 280,296 L 281,296 L 283,298 L 284,298 L 286,300 L 287,300 L 289,302 L 290,302 L 292,304 L 293,304 L 295,306 L 296,306 L 298,308 L 299,308 L 301,310 L 302,310 L 305,313 L 306,313 L 308,315 L 309,315 L 311,317 L 312,317 L 314,319 L 315,319 L 317,321 L 318,321 L 320,323 L 321,323 L 323,325 L 324,325 L 326,327 L 327,327 L 329,329 L 330,329 L 332,331 L 333,331 L 335,333 L 336,333 L 338,335 L 339,335 L 341,337 L 342,337 L 343,338 L 344,338 L 346,340 L 347,340 L 349,342 L 350,342 L 352,344 L 353,344 L 355,346 L 356,346 L 358,348 L 359,348 L 362,351 L 363,351 L 365,353 L 366,353 L 369,356 L 370,356 L 374,360 L 375,360 L 379,364 L 379,365 L 381,365 L 383,363 L 383,361 L 381,359 L 380,359 L 375,354 L 374,354 L 371,351 L 370,351 L 367,348 L 366,348 L 364,346 L 363,346 L 360,343 L 359,343 L 357,341 L 356,341 L 354,339 L 353,339 L 351,337 L 350,337 L 349,336 L 348,336 L 346,334 L 345,334 L 343,332 L 342,332 L 340,330 L 339,330 L 338,329 L 337,329 L 335,327 L 334,327 L 331,324 L 330,324 L 329,323 L 328,323 L 325,320 L 324,320 L 322,318 L 321,318 L 320,317 L 320,316 L 322,314 L 323,314 L 326,311 L 327,311 L 330,308 L 331,308 L 333,306 L 334,306 L 336,304 L 337,304 L 338,303 L 358,303 L 359,302 L 377,302 L 378,301 L 390,301 L 391,300 L 396,300 L 397,299 L 399,299 L 400,298 L 402,298 L 403,297 L 405,297 L 406,296 L 407,296 L 408,295 L 409,295 L 410,294 L 412,294 L 413,293 L 414,293 L 415,292 L 417,292 L 418,291 L 420,291 L 421,290 L 424,290 L 425,289 L 428,289 L 429,288 L 433,288 L 434,287 L 436,287 L 437,286 L 439,286 L 440,285 L 443,285 L 444,284 L 452,284 L 453,285 L 466,285 L 470,281 L 470,273 L 469,272 L 469,271 L 467,269 L 467,268 L 465,266 L 464,266 L 461,263 L 460,263 L 459,262 L 458,262 L 457,261 L 456,261 L 455,260 L 453,260 L 452,259 L 449,259 L 448,258 L 433,258 L 432,259 L 429,259 L 428,260 L 424,260 L 423,261 L 418,261 L 417,262 L 413,262 L 412,263 L 409,263 L 408,264 L 405,264 L 404,263 L 405,262 L 405,261 L 407,259 L 407,258 L 412,253 L 413,253 L 421,245 L 421,244 L 427,238 L 427,237 L 451,213 L 451,212 L 452,211 L 453,211 L 453,210 L 454,209 L 455,209 L 455,208 L 456,207 L 457,207 L 460,204 L 460,203 L 466,197 L 466,196 L 470,192 L 470,191 L 474,187 L 474,186 L 477,183 L 477,182 L 480,179 L 480,178 L 483,175 L 483,174 L 485,172 L 485,171 L 487,169 L 487,167 L 488,166 L 488,159 L 487,158 L 487,156 L 483,152 L 482,152 L 481,151 L 480,151 L 478,149 L 479,148 L 479,147 L 480,146 L 480,145 L 481,144 L 481,136 L 479,134 L 479,133 L 476,130 L 475,130 L 473,128 L 471,128 L 470,127 L 466,127 L 465,128 L 464,128 L 462,130 L 461,130 L 461,131 L 459,133 L 458,133 L 456,131 L 456,130 L 454,128 L 453,128 L 452,127 L 445,127 L 444,128 L 443,128 L 442,129 L 441,129 L 440,130 L 439,130 L 438,131 L 437,131 L 435,133 L 434,133 L 433,134 L 432,134 L 429,137 L 428,137 L 424,141 L 423,141 L 420,144 L 419,144 L 418,143 L 418,136 L 413,131 L 411,131 L 410,130 L 404,130 L 403,131 L 402,131 L 401,132 L 400,132 L 399,133 L 398,133 L 396,135 L 395,135 L 392,138 L 391,138 L 389,140 L 388,140 L 385,143 L 384,143 L 381,146 L 380,146 L 375,151 L 374,151 L 360,165 L 359,165 L 343,181 L 342,181 L 318,205 L 318,206 L 309,215 L 309,216 L 305,220 L 305,221 L 300,226 L 300,227 L 297,230 L 297,231 L 295,233 L 295,234 L 292,237 L 292,238 L 291,239 L 291,240 L 288,243 L 288,244 L 287,245 L 287,246 L 285,248 L 285,249 L 274,260 L 273,260 L 270,263 L 269,263 L 265,267 L 264,267 L 260,271 L 259,271 L 257,273 L 256,273 L 255,272 L 254,272 L 250,268 L 249,268 L 245,264 L 244,264 L 239,259 L 238,259 L 230,251 L 230,250 L 227,247 L 227,246 L 226,245 L 226,244 L 224,242 L 224,241 L 222,239 L 222,238 L 220,236 L 220,235 L 218,233 L 218,232 L 215,229 L 215,228 L 212,225 L 212,224 L 208,220 L 208,219 L 203,214 L 203,213 L 196,206 L 196,205 L 195,205 L 194,204 L 194,203 L 173,182 L 172,182 L 152,162 L 151,162 L 136,147 L 135,147 L 132,144 L 131,144 L 128,141 L 127,141 L 125,139 L 124,139 L 121,136 L 120,136 L 118,134 L 117,134 L 115,132 L 114,132 L 112,130 L 110,130 L 109,129 L 103,129 L 102,130 L 101,130 L 100,131 L 99,131 L 96,134 L 96,135 L 95,136 L 95,141 L 96,142 L 96,143 L 95,144 L 93,142 L 92,142 L 88,138 L 87,138 L 84,135 L 83,135 L 81,133 L 80,133 L 78,131 L 77,131 L 76,130 L 75,130 L 74,129 L 73,129 L 72,128 L 71,128 L 70,127 L 69,127 L 68,126 L 65,126 Z" fill="#000000" stroke="none" /><path d="M 244,69 L 243,70 L 231,70 L 230,71 L 224,71 L 223,72 L 218,72 L 217,73 L 213,73 L 212,74 L 208,74 L 207,75 L 204,75 L 203,76 L 201,76 L 200,77 L 197,77 L 196,78 L 194,78 L 193,79 L 191,79 L 190,80 L 189,80 L 188,81 L 186,81 L 185,82 L 184,82 L 183,83 L 182,83 L 181,84 L 180,84 L 179,85 L 178,85 L 177,86 L 176,86 L 175,87 L 174,87 L 173,88 L 172,88 L 170,90 L 169,90 L 165,94 L 164,94 L 164,95 L 162,97 L 153,88 L 153,87 L 152,87 L 151,86 L 151,85 L 150,85 L 150,87 L 149,88 L 149,90 L 148,91 L 148,93 L 147,94 L 147,96 L 146,97 L 146,98 L 145,99 L 145,101 L 144,102 L 144,104 L 143,105 L 143,107 L 142,108 L 142,110 L 141,111 L 141,113 L 140,114 L 140,115 L 139,116 L 139,118 L 138,119 L 138,121 L 137,122 L 137,124 L 136,125 L 140,125 L 141,124 L 144,124 L 145,123 L 147,123 L 148,122 L 150,122 L 151,121 L 154,121 L 155,120 L 158,120 L 159,119 L 161,119 L 162,118 L 165,118 L 166,117 L 168,117 L 169,116 L 172,116 L 173,115 L 175,115 L 176,114 L 178,114 L 169,105 L 174,100 L 175,100 L 177,98 L 178,98 L 180,96 L 181,96 L 182,95 L 183,95 L 184,94 L 185,94 L 186,93 L 187,93 L 188,92 L 189,92 L 190,91 L 192,91 L 193,90 L 194,90 L 195,89 L 197,89 L 198,88 L 200,88 L 201,87 L 204,87 L 205,86 L 208,86 L 209,85 L 212,85 L 213,84 L 217,84 L 218,83 L 222,83 L 223,82 L 229,82 L 230,81 L 239,81 L 240,80 L 275,80 L 276,81 L 284,81 L 285,82 L 291,82 L 292,83 L 296,83 L 297,84 L 300,84 L 301,85 L 304,85 L 305,86 L 308,86 L 309,87 L 311,87 L 312,88 L 314,88 L 315,89 L 316,89 L 317,90 L 319,90 L 320,91 L 321,91 L 322,92 L 323,92 L 324,93 L 325,93 L 326,94 L 327,94 L 328,95 L 329,95 L 331,97 L 332,97 L 335,100 L 336,100 L 340,104 L 332,112 L 332,113 L 333,113 L 334,114 L 336,114 L 337,115 L 340,115 L 341,116 L 343,116 L 344,117 L 347,117 L 348,118 L 350,118 L 351,119 L 354,119 L 355,120 L 357,120 L 358,121 L 361,121 L 362,122 L 364,122 L 365,123 L 368,123 L 369,124 L 371,124 L 372,125 L 373,125 L 373,124 L 372,123 L 372,121 L 371,120 L 371,118 L 370,117 L 370,116 L 369,115 L 369,113 L 368,112 L 368,110 L 367,109 L 367,107 L 366,106 L 366,104 L 365,103 L 365,101 L 364,100 L 364,98 L 363,97 L 363,95 L 362,94 L 362,92 L 361,91 L 361,89 L 360,88 L 360,86 L 359,85 L 359,84 L 348,95 L 346,95 L 341,90 L 340,90 L 338,88 L 337,88 L 335,86 L 334,86 L 333,85 L 332,85 L 331,84 L 330,84 L 329,83 L 328,83 L 327,82 L 326,82 L 325,81 L 324,81 L 323,80 L 321,80 L 320,79 L 319,79 L 318,78 L 316,78 L 315,77 L 313,77 L 312,76 L 309,76 L 308,75 L 306,75 L 305,74 L 301,74 L 300,73 L 297,73 L 296,72 L 291,72 L 290,71 L 284,71 L 283,70 L 273,70 L 272,69 Z" fill="#000000" stroke="none" /><path d="M 197,322 L 195,324 L 194,324 L 192,326 L 191,326 L 189,328 L 188,328 L 186,330 L 185,330 L 183,332 L 182,332 L 180,334 L 179,334 L 177,336 L 176,336 L 174,338 L 173,338 L 171,340 L 170,340 L 169,341 L 168,341 L 166,343 L 165,343 L 163,345 L 162,345 L 160,347 L 159,347 L 157,349 L 156,349 L 153,352 L 152,352 L 150,354 L 149,354 L 146,357 L 145,357 L 142,360 L 141,360 L 137,364 L 136,364 L 137,365 L 137,366 L 139,368 L 139,369 L 142,372 L 142,373 L 144,375 L 144,376 L 147,379 L 147,380 L 150,383 L 150,384 L 152,386 L 153,386 L 154,387 L 153,388 L 156,391 L 156,392 L 158,394 L 158,395 L 160,397 L 160,398 L 163,401 L 163,402 L 166,405 L 166,406 L 168,408 L 169,408 L 170,409 L 169,410 L 171,412 L 171,413 L 174,416 L 174,417 L 176,419 L 176,420 L 179,423 L 179,424 L 182,427 L 182,428 L 184,430 L 185,430 L 186,431 L 185,432 L 189,428 L 190,428 L 195,423 L 196,423 L 202,417 L 203,417 L 251,369 L 240,358 L 239,358 L 232,351 L 231,351 L 223,343 L 222,343 L 215,336 L 214,336 L 208,330 L 207,330 L 201,324 L 200,324 L 198,322 Z" fill="#f0d8d8" stroke="none" /><path d="M 438,138 L 437,139 L 436,139 L 433,142 L 432,142 L 429,145 L 428,145 L 424,149 L 423,149 L 419,153 L 418,153 L 414,157 L 413,157 L 409,161 L 408,161 L 404,165 L 403,165 L 385,183 L 384,183 L 378,189 L 377,189 L 375,191 L 372,191 L 370,189 L 370,185 L 372,183 L 372,182 L 377,177 L 377,176 L 384,169 L 384,168 L 403,149 L 404,149 L 406,147 L 405,147 L 404,146 L 403,146 L 399,142 L 399,141 L 398,141 L 396,143 L 395,143 L 392,146 L 391,146 L 389,148 L 388,148 L 385,151 L 384,151 L 380,155 L 379,155 L 362,172 L 361,172 L 346,187 L 345,187 L 322,210 L 322,211 L 315,218 L 315,219 L 309,225 L 309,226 L 306,229 L 306,230 L 303,233 L 303,234 L 300,237 L 300,238 L 297,241 L 297,242 L 295,244 L 295,245 L 294,246 L 294,247 L 292,249 L 292,250 L 290,252 L 290,253 L 279,264 L 278,264 L 273,269 L 272,269 L 269,272 L 268,272 L 264,276 L 263,276 L 263,277 L 265,279 L 266,279 L 268,281 L 269,281 L 271,283 L 272,283 L 274,285 L 275,285 L 277,287 L 278,287 L 281,290 L 282,290 L 284,292 L 285,292 L 287,294 L 288,294 L 290,296 L 291,296 L 293,298 L 294,298 L 296,300 L 297,300 L 299,302 L 300,302 L 302,304 L 303,304 L 305,306 L 306,306 L 309,309 L 310,309 L 312,311 L 313,311 L 314,312 L 315,312 L 318,309 L 319,309 L 322,306 L 323,306 L 326,303 L 327,303 L 329,301 L 330,301 L 333,298 L 334,298 L 335,297 L 350,297 L 351,296 L 371,296 L 372,295 L 387,295 L 388,294 L 393,294 L 394,293 L 397,293 L 398,292 L 400,292 L 401,291 L 402,291 L 403,290 L 405,290 L 406,289 L 407,289 L 408,288 L 409,288 L 410,287 L 412,287 L 413,286 L 415,286 L 416,285 L 418,285 L 419,284 L 422,284 L 423,283 L 426,283 L 427,282 L 430,282 L 431,281 L 434,281 L 435,280 L 437,280 L 438,279 L 441,279 L 442,278 L 446,278 L 446,275 L 450,271 L 451,271 L 452,270 L 457,270 L 458,271 L 459,270 L 460,270 L 461,271 L 460,270 L 459,270 L 457,268 L 456,268 L 455,267 L 454,267 L 453,266 L 451,266 L 450,265 L 447,265 L 446,264 L 436,264 L 435,265 L 431,265 L 430,266 L 426,266 L 425,267 L 420,267 L 419,268 L 415,268 L 414,269 L 411,269 L 410,270 L 402,270 L 401,269 L 399,269 L 396,266 L 396,264 L 397,263 L 397,262 L 399,260 L 399,259 L 400,258 L 400,257 L 403,254 L 403,253 L 409,247 L 410,247 L 415,242 L 415,241 L 422,234 L 422,233 L 445,210 L 445,209 L 446,208 L 447,208 L 448,207 L 448,206 L 461,193 L 461,192 L 465,188 L 465,187 L 469,183 L 469,182 L 472,179 L 472,178 L 475,175 L 475,174 L 478,171 L 473,171 L 472,170 L 471,170 L 467,166 L 461,172 L 461,173 L 453,181 L 453,182 L 443,192 L 442,192 L 437,197 L 436,197 L 432,201 L 431,201 L 427,205 L 426,205 L 423,208 L 422,208 L 416,214 L 416,215 L 412,219 L 411,219 L 410,220 L 409,219 L 408,219 L 406,217 L 406,215 L 409,212 L 409,211 L 418,202 L 419,202 L 423,198 L 424,198 L 428,194 L 429,194 L 433,190 L 434,190 L 438,186 L 439,186 L 445,180 L 445,179 L 453,171 L 453,170 L 460,163 L 460,162 L 467,155 L 467,154 L 469,152 L 469,151 L 471,149 L 467,149 L 466,148 L 465,148 L 460,143 L 459,143 L 459,144 L 453,150 L 452,150 L 444,158 L 443,158 L 436,165 L 435,165 L 405,195 L 404,195 L 402,197 L 401,197 L 399,199 L 398,199 L 397,200 L 396,200 L 394,202 L 393,202 L 392,203 L 389,203 L 387,201 L 387,198 L 390,195 L 391,195 L 392,194 L 393,194 L 395,192 L 396,192 L 398,190 L 399,190 L 401,188 L 402,188 L 433,157 L 434,157 L 440,151 L 441,151 L 444,148 L 443,148 L 438,143 L 438,141 L 437,140 L 438,139 Z" fill="#f0d8d8" stroke="none" /><path d="M 75,137 L 76,138 L 76,140 L 75,141 L 75,142 L 71,146 L 70,146 L 70,147 L 74,151 L 75,151 L 83,159 L 84,159 L 113,188 L 114,188 L 116,190 L 117,190 L 119,192 L 120,192 L 122,194 L 123,194 L 126,197 L 126,200 L 124,202 L 121,202 L 119,200 L 118,200 L 116,198 L 115,198 L 114,197 L 113,197 L 111,195 L 110,195 L 81,166 L 80,166 L 72,158 L 71,158 L 65,152 L 64,152 L 54,142 L 53,142 L 49,146 L 48,146 L 47,147 L 46,147 L 45,148 L 43,148 L 43,149 L 45,151 L 45,152 L 50,157 L 50,158 L 56,164 L 56,165 L 63,172 L 63,173 L 77,187 L 78,187 L 83,192 L 84,192 L 88,196 L 89,196 L 92,199 L 93,199 L 106,212 L 106,213 L 107,214 L 107,215 L 106,216 L 106,217 L 105,218 L 101,218 L 99,216 L 99,215 L 90,206 L 89,206 L 85,202 L 84,202 L 80,198 L 79,198 L 75,194 L 74,194 L 69,189 L 68,189 L 64,185 L 64,184 L 56,176 L 56,175 L 49,168 L 49,167 L 47,165 L 46,165 L 43,168 L 42,168 L 41,169 L 40,169 L 39,170 L 36,170 L 36,171 L 39,174 L 39,175 L 42,178 L 42,179 L 46,183 L 46,184 L 50,188 L 50,189 L 54,193 L 54,194 L 88,228 L 88,229 L 92,233 L 92,234 L 111,253 L 111,254 L 113,256 L 113,257 L 115,259 L 115,260 L 116,261 L 116,262 L 117,263 L 117,265 L 114,268 L 111,268 L 110,269 L 104,269 L 103,268 L 100,268 L 99,267 L 95,267 L 94,266 L 89,266 L 88,265 L 84,265 L 83,264 L 80,264 L 79,263 L 66,263 L 65,264 L 62,264 L 61,265 L 59,265 L 58,266 L 57,266 L 55,268 L 54,268 L 52,270 L 53,270 L 54,269 L 62,269 L 63,270 L 64,270 L 66,272 L 66,273 L 67,274 L 67,277 L 73,277 L 74,278 L 76,278 L 77,279 L 79,279 L 80,280 L 83,280 L 84,281 L 87,281 L 88,282 L 91,282 L 92,283 L 95,283 L 96,284 L 98,284 L 99,285 L 101,285 L 102,286 L 103,286 L 104,287 L 106,287 L 107,288 L 108,288 L 109,289 L 110,289 L 111,290 L 113,290 L 114,291 L 116,291 L 117,292 L 120,292 L 121,293 L 126,293 L 127,294 L 144,294 L 145,295 L 165,295 L 166,296 L 178,296 L 179,297 L 180,297 L 184,301 L 185,301 L 190,306 L 191,306 L 196,311 L 197,311 L 200,314 L 201,314 L 202,315 L 202,316 L 203,317 L 204,317 L 210,323 L 211,323 L 217,329 L 218,329 L 225,336 L 226,336 L 233,343 L 234,343 L 242,351 L 243,351 L 253,361 L 254,361 L 258,365 L 259,365 L 261,367 L 261,368 L 265,372 L 266,372 L 291,397 L 291,398 L 302,409 L 303,409 L 313,419 L 314,419 L 319,424 L 320,424 L 325,429 L 326,429 L 329,432 L 330,432 L 330,431 L 333,428 L 333,427 L 336,424 L 336,423 L 338,421 L 338,420 L 341,417 L 341,416 L 343,414 L 342,413 L 343,412 L 344,412 L 346,410 L 346,409 L 349,406 L 349,405 L 351,403 L 351,402 L 354,399 L 354,398 L 356,396 L 355,395 L 356,394 L 357,394 L 359,392 L 359,391 L 361,389 L 360,388 L 361,387 L 362,387 L 364,385 L 364,384 L 367,381 L 367,380 L 369,378 L 368,377 L 369,376 L 370,376 L 372,374 L 372,373 L 375,370 L 375,369 L 377,367 L 377,366 L 378,365 L 377,364 L 376,364 L 371,359 L 370,359 L 367,356 L 366,356 L 363,353 L 362,353 L 360,351 L 359,351 L 357,349 L 356,349 L 354,347 L 353,347 L 351,345 L 350,345 L 348,343 L 347,343 L 345,341 L 344,341 L 342,339 L 341,339 L 339,337 L 338,337 L 336,335 L 335,335 L 333,333 L 332,333 L 330,331 L 329,331 L 327,329 L 326,329 L 324,327 L 323,327 L 321,325 L 320,325 L 318,323 L 317,323 L 315,321 L 314,321 L 312,319 L 311,319 L 309,317 L 308,317 L 306,315 L 305,315 L 303,313 L 302,313 L 300,311 L 299,311 L 297,309 L 296,309 L 294,307 L 293,307 L 290,304 L 289,304 L 287,302 L 286,302 L 284,300 L 283,300 L 281,298 L 280,298 L 278,296 L 277,296 L 275,294 L 274,294 L 272,292 L 271,292 L 269,290 L 268,290 L 266,288 L 265,288 L 262,285 L 261,285 L 259,283 L 258,283 L 255,280 L 254,280 L 251,277 L 250,277 L 246,273 L 245,273 L 241,269 L 240,269 L 235,264 L 234,264 L 225,255 L 225,254 L 222,251 L 222,250 L 221,249 L 221,248 L 219,246 L 219,245 L 217,243 L 217,242 L 215,240 L 215,239 L 213,237 L 213,236 L 210,233 L 210,232 L 207,229 L 207,228 L 203,224 L 203,223 L 198,218 L 198,217 L 190,209 L 190,208 L 168,186 L 167,186 L 150,169 L 149,169 L 132,152 L 131,152 L 128,149 L 127,149 L 125,147 L 124,147 L 121,144 L 120,144 L 117,141 L 116,141 L 114,139 L 114,141 L 110,145 L 109,145 L 108,146 L 107,146 L 108,147 L 109,147 L 118,156 L 119,156 L 125,162 L 125,163 L 129,167 L 129,168 L 136,175 L 136,176 L 141,181 L 141,182 L 143,184 L 143,185 L 144,186 L 144,187 L 143,188 L 143,189 L 142,190 L 138,190 L 136,188 L 135,188 L 129,182 L 128,182 L 109,163 L 108,163 L 103,158 L 102,158 L 98,154 L 97,154 L 94,151 L 93,151 L 89,147 L 88,147 L 84,143 L 83,143 L 80,140 L 79,140 L 77,138 L 76,138 Z" fill="#f0d8d8" stroke="none" /><path d="M 452,275 L 451,276 L 451,277 L 450,278 L 458,278 L 459,279 L 462,279 L 462,277 L 461,276 L 460,276 L 459,275 Z" fill="#f0f0f0" stroke="none" /><path d="M 53,274 L 52,275 L 51,275 L 51,277 L 63,277 L 62,276 L 62,275 L 61,274 Z" fill="#f0f0f0" stroke="none" /><path d="M 477,156 L 475,158 L 475,159 L 471,163 L 471,164 L 472,165 L 473,165 L 474,166 L 475,166 L 476,167 L 477,167 L 480,164 L 480,163 L 481,162 L 481,161 L 482,160 L 479,157 L 478,157 Z" fill="#f0f0f0" stroke="none" /><path d="M 36,155 L 35,156 L 34,156 L 32,158 L 32,160 L 33,161 L 33,162 L 34,163 L 34,164 L 35,165 L 39,165 L 40,164 L 41,164 L 42,163 L 42,161 Z" fill="#f0f0f0" stroke="none" /><path d="M 409,136 L 407,138 L 406,138 L 404,140 L 404,141 L 405,141 L 407,143 L 411,139 L 411,138 Z" fill="#f0f0f0" stroke="none" /><path d="M 105,135 L 104,136 L 103,136 L 102,137 L 102,138 L 105,141 L 107,141 L 108,140 L 109,140 L 109,139 Z" fill="#f0f0f0" stroke="none" /><path d="M 469,134 L 464,139 L 464,141 L 466,143 L 467,143 L 468,144 L 471,144 L 474,141 L 474,140 L 475,139 L 475,138 L 471,134 Z" fill="#f0f0f0" stroke="none" /><path d="M 450,133 L 449,134 L 448,134 L 445,137 L 444,137 L 443,138 L 443,139 L 442,140 L 442,141 L 444,143 L 445,143 L 446,144 L 447,144 L 449,142 L 450,142 L 453,139 L 453,138 L 452,137 L 452,136 L 451,135 L 451,134 Z" fill="#f0f0f0" stroke="none" /><path d="M 43,133 L 42,134 L 41,134 L 39,136 L 39,139 L 40,140 L 40,141 L 42,143 L 45,143 L 46,142 L 47,142 L 50,139 L 49,138 L 49,137 L 45,133 Z" fill="#f0f0f0" stroke="none" /><path d="M 63,132 L 62,133 L 62,134 L 61,135 L 61,136 L 60,137 L 65,142 L 69,142 L 71,140 L 71,138 L 67,134 L 66,134 L 64,132 Z" fill="#f0f0f0" stroke="none" /></svg>