<?xml version="1.0" encoding="utf-8" ?>
<svg baseProfile="full" height="500" version="1.1" viewBox="0 0 500 500" width="500" xmlns="http://www.w3.org/2000/svg" xmlns:ev="http://www.w3.org/2001/xml-events" xmlns:xlink="http://www.w3.org/1999/xlink"><defs /><path d="M 86,30 L 85,31 L 83,31 L 82,32 L 81,32 L 79,34 L 79,35 L 78,36 L 78,37 L 77,38 L 77,66 L 76,67 L 51,67 L 50,68 L 49,68 L 48,69 L 46,69 L 46,70 L 42,74 L 42,75 L 41,76 L 41,78 L 40,79 L 40,213 L 39,214 L 24,214 L 23,215 L 21,215 L 20,216 L 19,216 L 17,218 L 16,218 L 13,221 L 13,222 L 12,223 L 12,224 L 11,225 L 11,226 L 10,227 L 10,231 L 9,232 L 9,288 L 10,289 L 10,292 L 11,293 L 11,295 L 12,296 L 12,297 L 17,302 L 18,302 L 20,304 L 22,304 L 24,306 L 25,305 L 39,305 L 40,306 L 40,460 L 41,461 L 41,463 L 42,464 L 41,465 L 42,465 L 44,467 L 44,468 L 45,469 L 46,469 L 47,470 L 48,470 L 49,471 L 50,471 L 51,472 L 447,472 L 448,471 L 450,471 L 453,468 L 455,468 L 454,467 L 456,465 L 456,464 L 457,463 L 457,462 L 459,460 L 458,459 L 458,306 L 459,305 L 472,305 L 473,306 L 474,305 L 475,305 L 476,304 L 479,304 L 483,300 L 484,300 L 484,299 L 485,298 L 486,298 L 486,297 L 487,296 L 487,295 L 488,294 L 488,292 L 489,291 L 489,228 L 488,227 L 488,225 L 487,224 L 487,223 L 485,221 L 485,220 L 484,219 L 483,219 L 480,216 L 479,216 L 478,215 L 476,215 L 475,214 L 459,214 L 458,213 L 458,81 L 459,80 L 457,78 L 457,76 L 456,75 L 456,74 L 451,69 L 450,69 L 449,68 L 448,68 L 447,67 L 424,67 L 423,66 L 423,39 L 422,38 L 422,36 L 420,34 L 420,33 L 419,33 L 417,31 L 415,31 L 414,30 L 410,30 L 409,31 L 408,31 L 407,32 L 406,32 L 403,35 L 403,36 L 402,37 L 402,66 L 401,67 L 319,67 L 318,66 L 318,37 L 317,36 L 317,35 L 314,32 L 313,32 L 312,31 L 311,31 L 310,30 L 306,30 L 305,31 L 303,31 L 302,32 L 301,32 L 299,34 L 299,35 L 298,36 L 298,37 L 297,38 L 297,66 L 296,67 L 206,67 L 204,65 L 205,64 L 204,63 L 205,62 L 204,61 L 205,60 L 204,59 L 205,58 L 204,57 L 205,56 L 204,55 L 205,54 L 204,53 L 205,52 L 204,51 L 205,50 L 204,49 L 205,48 L 204,47 L 205,46 L 204,45 L 205,44 L 204,43 L 205,42 L 204,41 L 204,40 L 203,39 L 203,36 L 201,34 L 201,33 L 200,33 L 198,31 L 196,31 L 195,30 L 191,30 L 190,31 L 188,31 L 184,35 L 183,35 L 184,36 L 183,37 L 183,66 L 182,67 L 99,67 L 98,66 L 98,37 L 97,36 L 97,35 L 94,32 L 93,32 L 92,31 L 91,31 L 90,30 Z" fill="#000000" stroke="none" /><path d="M 55,75 L 54,76 L 52,76 L 49,79 L 49,151 L 449,151 L 449,79 L 446,76 L 444,76 L 443,75 L 424,75 L 424,86 L 423,87 L 423,89 L 421,91 L 421,92 L 420,93 L 419,93 L 417,95 L 415,95 L 414,96 L 411,96 L 410,95 L 408,95 L 407,94 L 406,94 L 402,90 L 402,89 L 401,88 L 401,75 L 319,75 L 319,88 L 318,89 L 318,90 L 314,94 L 313,94 L 312,95 L 311,95 L 310,96 L 306,96 L 305,95 L 303,95 L 301,93 L 300,93 L 299,92 L 299,91 L 297,89 L 297,87 L 296,86 L 296,75 L 205,75 L 205,85 L 204,86 L 204,89 L 198,95 L 196,95 L 195,96 L 192,96 L 191,95 L 189,95 L 188,94 L 187,94 L 183,90 L 183,89 L 182,88 L 182,75 L 99,75 L 99,88 L 98,89 L 98,90 L 94,94 L 93,94 L 92,95 L 90,95 L 89,96 L 86,96 L 85,95 L 83,95 L 81,93 L 80,93 L 79,92 L 79,91 L 77,89 L 77,87 L 76,86 L 76,75 Z" fill="#0090f0" stroke="none" /><path d="M 237,240 L 236,241 L 235,241 L 233,243 L 233,244 L 232,245 L 232,274 L 233,275 L 233,276 L 236,279 L 238,279 L 239,280 L 265,280 L 266,279 L 269,279 L 270,278 L 271,278 L 273,276 L 273,275 L 274,274 L 274,272 L 275,271 L 275,248 L 274,247 L 274,245 L 273,244 L 273,243 L 271,241 L 270,241 L 269,240 Z" fill="#d81818" stroke="none" /><path d="M 286,193 L 285,194 L 283,194 L 282,195 L 281,194 L 280,194 L 279,195 L 277,195 L 276,196 L 275,196 L 274,197 L 273,197 L 271,199 L 270,199 L 266,203 L 265,203 L 260,208 L 260,209 L 256,213 L 256,214 L 253,217 L 253,218 L 251,220 L 251,221 L 249,223 L 249,228 L 251,230 L 256,230 L 258,228 L 258,227 L 260,225 L 260,223 L 261,222 L 262,222 L 262,221 L 265,218 L 265,217 L 275,207 L 276,207 L 278,205 L 279,205 L 280,204 L 282,204 L 283,203 L 289,203 L 290,204 L 292,204 L 293,205 L 294,205 L 302,213 L 302,214 L 304,216 L 304,217 L 305,218 L 305,219 L 307,221 L 307,223 L 306,224 L 305,224 L 304,225 L 302,225 L 301,226 L 300,226 L 299,227 L 298,227 L 297,228 L 294,228 L 293,229 L 291,229 L 290,230 L 288,230 L 287,231 L 288,231 L 291,234 L 292,234 L 294,236 L 294,237 L 292,239 L 292,240 L 291,241 L 291,242 L 290,243 L 290,247 L 289,248 L 289,272 L 290,273 L 290,276 L 291,277 L 291,278 L 292,279 L 292,280 L 294,282 L 294,283 L 295,283 L 297,285 L 298,285 L 299,286 L 300,286 L 301,287 L 305,287 L 306,288 L 332,288 L 333,287 L 337,287 L 338,286 L 339,286 L 340,285 L 341,285 L 345,281 L 345,280 L 346,279 L 346,278 L 347,277 L 347,276 L 348,275 L 348,244 L 347,243 L 347,242 L 346,241 L 346,240 L 345,239 L 345,238 L 342,235 L 341,235 L 339,233 L 338,233 L 337,232 L 332,232 L 331,231 L 331,228 L 332,227 L 332,224 L 333,223 L 333,220 L 334,219 L 334,216 L 335,215 L 335,214 L 333,214 L 332,215 L 330,215 L 329,216 L 328,216 L 327,217 L 325,217 L 324,218 L 322,218 L 321,219 L 319,219 L 318,220 L 317,220 L 316,219 L 316,218 L 315,217 L 315,216 L 314,215 L 314,214 L 312,212 L 312,211 L 310,209 L 310,208 L 305,203 L 305,202 L 303,200 L 302,200 L 300,198 L 299,198 L 297,196 L 296,196 L 295,195 L 293,195 L 292,194 L 287,194 Z" fill="#d81818" stroke="none" /><path d="M 49,306 L 49,460 L 52,463 L 53,463 L 54,464 L 444,464 L 445,463 L 446,463 L 449,460 L 449,306 Z" fill="#f0f0f0" stroke="none" /><path d="M 330,240 L 330,242 L 329,243 L 329,245 L 328,246 L 328,249 L 327,250 L 327,253 L 326,254 L 326,257 L 325,258 L 325,259 L 324,260 L 322,258 L 321,258 L 319,256 L 318,256 L 315,253 L 314,253 L 311,250 L 310,250 L 307,247 L 306,247 L 304,245 L 303,245 L 300,242 L 298,244 L 298,246 L 297,247 L 297,272 L 298,273 L 298,275 L 302,279 L 304,279 L 305,280 L 332,280 L 333,279 L 335,279 L 336,278 L 337,278 L 339,276 L 339,275 L 340,274 L 340,245 L 338,243 L 338,242 L 337,241 L 336,241 L 335,240 Z" fill="#f0f0f0" stroke="none" /><path d="M 26,224 L 25,225 L 24,225 L 23,226 L 22,226 L 21,227 L 21,228 L 20,229 L 20,231 L 19,232 L 19,287 L 20,288 L 20,290 L 21,291 L 21,292 L 23,294 L 24,294 L 25,295 L 473,295 L 474,294 L 475,294 L 477,292 L 477,291 L 478,290 L 478,288 L 479,287 L 479,233 L 478,232 L 478,229 L 474,225 L 473,225 L 472,224 L 334,224 L 334,226 L 333,227 L 333,230 L 336,230 L 337,231 L 339,231 L 340,232 L 341,232 L 347,238 L 347,239 L 348,240 L 348,241 L 349,242 L 349,244 L 350,245 L 350,274 L 349,275 L 349,277 L 348,278 L 348,279 L 347,280 L 347,281 L 341,287 L 340,287 L 339,288 L 337,288 L 336,289 L 301,289 L 300,288 L 299,288 L 298,287 L 297,287 L 296,286 L 295,286 L 291,282 L 291,281 L 290,280 L 290,279 L 289,278 L 289,277 L 288,276 L 288,271 L 287,270 L 287,269 L 288,268 L 287,267 L 288,266 L 287,265 L 287,263 L 288,262 L 287,261 L 288,260 L 287,259 L 287,257 L 288,256 L 287,255 L 288,254 L 287,253 L 287,249 L 288,248 L 288,243 L 289,242 L 289,241 L 290,240 L 290,239 L 292,237 L 292,236 L 291,236 L 289,234 L 288,234 L 285,231 L 285,230 L 286,229 L 288,229 L 289,228 L 291,228 L 292,227 L 293,227 L 294,226 L 296,226 L 297,225 L 299,225 L 300,224 L 302,224 L 262,224 L 262,225 L 260,227 L 260,228 L 258,230 L 271,230 L 272,231 L 273,231 L 274,232 L 275,232 L 277,234 L 278,234 L 280,236 L 280,237 L 282,239 L 282,240 L 283,241 L 283,242 L 284,243 L 284,276 L 283,277 L 283,278 L 282,279 L 282,280 L 280,282 L 280,283 L 278,285 L 277,285 L 275,287 L 274,287 L 273,288 L 271,288 L 270,289 L 235,289 L 234,288 L 232,288 L 229,285 L 228,285 L 226,283 L 226,282 L 224,280 L 224,279 L 223,278 L 223,276 L 222,275 L 222,244 L 223,243 L 223,241 L 225,239 L 225,238 L 231,232 L 232,232 L 233,231 L 235,231 L 236,230 L 249,230 L 247,228 L 247,224 Z" fill="#f0f0f0" stroke="none" /><path d="M 280,206 L 279,207 L 278,207 L 276,209 L 275,209 L 271,213 L 299,213 L 299,212 L 297,210 L 289,210 L 288,209 L 285,209 L 284,208 L 283,208 L 281,206 Z" fill="#f0f0f0" stroke="none" /><path d="M 289,170 L 288,171 L 286,171 L 283,174 L 283,175 L 282,176 L 282,192 L 292,192 L 293,193 L 295,193 L 296,194 L 297,194 L 298,195 L 299,195 L 301,197 L 302,197 L 308,203 L 314,203 L 315,202 L 316,202 L 318,200 L 318,199 L 319,198 L 319,176 L 318,175 L 318,174 L 315,171 L 314,171 L 313,170 Z" fill="#f0f0f0" stroke="none" /><path d="M 49,161 L 49,213 L 254,213 L 258,209 L 258,208 L 267,199 L 268,199 L 271,196 L 272,196 L 273,195 L 274,195 L 275,194 L 276,194 L 276,174 L 277,173 L 277,172 L 278,171 L 278,170 L 282,166 L 283,166 L 284,165 L 286,165 L 287,164 L 314,164 L 315,165 L 317,165 L 318,166 L 319,166 L 323,170 L 323,171 L 324,172 L 324,173 L 325,174 L 325,200 L 324,201 L 324,202 L 318,208 L 317,208 L 316,209 L 313,209 L 313,210 L 314,211 L 314,212 L 315,213 L 333,213 L 334,212 L 336,212 L 337,213 L 449,213 L 449,161 Z" fill="#f0f0f0" stroke="none" /><path d="M 71,128 L 70,129 L 69,129 L 67,131 L 67,132 L 66,133 L 66,134 L 67,135 L 67,137 L 68,138 L 69,138 L 70,139 L 166,139 L 167,138 L 168,138 L 170,136 L 170,131 L 168,129 L 167,129 L 166,128 Z" fill="#f0f0f0" stroke="none" /><path d="M 70,107 L 67,110 L 67,111 L 66,112 L 66,113 L 67,114 L 67,116 L 69,118 L 70,118 L 71,119 L 269,119 L 270,118 L 271,118 L 273,116 L 273,114 L 274,113 L 273,112 L 273,110 L 270,107 Z" fill="#f0f0f0" stroke="none" /></svg>