<?xml version="1.0" encoding="utf-8" ?>
<svg baseProfile="full" height="500" version="1.1" viewBox="0 0 500 500" width="500" xmlns="http://www.w3.org/2000/svg" xmlns:ev="http://www.w3.org/2001/xml-events" xmlns:xlink="http://www.w3.org/1999/xlink"><defs /><path d="M 200,7 L 199,8 L 196,8 L 195,9 L 193,9 L 192,10 L 191,10 L 190,11 L 189,11 L 188,12 L 187,12 L 186,13 L 185,13 L 183,15 L 182,15 L 173,24 L 173,25 L 171,27 L 171,28 L 170,29 L 170,30 L 169,31 L 169,32 L 168,33 L 168,34 L 167,35 L 167,37 L 166,38 L 166,42 L 165,43 L 165,57 L 166,58 L 166,62 L 167,63 L 167,65 L 168,66 L 168,67 L 169,68 L 169,69 L 170,70 L 170,71 L 171,72 L 171,73 L 173,75 L 173,76 L 182,85 L 183,85 L 185,87 L 186,87 L 187,88 L 188,88 L 189,89 L 190,89 L 191,90 L 191,91 L 189,93 L 188,93 L 187,94 L 186,94 L 185,95 L 184,95 L 182,97 L 181,97 L 180,98 L 179,98 L 177,100 L 176,100 L 175,101 L 174,101 L 173,102 L 172,102 L 171,103 L 170,103 L 168,105 L 167,105 L 166,106 L 165,106 L 163,108 L 162,108 L 161,109 L 160,109 L 160,118 L 159,119 L 159,125 L 158,126 L 158,132 L 157,133 L 157,139 L 156,140 L 156,146 L 155,147 L 155,154 L 154,155 L 154,162 L 153,163 L 153,170 L 152,171 L 152,178 L 151,179 L 151,186 L 150,187 L 150,194 L 149,195 L 149,202 L 148,203 L 148,210 L 147,211 L 147,219 L 146,220 L 146,227 L 145,228 L 145,235 L 144,236 L 144,244 L 143,245 L 143,249 L 144,250 L 144,252 L 143,253 L 143,254 L 142,255 L 142,260 L 141,261 L 141,263 L 142,264 L 142,270 L 143,271 L 143,273 L 144,274 L 144,275 L 145,276 L 145,277 L 147,279 L 147,280 L 148,280 L 149,281 L 153,281 L 154,280 L 155,280 L 157,278 L 157,277 L 158,276 L 158,275 L 159,274 L 159,270 L 160,269 L 160,260 L 161,259 L 161,257 L 160,256 L 160,247 L 159,246 L 159,244 L 160,243 L 160,237 L 161,236 L 161,231 L 162,230 L 162,224 L 163,223 L 163,217 L 164,216 L 164,210 L 165,209 L 165,203 L 166,202 L 166,197 L 167,196 L 168,197 L 168,248 L 171,251 L 186,251 L 187,252 L 187,258 L 186,259 L 186,266 L 185,267 L 185,277 L 184,278 L 184,288 L 183,289 L 183,299 L 182,300 L 182,310 L 181,311 L 181,322 L 180,323 L 180,333 L 179,334 L 179,344 L 178,345 L 178,355 L 177,356 L 177,393 L 178,394 L 178,442 L 179,443 L 179,452 L 170,461 L 170,462 L 168,464 L 168,465 L 167,466 L 167,471 L 168,472 L 168,473 L 169,474 L 169,475 L 171,477 L 172,477 L 173,478 L 181,478 L 182,477 L 183,477 L 187,473 L 187,472 L 197,462 L 197,461 L 198,460 L 198,411 L 197,410 L 197,353 L 198,352 L 198,341 L 199,340 L 200,341 L 200,490 L 202,492 L 205,492 L 206,493 L 207,493 L 208,492 L 211,492 L 212,491 L 213,491 L 216,488 L 216,487 L 217,486 L 217,471 L 218,470 L 219,471 L 257,471 L 258,470 L 259,470 L 259,454 L 260,453 L 261,453 L 261,449 L 262,448 L 262,436 L 263,435 L 263,424 L 264,423 L 264,412 L 265,411 L 265,400 L 266,399 L 293,399 L 294,400 L 294,405 L 295,406 L 295,417 L 296,418 L 296,428 L 297,429 L 297,440 L 298,441 L 298,451 L 299,452 L 299,469 L 301,471 L 339,471 L 340,472 L 340,486 L 341,487 L 341,488 L 344,491 L 345,491 L 346,492 L 347,492 L 348,493 L 353,493 L 354,492 L 355,492 L 357,490 L 357,489 L 358,488 L 358,445 L 359,444 L 358,443 L 359,442 L 359,341 L 358,340 L 358,339 L 357,338 L 357,337 L 356,336 L 355,336 L 354,335 L 347,335 L 346,336 L 345,336 L 344,337 L 343,337 L 342,336 L 342,238 L 341,237 L 341,233 L 340,232 L 340,231 L 335,226 L 334,226 L 333,225 L 331,225 L 330,224 L 312,224 L 311,223 L 314,220 L 314,219 L 317,216 L 317,215 L 318,214 L 318,213 L 319,212 L 319,211 L 320,210 L 320,209 L 321,208 L 321,206 L 322,205 L 322,202 L 323,201 L 323,184 L 322,183 L 322,180 L 321,179 L 321,178 L 320,177 L 320,175 L 319,174 L 319,173 L 317,171 L 317,170 L 316,169 L 316,168 L 307,159 L 306,159 L 304,157 L 303,157 L 302,156 L 301,156 L 300,155 L 299,155 L 298,154 L 297,154 L 296,153 L 294,153 L 293,152 L 289,152 L 288,151 L 275,151 L 274,152 L 270,152 L 268,150 L 268,146 L 267,145 L 267,140 L 266,139 L 266,136 L 265,135 L 265,131 L 264,130 L 264,127 L 263,126 L 263,123 L 262,122 L 262,120 L 261,119 L 261,116 L 260,115 L 260,113 L 259,112 L 259,111 L 258,110 L 257,110 L 255,108 L 256,107 L 256,106 L 257,105 L 256,105 L 255,104 L 254,104 L 253,103 L 251,103 L 250,102 L 248,102 L 247,101 L 246,101 L 245,100 L 243,100 L 242,99 L 240,99 L 239,98 L 238,98 L 237,97 L 235,97 L 234,96 L 232,96 L 231,95 L 229,95 L 228,94 L 227,94 L 226,93 L 224,93 L 223,92 L 223,91 L 224,90 L 226,90 L 227,89 L 228,89 L 229,88 L 230,88 L 232,86 L 233,86 L 235,84 L 236,84 L 242,78 L 242,77 L 245,74 L 245,73 L 246,72 L 246,71 L 247,70 L 247,69 L 248,68 L 248,67 L 249,66 L 249,64 L 250,63 L 250,60 L 251,59 L 251,52 L 252,51 L 252,49 L 251,48 L 251,41 L 250,40 L 250,37 L 249,36 L 249,34 L 248,33 L 248,32 L 247,31 L 247,30 L 246,29 L 246,28 L 244,26 L 244,25 L 242,23 L 242,22 L 236,16 L 235,16 L 233,14 L 232,14 L 230,12 L 229,12 L 228,11 L 227,11 L 226,10 L 224,10 L 223,9 L 222,9 L 221,8 L 218,8 L 217,7 Z" fill="#000000" stroke="none" /><path d="M 208,343 L 208,484 L 209,484 L 209,483 L 210,482 L 210,345 L 209,344 L 209,343 Z" fill="#484848" stroke="none" /><path d="M 350,342 L 347,345 L 347,483 L 349,485 L 350,485 L 350,480 L 351,479 L 350,478 L 351,477 L 351,410 L 350,409 L 351,408 L 350,407 L 351,406 L 351,367 L 352,366 L 351,365 L 351,364 L 352,363 L 352,344 L 351,343 L 351,342 Z" fill="#484848" stroke="none" /><path d="M 331,382 L 331,384 L 332,385 L 332,388 L 331,389 L 331,391 L 336,391 L 336,382 Z" fill="#a81818" stroke="none" /><path d="M 276,382 L 276,383 L 272,387 L 272,388 L 269,391 L 292,391 L 292,390 L 288,386 L 288,385 L 285,382 Z" fill="#a81818" stroke="none" /><path d="M 235,382 L 234,383 L 233,383 L 232,384 L 231,384 L 230,385 L 224,385 L 223,384 L 223,391 L 245,391 L 245,386 L 248,383 L 248,382 Z" fill="#a81818" stroke="none" /><path d="M 293,281 L 293,283 L 294,284 L 294,306 L 295,307 L 295,329 L 296,330 L 296,351 L 297,352 L 297,362 L 299,364 L 307,364 L 306,363 L 306,352 L 305,351 L 305,341 L 304,340 L 304,329 L 303,328 L 303,318 L 302,317 L 302,307 L 301,306 L 301,301 L 300,300 L 300,298 L 299,297 L 299,296 L 298,295 L 298,294 L 297,293 L 297,291 L 296,290 L 296,288 L 295,287 L 295,286 L 294,285 L 294,283 L 293,282 Z" fill="#a81818" stroke="none" /><path d="M 272,261 L 270,263 L 270,264 L 266,268 L 266,269 L 265,270 L 265,277 L 264,278 L 264,285 L 263,286 L 263,294 L 262,295 L 262,303 L 261,304 L 261,311 L 260,312 L 260,320 L 259,321 L 259,329 L 258,330 L 258,337 L 257,338 L 257,346 L 256,347 L 256,355 L 255,356 L 255,360 L 254,361 L 254,364 L 262,364 L 265,361 L 265,360 L 266,359 L 266,358 L 267,357 L 267,341 L 268,340 L 268,324 L 269,323 L 269,307 L 270,306 L 270,290 L 271,289 L 271,273 L 272,272 Z" fill="#a81818" stroke="none" /><path d="M 298,232 L 297,233 L 296,233 L 295,234 L 294,234 L 294,235 L 295,236 L 295,237 L 296,238 L 296,240 L 297,241 L 297,242 L 298,243 L 298,245 L 299,246 L 299,247 L 300,248 L 300,250 L 301,251 L 301,252 L 302,253 L 302,255 L 303,256 L 303,258 L 304,259 L 304,260 L 305,261 L 305,263 L 306,264 L 306,265 L 307,266 L 307,268 L 308,269 L 308,270 L 309,271 L 309,273 L 310,274 L 310,275 L 311,276 L 311,278 L 312,279 L 312,280 L 313,281 L 313,283 L 314,284 L 314,285 L 315,286 L 315,288 L 316,289 L 316,290 L 317,291 L 317,293 L 318,294 L 318,295 L 319,296 L 319,300 L 320,301 L 320,311 L 321,312 L 321,322 L 322,323 L 322,334 L 323,335 L 323,345 L 324,346 L 324,356 L 325,357 L 325,364 L 330,364 L 333,361 L 333,360 L 334,359 L 334,237 L 333,236 L 333,235 L 330,232 L 326,232 L 325,233 L 324,232 L 322,232 L 321,233 L 320,232 L 319,232 L 318,233 L 317,232 L 315,232 L 314,233 L 313,232 L 312,232 L 311,233 L 310,232 L 308,232 L 307,233 L 306,232 L 305,232 L 304,233 L 303,232 Z" fill="#a81818" stroke="none" /><path d="M 228,232 L 227,233 L 227,234 L 226,235 L 226,237 L 225,238 L 225,358 L 226,359 L 226,361 L 227,361 L 230,358 L 231,358 L 233,356 L 234,356 L 235,355 L 236,355 L 237,354 L 237,351 L 238,350 L 238,342 L 239,341 L 239,333 L 240,332 L 240,325 L 241,324 L 241,316 L 242,315 L 242,307 L 243,306 L 243,299 L 244,298 L 244,290 L 245,289 L 245,282 L 246,281 L 246,273 L 247,272 L 247,264 L 248,263 L 248,261 L 252,257 L 252,256 L 257,251 L 257,250 L 261,246 L 261,245 L 266,240 L 266,239 L 271,234 L 268,234 L 267,233 L 266,233 L 265,232 Z" fill="#a81818" stroke="none" /><path d="M 306,460 L 306,463 L 309,463 L 310,462 L 311,463 L 330,463 L 331,462 L 332,463 L 333,463 L 333,460 L 326,460 L 325,461 L 324,461 L 323,462 L 317,462 L 316,461 L 314,461 L 313,460 Z" fill="#a8a8a8" stroke="none" /><path d="M 225,460 L 225,463 L 244,463 L 245,462 L 246,463 L 248,463 L 249,462 L 250,463 L 252,463 L 252,460 L 243,460 L 242,461 L 240,461 L 239,462 L 233,462 L 232,461 L 231,461 L 230,460 Z" fill="#a8a8a8" stroke="none" /><path d="M 227,104 L 227,105 L 226,106 L 226,107 L 225,108 L 225,109 L 223,111 L 222,111 L 220,113 L 219,113 L 218,114 L 214,114 L 213,115 L 206,115 L 205,114 L 201,114 L 200,113 L 198,113 L 197,112 L 196,112 L 195,111 L 194,111 L 190,107 L 190,106 L 189,106 L 188,107 L 187,107 L 186,108 L 185,108 L 184,109 L 183,109 L 181,111 L 180,111 L 179,112 L 178,112 L 177,113 L 176,113 L 174,115 L 173,115 L 172,116 L 171,116 L 170,117 L 169,117 L 169,139 L 171,141 L 171,142 L 173,144 L 173,145 L 174,146 L 174,147 L 175,148 L 175,149 L 176,150 L 176,152 L 177,153 L 177,217 L 176,218 L 177,219 L 176,220 L 176,236 L 177,237 L 177,242 L 216,242 L 216,241 L 217,240 L 217,234 L 218,233 L 218,232 L 219,231 L 219,230 L 220,229 L 220,228 L 223,225 L 224,225 L 225,224 L 228,224 L 229,223 L 238,223 L 238,216 L 237,215 L 237,174 L 238,173 L 238,155 L 239,154 L 239,148 L 240,147 L 240,142 L 241,141 L 241,133 L 242,132 L 242,120 L 243,119 L 243,114 L 244,113 L 244,111 L 243,110 L 242,110 L 241,109 L 239,109 L 238,108 L 237,108 L 236,107 L 234,107 L 233,106 L 231,106 L 230,105 L 229,105 L 228,104 Z" fill="#d8f048" stroke="none" /><path d="M 316,374 L 316,376 L 317,377 L 317,378 L 318,379 L 318,381 L 319,382 L 319,383 L 320,384 L 320,385 L 321,386 L 321,387 L 322,388 L 322,389 L 322,381 L 321,380 L 321,379 L 320,378 L 320,377 L 317,374 Z" fill="#f0f0f0" stroke="none" /><path d="M 240,363 L 239,364 L 238,364 L 236,366 L 235,366 L 234,367 L 234,368 L 232,370 L 232,371 L 231,372 L 231,373 L 230,374 L 231,373 L 232,373 L 235,370 L 236,370 L 242,364 L 242,363 Z" fill="#f0f0f0" stroke="none" /><path d="M 152,254 L 152,255 L 151,256 L 151,258 L 150,259 L 150,265 L 151,266 L 151,269 L 151,264 L 152,263 Z" fill="#f0f0f0" stroke="none" /><path d="M 278,159 L 277,160 L 273,160 L 272,161 L 270,161 L 269,162 L 268,162 L 267,163 L 266,163 L 265,164 L 264,164 L 262,166 L 261,166 L 254,173 L 254,174 L 252,176 L 252,177 L 251,178 L 251,180 L 250,181 L 250,182 L 249,183 L 249,187 L 248,188 L 248,198 L 249,199 L 249,202 L 250,203 L 250,205 L 251,206 L 251,207 L 252,208 L 252,209 L 253,210 L 253,211 L 255,213 L 255,214 L 260,219 L 261,219 L 263,221 L 264,221 L 266,223 L 268,223 L 269,224 L 270,224 L 271,225 L 274,225 L 275,226 L 288,226 L 289,225 L 292,225 L 293,224 L 294,224 L 295,223 L 296,223 L 297,222 L 298,222 L 299,221 L 300,221 L 302,219 L 303,219 L 308,214 L 308,213 L 310,211 L 310,210 L 311,209 L 311,208 L 312,207 L 312,206 L 313,205 L 313,203 L 314,202 L 314,199 L 315,198 L 315,188 L 314,187 L 314,183 L 313,182 L 313,181 L 312,180 L 312,178 L 310,176 L 310,175 L 309,174 L 309,173 L 301,165 L 300,165 L 299,164 L 298,164 L 297,163 L 296,163 L 295,162 L 294,162 L 293,161 L 291,161 L 290,160 L 285,160 L 284,159 Z" fill="#f0f0f0" stroke="none" /><path d="M 206,15 L 205,16 L 200,16 L 199,17 L 197,17 L 196,18 L 194,18 L 193,19 L 192,19 L 191,20 L 190,20 L 188,22 L 187,22 L 181,28 L 181,29 L 179,31 L 179,32 L 177,34 L 177,35 L 176,36 L 176,38 L 175,39 L 175,41 L 174,42 L 174,58 L 175,59 L 175,61 L 176,62 L 176,64 L 177,65 L 177,66 L 179,68 L 179,69 L 181,71 L 181,72 L 186,77 L 187,77 L 190,80 L 191,80 L 192,81 L 193,81 L 194,82 L 196,82 L 197,83 L 199,83 L 200,84 L 205,84 L 206,85 L 210,85 L 211,84 L 216,84 L 217,83 L 220,83 L 221,82 L 222,82 L 223,81 L 224,81 L 225,80 L 226,80 L 227,79 L 228,79 L 237,70 L 237,69 L 238,68 L 238,67 L 239,66 L 239,65 L 240,64 L 240,63 L 241,62 L 241,60 L 242,59 L 242,55 L 243,54 L 243,46 L 242,45 L 242,41 L 241,40 L 241,38 L 240,37 L 240,36 L 239,35 L 239,34 L 238,33 L 238,32 L 237,31 L 237,30 L 228,21 L 227,21 L 226,20 L 225,20 L 224,19 L 223,19 L 222,18 L 221,18 L 220,17 L 218,17 L 217,16 L 212,16 L 211,15 Z" fill="#f0f0f0" stroke="none" /></svg>