<?xml version="1.0" encoding="utf-8" ?>
<svg baseProfile="full" height="500" version="1.1" viewBox="0 0 500 500" width="500" xmlns="http://www.w3.org/2000/svg" xmlns:ev="http://www.w3.org/2001/xml-events" xmlns:xlink="http://www.w3.org/1999/xlink"><defs /><path d="M 364,444 L 364,445 L 363,446 L 363,449 L 362,450 L 362,452 L 361,453 L 361,457 L 360,458 L 360,460 L 359,461 L 359,464 L 358,465 L 359,466 L 359,467 L 360,467 L 361,468 L 362,468 L 363,467 L 365,467 L 366,468 L 370,468 L 371,469 L 376,469 L 377,470 L 382,470 L 383,471 L 388,471 L 389,470 L 389,468 L 390,467 L 390,465 L 391,464 L 391,462 L 393,460 L 392,459 L 392,458 L 393,457 L 393,455 L 394,454 L 394,451 L 395,450 L 395,448 L 394,447 L 388,447 L 387,446 L 380,446 L 379,445 L 373,445 L 372,444 Z" fill="#000000" stroke="none" /><path d="M 332,437 L 331,438 L 329,438 L 328,439 L 327,439 L 323,443 L 323,444 L 322,445 L 322,446 L 321,447 L 321,448 L 320,449 L 321,450 L 321,456 L 322,457 L 322,458 L 323,459 L 323,460 L 325,462 L 325,463 L 327,463 L 329,465 L 332,465 L 333,466 L 339,466 L 340,465 L 341,465 L 342,466 L 344,464 L 345,465 L 345,464 L 350,459 L 350,458 L 351,457 L 351,455 L 352,454 L 352,450 L 351,449 L 352,448 L 351,447 L 351,446 L 350,445 L 350,444 L 344,438 L 341,438 L 340,437 Z" fill="#000000" stroke="none" /><path d="M 284,430 L 283,431 L 283,434 L 282,435 L 282,437 L 280,439 L 281,440 L 281,441 L 280,442 L 280,445 L 279,446 L 279,449 L 278,450 L 278,453 L 281,453 L 283,455 L 284,455 L 285,454 L 286,454 L 287,455 L 289,455 L 290,456 L 291,455 L 292,455 L 294,457 L 295,456 L 297,456 L 298,457 L 299,457 L 300,458 L 301,457 L 303,457 L 304,458 L 304,459 L 305,458 L 306,459 L 308,457 L 308,456 L 309,455 L 309,453 L 310,452 L 310,450 L 311,449 L 311,446 L 312,445 L 312,443 L 313,442 L 313,439 L 314,438 L 314,434 L 310,434 L 309,433 L 304,433 L 303,432 L 295,432 L 294,431 L 288,431 L 287,430 Z" fill="#000000" stroke="none" /><path d="M 190,302 L 189,303 L 188,303 L 188,304 L 187,305 L 187,306 L 186,307 L 186,308 L 185,309 L 185,310 L 182,313 L 182,314 L 181,315 L 182,316 L 181,317 L 181,318 L 180,319 L 180,320 L 179,321 L 179,322 L 178,323 L 178,326 L 177,327 L 176,327 L 177,328 L 176,329 L 176,330 L 175,331 L 176,332 L 175,333 L 175,336 L 174,337 L 175,338 L 174,339 L 174,346 L 173,347 L 174,348 L 174,363 L 175,364 L 175,367 L 176,368 L 176,371 L 177,372 L 177,374 L 178,375 L 178,377 L 179,378 L 178,379 L 179,378 L 181,380 L 183,380 L 184,381 L 185,381 L 186,382 L 187,382 L 188,383 L 188,384 L 191,384 L 193,386 L 195,386 L 197,388 L 198,388 L 199,389 L 200,389 L 201,390 L 202,390 L 203,391 L 204,391 L 206,393 L 207,393 L 208,394 L 209,394 L 210,395 L 211,395 L 213,397 L 214,397 L 215,398 L 216,398 L 217,399 L 218,399 L 220,401 L 221,401 L 222,402 L 223,402 L 225,404 L 226,404 L 228,406 L 229,406 L 230,407 L 231,407 L 233,409 L 234,409 L 235,410 L 236,410 L 237,411 L 238,411 L 239,412 L 240,412 L 241,413 L 241,414 L 242,413 L 243,413 L 245,415 L 249,415 L 250,416 L 252,416 L 253,417 L 257,417 L 258,418 L 264,418 L 265,419 L 275,419 L 276,418 L 279,418 L 280,419 L 281,418 L 282,418 L 283,417 L 284,417 L 285,418 L 286,418 L 286,417 L 287,416 L 288,416 L 289,417 L 290,417 L 292,419 L 293,419 L 295,421 L 297,421 L 298,422 L 300,422 L 301,423 L 302,423 L 303,424 L 304,424 L 305,425 L 306,425 L 307,426 L 308,426 L 309,427 L 310,427 L 311,428 L 312,427 L 313,428 L 324,428 L 325,427 L 334,427 L 335,428 L 336,427 L 337,428 L 338,427 L 343,427 L 344,428 L 346,426 L 350,426 L 351,425 L 352,426 L 354,424 L 356,424 L 357,423 L 360,423 L 361,422 L 362,422 L 363,423 L 366,423 L 367,424 L 371,424 L 372,423 L 375,423 L 376,424 L 376,423 L 377,422 L 379,422 L 381,420 L 382,420 L 383,419 L 384,419 L 387,416 L 389,416 L 390,415 L 393,415 L 394,416 L 395,415 L 396,416 L 401,416 L 402,417 L 408,417 L 409,418 L 411,418 L 412,419 L 412,420 L 413,421 L 413,424 L 414,425 L 414,426 L 419,431 L 419,432 L 421,432 L 422,433 L 424,433 L 425,434 L 424,435 L 425,434 L 428,434 L 429,435 L 430,434 L 432,434 L 433,435 L 434,434 L 435,434 L 437,432 L 438,432 L 440,430 L 441,430 L 441,429 L 444,426 L 444,425 L 445,424 L 445,421 L 446,420 L 446,417 L 447,416 L 445,414 L 445,411 L 444,410 L 444,409 L 441,406 L 441,405 L 440,405 L 437,402 L 437,401 L 436,400 L 436,396 L 435,395 L 435,394 L 434,393 L 434,391 L 433,390 L 433,388 L 432,387 L 432,385 L 431,384 L 431,383 L 430,382 L 430,380 L 429,379 L 429,377 L 428,376 L 428,375 L 427,374 L 427,372 L 426,371 L 426,368 L 425,367 L 426,366 L 425,366 L 424,365 L 424,362 L 422,360 L 422,359 L 420,357 L 420,356 L 417,353 L 417,352 L 414,349 L 414,348 L 413,348 L 412,347 L 411,347 L 409,345 L 409,344 L 408,344 L 407,343 L 406,343 L 404,341 L 403,341 L 401,339 L 400,339 L 397,336 L 396,336 L 395,335 L 394,335 L 391,332 L 390,332 L 388,330 L 387,330 L 386,329 L 386,328 L 384,328 L 382,326 L 381,326 L 379,324 L 378,324 L 377,323 L 376,323 L 374,321 L 373,321 L 372,320 L 371,320 L 370,319 L 369,319 L 368,318 L 367,318 L 365,316 L 363,316 L 362,315 L 360,315 L 359,314 L 348,314 L 347,315 L 344,315 L 343,316 L 340,316 L 339,317 L 336,317 L 335,318 L 333,318 L 332,319 L 330,319 L 329,320 L 326,320 L 325,321 L 323,321 L 322,322 L 320,322 L 319,323 L 317,323 L 316,324 L 314,324 L 313,325 L 312,325 L 311,326 L 309,326 L 308,327 L 306,327 L 305,328 L 304,328 L 303,329 L 301,329 L 300,330 L 298,330 L 297,331 L 296,331 L 295,332 L 293,332 L 292,333 L 291,333 L 290,334 L 288,334 L 287,335 L 284,335 L 283,336 L 281,336 L 280,337 L 275,337 L 274,338 L 263,338 L 262,337 L 257,337 L 256,336 L 252,336 L 251,335 L 248,335 L 247,334 L 245,334 L 244,333 L 243,333 L 242,332 L 240,332 L 238,330 L 236,330 L 235,329 L 234,329 L 233,328 L 232,328 L 231,327 L 230,327 L 229,326 L 228,326 L 226,324 L 225,324 L 223,322 L 222,322 L 221,321 L 220,321 L 217,318 L 216,318 L 211,313 L 210,313 L 204,307 L 203,307 L 200,304 L 199,304 L 198,303 L 196,303 L 195,302 Z" fill="#000000" stroke="none" /><path d="M 244,67 L 245,68 L 245,69 L 244,70 L 244,72 L 243,73 L 244,74 L 244,86 L 243,87 L 244,88 L 243,89 L 244,90 L 244,108 L 243,109 L 244,110 L 243,111 L 244,112 L 244,130 L 243,131 L 244,132 L 243,133 L 244,134 L 243,135 L 244,136 L 244,158 L 243,159 L 244,160 L 244,180 L 243,181 L 244,182 L 243,183 L 244,184 L 244,202 L 243,203 L 244,204 L 243,205 L 244,206 L 244,226 L 243,227 L 244,228 L 243,229 L 244,230 L 244,248 L 243,249 L 244,250 L 243,251 L 244,252 L 243,253 L 244,254 L 244,258 L 243,259 L 244,260 L 244,262 L 243,263 L 244,264 L 244,270 L 245,271 L 371,271 L 372,272 L 373,271 L 374,272 L 375,271 L 376,272 L 377,271 L 378,272 L 379,271 L 380,272 L 381,271 L 382,272 L 383,271 L 384,272 L 385,271 L 386,272 L 387,271 L 388,272 L 389,271 L 390,272 L 391,271 L 392,272 L 393,271 L 394,272 L 395,271 L 396,272 L 397,271 L 398,272 L 399,271 L 405,271 L 406,270 L 406,269 L 407,268 L 406,267 L 407,266 L 406,265 L 407,264 L 406,263 L 407,262 L 406,261 L 407,260 L 406,259 L 407,258 L 406,257 L 407,256 L 406,255 L 407,254 L 406,253 L 407,252 L 406,251 L 407,250 L 406,249 L 406,248 L 407,247 L 410,250 L 410,251 L 411,251 L 413,253 L 413,254 L 415,256 L 415,257 L 417,259 L 417,261 L 418,261 L 419,262 L 419,263 L 420,264 L 420,265 L 422,267 L 422,268 L 423,269 L 423,270 L 424,271 L 424,272 L 425,273 L 425,274 L 426,275 L 426,276 L 428,278 L 427,279 L 428,279 L 431,282 L 431,283 L 432,284 L 432,285 L 433,286 L 433,287 L 434,287 L 436,289 L 436,290 L 438,292 L 438,293 L 442,297 L 442,298 L 444,300 L 444,301 L 445,301 L 446,302 L 445,303 L 446,304 L 447,304 L 450,307 L 451,307 L 452,308 L 453,307 L 455,307 L 456,306 L 460,306 L 462,304 L 463,304 L 464,303 L 465,303 L 467,301 L 468,301 L 473,296 L 474,296 L 474,295 L 479,290 L 479,289 L 481,287 L 481,286 L 483,284 L 483,283 L 485,281 L 485,280 L 486,279 L 486,278 L 487,277 L 487,276 L 488,275 L 488,274 L 489,273 L 489,271 L 490,270 L 490,266 L 487,263 L 487,258 L 482,253 L 481,253 L 477,249 L 477,248 L 476,248 L 474,246 L 474,244 L 473,244 L 472,243 L 472,242 L 471,241 L 471,240 L 469,238 L 469,237 L 468,236 L 468,235 L 467,234 L 467,233 L 466,232 L 466,231 L 465,230 L 465,229 L 464,228 L 464,226 L 462,224 L 462,223 L 461,222 L 461,220 L 460,219 L 460,217 L 459,216 L 459,213 L 458,212 L 458,207 L 459,206 L 458,205 L 458,201 L 459,200 L 458,199 L 458,195 L 457,194 L 457,189 L 456,188 L 456,184 L 455,183 L 455,182 L 454,181 L 454,179 L 453,178 L 453,177 L 452,176 L 452,175 L 451,174 L 451,172 L 448,169 L 448,168 L 447,167 L 447,166 L 441,160 L 441,159 L 440,158 L 439,158 L 435,154 L 434,154 L 433,153 L 432,153 L 431,152 L 430,152 L 429,151 L 427,151 L 426,150 L 420,150 L 419,151 L 418,150 L 414,150 L 413,151 L 410,151 L 409,152 L 408,152 L 407,153 L 406,152 L 406,141 L 407,140 L 406,139 L 407,138 L 406,137 L 406,125 L 407,124 L 406,123 L 406,113 L 407,112 L 406,111 L 406,109 L 407,108 L 406,107 L 407,106 L 406,105 L 406,95 L 407,94 L 406,93 L 406,91 L 407,90 L 406,89 L 407,88 L 406,87 L 406,73 L 407,72 L 406,71 L 406,69 L 404,67 Z" fill="#000000" stroke="none" /><path d="M 113,27 L 112,28 L 108,28 L 107,29 L 105,29 L 104,30 L 102,30 L 101,31 L 99,31 L 98,32 L 97,32 L 96,33 L 95,33 L 94,34 L 93,34 L 92,35 L 91,35 L 89,37 L 88,37 L 85,40 L 84,40 L 72,52 L 72,53 L 69,56 L 69,57 L 67,59 L 67,60 L 66,61 L 65,61 L 66,62 L 64,64 L 64,65 L 63,66 L 63,67 L 61,69 L 61,72 L 60,73 L 60,74 L 59,75 L 59,77 L 58,78 L 58,80 L 57,81 L 57,82 L 56,83 L 57,84 L 56,85 L 56,88 L 55,89 L 55,93 L 54,94 L 54,96 L 53,97 L 51,97 L 45,103 L 45,105 L 43,107 L 44,108 L 44,110 L 43,111 L 44,112 L 44,114 L 43,115 L 44,115 L 45,116 L 45,119 L 46,119 L 47,120 L 47,121 L 48,122 L 48,123 L 49,123 L 51,125 L 52,125 L 55,128 L 54,129 L 55,130 L 55,132 L 56,133 L 56,136 L 57,137 L 57,139 L 58,140 L 56,142 L 54,140 L 53,140 L 52,139 L 51,139 L 49,137 L 48,137 L 47,136 L 46,136 L 44,134 L 43,134 L 42,133 L 39,133 L 37,135 L 37,137 L 38,138 L 38,140 L 37,141 L 36,140 L 32,140 L 31,141 L 31,142 L 30,143 L 31,144 L 31,147 L 30,148 L 29,148 L 28,147 L 27,147 L 26,146 L 24,146 L 23,147 L 22,147 L 22,148 L 21,149 L 22,150 L 22,154 L 21,155 L 22,156 L 22,159 L 23,160 L 23,162 L 22,163 L 23,164 L 23,168 L 22,169 L 23,170 L 22,171 L 23,172 L 23,177 L 24,178 L 24,180 L 23,181 L 24,182 L 24,186 L 23,187 L 24,188 L 24,194 L 23,195 L 21,195 L 20,196 L 19,196 L 18,197 L 16,197 L 14,199 L 13,199 L 13,200 L 11,202 L 11,204 L 10,205 L 10,212 L 9,213 L 10,214 L 10,233 L 11,234 L 11,235 L 12,236 L 12,237 L 13,238 L 13,239 L 16,242 L 17,242 L 19,244 L 20,244 L 21,245 L 23,245 L 24,246 L 26,246 L 27,247 L 27,252 L 28,253 L 28,260 L 27,261 L 28,262 L 28,268 L 27,269 L 28,270 L 28,271 L 29,272 L 29,280 L 30,281 L 32,281 L 33,282 L 34,282 L 35,283 L 37,283 L 38,284 L 39,284 L 40,285 L 43,285 L 44,286 L 45,286 L 46,287 L 48,287 L 49,288 L 51,288 L 52,289 L 53,289 L 54,290 L 56,290 L 57,291 L 59,291 L 60,292 L 62,292 L 63,293 L 64,293 L 65,294 L 66,294 L 68,296 L 69,296 L 70,295 L 71,296 L 72,296 L 73,297 L 75,297 L 77,299 L 78,298 L 79,299 L 81,299 L 82,300 L 83,300 L 84,301 L 86,301 L 87,302 L 89,302 L 90,303 L 92,303 L 94,305 L 97,305 L 99,307 L 103,307 L 105,309 L 108,309 L 109,310 L 111,310 L 112,309 L 113,309 L 114,310 L 114,311 L 115,310 L 116,311 L 117,310 L 118,311 L 124,311 L 125,312 L 126,311 L 127,312 L 127,311 L 128,310 L 131,310 L 132,309 L 134,309 L 135,308 L 136,308 L 137,307 L 138,307 L 139,308 L 139,307 L 140,306 L 141,306 L 142,305 L 144,305 L 145,304 L 146,304 L 147,303 L 149,303 L 150,302 L 151,302 L 152,301 L 154,301 L 155,300 L 156,300 L 157,299 L 158,299 L 159,298 L 161,298 L 162,297 L 163,297 L 164,296 L 166,296 L 167,295 L 168,295 L 169,294 L 172,294 L 174,292 L 175,292 L 176,293 L 176,292 L 177,291 L 178,291 L 179,290 L 181,290 L 182,289 L 183,289 L 184,290 L 183,289 L 184,288 L 186,288 L 187,287 L 188,288 L 188,287 L 189,286 L 191,286 L 192,285 L 193,286 L 193,285 L 194,284 L 196,284 L 197,283 L 198,283 L 199,282 L 202,282 L 204,280 L 206,280 L 207,279 L 208,279 L 209,278 L 210,278 L 211,277 L 213,277 L 214,276 L 215,276 L 215,275 L 216,274 L 216,269 L 217,268 L 216,267 L 216,246 L 219,243 L 220,243 L 224,239 L 224,238 L 226,236 L 226,235 L 227,234 L 227,231 L 228,230 L 227,229 L 227,223 L 228,222 L 228,215 L 229,214 L 228,213 L 228,212 L 227,211 L 227,209 L 228,208 L 227,207 L 227,203 L 226,202 L 226,201 L 223,198 L 222,198 L 221,197 L 220,197 L 218,195 L 218,185 L 219,184 L 218,183 L 218,179 L 219,178 L 218,177 L 219,176 L 218,175 L 218,171 L 219,170 L 218,169 L 218,166 L 220,164 L 219,163 L 219,143 L 218,142 L 215,142 L 214,143 L 212,141 L 213,140 L 212,139 L 213,138 L 212,137 L 212,136 L 211,136 L 210,135 L 208,135 L 207,136 L 206,136 L 205,135 L 205,129 L 201,129 L 200,130 L 199,130 L 198,131 L 197,131 L 195,133 L 194,133 L 192,135 L 191,135 L 190,136 L 189,136 L 188,135 L 189,134 L 188,133 L 188,131 L 189,130 L 189,126 L 190,125 L 191,125 L 192,124 L 193,124 L 197,120 L 197,119 L 198,118 L 198,117 L 199,116 L 199,115 L 200,114 L 199,113 L 200,112 L 199,111 L 199,105 L 198,104 L 198,103 L 197,102 L 197,100 L 196,100 L 193,97 L 192,97 L 191,96 L 190,96 L 189,95 L 189,91 L 188,90 L 188,86 L 187,85 L 187,83 L 186,82 L 186,79 L 185,78 L 185,76 L 184,75 L 184,74 L 183,73 L 183,71 L 182,70 L 182,69 L 181,68 L 181,67 L 180,66 L 180,64 L 177,61 L 177,60 L 176,59 L 176,58 L 174,56 L 174,55 L 171,52 L 171,51 L 169,49 L 169,48 L 168,48 L 161,41 L 160,41 L 157,38 L 156,38 L 154,36 L 153,36 L 152,35 L 151,35 L 149,33 L 148,33 L 147,32 L 145,32 L 144,31 L 143,31 L 142,30 L 140,30 L 139,29 L 136,29 L 135,28 L 131,28 L 130,27 Z" fill="#000000" stroke="none" /><path d="M 388,201 L 389,202 L 389,203 L 393,207 L 394,207 L 397,210 L 398,210 L 399,211 L 400,211 L 400,210 L 399,209 L 398,209 L 394,205 L 393,205 L 390,202 L 389,202 Z" fill="#4878c0" stroke="none" /><path d="M 251,73 L 251,214 L 250,215 L 251,216 L 251,217 L 250,218 L 251,219 L 250,220 L 251,221 L 250,222 L 250,265 L 400,265 L 400,244 L 398,242 L 397,242 L 395,240 L 394,240 L 393,239 L 392,239 L 390,237 L 389,237 L 388,236 L 387,236 L 384,233 L 383,233 L 380,230 L 379,230 L 366,217 L 366,216 L 364,214 L 364,213 L 363,212 L 363,209 L 362,208 L 362,204 L 361,203 L 361,197 L 360,196 L 360,194 L 361,193 L 361,192 L 367,186 L 368,186 L 369,185 L 366,182 L 365,182 L 358,175 L 357,175 L 349,167 L 348,167 L 341,160 L 340,160 L 338,158 L 337,158 L 336,157 L 335,157 L 334,156 L 333,156 L 331,154 L 330,154 L 328,152 L 327,152 L 320,145 L 320,144 L 318,142 L 318,141 L 317,142 L 317,143 L 315,145 L 315,146 L 313,148 L 313,149 L 311,151 L 311,152 L 305,158 L 301,158 L 300,157 L 299,157 L 292,150 L 292,149 L 291,149 L 290,148 L 290,147 L 289,146 L 289,144 L 288,143 L 288,141 L 287,140 L 287,131 L 288,130 L 288,128 L 289,127 L 289,126 L 295,120 L 296,120 L 297,119 L 298,119 L 299,118 L 302,118 L 303,117 L 306,117 L 307,118 L 309,118 L 310,119 L 312,119 L 314,121 L 315,121 L 316,122 L 317,122 L 322,127 L 326,127 L 327,128 L 330,128 L 331,129 L 332,129 L 333,130 L 334,130 L 335,131 L 336,131 L 339,134 L 340,134 L 343,137 L 343,138 L 345,140 L 345,141 L 346,142 L 346,143 L 347,144 L 347,145 L 348,146 L 348,147 L 352,151 L 353,151 L 357,155 L 358,155 L 361,158 L 362,158 L 363,159 L 365,159 L 366,158 L 369,158 L 370,157 L 376,157 L 377,156 L 378,156 L 379,155 L 380,155 L 381,154 L 382,154 L 383,153 L 385,153 L 386,152 L 389,152 L 390,151 L 400,151 L 399,150 L 400,149 L 399,148 L 400,147 L 399,146 L 399,73 Z" fill="#4878c0" stroke="none" /><path d="M 368,448 L 367,449 L 367,452 L 366,453 L 366,456 L 365,457 L 365,459 L 364,460 L 364,463 L 369,463 L 370,464 L 374,464 L 375,465 L 379,465 L 380,466 L 385,466 L 385,465 L 386,464 L 386,462 L 387,461 L 387,459 L 388,458 L 388,455 L 389,454 L 389,452 L 390,451 L 383,451 L 382,450 L 376,450 L 375,449 L 369,449 Z" fill="#48a848" stroke="none" /><path d="M 287,435 L 287,436 L 286,437 L 286,440 L 285,441 L 285,444 L 284,445 L 284,448 L 283,449 L 284,449 L 285,450 L 290,450 L 291,451 L 296,451 L 297,452 L 301,452 L 302,453 L 305,453 L 305,450 L 306,449 L 306,447 L 307,446 L 307,443 L 308,442 L 308,440 L 309,439 L 309,438 L 306,438 L 305,437 L 298,437 L 297,436 L 291,436 L 290,435 Z" fill="#48a848" stroke="none" /><path d="M 112,187 L 112,224 L 113,225 L 113,249 L 114,250 L 113,251 L 113,298 L 114,299 L 113,300 L 114,301 L 114,303 L 116,303 L 117,304 L 121,304 L 122,305 L 123,305 L 124,304 L 128,304 L 128,294 L 127,293 L 128,292 L 128,284 L 127,283 L 128,282 L 128,268 L 127,267 L 128,266 L 128,250 L 127,249 L 127,187 Z" fill="#609030" stroke="none" /><path d="M 29,154 L 29,168 L 30,169 L 30,186 L 31,187 L 31,194 L 32,195 L 34,195 L 35,196 L 36,196 L 37,197 L 38,197 L 41,200 L 41,201 L 43,203 L 43,206 L 44,207 L 44,211 L 45,212 L 44,213 L 44,217 L 45,218 L 45,231 L 44,232 L 44,234 L 42,236 L 42,237 L 35,244 L 34,244 L 34,263 L 35,264 L 35,276 L 37,276 L 38,277 L 42,277 L 44,279 L 45,279 L 46,280 L 48,280 L 49,281 L 51,281 L 52,282 L 54,282 L 55,283 L 56,283 L 57,284 L 59,284 L 60,285 L 62,285 L 63,286 L 64,286 L 65,287 L 67,287 L 68,288 L 70,288 L 71,289 L 73,289 L 74,290 L 73,289 L 74,288 L 75,288 L 76,289 L 76,291 L 78,291 L 79,292 L 81,292 L 82,293 L 83,293 L 84,294 L 86,294 L 87,295 L 89,295 L 90,296 L 92,296 L 93,297 L 96,297 L 98,299 L 100,299 L 101,300 L 103,300 L 104,301 L 105,301 L 106,302 L 106,296 L 105,295 L 106,294 L 105,293 L 106,292 L 106,256 L 105,255 L 105,222 L 104,221 L 105,220 L 105,184 L 104,183 L 103,183 L 102,182 L 101,182 L 100,181 L 98,181 L 97,180 L 96,180 L 95,179 L 93,179 L 92,178 L 90,178 L 89,177 L 88,177 L 87,176 L 85,176 L 84,175 L 82,175 L 81,174 L 80,174 L 79,173 L 77,173 L 76,172 L 74,172 L 73,171 L 72,171 L 71,170 L 69,170 L 68,169 L 67,169 L 66,168 L 64,168 L 63,167 L 61,167 L 60,166 L 59,166 L 58,165 L 56,165 L 55,164 L 53,164 L 52,163 L 51,163 L 50,162 L 48,162 L 47,161 L 45,161 L 44,160 L 43,160 L 42,159 L 40,159 L 39,158 L 38,158 L 37,157 L 35,157 L 34,156 L 32,156 L 31,155 L 30,155 Z" fill="#609030" stroke="none" /><path d="M 212,150 L 211,151 L 210,151 L 209,152 L 208,152 L 207,153 L 205,153 L 204,154 L 203,154 L 202,155 L 200,155 L 199,156 L 198,156 L 197,157 L 195,157 L 194,158 L 193,158 L 192,159 L 190,159 L 189,160 L 188,160 L 187,161 L 185,161 L 184,162 L 183,162 L 182,163 L 180,163 L 179,164 L 178,164 L 177,165 L 176,165 L 175,166 L 173,166 L 172,167 L 171,167 L 170,168 L 168,168 L 167,169 L 166,169 L 165,170 L 163,170 L 162,171 L 161,171 L 160,172 L 158,172 L 157,173 L 156,173 L 155,174 L 153,174 L 152,175 L 151,175 L 150,176 L 149,176 L 148,177 L 146,177 L 145,178 L 144,178 L 143,179 L 141,179 L 140,180 L 139,180 L 138,181 L 136,181 L 135,182 L 134,182 L 134,223 L 135,224 L 135,237 L 136,238 L 135,239 L 135,286 L 136,287 L 136,301 L 137,300 L 138,300 L 139,299 L 141,299 L 142,298 L 143,298 L 144,297 L 146,297 L 147,296 L 148,296 L 149,295 L 151,295 L 152,294 L 153,294 L 154,293 L 154,292 L 155,291 L 156,291 L 157,292 L 156,293 L 157,292 L 158,292 L 159,291 L 161,291 L 162,290 L 163,290 L 164,289 L 166,289 L 167,288 L 168,288 L 169,287 L 171,287 L 172,286 L 173,286 L 174,285 L 176,285 L 177,284 L 178,284 L 178,283 L 179,282 L 183,282 L 185,280 L 188,280 L 189,279 L 191,279 L 192,278 L 193,278 L 194,277 L 196,277 L 197,276 L 198,276 L 201,273 L 202,273 L 203,274 L 204,273 L 205,273 L 206,272 L 208,272 L 209,271 L 209,262 L 210,261 L 210,247 L 209,247 L 208,246 L 206,246 L 205,245 L 204,245 L 203,244 L 202,244 L 195,237 L 195,236 L 194,235 L 194,234 L 193,233 L 193,230 L 192,229 L 192,222 L 190,222 L 189,223 L 188,223 L 187,224 L 185,224 L 184,225 L 182,225 L 181,226 L 180,226 L 179,227 L 177,227 L 176,228 L 174,228 L 173,229 L 172,229 L 171,230 L 169,230 L 168,231 L 166,231 L 165,232 L 164,232 L 163,233 L 161,233 L 160,234 L 158,234 L 157,235 L 156,235 L 155,236 L 153,236 L 152,237 L 150,237 L 149,238 L 148,238 L 147,239 L 145,239 L 143,241 L 142,240 L 141,240 L 140,239 L 141,238 L 141,211 L 140,210 L 140,204 L 139,203 L 140,202 L 140,187 L 141,186 L 142,186 L 143,185 L 145,185 L 146,184 L 147,184 L 148,183 L 149,183 L 150,182 L 152,182 L 153,181 L 155,181 L 156,180 L 157,180 L 158,179 L 160,179 L 161,178 L 162,178 L 164,176 L 167,176 L 169,174 L 172,174 L 173,173 L 174,173 L 175,172 L 177,172 L 178,171 L 179,171 L 180,170 L 182,170 L 183,169 L 184,169 L 185,168 L 187,168 L 188,167 L 189,167 L 190,166 L 191,166 L 192,165 L 194,165 L 195,164 L 196,164 L 197,163 L 199,163 L 200,162 L 201,162 L 202,161 L 204,161 L 205,160 L 207,160 L 208,161 L 208,167 L 209,167 L 210,168 L 209,169 L 208,169 L 208,173 L 209,174 L 208,175 L 209,176 L 208,177 L 209,178 L 208,179 L 208,194 L 211,194 L 211,189 L 212,188 Z" fill="#609030" stroke="none" /><path d="M 372,178 L 378,184 L 379,184 L 384,189 L 385,189 L 389,193 L 390,193 L 394,197 L 395,197 L 398,200 L 399,200 L 403,204 L 404,204 L 406,206 L 407,206 L 408,207 L 408,208 L 409,208 L 412,211 L 413,211 L 417,215 L 418,215 L 422,219 L 423,219 L 426,222 L 427,222 L 431,226 L 432,226 L 436,230 L 437,230 L 440,233 L 441,233 L 445,237 L 446,237 L 450,241 L 451,241 L 454,244 L 455,244 L 459,248 L 460,248 L 464,252 L 465,252 L 468,255 L 469,255 L 473,259 L 474,259 L 478,263 L 479,262 L 479,259 L 478,258 L 477,258 L 473,254 L 472,254 L 468,250 L 467,250 L 463,246 L 462,246 L 459,243 L 458,243 L 454,239 L 453,239 L 449,235 L 448,235 L 445,232 L 444,232 L 440,228 L 439,228 L 435,224 L 434,224 L 431,221 L 430,221 L 426,217 L 425,217 L 422,214 L 421,214 L 417,210 L 416,210 L 413,207 L 412,207 L 408,203 L 407,203 L 403,199 L 402,199 L 398,195 L 397,195 L 394,192 L 393,192 L 389,188 L 388,188 L 385,185 L 384,185 L 380,181 L 379,181 L 377,179 L 373,179 Z" fill="#c06018" stroke="none" /><path d="M 345,155 L 346,155 L 353,162 L 354,162 L 358,166 L 359,166 L 359,165 L 357,163 L 356,163 L 353,160 L 352,160 L 348,156 L 347,156 L 346,155 Z" fill="#c06018" stroke="none" /><path d="M 336,441 L 335,442 L 332,442 L 331,443 L 330,443 L 329,444 L 328,444 L 327,445 L 327,446 L 326,447 L 326,448 L 325,449 L 325,454 L 326,455 L 326,456 L 330,460 L 331,460 L 332,461 L 340,461 L 341,460 L 342,460 L 343,459 L 344,459 L 345,458 L 345,457 L 347,455 L 347,448 L 346,447 L 346,446 L 344,444 L 343,444 L 341,442 L 337,442 Z" fill="#d81818" stroke="none" /><path d="M 435,407 L 434,408 L 434,409 L 433,410 L 433,411 L 427,417 L 426,417 L 425,418 L 423,418 L 422,419 L 417,419 L 417,421 L 418,422 L 418,423 L 419,424 L 419,425 L 422,428 L 423,428 L 424,429 L 426,429 L 427,430 L 431,430 L 432,429 L 434,429 L 435,428 L 436,428 L 439,425 L 439,424 L 440,423 L 440,422 L 441,421 L 441,413 L 440,412 L 440,411 L 436,407 Z" fill="#d81818" stroke="none" /><path d="M 262,88 L 261,89 L 261,97 L 262,98 L 262,99 L 264,101 L 264,102 L 269,107 L 270,107 L 272,109 L 273,109 L 275,111 L 276,111 L 278,113 L 279,113 L 280,114 L 281,114 L 282,115 L 283,115 L 284,116 L 285,116 L 286,117 L 287,117 L 288,118 L 289,118 L 289,109 L 288,108 L 288,105 L 287,104 L 287,102 L 286,101 L 286,100 L 285,99 L 285,98 L 283,96 L 283,95 L 281,93 L 280,93 L 278,91 L 277,91 L 276,90 L 275,90 L 274,89 L 271,89 L 270,88 Z" fill="#d81818" stroke="none" /><path d="M 204,162 L 203,163 L 202,163 L 201,164 L 200,164 L 199,165 L 197,165 L 196,166 L 195,166 L 194,167 L 193,167 L 192,168 L 190,168 L 189,169 L 188,169 L 187,170 L 185,170 L 184,171 L 183,171 L 182,172 L 180,172 L 179,173 L 178,173 L 177,174 L 175,174 L 174,175 L 173,175 L 172,176 L 170,176 L 169,177 L 168,177 L 167,178 L 166,178 L 165,179 L 163,179 L 162,180 L 161,180 L 160,181 L 158,181 L 157,182 L 156,182 L 155,183 L 153,183 L 152,184 L 151,184 L 150,185 L 148,185 L 147,186 L 146,186 L 145,187 L 143,187 L 142,188 L 142,203 L 143,204 L 142,205 L 142,214 L 143,215 L 142,216 L 143,217 L 143,238 L 144,238 L 145,237 L 147,237 L 147,236 L 148,235 L 149,236 L 150,235 L 152,235 L 153,234 L 154,234 L 155,233 L 157,233 L 158,232 L 160,232 L 161,231 L 163,231 L 164,230 L 165,230 L 166,229 L 168,229 L 169,228 L 170,228 L 171,227 L 173,227 L 174,226 L 176,226 L 177,225 L 179,225 L 180,224 L 181,224 L 182,223 L 184,223 L 185,222 L 186,222 L 187,221 L 189,221 L 190,220 L 192,220 L 193,219 L 193,210 L 194,209 L 194,204 L 195,203 L 195,202 L 197,200 L 197,199 L 198,198 L 199,198 L 201,196 L 202,196 L 203,195 L 206,195 L 206,178 L 205,177 L 206,176 L 206,162 Z" fill="#f09018" stroke="none" /><path d="M 323,134 L 323,135 L 324,136 L 324,138 L 326,140 L 326,141 L 331,146 L 332,146 L 334,148 L 335,148 L 337,150 L 338,150 L 339,151 L 341,149 L 341,148 L 340,147 L 340,146 L 339,145 L 339,144 L 337,142 L 337,141 L 336,140 L 335,140 L 332,137 L 331,137 L 330,136 L 328,136 L 327,135 L 325,135 L 324,134 Z" fill="#f0d800" stroke="none" /><path d="M 302,119 L 301,120 L 299,120 L 298,121 L 297,121 L 296,122 L 295,122 L 291,126 L 291,127 L 290,128 L 290,129 L 289,130 L 289,140 L 290,141 L 290,143 L 291,144 L 291,145 L 292,146 L 292,147 L 294,149 L 294,150 L 299,155 L 300,155 L 301,156 L 305,156 L 308,153 L 308,152 L 311,149 L 311,148 L 313,146 L 313,145 L 315,143 L 315,142 L 316,141 L 316,140 L 317,139 L 317,138 L 316,137 L 316,130 L 317,129 L 317,128 L 318,127 L 319,127 L 319,126 L 318,125 L 317,125 L 314,122 L 313,122 L 312,121 L 311,121 L 310,120 L 307,120 L 306,119 Z" fill="#f0d800" stroke="none" /><path d="M 303,413 L 303,417 L 305,417 L 307,419 L 309,419 L 310,420 L 311,420 L 312,421 L 316,421 L 317,422 L 318,422 L 317,422 L 316,421 L 315,421 L 313,419 L 312,419 L 311,418 L 310,418 L 308,416 L 307,416 L 304,413 Z" fill="#f0d8d8" stroke="none" /><path d="M 361,408 L 361,414 L 360,415 L 363,415 L 364,416 L 365,416 L 366,417 L 373,417 L 374,416 L 376,416 L 377,415 L 378,415 L 380,413 L 381,413 L 380,413 L 379,412 L 377,412 L 376,411 L 373,411 L 372,410 L 369,410 L 368,409 L 363,409 L 362,408 Z" fill="#f0d8d8" stroke="none" /><path d="M 334,408 L 333,409 L 328,409 L 327,410 L 326,410 L 326,413 L 323,416 L 324,417 L 325,417 L 326,418 L 327,418 L 328,419 L 329,419 L 330,420 L 334,420 L 335,421 L 342,421 L 343,420 L 347,420 L 348,419 L 350,419 L 348,419 L 347,418 L 346,418 L 345,417 L 344,417 L 343,416 L 342,416 L 341,415 L 340,415 L 335,410 L 335,409 Z" fill="#f0d8d8" stroke="none" /><path d="M 379,364 L 378,365 L 377,365 L 376,366 L 376,368 L 375,369 L 374,369 L 372,371 L 373,371 L 374,372 L 376,372 L 377,373 L 381,373 L 382,374 L 390,374 L 391,375 L 392,375 L 391,375 L 390,374 L 389,374 L 387,372 L 386,372 L 379,365 Z" fill="#f0d8d8" stroke="none" /><path d="M 193,308 L 193,309 L 192,310 L 192,311 L 190,313 L 190,314 L 189,315 L 189,316 L 188,317 L 188,318 L 187,319 L 187,321 L 186,322 L 186,323 L 185,324 L 185,326 L 184,327 L 184,329 L 183,330 L 183,332 L 182,333 L 182,336 L 181,337 L 181,342 L 180,343 L 180,359 L 181,360 L 181,364 L 182,365 L 182,368 L 183,369 L 183,371 L 184,372 L 184,373 L 186,375 L 187,375 L 188,376 L 189,376 L 190,377 L 192,377 L 194,379 L 195,379 L 196,380 L 197,380 L 198,381 L 199,381 L 200,382 L 201,382 L 202,383 L 203,383 L 204,384 L 205,384 L 207,386 L 208,386 L 209,387 L 210,387 L 211,388 L 212,388 L 213,389 L 214,389 L 216,391 L 217,391 L 218,392 L 219,392 L 220,393 L 221,393 L 223,395 L 224,395 L 225,396 L 226,396 L 228,398 L 229,398 L 231,400 L 232,400 L 234,402 L 235,402 L 236,403 L 237,403 L 238,404 L 239,404 L 240,405 L 241,405 L 242,406 L 243,406 L 244,407 L 245,407 L 246,408 L 248,408 L 249,409 L 251,409 L 252,410 L 255,410 L 256,411 L 260,411 L 261,412 L 268,412 L 268,411 L 267,410 L 267,409 L 270,406 L 279,406 L 280,407 L 293,407 L 294,406 L 303,406 L 304,405 L 312,405 L 313,404 L 318,404 L 319,403 L 324,403 L 325,402 L 329,402 L 330,401 L 335,401 L 336,400 L 359,400 L 360,401 L 365,401 L 366,402 L 371,402 L 372,403 L 375,403 L 376,404 L 379,404 L 380,405 L 382,405 L 383,406 L 385,406 L 386,407 L 388,407 L 389,408 L 392,408 L 393,409 L 398,409 L 399,410 L 405,410 L 406,411 L 412,411 L 413,412 L 409,408 L 409,407 L 408,406 L 408,397 L 409,396 L 409,394 L 410,393 L 410,392 L 411,391 L 411,390 L 412,389 L 411,388 L 409,388 L 408,387 L 407,387 L 406,386 L 404,386 L 403,385 L 401,385 L 400,384 L 397,384 L 396,383 L 393,383 L 392,382 L 388,382 L 387,381 L 379,381 L 378,380 L 375,380 L 374,379 L 371,379 L 370,378 L 367,378 L 366,377 L 365,377 L 364,376 L 362,376 L 361,375 L 359,375 L 358,374 L 355,374 L 353,372 L 352,372 L 351,371 L 350,371 L 345,366 L 345,364 L 344,363 L 344,360 L 343,359 L 343,354 L 344,353 L 344,351 L 346,349 L 349,349 L 351,351 L 351,361 L 352,362 L 352,363 L 353,364 L 353,362 L 354,361 L 354,358 L 355,357 L 355,355 L 356,354 L 356,352 L 357,351 L 357,350 L 358,349 L 358,348 L 359,347 L 359,346 L 360,345 L 360,344 L 361,343 L 361,342 L 362,341 L 365,341 L 368,344 L 368,345 L 367,346 L 367,347 L 366,348 L 366,349 L 365,350 L 365,352 L 364,353 L 364,354 L 363,355 L 363,357 L 362,358 L 362,360 L 361,361 L 361,362 L 362,361 L 368,361 L 369,360 L 371,360 L 372,359 L 374,359 L 375,358 L 376,358 L 378,356 L 379,356 L 380,355 L 381,355 L 384,358 L 384,359 L 386,361 L 386,362 L 389,365 L 390,365 L 392,367 L 393,367 L 395,369 L 397,369 L 398,370 L 399,370 L 401,372 L 401,373 L 402,374 L 402,375 L 403,376 L 403,377 L 404,378 L 406,378 L 407,379 L 409,379 L 410,380 L 411,380 L 412,381 L 414,381 L 415,382 L 416,382 L 417,383 L 418,383 L 419,384 L 421,384 L 422,385 L 423,385 L 424,386 L 425,386 L 425,385 L 424,384 L 424,383 L 423,382 L 423,380 L 422,379 L 422,377 L 421,376 L 421,375 L 420,374 L 420,371 L 419,370 L 419,368 L 418,367 L 418,366 L 417,365 L 417,364 L 416,363 L 416,362 L 414,360 L 414,359 L 404,349 L 403,349 L 401,347 L 400,347 L 398,345 L 397,345 L 395,343 L 394,343 L 392,341 L 391,341 L 388,338 L 387,338 L 385,336 L 384,336 L 382,334 L 381,334 L 379,332 L 378,332 L 376,330 L 375,330 L 373,328 L 372,328 L 371,327 L 370,327 L 369,326 L 368,326 L 367,325 L 366,325 L 364,323 L 362,323 L 361,322 L 360,322 L 359,321 L 358,321 L 357,320 L 352,320 L 351,321 L 347,321 L 346,322 L 343,322 L 342,323 L 339,323 L 338,324 L 336,324 L 335,325 L 332,325 L 331,326 L 329,326 L 328,327 L 326,327 L 325,328 L 323,328 L 322,329 L 320,329 L 319,330 L 317,330 L 316,331 L 314,331 L 313,332 L 312,332 L 311,333 L 309,333 L 308,334 L 306,334 L 305,335 L 304,335 L 303,336 L 301,336 L 300,337 L 298,337 L 297,338 L 296,338 L 295,339 L 294,339 L 293,340 L 291,340 L 290,341 L 288,341 L 287,342 L 284,342 L 283,343 L 279,343 L 278,344 L 259,344 L 258,343 L 253,343 L 252,342 L 249,342 L 248,341 L 245,341 L 244,340 L 243,340 L 242,339 L 240,339 L 239,338 L 237,338 L 236,337 L 235,337 L 234,336 L 233,336 L 232,335 L 231,335 L 230,334 L 229,334 L 228,333 L 227,333 L 226,332 L 225,332 L 223,330 L 222,330 L 221,329 L 220,329 L 217,326 L 216,326 L 214,324 L 213,324 L 209,320 L 208,320 L 201,313 L 200,313 L 197,310 L 196,310 L 195,309 L 194,309 Z" fill="#f0d8d8" stroke="none" /><path d="M 210,201 L 209,202 L 206,202 L 205,203 L 204,203 L 202,205 L 202,206 L 201,207 L 201,215 L 200,216 L 200,230 L 201,231 L 201,232 L 202,233 L 202,234 L 205,237 L 206,237 L 208,239 L 214,239 L 220,233 L 220,232 L 221,231 L 221,206 L 218,203 L 217,203 L 216,202 L 212,202 L 211,201 Z" fill="#f0d8d8" stroke="none" /><path d="M 24,201 L 23,202 L 21,202 L 20,203 L 19,203 L 17,205 L 17,207 L 16,208 L 16,230 L 17,231 L 17,232 L 18,233 L 18,234 L 22,238 L 23,238 L 24,239 L 26,239 L 27,238 L 28,238 L 29,237 L 30,237 L 31,238 L 36,233 L 36,232 L 37,231 L 37,229 L 38,228 L 38,222 L 37,221 L 37,212 L 36,211 L 36,206 L 33,203 L 32,203 L 31,202 L 29,202 L 28,201 Z" fill="#f0d8d8" stroke="none" /><path d="M 371,192 L 368,195 L 368,200 L 369,201 L 369,206 L 370,207 L 370,210 L 373,213 L 373,214 L 382,223 L 383,223 L 387,227 L 388,227 L 390,229 L 391,229 L 393,231 L 394,231 L 396,233 L 397,233 L 398,234 L 399,234 L 400,235 L 401,235 L 402,236 L 403,236 L 404,237 L 405,237 L 406,238 L 407,238 L 409,240 L 410,240 L 415,245 L 415,246 L 419,250 L 419,251 L 421,253 L 421,254 L 423,256 L 423,257 L 425,259 L 425,260 L 426,261 L 426,262 L 428,264 L 428,265 L 429,266 L 429,267 L 430,268 L 430,269 L 431,270 L 431,271 L 432,272 L 432,273 L 434,275 L 434,276 L 437,279 L 437,280 L 439,282 L 439,283 L 442,286 L 442,287 L 446,291 L 446,292 L 449,295 L 449,296 L 452,299 L 452,300 L 456,300 L 457,299 L 458,299 L 459,298 L 460,298 L 461,297 L 462,297 L 464,295 L 465,295 L 473,287 L 473,286 L 476,283 L 476,282 L 477,281 L 477,280 L 479,278 L 479,277 L 480,276 L 480,275 L 481,274 L 481,273 L 482,272 L 482,271 L 483,270 L 483,268 L 481,270 L 480,270 L 479,271 L 477,271 L 476,270 L 475,270 L 469,264 L 468,264 L 465,261 L 464,261 L 460,257 L 459,257 L 456,254 L 455,254 L 451,250 L 450,250 L 446,246 L 445,246 L 442,243 L 441,243 L 437,239 L 436,239 L 433,236 L 432,236 L 428,232 L 427,232 L 423,228 L 422,228 L 418,224 L 417,224 L 413,220 L 412,220 L 409,217 L 408,217 L 407,216 L 406,216 L 403,219 L 399,219 L 398,218 L 396,218 L 394,216 L 393,216 L 390,213 L 389,213 L 382,206 L 382,205 L 381,204 L 381,202 L 380,201 L 380,199 L 379,198 L 379,197 L 378,196 L 378,194 L 377,193 L 376,193 L 375,192 Z" fill="#f0d8d8" stroke="none" /><path d="M 417,156 L 418,157 L 419,157 L 420,158 L 421,158 L 422,159 L 423,159 L 426,162 L 427,162 L 430,165 L 430,168 L 428,170 L 425,170 L 424,169 L 423,169 L 421,167 L 420,167 L 418,165 L 417,165 L 416,164 L 415,164 L 413,162 L 411,162 L 410,161 L 409,161 L 408,160 L 406,160 L 405,159 L 401,159 L 400,158 L 392,158 L 391,159 L 389,159 L 391,159 L 392,160 L 394,160 L 395,161 L 397,161 L 398,162 L 399,162 L 400,163 L 402,163 L 403,164 L 404,164 L 405,165 L 406,165 L 408,167 L 409,167 L 412,170 L 412,174 L 410,176 L 408,176 L 407,175 L 406,175 L 403,172 L 402,172 L 401,171 L 400,171 L 399,170 L 398,170 L 397,169 L 395,169 L 394,168 L 392,168 L 391,167 L 389,167 L 388,166 L 386,166 L 385,165 L 378,165 L 377,164 L 373,164 L 372,165 L 368,165 L 366,167 L 366,170 L 369,170 L 370,171 L 375,171 L 376,172 L 385,172 L 386,173 L 391,173 L 392,174 L 393,174 L 394,175 L 395,175 L 399,179 L 399,180 L 401,182 L 401,183 L 402,184 L 402,186 L 403,187 L 403,189 L 404,190 L 404,191 L 406,193 L 407,193 L 411,197 L 412,197 L 416,201 L 417,201 L 420,204 L 421,204 L 425,208 L 426,208 L 429,211 L 430,211 L 434,215 L 435,215 L 439,219 L 440,219 L 443,222 L 444,222 L 448,226 L 449,226 L 452,229 L 453,229 L 457,233 L 458,233 L 461,236 L 460,235 L 460,234 L 459,233 L 459,232 L 458,231 L 458,230 L 457,229 L 457,228 L 456,227 L 456,225 L 455,224 L 455,223 L 454,222 L 454,220 L 453,219 L 453,216 L 452,215 L 452,200 L 451,199 L 451,192 L 450,191 L 450,188 L 449,187 L 449,185 L 448,184 L 448,182 L 447,181 L 447,180 L 446,179 L 446,178 L 445,177 L 445,176 L 444,175 L 444,174 L 443,173 L 443,172 L 440,169 L 440,168 L 433,161 L 432,161 L 429,158 L 427,158 L 426,157 L 424,157 L 423,156 Z" fill="#f0d8d8" stroke="none" /><path d="M 51,106 L 51,108 L 50,109 L 50,112 L 51,113 L 51,115 L 52,116 L 52,112 L 51,111 Z" fill="#f0d8d8" stroke="none" /><path d="M 191,104 L 191,106 L 192,107 L 192,115 L 192,114 L 193,113 L 193,108 L 192,107 L 192,105 Z" fill="#f0d8d8" stroke="none" /><path d="M 117,33 L 116,34 L 111,34 L 110,35 L 107,35 L 106,36 L 104,36 L 103,37 L 102,37 L 101,38 L 100,38 L 99,39 L 98,39 L 97,40 L 96,40 L 95,41 L 94,41 L 92,43 L 91,43 L 88,46 L 87,46 L 78,55 L 78,56 L 75,59 L 75,60 L 73,62 L 73,63 L 71,65 L 71,66 L 70,67 L 70,68 L 69,69 L 69,70 L 68,71 L 68,72 L 67,73 L 67,75 L 66,76 L 66,77 L 65,78 L 65,80 L 64,81 L 64,83 L 63,84 L 63,87 L 62,88 L 62,91 L 61,92 L 61,97 L 60,98 L 60,123 L 61,124 L 61,129 L 62,130 L 62,133 L 63,134 L 63,137 L 64,138 L 64,140 L 65,141 L 65,143 L 66,144 L 66,145 L 67,146 L 67,147 L 68,147 L 70,149 L 71,149 L 72,150 L 73,150 L 75,152 L 76,152 L 77,153 L 78,153 L 79,154 L 80,154 L 82,156 L 83,156 L 84,157 L 85,157 L 86,158 L 87,158 L 89,160 L 90,160 L 91,161 L 92,161 L 93,162 L 94,162 L 96,164 L 97,164 L 98,165 L 99,165 L 101,167 L 102,167 L 103,168 L 104,168 L 105,169 L 106,169 L 108,171 L 109,171 L 110,172 L 111,172 L 112,173 L 113,173 L 115,175 L 116,175 L 117,176 L 118,176 L 120,178 L 121,178 L 123,176 L 124,176 L 126,174 L 127,174 L 128,173 L 129,173 L 131,171 L 132,171 L 134,169 L 135,169 L 136,168 L 137,168 L 139,166 L 140,166 L 141,165 L 142,165 L 144,163 L 145,163 L 147,161 L 148,161 L 149,160 L 150,160 L 152,158 L 153,158 L 155,156 L 156,156 L 157,155 L 158,155 L 160,153 L 161,153 L 162,152 L 163,152 L 165,150 L 166,150 L 168,148 L 169,148 L 170,147 L 171,147 L 173,145 L 174,145 L 176,143 L 177,143 L 178,142 L 179,142 L 179,140 L 180,139 L 180,136 L 181,135 L 181,133 L 182,132 L 182,128 L 183,127 L 183,121 L 184,120 L 184,101 L 183,100 L 183,94 L 182,93 L 182,89 L 181,88 L 181,85 L 180,84 L 180,82 L 179,81 L 179,79 L 178,78 L 178,76 L 177,75 L 177,74 L 176,73 L 176,72 L 175,71 L 175,70 L 174,69 L 174,68 L 173,67 L 173,66 L 172,65 L 172,64 L 170,62 L 170,61 L 168,59 L 168,58 L 164,54 L 164,53 L 159,48 L 158,48 L 154,44 L 153,44 L 151,42 L 150,42 L 148,40 L 147,40 L 146,39 L 145,39 L 144,38 L 143,38 L 142,37 L 140,37 L 139,36 L 137,36 L 136,35 L 133,35 L 132,34 L 127,34 L 126,33 Z" fill="#f0d8d8" stroke="none" /><path d="M 315,411 L 314,412 L 315,412 L 316,413 L 320,413 L 322,411 Z" fill="#f0f0f0" stroke="none" /><path d="M 352,407 L 351,408 L 350,408 L 349,409 L 348,409 L 347,410 L 348,410 L 349,411 L 350,411 L 351,412 L 353,412 L 354,413 L 355,413 L 357,411 L 357,409 L 356,408 L 356,407 Z" fill="#f0f0f0" stroke="none" /><path d="M 415,392 L 415,393 L 414,394 L 414,396 L 413,397 L 413,400 L 412,401 L 412,403 L 413,404 L 413,405 L 414,406 L 414,407 L 415,407 L 416,408 L 417,408 L 418,409 L 419,409 L 420,408 L 421,408 L 424,405 L 424,404 L 425,403 L 425,401 L 426,400 L 426,396 L 424,394 L 423,394 L 422,393 L 421,393 L 420,392 Z" fill="#f0f0f0" stroke="none" /><path d="M 37,148 L 38,149 L 38,150 L 39,150 L 40,151 L 41,151 L 42,152 L 44,152 L 45,153 L 47,153 L 48,154 L 49,154 L 50,155 L 52,155 L 53,156 L 54,156 L 53,156 L 52,155 L 51,155 L 50,154 L 49,154 L 48,153 L 47,153 L 46,152 L 45,152 L 44,151 L 42,151 L 41,150 L 40,150 L 39,149 L 38,149 Z" fill="#f0f0f0" stroke="none" /><path d="M 44,142 L 44,143 L 45,144 L 46,144 L 47,145 L 48,145 L 49,146 L 50,146 L 51,147 L 52,147 L 53,148 L 54,148 L 55,149 L 56,149 L 57,150 L 58,150 L 59,151 L 60,151 L 61,152 L 62,152 L 63,153 L 62,152 L 61,152 L 60,151 L 59,151 L 58,150 L 57,150 L 55,148 L 54,148 L 53,147 L 52,147 L 51,146 L 50,146 L 48,144 L 47,144 L 46,143 L 45,143 Z" fill="#f0f0f0" stroke="none" /><path d="M 198,138 L 196,140 L 195,140 L 193,142 L 192,142 L 191,143 L 190,143 L 188,145 L 187,145 L 186,146 L 185,146 L 184,147 L 185,146 L 186,146 L 187,145 L 188,145 L 189,144 L 190,144 L 191,143 L 192,143 L 193,142 L 194,142 L 195,141 L 196,141 L 197,140 L 198,140 L 199,139 L 199,138 Z" fill="#f0f0f0" stroke="none" /><path d="M 335,82 L 334,83 L 332,83 L 331,84 L 330,84 L 325,89 L 325,90 L 324,91 L 324,92 L 323,93 L 323,94 L 322,95 L 322,96 L 321,97 L 321,99 L 320,100 L 320,103 L 319,104 L 319,107 L 318,108 L 318,113 L 317,114 L 317,117 L 318,117 L 319,116 L 322,116 L 323,115 L 324,115 L 325,114 L 326,114 L 327,113 L 328,113 L 329,112 L 330,112 L 333,109 L 334,109 L 334,108 L 337,105 L 337,104 L 338,103 L 338,102 L 339,101 L 339,99 L 340,98 L 340,87 L 339,86 L 339,83 L 338,83 L 337,82 Z" fill="#f0f0f0" stroke="none" /></svg>