<?xml version="1.0" encoding="utf-8" ?>
<svg baseProfile="full" height="500" version="1.1" viewBox="0 0 500 500" width="500" xmlns="http://www.w3.org/2000/svg" xmlns:ev="http://www.w3.org/2001/xml-events" xmlns:xlink="http://www.w3.org/1999/xlink"><defs /><path d="M 233,25 L 232,26 L 223,26 L 222,27 L 216,27 L 215,28 L 210,28 L 209,29 L 205,29 L 204,30 L 201,30 L 200,31 L 196,31 L 195,32 L 193,32 L 192,33 L 190,33 L 189,34 L 186,34 L 185,35 L 183,35 L 182,36 L 180,36 L 179,37 L 177,37 L 176,38 L 175,38 L 174,39 L 172,39 L 171,40 L 170,40 L 169,41 L 167,41 L 166,42 L 165,42 L 164,43 L 163,43 L 162,44 L 160,44 L 159,45 L 158,45 L 157,46 L 156,46 L 155,47 L 154,47 L 153,48 L 152,48 L 151,49 L 150,49 L 149,50 L 148,50 L 146,52 L 145,52 L 144,53 L 143,53 L 141,55 L 140,55 L 139,56 L 138,56 L 136,58 L 135,58 L 133,60 L 132,60 L 130,62 L 129,62 L 127,64 L 126,64 L 123,67 L 122,67 L 119,70 L 118,70 L 113,75 L 112,75 L 101,86 L 100,86 L 100,87 L 92,95 L 91,95 L 91,96 L 88,99 L 88,100 L 84,104 L 84,105 L 81,108 L 81,109 L 78,112 L 78,113 L 76,115 L 76,116 L 74,118 L 74,119 L 72,121 L 72,122 L 69,125 L 69,127 L 67,129 L 67,130 L 66,131 L 66,132 L 65,133 L 65,134 L 63,136 L 63,137 L 62,138 L 62,139 L 61,140 L 61,141 L 60,142 L 60,143 L 59,144 L 59,146 L 58,147 L 58,148 L 57,149 L 56,149 L 57,150 L 56,151 L 56,152 L 55,153 L 55,155 L 54,156 L 54,157 L 53,158 L 53,160 L 52,161 L 52,162 L 51,163 L 51,165 L 50,166 L 50,168 L 49,169 L 49,171 L 47,173 L 48,174 L 48,175 L 47,176 L 47,178 L 46,179 L 46,182 L 45,183 L 44,183 L 45,184 L 45,186 L 44,187 L 44,190 L 43,191 L 43,196 L 42,197 L 42,201 L 41,202 L 41,209 L 40,210 L 40,219 L 39,220 L 39,246 L 38,247 L 39,248 L 39,249 L 40,250 L 40,260 L 41,261 L 41,267 L 42,268 L 42,273 L 43,274 L 43,278 L 44,279 L 44,283 L 45,284 L 45,287 L 46,288 L 46,291 L 47,292 L 47,294 L 48,295 L 48,297 L 49,298 L 49,300 L 50,301 L 50,303 L 51,304 L 51,306 L 52,307 L 52,309 L 53,310 L 53,311 L 54,312 L 54,314 L 55,315 L 55,317 L 56,318 L 56,319 L 57,320 L 57,321 L 58,322 L 58,323 L 59,324 L 59,325 L 60,326 L 60,327 L 61,328 L 61,329 L 62,330 L 62,331 L 63,332 L 63,333 L 64,334 L 64,335 L 65,336 L 65,337 L 66,338 L 66,339 L 67,340 L 67,341 L 69,343 L 69,345 L 70,345 L 71,346 L 71,347 L 73,349 L 73,350 L 74,351 L 74,352 L 76,354 L 76,355 L 79,358 L 79,359 L 82,362 L 82,363 L 85,366 L 85,367 L 90,372 L 90,373 L 110,393 L 111,393 L 117,399 L 118,399 L 121,402 L 122,402 L 125,405 L 126,405 L 128,407 L 128,408 L 129,407 L 132,410 L 133,410 L 135,412 L 136,412 L 137,413 L 138,413 L 140,415 L 141,415 L 142,416 L 143,416 L 145,418 L 146,418 L 147,419 L 148,419 L 149,420 L 150,420 L 151,421 L 151,422 L 152,421 L 153,422 L 154,422 L 155,423 L 156,423 L 158,425 L 160,425 L 161,426 L 162,426 L 163,427 L 164,427 L 165,428 L 167,428 L 168,429 L 169,429 L 170,430 L 172,430 L 173,431 L 174,431 L 175,432 L 177,432 L 178,433 L 180,433 L 181,434 L 183,434 L 184,435 L 186,435 L 187,436 L 189,436 L 190,437 L 193,437 L 194,438 L 197,438 L 198,439 L 201,439 L 202,440 L 202,441 L 203,440 L 205,440 L 206,441 L 207,441 L 208,442 L 208,444 L 207,445 L 208,446 L 207,447 L 208,448 L 207,449 L 208,450 L 207,451 L 208,452 L 207,453 L 208,454 L 207,455 L 208,456 L 207,457 L 208,458 L 207,459 L 208,460 L 208,461 L 290,461 L 291,460 L 290,459 L 291,458 L 290,457 L 291,456 L 290,455 L 291,454 L 290,453 L 291,452 L 290,451 L 291,450 L 290,449 L 291,448 L 290,447 L 291,446 L 290,445 L 291,444 L 290,443 L 290,442 L 291,441 L 292,441 L 293,440 L 296,440 L 297,439 L 298,439 L 299,440 L 300,439 L 301,439 L 302,438 L 304,438 L 305,437 L 309,437 L 310,436 L 311,436 L 312,435 L 313,435 L 314,436 L 314,435 L 315,434 L 317,434 L 318,433 L 320,433 L 321,432 L 323,432 L 324,431 L 325,431 L 326,430 L 329,430 L 330,429 L 331,429 L 332,428 L 334,428 L 336,426 L 337,426 L 338,425 L 339,425 L 340,424 L 341,424 L 342,423 L 343,423 L 344,422 L 345,422 L 346,421 L 347,421 L 348,420 L 349,420 L 350,419 L 351,420 L 351,419 L 352,418 L 353,418 L 355,416 L 356,416 L 357,415 L 358,415 L 359,414 L 360,414 L 362,412 L 363,412 L 365,410 L 366,410 L 368,408 L 369,408 L 372,405 L 373,405 L 375,403 L 376,403 L 380,399 L 381,399 L 382,398 L 383,398 L 383,397 L 387,393 L 388,393 L 407,374 L 408,374 L 407,373 L 412,368 L 413,368 L 413,366 L 417,362 L 417,361 L 419,359 L 419,358 L 422,355 L 422,354 L 424,352 L 425,352 L 424,351 L 426,349 L 426,348 L 427,347 L 427,346 L 429,344 L 429,343 L 430,342 L 431,342 L 430,341 L 432,339 L 432,338 L 434,336 L 434,334 L 435,333 L 435,332 L 437,330 L 437,328 L 438,327 L 438,326 L 439,325 L 439,324 L 440,323 L 440,322 L 441,321 L 441,320 L 442,319 L 442,318 L 443,317 L 443,315 L 444,314 L 445,314 L 444,313 L 445,312 L 445,310 L 447,308 L 446,307 L 447,306 L 448,306 L 447,305 L 447,304 L 448,303 L 448,302 L 449,301 L 449,298 L 450,297 L 450,295 L 451,294 L 451,292 L 452,291 L 452,288 L 453,287 L 453,284 L 454,283 L 454,279 L 455,278 L 455,274 L 456,273 L 456,268 L 457,267 L 457,261 L 458,260 L 458,250 L 459,249 L 459,220 L 458,219 L 458,210 L 457,209 L 457,202 L 456,201 L 457,200 L 456,199 L 456,197 L 455,196 L 455,192 L 454,191 L 454,187 L 453,186 L 453,183 L 452,182 L 452,179 L 451,178 L 451,176 L 450,175 L 450,172 L 449,171 L 449,169 L 448,168 L 448,166 L 447,165 L 447,162 L 445,160 L 445,158 L 444,157 L 444,156 L 443,155 L 443,153 L 442,152 L 442,151 L 441,150 L 441,149 L 440,148 L 440,147 L 439,146 L 439,144 L 438,143 L 438,142 L 437,141 L 437,140 L 436,139 L 436,138 L 434,136 L 434,134 L 432,132 L 432,131 L 431,130 L 431,129 L 429,127 L 429,126 L 428,125 L 428,124 L 426,122 L 426,121 L 424,119 L 424,118 L 422,116 L 422,115 L 419,112 L 419,111 L 417,109 L 417,108 L 414,105 L 414,104 L 413,103 L 413,102 L 412,102 L 409,99 L 409,98 L 408,97 L 408,96 L 407,96 L 399,88 L 399,87 L 398,87 L 397,86 L 397,85 L 396,85 L 386,75 L 385,75 L 381,71 L 380,71 L 376,67 L 375,67 L 372,64 L 371,64 L 369,62 L 368,62 L 366,60 L 365,60 L 363,58 L 362,58 L 360,56 L 359,56 L 357,54 L 356,54 L 355,53 L 354,53 L 353,52 L 352,52 L 351,51 L 350,51 L 348,49 L 347,49 L 346,48 L 345,48 L 344,47 L 343,47 L 342,46 L 341,46 L 340,45 L 339,45 L 338,44 L 336,44 L 335,43 L 334,43 L 333,42 L 332,42 L 331,41 L 329,41 L 328,40 L 327,40 L 326,39 L 324,39 L 323,38 L 322,38 L 321,37 L 319,37 L 318,36 L 316,36 L 315,35 L 313,35 L 312,34 L 310,34 L 309,33 L 306,33 L 305,32 L 302,32 L 301,31 L 298,31 L 297,30 L 294,30 L 293,29 L 289,29 L 288,28 L 283,28 L 282,27 L 276,27 L 275,26 L 266,26 L 265,25 Z" fill="#000000" stroke="none" /><path d="M 236,53 L 235,54 L 226,54 L 225,55 L 219,55 L 218,56 L 214,56 L 213,57 L 209,57 L 208,58 L 205,58 L 204,59 L 201,59 L 200,60 L 197,60 L 196,61 L 194,61 L 193,62 L 191,62 L 190,63 L 188,63 L 187,64 L 186,64 L 185,65 L 183,65 L 182,66 L 180,66 L 179,67 L 178,67 L 177,68 L 176,68 L 175,69 L 174,69 L 173,70 L 171,70 L 170,71 L 169,71 L 168,72 L 167,72 L 166,73 L 165,73 L 164,74 L 163,74 L 161,76 L 160,76 L 159,77 L 158,77 L 157,78 L 156,78 L 154,80 L 153,80 L 151,82 L 150,82 L 149,83 L 148,83 L 145,86 L 144,86 L 142,88 L 141,88 L 138,91 L 137,91 L 133,95 L 132,95 L 123,104 L 122,104 L 119,107 L 119,108 L 109,118 L 109,119 L 105,123 L 105,124 L 102,127 L 102,128 L 100,130 L 100,131 L 98,133 L 98,134 L 96,136 L 96,137 L 94,139 L 94,140 L 92,142 L 92,143 L 91,144 L 91,145 L 90,146 L 90,147 L 89,148 L 89,149 L 87,151 L 87,152 L 86,153 L 86,154 L 85,155 L 85,156 L 84,157 L 84,159 L 83,160 L 83,161 L 82,162 L 82,163 L 81,164 L 81,166 L 80,167 L 80,168 L 79,169 L 79,171 L 78,172 L 78,173 L 77,174 L 77,176 L 76,177 L 76,179 L 75,180 L 75,183 L 74,184 L 74,186 L 73,187 L 73,190 L 72,191 L 72,194 L 71,195 L 71,199 L 70,200 L 70,205 L 69,206 L 69,211 L 68,212 L 68,222 L 67,223 L 67,247 L 68,248 L 68,257 L 69,258 L 69,264 L 70,265 L 70,270 L 71,271 L 71,274 L 72,275 L 72,279 L 73,280 L 73,283 L 74,284 L 74,286 L 75,287 L 75,289 L 76,290 L 76,292 L 77,293 L 77,295 L 78,296 L 78,298 L 79,299 L 79,301 L 80,302 L 80,303 L 81,304 L 81,306 L 82,307 L 82,308 L 83,309 L 83,310 L 84,311 L 84,312 L 85,313 L 85,314 L 86,315 L 86,316 L 87,317 L 87,318 L 88,319 L 88,320 L 89,321 L 89,322 L 90,323 L 90,324 L 91,325 L 91,326 L 93,328 L 93,329 L 94,330 L 94,331 L 96,333 L 96,334 L 98,336 L 98,337 L 100,339 L 100,340 L 103,343 L 103,344 L 106,347 L 106,348 L 111,353 L 111,354 L 130,373 L 131,373 L 136,378 L 137,378 L 140,381 L 141,381 L 144,384 L 145,384 L 147,386 L 148,386 L 150,388 L 151,388 L 153,390 L 154,390 L 155,391 L 156,391 L 157,392 L 158,392 L 160,394 L 161,394 L 162,395 L 163,395 L 164,396 L 165,396 L 166,397 L 167,397 L 168,398 L 169,398 L 170,399 L 171,399 L 172,400 L 173,400 L 174,401 L 175,401 L 176,402 L 177,402 L 178,403 L 180,403 L 181,404 L 183,404 L 184,405 L 185,405 L 186,406 L 188,406 L 189,407 L 191,407 L 192,408 L 194,408 L 195,409 L 197,409 L 198,410 L 201,410 L 202,411 L 205,411 L 206,412 L 209,412 L 210,413 L 214,413 L 215,414 L 219,414 L 220,415 L 227,415 L 228,416 L 238,416 L 239,417 L 260,417 L 261,416 L 270,416 L 271,415 L 278,415 L 279,414 L 283,414 L 284,413 L 288,413 L 289,412 L 292,412 L 293,411 L 296,411 L 297,410 L 300,410 L 301,409 L 303,409 L 304,408 L 306,408 L 307,407 L 309,407 L 310,406 L 312,406 L 313,405 L 314,405 L 315,404 L 317,404 L 318,403 L 320,403 L 321,402 L 322,402 L 323,401 L 324,401 L 325,400 L 326,400 L 327,399 L 328,399 L 329,398 L 330,398 L 331,397 L 332,397 L 333,396 L 334,396 L 335,395 L 336,395 L 337,394 L 338,394 L 339,393 L 340,393 L 342,391 L 343,391 L 344,390 L 345,390 L 347,388 L 348,388 L 350,386 L 351,386 L 353,384 L 354,384 L 357,381 L 358,381 L 361,378 L 362,378 L 367,373 L 368,373 L 388,353 L 388,352 L 392,348 L 392,347 L 395,344 L 395,343 L 398,340 L 398,339 L 400,337 L 400,336 L 402,334 L 402,333 L 404,331 L 404,330 L 405,329 L 405,328 L 407,326 L 407,325 L 408,324 L 408,323 L 409,322 L 409,321 L 410,320 L 410,319 L 411,318 L 411,317 L 412,316 L 412,315 L 413,314 L 413,313 L 414,312 L 414,311 L 415,310 L 415,309 L 416,308 L 416,307 L 417,306 L 417,304 L 418,303 L 418,302 L 419,301 L 419,299 L 420,298 L 420,296 L 421,295 L 421,293 L 422,292 L 422,290 L 423,289 L 423,287 L 424,286 L 424,284 L 425,283 L 425,280 L 426,279 L 426,275 L 427,274 L 427,271 L 428,270 L 428,265 L 429,264 L 429,258 L 430,257 L 430,248 L 431,247 L 431,223 L 430,222 L 430,213 L 429,212 L 429,206 L 428,205 L 428,200 L 427,199 L 427,195 L 426,194 L 426,191 L 425,190 L 425,187 L 424,186 L 424,184 L 423,183 L 423,180 L 422,179 L 422,177 L 421,176 L 421,174 L 420,173 L 420,172 L 419,171 L 419,169 L 418,168 L 418,167 L 417,166 L 417,164 L 416,163 L 416,162 L 415,161 L 415,160 L 414,159 L 414,157 L 413,156 L 413,155 L 412,154 L 412,153 L 411,152 L 411,151 L 409,149 L 409,148 L 408,147 L 408,146 L 407,145 L 407,144 L 406,143 L 406,142 L 404,140 L 404,139 L 402,137 L 402,136 L 401,135 L 401,134 L 398,131 L 398,130 L 396,128 L 396,127 L 393,124 L 393,123 L 389,119 L 389,118 L 380,109 L 380,108 L 375,103 L 374,103 L 366,95 L 365,95 L 361,91 L 360,91 L 357,88 L 356,88 L 353,85 L 352,85 L 350,83 L 349,83 L 348,82 L 347,82 L 345,80 L 344,80 L 342,78 L 341,78 L 340,77 L 339,77 L 338,76 L 337,76 L 335,74 L 334,74 L 333,73 L 332,73 L 331,72 L 330,72 L 329,71 L 328,71 L 327,70 L 326,70 L 325,69 L 323,69 L 322,68 L 321,68 L 320,67 L 319,67 L 318,66 L 316,66 L 315,65 L 314,65 L 313,64 L 311,64 L 310,63 L 308,63 L 307,62 L 305,62 L 304,61 L 302,61 L 301,60 L 298,60 L 297,59 L 294,59 L 293,58 L 290,58 L 289,57 L 286,57 L 285,56 L 280,56 L 279,55 L 273,55 L 272,54 L 263,54 L 262,53 Z" fill="#f0f0f0" stroke="none" /></svg>