<?xml version="1.0" encoding="UTF-8"?>
<!-- Generator: visioncortex VTracer -->
<svg id="svg" version="1.1" xmlns="http://www.w3.org/2000/svg" style="display: block;" viewBox="0 0 500 500"><path d="M0 0 C14.6240019 11.7916 25.73231913 27.78998447 28.25927734 46.72021484 C29.8920736 67.73916716 26.3953447 86.18790488 13.38427734 103.15771484 C5.01817363 112.81838006 -4.1094071 119.54604174 -15.74072266 124.72021484 C-16.73072266 124.72021484 -17.72072266 124.72021484 -18.74072266 124.72021484 C-18.41072266 136.93021484 -18.08072266 149.14021484 -17.74072266 161.72021484 C-13.12072266 164.03021484 -8.50072266 166.34021484 -3.74072266 168.72021484 C-0.19537115 171.32828952 3.02079982 173.80209031 6.25927734 176.72021484 C6.89349609 177.27322266 7.52771484 177.82623047 8.18115234 178.39599609 C21.34335318 190.59723979 28.22473662 208.99813464 29.18457031 226.60131836 C29.88860581 247.16643798 22.03921104 265.6785637 8.25927734 280.72021484 C1.81401305 286.92592064 -10.32864165 296.72021484 -19.74072266 296.72021484 C-19.41072266 308.93021484 -19.08072266 321.14021484 -18.74072266 333.72021484 C-15.77072266 335.04021484 -12.80072266 336.36021484 -9.74072266 337.72021484 C8.22828754 346.66490677 19.47863847 361.90780577 26.26318359 380.46630859 C32.28200601 400.03475057 28.75160619 419.85052895 19.73193359 437.75146484 C12.99264057 449.21979722 2.91454164 458.43782527 -8.74072266 464.72021484 C-9.61212891 465.19072266 -10.48353516 465.66123047 -11.38134766 466.14599609 C-27.47093018 474.12021901 -46.93016728 475.3947212 -64.05322266 470.09912109 C-76.64085312 465.39209403 -86.50164249 459.52551667 -95.74072266 449.72021484 C-96.48966797 448.92873047 -97.23861328 448.13724609 -98.01025391 447.32177734 C-111.33058895 431.98938404 -114.91172361 413.09978254 -113.94775391 393.33496094 C-112.47545101 374.74019208 -102.41301463 357.97009732 -88.49072266 345.97021484 C-74.1393713 334.72021484 -74.1393713 334.72021484 -66.74072266 334.72021484 C-67.07072266 322.18021484 -67.40072266 309.64021484 -67.74072266 296.72021484 C-73.02072266 294.08021484 -78.30072266 291.44021484 -83.74072266 288.72021484 C-99.03044408 276.07679136 -111.03683305 260.9758934 -113.74072266 240.72021484 C-115.39823064 219.38314903 -111.7848831 200.74346735 -98.30322266 183.72021484 C-96.81227458 182.02676108 -95.29267682 180.35794195 -93.74072266 178.72021484 C-93.06654297 178.00478516 -92.39236328 177.28935547 -91.69775391 176.55224609 C-84.88117203 169.94028956 -75.75388844 164.72460344 -66.74072266 161.72021484 C-66.74072266 149.84021484 -66.74072266 137.96021484 -66.74072266 125.72021484 C-72.02072266 123.08021484 -77.30072266 120.44021484 -82.74072266 117.72021484 C-99.17601879 105.95403693 -110.16454189 89.79828564 -113.74072266 69.72021484 C-115.25518606 48.8352423 -112.37564225 29.48987684 -98.64306641 12.87255859 C-73.55596136 -15.51141446 -31.56657702 -23.20785368 0 0 Z " transform="translate(292.74072265625,20.27978515625)" style="fill: #EAA800;"/><path d="M0 0 C12.71935125 10.35149839 21.92028352 23.97143873 24.12109375 40.4921875 C24.23024137 41.96967363 24.31249115 43.44933477 24.37109375 44.9296875 C24.43103516 46.22326172 24.43103516 46.22326172 24.4921875 47.54296875 C24.9398201 66.15921866 18.15228495 82.27109698 5.52734375 95.8671875 C-2.31917671 103.37255489 -11.97376036 108.79865832 -22.62890625 110.9296875 C-22.95890625 121.1596875 -23.28890625 131.3896875 -23.62890625 141.9296875 C-25.93890625 141.2696875 -28.24890625 140.6096875 -30.62890625 139.9296875 C-31.61890625 140.9196875 -32.60890625 141.9096875 -33.62890625 142.9296875 C-33.95890625 142.2696875 -34.28890625 141.6096875 -34.62890625 140.9296875 C-35.61890625 140.9296875 -36.60890625 140.9296875 -37.62890625 140.9296875 C-38.28890625 140.9296875 -38.94890625 140.9296875 -39.62890625 140.9296875 C-39.95890625 141.5896875 -40.28890625 142.2496875 -40.62890625 142.9296875 C-40.62890625 142.2696875 -40.62890625 141.6096875 -40.62890625 140.9296875 C-41.28890625 140.9296875 -41.94890625 140.9296875 -42.62890625 140.9296875 C-42.29890625 141.9196875 -41.96890625 142.9096875 -41.62890625 143.9296875 C-42.61890625 143.9296875 -43.60890625 143.9296875 -44.62890625 143.9296875 C-45.28890625 142.9396875 -45.94890625 141.9496875 -46.62890625 140.9296875 C-48.60890625 141.2596875 -50.58890625 141.5896875 -52.62890625 141.9296875 C-52.62890625 131.6996875 -52.62890625 121.4696875 -52.62890625 110.9296875 C-55.26890625 110.5996875 -57.90890625 110.2696875 -60.62890625 109.9296875 C-77.17052669 103.81647995 -89.29688845 90.92580016 -97.1875 75.4375 C-104.05094463 58.7345914 -103.35816425 40.4501939 -96.62890625 23.9296875 C-92.97652309 16.16045627 -87.6003178 10.0286025 -81.62890625 3.9296875 C-81.11070312 3.37539063 -80.5925 2.82109375 -80.05859375 2.25 C-58.44520571 -18.68443345 -23.10756847 -17.22900305 0 0 Z M-44.62890625 138.9296875 C-43.62890625 140.9296875 -43.62890625 140.9296875 -43.62890625 140.9296875 Z " transform="translate(288.62890625,28.0703125)" style="fill: #BDCD00;"/><path d="M0 0 C14.6240019 11.7916 25.73231913 27.78998447 28.25927734 46.72021484 C29.8920736 67.73916716 26.3953447 86.18790488 13.38427734 103.15771484 C5.01817363 112.81838006 -4.1094071 119.54604174 -15.74072266 124.72021484 C-16.73072266 124.72021484 -17.72072266 124.72021484 -18.74072266 124.72021484 C-18.41072266 136.93021484 -18.08072266 149.14021484 -17.74072266 161.72021484 C-13.12072266 164.03021484 -8.50072266 166.34021484 -3.74072266 168.72021484 C-0.19537115 171.32828952 3.02079982 173.80209031 6.25927734 176.72021484 C6.89349609 177.27322266 7.52771484 177.82623047 8.18115234 178.39599609 C21.34335318 190.59723979 28.22473662 208.99813464 29.18457031 226.60131836 C29.88860581 247.16643798 22.03921104 265.6785637 8.25927734 280.72021484 C1.81401305 286.92592064 -10.32864165 296.72021484 -19.74072266 296.72021484 C-19.41072266 308.93021484 -19.08072266 321.14021484 -18.74072266 333.72021484 C-15.77072266 335.04021484 -12.80072266 336.36021484 -9.74072266 337.72021484 C8.22828754 346.66490677 19.47863847 361.90780577 26.26318359 380.46630859 C32.28200601 400.03475057 28.75160619 419.85052895 19.73193359 437.75146484 C12.99264057 449.21979722 2.91454164 458.43782527 -8.74072266 464.72021484 C-9.61212891 465.19072266 -10.48353516 465.66123047 -11.38134766 466.14599609 C-27.47093018 474.12021901 -46.93016728 475.3947212 -64.05322266 470.09912109 C-76.64085312 465.39209403 -86.50164249 459.52551667 -95.74072266 449.72021484 C-96.48966797 448.92873047 -97.23861328 448.13724609 -98.01025391 447.32177734 C-111.33058895 431.98938404 -114.91172361 413.09978254 -113.94775391 393.33496094 C-112.47545101 374.74019208 -102.41301463 357.97009732 -88.49072266 345.97021484 C-74.1393713 334.72021484 -74.1393713 334.72021484 -66.74072266 334.72021484 C-67.07072266 322.18021484 -67.40072266 309.64021484 -67.74072266 296.72021484 C-73.02072266 294.08021484 -78.30072266 291.44021484 -83.74072266 288.72021484 C-99.03044408 276.07679136 -111.03683305 260.9758934 -113.74072266 240.72021484 C-115.39823064 219.38314903 -111.7848831 200.74346735 -98.30322266 183.72021484 C-96.81227458 182.02676108 -95.29267682 180.35794195 -93.74072266 178.72021484 C-93.06654297 178.00478516 -92.39236328 177.28935547 -91.69775391 176.55224609 C-84.88117203 169.94028956 -75.75388844 164.72460344 -66.74072266 161.72021484 C-66.74072266 149.84021484 -66.74072266 137.96021484 -66.74072266 125.72021484 C-72.02072266 123.08021484 -77.30072266 120.44021484 -82.74072266 117.72021484 C-99.17601879 105.95403693 -110.16454189 89.79828564 -113.74072266 69.72021484 C-115.25518606 48.8352423 -112.37564225 29.48987684 -98.64306641 12.87255859 C-73.55596136 -15.51141446 -31.56657702 -23.20785368 0 0 Z M-88.74072266 14.72021484 C-89.37623047 15.33380859 -90.01173828 15.94740234 -90.66650391 16.57958984 C-101.08258614 27.38829602 -106.27347813 42.66137587 -106.09033203 57.45922852 C-105.416188 76.80215155 -98.61121539 92.47448489 -84.36572266 105.97021484 C-76.00676581 113.04317833 -67.5868329 117.49740316 -56.74072266 118.72021484 C-56.85840094 125.19821205 -56.98323087 131.67604313 -57.11303711 138.15380859 C-57.15635275 140.35755284 -57.19803024 142.56132992 -57.23803711 144.76513672 C-57.29582109 147.93255508 -57.35949241 151.09980871 -57.42431641 154.26708984 C-57.44938515 155.7454129 -57.44938515 155.7454129 -57.47496033 157.25360107 C-57.49490555 158.17425354 -57.51485077 159.09490601 -57.53540039 160.04345703 C-57.55094467 160.85175964 -57.56648895 161.66006226 -57.58250427 162.49285889 C-57.737744 164.67828215 -58.14081075 166.61730065 -58.74072266 168.72021484 C-59.79259766 168.90583984 -60.84447266 169.09146484 -61.92822266 169.28271484 C-77.81359927 173.35229012 -89.7129767 184.57460621 -97.86572266 198.32568359 C-100.27626713 202.68977348 -102.26047676 206.96052914 -103.74072266 211.72021484 C-103.96373047 212.40857422 -104.18673828 213.09693359 -104.41650391 213.80615234 C-109.00771568 230.60936277 -105.09633512 247.24495361 -96.78125 261.95654297 C-94.45093981 265.90636953 -91.87169175 269.37443914 -88.74072266 272.72021484 C-88.04849609 273.46529297 -87.35626953 274.21037109 -86.64306641 274.97802734 C-78.44259083 283.05529044 -68.31048579 287.49230959 -57.74072266 291.72021484 C-57.74072266 307.89021484 -57.74072266 324.06021484 -57.74072266 340.72021484 C-60.05072266 341.05021484 -62.36072266 341.38021484 -64.74072266 341.72021484 C-81.56405328 348.01771829 -93.88877021 360.95603961 -101.26416016 377.08740234 C-107.54125401 392.53104594 -107.77721639 409.21576815 -101.74072266 424.72021484 C-95.85350123 438.39840592 -86.51475376 449.04715047 -73.74072266 456.72021484 C-73.13357422 457.10564453 -72.52642578 457.49107422 -71.90087891 457.88818359 C-58.0206251 465.81541826 -40.50449175 466.53062066 -25.32275391 462.88427734 C-14.14498728 459.25180793 -4.9204079 453.13915962 3.25927734 444.72021484 C3.89220703 444.10791016 4.52513672 443.49560547 5.17724609 442.86474609 C16.69883701 430.93621156 20.71938549 414.48831931 20.53271484 398.34130859 C19.20667262 380.78072091 11.65173247 364.27587194 -1.74072266 352.72021484 C-9.89695192 346.24909782 -17.63600617 343.08845367 -27.74072266 339.72021484 C-28.07072266 323.88021484 -28.40072266 308.04021484 -28.74072266 291.72021484 C-26.76072266 291.06021484 -24.78072266 290.40021484 -22.74072266 289.72021484 C-4.83174087 282.64669689 7.86701858 270.92838005 16.25927734 253.72021484 C22.072678 240.21616958 22.40523539 222.36574119 17.45068359 208.60693359 C17.05751953 207.65431641 16.66435547 206.70169922 16.25927734 205.72021484 C15.7159375 204.39957031 15.7159375 204.39957031 15.16162109 203.05224609 C8.66435174 188.84635209 -2.15655564 178.90766548 -16.15673828 172.50878906 C-16.81996094 172.20215332 -17.48318359 171.89551758 -18.16650391 171.57958984 C-18.75858643 171.31629883 -19.35066895 171.05300781 -19.96069336 170.78173828 C-22.55818235 169.23272139 -23.94918572 168.23844139 -25.74072266 165.72021484 C-26.36495721 162.17014081 -26.34571015 158.64587676 -26.35009766 155.04833984 C-26.36663391 154.01078552 -26.38317017 152.9732312 -26.40020752 151.90423584 C-26.4487625 148.59283574 -26.47007567 145.28189514 -26.49072266 141.97021484 C-26.51887597 139.72409788 -26.54880249 137.4780024 -26.58056641 135.23193359 C-26.65452328 129.72811097 -26.70612186 124.22441797 -26.74072266 118.72021484 C-26.05360703 118.51819962 -25.36649139 118.31618439 -24.65855408 118.10804749 C-23.30691917 117.70736305 -23.30691917 117.70736305 -21.92797852 117.29858398 C-21.03461288 117.03469376 -20.14124725 116.77080353 -19.22080994 116.49891663 C-3.74529217 111.63988873 6.76954525 99.51380479 14.25927734 85.72021484 C21.41061041 70.36110178 22.3146168 52.77282564 17.29443359 36.61474609 C10.77592997 19.64907841 -1.60636058 7.51408155 -17.74072266 -0.27978516 C-43.27823667 -10.56614121 -69.40027576 -4.85984821 -88.74072266 14.72021484 Z " transform="translate(292.74072265625,20.27978515625)" style="fill: #030200;"/><path d="M0 0 C8.70108407 6.23024187 14.86840619 14.39199019 17 25 C18.08023673 37.77717502 15.18160034 47.56690069 7.3125 57.6875 C1.05122502 64.62654185 -7.78143014 68.81264772 -17.0859375 69.3359375 C-25.1125328 69.50437291 -32.07945681 69.56190908 -39 65 C-39.69351563 64.55269531 -40.38703125 64.10539062 -41.1015625 63.64453125 C-48.86642234 58.22076211 -55.18058825 51.04871441 -57.58984375 41.71484375 C-59.53117592 28.8650737 -57.73998737 18.50276216 -50 8 C-38.03112416 -6.75447098 -16.09232041 -9.78811241 0 0 Z " transform="translate(272,218)" style="fill: #FBFBFB;"/><path d="M0 0 C9.6040647 5.85779833 16.77971904 13.74442161 19.75390625 24.6796875 C21.15338489 36.07871017 20.440849 46.03446593 13.75390625 55.6796875 C13.29757812 56.36289062 12.84125 57.04609375 12.37109375 57.75 C6.86389188 65.01950647 -2.38296411 69.91860962 -11.24609375 71.6796875 C-21.47907372 72.97682581 -30.70273442 70.65217661 -39.11328125 64.625 C-44.21694702 60.24826585 -48.25121338 55.70597117 -51.24609375 49.6796875 C-52.14328125 47.9471875 -52.14328125 47.9471875 -53.05859375 46.1796875 C-56.32245465 36.59563352 -55.19842937 25.33706523 -50.8515625 16.36328125 C-40.2268332 -1.39630276 -19.05621708 -9.17809639 0 0 Z " transform="translate(268.24609375,389.3203125)" style="fill: #FAFAFA;"/><path d="M0 0 C7.68992924 5.59151261 12.96317335 12.26388853 15.53515625 21.45703125 C15.97082336 24.38791314 16.06047227 27.24665923 16.03515625 30.20703125 C16.02943604 30.99126465 16.02371582 31.77549805 16.01782227 32.58349609 C15.716636 42.47498026 12.29012467 50.6076919 5.41796875 57.77734375 C2.35618983 60.50880627 -0.82250201 62.58260977 -4.46484375 64.45703125 C-5.61984375 65.05515625 -6.77484375 65.65328125 -7.96484375 66.26953125 C-16.67203905 69.26370513 -28.06778173 68.66696726 -36.296875 64.7109375 C-46.16868938 59.00129351 -53.25174623 51.42273613 -56.8046875 40.41015625 C-59.13214695 29.99856249 -57.60424745 20.3282028 -52.109375 11.20703125 C-39.96690266 -5.98124058 -18.30606114 -11.45942021 0 0 Z " transform="translate(270.46484375,45.54296875)" style="fill: #FBFBFB;"/><path d="M0 0 C6.22844896 5.40863602 11.26376666 11.25141252 14.28515625 18.984375 C14.82462891 20.32242187 14.82462891 20.32242187 15.375 21.6875 C16.49379908 25.74014561 16.5419888 29.36867683 16.47265625 33.546875 C16.47168945 34.6596582 16.47168945 34.6596582 16.47070312 35.79492188 C16.43987471 39.64162328 16.21059112 43.24561811 15.28515625 46.984375 C16.60515625 46.324375 17.92515625 45.664375 19.28515625 44.984375 C19.28515625 44.654375 19.28515625 44.324375 19.28515625 43.984375 C20.39890625 44.005 21.51265625 44.025625 22.66015625 44.046875 C26.11731546 44.24818218 26.11731546 44.24818218 28.28515625 42.984375 C28.94515625 43.644375 29.60515625 44.304375 30.28515625 44.984375 C32.39336422 44.6658573 32.39336422 44.6658573 34.28515625 43.984375 C32.38548151 60.81006555 22.48517144 73.37780614 9.84765625 83.859375 C-3.70120835 93.70872692 -20.01187127 98.26270586 -36.70947266 95.67529297 C-54.26152226 92.4116371 -68.94367096 83.28239197 -79.71484375 68.984375 C-87.73051423 56.7013441 -91.42172381 44.75031407 -90.71484375 29.984375 C-88.71484375 32.984375 -88.71484375 32.984375 -87.77734375 35.109375 C-86.7957573 37.32933229 -86.7957573 37.32933229 -83.71484375 37.984375 C-83.49828125 38.9434375 -83.49828125 38.9434375 -83.27734375 39.921875 C-82.92236822 42.11284253 -82.92236822 42.11284253 -81.02734375 43.109375 C-79.88265625 43.5425 -79.88265625 43.5425 -78.71484375 43.984375 C-77.70421875 44.37625 -76.69359375 44.768125 -75.65234375 45.171875 C-72.6887696 46.28551116 -72.6887696 46.28551116 -69.71484375 44.984375 C-69.74964844 43.80101562 -69.78445312 42.61765625 -69.8203125 41.3984375 C-70.13661559 26.38278267 -68.17146902 15.20978439 -57.609375 3.6875 C-41.38375476 -11.59042915 -18.04741559 -13.73364308 0 0 Z M-55.46875 9.86328125 C-62.78810444 18.94368337 -64.97212823 28.55899886 -63.98535156 40.04199219 C-62.49917995 50.71345553 -56.02363999 58.60935233 -47.96484375 65.234375 C-39.75508616 71.01278131 -30.67392674 73.40888624 -20.71484375 71.984375 C-9.19082824 68.93111884 -0.43671761 63.47245801 5.99609375 53.390625 C9.5101287 46.8310931 10.81809546 42.0931984 10.72265625 34.671875 C10.70803345 33.40839233 10.70803345 33.40839233 10.69311523 32.11938477 C10.38996972 21.48873956 7.14922519 14.96180143 -0.2109375 7.25 C-9.31449158 -0.98722522 -18.70196731 -3.63415484 -30.734375 -3.32421875 C-40.81053768 -2.54304421 -48.65591696 2.56490109 -55.46875 9.86328125 Z " transform="translate(277.71484375,389.015625)" style="fill: #DF2605;"/><path d="M0 0 C2 2 2 2 3 5 C5.8120855 6.15924945 5.8120855 6.15924945 9.25 7.125 C24.58569752 12.11360172 36.37974092 22.90524873 44 37 C49.69743053 49.49225534 53.91644568 64.30460298 50 78 C47.11604375 79.76241771 45.54297056 80.07239607 42.1875 79.625 C41.465625 79.41875 40.74375 79.2125 40 79 C40 79.33 40 79.66 40 80 C35.545 80.495 35.545 80.495 31 81 C31.04640625 79.53949219 31.0928125 78.07898438 31.140625 76.57421875 C31.48334188 61.42039899 30.69169847 50.54883885 20 39 C11.93382189 30.82432626 1.08220259 25.98601632 -10.4375 25.625 C-21.9286466 25.98206953 -32.59704667 30.10613748 -41.046875 37.890625 C-50.80568327 48.43013793 -53.45997716 59.02385508 -52.97827148 72.93188477 C-52.91805069 74.95370616 -52.95195311 76.97785268 -53 79 C-53.99 79.99 -53.99 79.99 -55 81 C-56.67422986 80.70700977 -58.34178227 80.37309899 -60 80 C-60.99 80.495 -60.99 80.495 -62 81 C-62.98169476 79.87720538 -63.96027298 78.75168527 -64.9375 77.625 C-65.48277344 76.99851562 -66.02804688 76.37203125 -66.58984375 75.7265625 C-68 74 -68 74 -69 72 C-69.99 72 -70.98 72 -72 72 C-74.83073277 65.77238791 -75.39702974 61.67108776 -74 55 C-73.82339844 54.1440625 -73.64679688 53.288125 -73.46484375 52.40625 C-69.4785187 35.79258393 -59.93719705 22.71887208 -46 13 C-40.48723211 9.70784833 -35.13736611 7.05542139 -28.8125 5.8125 C-26.9253125 5.4103125 -26.9253125 5.4103125 -25 5 C-24.67 4.01 -24.34 3.02 -24 2 C-18.80822757 1.12789125 -13.8817336 0.90319091 -8.625 1 C-6.07691197 1.04542046 -3.54942229 1.04754167 -1 1 C-0.67 0.67 -0.34 0.34 0 0 Z " transform="translate(262,355)" style="fill: #E96602;"/><path d="M0 0 C11.54384425 8.60709027 20.66864271 19.76448164 24.8125 33.75 C24.8125 34.74 24.8125 35.73 24.8125 36.75 C23.3275 36.255 23.3275 36.255 21.8125 35.75 C21.8125 34.76 21.8125 33.77 21.8125 32.75 C20.3275 33.245 20.3275 33.245 18.8125 33.75 C17.47681979 33.42619874 16.14326989 33.09342449 14.8125 32.75 C13.8225 33.245 13.8225 33.245 12.8125 33.75 C12.19375 33.399375 11.575 33.04875 10.9375 32.6875 C10.23625 32.378125 9.535 32.06875 8.8125 31.75 C6.69566159 32.64163577 6.69566159 32.64163577 4.8125 33.75 C4.1525 33.42 3.4925 33.09 2.8125 32.75 C3.3075 33.884375 3.8025 35.01875 4.3125 36.1875 C7.79370824 46.81522708 6.93108401 58.67944605 2.421875 68.8125 C-4.18025146 80.86298324 -13.16955825 87.22429583 -25.91796875 91.83984375 C-30.81910918 93.20419945 -35.15644325 93.29897929 -40.1875 92.75 C-41.43466797 92.62431641 -41.43466797 92.62431641 -42.70703125 92.49609375 C-52.76020808 90.99207517 -62.50221021 85.3943609 -69.1875 77.75 C-75.3941721 68.74664561 -78.54804765 60.72908085 -78.4375 49.8125 C-78.44523437 49.05259766 -78.45296875 48.29269531 -78.4609375 47.50976562 C-78.44308426 42.28323045 -77.62786761 37.7741394 -76.1875 32.75 C-79.93488373 31.78638704 -82.43844263 31.96072476 -86.1875 32.75 C-87.1775 32.42 -88.1675 32.09 -89.1875 31.75 C-90.1775 32.74 -91.1675 33.73 -92.1875 34.75 C-93.5075 34.09 -94.8275 33.43 -96.1875 32.75 C-91.94834572 17.53891699 -81.88927783 5.19513423 -68.25 -2.6875 C-46.16746531 -14.86804191 -21.12772012 -14.10691668 0 0 Z M-64.875 26.5 C-71.83515174 36.28183488 -74.13429592 44.80684577 -73.1875 56.75 C-70.9457147 67.05410953 -65.0124278 75.52376366 -56.32421875 81.46484375 C-47.41070732 86.82598682 -38.43924026 88.17771848 -28.1875 86.75 C-17.9000778 84.08986566 -10.41284229 78.65343261 -4.8125 69.6875 C0.73079827 60.13382673 1.67500885 48.59158556 -0.875 37.85546875 C-1.80741136 35.63710673 -2.84998304 33.74796788 -4.1875 31.75 C-4.62320313 31.05777344 -5.05890625 30.36554687 -5.5078125 29.65234375 C-11.28952041 21.20094011 -19.18608739 15.97531431 -29.1875 13.75 C-43.95948284 12.21646788 -54.57265231 15.95806283 -64.875 26.5 Z " transform="translate(286.1875,26.25)" style="fill: #87EF00;"/><path d="M0 0 C2.0625 0.4375 2.0625 0.4375 4 1 C4.66 0.67 5.32 0.34 6 0 C7 1 8 2 9 3 C12.7645937 3.1696622 12.7645937 3.1696622 15.375 2.375 C18 2 18 2 21.125 3.0625 C22.07375 3.371875 23.0225 3.68125 24 4 C24.99 3.34 25.98 2.68 27 2 C29 2 31 2 33 2 C33.99 1.34 34.98 0.68 36 0 C37.32 0.66 38.64 1.32 40 2 C40.99 1.34 41.98 0.68 43 0 C44.32 0.66 45.64 1.32 47 2 C45.41460493 5.17079015 42.19588855 5.82692625 39.0625 7.125 C38.41603516 7.40214844 37.76957031 7.67929687 37.10351562 7.96484375 C32.27628541 10 32.27628541 10 30 10 C30 24.85 30 39.7 30 55 C27.40330946 55 24.81455815 54.95318939 22.21875 54.89453125 C20.31250829 54.86661558 18.4062578 54.83929479 16.5 54.8125 C15.53707031 54.78736328 14.57414062 54.76222656 13.58203125 54.73632812 C12.19564453 54.72182617 12.19564453 54.72182617 10.78125 54.70703125 C9.93626953 54.6913208 9.09128906 54.67561035 8.22070312 54.65942383 C5.51166476 55.0748931 4.78655015 56.00394462 3 58 C2.34 58 1.68 58 1 58 C1 42.16 1 26.32 1 10 C-1.475 9.01 -1.475 9.01 -4 8 C-4.99 7.34 -5.98 6.68 -7 6 C-4.74259377 3.66475218 -2.7194239 1.81294927 0 0 Z M35 2 C35.33 2.66 35.66 3.32 36 4 C36.33 3.34 36.66 2.68 37 2 C36.34 2 35.68 2 35 2 Z " transform="translate(234,302)" style="fill: #EF8601;"/><path d="M0 0 C6.22844896 5.40863602 11.26376666 11.25141252 14.28515625 18.984375 C14.63964844 19.88800781 14.99414062 20.79164063 15.359375 21.72265625 C18.63060462 33.24787452 16.55079846 45.43975984 11.28515625 55.984375 C5.40954436 65.7673417 -3.28041304 72.32357155 -13.98828125 76.09765625 C-26.92634137 79.17620934 -38.55736383 77.54312597 -49.94140625 70.6328125 C-59.40107446 64.09504953 -66.91533087 54.73912766 -69.3984375 43.375 C-71.14841057 30.15298127 -69.1551052 19.61976306 -61.7265625 8.59375 C-54.78668479 -0.40787779 -45.31118054 -6.69855374 -34.046875 -8.73046875 C-21.50949025 -10.2635158 -10.16070615 -7.73204956 0 0 Z M-55.46875 9.86328125 C-62.78810444 18.94368337 -64.97212823 28.55899886 -63.98535156 40.04199219 C-62.49917995 50.71345553 -56.02363999 58.60935233 -47.96484375 65.234375 C-39.75508616 71.01278131 -30.67392674 73.40888624 -20.71484375 71.984375 C-9.19082824 68.93111884 -0.43671761 63.47245801 5.99609375 53.390625 C9.5101287 46.8310931 10.81809546 42.0931984 10.72265625 34.671875 C10.70803345 33.40839233 10.70803345 33.40839233 10.69311523 32.11938477 C10.38996972 21.48873956 7.14922519 14.96180143 -0.2109375 7.25 C-9.31449158 -0.98722522 -18.70196731 -3.63415484 -30.734375 -3.32421875 C-40.81053768 -2.54304421 -48.65591696 2.56490109 -55.46875 9.86328125 Z " transform="translate(277.71484375,389.015625)" style="fill: #0C0805;"/><path d="M0 0 C9.04708593 6.7273203 15.84283948 16.10073107 18.15234375 27.23828125 C19.85096187 42.22105945 16.19037274 53.65998702 7.3125 65.7421875 C0.57888842 73.52297918 -10.32129598 78.5524124 -20.453125 79.6171875 C-34.57941757 80.06358411 -45.4791037 75.95304063 -55.84765625 66.39453125 C-64.62415546 57.16407519 -68.42462533 44.92142536 -68.15625 32.38671875 C-66.89673634 19.53649078 -60.00555484 9.20279995 -50.3203125 0.99609375 C-35.12909495 -9.80335 -15.70382999 -9.71526382 0 0 Z M-55.734375 14.578125 C-62.06771875 23.54908406 -62.57129653 32.48705417 -61.84765625 43.23828125 C-60.03186661 53.61422204 -53.24733595 62.19365193 -44.84765625 68.23828125 C-35.15832138 73.94094882 -24.56583924 74.77820718 -13.59765625 72.58984375 C-1.54290656 68.58300934 4.89153165 60.73143356 10.96484375 50.05078125 C14.40789749 41.89618028 14.33422115 31.90119452 11.58984375 23.55078125 C7.3016864 13.10874195 -0.21510692 5.76176287 -10.28515625 0.86328125 C-27.52535194 -5.46876593 -44.54403987 0.70025596 -55.734375 14.578125 Z " transform="translate(275.84765625,213.76171875)" style="fill: #0D0A06;"/><path d="M0 0 C7.6883836 5.79205306 13.19895789 15.54323777 15.14453125 24.84765625 C16.77607127 38.04981173 14.45895943 49.44656478 6.39453125 60.28515625 C-1.00414817 68.79983759 -11.49332585 74.76470851 -22.78125 76.2265625 C-25.52281382 76.28472863 -28.13042378 76.14500794 -30.85546875 75.84765625 C-32.10263672 75.72197266 -32.10263672 75.72197266 -33.375 75.59375 C-43.42817683 74.08973142 -53.17017896 68.49201715 -59.85546875 60.84765625 C-67.98657296 49.05273434 -70.39279768 37.92933723 -68.85546875 23.84765625 C-65.97672861 12.25558657 -58.76626325 3.26052328 -48.85546875 -3.15234375 C-48.06785156 -3.66667969 -47.28023437 -4.18101563 -46.46875 -4.7109375 C-30.77058093 -13.36956887 -14.29856007 -8.88015836 0 0 Z M-55.54296875 9.59765625 C-62.50312049 19.37949113 -64.80226467 27.90450202 -63.85546875 39.84765625 C-61.61368345 50.15176578 -55.68039655 58.62141991 -46.9921875 64.5625 C-38.07867607 69.92364307 -29.10720901 71.27537473 -18.85546875 69.84765625 C-8.56804655 67.18752191 -1.08081104 61.75108886 4.51953125 52.78515625 C10.06282952 43.23148298 11.0070401 31.68924181 8.45703125 20.953125 C7.52461989 18.73476298 6.48204821 16.84562413 5.14453125 14.84765625 C4.70882812 14.15542969 4.273125 13.46320312 3.82421875 12.75 C-1.95748916 4.29859636 -9.85405614 -0.92702944 -19.85546875 -3.15234375 C-34.62745159 -4.68587587 -45.24062106 -0.94428092 -55.54296875 9.59765625 Z " transform="translate(276.85546875,43.15234375)" style="fill: #0A0C05;"/><path d="M0 0 C2.27564709 0.18132646 4.51398288 0.51991937 6.7734375 0.84375 C9.17283708 1.15453371 9.17283708 1.15453371 12 0 C13.2065625 0.2475 13.2065625 0.2475 14.4375 0.5 C17.06834251 1.01333512 18.49324027 0.83558658 21 0 C21.495 0.99 21.495 0.99 22 2 C19.69 2.66 17.38 3.32 15 4 C14.67 14.23 14.34 24.46 14 35 C11.69 34.34 9.38 33.68 7 33 C6.01 33.99 5.02 34.98 4 36 C3.67 35.34 3.34 34.68 3 34 C2.01 34 1.02 34 0 34 C-0.66 34 -1.32 34 -2 34 C-2.33 34.66 -2.66 35.32 -3 36 C-3 35.34 -3 34.68 -3 34 C-3.66 34 -4.32 34 -5 34 C-4.67 34.99 -4.34 35.98 -4 37 C-4.99 37 -5.98 37 -7 37 C-7.66 36.01 -8.32 35.02 -9 34 C-11.97 34.495 -11.97 34.495 -15 35 C-15 24.77 -15 14.54 -15 4 C-15.99 3.67 -16.98 3.34 -18 3 C-14.40985408 0.73953776 -11.4905135 0.82053434 -7.3125 0.9375 C-5.20891853 0.99131799 -3.10416952 1.0205428 -1 1 C-0.67 0.67 -0.34 0.34 0 0 Z M-7 32 C-6 34 -6 34 -6 34 Z " transform="translate(251,135)" style="fill: #D0C200;"/><path d="M0 0 C2.33882138 0.29235267 4.67284 0.62599214 7 1 C7.66 0.67 8.32 0.34 9 0 C10.67654729 0.27942455 12.34608154 0.60828247 14 1 C13.67 2.11375 13.34 3.2275 13 4.375 C10.38013157 16.3922226 11.04571633 28.72015772 16 40 C12.22779212 40.85933044 9.77379204 40.81595503 6 40 C5.01 40.495 5.01 40.495 4 41 C3.34 40.67 2.68 40.34 2 40 C1.67 40.66 1.34 41.32 1 42 C-1 42 -3 42 -5 42 C-5.33 42.99 -5.66 43.98 -6 45 C-6.48473678 43.31409158 -6.96248926 41.62617455 -7.4375 39.9375 C-7.83775391 38.52791016 -7.83775391 38.52791016 -8.24609375 37.08984375 C-11.03186956 25.67249314 -11.68154266 12.92359953 -7 2 C-5.33333333 2 -3.66666667 2 -2 2 C-1.34 1.34 -0.68 0.68 0 0 Z M10 2 C11 4 11 4 11 4 Z " transform="translate(197,57)" style="fill: #A9DB00;"/><path d="M0 0 C1.67540664 0.64438717 3.34183216 1.31246699 5 2 C7.05396726 1.59070014 7.05396726 1.59070014 9 1 C11.1875 1.25 11.1875 1.25 13 2 C13.33 2.99 13.66 3.98 14 5 C14.99 5.66 15.98 6.32 17 7 C18.77231166 17.15051223 19.74155273 30.51689454 15 40 C14.34 40 13.68 40 13 40 C12.67 40.66 12.34 41.32 12 42 C11.401875 41.79375 10.80375 41.5875 10.1875 41.375 C7.71549154 40.69328085 7.71549154 40.69328085 5 43 C4.505 41.515 4.505 41.515 4 40 C3.2575 40.185625 2.515 40.37125 1.75 40.5625 C-1.00646092 41.00102787 -2.37203973 40.7007894 -5 40 C-6.485 40.495 -6.485 40.495 -8 41 C-7.79503906 40.39671875 -7.59007812 39.7934375 -7.37890625 39.171875 C-7.10949219 38.37265625 -6.84007812 37.5734375 -6.5625 36.75 C-6.29566406 35.96109375 -6.02882813 35.1721875 -5.75390625 34.359375 C-5.50511719 33.58078125 -5.25632812 32.8021875 -5 32 C-4.80792969 31.40960938 -4.61585938 30.81921875 -4.41796875 30.2109375 C-2.61506171 20.67406475 -3.30336787 9.95553141 -7 1 C-6.401875 1.20625 -5.80375 1.4125 -5.1875 1.625 C-2.71549154 2.30671915 -2.71549154 2.30671915 0 0 Z " transform="translate(295,57)" style="fill: #AADB00;"/><path d="M0 0 C0.99 0.66 1.98 1.32 3 2 C5.15274948 1.69159401 5.15274948 1.69159401 7 1 C5.62266271 13.19927316 -0.29297163 24.49887454 -8.72265625 33.33203125 C-11.27080182 35.19834027 -12.2848059 35.50489542 -15.375 35.125 C-16.57125 34.75375 -17.7675 34.3825 -19 34 C-19.99 34 -20.98 34 -22 34 C-23.66666667 33.66666667 -25.33333333 33.33333333 -27 33 C-30.05270463 32.84188612 -30.05270463 32.84188612 -33 34 C-33 30 -33 30 -30.9375 27.625 C-29.41882209 26.26788357 -27.89184419 24.91574195 -26.28515625 23.6640625 C-19.06180007 17.94227926 -15.95361618 10.54994156 -13 2 C-12.67 2.66 -12.34 3.32 -12 4 C-10.68 3.34 -9.36 2.68 -8 2 C-8 1.67 -8 1.34 -8 1 C-6.865625 1.020625 -5.73125 1.04125 -4.5625 1.0625 C-1.18424326 1.41577477 -1.18424326 1.41577477 0 0 Z " transform="translate(305,432)" style="fill: #E12F04;"/><path d="M0 0 C0.9075 0.350625 1.815 0.70125 2.75 1.0625 C6.01944764 2.0056099 6.90893368 1.8831618 10 1 C10.66 1.66 11.32 2.32 12 3 C12.598125 2.67 13.19625 2.34 13.8125 2 C17.07120877 0.51030456 20.45727725 1 24 1 C23.72285156 1.67546875 23.44570312 2.3509375 23.16015625 3.046875 C22.79792969 3.93890625 22.43570313 4.8309375 22.0625 5.75 C21.70285156 6.63171875 21.34320313 7.5134375 20.97265625 8.421875 C19.56621224 12.14979889 18.87315763 15.26805181 18.97265625 19.2578125 C18.98490234 20.04800781 18.99714844 20.83820313 19.00976562 21.65234375 C19.04509028 23.30867769 19.08418847 24.96493521 19.12695312 26.62109375 C19.15653643 28.74761113 19.08525007 30.87498617 19 33 C18.34 33.66 17.68 34.32 17 35 C15.32577014 34.70700977 13.65821773 34.37309899 12 34 C11.01 34.495 11.01 34.495 10 35 C9.01830524 33.87720538 8.03972702 32.75168527 7.0625 31.625 C6.51722656 30.99851562 5.97195312 30.37203125 5.41015625 29.7265625 C4 28 4 28 3 26 C2.01 26 1.02 26 0 26 C-4.19610667 16.76856533 -2.33062043 9.57138293 0 0 Z " transform="translate(190,401)" style="fill: #E64A03;"/><path d="M0 0 C4.90731058 9.09295783 5.82597765 22.11785455 3 32 C0.11604375 33.76241771 -1.45702944 34.07239607 -4.8125 33.625 C-5.534375 33.41875 -6.25625 33.2125 -7 33 C-7 33.33 -7 33.66 -7 34 C-11.455 34.495 -11.455 34.495 -16 35 C-15.97679687 33.51628906 -15.95359375 32.03257812 -15.9296875 30.50390625 C-15.91091533 28.52344257 -15.89271669 26.5429734 -15.875 24.5625 C-15.85824219 23.58861328 -15.84148437 22.61472656 -15.82421875 21.61132812 C-15.78727949 16.0889084 -16.1717259 11.10977642 -17.56689453 5.75756836 C-18 4 -18 4 -18 2 C-16.68 2 -15.36 2 -14 2 C-13.01 1.67 -12.02 1.34 -11 1 C-8.15321219 1 -5.77480587 1.43080905 -3 2 C-2.34 2 -1.68 2 -1 2 C-0.67 1.34 -0.34 0.68 0 0 Z " transform="translate(309,401)" style="fill: #E64903;"/><path d="M0 0 C1.15886719 0.01160156 2.31773437 0.02320313 3.51171875 0.03515625 C4.66285156 0.04417969 5.81398438 0.05320312 7 0.0625 C8.58361328 0.07990234 8.58361328 0.07990234 10.19921875 0.09765625 C11.51921875 0.09765625 12.83921875 0.09765625 14.19921875 0.09765625 C17.86588542 0.09765625 21.53255208 0.09765625 25.19921875 0.09765625 C26.40723123 2.29678121 27.59003822 4.50427444 28.76171875 6.72265625 C29.27508789 7.64884766 29.27508789 7.64884766 29.79882812 8.59375 C32.01856603 12.85385305 32.50300026 15.46673833 31.19921875 20.09765625 C30.10609375 19.76765625 29.01296875 19.43765625 27.88671875 19.09765625 C24.35342991 17.96678976 24.35342991 17.96678976 21.19921875 18.09765625 C20.20921875 18.09765625 19.21921875 18.09765625 18.19921875 18.09765625 C17.86921875 18.75765625 17.53921875 19.41765625 17.19921875 20.09765625 C15.86588542 20.09765625 14.53255208 20.09765625 13.19921875 20.09765625 C12.0984414 18.61904451 11.0688115 17.08718355 10.07421875 15.53515625 C6.67541821 10.51177181 2.88359923 6.8882354 -1.80078125 3.09765625 C-2.46078125 2.43765625 -3.12078125 1.77765625 -3.80078125 1.09765625 C-2.80078125 0.09765625 -2.80078125 0.09765625 0 0 Z " transform="translate(276.80078125,384.90234375)" style="fill: #E85A02;"/><path d="M0 0 C1.32 0 2.64 0 4 0 C4.25 5.625 4.25 5.625 2 9 C-1.25 9.625 -1.25 9.625 -5 10 C-8.04173431 10.49660968 -11.00896276 11.00224069 -14 11.75 C-17.8407953 12.07006627 -19.66971467 10.8422855 -23 9 C-25.52733235 8.34444881 -25.52733235 8.34444881 -28 8 C-32.77777778 7.11111111 -32.77777778 7.11111111 -35 6 C-34.6875 4.125 -34.6875 4.125 -34 2 C-30.38816216 -0.4078919 -28.77208018 -0.18277253 -24.5 -0.0625 C-16.0988759 0.15509668 -8.53798853 -1.1197362 0 0 Z " transform="translate(267,442)" style="fill: #191918;"/><path d="M0 0 C2.33882138 0.29235267 4.67284 0.62599214 7 1 C7.66 0.67 8.32 0.34 9 0 C10.67654729 0.27942455 12.34608154 0.60828247 14 1 C13.690625 2.258125 13.38125 3.51625 13.0625 4.8125 C11.85947548 10.17065177 11.38848904 15.5304832 11 21 C10.01 20.01 9.02 19.02 8 18 C7.34 18.33 6.68 18.66 6 19 C6 18.34 6 17.68 6 17 C2.77935622 16.91053767 0.10247623 17.17267301 -3 18 C-6 18 -6 18 -7.6875 16.5 C-8.120625 16.005 -8.55375 15.51 -9 15 C-9.33 16.32 -9.66 17.64 -10 19 C-10.34548714 12.66606918 -9.29342747 7.89738492 -7 2 C-5.33333333 2 -3.66666667 2 -2 2 C-1.34 1.34 -0.68 0.68 0 0 Z M10 2 C11 4 11 4 11 4 Z " transform="translate(197,57)" style="fill: #9AE000;"/><path d="M0 0 C1.67540664 0.64438717 3.34183216 1.31246699 5 2 C7.05396726 1.59070014 7.05396726 1.59070014 9 1 C11.1875 1.25 11.1875 1.25 13 2 C13.33 2.99 13.66 3.98 14 5 C14.99 5.66 15.98 6.32 17 7 C17.51171875 10.0390625 17.51171875 10.0390625 17.6875 13.625 C17.78611328 15.40777344 17.78611328 15.40777344 17.88671875 17.2265625 C17.92410156 18.14179687 17.96148437 19.05703125 18 20 C17.34 19.34 16.68 18.68 16 18 C15.34 18.33 14.68 18.66 14 19 C14 18.34 14 17.68 14 17 C13.1028125 17.2475 13.1028125 17.2475 12.1875 17.5 C8.54600499 18.33234172 5.5940585 17.7188117 2 17 C1.01 17 0.02 17 -1 17 C-1.66 18.32 -2.32 19.64 -3 21 C-3.12117188 20.05898437 -3.24234375 19.11796875 -3.3671875 18.1484375 C-3.53476562 16.90320313 -3.70234375 15.65796875 -3.875 14.375 C-4.03742188 13.14523438 -4.19984375 11.91546875 -4.3671875 10.6484375 C-4.95483689 7.26038483 -5.81988122 4.22301349 -7 1 C-6.401875 1.20625 -5.80375 1.4125 -5.1875 1.625 C-2.71549154 2.30671915 -2.71549154 2.30671915 0 0 Z " transform="translate(295,57)" style="fill: #9CE300;"/><path d="M0 0 C2.83076519 0.39316183 4.61994578 0.69150411 6.8671875 2.515625 C10.5808426 5.10022013 14.65122909 4.65369183 19 4 C22.32808239 2.11586085 22.32808239 2.11586085 25 0 C26.32 0 27.64 0 29 0 C28.9375 2.25 28.9375 2.25 28 5 C25.77727782 6.69775765 23.53555809 7.75446269 21 9 C20.01 9.495 20.01 9.495 19 10 C11.93996891 11.05433357 7.4497845 9.69916032 1.6171875 5.703125 C0 4 0 4 0 0 Z " transform="translate(236,93)" style="fill: #121211;"/><path d="M0 0 C0.33 1.32 0.66 2.64 1 4 C0.09507812 4.07347656 0.09507812 4.07347656 -0.828125 4.1484375 C-1.62734375 4.22320312 -2.4265625 4.29796875 -3.25 4.375 C-4.03890625 4.44460938 -4.8278125 4.51421875 -5.640625 4.5859375 C-8.00674923 4.87884059 -8.00674923 4.87884059 -9.94921875 6.015625 C-13.29066638 7.61951986 -16.78520364 7.35179712 -20.44140625 7.4609375 C-23.6842822 8.14416938 -24.17836177 9.34938437 -26 12 C-26.99 12 -27.98 12 -29 12 C-28.64953716 9.40657502 -28.36316178 7.49244268 -26.79296875 5.36328125 C-24.37253722 3.52290957 -22.63923457 3.59909812 -19.625 3.5 C-12.32034702 3.05062999 -7.66503257 -0.45088427 0 0 Z " transform="translate(267,263)" style="fill: #10100F;"/><path d="M0 0 C0.33 0.33 0.66 0.66 1 1 C3.32817964 1.36760731 5.6618385 1.70241581 8 2 C7.67 2.99 7.34 3.98 7 5 C6.39671875 4.97679687 5.7934375 4.95359375 5.171875 4.9296875 C4.37265625 4.91164063 3.5734375 4.89359375 2.75 4.875 C1.56664062 4.84019531 1.56664062 4.84019531 0.359375 4.8046875 C-2.22782593 5.01885976 -3.71305834 5.83328789 -6 7 C-12.14110429 6.67101227 -12.14110429 6.67101227 -15 4.4375 C-17.93660812 2.32681292 -20.48813597 2.79739246 -24 3 C-24 2.34 -24 1.68 -24 1 C-22.53626953 1.01740234 -22.53626953 1.01740234 -21.04296875 1.03515625 C-19.77066406 1.04417969 -18.49835938 1.05320312 -17.1875 1.0625 C-15.29064453 1.07990234 -15.29064453 1.07990234 -13.35546875 1.09765625 C-8.74767242 0.96355275 -4.72587138 -0.17503227 0 0 Z " transform="translate(260,444)" style="fill: #F0F0F0;"/><path d="M0 0 C0.66 0.66 1.32 1.32 2 2 C1.75 5.5625 1.75 5.5625 1 9 C-1.78863007 10.39431504 -3.92078868 10.25660094 -7 10 C-9.14762184 6.77856724 -9.561068 5.7404533 -9 2 C-6.07557433 -1.24936186 -4.04996841 -1.38551551 0 0 Z " transform="translate(270,241)" style="fill: #100F0F;"/><path d="M0 0 C1.8125 1.1875 1.8125 1.1875 3 3 C3.4334014 5.88934264 3.42525784 7.35092224 1.8125 9.8125 C-0.64907776 11.42525784 -2.11065736 11.4334014 -5 11 C-6.8125 9.8125 -6.8125 9.8125 -8 8 C-8.4334014 5.11065736 -8.42525784 3.64907776 -6.8125 1.1875 C-4.35092224 -0.42525784 -2.88934264 -0.4334014 0 0 Z " transform="translate(238,71)" style="fill: #0C0C0B;"/><path d="M0 0 C1.8125 1.1875 1.8125 1.1875 3 3 C3.4334014 5.88934264 3.42525784 7.35092224 1.8125 9.8125 C-0.64907776 11.42525784 -2.11065736 11.4334014 -5 11 C-6.8125 9.8125 -6.8125 9.8125 -8 8 C-8.4334014 5.11065736 -8.42525784 3.64907776 -6.8125 1.1875 C-4.35092224 -0.42525784 -2.88934264 -0.4334014 0 0 Z " transform="translate(268,71)" style="fill: #0C0C0B;"/><path d="M0 0 C3 0.25 3 0.25 5 2.25 C5.25 5.25 5.25 5.25 5 8.25 C3 10.25 3 10.25 0 10.5 C-3 10.25 -3 10.25 -5 8.25 C-5.25 5.25 -5.25 5.25 -5 2.25 C-3 0.25 -3 0.25 0 0 Z " transform="translate(236,240.75)" style="fill: #040403;"/><path d="M0 0 C3.625 0.375 3.625 0.375 7 1 C8.32841008 6.43440487 8.32841008 6.43440487 6.875 8.9375 C5 10 5 10 2.4375 9.8125 C0 9 0 9 -2 7 C-2.25 4.5 -2.25 4.5 -2 2 C-1.34 1.34 -0.68 0.68 0 0 Z " transform="translate(264,417)" style="fill: #131212;"/><path d="M0 0 C2.5 0.25 2.5 0.25 4.5 2.25 C4.125 5.875 4.125 5.875 3.5 9.25 C1.1875 9.875 1.1875 9.875 -1.5 10.25 C-2.49 9.59 -3.48 8.93 -4.5 8.25 C-4.8125 5.25 -4.8125 5.25 -4.5 2.25 C-2.5 0.25 -2.5 0.25 0 0 Z " transform="translate(235.5,416.75)" style="fill: #0C0C0B;"/><path d="M0 0 C7.95953757 -0.78034682 7.95953757 -0.78034682 12 2.25 C13.75981787 4.66974957 14.67467334 6.07206006 15 9 C12.82924408 8.02690252 11.2390922 7.2724539 9.65625 5.46875 C7.52628589 3.5799139 6.12093336 3.51600966 3.3125 3.3125 C2.10013672 3.21388672 2.10013672 3.21388672 0.86328125 3.11328125 C0.24839844 3.07589844 -0.36648438 3.03851563 -1 3 C-0.67 2.01 -0.34 1.02 0 0 Z " transform="translate(262,404)" style="fill: #242423;"/><path d="M0 0 C0.33 0.99 0.66 1.98 1 3 C-0.010625 2.87625 -1.02125 2.7525 -2.0625 2.625 C-6.79862712 3.07605973 -8.24695427 4.45236669 -11.51953125 7.6875 C-13 9 -13 9 -15 9 C-14.75787346 5.73129165 -13.72467093 4.7045249 -11.4375 2.25 C-7.70025305 -0.72343006 -4.63064353 -0.39919341 0 0 Z " transform="translate(240,404)" style="fill: #222120;"/><path d="M0 0 C3.1875 0.875 3.1875 0.875 6 2 C6 2.33 6 2.66 6 3 C4.02 3 2.04 3 0 3 C0 3.66 0 4.32 0 5 C1.65 5 3.3 5 5 5 C4.01 6.485 4.01 6.485 3 8 C-1.75 7.125 -1.75 7.125 -4 6 C-3.6875 4.125 -3.6875 4.125 -3 2 C-2.01 1.34 -1.02 0.68 0 0 Z " transform="translate(236,442)" style="fill: #212120;"/><path d="M0 0 C0.77601563 0.06445312 1.55203125 0.12890625 2.3515625 0.1953125 C4.375 0.875 4.375 0.875 5.6484375 2.9296875 C5.88820313 3.57164062 6.12796875 4.21359375 6.375 4.875 C1.13619922 4.32354729 -3.59850697 3.44577907 -8.625 1.875 C-5.55194042 0.06484162 -3.54205555 -0.36723653 0 0 Z " transform="translate(262.625,442.125)" style="fill: #242423;"/><path d="M0 0 C1.32 0 2.64 0 4 0 C4.25 5.625 4.25 5.625 2 9 C1.01 8.67 0.02 8.34 -1 8 C-0.01 6.35 0.98 4.7 2 3 C1.01 2.67 0.02 2.34 -1 2 C-0.67 1.34 -0.34 0.68 0 0 Z " transform="translate(267,442)" style="fill: #0B0B0A;"/><path d="M0 0 C2.64 0 5.28 0 8 0 C8.33 0.99 8.66 1.98 9 3 C7.906875 2.979375 6.81375 2.95875 5.6875 2.9375 C2.05615809 2.81455548 2.05615809 2.81455548 -1 4 C-0.67 2.68 -0.34 1.36 0 0 Z " transform="translate(232,404)" style="fill: #0C0C0B;"/><path d="M0 0 C2.4375 0.1875 2.4375 0.1875 5 1 C6.3125 3.0625 6.3125 3.0625 7 5 C3.09161134 5 1.88405893 3.49432124 -1 1 C-0.67 0.67 -0.34 0.34 0 0 Z " transform="translate(274,385)" style="fill: #DE5902;"/><path d="M0 0 C2.475 0.495 2.475 0.495 5 1 C5 1.99 5 2.98 5 4 C5.66 4.33 6.32 4.66 7 5 C5.35 5.33 3.7 5.66 2 6 C1.34 4.02 0.68 2.04 0 0 Z " transform="translate(190,441)" style="fill: #D02F03;"/><path d="M0 0 C1.65 1.32 3.3 2.64 5 4 C2.35261084 5.4606285 1.10551666 6 -2 6 C-1.33333333 4 -0.66666667 2 0 0 Z " transform="translate(265,306)" style="fill: #DC8600;"/><path d="M0 0 C0 1.32 0 2.64 0 4 C-0.66 4 -1.32 4 -2 4 C-2.33 4.99 -2.66 5.98 -3 7 C-3.38133299 5.0085944 -3.71325582 3.00720923 -4 1 C-3 0 -3 0 0 0 Z " transform="translate(194,95)" style="fill: #A2C200;"/></svg>