<?xml version="1.0" encoding="UTF-8"?>
<!-- Generator: visioncortex VTracer -->
<svg id="svg" version="1.1" xmlns="http://www.w3.org/2000/svg" style="display: block;" viewBox="0 0 500 500"><path d="M0 0 C6.05260555 2.15970033 10.33332534 1.79246178 16.48046875 0.1796875 C32.27372418 -3.94272323 52.0556507 -4.90123679 66.69921875 3.34765625 C68.74387944 4.77052647 70.50204756 6.26403224 72.29296875 7.9921875 C72.8446875 8.49363281 73.39640625 8.99507812 73.96484375 9.51171875 C80.7829945 16.44800578 82.51956318 25.4248829 82.66796875 34.8671875 C82.6020995 41.0720707 81.76432664 45.78515067 78.29296875 50.9921875 C78.15576779 53.27742306 78.15576779 53.27742306 78.48046875 55.7421875 C78.55652344 56.56203125 78.63257813 57.381875 78.7109375 58.2265625 C79.21143201 61.14386321 79.21143201 61.14386321 80.81640625 64.18359375 C82.86494697 68.75699348 82.78693799 73.23573865 82.73046875 78.1796875 C82.72217041 79.11224365 82.71387207 80.0447998 82.70532227 81.00561523 C82.32113713 96.72439294 75.00203098 109.03651493 64.9921875 120.8359375 C63.42343933 122.82662484 62.32498815 124.68716955 61.29296875 126.9921875 C61.95296875 126.9921875 62.61296875 126.9921875 63.29296875 126.9921875 C63.51984375 126.2909375 63.74671875 125.5896875 63.98046875 124.8671875 C67.68216007 116.75872081 74.12935419 113.03566834 82.10058594 109.76757812 C98.211187 104.06966399 115.78463751 103.76052041 132.66796875 103.7421875 C133.89386719 103.73967987 133.89386719 103.73967987 135.14453125 103.73712158 C147.91064612 103.73557769 160.57256234 104.30047715 173.29296875 105.3671875 C174.05180359 105.43031128 174.81063843 105.49343506 175.59246826 105.55847168 C185.21487342 106.3766526 194.74660968 107.51900729 204.29296875 108.9921875 C204.29296875 109.6521875 204.29296875 110.3121875 204.29296875 110.9921875 C205.22109375 111.0953125 206.14921875 111.1984375 207.10546875 111.3046875 C210.29296875 111.9921875 210.29296875 111.9921875 212.16796875 113.1796875 C213.8950113 115.96214494 213.73498816 117.7717604 213.29296875 120.9921875 C207.81042351 132.20648459 195.79886481 138.32233883 185.29296875 143.9921875 C184.431875 144.52585937 183.57078125 145.05953125 182.68359375 145.609375 C170.23527819 152.80987125 152.46866517 150.69761771 138.98046875 147.4921875 C137.98789062 147.22535156 136.9953125 146.95851563 135.97265625 146.68359375 C132.80909571 145.86733979 129.7299792 145.53116266 126.484375 145.23828125 C121.59717597 144.68945141 116.780932 143.55156444 111.98657227 142.47363281 C107.18392371 141.61522413 102.34715966 141.76571229 97.48046875 141.7421875 C96.42537109 141.7215625 95.37027344 141.7009375 94.28320312 141.6796875 C86.95713818 141.64317129 80.6811694 142.04980273 74.91796875 147.0546875 C72.60184162 151.24153269 72.05669879 155.30324027 71.29296875 159.9921875 C71.03561582 161.33678046 70.77357957 162.68048231 70.5078125 164.0234375 C70.30007202 165.08244263 70.30007202 165.08244263 70.08813477 166.1628418 C69.81294083 167.56567527 69.5361454 168.96819575 69.25756836 170.37036133 C68.57110514 173.96909274 68.18726572 177.33222019 68.29296875 180.9921875 C67.81478338 183.94099727 67.08831808 186.73404618 66.29296875 189.6171875 C65.43998413 192.93504679 65.0552674 196.14012117 64.79296875 199.5546875 C64.44968179 203.94514701 63.57554694 207.76722407 62.29296875 211.9921875 C61.96539649 213.80202421 61.65420445 215.61486809 61.35546875 217.4296875 C60.64698258 221.52440287 59.59288209 225.10159961 58.0234375 228.93359375 C56.63923829 232.83451879 56.00168485 236.92332333 55.29296875 240.9921875 C54.63296875 240.9921875 53.97296875 240.9921875 53.29296875 240.9921875 C53.14859375 242.2915625 53.00421875 243.5909375 52.85546875 244.9296875 C49.70378359 260.82415725 37.72259439 277.48792476 24.66796875 286.8046875 C19.06002169 290.08981625 12.62308452 290.94328072 6.29296875 291.9921875 C5.52082031 292.12496094 4.74867188 292.25773437 3.953125 292.39453125 C1.7289365 292.70617378 -0.46437394 292.86353894 -2.70703125 292.9921875 C-3.89941406 293.09144531 -5.09179688 293.19070313 -6.3203125 293.29296875 C-16.46971536 293.90396132 -24.45193862 292.30356026 -32.70703125 285.9921875 C-34.76206805 283.10600249 -35.94008419 280.44344925 -36.70703125 276.9921875 C-36.90039062 277.80042969 -37.09375 278.60867188 -37.29296875 279.44140625 C-37.55335938 280.51003906 -37.81375 281.57867187 -38.08203125 282.6796875 C-38.33726562 283.73542969 -38.5925 284.79117187 -38.85546875 285.87890625 C-40.49084626 291.8577864 -42.47276574 297.08488767 -47.26953125 301.1796875 C-55.56908416 305.5558154 -66.02475591 306.51010077 -75.0703125 304.09375 C-77.98160764 303.12902 -80.85089624 302.10872195 -83.70703125 300.9921875 C-83.70703125 300.3321875 -83.70703125 299.6721875 -83.70703125 298.9921875 C-84.30515625 298.8890625 -84.90328125 298.7859375 -85.51953125 298.6796875 C-88.02240849 297.89306894 -88.9201788 296.85672919 -90.70703125 294.9921875 C-91.69703125 294.6621875 -92.68703125 294.3321875 -93.70703125 293.9921875 C-95.3125 292.43359375 -95.3125 292.43359375 -96.89453125 290.5546875 C-97.42433594 289.93722656 -97.95414063 289.31976563 -98.5 288.68359375 C-99.70703125 286.9921875 -99.70703125 286.9921875 -99.70703125 284.9921875 C-100.69703125 284.6621875 -101.68703125 284.3321875 -102.70703125 283.9921875 C-104.45822631 281.64751565 -106.06695895 279.3237934 -107.64453125 276.8671875 C-108.07443359 276.21492188 -108.50433594 275.56265625 -108.94726562 274.890625 C-116.70703125 263.02136286 -116.70703125 263.02136286 -116.70703125 259.9921875 C-117.36703125 259.6621875 -118.02703125 259.3321875 -118.70703125 258.9921875 C-120.11250987 256.42718902 -121.43014126 253.86999009 -122.70703125 251.2421875 C-123.0628125 250.52546875 -123.41859375 249.80875 -123.78515625 249.0703125 C-135.39556703 225.50291151 -138.0690668 199.10452029 -140.06176758 173.26293945 C-140.16847778 171.89915161 -140.16847778 171.89915161 -140.27734375 170.5078125 C-140.33680176 169.70633789 -140.39625977 168.90486328 -140.45751953 168.07910156 C-140.65882599 165.80118839 -140.65882599 165.80118839 -141.70703125 162.9921875 C-141.75389081 160.13082558 -141.75054624 157.28973132 -141.70703125 154.4296875 C-141.63577205 146.81891102 -141.87845165 139.28356195 -142.43945312 131.69311523 C-142.66236897 128.43891535 -142.75030766 126.12201672 -141.70703125 122.9921875 C-143.09921875 123.20875 -143.09921875 123.20875 -144.51953125 123.4296875 C-147.74342999 123.90052058 -150.95902774 124.17880723 -154.20703125 124.4296875 C-158.59848018 124.81259313 -162.49049981 125.66476094 -166.70703125 126.9921875 C-168.01655923 127.29692043 -169.32946203 127.58733284 -170.64453125 127.8671875 C-172.33236099 128.24070057 -174.01981734 128.61590238 -175.70703125 128.9921875 C-177.28291016 129.33830078 -177.28291016 129.33830078 -178.890625 129.69140625 C-189.24210616 132.11222883 -199.20265568 135.41997239 -209.21435547 138.99438477 C-222.58855554 143.63957779 -222.58855554 143.63957779 -229.83203125 140.7421875 C-239.62597861 131.37406394 -240.65092392 117.83720028 -241.70703125 104.9921875 C-241.70703125 103.6721875 -241.70703125 102.3521875 -241.70703125 100.9921875 C-209.16453823 92.80461263 -175.83168658 91.57546812 -142.70703125 96.9921875 C-141.78889648 97.13672363 -140.87076172 97.28125977 -139.92480469 97.43017578 C-137.36393819 97.84925198 -134.81749627 98.31375012 -132.26953125 98.8046875 C-131.52340576 98.93327148 -130.77728027 99.06185547 -130.00854492 99.19433594 C-127.9609375 99.63671875 -127.9609375 99.63671875 -124.70703125 100.9921875 C-122.5799144 104.9308898 -122.49161475 107.66898597 -123.58203125 111.9296875 C-126.21367575 124.20127834 -124.55648989 137.02815082 -123.08203125 149.3671875 C-122.99466705 150.11386688 -122.90730286 150.86054626 -122.81729126 151.62985229 C-115.60910753 218.52462392 -115.60910753 218.52462392 -81.70703125 273.9921875 C-79.54909038 275.25892875 -79.54909038 275.25892875 -77.70703125 275.9921875 C-78.22910156 275.47914063 -78.75117188 274.96609375 -79.2890625 274.4375 C-97.14466353 255.86267161 -105.93174229 231.27254639 -111.8125 206.6484375 C-112.37746936 204.33921776 -112.99163481 202.04099162 -113.6730957 199.76342773 C-114.74146409 195.86659503 -115.49346791 191.97776586 -116.14453125 187.99609375 C-116.27013428 187.24488754 -116.3957373 186.49368134 -116.52514648 185.7197113 C-116.7892382 184.13418649 -117.0513316 182.54832767 -117.31152344 180.9621582 C-117.70095517 178.59167283 -118.09800143 176.22256004 -118.49609375 173.85351562 C-122.63410373 149.00762091 -124.83684232 126.5565601 -120.18066406 101.6328125 C-118.69971901 93.37616213 -117.39881151 85.92175119 -121.51953125 78.28125 C-122.95678339 75.51075739 -123.91441767 72.7041484 -124.89453125 69.7421875 C-125.21808594 68.76765625 -125.54164063 67.793125 -125.875 66.7890625 C-129.1881047 55.65205327 -129.76439485 41.0320663 -124.96484375 30.30859375 C-117.46598931 16.49859163 -106.83396429 8.53952042 -91.90234375 3.69921875 C-84.32911042 1.48168637 -77.34087855 -0.15233959 -69.44360352 0.10742188 C-63.11511857 0.30634208 -57.74188561 0.3496958 -51.76953125 -2.0078125 C-36.58820556 -7.44214692 -14.9707125 -5.57351201 0 0 Z M60.29296875 126.9921875 C53.09190511 145.9623521 53.09190511 145.9623521 51.29296875 165.9921875 C51.62296875 165.9921875 51.95296875 165.9921875 52.29296875 165.9921875 C52.52371094 164.72246094 52.75445312 163.45273437 52.9921875 162.14453125 C55.00606426 151.40280795 57.53533237 141.25933522 61.29296875 130.9921875 C61.62296875 130.0021875 61.95296875 129.0121875 62.29296875 127.9921875 C61.63296875 127.6621875 60.97296875 127.3321875 60.29296875 126.9921875 Z M-11.70703125 177.9921875 C-11.28550781 178.77722656 -10.86398438 179.56226563 -10.4296875 180.37109375 C-4.91554559 190.94527177 -4.91554559 190.94527177 -4.70703125 196.9921875 C-4.63484375 197.91515625 -4.56265625 198.838125 -4.48828125 199.7890625 C-4.12777649 207.46781383 -5.18854469 214.29238843 -6.95703125 221.7421875 C-7.16150879 222.60473145 -7.36598633 223.46727539 -7.57666016 224.35595703 C-9.69109625 232.7289961 -12.79082922 240.49211067 -16.85424805 248.10375977 C-20.97707489 255.83563239 -24.13241051 261.87759133 -21.64453125 270.8046875 C-18.88494486 275.3446522 -15.6892727 277.33144035 -10.70703125 278.9921875 C-2.04760478 279.67944357 5.90063519 278.13662883 13.0703125 273.00390625 C18.20272213 268.53523682 22.50642944 263.6412116 26.29296875 257.9921875 C25.96296875 257.3321875 25.63296875 256.6721875 25.29296875 255.9921875 C24.28703632 257.1118861 23.28838385 258.2381287 22.29296875 259.3671875 C21.73609375 259.99367188 21.17921875 260.62015625 20.60546875 261.265625 C19.09124388 262.89608583 19.09124388 262.89608583 19.29296875 264.9921875 C18.70773437 265.26160156 18.1225 265.53101563 17.51953125 265.80859375 C15.296519 266.99030026 13.59460848 268.31868875 11.66796875 269.9296875 C5.05760986 274.95503469 -2.49534776 276.81335585 -10.70703125 275.9921875 C-14.08203125 274.9921875 -14.08203125 274.9921875 -16.70703125 272.9921875 C-19.67344145 265.94696328 -18.46606722 259.55996279 -15.76074219 252.53491211 C-14.66049655 250.08130448 -13.5079225 247.66039914 -12.33203125 245.2421875 C-8.60609745 237.26386954 -5.64525495 229.61246418 -3.70703125 220.9921875 C-3.37251953 219.54392578 -3.37251953 219.54392578 -3.03125 218.06640625 C-0.91614057 207.43330509 0.64427563 193.77216215 -4.70703125 183.9921875 C-6.25491704 181.74823986 -7.78707108 179.96137742 -9.70703125 177.9921875 C-10.36703125 177.9921875 -11.02703125 177.9921875 -11.70703125 177.9921875 Z M49.29296875 182.9921875 C50.29296875 186.9921875 50.29296875 186.9921875 50.29296875 186.9921875 Z M48.29296875 190.9921875 C49.29296875 193.9921875 49.29296875 193.9921875 49.29296875 193.9921875 Z M-35.70703125 192.9921875 C-34.70703125 194.9921875 -34.70703125 194.9921875 -34.70703125 194.9921875 Z M47.29296875 195.9921875 C48.29296875 199.9921875 48.29296875 199.9921875 48.29296875 199.9921875 Z M-37.70703125 197.9921875 C-36.70703125 199.9921875 -36.70703125 199.9921875 -36.70703125 199.9921875 Z M-38.70703125 199.9921875 C-37.70703125 202.9921875 -37.70703125 202.9921875 -37.70703125 202.9921875 Z M46.29296875 200.9921875 C47.29296875 203.9921875 47.29296875 203.9921875 47.29296875 203.9921875 Z M-39.70703125 202.9921875 C-38.70703125 205.9921875 -38.70703125 205.9921875 -38.70703125 205.9921875 Z M-26.08203125 206.8671875 C-31.80398293 212.8938585 -33.13793399 220.82743468 -33.53125 228.83984375 C-33.70703125 230.9921875 -33.70703125 230.9921875 -34.70703125 231.9921875 C-34.75368859 234.32505431 -34.74466076 236.65915761 -34.70703125 238.9921875 C-34.66940174 241.32521739 -34.66037391 243.65932069 -34.70703125 245.9921875 C-35.20203125 246.4871875 -35.20203125 246.4871875 -35.70703125 246.9921875 C-35.77883089 248.51146788 -35.79095132 250.03386232 -35.76953125 251.5546875 C-35.76050781 252.38097656 -35.75148437 253.20726562 -35.7421875 254.05859375 C-35.73058594 254.69667969 -35.71898437 255.33476562 -35.70703125 255.9921875 C-33.62764354 252.15331788 -32.20834554 248.07952722 -30.70703125 243.9921875 C-30.05842484 242.25533563 -29.40977092 240.5185014 -28.76043701 238.78192139 C-27.78074101 236.15670282 -26.808016 233.5289262 -25.8359375 230.90087891 C-25.33173314 229.54076806 -24.82553465 228.18139486 -24.31738281 226.82275391 C-23.57498309 224.83681077 -22.83957412 222.84839673 -22.10546875 220.859375 C-21.45070557 219.09762939 -21.45070557 219.09762939 -20.78271484 217.30029297 C-19.76300285 214.16431985 -19.03416932 211.27250642 -18.70703125 207.9921875 C-19.89598361 206.05186346 -19.89598361 206.05186346 -21.70703125 204.9921875 C-23.94972526 204.7856394 -23.94972526 204.7856394 -26.08203125 206.8671875 Z M-40.70703125 205.9921875 C-39.70703125 208.9921875 -39.70703125 208.9921875 -39.70703125 208.9921875 Z M45.29296875 205.9921875 C46.29296875 207.9921875 46.29296875 207.9921875 46.29296875 207.9921875 Z M-41.70703125 208.9921875 C-43.19203125 215.4271875 -43.19203125 215.4271875 -44.70703125 221.9921875 C-44.04703125 221.6621875 -43.38703125 221.3321875 -42.70703125 220.9921875 C-40.82271193 215.06270776 -40.82271193 215.06270776 -41.70703125 208.9921875 Z M44.29296875 209.9921875 C45.29296875 211.9921875 45.29296875 211.9921875 45.29296875 211.9921875 Z M43.29296875 213.9921875 C44.29296875 215.9921875 44.29296875 215.9921875 44.29296875 215.9921875 Z M-44.70703125 222.9921875 C-46.04287024 227.83460383 -46.96031244 231.92656367 -46.70703125 236.9921875 C-44.91427259 233.87307894 -44.36412407 231.31536322 -44.08203125 227.7421875 C-44.00726563 226.85015625 -43.9325 225.958125 -43.85546875 225.0390625 C-43.80648437 224.36359375 -43.7575 223.688125 -43.70703125 222.9921875 C-44.03703125 222.9921875 -44.36703125 222.9921875 -44.70703125 222.9921875 Z M37.29296875 231.9921875 C38.29296875 233.9921875 38.29296875 233.9921875 38.29296875 233.9921875 Z M-47.70703125 238.9921875 C-49.36090626 247.81285421 -48.80028827 257.06023718 -48.70703125 265.9921875 C-48.37703125 265.9921875 -48.04703125 265.9921875 -47.70703125 265.9921875 C-47.04703125 256.7521875 -46.38703125 247.5121875 -45.70703125 237.9921875 C-46.82488238 237.87433637 -46.82488238 237.87433637 -47.70703125 238.9921875 Z M34.29296875 238.9921875 C35.29296875 240.9921875 35.29296875 240.9921875 35.29296875 240.9921875 Z M33.29296875 240.9921875 C34.29296875 242.9921875 34.29296875 242.9921875 34.29296875 242.9921875 Z M31.29296875 244.9921875 C32.29296875 246.9921875 32.29296875 246.9921875 32.29296875 246.9921875 Z M30.29296875 246.9921875 C31.29296875 248.9921875 31.29296875 248.9921875 31.29296875 248.9921875 Z M29.29296875 248.9921875 C30.29296875 250.9921875 30.29296875 250.9921875 30.29296875 250.9921875 Z M28.29296875 250.9921875 C29.29296875 252.9921875 29.29296875 252.9921875 29.29296875 252.9921875 Z M26.29296875 253.9921875 C27.29296875 255.9921875 27.29296875 255.9921875 27.29296875 255.9921875 Z M-49.70703125 270.9921875 C-48.70703125 273.9921875 -48.70703125 273.9921875 -48.70703125 273.9921875 Z M-49.70703125 274.9921875 C-49.90296875 275.53488281 -50.09890625 276.07757813 -50.30078125 276.63671875 C-52.714372 282.41061042 -52.714372 282.41061042 -55.75390625 284.19140625 C-57.95703125 284.9921875 -57.95703125 284.9921875 -61.70703125 285.9921875 C-61.70703125 286.3221875 -61.70703125 286.6521875 -61.70703125 286.9921875 C-58.45063466 287.93489752 -58.45063466 287.93489752 -54.70703125 287.9921875 C-51.71003589 285.97247323 -50.06947637 284.44733752 -49.1796875 280.875 C-48.92628298 278.92413232 -48.80693218 276.95690589 -48.70703125 274.9921875 C-49.03703125 274.9921875 -49.36703125 274.9921875 -49.70703125 274.9921875 Z " transform="translate(263.70703125,164.0078125)" style="fill: #FDFDFD;"/><path d="M0 0 C6.05260555 2.15970033 10.33332534 1.79246178 16.48046875 0.1796875 C32.27372418 -3.94272323 52.0556507 -4.90123679 66.69921875 3.34765625 C68.74387944 4.77052647 70.50204756 6.26403224 72.29296875 7.9921875 C72.8446875 8.49363281 73.39640625 8.99507812 73.96484375 9.51171875 C80.7829945 16.44800578 82.51956318 25.4248829 82.66796875 34.8671875 C82.6020995 41.0720707 81.76432664 45.78515067 78.29296875 50.9921875 C78.15576779 53.27742306 78.15576779 53.27742306 78.48046875 55.7421875 C78.55652344 56.56203125 78.63257813 57.381875 78.7109375 58.2265625 C79.21143201 61.14386321 79.21143201 61.14386321 80.81640625 64.18359375 C82.86494697 68.75699348 82.78693799 73.23573865 82.73046875 78.1796875 C82.72217041 79.11224365 82.71387207 80.0447998 82.70532227 81.00561523 C82.32113713 96.72439294 75.00203098 109.03651493 64.9921875 120.8359375 C63.42343933 122.82662484 62.32498815 124.68716955 61.29296875 126.9921875 C61.95296875 126.9921875 62.61296875 126.9921875 63.29296875 126.9921875 C63.51984375 126.2909375 63.74671875 125.5896875 63.98046875 124.8671875 C67.68216007 116.75872081 74.12935419 113.03566834 82.10058594 109.76757812 C98.211187 104.06966399 115.78463751 103.76052041 132.66796875 103.7421875 C133.89386719 103.73967987 133.89386719 103.73967987 135.14453125 103.73712158 C147.91064612 103.73557769 160.57256234 104.30047715 173.29296875 105.3671875 C174.05180359 105.43031128 174.81063843 105.49343506 175.59246826 105.55847168 C185.21487342 106.3766526 194.74660968 107.51900729 204.29296875 108.9921875 C204.29296875 109.6521875 204.29296875 110.3121875 204.29296875 110.9921875 C205.22109375 111.0953125 206.14921875 111.1984375 207.10546875 111.3046875 C210.29296875 111.9921875 210.29296875 111.9921875 212.16796875 113.1796875 C213.8950113 115.96214494 213.73498816 117.7717604 213.29296875 120.9921875 C207.81042351 132.20648459 195.79886481 138.32233883 185.29296875 143.9921875 C184.431875 144.52585937 183.57078125 145.05953125 182.68359375 145.609375 C170.23527819 152.80987125 152.46866517 150.69761771 138.98046875 147.4921875 C137.98789062 147.22535156 136.9953125 146.95851563 135.97265625 146.68359375 C132.80909571 145.86733979 129.7299792 145.53116266 126.484375 145.23828125 C121.59717597 144.68945141 116.780932 143.55156444 111.98657227 142.47363281 C107.18392371 141.61522413 102.34715966 141.76571229 97.48046875 141.7421875 C96.42537109 141.7215625 95.37027344 141.7009375 94.28320312 141.6796875 C86.95713818 141.64317129 80.6811694 142.04980273 74.91796875 147.0546875 C72.60184162 151.24153269 72.05669879 155.30324027 71.29296875 159.9921875 C71.03561582 161.33678046 70.77357957 162.68048231 70.5078125 164.0234375 C70.30007202 165.08244263 70.30007202 165.08244263 70.08813477 166.1628418 C69.81294083 167.56567527 69.5361454 168.96819575 69.25756836 170.37036133 C68.57110514 173.96909274 68.18726572 177.33222019 68.29296875 180.9921875 C67.81478338 183.94099727 67.08831808 186.73404618 66.29296875 189.6171875 C65.43998413 192.93504679 65.0552674 196.14012117 64.79296875 199.5546875 C64.44968179 203.94514701 63.57554694 207.76722407 62.29296875 211.9921875 C61.96539649 213.80202421 61.65420445 215.61486809 61.35546875 217.4296875 C60.64698258 221.52440287 59.59288209 225.10159961 58.0234375 228.93359375 C56.63923829 232.83451879 56.00168485 236.92332333 55.29296875 240.9921875 C54.63296875 240.9921875 53.97296875 240.9921875 53.29296875 240.9921875 C53.14859375 242.2915625 53.00421875 243.5909375 52.85546875 244.9296875 C49.70378359 260.82415725 37.72259439 277.48792476 24.66796875 286.8046875 C19.06002169 290.08981625 12.62308452 290.94328072 6.29296875 291.9921875 C5.52082031 292.12496094 4.74867188 292.25773437 3.953125 292.39453125 C1.7289365 292.70617378 -0.46437394 292.86353894 -2.70703125 292.9921875 C-3.89941406 293.09144531 -5.09179688 293.19070313 -6.3203125 293.29296875 C-16.46971536 293.90396132 -24.45193862 292.30356026 -32.70703125 285.9921875 C-34.76206805 283.10600249 -35.94008419 280.44344925 -36.70703125 276.9921875 C-36.90039062 277.80042969 -37.09375 278.60867188 -37.29296875 279.44140625 C-37.55335938 280.51003906 -37.81375 281.57867187 -38.08203125 282.6796875 C-38.33726562 283.73542969 -38.5925 284.79117187 -38.85546875 285.87890625 C-40.49084626 291.8577864 -42.47276574 297.08488767 -47.26953125 301.1796875 C-55.56908416 305.5558154 -66.02475591 306.51010077 -75.0703125 304.09375 C-77.98160764 303.12902 -80.85089624 302.10872195 -83.70703125 300.9921875 C-83.70703125 300.3321875 -83.70703125 299.6721875 -83.70703125 298.9921875 C-84.30515625 298.8890625 -84.90328125 298.7859375 -85.51953125 298.6796875 C-88.02240849 297.89306894 -88.9201788 296.85672919 -90.70703125 294.9921875 C-91.69703125 294.6621875 -92.68703125 294.3321875 -93.70703125 293.9921875 C-95.3125 292.43359375 -95.3125 292.43359375 -96.89453125 290.5546875 C-97.42433594 289.93722656 -97.95414063 289.31976563 -98.5 288.68359375 C-99.70703125 286.9921875 -99.70703125 286.9921875 -99.70703125 284.9921875 C-100.69703125 284.6621875 -101.68703125 284.3321875 -102.70703125 283.9921875 C-104.45822631 281.64751565 -106.06695895 279.3237934 -107.64453125 276.8671875 C-108.07443359 276.21492188 -108.50433594 275.56265625 -108.94726562 274.890625 C-116.70703125 263.02136286 -116.70703125 263.02136286 -116.70703125 259.9921875 C-117.36703125 259.6621875 -118.02703125 259.3321875 -118.70703125 258.9921875 C-120.11250987 256.42718902 -121.43014126 253.86999009 -122.70703125 251.2421875 C-123.0628125 250.52546875 -123.41859375 249.80875 -123.78515625 249.0703125 C-135.39556703 225.50291151 -138.0690668 199.10452029 -140.06176758 173.26293945 C-140.16847778 171.89915161 -140.16847778 171.89915161 -140.27734375 170.5078125 C-140.33680176 169.70633789 -140.39625977 168.90486328 -140.45751953 168.07910156 C-140.65882599 165.80118839 -140.65882599 165.80118839 -141.70703125 162.9921875 C-141.75389081 160.13082558 -141.75054624 157.28973132 -141.70703125 154.4296875 C-141.63577205 146.81891102 -141.87845165 139.28356195 -142.43945312 131.69311523 C-142.66236897 128.43891535 -142.75030766 126.12201672 -141.70703125 122.9921875 C-143.09921875 123.20875 -143.09921875 123.20875 -144.51953125 123.4296875 C-147.74342999 123.90052058 -150.95902774 124.17880723 -154.20703125 124.4296875 C-158.59848018 124.81259313 -162.49049981 125.66476094 -166.70703125 126.9921875 C-168.01655923 127.29692043 -169.32946203 127.58733284 -170.64453125 127.8671875 C-172.33236099 128.24070057 -174.01981734 128.61590238 -175.70703125 128.9921875 C-177.28291016 129.33830078 -177.28291016 129.33830078 -178.890625 129.69140625 C-189.24210616 132.11222883 -199.20265568 135.41997239 -209.21435547 138.99438477 C-222.58855554 143.63957779 -222.58855554 143.63957779 -229.83203125 140.7421875 C-239.62597861 131.37406394 -240.65092392 117.83720028 -241.70703125 104.9921875 C-241.70703125 103.6721875 -241.70703125 102.3521875 -241.70703125 100.9921875 C-209.16453823 92.80461263 -175.83168658 91.57546812 -142.70703125 96.9921875 C-141.78889648 97.13672363 -140.87076172 97.28125977 -139.92480469 97.43017578 C-137.36393819 97.84925198 -134.81749627 98.31375012 -132.26953125 98.8046875 C-131.52340576 98.93327148 -130.77728027 99.06185547 -130.00854492 99.19433594 C-127.9609375 99.63671875 -127.9609375 99.63671875 -124.70703125 100.9921875 C-122.5799144 104.9308898 -122.49161475 107.66898597 -123.58203125 111.9296875 C-126.21367575 124.20127834 -124.55648989 137.02815082 -123.08203125 149.3671875 C-122.99466705 150.11386688 -122.90730286 150.86054626 -122.81729126 151.62985229 C-115.60910753 218.52462392 -115.60910753 218.52462392 -81.70703125 273.9921875 C-79.54909038 275.25892875 -79.54909038 275.25892875 -77.70703125 275.9921875 C-78.22910156 275.47914063 -78.75117188 274.96609375 -79.2890625 274.4375 C-97.14466353 255.86267161 -105.93174229 231.27254639 -111.8125 206.6484375 C-112.37746936 204.33921776 -112.99163481 202.04099162 -113.6730957 199.76342773 C-114.74146409 195.86659503 -115.49346791 191.97776586 -116.14453125 187.99609375 C-116.27013428 187.24488754 -116.3957373 186.49368134 -116.52514648 185.7197113 C-116.7892382 184.13418649 -117.0513316 182.54832767 -117.31152344 180.9621582 C-117.70095517 178.59167283 -118.09800143 176.22256004 -118.49609375 173.85351562 C-122.63410373 149.00762091 -124.83684232 126.5565601 -120.18066406 101.6328125 C-118.69971901 93.37616213 -117.39881151 85.92175119 -121.51953125 78.28125 C-122.95678339 75.51075739 -123.91441767 72.7041484 -124.89453125 69.7421875 C-125.21808594 68.76765625 -125.54164063 67.793125 -125.875 66.7890625 C-129.1881047 55.65205327 -129.76439485 41.0320663 -124.96484375 30.30859375 C-117.46598931 16.49859163 -106.83396429 8.53952042 -91.90234375 3.69921875 C-84.32911042 1.48168637 -77.34087855 -0.15233959 -69.44360352 0.10742188 C-63.11511857 0.30634208 -57.74188561 0.3496958 -51.76953125 -2.0078125 C-36.58820556 -7.44214692 -14.9707125 -5.57351201 0 0 Z M-52.70703125 4.9921875 C-51.88203125 5.9203125 -51.05703125 6.8484375 -50.20703125 7.8046875 C-47.70703125 10.6171875 -47.70703125 10.6171875 -47.70703125 13.9921875 C-50.48473237 13.58067622 -51.72706606 12.97501481 -53.89453125 11.1171875 C-60.97641703 5.76642935 -69.06873312 5.08343037 -77.70703125 5.9921875 C-92.96322974 8.85879804 -107.22697524 14.75471777 -116.625 27.6171875 C-123.30036872 38.27240788 -123.36494466 51.9838099 -120.64453125 64.1171875 C-118.79648049 70.49162346 -115.99946846 76.50582784 -113.23046875 82.5234375 C-112.10768235 85.07993577 -111.22037249 87.27286634 -110.70703125 89.9921875 C-111.36703125 89.9921875 -112.02703125 89.9921875 -112.70703125 89.9921875 C-112.83549438 90.90713989 -112.83549438 90.90713989 -112.96655273 91.84057617 C-113.35772189 94.62049201 -113.75110569 97.40009014 -114.14453125 100.1796875 C-114.27923828 101.13939453 -114.41394531 102.09910156 -114.55273438 103.08789062 C-114.75092773 104.48491211 -114.75092773 104.48491211 -114.953125 105.91015625 C-115.07357178 106.76375732 -115.19401855 107.6173584 -115.31811523 108.49682617 C-115.57606838 110.15190408 -115.88440098 111.79995412 -116.24365234 113.43603516 C-120.18749726 135.19159692 -115.48285357 159.16735235 -111.1875 180.55126953 C-110.75351062 182.75605907 -110.34646378 184.96275602 -109.95703125 187.17578125 C-104.40014925 218.5279621 -94.44353914 258.47161625 -66.70703125 277.9921875 C-64.21525398 279.40797004 -63.04312054 279.9921875 -60.14453125 279.9921875 C-57.52602182 279.17267059 -57.52602182 279.17267059 -56.08203125 276.69140625 C-54.11338978 271.39508956 -54.30623298 266.41127603 -54.26953125 260.8046875 C-53.5771144 230.15898497 -48.8797138 195.67339041 -27.1484375 172.32421875 C-20.66245491 166.12880818 -13.66982044 161.21438603 -4.70703125 159.9921875 C-4.890625 161.8203125 -4.890625 161.8203125 -5.70703125 163.9921875 C-7.9921875 165.4765625 -7.9921875 165.4765625 -10.76953125 166.7421875 C-11.68863281 167.17015625 -12.60773438 167.598125 -13.5546875 168.0390625 C-14.26496094 168.35359375 -14.97523438 168.668125 -15.70703125 168.9921875 C-12.85118222 171.0393465 -12.85118222 171.0393465 -9.95703125 172.1171875 C-3.68622591 175.73495981 0.92952989 181.24901288 2.859375 188.28515625 C6.28439519 209.66839039 0.52985852 232.58241761 -9.58203125 251.3671875 C-12.65496734 257.24171874 -14.0890331 262.38793088 -12.70703125 268.9921875 C-10.76091334 271.35680705 -10.76091334 271.35680705 -7.20703125 271.3671875 C1.7247873 271.06086159 8.53670752 266.78631075 14.84765625 260.72265625 C22.92967735 251.69816305 28.09643629 241.04122534 32.54052734 229.87255859 C33.20975506 228.20014073 33.91491246 226.54220144 34.625 224.88671875 C42.23620022 205.82247439 44.5789978 185.39613046 45.46337891 165.0769043 C46.02226274 154.41935683 48.21563685 144.93026068 51.68017578 134.87402344 C52.4175595 132.60957974 52.91083254 130.34161753 53.29296875 127.9921875 C48.96924982 130.01851819 48.96924982 130.01851819 45.29296875 132.9921875 C44.30296875 132.9921875 43.31296875 132.9921875 42.29296875 132.9921875 C42.3828125 130.76171875 42.3828125 130.76171875 43.29296875 127.9921875 C45.47684404 126.34168745 47.49635116 125.01953794 49.85546875 123.6796875 C62.18893398 116.18266137 72.12384738 105.19667616 75.84375 90.87109375 C77.38604212 80.98701295 77.66538075 70.33302324 73.1953125 61.265625 C71.52186647 57.04941033 71.50642901 52.42798818 72.29296875 47.9921875 C73.7578125 45.859375 73.7578125 45.859375 75.29296875 43.9921875 C77.96802417 35.96702123 77.0709753 26.67737654 73.46875 19.1015625 C69.13335589 11.32377904 63.46917837 8.33008159 55.29296875 4.9921875 C39.88910227 1.32574636 23.22308151 3.67495229 8.19921875 7.74609375 C-3.45609948 10.8650901 -15.69735695 11.3741206 -27.70703125 10.9921875 C-27.70703125 10.0021875 -27.70703125 9.0121875 -27.70703125 7.9921875 C-20.77703125 7.3321875 -13.84703125 6.6721875 -6.70703125 5.9921875 C-6.70703125 5.3321875 -6.70703125 4.6721875 -6.70703125 3.9921875 C-14.94275977 1.89024189 -22.92555645 1.65815986 -31.39453125 1.6796875 C-32.67392578 1.66357422 -33.95332031 1.64746094 -35.27148438 1.63085938 C-41.82335841 1.6274558 -46.95141155 1.72175292 -52.70703125 4.9921875 Z M60.29296875 126.9921875 C53.09190511 145.9623521 53.09190511 145.9623521 51.29296875 165.9921875 C51.62296875 165.9921875 51.95296875 165.9921875 52.29296875 165.9921875 C52.52371094 164.72246094 52.75445312 163.45273437 52.9921875 162.14453125 C55.00606426 151.40280795 57.53533237 141.25933522 61.29296875 130.9921875 C61.62296875 130.0021875 61.95296875 129.0121875 62.29296875 127.9921875 C61.63296875 127.6621875 60.97296875 127.3321875 60.29296875 126.9921875 Z M-11.70703125 177.9921875 C-11.28550781 178.77722656 -10.86398438 179.56226563 -10.4296875 180.37109375 C-4.91554559 190.94527177 -4.91554559 190.94527177 -4.70703125 196.9921875 C-4.63484375 197.91515625 -4.56265625 198.838125 -4.48828125 199.7890625 C-4.12777649 207.46781383 -5.18854469 214.29238843 -6.95703125 221.7421875 C-7.16150879 222.60473145 -7.36598633 223.46727539 -7.57666016 224.35595703 C-9.69109625 232.7289961 -12.79082922 240.49211067 -16.85424805 248.10375977 C-20.97707489 255.83563239 -24.13241051 261.87759133 -21.64453125 270.8046875 C-18.88494486 275.3446522 -15.6892727 277.33144035 -10.70703125 278.9921875 C-2.04760478 279.67944357 5.90063519 278.13662883 13.0703125 273.00390625 C18.20272213 268.53523682 22.50642944 263.6412116 26.29296875 257.9921875 C25.96296875 257.3321875 25.63296875 256.6721875 25.29296875 255.9921875 C24.28703632 257.1118861 23.28838385 258.2381287 22.29296875 259.3671875 C21.73609375 259.99367188 21.17921875 260.62015625 20.60546875 261.265625 C19.09124388 262.89608583 19.09124388 262.89608583 19.29296875 264.9921875 C18.70773437 265.26160156 18.1225 265.53101563 17.51953125 265.80859375 C15.296519 266.99030026 13.59460848 268.31868875 11.66796875 269.9296875 C5.05760986 274.95503469 -2.49534776 276.81335585 -10.70703125 275.9921875 C-14.08203125 274.9921875 -14.08203125 274.9921875 -16.70703125 272.9921875 C-19.67344145 265.94696328 -18.46606722 259.55996279 -15.76074219 252.53491211 C-14.66049655 250.08130448 -13.5079225 247.66039914 -12.33203125 245.2421875 C-8.60609745 237.26386954 -5.64525495 229.61246418 -3.70703125 220.9921875 C-3.37251953 219.54392578 -3.37251953 219.54392578 -3.03125 218.06640625 C-0.91614057 207.43330509 0.64427563 193.77216215 -4.70703125 183.9921875 C-6.25491704 181.74823986 -7.78707108 179.96137742 -9.70703125 177.9921875 C-10.36703125 177.9921875 -11.02703125 177.9921875 -11.70703125 177.9921875 Z M49.29296875 182.9921875 C50.29296875 186.9921875 50.29296875 186.9921875 50.29296875 186.9921875 Z M48.29296875 190.9921875 C49.29296875 193.9921875 49.29296875 193.9921875 49.29296875 193.9921875 Z M-35.70703125 192.9921875 C-34.70703125 194.9921875 -34.70703125 194.9921875 -34.70703125 194.9921875 Z M47.29296875 195.9921875 C48.29296875 199.9921875 48.29296875 199.9921875 48.29296875 199.9921875 Z M-37.70703125 197.9921875 C-36.70703125 199.9921875 -36.70703125 199.9921875 -36.70703125 199.9921875 Z M-38.70703125 199.9921875 C-37.70703125 202.9921875 -37.70703125 202.9921875 -37.70703125 202.9921875 Z M46.29296875 200.9921875 C47.29296875 203.9921875 47.29296875 203.9921875 47.29296875 203.9921875 Z M-39.70703125 202.9921875 C-38.70703125 205.9921875 -38.70703125 205.9921875 -38.70703125 205.9921875 Z M-26.08203125 206.8671875 C-31.80398293 212.8938585 -33.13793399 220.82743468 -33.53125 228.83984375 C-33.70703125 230.9921875 -33.70703125 230.9921875 -34.70703125 231.9921875 C-34.75368859 234.32505431 -34.74466076 236.65915761 -34.70703125 238.9921875 C-34.66940174 241.32521739 -34.66037391 243.65932069 -34.70703125 245.9921875 C-35.20203125 246.4871875 -35.20203125 246.4871875 -35.70703125 246.9921875 C-35.77883089 248.51146788 -35.79095132 250.03386232 -35.76953125 251.5546875 C-35.76050781 252.38097656 -35.75148437 253.20726562 -35.7421875 254.05859375 C-35.73058594 254.69667969 -35.71898437 255.33476562 -35.70703125 255.9921875 C-33.62764354 252.15331788 -32.20834554 248.07952722 -30.70703125 243.9921875 C-30.05842484 242.25533563 -29.40977092 240.5185014 -28.76043701 238.78192139 C-27.78074101 236.15670282 -26.808016 233.5289262 -25.8359375 230.90087891 C-25.33173314 229.54076806 -24.82553465 228.18139486 -24.31738281 226.82275391 C-23.57498309 224.83681077 -22.83957412 222.84839673 -22.10546875 220.859375 C-21.45070557 219.09762939 -21.45070557 219.09762939 -20.78271484 217.30029297 C-19.76300285 214.16431985 -19.03416932 211.27250642 -18.70703125 207.9921875 C-19.89598361 206.05186346 -19.89598361 206.05186346 -21.70703125 204.9921875 C-23.94972526 204.7856394 -23.94972526 204.7856394 -26.08203125 206.8671875 Z M-40.70703125 205.9921875 C-39.70703125 208.9921875 -39.70703125 208.9921875 -39.70703125 208.9921875 Z M45.29296875 205.9921875 C46.29296875 207.9921875 46.29296875 207.9921875 46.29296875 207.9921875 Z M-41.70703125 208.9921875 C-43.19203125 215.4271875 -43.19203125 215.4271875 -44.70703125 221.9921875 C-44.04703125 221.6621875 -43.38703125 221.3321875 -42.70703125 220.9921875 C-40.82271193 215.06270776 -40.82271193 215.06270776 -41.70703125 208.9921875 Z M44.29296875 209.9921875 C45.29296875 211.9921875 45.29296875 211.9921875 45.29296875 211.9921875 Z M43.29296875 213.9921875 C44.29296875 215.9921875 44.29296875 215.9921875 44.29296875 215.9921875 Z M-44.70703125 222.9921875 C-46.04287024 227.83460383 -46.96031244 231.92656367 -46.70703125 236.9921875 C-44.91427259 233.87307894 -44.36412407 231.31536322 -44.08203125 227.7421875 C-44.00726563 226.85015625 -43.9325 225.958125 -43.85546875 225.0390625 C-43.80648437 224.36359375 -43.7575 223.688125 -43.70703125 222.9921875 C-44.03703125 222.9921875 -44.36703125 222.9921875 -44.70703125 222.9921875 Z M37.29296875 231.9921875 C38.29296875 233.9921875 38.29296875 233.9921875 38.29296875 233.9921875 Z M-47.70703125 238.9921875 C-49.36090626 247.81285421 -48.80028827 257.06023718 -48.70703125 265.9921875 C-48.37703125 265.9921875 -48.04703125 265.9921875 -47.70703125 265.9921875 C-47.04703125 256.7521875 -46.38703125 247.5121875 -45.70703125 237.9921875 C-46.82488238 237.87433637 -46.82488238 237.87433637 -47.70703125 238.9921875 Z M34.29296875 238.9921875 C35.29296875 240.9921875 35.29296875 240.9921875 35.29296875 240.9921875 Z M33.29296875 240.9921875 C34.29296875 242.9921875 34.29296875 242.9921875 34.29296875 242.9921875 Z M31.29296875 244.9921875 C32.29296875 246.9921875 32.29296875 246.9921875 32.29296875 246.9921875 Z M30.29296875 246.9921875 C31.29296875 248.9921875 31.29296875 248.9921875 31.29296875 248.9921875 Z M29.29296875 248.9921875 C30.29296875 250.9921875 30.29296875 250.9921875 30.29296875 250.9921875 Z M28.29296875 250.9921875 C29.29296875 252.9921875 29.29296875 252.9921875 29.29296875 252.9921875 Z M26.29296875 253.9921875 C27.29296875 255.9921875 27.29296875 255.9921875 27.29296875 255.9921875 Z M-49.70703125 270.9921875 C-48.70703125 273.9921875 -48.70703125 273.9921875 -48.70703125 273.9921875 Z M-49.70703125 274.9921875 C-49.90296875 275.53488281 -50.09890625 276.07757813 -50.30078125 276.63671875 C-52.714372 282.41061042 -52.714372 282.41061042 -55.75390625 284.19140625 C-57.95703125 284.9921875 -57.95703125 284.9921875 -61.70703125 285.9921875 C-61.70703125 286.3221875 -61.70703125 286.6521875 -61.70703125 286.9921875 C-58.45063466 287.93489752 -58.45063466 287.93489752 -54.70703125 287.9921875 C-51.71003589 285.97247323 -50.06947637 284.44733752 -49.1796875 280.875 C-48.92628298 278.92413232 -48.80693218 276.95690589 -48.70703125 274.9921875 C-49.03703125 274.9921875 -49.36703125 274.9921875 -49.70703125 274.9921875 Z " transform="translate(263.70703125,164.0078125)" style="fill: #E9A894;"/><path d="M0 0 C6.05260555 2.15970033 10.33332534 1.79246178 16.48046875 0.1796875 C32.27372418 -3.94272323 52.0556507 -4.90123679 66.69921875 3.34765625 C68.74387944 4.77052647 70.50204756 6.26403224 72.29296875 7.9921875 C72.8446875 8.49363281 73.39640625 8.99507812 73.96484375 9.51171875 C80.7829945 16.44800578 82.51956318 25.4248829 82.66796875 34.8671875 C82.6020995 41.0720707 81.76432664 45.78515067 78.29296875 50.9921875 C78.15576779 53.27742306 78.15576779 53.27742306 78.48046875 55.7421875 C78.55652344 56.56203125 78.63257813 57.381875 78.7109375 58.2265625 C79.21143201 61.14386321 79.21143201 61.14386321 80.81640625 64.18359375 C82.86494697 68.75699348 82.78693799 73.23573865 82.73046875 78.1796875 C82.72217041 79.11224365 82.71387207 80.0447998 82.70532227 81.00561523 C82.32113713 96.72439294 75.00203098 109.03651493 64.9921875 120.8359375 C63.42343933 122.82662484 62.32498815 124.68716955 61.29296875 126.9921875 C61.95296875 126.9921875 62.61296875 126.9921875 63.29296875 126.9921875 C63.51984375 126.2909375 63.74671875 125.5896875 63.98046875 124.8671875 C67.68216007 116.75872081 74.12935419 113.03566834 82.10058594 109.76757812 C98.211187 104.06966399 115.78463751 103.76052041 132.66796875 103.7421875 C133.89386719 103.73967987 133.89386719 103.73967987 135.14453125 103.73712158 C147.91064612 103.73557769 160.57256234 104.30047715 173.29296875 105.3671875 C174.05180359 105.43031128 174.81063843 105.49343506 175.59246826 105.55847168 C185.21487342 106.3766526 194.74660968 107.51900729 204.29296875 108.9921875 C203.96296875 109.9821875 203.63296875 110.9721875 203.29296875 111.9921875 C197.7609903 111.58537373 192.22918035 111.17635977 186.69750977 110.76538086 C184.81897287 110.62611642 182.94039271 110.48743425 181.06176758 110.34936523 C178.34835173 110.14983877 175.63510275 109.94816006 172.921875 109.74609375 C172.0933754 109.6856337 171.26487579 109.62517365 170.41127014 109.56288147 C166.50453399 109.26999611 162.61875228 108.92470737 158.72875977 108.45776367 C154.37514068 107.95961109 150.07083552 107.81530247 145.69140625 107.7890625 C144.90024918 107.78204819 144.1090921 107.77503387 143.29396057 107.76780701 C140.75190474 107.75039939 138.210082 107.74395437 135.66796875 107.7421875 C134.79947296 107.74151276 133.93097717 107.74083801 133.03616333 107.74014282 C99.60406296 107.2058185 99.60406296 107.2058185 70.60546875 121.60546875 C57.84908375 138.12043148 56.02296351 160.54935294 54.41918945 180.56445312 C53.39155725 192.90551811 51.22504645 204.88420778 47.60546875 216.7421875 C47.35200684 217.57580811 47.09854492 218.40942871 46.83740234 219.26831055 C40.15110561 240.58464168 30.08302391 268.29882514 9.16796875 279.3046875 C1.96455346 282.84661576 -7.49331383 283.42677956 -15.19140625 281.30859375 C-19.84393356 279.2009639 -22.27552399 276.56342115 -24.70703125 271.9921875 C-27.37710725 263.98195949 -25.24248905 257.35171189 -21.70703125 249.9921875 C-20.54375507 247.71961546 -19.37685584 245.44889564 -18.20703125 243.1796875 C-14.86117635 236.66715656 -12.51612064 230.08278903 -10.70703125 222.9921875 C-10.53042969 222.33822998 -10.35382813 221.68427246 -10.171875 221.01049805 C-8.61580159 214.80079261 -8.34038208 208.81389418 -8.33203125 202.4296875 C-8.30753906 201.44033203 -8.28304687 200.45097656 -8.2578125 199.43164062 C-8.22928978 192.26768332 -9.39133485 186.84090498 -14.13916016 181.32983398 C-15.8020972 179.71740232 -15.8020972 179.71740232 -18.95703125 179.1171875 C-23.3663833 180.14603631 -23.8099025 180.86000847 -26.26953125 184.4921875 C-40.31371246 209.05376001 -42.72633707 237.60923534 -43.97314453 265.26489258 C-44.85479603 283.95706993 -44.85479603 283.95706993 -50.70703125 289.9921875 C-54.09711965 291.6872317 -57.06547647 291.64481554 -60.70703125 290.9921875 C-80.70834008 283.24896236 -94.67901128 269.15816225 -103.70703125 249.9921875 C-106.36279241 243.77366391 -108.56760919 237.40304571 -110.70703125 230.9921875 C-111.073125 229.93128906 -111.43921875 228.87039063 -111.81640625 227.77734375 C-117.54536553 210.28523448 -121.02106625 192.18958884 -123.95703125 174.0546875 C-124.08172791 173.28970947 -124.20642456 172.52473145 -124.3348999 171.73657227 C-126.74703329 156.82258173 -129.11772591 141.75978967 -128.95703125 126.6171875 C-128.95316406 125.69599121 -128.94929688 124.77479492 -128.9453125 123.82568359 C-128.85938727 117.05310459 -128.26879148 110.60177988 -126.70703125 103.9921875 C-127.45726562 103.87101562 -128.2075 103.74984375 -128.98046875 103.625 C-130.00398438 103.45742188 -131.0275 103.28984375 -132.08203125 103.1171875 C-133.07976562 102.95476562 -134.0775 102.79234375 -135.10546875 102.625 C-137.93249543 102.12827731 -140.72990886 101.57655257 -143.5390625 100.9921875 C-175.59911185 94.54768434 -210.15138002 96.89150676 -241.70703125 104.9921875 C-241.70703125 103.6721875 -241.70703125 102.3521875 -241.70703125 100.9921875 C-209.16453823 92.80461263 -175.83168658 91.57546812 -142.70703125 96.9921875 C-141.78889648 97.13672363 -140.87076172 97.28125977 -139.92480469 97.43017578 C-137.36393819 97.84925198 -134.81749627 98.31375012 -132.26953125 98.8046875 C-131.52340576 98.93327148 -130.77728027 99.06185547 -130.00854492 99.19433594 C-127.9609375 99.63671875 -127.9609375 99.63671875 -124.70703125 100.9921875 C-122.5799144 104.9308898 -122.49161475 107.66898597 -123.58203125 111.9296875 C-126.21367575 124.20127834 -124.55648989 137.02815082 -123.08203125 149.3671875 C-122.99466705 150.11386688 -122.90730286 150.86054626 -122.81729126 151.62985229 C-115.60910753 218.52462392 -115.60910753 218.52462392 -81.70703125 273.9921875 C-79.54909038 275.25892875 -79.54909038 275.25892875 -77.70703125 275.9921875 C-78.22910156 275.47914063 -78.75117188 274.96609375 -79.2890625 274.4375 C-97.14466353 255.86267161 -105.93174229 231.27254639 -111.8125 206.6484375 C-112.37746936 204.33921776 -112.99163481 202.04099162 -113.6730957 199.76342773 C-114.74146409 195.86659503 -115.49346791 191.97776586 -116.14453125 187.99609375 C-116.27013428 187.24488754 -116.3957373 186.49368134 -116.52514648 185.7197113 C-116.7892382 184.13418649 -117.0513316 182.54832767 -117.31152344 180.9621582 C-117.70095517 178.59167283 -118.09800143 176.22256004 -118.49609375 173.85351562 C-122.63410373 149.00762091 -124.83684232 126.5565601 -120.18066406 101.6328125 C-118.69971901 93.37616213 -117.39881151 85.92175119 -121.51953125 78.28125 C-122.95678339 75.51075739 -123.91441767 72.7041484 -124.89453125 69.7421875 C-125.21808594 68.76765625 -125.54164063 67.793125 -125.875 66.7890625 C-129.1881047 55.65205327 -129.76439485 41.0320663 -124.96484375 30.30859375 C-117.46598931 16.49859163 -106.83396429 8.53952042 -91.90234375 3.69921875 C-84.32911042 1.48168637 -77.34087855 -0.15233959 -69.44360352 0.10742188 C-63.11511857 0.30634208 -57.74188561 0.3496958 -51.76953125 -2.0078125 C-36.58820556 -7.44214692 -14.9707125 -5.57351201 0 0 Z M-52.70703125 4.9921875 C-51.88203125 5.9203125 -51.05703125 6.8484375 -50.20703125 7.8046875 C-47.70703125 10.6171875 -47.70703125 10.6171875 -47.70703125 13.9921875 C-50.48473237 13.58067622 -51.72706606 12.97501481 -53.89453125 11.1171875 C-60.97641703 5.76642935 -69.06873312 5.08343037 -77.70703125 5.9921875 C-92.96322974 8.85879804 -107.22697524 14.75471777 -116.625 27.6171875 C-123.30036872 38.27240788 -123.36494466 51.9838099 -120.64453125 64.1171875 C-118.79648049 70.49162346 -115.99946846 76.50582784 -113.23046875 82.5234375 C-112.10768235 85.07993577 -111.22037249 87.27286634 -110.70703125 89.9921875 C-111.36703125 89.9921875 -112.02703125 89.9921875 -112.70703125 89.9921875 C-112.83549438 90.90713989 -112.83549438 90.90713989 -112.96655273 91.84057617 C-113.35772189 94.62049201 -113.75110569 97.40009014 -114.14453125 100.1796875 C-114.27923828 101.13939453 -114.41394531 102.09910156 -114.55273438 103.08789062 C-114.75092773 104.48491211 -114.75092773 104.48491211 -114.953125 105.91015625 C-115.07357178 106.76375732 -115.19401855 107.6173584 -115.31811523 108.49682617 C-115.57606838 110.15190408 -115.88440098 111.79995412 -116.24365234 113.43603516 C-120.18749726 135.19159692 -115.48285357 159.16735235 -111.1875 180.55126953 C-110.75351062 182.75605907 -110.34646378 184.96275602 -109.95703125 187.17578125 C-104.40014925 218.5279621 -94.44353914 258.47161625 -66.70703125 277.9921875 C-64.21525398 279.40797004 -63.04312054 279.9921875 -60.14453125 279.9921875 C-57.52602182 279.17267059 -57.52602182 279.17267059 -56.08203125 276.69140625 C-54.11338978 271.39508956 -54.30623298 266.41127603 -54.26953125 260.8046875 C-53.5771144 230.15898497 -48.8797138 195.67339041 -27.1484375 172.32421875 C-20.66245491 166.12880818 -13.66982044 161.21438603 -4.70703125 159.9921875 C-4.890625 161.8203125 -4.890625 161.8203125 -5.70703125 163.9921875 C-7.9921875 165.4765625 -7.9921875 165.4765625 -10.76953125 166.7421875 C-11.68863281 167.17015625 -12.60773438 167.598125 -13.5546875 168.0390625 C-14.26496094 168.35359375 -14.97523438 168.668125 -15.70703125 168.9921875 C-12.85118222 171.0393465 -12.85118222 171.0393465 -9.95703125 172.1171875 C-3.68622591 175.73495981 0.92952989 181.24901288 2.859375 188.28515625 C6.28439519 209.66839039 0.52985852 232.58241761 -9.58203125 251.3671875 C-12.65496734 257.24171874 -14.0890331 262.38793088 -12.70703125 268.9921875 C-10.76091334 271.35680705 -10.76091334 271.35680705 -7.20703125 271.3671875 C1.7247873 271.06086159 8.53670752 266.78631075 14.84765625 260.72265625 C22.92967735 251.69816305 28.09643629 241.04122534 32.54052734 229.87255859 C33.20975506 228.20014073 33.91491246 226.54220144 34.625 224.88671875 C42.23620022 205.82247439 44.5789978 185.39613046 45.46337891 165.0769043 C46.02226274 154.41935683 48.21563685 144.93026068 51.68017578 134.87402344 C52.4175595 132.60957974 52.91083254 130.34161753 53.29296875 127.9921875 C48.96924982 130.01851819 48.96924982 130.01851819 45.29296875 132.9921875 C44.30296875 132.9921875 43.31296875 132.9921875 42.29296875 132.9921875 C42.3828125 130.76171875 42.3828125 130.76171875 43.29296875 127.9921875 C45.47684404 126.34168745 47.49635116 125.01953794 49.85546875 123.6796875 C62.18893398 116.18266137 72.12384738 105.19667616 75.84375 90.87109375 C77.38604212 80.98701295 77.66538075 70.33302324 73.1953125 61.265625 C71.52186647 57.04941033 71.50642901 52.42798818 72.29296875 47.9921875 C73.7578125 45.859375 73.7578125 45.859375 75.29296875 43.9921875 C77.96802417 35.96702123 77.0709753 26.67737654 73.46875 19.1015625 C69.13335589 11.32377904 63.46917837 8.33008159 55.29296875 4.9921875 C39.88910227 1.32574636 23.22308151 3.67495229 8.19921875 7.74609375 C-3.45609948 10.8650901 -15.69735695 11.3741206 -27.70703125 10.9921875 C-27.70703125 10.0021875 -27.70703125 9.0121875 -27.70703125 7.9921875 C-20.77703125 7.3321875 -13.84703125 6.6721875 -6.70703125 5.9921875 C-6.70703125 5.3321875 -6.70703125 4.6721875 -6.70703125 3.9921875 C-14.94275977 1.89024189 -22.92555645 1.65815986 -31.39453125 1.6796875 C-32.67392578 1.66357422 -33.95332031 1.64746094 -35.27148438 1.63085938 C-41.82335841 1.6274558 -46.95141155 1.72175292 -52.70703125 4.9921875 Z M60.29296875 126.9921875 C53.09190511 145.9623521 53.09190511 145.9623521 51.29296875 165.9921875 C51.62296875 165.9921875 51.95296875 165.9921875 52.29296875 165.9921875 C52.52371094 164.72246094 52.75445312 163.45273437 52.9921875 162.14453125 C55.00606426 151.40280795 57.53533237 141.25933522 61.29296875 130.9921875 C61.62296875 130.0021875 61.95296875 129.0121875 62.29296875 127.9921875 C61.63296875 127.6621875 60.97296875 127.3321875 60.29296875 126.9921875 Z M-11.70703125 177.9921875 C-11.28550781 178.77722656 -10.86398438 179.56226563 -10.4296875 180.37109375 C-4.91554559 190.94527177 -4.91554559 190.94527177 -4.70703125 196.9921875 C-4.63484375 197.91515625 -4.56265625 198.838125 -4.48828125 199.7890625 C-4.12777649 207.46781383 -5.18854469 214.29238843 -6.95703125 221.7421875 C-7.16150879 222.60473145 -7.36598633 223.46727539 -7.57666016 224.35595703 C-9.69109625 232.7289961 -12.79082922 240.49211067 -16.85424805 248.10375977 C-20.97707489 255.83563239 -24.13241051 261.87759133 -21.64453125 270.8046875 C-18.88494486 275.3446522 -15.6892727 277.33144035 -10.70703125 278.9921875 C-2.04760478 279.67944357 5.90063519 278.13662883 13.0703125 273.00390625 C18.20272213 268.53523682 22.50642944 263.6412116 26.29296875 257.9921875 C25.96296875 257.3321875 25.63296875 256.6721875 25.29296875 255.9921875 C24.28703632 257.1118861 23.28838385 258.2381287 22.29296875 259.3671875 C21.73609375 259.99367188 21.17921875 260.62015625 20.60546875 261.265625 C19.09124388 262.89608583 19.09124388 262.89608583 19.29296875 264.9921875 C18.70773437 265.26160156 18.1225 265.53101563 17.51953125 265.80859375 C15.296519 266.99030026 13.59460848 268.31868875 11.66796875 269.9296875 C5.05760986 274.95503469 -2.49534776 276.81335585 -10.70703125 275.9921875 C-14.08203125 274.9921875 -14.08203125 274.9921875 -16.70703125 272.9921875 C-19.67344145 265.94696328 -18.46606722 259.55996279 -15.76074219 252.53491211 C-14.66049655 250.08130448 -13.5079225 247.66039914 -12.33203125 245.2421875 C-8.60609745 237.26386954 -5.64525495 229.61246418 -3.70703125 220.9921875 C-3.37251953 219.54392578 -3.37251953 219.54392578 -3.03125 218.06640625 C-0.91614057 207.43330509 0.64427563 193.77216215 -4.70703125 183.9921875 C-6.25491704 181.74823986 -7.78707108 179.96137742 -9.70703125 177.9921875 C-10.36703125 177.9921875 -11.02703125 177.9921875 -11.70703125 177.9921875 Z M49.29296875 182.9921875 C50.29296875 186.9921875 50.29296875 186.9921875 50.29296875 186.9921875 Z M48.29296875 190.9921875 C49.29296875 193.9921875 49.29296875 193.9921875 49.29296875 193.9921875 Z M-35.70703125 192.9921875 C-34.70703125 194.9921875 -34.70703125 194.9921875 -34.70703125 194.9921875 Z M47.29296875 195.9921875 C48.29296875 199.9921875 48.29296875 199.9921875 48.29296875 199.9921875 Z M-37.70703125 197.9921875 C-36.70703125 199.9921875 -36.70703125 199.9921875 -36.70703125 199.9921875 Z M-38.70703125 199.9921875 C-37.70703125 202.9921875 -37.70703125 202.9921875 -37.70703125 202.9921875 Z M46.29296875 200.9921875 C47.29296875 203.9921875 47.29296875 203.9921875 47.29296875 203.9921875 Z M-39.70703125 202.9921875 C-38.70703125 205.9921875 -38.70703125 205.9921875 -38.70703125 205.9921875 Z M-40.70703125 205.9921875 C-39.70703125 208.9921875 -39.70703125 208.9921875 -39.70703125 208.9921875 Z M45.29296875 205.9921875 C46.29296875 207.9921875 46.29296875 207.9921875 46.29296875 207.9921875 Z M-41.70703125 208.9921875 C-43.19203125 215.4271875 -43.19203125 215.4271875 -44.70703125 221.9921875 C-44.04703125 221.6621875 -43.38703125 221.3321875 -42.70703125 220.9921875 C-40.82271193 215.06270776 -40.82271193 215.06270776 -41.70703125 208.9921875 Z M44.29296875 209.9921875 C45.29296875 211.9921875 45.29296875 211.9921875 45.29296875 211.9921875 Z M43.29296875 213.9921875 C44.29296875 215.9921875 44.29296875 215.9921875 44.29296875 215.9921875 Z M-44.70703125 222.9921875 C-46.04287024 227.83460383 -46.96031244 231.92656367 -46.70703125 236.9921875 C-44.91427259 233.87307894 -44.36412407 231.31536322 -44.08203125 227.7421875 C-44.00726563 226.85015625 -43.9325 225.958125 -43.85546875 225.0390625 C-43.80648437 224.36359375 -43.7575 223.688125 -43.70703125 222.9921875 C-44.03703125 222.9921875 -44.36703125 222.9921875 -44.70703125 222.9921875 Z M37.29296875 231.9921875 C38.29296875 233.9921875 38.29296875 233.9921875 38.29296875 233.9921875 Z M-47.70703125 238.9921875 C-49.36090626 247.81285421 -48.80028827 257.06023718 -48.70703125 265.9921875 C-48.37703125 265.9921875 -48.04703125 265.9921875 -47.70703125 265.9921875 C-47.04703125 256.7521875 -46.38703125 247.5121875 -45.70703125 237.9921875 C-46.82488238 237.87433637 -46.82488238 237.87433637 -47.70703125 238.9921875 Z M34.29296875 238.9921875 C35.29296875 240.9921875 35.29296875 240.9921875 35.29296875 240.9921875 Z M33.29296875 240.9921875 C34.29296875 242.9921875 34.29296875 242.9921875 34.29296875 242.9921875 Z M31.29296875 244.9921875 C32.29296875 246.9921875 32.29296875 246.9921875 32.29296875 246.9921875 Z M30.29296875 246.9921875 C31.29296875 248.9921875 31.29296875 248.9921875 31.29296875 248.9921875 Z M29.29296875 248.9921875 C30.29296875 250.9921875 30.29296875 250.9921875 30.29296875 250.9921875 Z M28.29296875 250.9921875 C29.29296875 252.9921875 29.29296875 252.9921875 29.29296875 252.9921875 Z M26.29296875 253.9921875 C27.29296875 255.9921875 27.29296875 255.9921875 27.29296875 255.9921875 Z M-49.70703125 270.9921875 C-48.70703125 273.9921875 -48.70703125 273.9921875 -48.70703125 273.9921875 Z M-49.70703125 274.9921875 C-49.90296875 275.53488281 -50.09890625 276.07757813 -50.30078125 276.63671875 C-52.714372 282.41061042 -52.714372 282.41061042 -55.75390625 284.19140625 C-57.95703125 284.9921875 -57.95703125 284.9921875 -61.70703125 285.9921875 C-61.70703125 286.3221875 -61.70703125 286.6521875 -61.70703125 286.9921875 C-58.45063466 287.93489752 -58.45063466 287.93489752 -54.70703125 287.9921875 C-51.71003589 285.97247323 -50.06947637 284.44733752 -49.1796875 280.875 C-48.92628298 278.92413232 -48.80693218 276.95690589 -48.70703125 274.9921875 C-49.03703125 274.9921875 -49.36703125 274.9921875 -49.70703125 274.9921875 Z " transform="translate(263.70703125,164.0078125)" style="fill: #080707;"/><path d="M0 0 C-0.0721875 0.61101562 -0.144375 1.22203125 -0.21875 1.8515625 C-5.27260243 51.68816284 4.68999593 125.07854888 36.01953125 165.6796875 C43.81213452 174.80948304 56.30232917 183.98664273 68.2578125 186.46875 C71.94213515 186.5304123 73.84240063 186.10963435 76.875 184 C81.47684131 177.50328285 81.34282627 169.81893842 81.5625 162.125 C81.62228861 160.25247171 81.68589725 158.38006025 81.75390625 156.5078125 C81.78979858 155.28022217 81.78979858 155.28022217 81.82641602 154.02783203 C82 152 82 152 83 150 C85.31 150.33 87.62 150.66 90 151 C90.57249533 183.05973864 90.57249533 183.05973864 82 195 C75.24240248 200.76868081 66.50005202 201.45904939 57.89453125 201.3359375 C52.67752289 200.73045475 47.86946232 198.90359435 43 197 C43 196.34 43 195.68 43 195 C42.1028125 194.8453125 42.1028125 194.8453125 41.1875 194.6875 C38.68462276 193.90088144 37.78685245 192.86454169 36 191 C35.01 190.67 34.02 190.34 33 190 C31.39453125 188.44140625 31.39453125 188.44140625 29.8125 186.5625 C29.28269531 185.94503906 28.75289062 185.32757813 28.20703125 184.69140625 C27 183 27 183 27 181 C26.01 180.67 25.02 180.34 24 180 C22.24880494 177.65532815 20.6400723 175.3316059 19.0625 172.875 C18.63259766 172.22273437 18.20269531 171.57046875 17.75976562 170.8984375 C10 159.02917536 10 159.02917536 10 156 C9.34 155.67 8.68 155.34 8 155 C6.59452138 152.43500152 5.27688999 149.87780259 4 147.25 C3.64421875 146.53328125 3.2884375 145.8165625 2.921875 145.078125 C-8.68853578 121.51072401 -11.36203555 95.11233279 -13.35473633 69.27075195 C-13.42587646 68.36156006 -13.4970166 67.45236816 -13.5703125 66.515625 C-13.62977051 65.71415039 -13.68922852 64.91267578 -13.75048828 64.08691406 C-13.95179474 61.80900089 -13.95179474 61.80900089 -15 59 C-15.04685956 56.13863808 -15.04351499 53.29754382 -15 50.4375 C-14.9287408 42.82672352 -15.1714204 35.29137445 -15.73242188 27.70092773 C-15.95533772 24.44672785 -16.04327641 22.12982922 -15 19 C-15.928125 19.144375 -16.85625 19.28875 -17.8125 19.4375 C-21.03639874 19.90833308 -24.25199649 20.18661973 -27.5 20.4375 C-31.89144893 20.82040563 -35.78346856 21.67257344 -40 23 C-41.30952798 23.30473293 -42.62243078 23.59514534 -43.9375 23.875 C-45.62532974 24.24851307 -47.31278609 24.62371488 -49 25 C-50.05058594 25.23074219 -51.10117188 25.46148437 -52.18359375 25.69921875 C-62.53507491 28.12004133 -72.49562443 31.42778489 -82.50732422 35.00219727 C-95.88152429 39.64739029 -95.88152429 39.64739029 -103.125 36.75 C-111.008455 29.20930392 -113.73915263 18.47141399 -114.109375 7.8671875 C-114.12281146 5.24035984 -114.09139384 2.62503405 -114 0 C-106.88098063 -2.00355635 -99.73504559 -3.46848712 -92.4375 -4.625 C-91.28834106 -4.80929565 -91.28834106 -4.80929565 -90.1159668 -4.99731445 C-60.69164055 -9.51479381 -28.60419002 -8.6294417 0 0 Z " transform="translate(137,268)" style="fill: #EBAB96;"/><path d="M0 0 C3.04428323 -0.51384398 4.7147006 -0.46705004 7.640625 0.5859375 C11.65138841 4.40463618 14.77183561 8.71640078 17.96191406 13.22802734 C20.33573523 16.56228634 22.80610631 19.82075398 25.27270508 23.08666992 C26.55753398 24.79170466 27.83605567 26.50151091 29.1081543 28.21606445 C32.02196947 32.14315025 34.96151897 36.02472793 38.07421875 39.796875 C38.59491943 40.43230225 39.11562012 41.06772949 39.65209961 41.72241211 C40.61520584 42.88771221 41.59060344 44.04300732 42.58032227 45.18579102 C43.859375 46.73828125 43.859375 46.73828125 45.640625 49.5859375 C45.310625 51.2359375 44.980625 52.8859375 44.640625 54.5859375 C41.340625 55.2459375 38.040625 55.9059375 34.640625 56.5859375 C35.43984375 57.68808594 36.2390625 58.79023437 37.0625 59.92578125 C43.12826426 68.30160315 49.15381091 76.70235651 55.10058594 85.16308594 C59.43767336 91.32329801 63.84556059 97.43105779 68.27734375 103.5234375 C69.73989259 105.53858666 71.1925835 107.56034741 72.640625 109.5859375 C73.05989258 110.16311523 73.47916016 110.74029297 73.91113281 111.33496094 C76.66960893 115.25262231 76.66960893 115.25262231 76.390625 118.4609375 C76.019375 119.5128125 76.019375 119.5128125 75.640625 120.5859375 C71.26533597 120.06339853 69.02682557 118.61573922 65.703125 115.7734375 C64.74535156 114.96261719 63.78757812 114.15179688 62.80078125 113.31640625 C61.74683925 112.40689457 60.69347725 111.49671045 59.640625 110.5859375 C58.49393116 109.60234955 57.34678325 108.61929076 56.19921875 107.63671875 C54.40843681 106.10239813 52.6186468 104.56700326 50.83203125 103.02783203 C47.33036115 100.01452258 43.79365262 97.05607131 40.203125 94.1484375 C35.15208432 90.04678479 30.23934104 85.80002739 25.33276367 81.52807617 C19.6883616 76.61613738 13.98651838 71.7757635 8.26416016 66.95507812 C6.55833404 65.51654085 4.8550075 64.07509109 3.15234375 62.6328125 C2.28633545 61.89925537 2.28633545 61.89925537 1.40283203 61.15087891 C0.31129039 60.22615718 -0.78018655 59.30135906 -1.87158203 58.37646484 C-5.35325525 55.42888007 -8.85191534 52.50272214 -12.359375 49.5859375 C-12.029375 47.9359375 -11.699375 46.2859375 -11.359375 44.5859375 C-5.749375 43.9259375 -0.139375 43.2659375 5.640625 42.5859375 C4.80660156 41.63074219 3.97257812 40.67554688 3.11328125 39.69140625 C-2.80210116 32.90149934 -8.69711448 26.10631121 -14.34375 19.08984375 C-15.70906862 17.39377934 -17.09530036 15.71437626 -18.5 14.05078125 C-19.15484375 13.25800781 -19.8096875 12.46523438 -20.484375 11.6484375 C-21.06445312 10.95878906 -21.64453125 10.26914062 -22.2421875 9.55859375 C-23.359375 7.5859375 -23.359375 7.5859375 -23.0390625 5.33203125 C-22.81476563 4.75582031 -22.59046875 4.17960937 -22.359375 3.5859375 C-9.94069764 1.19505195 -9.94069764 1.19505195 -4.59375 0.796875 C-2.31901898 0.63801119 -2.31901898 0.63801119 0 0 Z " transform="translate(123.359375,36.4140625)" style="fill: #040000;"/><path d="M0 0 C9.09869562 0.06242673 19.54318484 0.37507203 28.21484375 3.265625 C27.82448464 8.92583212 26.69818518 11.50769504 22.71484375 15.515625 C17.56566698 20.87751705 12.85991216 26.46552169 8.21484375 32.265625 C7.44269531 33.22726563 6.67054688 34.18890625 5.875 35.1796875 C3.98448715 37.53867542 2.09769356 39.90051938 0.21484375 42.265625 C1.35824219 42.39839844 2.50164062 42.53117187 3.6796875 42.66796875 C5.17059995 42.8461281 6.66148393 43.02452582 8.15234375 43.203125 C8.90708984 43.29013672 9.66183594 43.37714844 10.43945312 43.46679688 C16.1015625 44.15234375 16.1015625 44.15234375 17.21484375 45.265625 C17.58203125 47.5625 17.58203125 47.5625 17.21484375 50.265625 C15.16015625 52.40625 15.16015625 52.40625 12.33984375 54.515625 C8.49666897 57.48401063 4.78978587 60.47805765 1.21484375 63.765625 C-3.00529569 67.60754439 -7.36542809 71.22677721 -11.80078125 74.81640625 C-15.17276864 77.58373098 -18.48184195 80.41705965 -21.78515625 83.265625 C-25.88742123 86.80177409 -30.01317718 90.29426008 -34.22265625 93.703125 C-38.65763133 97.30205176 -42.97941471 101.01448844 -47.28515625 104.765625 C-48.56355216 105.8726845 -49.84219457 106.97945943 -51.12109375 108.0859375 C-53.43243254 110.08587921 -55.7273847 112.10213501 -58.01171875 114.1328125 C-58.96820313 114.96039063 -59.9246875 115.78796875 -60.91015625 116.640625 C-61.73773438 117.37023437 -62.5653125 118.09984375 -63.41796875 118.8515625 C-65.78515625 120.265625 -65.78515625 120.265625 -68.58984375 119.9921875 C-69.31429688 119.75242187 -70.03875 119.51265625 -70.78515625 119.265625 C-71.38063717 115.49185436 -70.74633276 114.2061656 -68.6171875 110.9453125 C-67.62100557 109.6689544 -66.61367926 108.40124615 -65.59765625 107.140625 C-60.93265791 101.15313312 -56.52104242 95.06403085 -52.28515625 88.765625 C-47.21850557 81.26506228 -41.92711756 73.97979944 -36.44140625 66.78125 C-33.81249917 63.32887644 -31.29180143 59.80762362 -28.78515625 56.265625 C-32.08515625 55.605625 -35.38515625 54.945625 -38.78515625 54.265625 C-39.78515625 49.265625 -39.78515625 49.265625 -38.97167969 47.45141602 C-38.31474121 46.61888306 -38.31474121 46.61888306 -37.64453125 45.76953125 C-37.15670166 45.1360376 -36.66887207 44.50254395 -36.16625977 43.84985352 C-35.35886353 42.8490979 -35.35886353 42.8490979 -34.53515625 41.828125 C-33.98593506 41.12292725 -33.43671387 40.41772949 -32.87084961 39.69116211 C-31.18938802 37.53805043 -29.48874041 35.40125216 -27.78515625 33.265625 C-26.85276168 32.07922784 -25.92167879 30.89179813 -24.9921875 29.703125 C-23.22401072 27.44395037 -21.44808855 25.19117741 -19.66796875 22.94140625 C-15.72225849 17.93509572 -11.87352187 12.85387748 -8.02368164 7.77368164 C-7.5002417 7.0852417 -6.97680176 6.39680176 -6.4375 5.6875 C-5.7412854 4.76855957 -5.7412854 4.76855957 -5.03100586 3.83105469 C-2.24829846 0.33453894 -2.24829846 0.33453894 0 0 Z " transform="translate(351.78515625,28.734375)" style="fill: #040000;"/><path d="M0 0 C4.65250863 1.52263919 6.87624952 4.02541332 9.4375 8.125 C15.96252274 22.41288733 11.14244406 42.03924353 6.01171875 56.0859375 C3.55515549 62.56145748 0.74253462 68.84543422 -2.484375 74.9765625 C-3.65622936 77.31177952 -4.62208978 79.68848261 -5.5625 82.125 C-6.160625 81.795 -6.75875 81.465 -7.375 81.125 C-9.61636471 79.91712012 -9.61636471 79.91712012 -12.5625 80.125 C-14.36484539 81.08916201 -14.36484539 81.08916201 -15.5625 83.125 C-15.93894848 85.75439205 -16.16383087 88.17572472 -16.25 90.8125 C-16.28416016 91.51439453 -16.31832031 92.21628906 -16.35351562 92.93945312 C-16.43579947 94.66741387 -16.5008324 96.39618072 -16.5625 98.125 C-16.8925 97.465 -17.2225 96.805 -17.5625 96.125 C-18.2225 95.795 -18.8825 95.465 -19.5625 95.125 C-19.42110519 92.87471671 -19.27421997 90.62477794 -19.125 88.375 C-19.00318359 86.49554688 -19.00318359 86.49554688 -18.87890625 84.578125 C-18.63734478 81.94182447 -18.31966066 79.64462706 -17.5625 77.125 C-19.0475 77.62 -19.0475 77.62 -20.5625 78.125 C-22.75 77.1875 -22.75 77.1875 -24.5625 76.125 C-25.8868004 55.18143445 -20.66402049 30.53156066 -10.5625 12.125 C-10.02753906 11.10277344 -9.49257812 10.08054687 -8.94140625 9.02734375 C-4.6508411 1.46868666 -4.6508411 1.46868666 0 0 Z M-6.9375 29 C-12.65945168 35.026671 -13.99340274 42.96024718 -14.38671875 50.97265625 C-14.5625 53.125 -14.5625 53.125 -15.5625 54.125 C-15.60915734 56.45786681 -15.60012951 58.79197011 -15.5625 61.125 C-15.52487049 63.45802989 -15.51584266 65.79213319 -15.5625 68.125 C-16.0575 68.62 -16.0575 68.62 -16.5625 69.125 C-16.63429964 70.64428038 -16.64642007 72.16667482 -16.625 73.6875 C-16.61597656 74.51378906 -16.60695312 75.34007812 -16.59765625 76.19140625 C-16.58605469 76.82949219 -16.57445312 77.46757812 -16.5625 78.125 C-14.48311229 74.28613038 -13.06381429 70.21233972 -11.5625 66.125 C-10.91389359 64.38814813 -10.26523967 62.6513139 -9.61590576 60.91473389 C-8.63620976 58.28951532 -7.66348475 55.6617387 -6.69140625 53.03369141 C-6.18720189 51.67358056 -5.6810034 50.31420736 -5.17285156 48.95556641 C-4.43045184 46.96962327 -3.69504287 44.98120923 -2.9609375 42.9921875 C-2.30617432 41.23044189 -2.30617432 41.23044189 -1.63818359 39.43310547 C-0.6184716 36.29713235 0.11036193 33.40531892 0.4375 30.125 C-0.75145236 28.18467596 -0.75145236 28.18467596 -2.5625 27.125 C-4.80519401 26.9184519 -4.80519401 26.9184519 -6.9375 29 Z " transform="translate(244.5625,341.875)" style="fill: #CB6260;"/><path d="M0 0 C5.90655461 -0.43084608 5.90655461 -0.43084608 8.57348633 1.41503906 C10.115215 3.11759078 11.42106639 4.87397297 12.72460938 6.76513672 C13.22250977 7.43569092 13.72041016 8.10624512 14.23339844 8.79711914 C15.28311733 10.21555591 16.3205287 11.64317377 17.34619141 13.07910156 C19.39192338 15.93496125 21.50766285 18.73495012 23.62475586 21.53808594 C25.1361262 23.54316579 26.63384824 25.55791851 28.13085938 27.57373047 C31.1626583 31.63178915 34.33966216 35.55427523 37.58398438 39.44482422 C38.91210938 41.26513672 38.91210938 41.26513672 38.91210938 43.26513672 C35.61210937 43.92513672 32.31210938 44.58513672 28.91210938 45.26513672 C29.3028802 51.06453102 31.65922967 54.0934242 35.16210938 58.45263672 C40.55607108 65.38127865 45.57442702 72.49675179 50.45800781 79.79321289 C53.40457016 84.16786088 56.45509953 88.27970732 59.91210938 92.26513672 C59.58210938 92.92513672 59.25210938 93.58513672 58.91210938 94.26513672 C58.17347656 93.57548828 57.43484375 92.88583984 56.67382812 92.17529297 C50.87273725 86.78994372 44.98389173 81.60586215 38.81835938 76.63623047 C35.51211811 73.93879976 32.27092485 71.17357861 29.03710938 68.39013672 C28.15635742 67.63301392 28.15635742 67.63301392 27.2578125 66.8605957 C26.06827398 65.83798995 24.87882095 64.81528475 23.68945312 63.79248047 C20.81072588 61.3186731 17.92811613 58.84958678 15.03710938 56.39013672 C14.23358032 55.70600708 14.23358032 55.70600708 13.41381836 55.00805664 C9.79801495 51.95294764 6.09189182 49.08696493 2.20507812 46.38623047 C1.77839844 46.01626953 1.35171875 45.64630859 0.91210938 45.26513672 C0.91210938 44.60513672 0.91210938 43.94513672 0.91210938 43.26513672 C8.83210938 42.27513672 8.83210938 42.27513672 16.91210938 41.26513672 C15.8837091 36.12313536 15.34572683 35.20489928 11.91210938 31.64013672 C7.83283434 27.28375453 4.01847244 22.79678033 0.26367188 18.15966797 C-2.34884357 14.94393052 -4.99485991 11.75785081 -7.65039062 8.57763672 C-8.0924585 8.04799316 -8.53452637 7.51834961 -8.98999023 6.97265625 C-10.02220345 5.73646538 -11.0549815 4.50074617 -12.08789062 3.26513672 C-8.04802933 1.14614764 -4.50949857 0.57265148 0 0 Z " transform="translate(121.087890625,42.73486328125)" style="fill: #F90000;"/><path d="M0 0 C1.5382416 0.13203791 3.07395142 0.29705704 4.60546875 0.4921875 C5.39373047 0.56695312 6.18199219 0.64171875 6.99414062 0.71875 C8.93005024 0.90647457 10.86212678 1.13301703 12.79296875 1.3671875 C12.79296875 5.86512104 12.79296875 5.86512104 10.265625 8.65234375 C9.72486328 9.26021729 9.18410156 9.86809082 8.62695312 10.49438477 C8.04236328 11.13303467 7.45777344 11.77168457 6.85546875 12.4296875 C5.65763559 13.77235136 4.46102778 15.11610937 3.265625 16.4609375 C2.67410645 17.12222656 2.08258789 17.78351562 1.47314453 18.46484375 C-1.56942307 21.90972703 -4.44486093 25.48364184 -7.328125 29.0625 C-8.92909978 31.02627364 -10.58255238 32.9156471 -12.26953125 34.8046875 C-14.60910343 37.36353967 -14.60910343 37.36353967 -14.20703125 41.3671875 C-8.92703125 42.0271875 -3.64703125 42.6871875 1.79296875 43.3671875 C-1.23240631 47.14890632 -3.41177448 49.53475853 -7.08203125 52.4296875 C-11.46060346 55.94184901 -15.76579439 59.51735709 -20.01953125 63.1796875 C-20.60565186 63.6835498 -21.19177246 64.18741211 -21.7956543 64.70654297 C-23.60035378 66.25904128 -25.4038852 67.81288533 -27.20703125 69.3671875 C-29.60153562 71.43123736 -31.99707102 73.49407142 -34.39453125 75.5546875 C-34.97154785 76.0506543 -35.54856445 76.54662109 -36.14306641 77.05761719 C-40.69915826 80.96062179 -45.32680306 84.7649648 -50 88.52734375 C-51.84557695 90.06586896 -53.54810435 91.63260921 -55.20703125 93.3671875 C-55.86703125 93.0371875 -56.52703125 92.7071875 -57.20703125 92.3671875 C-55.88607068 90.53816517 -54.56510867 88.70914389 -53.24414062 86.88012695 C-52.08265858 85.2719084 -50.92120072 83.66367238 -49.75976562 82.05541992 C-46.71540282 77.83992778 -43.67066309 73.62470906 -40.625 69.41015625 C-40.05160889 68.61657715 -39.47821777 67.82299805 -38.88745117 67.00537109 C-37.79531697 65.49386878 -36.70303979 63.98246977 -35.6105957 62.47119141 C-34.61392759 61.0916792 -33.61989953 59.7102546 -32.62890625 58.32666016 C-31.67804659 57.01628934 -30.70900221 55.71893063 -29.72265625 54.43505859 C-27.1540377 51.04119919 -26.20703125 49.75873915 -26.20703125 45.3671875 C-29.83703125 44.7071875 -33.46703125 44.0471875 -37.20703125 43.3671875 C-33.41648289 37.43838109 -29.34537232 32.00894409 -24.84375 26.60546875 C-21.02734869 21.97328014 -17.43303127 17.16628082 -13.81225586 12.38085938 C-12.77007074 11.00685891 -11.7192223 9.63937743 -10.65893555 8.27929688 C-9.20202253 6.41143469 -9.20202253 6.41143469 -8.01489258 4.51757812 C-5.67084438 1.10696556 -4.02758627 -0.00397721 0 0 Z " transform="translate(357.20703125,34.6328125)" style="fill: #F90000;"/><path d="M0 0 C0.4644804 12.91836125 -6.4109133 25.0625486 -12.15014648 36.28442383 C-13.2344944 38.47336747 -14.14261532 40.71364086 -15 43 C-15.598125 42.67 -16.19625 42.34 -16.8125 42 C-19.05386471 40.79212012 -19.05386471 40.79212012 -22 41 C-23.80234539 41.96416201 -23.80234539 41.96416201 -25 44 C-25.37644848 46.62939205 -25.60133087 49.05072472 -25.6875 51.6875 C-25.72166016 52.38939453 -25.75582031 53.09128906 -25.79101562 53.81445312 C-25.87329947 55.54241387 -25.9383324 57.27118072 -26 59 C-26.33 58.34 -26.66 57.68 -27 57 C-27.66 56.67 -28.32 56.34 -29 56 C-28.85860519 53.74971671 -28.71171997 51.49977794 -28.5625 49.25 C-28.48128906 47.99703125 -28.40007812 46.7440625 -28.31640625 45.453125 C-28.07484478 42.81682447 -27.75716066 40.51962706 -27 38 C-28.485 38.495 -28.485 38.495 -30 39 C-32.1875 38.0625 -32.1875 38.0625 -34 37 C-34.125 29.25 -34.125 29.25 -33 27 C-32.34 27 -31.68 27 -31 27 C-31 26.34 -31 25.68 -31 25 C-29.68 25 -28.36 25 -27 25 C-25.55802132 27.88395737 -25.41166419 30.82430479 -25 34 C-20.58864422 23.81525692 -16.78562263 13.429554 -13 3 C-12.01 3 -11.02 3 -10 3 C-7.01641156 2.21484515 -2.98745614 0 0 0 Z " transform="translate(254,381)" style="fill: #D06965;"/><path d="M0 0 C1.39992188 -0.01836914 1.39992188 -0.01836914 2.828125 -0.03710938 C16.77098513 -0.06631928 29.25698457 3.83294087 39.453125 13.61328125 C39.96359375 14.13277344 40.4740625 14.65226563 41 15.1875 C40.67 16.1775 40.34 17.1675 40 18.1875 C37.15699443 16.87486504 34.94855518 15.3890644 32.5625 13.375 C20.03239144 3.78347225 3.62418926 2.68983866 -11.53125 4.48779297 C-24.31250949 6.42322675 -35.91358058 10.38240279 -47.7890625 15.35546875 C-57.79428 19.50048743 -67.12002148 21.76576658 -78 21.1875 C-78 19.8675 -78 18.5475 -78 17.1875 C-76.73542969 17.05472656 -75.47085938 16.92195313 -74.16796875 16.78515625 C-72.50779375 16.60694537 -70.84763852 16.42855037 -69.1875 16.25 C-68.35412109 16.16298828 -67.52074219 16.07597656 -66.66210938 15.98632812 C-65.85966797 15.89931641 -65.05722656 15.81230469 -64.23046875 15.72265625 C-63.12288208 15.60482788 -63.12288208 15.60482788 -61.99291992 15.48461914 C-59.79730622 15.21598004 -59.79730622 15.21598004 -57 14.1875 C-61.29 11.8775 -65.58 9.5675 -70 7.1875 C-70 6.1975 -70 5.2075 -70 4.1875 C-64.6441701 4.62175648 -60.49846047 6.73641301 -55.78125 9.12890625 C-49.71621292 11.4373684 -45.07524449 9.73403038 -39.3125 7.375 C-26.10907117 2.2108106 -14.16798622 0.00978452 0 0 Z " transform="translate(290,177.8125)" style="fill: #0F0E0E;"/><path d="M0 0 C1.32 0 2.64 0 4 0 C5.21693876 2.43387753 5.31959896 4.41838846 5.5625 7.125 C5.64628906 8.03507812 5.73007813 8.94515625 5.81640625 9.8828125 C5.87699219 10.58148438 5.93757812 11.28015625 6 12 C6.763125 11.814375 7.52625 11.62875 8.3125 11.4375 C11 11 11 11 14 12 C14 12.99 14 13.98 14 15 C11 16 11 16 9 16 C7.25934081 16.98439036 7.25934081 16.98439036 6 19 C5.62355152 21.62939205 5.39866913 24.05072472 5.3125 26.6875 C5.27833984 27.38939453 5.24417969 28.09128906 5.20898438 28.81445312 C5.12670053 30.54241387 5.0616676 32.27118072 5 34 C4.67 33.34 4.34 32.68 4 32 C3.34 31.67 2.68 31.34 2 31 C2.14139481 28.74971671 2.28828003 26.49977794 2.4375 24.25 C2.51871094 22.99703125 2.59992188 21.7440625 2.68359375 20.453125 C2.92515522 17.81682447 3.24283934 15.51962706 4 13 C3.01 13.33 2.02 13.66 1 14 C-1.1875 13.0625 -1.1875 13.0625 -3 12 C-3.125 4.25 -3.125 4.25 -2 2 C-1.34 2 -0.68 2 0 2 C0 1.34 0 0.68 0 0 Z " transform="translate(223,406)" style="fill: #D7766F;"/><path d="M0 0 C1.1446875 0.2475 1.1446875 0.2475 2.3125 0.5 C5.03596236 1.09145396 5.03596236 1.09145396 8 1 C9.33981486 1.3062434 10.67511887 1.63451555 12 2 C11.27392513 7.62708022 9.04737798 13.95262202 5 18 C4.34 16.35 3.68 14.7 3 13 C0.69 12.67 -1.62 12.34 -4 12 C-3.04943533 7.88088642 -1.89436282 3.78872565 0 0 Z " transform="translate(233,406)" style="fill: #D1726C;"/><path d="M0 0 C5.17639134 0.37876034 9.4736037 2.12931057 13 6 C13 7.32 13 8.64 13 10 C9.05497255 10 8.72258375 8.72258375 6 6 C4.03120677 4.93988057 2.03564133 3.92529151 0 3 C0 2.01 0 1.02 0 0 Z " transform="translate(197,178)" style="fill: #100F0F;"/><path d="M0 0 C0.66 0 1.32 0 2 0 C1.67 6.27 1.34 12.54 1 19 C0.67 18.34 0.34 17.68 0 17 C-0.66 16.67 -1.32 16.34 -2 16 C-1.85936865 13.70800823 -1.71234057 11.41640814 -1.5625 9.125 C-1.48128906 7.84882813 -1.40007812 6.57265625 -1.31640625 5.2578125 C-1 2 -1 2 0 0 Z " transform="translate(227,421)" style="fill: #DD8479;"/><path d="" transform="translate(0,0)" style="fill: #000000;"/></svg>