<?xml version="1.0" encoding="utf-8" ?>
<svg baseProfile="full" height="500" version="1.1" viewBox="0 0 500 500" width="500" xmlns="http://www.w3.org/2000/svg" xmlns:ev="http://www.w3.org/2001/xml-events" xmlns:xlink="http://www.w3.org/1999/xlink"><defs /><path d="M 219,160 L 218,161 L 215,161 L 214,162 L 212,162 L 211,163 L 209,163 L 208,164 L 206,164 L 205,165 L 204,165 L 203,166 L 202,165 L 198,165 L 197,164 L 188,164 L 187,165 L 182,165 L 181,166 L 178,166 L 177,167 L 174,167 L 173,168 L 171,168 L 170,169 L 168,169 L 167,170 L 166,170 L 165,171 L 163,171 L 162,172 L 161,172 L 160,173 L 159,173 L 158,174 L 157,174 L 155,176 L 154,176 L 151,179 L 150,179 L 145,184 L 145,185 L 142,188 L 142,189 L 141,190 L 141,191 L 140,192 L 140,193 L 139,194 L 139,195 L 138,196 L 138,198 L 137,199 L 137,203 L 136,204 L 136,221 L 137,222 L 137,226 L 138,227 L 138,230 L 139,231 L 139,234 L 140,235 L 140,236 L 141,237 L 141,239 L 142,240 L 142,242 L 143,243 L 143,244 L 144,245 L 144,246 L 145,247 L 145,248 L 146,249 L 146,251 L 145,252 L 145,262 L 144,263 L 144,269 L 143,270 L 143,274 L 142,275 L 142,278 L 141,279 L 141,286 L 140,287 L 140,290 L 141,291 L 141,307 L 142,308 L 142,316 L 143,317 L 143,323 L 144,324 L 144,330 L 145,331 L 145,336 L 146,337 L 146,342 L 147,343 L 147,347 L 148,348 L 148,352 L 149,353 L 149,357 L 150,358 L 150,362 L 151,363 L 151,366 L 152,367 L 152,370 L 153,371 L 153,374 L 154,375 L 154,378 L 155,379 L 155,382 L 156,383 L 156,385 L 157,386 L 157,388 L 158,389 L 158,391 L 159,392 L 159,394 L 160,395 L 160,397 L 161,398 L 161,400 L 162,401 L 162,402 L 163,403 L 163,404 L 164,405 L 164,407 L 165,408 L 165,409 L 166,410 L 166,411 L 167,412 L 167,413 L 169,415 L 169,416 L 170,417 L 170,418 L 171,419 L 171,420 L 173,422 L 173,423 L 175,425 L 175,426 L 177,428 L 177,429 L 180,432 L 180,433 L 188,441 L 187,442 L 186,442 L 184,440 L 183,440 L 172,429 L 172,428 L 170,426 L 170,425 L 168,423 L 168,422 L 167,421 L 167,420 L 166,419 L 166,418 L 164,416 L 164,415 L 163,414 L 163,412 L 162,411 L 162,410 L 161,409 L 161,408 L 160,407 L 160,405 L 159,404 L 159,403 L 158,402 L 158,400 L 157,399 L 157,398 L 156,397 L 156,395 L 155,394 L 155,392 L 154,391 L 154,388 L 153,387 L 153,385 L 152,384 L 152,381 L 151,380 L 151,377 L 150,376 L 150,374 L 149,373 L 149,369 L 148,368 L 148,365 L 147,364 L 147,361 L 146,360 L 146,356 L 145,355 L 145,350 L 144,349 L 144,345 L 143,344 L 143,339 L 142,338 L 142,332 L 141,331 L 141,325 L 140,324 L 140,317 L 139,316 L 139,308 L 138,307 L 138,297 L 137,296 L 137,282 L 138,281 L 138,277 L 139,276 L 139,271 L 140,270 L 139,269 L 139,266 L 138,266 L 137,265 L 135,265 L 134,264 L 131,264 L 130,263 L 126,263 L 125,262 L 121,262 L 120,261 L 115,261 L 114,260 L 107,260 L 106,259 L 96,259 L 95,258 L 65,258 L 64,259 L 54,259 L 53,260 L 47,260 L 46,261 L 40,261 L 39,262 L 35,262 L 34,263 L 30,263 L 29,264 L 26,264 L 25,265 L 22,265 L 21,266 L 21,267 L 22,268 L 23,267 L 25,267 L 26,266 L 29,266 L 30,265 L 33,265 L 34,264 L 38,264 L 39,263 L 44,263 L 45,262 L 52,262 L 53,261 L 62,261 L 63,260 L 97,260 L 98,261 L 107,261 L 108,262 L 115,262 L 116,263 L 120,263 L 121,264 L 125,264 L 126,265 L 130,265 L 131,266 L 134,266 L 135,267 L 136,267 L 138,269 L 138,271 L 137,272 L 137,276 L 136,277 L 136,283 L 135,284 L 135,294 L 136,295 L 136,306 L 137,307 L 137,315 L 138,316 L 138,323 L 139,324 L 139,330 L 140,331 L 140,337 L 141,338 L 141,343 L 142,344 L 142,349 L 143,350 L 143,354 L 144,355 L 144,359 L 145,360 L 145,364 L 146,365 L 146,368 L 147,369 L 147,372 L 148,373 L 148,376 L 149,377 L 149,380 L 150,381 L 150,384 L 151,385 L 151,387 L 152,388 L 152,391 L 153,392 L 153,394 L 154,395 L 154,397 L 155,398 L 155,399 L 156,400 L 156,402 L 157,403 L 157,405 L 158,406 L 158,407 L 159,408 L 159,410 L 160,411 L 160,412 L 161,413 L 161,414 L 162,415 L 162,416 L 163,417 L 163,418 L 164,419 L 164,420 L 165,421 L 165,422 L 167,424 L 167,425 L 168,426 L 168,427 L 171,430 L 171,431 L 181,441 L 182,441 L 185,444 L 186,444 L 188,446 L 189,446 L 190,447 L 191,447 L 193,449 L 194,449 L 195,450 L 196,450 L 197,451 L 199,451 L 200,452 L 201,452 L 202,453 L 211,453 L 212,452 L 213,452 L 214,451 L 214,450 L 215,449 L 215,448 L 216,447 L 216,443 L 217,442 L 217,428 L 218,427 L 218,414 L 219,413 L 219,404 L 220,403 L 220,397 L 221,396 L 221,391 L 222,390 L 222,386 L 223,385 L 223,381 L 224,380 L 224,377 L 225,376 L 225,373 L 226,372 L 226,370 L 227,369 L 227,367 L 228,366 L 228,364 L 229,363 L 229,362 L 230,361 L 230,359 L 231,358 L 231,357 L 232,356 L 232,355 L 233,354 L 233,353 L 234,352 L 234,351 L 236,349 L 236,348 L 238,346 L 238,345 L 242,341 L 245,341 L 246,342 L 247,342 L 248,343 L 249,343 L 252,346 L 252,347 L 254,349 L 254,350 L 255,351 L 255,354 L 256,355 L 256,359 L 257,360 L 257,372 L 256,373 L 256,380 L 255,381 L 255,384 L 254,385 L 254,388 L 253,389 L 253,391 L 252,392 L 252,394 L 251,395 L 251,397 L 250,398 L 250,400 L 249,401 L 249,402 L 248,403 L 248,404 L 247,405 L 247,406 L 246,407 L 246,409 L 244,411 L 244,412 L 243,413 L 243,414 L 242,415 L 242,416 L 241,417 L 241,418 L 240,419 L 240,421 L 239,422 L 239,426 L 238,427 L 238,430 L 239,431 L 239,434 L 240,435 L 240,436 L 241,437 L 241,438 L 245,442 L 246,442 L 247,443 L 248,443 L 249,444 L 252,444 L 253,445 L 261,445 L 262,444 L 266,444 L 267,443 L 269,443 L 270,442 L 271,442 L 272,441 L 273,441 L 274,440 L 275,440 L 276,439 L 277,439 L 287,429 L 287,428 L 290,425 L 290,424 L 292,422 L 292,421 L 293,420 L 293,419 L 294,418 L 294,417 L 296,415 L 296,414 L 297,413 L 297,412 L 298,411 L 298,410 L 299,409 L 299,408 L 300,407 L 300,405 L 301,404 L 301,403 L 302,402 L 302,401 L 303,400 L 303,398 L 304,397 L 304,395 L 305,394 L 305,393 L 306,392 L 306,390 L 307,389 L 307,387 L 308,386 L 308,384 L 309,383 L 309,380 L 310,379 L 310,377 L 311,376 L 311,373 L 312,372 L 312,368 L 313,367 L 313,364 L 314,363 L 314,358 L 315,357 L 315,351 L 316,350 L 316,338 L 317,337 L 317,330 L 318,329 L 318,323 L 319,322 L 319,318 L 320,317 L 320,314 L 321,313 L 321,310 L 322,309 L 322,306 L 323,305 L 323,303 L 324,302 L 324,300 L 325,299 L 325,298 L 326,297 L 326,296 L 327,295 L 327,294 L 328,293 L 328,292 L 329,291 L 329,290 L 330,289 L 330,288 L 333,285 L 333,284 L 336,281 L 337,281 L 339,279 L 340,279 L 341,278 L 342,278 L 343,277 L 345,277 L 346,276 L 347,276 L 348,275 L 351,275 L 352,274 L 355,274 L 356,273 L 360,273 L 361,272 L 366,272 L 367,271 L 376,271 L 377,270 L 419,270 L 420,271 L 434,271 L 435,272 L 444,272 L 445,273 L 454,273 L 455,274 L 463,274 L 464,275 L 466,275 L 467,274 L 467,273 L 462,273 L 461,272 L 454,272 L 453,271 L 443,271 L 442,270 L 432,270 L 431,269 L 417,269 L 416,268 L 380,268 L 379,269 L 368,269 L 367,270 L 362,270 L 361,271 L 356,271 L 355,272 L 352,272 L 351,273 L 348,273 L 347,274 L 346,274 L 345,275 L 343,275 L 342,276 L 341,276 L 340,277 L 339,277 L 338,278 L 337,278 L 335,280 L 334,280 L 330,284 L 330,285 L 328,287 L 328,288 L 327,289 L 327,290 L 326,291 L 326,292 L 325,293 L 325,294 L 324,295 L 324,297 L 323,298 L 323,299 L 322,300 L 322,302 L 321,303 L 321,305 L 320,306 L 320,309 L 319,310 L 319,313 L 318,314 L 318,318 L 317,319 L 317,323 L 316,324 L 316,330 L 315,331 L 314,330 L 314,320 L 315,319 L 315,316 L 316,315 L 316,311 L 317,310 L 317,308 L 318,307 L 318,304 L 319,303 L 319,301 L 320,300 L 320,298 L 321,297 L 321,296 L 322,295 L 322,293 L 323,292 L 323,291 L 324,290 L 324,289 L 325,288 L 325,287 L 326,286 L 326,285 L 330,281 L 330,280 L 334,276 L 334,275 L 336,273 L 336,272 L 338,270 L 338,269 L 339,268 L 339,267 L 340,266 L 340,265 L 341,264 L 341,263 L 342,262 L 342,260 L 343,259 L 343,257 L 344,256 L 344,252 L 345,251 L 345,232 L 344,231 L 344,230 L 343,229 L 343,228 L 342,227 L 342,226 L 341,225 L 341,222 L 340,221 L 340,215 L 341,214 L 341,213 L 343,211 L 343,209 L 344,208 L 344,206 L 345,205 L 345,191 L 344,190 L 344,187 L 343,186 L 343,184 L 342,183 L 342,182 L 341,181 L 341,179 L 339,177 L 339,176 L 332,169 L 331,169 L 330,168 L 329,168 L 328,167 L 327,167 L 326,166 L 325,166 L 324,165 L 322,165 L 321,164 L 319,164 L 318,163 L 314,163 L 313,162 L 290,162 L 289,163 L 284,163 L 283,164 L 280,164 L 279,165 L 277,165 L 276,166 L 272,166 L 271,167 L 270,167 L 269,166 L 267,166 L 266,165 L 264,165 L 263,164 L 261,164 L 260,163 L 257,163 L 256,162 L 252,162 L 251,161 L 246,161 L 245,160 Z" fill="#000000" stroke="none" /><path d="M 121,37 L 120,38 L 113,38 L 112,39 L 104,39 L 103,40 L 101,40 L 101,41 L 100,42 L 100,43 L 102,45 L 102,46 L 107,51 L 107,52 L 112,57 L 112,58 L 117,63 L 117,64 L 122,69 L 122,70 L 127,75 L 127,76 L 130,79 L 129,80 L 120,80 L 119,81 L 113,81 L 111,83 L 111,85 L 114,88 L 115,88 L 120,93 L 121,93 L 126,98 L 127,98 L 133,104 L 134,104 L 139,109 L 140,109 L 146,115 L 147,115 L 152,120 L 153,120 L 159,126 L 160,126 L 165,131 L 166,131 L 172,137 L 173,137 L 178,142 L 179,142 L 185,148 L 186,148 L 191,153 L 192,153 L 195,156 L 198,156 L 199,155 L 199,152 L 197,150 L 197,149 L 195,147 L 195,146 L 192,143 L 192,142 L 190,140 L 190,139 L 187,136 L 187,135 L 185,133 L 185,132 L 182,129 L 182,128 L 180,126 L 180,125 L 177,122 L 177,121 L 175,119 L 175,118 L 172,115 L 172,114 L 170,112 L 170,111 L 167,108 L 167,107 L 165,105 L 165,104 L 162,101 L 162,100 L 160,98 L 160,97 L 157,94 L 157,93 L 156,92 L 157,91 L 162,91 L 163,90 L 167,90 L 167,89 L 168,88 L 168,86 L 165,83 L 165,82 L 162,79 L 162,78 L 158,74 L 158,73 L 155,70 L 155,69 L 152,66 L 152,65 L 148,61 L 148,60 L 145,57 L 145,56 L 142,53 L 142,52 L 138,48 L 138,47 L 135,44 L 135,43 L 132,40 L 132,39 L 130,37 Z" fill="#000000" stroke="none" /><path d="M 350,29 L 347,32 L 347,33 L 344,36 L 344,37 L 340,41 L 340,42 L 337,45 L 337,46 L 334,49 L 334,50 L 330,54 L 330,55 L 327,58 L 327,59 L 324,62 L 324,63 L 320,67 L 320,68 L 317,71 L 317,72 L 314,75 L 314,76 L 312,78 L 312,81 L 313,82 L 317,82 L 318,83 L 323,83 L 324,84 L 322,86 L 322,87 L 319,90 L 319,91 L 317,93 L 317,94 L 314,97 L 314,98 L 312,100 L 312,101 L 309,104 L 309,105 L 307,107 L 307,108 L 304,111 L 304,112 L 302,114 L 302,115 L 299,118 L 299,119 L 297,121 L 297,122 L 294,125 L 294,126 L 292,128 L 292,129 L 289,132 L 289,133 L 287,135 L 287,136 L 284,139 L 284,140 L 282,142 L 282,143 L 281,144 L 281,147 L 282,148 L 285,148 L 290,143 L 291,143 L 296,138 L 297,138 L 302,133 L 303,133 L 309,127 L 310,127 L 315,122 L 316,122 L 322,116 L 323,116 L 328,111 L 329,111 L 334,106 L 335,106 L 341,100 L 342,100 L 348,94 L 349,94 L 354,89 L 355,89 L 361,83 L 362,83 L 367,78 L 368,78 L 368,74 L 367,73 L 360,73 L 359,72 L 351,72 L 350,71 L 352,69 L 352,68 L 357,63 L 357,62 L 362,57 L 362,56 L 367,51 L 367,50 L 372,45 L 372,44 L 377,39 L 377,38 L 379,36 L 379,33 L 378,32 L 376,32 L 375,31 L 368,31 L 367,30 L 360,30 L 359,29 Z" fill="#000000" stroke="none" /><path d="M 239,359 L 238,360 L 239,361 L 239,363 L 238,364 L 237,363 L 237,362 L 236,361 L 237,362 L 237,363 L 236,364 L 235,363 L 236,364 L 235,365 L 235,366 L 234,367 L 233,366 L 235,368 L 234,369 L 235,370 L 234,371 L 234,373 L 234,372 L 235,371 L 235,370 L 236,369 L 237,369 L 238,368 L 240,368 L 241,367 L 242,368 L 243,368 L 246,371 L 246,373 L 245,374 L 246,375 L 247,374 L 248,375 L 249,374 L 249,373 L 251,371 L 250,370 L 250,368 L 249,367 L 250,366 L 250,365 L 251,364 L 250,363 L 248,363 L 247,362 L 247,361 L 245,359 L 246,360 L 245,361 L 244,361 L 243,360 L 243,359 L 243,360 L 242,361 L 241,360 L 241,359 L 241,360 L 240,361 L 239,361 L 238,360 Z" fill="#c04848" stroke="none" /><path d="M 242,343 L 242,344 L 241,345 L 240,345 L 240,346 L 238,348 L 238,349 L 236,351 L 236,352 L 235,353 L 235,354 L 234,355 L 235,356 L 234,357 L 233,357 L 234,358 L 233,359 L 233,360 L 232,361 L 232,362 L 231,363 L 232,364 L 231,365 L 230,365 L 231,366 L 230,367 L 229,367 L 230,368 L 228,370 L 228,371 L 229,372 L 228,373 L 227,373 L 228,374 L 227,375 L 227,376 L 226,377 L 227,378 L 225,380 L 225,384 L 224,385 L 224,389 L 223,390 L 223,394 L 222,395 L 222,400 L 223,401 L 223,402 L 222,403 L 221,402 L 222,403 L 221,404 L 222,405 L 223,404 L 225,406 L 224,407 L 226,405 L 227,406 L 227,407 L 226,408 L 227,409 L 226,408 L 227,407 L 227,404 L 228,403 L 228,393 L 229,392 L 229,387 L 230,386 L 230,385 L 229,384 L 230,383 L 230,382 L 231,381 L 231,380 L 230,379 L 231,378 L 232,378 L 232,377 L 233,376 L 232,375 L 233,374 L 233,372 L 232,371 L 233,370 L 234,370 L 235,369 L 236,370 L 235,369 L 234,370 L 233,369 L 233,367 L 234,366 L 235,367 L 236,367 L 235,367 L 233,365 L 234,364 L 235,364 L 236,365 L 238,363 L 238,361 L 239,360 L 240,360 L 241,361 L 240,362 L 242,360 L 244,362 L 243,361 L 244,360 L 245,360 L 246,361 L 246,362 L 248,364 L 250,364 L 251,365 L 251,366 L 250,367 L 249,366 L 250,367 L 249,368 L 250,367 L 251,368 L 251,370 L 250,371 L 249,370 L 248,371 L 249,372 L 248,373 L 248,374 L 247,375 L 247,377 L 246,378 L 245,378 L 245,380 L 244,381 L 243,380 L 243,379 L 243,380 L 244,381 L 243,382 L 242,382 L 242,383 L 243,384 L 242,385 L 241,385 L 242,386 L 240,388 L 241,389 L 239,391 L 239,392 L 238,393 L 239,394 L 237,396 L 237,398 L 236,399 L 236,400 L 235,401 L 236,401 L 237,402 L 235,404 L 234,404 L 234,406 L 233,407 L 233,408 L 234,409 L 233,408 L 233,407 L 234,406 L 236,408 L 236,409 L 237,410 L 236,411 L 238,409 L 242,413 L 240,411 L 241,410 L 241,408 L 242,407 L 243,408 L 243,409 L 244,409 L 243,408 L 244,407 L 245,407 L 245,406 L 246,405 L 246,404 L 247,403 L 247,402 L 246,401 L 247,400 L 248,400 L 248,398 L 249,397 L 249,396 L 250,395 L 250,393 L 251,392 L 251,390 L 252,389 L 252,386 L 253,385 L 253,381 L 254,380 L 254,378 L 253,377 L 254,376 L 254,375 L 255,374 L 255,373 L 253,371 L 254,370 L 253,369 L 254,368 L 253,367 L 254,366 L 253,365 L 254,364 L 255,364 L 254,363 L 255,362 L 255,359 L 253,357 L 254,356 L 254,354 L 253,353 L 253,351 L 252,350 L 252,349 L 250,347 L 250,346 L 249,345 L 248,345 L 247,344 L 246,344 L 245,343 Z" fill="#c06060" stroke="none" /><path d="M 235,406 L 234,407 L 234,408 L 233,409 L 233,410 L 232,411 L 232,413 L 233,414 L 232,415 L 231,415 L 232,416 L 231,417 L 230,417 L 230,418 L 231,419 L 229,421 L 229,422 L 229,421 L 230,420 L 231,421 L 233,419 L 234,420 L 234,421 L 236,423 L 234,421 L 234,420 L 235,419 L 238,422 L 237,421 L 239,419 L 239,417 L 240,416 L 240,415 L 241,414 L 241,413 L 242,412 L 242,411 L 243,410 L 242,409 L 242,408 L 243,407 L 244,408 L 243,407 L 244,406 L 242,408 L 242,410 L 241,411 L 240,410 L 240,407 L 241,406 L 240,407 L 239,406 L 237,408 Z" fill="#d86060" stroke="none" /><path d="M 222,401 L 222,402 L 221,403 L 222,404 L 221,405 L 221,411 L 220,412 L 220,414 L 221,415 L 220,416 L 222,418 L 223,417 L 224,418 L 224,419 L 224,418 L 223,417 L 224,416 L 225,416 L 226,417 L 226,418 L 226,416 L 225,415 L 226,414 L 225,413 L 227,411 L 227,410 L 226,409 L 227,408 L 226,407 L 226,406 L 225,405 L 227,403 L 226,404 L 225,403 L 224,404 L 222,402 Z" fill="#d86060" stroke="none" /><path d="M 233,417 L 234,418 L 234,419 L 233,420 L 231,418 L 230,419 L 231,420 L 230,421 L 230,422 L 229,423 L 229,424 L 228,425 L 228,435 L 229,436 L 228,437 L 229,437 L 230,438 L 229,439 L 230,438 L 232,440 L 231,439 L 232,438 L 235,438 L 236,439 L 236,440 L 235,441 L 234,440 L 235,441 L 236,440 L 236,439 L 237,438 L 238,439 L 238,440 L 239,439 L 241,441 L 242,441 L 243,442 L 242,441 L 241,441 L 240,440 L 240,439 L 239,438 L 239,437 L 237,435 L 237,434 L 236,433 L 237,432 L 237,422 L 238,421 L 237,420 L 237,419 L 238,418 L 237,419 L 236,418 L 237,419 L 237,420 L 236,421 L 234,419 L 234,418 Z" fill="#d87860" stroke="none" /><path d="M 221,413 L 222,414 L 222,415 L 221,416 L 220,415 L 221,416 L 220,417 L 220,419 L 221,420 L 220,421 L 220,423 L 219,424 L 219,429 L 220,430 L 219,431 L 220,432 L 219,433 L 220,434 L 219,435 L 220,434 L 221,435 L 221,436 L 220,437 L 221,436 L 224,439 L 222,437 L 224,435 L 225,436 L 225,437 L 225,428 L 226,427 L 226,424 L 225,423 L 226,422 L 226,419 L 225,418 L 225,417 L 224,417 L 223,416 L 224,415 L 223,416 L 222,415 L 222,414 Z" fill="#d87860" stroke="none" /><path d="M 312,377 L 313,378 L 312,379 L 311,379 L 312,379 L 313,380 L 312,381 L 311,381 L 311,383 L 310,384 L 310,385 L 309,386 L 309,388 L 308,389 L 309,390 L 307,392 L 307,394 L 306,395 L 306,396 L 307,397 L 306,398 L 305,398 L 305,399 L 304,400 L 304,401 L 305,402 L 302,405 L 302,406 L 301,407 L 303,407 L 304,408 L 303,407 L 304,406 L 303,405 L 305,403 L 305,402 L 306,401 L 306,400 L 307,399 L 308,399 L 309,398 L 308,397 L 308,396 L 309,395 L 310,396 L 308,394 L 308,393 L 309,392 L 311,394 L 312,393 L 311,394 L 309,392 L 310,391 L 311,391 L 312,390 L 311,389 L 313,387 L 312,388 L 311,387 L 311,386 L 312,385 L 311,384 L 313,382 L 314,383 L 313,382 L 314,381 L 313,380 L 313,377 Z" fill="#d87860" stroke="none" /><path d="M 219,432 L 220,433 L 219,434 L 220,435 L 219,436 L 219,441 L 218,442 L 218,446 L 217,447 L 217,449 L 216,450 L 216,453 L 215,454 L 217,454 L 218,455 L 219,455 L 220,454 L 221,455 L 221,456 L 220,457 L 220,458 L 219,459 L 220,458 L 220,457 L 221,456 L 221,454 L 222,453 L 222,452 L 223,451 L 223,448 L 224,447 L 224,444 L 223,443 L 224,442 L 225,442 L 225,441 L 224,440 L 225,439 L 225,438 L 224,437 L 224,436 L 223,437 L 222,436 L 221,437 L 220,436 L 220,435 L 219,434 L 220,433 Z" fill="#d87878" stroke="none" /><path d="M 321,320 L 321,321 L 320,322 L 320,325 L 321,326 L 319,328 L 319,335 L 318,336 L 318,348 L 317,349 L 317,353 L 318,354 L 317,355 L 317,356 L 316,357 L 316,359 L 317,360 L 316,361 L 316,362 L 315,363 L 315,364 L 316,365 L 315,366 L 315,369 L 316,370 L 315,371 L 315,373 L 314,374 L 313,373 L 314,374 L 315,374 L 316,375 L 315,376 L 312,376 L 313,376 L 314,377 L 314,380 L 313,381 L 312,380 L 311,380 L 312,380 L 313,381 L 312,382 L 313,383 L 311,385 L 312,386 L 312,387 L 311,388 L 310,388 L 308,390 L 310,392 L 309,393 L 309,394 L 306,397 L 307,398 L 306,399 L 307,400 L 307,401 L 306,402 L 305,401 L 303,403 L 305,401 L 306,402 L 306,403 L 303,406 L 304,407 L 303,408 L 301,408 L 301,409 L 302,410 L 300,412 L 299,412 L 299,413 L 298,414 L 298,415 L 296,417 L 297,418 L 294,421 L 294,422 L 293,423 L 293,424 L 292,425 L 292,426 L 291,427 L 290,427 L 290,428 L 285,433 L 285,434 L 282,437 L 281,437 L 277,441 L 276,441 L 275,442 L 274,442 L 273,443 L 272,443 L 271,444 L 269,444 L 268,445 L 266,445 L 265,446 L 261,446 L 260,447 L 254,447 L 253,446 L 249,446 L 248,445 L 245,445 L 244,444 L 244,443 L 243,443 L 242,442 L 241,442 L 240,441 L 241,440 L 240,441 L 239,440 L 238,441 L 237,440 L 237,439 L 238,438 L 237,439 L 237,440 L 236,441 L 235,440 L 235,439 L 232,439 L 231,440 L 229,438 L 230,437 L 229,438 L 227,438 L 228,439 L 228,442 L 229,442 L 230,443 L 230,444 L 231,445 L 230,446 L 234,450 L 235,450 L 236,451 L 236,452 L 237,452 L 238,453 L 240,453 L 241,454 L 242,454 L 243,453 L 244,454 L 244,455 L 248,455 L 249,454 L 250,455 L 259,455 L 260,454 L 261,455 L 264,455 L 265,454 L 266,455 L 268,455 L 270,453 L 271,454 L 272,453 L 273,454 L 274,454 L 273,453 L 274,452 L 275,452 L 276,453 L 278,453 L 276,453 L 275,452 L 276,451 L 278,451 L 279,450 L 280,450 L 281,451 L 280,452 L 281,452 L 282,451 L 281,451 L 280,450 L 281,449 L 282,449 L 283,448 L 284,448 L 285,449 L 284,450 L 285,449 L 284,448 L 285,447 L 286,447 L 287,446 L 288,446 L 290,444 L 291,444 L 292,445 L 291,446 L 292,445 L 293,445 L 298,440 L 297,439 L 298,438 L 299,438 L 302,435 L 302,434 L 304,432 L 304,431 L 305,430 L 305,429 L 307,427 L 307,426 L 308,425 L 308,424 L 309,423 L 309,422 L 310,421 L 310,420 L 311,419 L 311,418 L 312,417 L 312,415 L 313,414 L 313,413 L 314,412 L 314,409 L 315,408 L 315,407 L 316,406 L 316,404 L 317,403 L 317,401 L 318,400 L 318,398 L 319,397 L 319,395 L 320,394 L 320,391 L 321,390 L 321,387 L 322,386 L 322,383 L 323,382 L 323,378 L 324,377 L 324,375 L 323,374 L 325,372 L 324,371 L 325,370 L 325,368 L 326,367 L 326,363 L 327,362 L 327,359 L 326,358 L 328,356 L 328,353 L 327,352 L 329,350 L 329,349 L 328,348 L 329,347 L 328,346 L 330,344 L 330,340 L 330,344 L 329,345 L 328,344 L 328,340 L 327,339 L 327,337 L 326,337 L 325,336 L 326,335 L 328,335 L 326,335 L 325,334 L 325,333 L 326,332 L 327,333 L 326,332 L 326,331 L 325,331 L 323,329 L 326,326 L 324,328 L 322,326 L 322,325 L 323,324 L 324,325 L 325,324 L 324,325 L 322,323 L 321,324 L 320,323 L 320,322 L 321,321 Z" fill="#d87878" stroke="none" /><path d="M 293,443 L 291,445 L 290,445 L 288,447 L 287,447 L 286,448 L 285,448 L 284,449 L 283,449 L 282,450 L 281,450 L 280,451 L 279,451 L 278,452 L 276,452 L 275,453 L 274,453 L 275,454 L 275,453 L 276,452 L 278,452 L 279,453 L 279,452 L 281,450 L 282,450 L 283,451 L 284,451 L 285,450 L 286,450 L 287,449 L 288,449 L 287,448 L 288,447 L 291,447 L 292,446 L 291,445 L 292,444 L 293,444 L 294,443 Z" fill="#d89078" stroke="none" /><path d="M 133,311 L 134,312 L 134,315 L 133,316 L 132,316 L 133,317 L 131,319 L 131,320 L 130,321 L 130,323 L 129,324 L 128,323 L 129,324 L 127,326 L 128,327 L 128,329 L 127,330 L 126,329 L 127,330 L 126,331 L 126,332 L 127,333 L 125,335 L 124,334 L 124,331 L 124,336 L 126,334 L 127,335 L 127,336 L 126,337 L 126,338 L 125,339 L 125,340 L 126,341 L 125,342 L 124,342 L 125,343 L 125,347 L 126,347 L 127,348 L 126,349 L 127,350 L 126,351 L 125,351 L 126,352 L 126,355 L 127,355 L 128,356 L 127,357 L 128,358 L 127,359 L 126,359 L 126,360 L 127,361 L 127,363 L 128,364 L 128,365 L 127,366 L 128,367 L 128,369 L 129,370 L 129,375 L 130,375 L 131,376 L 130,377 L 130,380 L 131,381 L 131,385 L 132,386 L 132,389 L 133,390 L 133,392 L 134,393 L 134,396 L 135,397 L 134,398 L 135,398 L 136,399 L 136,402 L 137,403 L 137,404 L 138,405 L 138,407 L 139,408 L 139,409 L 140,410 L 140,411 L 141,412 L 141,413 L 142,414 L 142,416 L 143,417 L 143,418 L 144,418 L 145,419 L 145,420 L 146,421 L 146,422 L 147,423 L 147,425 L 150,428 L 150,429 L 151,430 L 151,432 L 152,432 L 154,434 L 154,435 L 155,435 L 156,436 L 155,437 L 155,438 L 156,438 L 158,440 L 157,441 L 158,441 L 160,443 L 160,445 L 161,445 L 163,447 L 163,448 L 164,448 L 165,449 L 164,450 L 165,451 L 166,451 L 169,454 L 169,455 L 171,457 L 173,457 L 175,459 L 177,459 L 178,460 L 178,462 L 180,462 L 181,463 L 182,463 L 183,464 L 184,464 L 186,466 L 187,465 L 188,466 L 189,466 L 190,467 L 191,466 L 192,466 L 193,467 L 195,467 L 196,468 L 197,467 L 198,467 L 199,468 L 202,468 L 203,467 L 204,467 L 205,466 L 206,467 L 207,466 L 208,467 L 209,466 L 210,466 L 211,465 L 212,466 L 218,460 L 219,460 L 218,459 L 219,458 L 219,457 L 220,456 L 220,455 L 219,456 L 218,456 L 217,455 L 215,455 L 214,454 L 215,453 L 215,452 L 213,454 L 212,454 L 211,455 L 203,455 L 202,454 L 200,454 L 199,453 L 196,453 L 194,451 L 193,451 L 191,449 L 190,449 L 189,448 L 188,448 L 186,446 L 185,446 L 182,443 L 181,443 L 179,441 L 178,441 L 172,435 L 172,434 L 170,432 L 169,432 L 168,431 L 169,430 L 166,427 L 166,426 L 165,425 L 165,424 L 163,422 L 163,421 L 162,420 L 162,419 L 161,418 L 161,417 L 160,416 L 160,415 L 158,413 L 158,411 L 157,410 L 157,408 L 156,408 L 155,407 L 156,406 L 155,405 L 155,403 L 154,402 L 154,400 L 153,399 L 153,397 L 152,396 L 152,395 L 150,393 L 151,392 L 151,391 L 150,390 L 150,388 L 149,387 L 149,384 L 148,383 L 148,381 L 147,380 L 147,377 L 146,376 L 146,373 L 145,372 L 145,369 L 144,368 L 144,364 L 143,363 L 143,359 L 142,358 L 142,354 L 141,353 L 141,349 L 140,348 L 140,343 L 139,342 L 139,337 L 138,336 L 138,330 L 137,329 L 137,323 L 136,322 L 136,320 L 135,319 L 136,318 L 136,314 L 135,314 L 134,313 L 135,312 L 135,311 L 134,312 Z" fill="#d89078" stroke="none" /><path d="M 332,288 L 331,289 L 332,290 L 331,291 L 330,291 L 331,292 L 330,293 L 329,293 L 330,294 L 329,295 L 328,295 L 328,297 L 327,298 L 327,299 L 326,300 L 326,302 L 325,303 L 325,305 L 324,306 L 324,308 L 323,309 L 323,312 L 322,313 L 322,317 L 321,318 L 321,319 L 322,320 L 322,321 L 321,322 L 321,323 L 323,325 L 323,326 L 324,327 L 323,328 L 325,330 L 326,330 L 327,331 L 327,332 L 326,333 L 325,332 L 326,333 L 326,334 L 328,334 L 329,335 L 328,336 L 326,336 L 327,336 L 328,337 L 328,339 L 329,340 L 329,344 L 329,340 L 331,338 L 330,337 L 330,336 L 331,335 L 330,334 L 332,332 L 331,331 L 331,330 L 332,329 L 331,328 L 331,327 L 332,326 L 333,326 L 332,325 L 332,322 L 334,320 L 333,319 L 333,318 L 335,316 L 334,315 L 336,313 L 335,312 L 340,307 L 341,307 L 342,306 L 343,306 L 343,305 L 344,304 L 345,305 L 346,305 L 346,304 L 345,303 L 345,302 L 344,301 L 345,300 L 344,301 L 342,299 L 342,298 L 341,297 L 342,296 L 341,297 L 339,295 L 340,294 L 339,295 L 338,294 L 338,293 L 339,292 L 338,293 L 337,292 L 337,291 L 335,289 L 336,288 L 335,289 L 334,288 Z" fill="#d89078" stroke="none" /><path d="M 133,287 L 133,288 L 132,289 L 133,290 L 132,291 L 132,292 L 130,294 L 131,295 L 130,296 L 129,296 L 128,297 L 128,298 L 126,300 L 125,300 L 126,301 L 125,302 L 125,303 L 124,304 L 124,306 L 123,307 L 123,309 L 124,309 L 125,310 L 124,311 L 125,312 L 124,313 L 125,314 L 124,315 L 125,316 L 124,317 L 125,318 L 124,319 L 124,323 L 125,324 L 124,325 L 124,327 L 123,328 L 124,329 L 124,330 L 125,331 L 125,334 L 126,335 L 125,336 L 125,338 L 126,339 L 125,338 L 125,337 L 126,336 L 126,335 L 125,334 L 127,332 L 127,331 L 126,330 L 127,329 L 127,327 L 131,323 L 130,324 L 129,323 L 129,321 L 130,320 L 131,321 L 133,319 L 131,321 L 130,320 L 130,319 L 132,317 L 131,316 L 132,315 L 133,315 L 133,312 L 135,310 L 135,309 L 134,308 L 135,307 L 135,305 L 134,304 L 134,300 L 133,299 L 134,298 L 133,297 L 134,296 L 134,294 L 133,293 L 133,292 L 132,291 L 133,290 L 132,289 L 133,288 Z" fill="#d89090" stroke="none" /><path d="M 341,280 L 338,283 L 337,283 L 333,287 L 334,287 L 335,288 L 334,289 L 336,291 L 336,292 L 336,291 L 337,290 L 338,291 L 338,292 L 339,293 L 339,294 L 341,296 L 340,297 L 341,298 L 342,297 L 343,298 L 343,299 L 342,300 L 344,302 L 344,303 L 345,304 L 344,305 L 346,303 L 348,305 L 348,304 L 349,303 L 355,303 L 356,304 L 357,303 L 360,303 L 359,302 L 359,301 L 358,300 L 358,299 L 356,297 L 356,296 L 355,295 L 355,294 L 352,291 L 352,290 L 350,288 L 350,287 L 346,283 L 346,282 L 345,281 L 346,280 L 345,281 L 344,280 Z" fill="#d89090" stroke="none" /><path d="M 355,275 L 354,276 L 352,276 L 350,278 L 349,277 L 348,277 L 348,278 L 347,279 L 346,278 L 345,279 L 343,279 L 344,279 L 346,281 L 345,282 L 346,281 L 347,282 L 347,283 L 351,287 L 351,288 L 353,290 L 353,291 L 356,294 L 356,295 L 357,296 L 357,297 L 359,299 L 359,300 L 360,301 L 360,302 L 361,303 L 370,303 L 371,304 L 377,304 L 377,303 L 378,302 L 380,304 L 378,302 L 379,301 L 378,302 L 377,301 L 377,300 L 375,298 L 376,297 L 374,299 L 373,298 L 373,297 L 374,296 L 374,295 L 373,294 L 374,293 L 373,294 L 372,294 L 371,293 L 373,291 L 372,292 L 371,291 L 371,290 L 370,289 L 370,288 L 369,287 L 370,286 L 369,287 L 368,286 L 368,285 L 369,284 L 368,285 L 366,283 L 366,282 L 365,281 L 366,280 L 365,281 L 364,280 L 364,279 L 365,278 L 364,279 L 362,277 L 363,276 L 362,277 L 361,276 L 361,275 L 360,275 L 359,276 L 358,275 Z" fill="#d8a890" stroke="none" /><path d="M 130,267 L 130,268 L 128,270 L 127,269 L 128,270 L 127,271 L 127,272 L 125,274 L 124,273 L 125,274 L 123,276 L 122,275 L 123,276 L 123,277 L 122,278 L 121,277 L 122,278 L 120,280 L 119,279 L 120,280 L 119,281 L 119,283 L 118,284 L 117,283 L 118,284 L 117,285 L 118,284 L 119,285 L 120,284 L 121,285 L 122,284 L 123,285 L 123,287 L 124,288 L 123,289 L 123,293 L 124,294 L 123,295 L 123,297 L 124,298 L 123,299 L 123,306 L 123,304 L 124,303 L 124,302 L 125,301 L 124,300 L 125,299 L 126,299 L 127,298 L 127,297 L 129,295 L 130,295 L 129,294 L 131,292 L 131,291 L 132,290 L 133,291 L 132,290 L 133,289 L 132,288 L 132,287 L 133,286 L 133,285 L 134,284 L 134,278 L 135,277 L 135,276 L 134,275 L 135,274 L 135,273 L 136,272 L 136,269 L 135,268 L 132,268 L 131,267 Z" fill="#d8a890" stroke="none" /><path d="M 124,43 L 123,44 L 116,44 L 115,45 L 110,45 L 112,47 L 112,48 L 117,53 L 117,54 L 122,59 L 122,60 L 127,65 L 127,66 L 132,71 L 132,72 L 137,77 L 137,78 L 139,80 L 139,81 L 140,82 L 139,83 L 139,84 L 138,85 L 136,85 L 135,86 L 124,86 L 123,87 L 124,88 L 125,88 L 130,93 L 131,93 L 137,99 L 138,99 L 143,104 L 144,104 L 149,109 L 150,109 L 156,115 L 157,115 L 162,120 L 163,120 L 169,126 L 170,126 L 175,131 L 176,131 L 177,132 L 175,130 L 175,129 L 172,126 L 172,125 L 170,123 L 170,122 L 167,119 L 167,118 L 165,116 L 165,115 L 162,112 L 162,111 L 160,109 L 160,108 L 157,105 L 157,104 L 155,102 L 155,101 L 152,98 L 152,97 L 150,95 L 150,94 L 147,91 L 147,88 L 149,86 L 152,86 L 153,85 L 159,85 L 157,83 L 157,82 L 153,78 L 153,77 L 150,74 L 150,73 L 146,69 L 146,68 L 143,65 L 143,64 L 140,61 L 140,60 L 136,56 L 136,55 L 133,52 L 133,51 L 130,48 L 130,47 L 127,44 L 127,43 Z" fill="#f00000" stroke="none" /><path d="M 353,35 L 352,36 L 352,37 L 349,40 L 349,41 L 345,45 L 345,46 L 342,49 L 342,50 L 339,53 L 339,54 L 335,58 L 335,59 L 332,62 L 332,63 L 329,66 L 329,67 L 325,71 L 325,72 L 322,75 L 322,76 L 321,77 L 327,77 L 328,78 L 331,78 L 332,79 L 332,80 L 333,81 L 333,82 L 332,83 L 332,84 L 329,87 L 329,88 L 327,90 L 327,91 L 324,94 L 324,95 L 322,97 L 322,98 L 319,101 L 319,102 L 317,104 L 317,105 L 314,108 L 314,109 L 312,111 L 312,112 L 309,115 L 309,116 L 307,118 L 307,119 L 304,122 L 304,123 L 302,125 L 305,122 L 306,122 L 312,116 L 313,116 L 318,111 L 319,111 L 324,106 L 325,106 L 331,100 L 332,100 L 337,95 L 338,95 L 344,89 L 345,89 L 350,84 L 351,84 L 356,79 L 355,78 L 344,78 L 343,77 L 342,77 L 340,75 L 340,73 L 341,72 L 341,71 L 347,65 L 347,64 L 352,59 L 352,58 L 357,53 L 357,52 L 361,48 L 361,47 L 366,42 L 366,41 L 370,37 L 365,37 L 364,36 L 356,36 L 355,35 Z" fill="#f00000" stroke="none" /><path d="M 375,272 L 374,273 L 366,273 L 365,274 L 360,274 L 359,275 L 360,276 L 359,275 L 360,274 L 361,274 L 362,275 L 362,276 L 364,278 L 363,279 L 363,280 L 363,279 L 364,278 L 365,279 L 365,280 L 367,282 L 367,283 L 368,284 L 367,285 L 367,286 L 367,285 L 368,284 L 369,285 L 369,286 L 370,287 L 369,288 L 369,289 L 367,291 L 364,288 L 366,290 L 365,291 L 366,290 L 367,291 L 368,290 L 369,291 L 371,289 L 372,290 L 372,291 L 370,293 L 370,294 L 369,295 L 370,294 L 370,293 L 371,292 L 372,293 L 373,293 L 374,294 L 373,295 L 373,296 L 372,297 L 371,296 L 370,297 L 371,296 L 372,297 L 372,298 L 372,297 L 373,296 L 374,297 L 374,298 L 376,300 L 377,299 L 378,300 L 378,301 L 376,303 L 374,301 L 373,302 L 372,301 L 374,303 L 375,302 L 376,303 L 377,302 L 378,303 L 378,304 L 379,305 L 382,305 L 383,306 L 384,305 L 385,305 L 386,306 L 388,306 L 389,307 L 390,306 L 391,307 L 392,307 L 393,308 L 394,308 L 395,307 L 396,307 L 397,308 L 401,308 L 402,309 L 404,309 L 405,310 L 406,309 L 407,310 L 408,310 L 409,311 L 409,310 L 410,309 L 411,309 L 412,310 L 411,311 L 412,310 L 413,311 L 414,311 L 413,311 L 411,309 L 411,307 L 409,307 L 408,306 L 409,305 L 410,305 L 410,304 L 409,303 L 409,302 L 407,300 L 408,299 L 407,299 L 406,298 L 407,297 L 406,297 L 405,296 L 406,295 L 405,295 L 404,294 L 405,293 L 404,293 L 403,292 L 404,291 L 403,290 L 403,288 L 402,287 L 400,287 L 399,286 L 400,285 L 401,285 L 400,285 L 399,284 L 400,283 L 399,283 L 398,282 L 399,281 L 398,281 L 397,280 L 398,279 L 397,279 L 396,278 L 397,277 L 395,275 L 395,274 L 394,273 L 395,272 L 394,272 L 393,273 L 392,273 L 391,272 Z" fill="#f0a890" stroke="none" /><path d="M 97,262 L 96,263 L 97,264 L 95,266 L 95,267 L 93,269 L 93,270 L 91,272 L 91,273 L 89,275 L 89,276 L 88,277 L 88,278 L 86,280 L 86,281 L 85,282 L 85,283 L 84,284 L 84,285 L 83,286 L 83,287 L 82,288 L 82,289 L 81,290 L 81,291 L 80,292 L 80,293 L 81,292 L 82,292 L 83,291 L 84,292 L 84,291 L 85,290 L 86,291 L 87,290 L 88,291 L 89,290 L 90,290 L 91,289 L 92,290 L 93,289 L 94,289 L 95,288 L 96,289 L 97,289 L 98,288 L 99,288 L 100,287 L 101,288 L 102,288 L 104,286 L 105,286 L 106,287 L 107,287 L 108,286 L 109,286 L 110,285 L 111,285 L 112,286 L 113,285 L 114,286 L 114,285 L 115,284 L 116,285 L 117,284 L 118,285 L 119,284 L 120,285 L 121,284 L 122,285 L 122,286 L 122,285 L 124,283 L 123,284 L 120,281 L 121,280 L 120,279 L 122,277 L 122,276 L 124,274 L 125,275 L 126,274 L 125,273 L 126,272 L 126,271 L 127,270 L 128,271 L 129,270 L 128,269 L 129,268 L 129,267 L 128,268 L 126,266 L 122,266 L 121,265 L 117,265 L 116,264 L 110,264 L 109,263 L 103,263 L 102,264 L 99,264 L 98,263 L 99,262 Z" fill="#f0a890" stroke="none" /><path d="M 395,273 L 396,274 L 396,275 L 398,277 L 397,278 L 398,278 L 399,279 L 398,280 L 399,280 L 400,281 L 399,282 L 400,282 L 401,283 L 400,284 L 401,284 L 402,285 L 401,286 L 400,286 L 402,286 L 403,287 L 401,289 L 400,288 L 402,290 L 401,289 L 403,287 L 404,288 L 404,290 L 405,291 L 404,292 L 405,292 L 406,293 L 405,294 L 406,294 L 407,295 L 406,296 L 407,296 L 408,297 L 407,298 L 408,298 L 409,299 L 408,300 L 409,301 L 408,302 L 407,302 L 408,302 L 409,301 L 410,302 L 410,303 L 411,304 L 411,305 L 410,306 L 409,306 L 411,306 L 412,307 L 412,309 L 411,310 L 410,310 L 411,310 L 412,309 L 413,310 L 414,310 L 415,311 L 415,310 L 414,309 L 414,307 L 413,306 L 413,305 L 412,304 L 412,302 L 411,301 L 411,300 L 410,299 L 410,297 L 409,296 L 409,295 L 408,294 L 408,293 L 407,292 L 407,291 L 406,290 L 406,288 L 405,287 L 405,286 L 403,284 L 403,283 L 402,282 L 402,281 L 401,280 L 401,279 L 400,278 L 400,277 L 398,275 L 398,274 L 397,273 Z" fill="#f0c090" stroke="none" /><path d="M 94,262 L 95,263 L 94,264 L 93,264 L 93,265 L 91,267 L 91,268 L 89,270 L 89,271 L 87,273 L 87,274 L 86,275 L 86,276 L 85,277 L 85,278 L 83,280 L 83,281 L 82,282 L 82,283 L 81,284 L 81,285 L 80,286 L 80,287 L 79,288 L 79,289 L 78,290 L 78,291 L 77,292 L 79,292 L 80,291 L 80,290 L 81,289 L 81,288 L 82,287 L 82,286 L 83,285 L 83,284 L 84,283 L 84,282 L 85,281 L 85,280 L 87,278 L 88,279 L 89,279 L 88,279 L 87,278 L 87,277 L 88,276 L 89,277 L 90,277 L 89,277 L 88,276 L 88,275 L 90,273 L 90,272 L 92,270 L 93,271 L 92,270 L 92,269 L 93,268 L 94,269 L 96,267 L 96,266 L 99,263 L 102,263 L 99,263 L 98,264 L 97,263 L 96,264 Z" fill="#f0c090" stroke="none" /><path d="M 400,272 L 399,273 L 398,273 L 399,274 L 399,275 L 401,277 L 401,278 L 402,279 L 402,280 L 403,281 L 403,282 L 404,283 L 404,284 L 406,286 L 406,287 L 407,288 L 407,290 L 408,291 L 408,292 L 409,293 L 409,294 L 410,295 L 410,296 L 411,297 L 411,299 L 412,300 L 412,301 L 413,302 L 413,304 L 414,305 L 414,306 L 415,307 L 415,309 L 416,310 L 416,311 L 417,311 L 418,312 L 419,312 L 420,311 L 421,312 L 422,311 L 423,312 L 433,312 L 434,311 L 436,311 L 437,310 L 440,310 L 441,309 L 443,309 L 444,308 L 445,308 L 446,307 L 447,307 L 448,306 L 449,306 L 450,305 L 451,305 L 452,304 L 453,304 L 453,303 L 454,302 L 454,300 L 453,299 L 453,297 L 452,296 L 453,295 L 452,294 L 452,293 L 451,292 L 451,291 L 452,290 L 451,289 L 450,289 L 449,288 L 450,287 L 449,286 L 449,285 L 447,283 L 448,282 L 446,280 L 447,279 L 446,279 L 445,278 L 445,276 L 444,275 L 444,274 L 443,274 L 442,275 L 441,274 L 437,274 L 436,273 L 423,273 L 422,272 Z" fill="#f0c0a8" stroke="none" /><path d="M 61,262 L 60,263 L 51,263 L 50,264 L 44,264 L 44,265 L 45,266 L 45,267 L 44,268 L 43,268 L 44,269 L 43,270 L 42,270 L 43,270 L 44,271 L 43,272 L 41,272 L 42,272 L 43,273 L 42,274 L 40,274 L 41,275 L 39,277 L 40,278 L 38,280 L 38,281 L 37,282 L 37,283 L 36,284 L 37,285 L 36,286 L 35,286 L 36,287 L 35,288 L 35,289 L 34,290 L 34,291 L 33,292 L 34,293 L 33,294 L 32,294 L 33,295 L 32,296 L 32,297 L 31,298 L 32,299 L 31,300 L 34,303 L 35,303 L 36,304 L 37,304 L 38,305 L 43,305 L 44,304 L 46,304 L 47,303 L 48,303 L 49,302 L 51,302 L 52,301 L 54,301 L 56,299 L 60,299 L 61,298 L 63,298 L 64,297 L 66,297 L 68,295 L 69,296 L 70,296 L 72,294 L 73,295 L 75,293 L 76,294 L 77,294 L 78,293 L 77,293 L 76,292 L 77,291 L 77,290 L 78,289 L 78,288 L 79,287 L 79,286 L 80,285 L 80,284 L 81,283 L 81,282 L 82,281 L 82,280 L 84,278 L 84,277 L 85,276 L 85,275 L 86,274 L 86,273 L 88,271 L 88,270 L 90,268 L 90,267 L 92,265 L 92,264 L 93,263 L 94,263 L 95,262 L 96,262 L 95,262 L 94,263 L 92,263 L 91,262 Z" fill="#f0c0a8" stroke="none" /><path d="M 445,274 L 445,275 L 444,276 L 445,275 L 446,276 L 446,278 L 445,279 L 444,278 L 445,279 L 446,278 L 447,278 L 448,279 L 446,281 L 449,284 L 448,285 L 449,284 L 450,285 L 450,286 L 449,287 L 450,288 L 449,289 L 450,290 L 451,290 L 452,291 L 452,292 L 451,293 L 450,292 L 451,293 L 452,292 L 453,293 L 453,294 L 452,295 L 454,297 L 454,299 L 455,300 L 455,302 L 454,303 L 456,301 L 457,301 L 459,299 L 460,299 L 462,297 L 463,297 L 466,294 L 467,294 L 472,289 L 472,288 L 474,286 L 474,285 L 475,284 L 475,279 L 473,277 L 472,277 L 471,276 L 467,276 L 466,277 L 465,277 L 464,276 L 456,276 L 455,275 L 447,275 L 446,274 Z" fill="#f0d8a8" stroke="none" /><path d="M 39,265 L 38,266 L 33,266 L 32,267 L 29,267 L 28,268 L 25,268 L 24,269 L 23,269 L 24,270 L 24,279 L 25,280 L 25,285 L 26,286 L 26,288 L 27,289 L 27,292 L 28,293 L 28,294 L 29,295 L 29,296 L 30,297 L 30,298 L 32,300 L 31,299 L 32,298 L 31,297 L 31,296 L 32,295 L 33,296 L 31,294 L 32,293 L 33,293 L 34,294 L 33,293 L 34,292 L 33,291 L 33,290 L 34,289 L 35,290 L 34,289 L 34,288 L 35,287 L 36,288 L 34,286 L 35,285 L 36,285 L 37,286 L 36,285 L 37,284 L 36,283 L 36,282 L 37,281 L 38,282 L 37,281 L 37,280 L 38,279 L 39,280 L 38,279 L 40,277 L 39,276 L 40,275 L 39,274 L 40,273 L 42,273 L 41,273 L 40,272 L 41,271 L 43,271 L 44,270 L 42,268 L 43,267 L 44,267 L 45,268 L 46,267 L 45,268 L 44,267 L 44,266 L 45,265 L 44,266 L 43,266 L 42,265 Z" fill="#f0d8a8" stroke="none" /><path d="M 222,166 L 221,167 L 217,167 L 216,168 L 214,168 L 213,169 L 212,169 L 217,174 L 217,178 L 216,179 L 212,179 L 207,174 L 206,174 L 205,173 L 204,173 L 203,172 L 201,172 L 200,171 L 196,171 L 195,170 L 191,170 L 190,171 L 185,171 L 184,172 L 180,172 L 179,173 L 176,173 L 175,174 L 173,174 L 172,175 L 170,175 L 169,176 L 168,176 L 167,177 L 166,177 L 165,178 L 163,178 L 161,180 L 160,180 L 159,181 L 158,181 L 155,184 L 154,184 L 150,188 L 150,189 L 147,192 L 147,193 L 146,194 L 146,195 L 145,196 L 145,198 L 144,199 L 144,201 L 143,202 L 143,205 L 142,206 L 142,218 L 143,219 L 143,224 L 144,225 L 144,228 L 145,229 L 145,231 L 146,232 L 146,234 L 147,235 L 147,237 L 148,238 L 148,239 L 149,240 L 149,242 L 150,243 L 150,244 L 151,245 L 151,246 L 152,247 L 152,248 L 153,249 L 153,250 L 154,251 L 154,252 L 152,254 L 152,256 L 151,257 L 151,265 L 150,266 L 150,271 L 149,272 L 149,276 L 148,277 L 148,280 L 147,281 L 147,302 L 148,303 L 148,312 L 149,313 L 149,320 L 150,321 L 150,327 L 151,328 L 151,333 L 152,334 L 152,339 L 153,340 L 153,345 L 154,346 L 154,350 L 155,351 L 155,355 L 156,356 L 156,359 L 157,360 L 157,364 L 158,365 L 158,368 L 159,369 L 159,372 L 160,373 L 160,376 L 161,377 L 161,379 L 162,380 L 162,383 L 163,384 L 163,386 L 164,387 L 164,389 L 165,390 L 165,392 L 166,393 L 166,395 L 167,396 L 167,397 L 168,398 L 168,400 L 169,401 L 169,402 L 170,403 L 170,404 L 171,405 L 171,406 L 172,407 L 172,408 L 173,409 L 173,410 L 174,411 L 174,412 L 175,413 L 175,414 L 177,416 L 177,417 L 178,418 L 178,419 L 180,421 L 180,422 L 183,425 L 183,426 L 186,429 L 186,430 L 195,439 L 196,439 L 198,441 L 199,441 L 200,442 L 204,442 L 206,440 L 206,438 L 207,437 L 207,427 L 208,426 L 208,408 L 209,407 L 209,399 L 210,398 L 210,392 L 211,391 L 211,386 L 212,385 L 212,382 L 213,381 L 213,377 L 214,376 L 214,374 L 215,373 L 215,370 L 216,369 L 216,367 L 217,366 L 217,365 L 218,364 L 218,362 L 219,361 L 219,359 L 220,358 L 220,357 L 221,356 L 221,355 L 222,354 L 222,353 L 223,352 L 223,351 L 224,350 L 224,349 L 226,347 L 226,346 L 228,344 L 228,343 L 231,340 L 231,339 L 239,331 L 240,331 L 243,328 L 244,328 L 246,326 L 247,326 L 248,325 L 249,325 L 250,324 L 251,324 L 252,323 L 254,323 L 255,322 L 258,322 L 260,324 L 260,327 L 258,329 L 257,329 L 256,330 L 254,330 L 253,331 L 252,331 L 250,333 L 252,333 L 253,334 L 254,334 L 256,336 L 257,336 L 263,342 L 263,343 L 264,344 L 264,345 L 265,346 L 265,347 L 266,348 L 266,349 L 267,350 L 267,353 L 268,354 L 268,376 L 267,377 L 267,382 L 266,383 L 266,387 L 265,388 L 265,391 L 264,392 L 264,395 L 263,396 L 263,398 L 262,399 L 262,401 L 261,402 L 261,403 L 260,404 L 260,406 L 259,407 L 259,408 L 258,409 L 258,410 L 257,411 L 257,412 L 255,414 L 255,415 L 254,416 L 254,418 L 253,419 L 253,420 L 252,421 L 252,424 L 251,425 L 251,431 L 253,433 L 262,433 L 263,432 L 265,432 L 266,431 L 267,431 L 268,430 L 269,430 L 271,428 L 272,428 L 281,419 L 281,418 L 283,416 L 283,415 L 285,413 L 285,412 L 287,410 L 287,409 L 288,408 L 288,407 L 289,406 L 289,405 L 290,404 L 290,403 L 291,402 L 291,401 L 292,400 L 292,399 L 293,398 L 293,396 L 294,395 L 294,394 L 295,393 L 295,391 L 296,390 L 296,388 L 297,387 L 297,385 L 298,384 L 298,382 L 299,381 L 299,379 L 300,378 L 300,375 L 301,374 L 301,372 L 302,371 L 302,367 L 303,366 L 303,363 L 304,362 L 304,358 L 305,357 L 305,352 L 306,351 L 306,344 L 307,343 L 307,333 L 308,332 L 308,318 L 309,317 L 309,313 L 310,312 L 310,309 L 311,308 L 311,305 L 312,304 L 312,302 L 313,301 L 313,299 L 314,298 L 314,296 L 315,295 L 315,293 L 314,294 L 313,294 L 312,295 L 311,295 L 311,296 L 309,298 L 305,298 L 304,297 L 304,296 L 303,295 L 304,294 L 304,293 L 305,292 L 305,291 L 307,289 L 308,289 L 309,288 L 310,288 L 312,286 L 313,286 L 314,285 L 315,285 L 316,284 L 317,284 L 328,273 L 328,272 L 331,269 L 331,268 L 332,267 L 332,266 L 334,264 L 334,263 L 335,262 L 335,261 L 336,260 L 336,258 L 337,257 L 337,255 L 338,254 L 338,250 L 339,249 L 339,235 L 338,234 L 338,233 L 337,232 L 337,231 L 336,230 L 336,228 L 335,227 L 335,224 L 334,223 L 334,212 L 336,210 L 336,209 L 337,208 L 337,207 L 338,206 L 338,204 L 339,203 L 339,194 L 338,193 L 338,189 L 337,188 L 337,186 L 336,185 L 336,184 L 335,183 L 335,182 L 334,181 L 334,180 L 329,175 L 328,175 L 326,173 L 325,173 L 324,172 L 323,172 L 322,171 L 320,171 L 319,170 L 316,170 L 315,169 L 310,169 L 309,168 L 293,168 L 292,169 L 286,169 L 285,170 L 282,170 L 281,171 L 279,171 L 278,172 L 275,172 L 274,173 L 270,173 L 269,174 L 264,174 L 263,175 L 256,175 L 255,176 L 245,176 L 244,177 L 236,177 L 234,175 L 234,172 L 236,170 L 237,170 L 238,169 L 251,169 L 252,168 L 254,168 L 250,168 L 249,167 L 242,167 L 241,166 Z" fill="#f0f0f0" stroke="none" /></svg>