<?xml version="1.0" encoding="utf-8" ?>
<svg baseProfile="full" height="500" version="1.1" viewBox="0 0 500 500" width="500" xmlns="http://www.w3.org/2000/svg" xmlns:ev="http://www.w3.org/2001/xml-events" xmlns:xlink="http://www.w3.org/1999/xlink"><defs /><path d="M 372,322 L 369,325 L 369,326 L 373,330 L 373,331 L 377,335 L 377,336 L 382,341 L 382,342 L 386,346 L 386,347 L 389,350 L 389,351 L 394,356 L 394,357 L 398,361 L 398,362 L 402,366 L 400,368 L 396,368 L 395,369 L 390,369 L 389,370 L 385,370 L 385,371 L 388,374 L 388,375 L 389,375 L 398,384 L 398,385 L 399,385 L 410,396 L 410,397 L 411,397 L 419,405 L 418,406 L 414,406 L 413,407 L 408,407 L 407,408 L 404,408 L 404,409 L 407,412 L 408,412 L 413,417 L 414,417 L 419,422 L 420,422 L 426,428 L 427,428 L 432,433 L 433,433 L 439,439 L 440,439 L 446,445 L 447,445 L 452,450 L 453,450 L 454,449 L 455,449 L 457,447 L 456,446 L 456,445 L 455,444 L 455,443 L 453,441 L 453,440 L 452,439 L 452,438 L 450,436 L 450,435 L 449,434 L 449,433 L 447,431 L 447,430 L 446,429 L 446,428 L 444,426 L 444,425 L 443,424 L 443,423 L 441,421 L 441,420 L 440,419 L 440,418 L 438,416 L 439,415 L 442,415 L 443,414 L 450,414 L 451,413 L 457,413 L 458,412 L 460,412 L 457,409 L 456,409 L 450,403 L 449,403 L 443,397 L 442,397 L 437,392 L 436,392 L 430,386 L 429,386 L 425,382 L 425,381 L 426,380 L 429,380 L 430,379 L 431,380 L 432,379 L 433,379 L 434,378 L 437,378 L 438,377 L 441,377 L 442,376 L 444,376 L 445,375 L 446,375 L 444,373 L 443,373 L 440,370 L 439,370 L 436,367 L 435,367 L 433,365 L 432,365 L 429,362 L 428,362 L 425,359 L 424,359 L 422,357 L 421,357 L 418,354 L 417,354 L 414,351 L 413,351 L 411,349 L 410,349 L 407,346 L 406,346 L 403,343 L 402,343 L 400,341 L 399,341 L 396,338 L 395,338 L 392,335 L 391,335 L 389,333 L 388,333 L 385,330 L 384,330 L 381,327 L 380,327 L 378,325 L 377,325 L 374,322 Z" fill="#000000" stroke="none" /><path d="M 114,322 L 111,325 L 110,325 L 107,328 L 106,328 L 104,330 L 103,330 L 100,333 L 99,333 L 96,336 L 95,336 L 93,338 L 92,338 L 89,341 L 88,341 L 86,343 L 85,343 L 82,346 L 81,346 L 78,349 L 77,349 L 74,352 L 73,352 L 71,354 L 70,354 L 67,357 L 66,357 L 63,360 L 62,360 L 60,362 L 59,362 L 56,365 L 55,365 L 53,367 L 52,367 L 49,370 L 48,370 L 45,373 L 44,373 L 42,375 L 43,376 L 46,376 L 47,377 L 50,377 L 51,378 L 54,378 L 55,379 L 58,379 L 59,380 L 62,380 L 63,381 L 63,382 L 59,386 L 58,386 L 52,392 L 51,392 L 45,398 L 44,398 L 39,403 L 38,403 L 32,409 L 31,409 L 28,412 L 30,412 L 31,413 L 38,413 L 39,414 L 45,414 L 46,415 L 49,415 L 50,416 L 48,418 L 48,419 L 47,420 L 47,421 L 45,423 L 45,424 L 44,425 L 44,426 L 42,428 L 42,429 L 41,430 L 41,431 L 39,433 L 39,434 L 38,435 L 38,436 L 36,438 L 36,439 L 35,440 L 35,441 L 33,443 L 33,444 L 32,445 L 32,446 L 31,447 L 32,448 L 33,448 L 35,450 L 36,450 L 38,448 L 39,448 L 39,447 L 41,445 L 42,445 L 48,439 L 49,439 L 54,434 L 55,434 L 61,428 L 62,428 L 68,422 L 69,422 L 74,417 L 75,417 L 81,411 L 82,411 L 83,410 L 84,410 L 84,409 L 85,408 L 81,408 L 80,407 L 75,407 L 74,406 L 70,406 L 69,405 L 90,384 L 91,384 L 91,383 L 102,372 L 103,372 L 103,370 L 99,370 L 98,369 L 93,369 L 92,368 L 88,368 L 86,366 L 90,362 L 90,361 L 94,357 L 94,356 L 99,351 L 99,350 L 102,347 L 102,346 L 107,341 L 107,340 L 111,336 L 111,335 L 115,331 L 115,330 L 119,326 L 119,325 L 117,323 L 117,322 Z" fill="#000000" stroke="none" /><path d="M 461,49 L 456,54 L 455,54 L 449,60 L 448,60 L 442,66 L 441,66 L 435,72 L 434,72 L 429,77 L 428,77 L 423,82 L 422,82 L 416,88 L 415,88 L 413,90 L 413,91 L 416,91 L 417,92 L 422,92 L 423,93 L 427,93 L 428,94 L 394,128 L 394,129 L 398,129 L 399,130 L 404,130 L 405,131 L 410,131 L 411,132 L 411,133 L 407,137 L 407,138 L 403,142 L 403,143 L 399,147 L 399,148 L 395,152 L 395,153 L 391,157 L 391,158 L 386,163 L 386,164 L 382,168 L 382,169 L 378,173 L 378,174 L 381,177 L 383,177 L 386,174 L 387,174 L 389,172 L 390,172 L 393,169 L 394,169 L 397,166 L 398,166 L 400,164 L 401,164 L 404,161 L 405,161 L 408,158 L 409,158 L 412,155 L 413,155 L 415,153 L 416,153 L 419,150 L 420,150 L 423,147 L 424,147 L 426,145 L 427,145 L 430,142 L 431,142 L 434,139 L 435,139 L 437,137 L 438,137 L 441,134 L 442,134 L 444,132 L 445,132 L 448,129 L 449,129 L 452,126 L 453,126 L 455,124 L 454,124 L 453,123 L 451,123 L 450,122 L 447,122 L 446,121 L 443,121 L 442,120 L 439,120 L 438,119 L 435,119 L 434,118 L 434,117 L 438,113 L 439,113 L 445,107 L 446,107 L 451,102 L 452,102 L 458,96 L 459,96 L 465,90 L 466,90 L 469,87 L 467,87 L 466,86 L 460,86 L 459,85 L 452,85 L 451,84 L 448,84 L 447,83 L 449,81 L 449,80 L 450,79 L 450,78 L 452,76 L 452,75 L 454,73 L 454,72 L 455,71 L 455,70 L 457,68 L 457,67 L 458,66 L 458,65 L 459,64 L 459,63 L 461,61 L 461,60 L 462,59 L 462,58 L 464,56 L 464,55 L 465,54 L 465,53 L 466,52 L 465,51 L 464,51 L 462,49 Z" fill="#000000" stroke="none" /><path d="M 35,49 L 33,51 L 32,51 L 31,52 L 32,53 L 32,54 L 33,55 L 33,56 L 35,58 L 35,59 L 36,60 L 36,61 L 38,63 L 38,64 L 39,65 L 39,66 L 41,68 L 41,69 L 42,70 L 42,71 L 44,73 L 44,74 L 45,75 L 45,76 L 47,78 L 47,79 L 48,80 L 48,81 L 50,83 L 49,84 L 46,84 L 45,85 L 38,85 L 37,86 L 31,86 L 30,87 L 28,87 L 32,91 L 33,91 L 37,95 L 38,95 L 44,101 L 45,101 L 51,107 L 52,107 L 58,113 L 59,113 L 62,116 L 62,117 L 63,118 L 62,119 L 59,119 L 58,120 L 55,120 L 54,121 L 51,121 L 50,122 L 48,122 L 47,123 L 44,123 L 43,124 L 42,124 L 44,126 L 45,126 L 48,129 L 49,129 L 52,132 L 53,132 L 55,134 L 56,134 L 60,138 L 61,138 L 63,140 L 64,140 L 66,142 L 67,142 L 71,146 L 72,146 L 74,148 L 75,148 L 77,150 L 78,150 L 81,153 L 82,153 L 85,156 L 86,156 L 88,158 L 89,158 L 92,161 L 93,161 L 96,164 L 97,164 L 99,166 L 100,166 L 103,169 L 104,169 L 105,170 L 105,171 L 106,171 L 107,172 L 108,172 L 110,174 L 111,174 L 114,177 L 116,177 L 119,174 L 120,175 L 120,176 L 119,177 L 119,180 L 118,181 L 118,184 L 117,185 L 117,189 L 116,190 L 116,194 L 115,195 L 115,200 L 114,201 L 114,207 L 113,208 L 113,213 L 112,214 L 112,220 L 111,221 L 111,227 L 110,228 L 108,228 L 107,229 L 105,229 L 103,231 L 102,231 L 97,236 L 97,237 L 95,239 L 95,240 L 94,241 L 94,242 L 93,243 L 93,245 L 92,246 L 92,249 L 91,250 L 91,259 L 92,260 L 92,264 L 93,265 L 93,266 L 94,267 L 94,269 L 95,270 L 95,271 L 100,276 L 100,277 L 101,277 L 104,280 L 106,280 L 107,281 L 109,281 L 110,282 L 113,282 L 114,283 L 114,285 L 115,286 L 115,290 L 116,291 L 116,293 L 117,294 L 117,296 L 118,297 L 118,298 L 117,299 L 119,301 L 119,303 L 120,304 L 120,305 L 121,306 L 121,308 L 122,309 L 122,310 L 123,311 L 123,313 L 124,314 L 124,315 L 125,316 L 124,317 L 125,317 L 126,318 L 126,319 L 127,320 L 127,322 L 128,323 L 128,324 L 130,326 L 130,327 L 131,328 L 131,329 L 132,330 L 132,331 L 133,332 L 133,333 L 135,335 L 135,336 L 137,338 L 137,339 L 139,341 L 139,342 L 142,345 L 142,346 L 144,348 L 144,349 L 150,355 L 150,356 L 154,360 L 154,361 L 155,361 L 163,369 L 164,369 L 169,374 L 170,374 L 172,376 L 173,376 L 176,379 L 177,379 L 179,381 L 180,381 L 181,382 L 182,382 L 184,384 L 185,384 L 186,385 L 187,385 L 188,386 L 189,386 L 190,387 L 191,387 L 192,388 L 193,388 L 194,389 L 195,389 L 196,390 L 197,390 L 198,391 L 200,391 L 201,392 L 203,392 L 204,393 L 205,393 L 206,394 L 208,394 L 209,395 L 212,395 L 213,396 L 216,396 L 217,397 L 220,397 L 221,398 L 225,398 L 226,399 L 234,399 L 235,400 L 255,400 L 256,399 L 263,399 L 264,398 L 268,398 L 269,397 L 273,397 L 274,396 L 277,396 L 278,395 L 280,395 L 281,394 L 283,394 L 284,393 L 286,393 L 287,392 L 288,392 L 289,391 L 291,391 L 292,390 L 293,390 L 294,389 L 295,389 L 296,388 L 298,388 L 300,386 L 301,386 L 302,385 L 303,385 L 304,384 L 305,384 L 306,383 L 307,383 L 309,381 L 310,381 L 312,379 L 313,379 L 314,378 L 315,378 L 318,375 L 319,375 L 323,371 L 324,371 L 331,364 L 332,364 L 338,358 L 338,357 L 343,352 L 343,351 L 346,348 L 347,348 L 346,347 L 349,344 L 349,343 L 351,341 L 351,340 L 353,338 L 353,337 L 355,335 L 355,334 L 356,333 L 356,332 L 358,330 L 358,329 L 359,328 L 359,327 L 360,326 L 360,325 L 361,324 L 361,323 L 362,322 L 362,321 L 363,320 L 363,319 L 364,318 L 364,317 L 365,316 L 365,315 L 366,314 L 366,312 L 367,311 L 367,310 L 368,309 L 368,307 L 369,306 L 369,304 L 370,303 L 370,302 L 371,301 L 371,299 L 372,298 L 372,296 L 373,295 L 373,292 L 374,291 L 374,288 L 375,287 L 375,284 L 376,283 L 376,279 L 377,278 L 377,273 L 378,272 L 378,265 L 379,264 L 379,263 L 380,262 L 381,262 L 382,261 L 384,261 L 386,259 L 387,259 L 392,254 L 392,253 L 393,252 L 393,251 L 394,250 L 394,249 L 395,248 L 395,246 L 396,245 L 396,242 L 397,241 L 397,233 L 396,232 L 396,228 L 395,227 L 395,225 L 394,224 L 394,223 L 393,222 L 393,221 L 392,220 L 392,219 L 384,211 L 383,211 L 382,210 L 381,210 L 379,208 L 379,205 L 378,204 L 378,197 L 377,196 L 377,191 L 376,190 L 376,185 L 375,184 L 375,181 L 374,180 L 374,177 L 373,176 L 373,174 L 372,173 L 372,171 L 371,170 L 371,168 L 370,167 L 370,165 L 369,164 L 369,162 L 368,161 L 368,160 L 367,159 L 367,158 L 366,157 L 366,156 L 365,155 L 365,154 L 364,153 L 364,152 L 363,151 L 363,150 L 362,149 L 362,148 L 361,147 L 361,146 L 359,144 L 359,143 L 357,141 L 357,140 L 354,137 L 354,136 L 349,131 L 349,130 L 342,123 L 341,123 L 336,118 L 335,118 L 332,115 L 331,115 L 329,113 L 328,113 L 326,111 L 325,111 L 324,110 L 323,110 L 321,108 L 320,108 L 319,107 L 318,107 L 317,106 L 316,106 L 315,105 L 314,105 L 313,104 L 312,104 L 311,103 L 309,103 L 308,102 L 307,102 L 306,101 L 305,101 L 304,100 L 302,100 L 301,99 L 299,99 L 298,98 L 296,98 L 295,97 L 293,97 L 292,96 L 289,96 L 288,95 L 285,95 L 284,94 L 281,94 L 280,93 L 276,93 L 275,92 L 271,92 L 269,90 L 269,89 L 268,88 L 268,85 L 267,84 L 267,79 L 266,78 L 266,70 L 265,69 L 265,66 L 264,66 L 264,67 L 263,68 L 263,69 L 261,71 L 261,72 L 260,73 L 260,74 L 258,76 L 258,77 L 257,78 L 257,79 L 256,80 L 256,81 L 254,83 L 254,84 L 252,86 L 248,82 L 247,82 L 242,77 L 241,77 L 237,73 L 236,73 L 236,74 L 235,75 L 235,77 L 234,78 L 234,80 L 233,81 L 233,83 L 232,84 L 232,86 L 231,87 L 229,87 L 228,88 L 221,88 L 220,89 L 215,89 L 214,90 L 210,90 L 209,91 L 206,91 L 205,92 L 202,92 L 201,93 L 199,93 L 198,94 L 196,94 L 195,95 L 193,95 L 192,96 L 190,96 L 189,97 L 188,97 L 187,98 L 185,98 L 184,99 L 183,99 L 182,100 L 181,100 L 180,101 L 179,101 L 178,102 L 177,102 L 176,103 L 175,103 L 174,104 L 173,104 L 172,105 L 171,105 L 169,107 L 168,107 L 166,109 L 165,109 L 163,111 L 162,111 L 158,115 L 157,115 L 144,128 L 144,129 L 140,133 L 140,134 L 138,136 L 138,137 L 136,139 L 136,140 L 134,142 L 134,143 L 133,144 L 133,145 L 132,146 L 132,147 L 130,149 L 130,150 L 129,151 L 129,152 L 128,153 L 128,155 L 127,156 L 127,157 L 126,158 L 126,159 L 125,160 L 125,162 L 124,163 L 124,164 L 123,165 L 123,167 L 122,168 L 122,170 L 121,171 L 121,173 L 120,174 L 115,169 L 115,168 L 111,164 L 111,163 L 107,159 L 107,158 L 103,154 L 103,153 L 99,149 L 99,148 L 94,143 L 94,142 L 90,138 L 90,137 L 86,133 L 86,132 L 87,131 L 92,131 L 93,130 L 98,130 L 99,129 L 103,129 L 103,128 L 69,94 L 70,93 L 74,93 L 75,92 L 80,92 L 81,91 L 84,91 L 84,90 L 82,88 L 81,88 L 75,82 L 74,82 L 69,77 L 68,77 L 62,71 L 61,71 L 55,65 L 54,65 L 49,60 L 48,60 L 43,55 L 42,55 L 36,49 Z" fill="#000000" stroke="none" /><path d="M 240,86 L 240,87 L 239,88 L 239,90 L 238,91 L 238,93 L 236,95 L 231,95 L 230,96 L 223,96 L 222,97 L 217,97 L 216,98 L 212,98 L 211,99 L 208,99 L 207,100 L 204,100 L 203,101 L 201,101 L 200,102 L 198,102 L 197,103 L 195,103 L 194,104 L 192,104 L 191,105 L 189,105 L 188,106 L 187,106 L 186,107 L 185,107 L 184,108 L 183,108 L 182,109 L 181,109 L 180,110 L 179,110 L 178,111 L 177,111 L 175,113 L 174,113 L 173,114 L 172,114 L 170,116 L 169,116 L 166,119 L 165,119 L 160,124 L 159,124 L 153,130 L 153,131 L 148,136 L 148,137 L 145,140 L 145,141 L 143,143 L 143,144 L 141,146 L 141,147 L 140,148 L 140,149 L 139,150 L 139,151 L 138,152 L 138,153 L 137,154 L 137,155 L 136,156 L 136,157 L 135,158 L 135,159 L 134,160 L 134,161 L 133,162 L 133,163 L 132,164 L 132,166 L 131,167 L 131,169 L 130,170 L 130,172 L 129,173 L 129,175 L 128,176 L 128,178 L 127,179 L 127,182 L 126,183 L 126,186 L 125,187 L 125,190 L 124,191 L 124,195 L 123,196 L 123,201 L 122,202 L 122,208 L 121,209 L 121,217 L 120,218 L 120,227 L 121,226 L 122,226 L 123,225 L 124,225 L 125,224 L 126,224 L 127,223 L 128,223 L 129,222 L 130,222 L 131,221 L 132,221 L 133,220 L 134,220 L 135,219 L 136,219 L 137,218 L 138,218 L 140,216 L 141,216 L 142,215 L 143,215 L 144,214 L 145,214 L 147,212 L 148,212 L 149,211 L 150,211 L 152,209 L 153,209 L 155,207 L 156,207 L 158,205 L 159,205 L 161,203 L 162,203 L 165,200 L 166,200 L 170,196 L 171,196 L 189,178 L 189,177 L 192,174 L 192,173 L 194,171 L 194,170 L 196,168 L 196,167 L 197,166 L 199,166 L 200,167 L 201,167 L 202,168 L 204,168 L 205,169 L 205,171 L 204,172 L 204,174 L 203,175 L 203,177 L 202,178 L 202,180 L 201,181 L 201,183 L 200,184 L 200,186 L 199,187 L 199,189 L 198,190 L 198,191 L 199,190 L 200,190 L 205,185 L 206,185 L 220,171 L 220,170 L 224,166 L 224,165 L 226,163 L 226,162 L 228,160 L 228,159 L 230,157 L 230,156 L 231,155 L 231,154 L 232,153 L 232,152 L 233,151 L 233,150 L 234,149 L 234,148 L 235,147 L 235,146 L 236,145 L 236,144 L 237,143 L 239,145 L 239,147 L 240,148 L 240,150 L 241,151 L 241,154 L 242,155 L 242,160 L 243,161 L 243,170 L 242,171 L 242,179 L 241,180 L 241,186 L 240,187 L 240,192 L 242,192 L 243,191 L 245,191 L 246,190 L 248,190 L 249,189 L 250,189 L 251,188 L 252,188 L 253,187 L 254,187 L 256,185 L 257,185 L 261,181 L 262,181 L 274,169 L 274,168 L 278,164 L 278,163 L 281,160 L 281,159 L 284,156 L 284,155 L 286,153 L 286,152 L 288,150 L 288,149 L 290,147 L 290,146 L 291,145 L 293,147 L 293,148 L 294,149 L 294,150 L 295,151 L 295,152 L 296,153 L 296,154 L 297,155 L 297,156 L 298,157 L 298,158 L 299,159 L 299,160 L 300,161 L 300,162 L 302,164 L 302,165 L 305,168 L 305,169 L 309,173 L 309,174 L 322,187 L 323,186 L 323,184 L 324,183 L 324,182 L 326,180 L 326,179 L 327,178 L 327,177 L 330,174 L 330,173 L 336,167 L 337,167 L 341,163 L 342,163 L 343,164 L 343,166 L 344,167 L 344,169 L 345,170 L 345,172 L 346,173 L 346,175 L 347,176 L 347,178 L 348,179 L 348,180 L 349,181 L 349,182 L 350,183 L 350,184 L 351,185 L 351,186 L 352,187 L 352,188 L 353,189 L 353,190 L 354,191 L 354,192 L 356,194 L 356,195 L 357,196 L 357,197 L 359,199 L 359,200 L 360,201 L 360,202 L 362,204 L 362,205 L 364,207 L 364,208 L 367,211 L 367,212 L 370,215 L 370,216 L 371,217 L 371,207 L 370,206 L 370,198 L 369,197 L 369,192 L 368,191 L 368,187 L 367,186 L 367,183 L 366,182 L 366,179 L 365,178 L 365,176 L 364,175 L 364,172 L 363,171 L 363,169 L 362,168 L 362,167 L 361,166 L 361,164 L 360,163 L 360,162 L 359,161 L 359,160 L 358,159 L 358,158 L 357,157 L 357,156 L 356,155 L 356,154 L 355,153 L 355,152 L 353,150 L 353,149 L 351,147 L 351,146 L 349,144 L 349,143 L 346,140 L 346,139 L 333,126 L 332,126 L 329,123 L 328,123 L 325,120 L 324,120 L 323,119 L 322,119 L 320,117 L 319,117 L 318,116 L 317,116 L 315,114 L 314,114 L 313,113 L 312,113 L 311,112 L 310,112 L 309,111 L 307,111 L 306,110 L 305,110 L 304,109 L 303,109 L 302,108 L 300,108 L 299,107 L 297,107 L 296,106 L 294,106 L 293,105 L 291,105 L 290,104 L 287,104 L 286,103 L 284,103 L 283,102 L 279,102 L 278,101 L 275,101 L 274,100 L 269,100 L 268,99 L 264,99 L 262,97 L 262,95 L 261,94 L 261,91 L 260,90 L 260,89 L 260,90 L 258,92 L 258,93 L 257,94 L 257,95 L 254,98 L 252,96 L 251,96 L 245,90 L 244,90 Z" fill="#904818" stroke="none" /><path d="M 390,342 L 394,346 L 394,347 L 398,351 L 398,352 L 402,356 L 402,357 L 403,358 L 404,358 L 405,359 L 405,360 L 407,362 L 407,363 L 408,363 L 409,364 L 409,365 L 411,367 L 411,368 L 412,369 L 413,369 L 414,370 L 412,372 L 409,372 L 407,374 L 406,373 L 405,374 L 404,373 L 403,373 L 402,374 L 397,374 L 431,408 L 431,409 L 430,410 L 427,410 L 426,411 L 421,411 L 420,412 L 417,412 L 418,413 L 419,413 L 424,418 L 425,418 L 431,424 L 432,424 L 438,430 L 439,430 L 441,432 L 438,429 L 438,427 L 437,426 L 437,425 L 435,423 L 435,422 L 433,420 L 433,419 L 432,418 L 432,417 L 431,416 L 431,415 L 429,413 L 429,411 L 430,410 L 433,410 L 434,409 L 440,409 L 441,408 L 446,408 L 445,407 L 444,407 L 438,401 L 437,401 L 431,395 L 430,395 L 428,393 L 427,393 L 426,392 L 426,391 L 425,391 L 419,385 L 418,385 L 417,384 L 416,384 L 415,383 L 415,382 L 411,378 L 412,377 L 415,377 L 416,376 L 419,376 L 419,375 L 420,374 L 421,375 L 423,375 L 424,374 L 427,374 L 428,373 L 431,373 L 432,372 L 431,372 L 428,369 L 427,369 L 424,366 L 423,367 L 422,366 L 422,365 L 421,364 L 420,364 L 417,361 L 416,361 L 413,358 L 412,358 L 410,356 L 409,356 L 406,353 L 405,353 L 402,350 L 401,350 L 399,348 L 398,348 L 395,345 L 394,345 L 392,343 L 391,343 Z" fill="#d80000" stroke="none" /><path d="M 98,342 L 97,343 L 96,343 L 94,345 L 93,345 L 90,348 L 89,348 L 86,351 L 85,351 L 83,353 L 82,353 L 79,356 L 78,356 L 75,359 L 74,359 L 72,361 L 71,361 L 68,364 L 67,364 L 64,367 L 63,367 L 61,369 L 60,369 L 57,372 L 56,372 L 57,373 L 60,373 L 61,374 L 62,374 L 63,373 L 65,375 L 68,375 L 69,376 L 72,376 L 73,377 L 76,377 L 77,378 L 71,384 L 70,384 L 64,390 L 63,390 L 56,397 L 55,397 L 50,402 L 49,402 L 44,407 L 43,407 L 42,408 L 47,408 L 48,409 L 54,409 L 55,410 L 58,410 L 59,411 L 59,413 L 57,415 L 57,416 L 56,417 L 56,418 L 54,420 L 54,421 L 53,422 L 53,423 L 52,424 L 52,425 L 50,427 L 50,428 L 49,429 L 49,430 L 47,432 L 49,430 L 50,430 L 50,429 L 51,428 L 52,428 L 56,424 L 57,424 L 57,423 L 58,422 L 59,422 L 63,418 L 64,418 L 69,413 L 70,413 L 71,412 L 68,412 L 67,411 L 62,411 L 61,410 L 58,410 L 57,409 L 57,408 L 78,387 L 78,386 L 79,385 L 80,385 L 91,374 L 89,374 L 88,375 L 87,374 L 86,374 L 85,373 L 80,373 L 79,372 L 76,372 L 75,371 L 75,369 L 76,368 L 77,368 L 77,367 L 82,362 L 82,361 L 83,360 L 83,359 L 84,358 L 85,358 L 86,357 L 86,355 L 87,354 L 88,354 L 90,352 L 90,351 L 91,350 L 91,349 L 92,348 L 93,348 L 94,347 L 94,346 Z" fill="#d80000" stroke="none" /><path d="M 450,67 L 447,70 L 446,70 L 441,75 L 440,75 L 440,76 L 439,77 L 438,77 L 434,81 L 433,81 L 428,86 L 427,86 L 426,87 L 430,87 L 431,88 L 435,88 L 436,89 L 439,89 L 440,90 L 440,91 L 427,104 L 427,105 L 426,106 L 425,106 L 408,123 L 408,124 L 407,125 L 406,125 L 411,125 L 412,126 L 417,126 L 418,127 L 421,127 L 422,128 L 422,130 L 421,131 L 420,131 L 419,132 L 419,133 L 415,137 L 415,138 L 412,141 L 412,142 L 407,147 L 407,148 L 403,152 L 403,153 L 399,157 L 400,157 L 403,154 L 404,154 L 407,151 L 408,151 L 411,148 L 412,148 L 414,146 L 415,146 L 419,142 L 420,142 L 422,140 L 423,140 L 425,138 L 426,138 L 429,135 L 430,135 L 434,131 L 435,131 L 437,129 L 438,129 L 440,127 L 441,127 L 440,126 L 437,126 L 436,125 L 433,125 L 432,124 L 431,124 L 430,125 L 428,123 L 425,123 L 424,122 L 421,122 L 420,121 L 426,115 L 427,115 L 434,108 L 435,108 L 435,107 L 436,106 L 437,106 L 438,105 L 438,104 L 439,103 L 441,103 L 447,97 L 448,97 L 453,92 L 454,92 L 454,91 L 453,92 L 452,91 L 451,91 L 450,90 L 443,90 L 442,89 L 439,89 L 438,88 L 438,86 L 440,84 L 440,83 L 441,82 L 440,81 L 441,80 L 442,80 L 443,79 L 443,78 L 444,77 L 444,76 L 446,74 L 446,73 L 447,72 L 447,71 L 449,69 L 449,68 Z" fill="#d80000" stroke="none" /><path d="M 47,67 L 49,69 L 49,70 L 50,71 L 50,72 L 51,73 L 51,74 L 53,76 L 53,77 L 54,78 L 54,79 L 55,79 L 56,80 L 56,82 L 57,83 L 57,84 L 59,86 L 59,88 L 58,89 L 55,89 L 54,90 L 48,90 L 47,91 L 46,91 L 45,92 L 44,91 L 42,91 L 43,92 L 44,92 L 50,98 L 51,98 L 52,99 L 53,99 L 54,100 L 54,101 L 55,101 L 56,102 L 56,103 L 57,103 L 61,107 L 62,107 L 69,114 L 70,114 L 77,121 L 76,122 L 73,122 L 72,123 L 69,123 L 67,125 L 66,124 L 64,124 L 63,125 L 61,125 L 60,126 L 57,126 L 56,127 L 57,127 L 60,130 L 62,130 L 67,135 L 68,135 L 71,138 L 73,138 L 74,139 L 74,140 L 75,140 L 78,143 L 79,143 L 82,146 L 83,146 L 85,148 L 86,148 L 89,151 L 90,151 L 93,154 L 94,154 L 97,157 L 98,157 L 94,153 L 94,152 L 92,150 L 91,150 L 90,149 L 90,147 L 85,142 L 85,141 L 82,138 L 82,137 L 78,133 L 78,132 L 75,129 L 75,127 L 76,126 L 77,127 L 79,127 L 80,126 L 85,126 L 86,125 L 89,125 L 90,124 L 91,125 L 78,112 L 77,112 L 76,111 L 76,110 L 57,91 L 57,90 L 58,89 L 60,89 L 61,88 L 66,88 L 67,87 L 70,87 L 64,81 L 63,81 L 62,80 L 61,80 L 60,79 L 60,78 L 59,78 L 58,77 L 58,76 L 57,75 L 56,75 L 50,69 L 49,69 Z" fill="#d80000" stroke="none" /><path d="M 107,238 L 103,242 L 103,243 L 102,244 L 102,245 L 101,246 L 101,247 L 100,248 L 100,251 L 99,252 L 99,257 L 100,258 L 100,262 L 101,263 L 101,264 L 102,265 L 102,266 L 104,268 L 104,269 L 107,272 L 108,272 L 109,273 L 109,269 L 108,268 L 108,257 L 107,256 Z" fill="#f0d8d8" stroke="none" /><path d="M 380,219 L 380,233 L 381,234 L 381,242 L 382,243 L 382,252 L 386,248 L 386,247 L 387,246 L 387,244 L 388,243 L 388,240 L 389,239 L 389,235 L 388,234 L 388,230 L 387,229 L 387,227 L 385,225 L 385,224 L 383,222 L 383,221 L 381,219 Z" fill="#f0d8d8" stroke="none" /><path d="M 290,162 L 290,163 L 287,166 L 287,167 L 283,171 L 283,172 L 277,178 L 277,179 L 270,186 L 269,186 L 264,191 L 263,191 L 261,193 L 260,193 L 258,195 L 257,195 L 256,196 L 255,196 L 254,197 L 253,197 L 252,198 L 251,198 L 250,199 L 248,199 L 247,200 L 245,200 L 244,201 L 238,201 L 237,202 L 236,202 L 235,201 L 230,201 L 229,200 L 229,196 L 230,195 L 230,191 L 231,190 L 231,186 L 232,185 L 232,179 L 233,178 L 233,168 L 233,169 L 230,172 L 230,173 L 225,178 L 225,179 L 213,191 L 212,191 L 208,195 L 207,195 L 203,199 L 202,199 L 200,201 L 199,201 L 197,203 L 196,203 L 194,205 L 193,205 L 191,207 L 189,207 L 184,202 L 184,200 L 185,199 L 185,198 L 186,197 L 186,196 L 187,195 L 187,194 L 188,193 L 188,192 L 179,201 L 178,201 L 173,206 L 172,206 L 169,209 L 168,209 L 166,211 L 165,211 L 162,214 L 161,214 L 159,216 L 158,216 L 157,217 L 156,217 L 154,219 L 153,219 L 151,221 L 150,221 L 149,222 L 148,222 L 146,224 L 145,224 L 144,225 L 143,225 L 142,226 L 141,226 L 140,227 L 139,227 L 138,228 L 137,228 L 136,229 L 135,229 L 133,231 L 132,231 L 131,232 L 129,232 L 128,233 L 127,233 L 126,234 L 125,234 L 124,235 L 123,235 L 122,236 L 121,236 L 120,237 L 119,237 L 118,238 L 118,258 L 119,259 L 119,267 L 120,268 L 120,274 L 121,275 L 121,279 L 122,280 L 122,283 L 123,284 L 123,287 L 124,288 L 124,291 L 125,292 L 125,294 L 126,295 L 126,297 L 127,298 L 127,300 L 128,301 L 128,303 L 129,304 L 129,306 L 130,307 L 130,308 L 131,309 L 131,310 L 132,311 L 132,313 L 133,314 L 133,315 L 134,316 L 134,317 L 135,318 L 135,319 L 136,320 L 136,321 L 137,322 L 137,323 L 138,324 L 138,325 L 140,327 L 140,328 L 141,329 L 141,330 L 143,332 L 143,333 L 145,335 L 145,336 L 147,338 L 147,339 L 150,342 L 150,343 L 155,348 L 155,349 L 170,364 L 171,364 L 175,368 L 176,368 L 179,371 L 180,371 L 182,373 L 183,373 L 185,375 L 186,375 L 187,376 L 188,376 L 189,377 L 190,377 L 191,378 L 192,378 L 194,380 L 195,380 L 196,381 L 198,381 L 199,382 L 200,382 L 201,383 L 202,383 L 203,384 L 205,384 L 206,385 L 207,385 L 208,386 L 211,386 L 212,387 L 214,387 L 215,388 L 218,388 L 219,389 L 222,389 L 223,390 L 227,390 L 228,391 L 236,391 L 237,392 L 252,392 L 253,391 L 261,391 L 262,390 L 266,390 L 267,389 L 271,389 L 272,388 L 275,388 L 276,387 L 278,387 L 279,386 L 281,386 L 282,385 L 284,385 L 285,384 L 286,384 L 287,383 L 289,383 L 290,382 L 291,382 L 292,381 L 293,381 L 294,380 L 295,380 L 296,379 L 297,379 L 298,378 L 299,378 L 301,376 L 302,376 L 303,375 L 304,375 L 306,373 L 307,373 L 309,371 L 310,371 L 312,369 L 313,369 L 316,366 L 317,366 L 323,360 L 324,360 L 332,352 L 332,351 L 337,346 L 337,345 L 341,341 L 341,340 L 343,338 L 343,337 L 345,335 L 345,334 L 347,332 L 347,331 L 349,329 L 349,328 L 350,327 L 350,326 L 351,325 L 351,324 L 352,323 L 352,322 L 354,320 L 354,319 L 355,318 L 355,317 L 356,316 L 356,314 L 357,313 L 357,312 L 358,311 L 358,310 L 359,309 L 359,307 L 360,306 L 360,305 L 361,304 L 361,302 L 362,301 L 362,299 L 363,298 L 363,297 L 364,296 L 364,293 L 365,292 L 365,290 L 366,289 L 366,286 L 367,285 L 367,282 L 368,281 L 368,277 L 369,276 L 369,271 L 370,270 L 370,263 L 371,262 L 371,231 L 367,227 L 367,226 L 364,223 L 364,222 L 361,219 L 361,218 L 358,215 L 358,214 L 356,212 L 356,211 L 354,209 L 354,208 L 352,206 L 352,205 L 350,203 L 350,202 L 349,201 L 349,200 L 347,198 L 347,197 L 346,196 L 346,195 L 345,194 L 345,193 L 344,192 L 344,191 L 343,190 L 343,189 L 342,188 L 342,187 L 341,186 L 341,185 L 340,184 L 340,183 L 339,182 L 339,181 L 338,180 L 338,178 L 336,180 L 336,181 L 334,183 L 334,184 L 333,185 L 333,186 L 332,187 L 332,188 L 331,189 L 331,190 L 330,191 L 330,192 L 329,193 L 329,195 L 328,196 L 328,197 L 327,198 L 327,199 L 325,201 L 320,196 L 319,196 L 310,187 L 309,187 L 305,183 L 305,182 L 299,176 L 299,175 L 296,172 L 296,171 L 294,169 L 294,168 L 292,166 L 292,165 L 291,164 L 291,163 Z" fill="#f0d8d8" stroke="none" /><path d="M 254,339 L 253,340 L 250,340 L 249,341 L 248,341 L 247,342 L 246,342 L 245,343 L 243,343 L 242,344 L 240,344 L 239,345 L 235,345 L 234,346 L 226,346 L 225,345 L 221,345 L 220,344 L 218,344 L 217,343 L 215,343 L 214,342 L 210,342 L 209,341 L 203,341 L 202,342 L 199,342 L 198,343 L 197,343 L 193,347 L 193,348 L 194,348 L 195,349 L 196,349 L 197,350 L 203,350 L 205,348 L 207,348 L 208,347 L 212,347 L 213,348 L 216,348 L 217,349 L 218,349 L 219,350 L 220,350 L 224,354 L 225,354 L 227,356 L 228,356 L 229,357 L 230,357 L 231,358 L 232,358 L 233,359 L 234,359 L 235,360 L 237,360 L 238,361 L 241,361 L 242,362 L 251,362 L 252,361 L 253,361 L 254,360 L 255,360 L 256,359 L 257,359 L 258,358 L 259,358 L 260,357 L 262,357 L 263,356 L 264,356 L 265,355 L 268,355 L 269,354 L 275,354 L 276,355 L 278,355 L 279,356 L 281,356 L 282,357 L 290,357 L 291,356 L 293,356 L 294,355 L 295,355 L 298,352 L 298,351 L 299,350 L 299,348 L 300,347 L 300,343 L 299,343 L 298,344 L 297,344 L 296,345 L 294,345 L 293,346 L 289,346 L 288,347 L 284,347 L 283,346 L 280,346 L 279,345 L 277,345 L 275,343 L 274,343 L 273,342 L 272,342 L 271,341 L 270,341 L 269,340 L 266,340 L 265,339 Z" fill="#f0f0f0" stroke="none" /></svg>