<?xml version="1.0" encoding="utf-8" ?>
<svg baseProfile="full" height="500" version="1.1" viewBox="0 0 500 500" width="500" xmlns="http://www.w3.org/2000/svg" xmlns:ev="http://www.w3.org/2001/xml-events" xmlns:xlink="http://www.w3.org/1999/xlink"><defs /><path d="M 327,37 L 327,38 L 325,40 L 325,41 L 324,42 L 324,43 L 322,45 L 322,46 L 321,47 L 321,48 L 319,50 L 319,51 L 318,52 L 318,53 L 316,55 L 316,56 L 313,59 L 309,55 L 308,55 L 304,51 L 303,51 L 298,46 L 297,46 L 296,45 L 296,47 L 295,48 L 295,50 L 294,51 L 294,53 L 293,54 L 293,56 L 292,57 L 292,59 L 290,61 L 282,61 L 281,62 L 276,62 L 275,63 L 271,63 L 270,64 L 266,64 L 265,65 L 262,65 L 261,66 L 259,66 L 258,67 L 255,67 L 254,68 L 252,68 L 251,69 L 250,69 L 249,70 L 247,70 L 246,71 L 244,71 L 243,72 L 242,72 L 241,73 L 240,73 L 239,74 L 238,74 L 237,75 L 236,75 L 235,76 L 234,76 L 233,77 L 232,77 L 231,78 L 230,78 L 229,79 L 228,79 L 226,81 L 225,81 L 224,82 L 223,82 L 221,84 L 220,84 L 217,87 L 216,87 L 211,92 L 210,92 L 200,102 L 200,103 L 196,107 L 196,108 L 193,111 L 193,112 L 191,114 L 191,115 L 189,117 L 189,118 L 187,120 L 187,121 L 186,122 L 186,123 L 185,124 L 185,125 L 184,126 L 184,127 L 183,128 L 183,129 L 182,130 L 182,131 L 181,132 L 181,133 L 180,134 L 180,135 L 179,136 L 179,138 L 178,139 L 178,140 L 177,141 L 177,143 L 176,144 L 176,146 L 175,147 L 175,149 L 174,150 L 174,152 L 173,153 L 173,155 L 172,156 L 172,159 L 171,160 L 171,163 L 170,164 L 170,167 L 169,168 L 169,172 L 168,173 L 168,178 L 167,179 L 167,184 L 166,185 L 166,192 L 165,193 L 165,198 L 164,199 L 164,206 L 163,207 L 163,209 L 162,210 L 160,210 L 159,211 L 158,211 L 157,212 L 156,212 L 155,213 L 154,213 L 148,219 L 148,220 L 147,221 L 147,222 L 146,223 L 146,224 L 145,225 L 145,226 L 144,227 L 144,229 L 143,230 L 143,235 L 142,236 L 142,241 L 143,242 L 143,247 L 144,248 L 144,250 L 145,251 L 145,252 L 146,253 L 146,254 L 147,255 L 147,256 L 149,258 L 149,259 L 153,263 L 154,263 L 156,265 L 157,265 L 158,266 L 160,266 L 161,267 L 165,267 L 167,269 L 167,272 L 168,273 L 168,276 L 169,277 L 169,280 L 170,281 L 170,283 L 171,284 L 171,286 L 172,287 L 172,289 L 173,290 L 173,292 L 174,293 L 174,295 L 175,296 L 175,297 L 176,298 L 176,300 L 177,301 L 177,302 L 178,303 L 178,304 L 179,305 L 179,306 L 180,307 L 180,308 L 181,309 L 181,311 L 182,312 L 182,313 L 184,315 L 184,316 L 185,317 L 185,318 L 186,319 L 186,320 L 187,321 L 187,322 L 189,324 L 189,325 L 191,327 L 191,328 L 193,330 L 193,331 L 195,333 L 195,334 L 198,337 L 198,338 L 199,339 L 197,341 L 196,340 L 195,341 L 194,340 L 193,341 L 192,341 L 191,340 L 190,341 L 189,340 L 188,341 L 187,341 L 186,340 L 185,341 L 184,340 L 183,341 L 182,341 L 181,340 L 180,341 L 179,340 L 178,341 L 177,341 L 176,340 L 175,341 L 174,340 L 173,341 L 171,339 L 171,338 L 170,337 L 170,334 L 169,333 L 169,331 L 168,330 L 168,328 L 167,327 L 167,325 L 166,324 L 166,323 L 165,322 L 165,320 L 164,319 L 164,318 L 163,317 L 163,316 L 162,315 L 162,314 L 160,312 L 160,311 L 158,309 L 158,308 L 155,305 L 154,305 L 152,303 L 129,303 L 128,304 L 117,304 L 116,305 L 107,305 L 106,306 L 97,306 L 96,307 L 88,307 L 87,308 L 79,308 L 78,309 L 75,309 L 74,310 L 73,310 L 71,312 L 70,312 L 60,322 L 60,323 L 58,325 L 58,326 L 57,327 L 57,328 L 56,329 L 56,330 L 55,331 L 55,332 L 54,333 L 54,335 L 53,336 L 53,338 L 52,339 L 52,340 L 51,341 L 50,340 L 49,341 L 48,341 L 47,340 L 46,341 L 45,340 L 44,341 L 43,341 L 42,340 L 41,341 L 40,340 L 39,341 L 38,341 L 37,340 L 36,341 L 35,340 L 34,341 L 34,353 L 37,353 L 38,354 L 39,353 L 41,353 L 42,354 L 43,353 L 45,353 L 46,354 L 47,353 L 50,353 L 51,354 L 51,356 L 52,357 L 52,370 L 53,371 L 53,378 L 54,379 L 54,385 L 55,386 L 55,391 L 56,392 L 56,396 L 57,397 L 57,400 L 58,401 L 58,403 L 59,404 L 59,406 L 60,407 L 60,408 L 61,409 L 61,411 L 63,413 L 63,414 L 66,417 L 67,417 L 69,419 L 70,419 L 71,420 L 72,420 L 73,421 L 75,421 L 76,422 L 78,422 L 79,423 L 81,423 L 82,424 L 85,424 L 86,425 L 89,425 L 90,426 L 93,426 L 94,427 L 99,427 L 100,428 L 107,428 L 108,429 L 122,429 L 123,428 L 126,428 L 127,427 L 128,427 L 133,422 L 133,421 L 135,419 L 135,418 L 137,416 L 137,415 L 138,414 L 138,413 L 140,411 L 140,410 L 141,409 L 141,408 L 142,407 L 142,406 L 143,405 L 143,404 L 144,403 L 144,402 L 145,401 L 145,400 L 146,399 L 146,398 L 147,397 L 147,396 L 148,395 L 148,394 L 149,393 L 149,392 L 150,391 L 150,389 L 151,388 L 151,387 L 152,386 L 152,385 L 153,384 L 154,384 L 155,383 L 156,383 L 157,382 L 159,382 L 160,381 L 161,381 L 162,380 L 163,380 L 164,379 L 165,379 L 166,378 L 167,378 L 169,376 L 170,376 L 171,375 L 172,375 L 174,373 L 175,373 L 178,370 L 179,370 L 187,362 L 187,361 L 188,360 L 188,359 L 190,357 L 190,356 L 191,355 L 191,354 L 192,353 L 195,353 L 196,354 L 197,353 L 199,353 L 200,354 L 201,353 L 203,353 L 204,354 L 205,353 L 207,353 L 208,354 L 209,353 L 211,353 L 212,354 L 213,354 L 217,358 L 218,358 L 224,364 L 225,364 L 228,367 L 229,367 L 232,370 L 233,370 L 234,371 L 235,371 L 237,373 L 238,373 L 240,375 L 241,375 L 242,376 L 243,376 L 244,377 L 245,377 L 246,378 L 247,378 L 248,379 L 249,379 L 250,380 L 251,380 L 252,381 L 253,381 L 254,382 L 255,382 L 256,383 L 258,383 L 259,384 L 261,384 L 262,385 L 263,385 L 264,386 L 266,386 L 267,387 L 269,387 L 270,388 L 273,388 L 274,389 L 277,389 L 278,390 L 282,390 L 283,391 L 289,391 L 290,392 L 291,392 L 292,393 L 293,392 L 304,392 L 305,393 L 306,393 L 307,392 L 321,392 L 322,391 L 328,391 L 329,390 L 333,390 L 334,389 L 337,389 L 338,388 L 341,388 L 342,387 L 344,387 L 345,386 L 347,386 L 348,385 L 349,386 L 349,385 L 350,384 L 352,384 L 353,383 L 355,383 L 356,382 L 357,382 L 358,381 L 359,381 L 360,380 L 361,380 L 362,379 L 363,379 L 364,378 L 365,378 L 366,377 L 367,377 L 368,376 L 369,376 L 371,374 L 372,374 L 373,373 L 374,373 L 376,371 L 377,371 L 379,369 L 380,369 L 382,367 L 383,367 L 386,364 L 387,364 L 391,360 L 392,360 L 408,344 L 408,343 L 412,339 L 412,338 L 415,335 L 415,334 L 417,332 L 417,331 L 420,328 L 420,327 L 421,326 L 421,325 L 423,323 L 423,322 L 424,321 L 424,320 L 425,319 L 425,318 L 427,316 L 427,315 L 428,314 L 428,313 L 429,312 L 429,311 L 430,310 L 430,309 L 431,308 L 431,307 L 432,306 L 432,305 L 433,304 L 433,302 L 434,301 L 434,300 L 435,299 L 435,298 L 436,297 L 436,295 L 437,294 L 437,293 L 438,292 L 438,290 L 439,289 L 439,287 L 440,286 L 440,284 L 441,283 L 441,280 L 442,279 L 442,277 L 443,276 L 443,273 L 444,272 L 444,269 L 445,268 L 445,264 L 446,263 L 446,258 L 447,257 L 447,250 L 448,249 L 448,247 L 449,246 L 451,246 L 452,245 L 453,245 L 455,243 L 456,243 L 462,237 L 462,236 L 464,234 L 464,232 L 465,231 L 465,230 L 466,229 L 466,226 L 467,225 L 467,214 L 466,213 L 466,210 L 465,209 L 465,207 L 464,206 L 464,205 L 463,204 L 463,203 L 462,202 L 462,201 L 461,200 L 461,199 L 455,193 L 454,193 L 452,191 L 450,191 L 448,189 L 448,185 L 447,184 L 447,177 L 446,176 L 446,171 L 445,170 L 445,165 L 444,164 L 444,161 L 443,160 L 443,157 L 442,156 L 442,153 L 441,152 L 441,150 L 440,149 L 440,147 L 439,146 L 439,144 L 438,143 L 438,142 L 437,141 L 437,139 L 436,138 L 436,137 L 435,136 L 435,135 L 434,134 L 434,133 L 433,132 L 433,131 L 432,130 L 432,129 L 431,128 L 431,127 L 430,126 L 430,125 L 428,123 L 428,122 L 427,121 L 427,120 L 425,118 L 425,117 L 423,115 L 423,114 L 418,109 L 418,108 L 407,97 L 406,97 L 401,92 L 400,92 L 398,90 L 397,90 L 395,88 L 394,88 L 392,86 L 391,86 L 389,84 L 388,84 L 387,83 L 386,83 L 385,82 L 384,82 L 383,81 L 382,81 L 381,80 L 380,80 L 379,79 L 378,79 L 377,78 L 376,78 L 375,77 L 374,77 L 373,76 L 371,76 L 370,75 L 369,75 L 368,74 L 366,74 L 365,73 L 363,73 L 362,72 L 360,72 L 359,71 L 357,71 L 356,70 L 353,70 L 352,69 L 350,69 L 349,68 L 345,68 L 344,67 L 341,67 L 340,66 L 336,66 L 335,65 L 332,65 L 331,64 L 331,62 L 330,61 L 330,57 L 329,56 L 329,51 L 328,50 L 328,41 L 327,40 Z" fill="#000000" stroke="none" /><path d="M 300,60 L 300,62 L 299,63 L 299,65 L 298,66 L 298,67 L 296,69 L 287,69 L 286,70 L 280,70 L 279,71 L 274,71 L 273,72 L 270,72 L 269,73 L 266,73 L 265,74 L 262,74 L 261,75 L 258,75 L 257,76 L 255,76 L 254,77 L 252,77 L 251,78 L 250,78 L 249,79 L 247,79 L 246,80 L 245,80 L 244,81 L 243,81 L 242,82 L 241,82 L 240,83 L 239,83 L 238,84 L 237,84 L 236,85 L 235,85 L 234,86 L 233,86 L 232,87 L 231,87 L 229,89 L 228,89 L 226,91 L 225,91 L 222,94 L 221,94 L 216,99 L 215,99 L 207,107 L 207,108 L 203,112 L 203,113 L 200,116 L 200,117 L 198,119 L 198,120 L 196,122 L 196,123 L 194,125 L 194,126 L 193,127 L 193,128 L 192,129 L 192,130 L 191,131 L 191,132 L 190,133 L 190,134 L 189,135 L 189,136 L 188,137 L 188,138 L 187,139 L 187,141 L 186,142 L 186,143 L 185,144 L 185,146 L 184,147 L 184,149 L 183,150 L 183,152 L 182,153 L 182,155 L 181,156 L 181,158 L 180,159 L 180,162 L 179,163 L 179,166 L 178,167 L 178,171 L 177,172 L 177,176 L 176,177 L 176,182 L 175,183 L 175,189 L 174,190 L 174,203 L 173,204 L 173,209 L 174,208 L 175,208 L 176,207 L 177,207 L 178,206 L 179,206 L 180,205 L 181,205 L 182,204 L 183,204 L 184,203 L 185,203 L 186,202 L 187,202 L 188,201 L 189,201 L 190,200 L 191,200 L 192,199 L 193,199 L 195,197 L 196,197 L 197,196 L 198,196 L 200,194 L 201,194 L 202,193 L 203,193 L 205,191 L 206,191 L 207,190 L 208,190 L 210,188 L 211,188 L 213,186 L 214,186 L 217,183 L 218,183 L 220,181 L 221,181 L 225,177 L 226,177 L 232,171 L 233,171 L 242,162 L 242,161 L 247,156 L 247,155 L 250,152 L 250,151 L 252,149 L 252,148 L 254,146 L 254,145 L 255,144 L 257,144 L 258,145 L 259,145 L 260,146 L 261,146 L 263,148 L 263,150 L 262,151 L 262,153 L 261,154 L 261,156 L 260,157 L 260,160 L 259,161 L 259,163 L 258,164 L 258,166 L 257,167 L 257,169 L 256,170 L 256,171 L 258,169 L 259,169 L 264,164 L 265,164 L 278,151 L 278,150 L 282,146 L 282,145 L 285,142 L 285,141 L 287,139 L 287,138 L 289,136 L 289,135 L 290,134 L 290,133 L 292,131 L 292,130 L 293,129 L 293,128 L 294,127 L 294,126 L 295,125 L 295,124 L 296,123 L 296,122 L 298,120 L 299,121 L 299,122 L 300,123 L 300,126 L 301,127 L 301,129 L 302,130 L 302,132 L 303,133 L 303,155 L 302,156 L 302,163 L 301,164 L 301,169 L 300,170 L 300,172 L 301,172 L 302,171 L 305,171 L 306,170 L 308,170 L 309,169 L 310,169 L 311,168 L 312,168 L 313,167 L 314,167 L 316,165 L 317,165 L 319,163 L 320,163 L 323,160 L 324,160 L 336,148 L 336,147 L 340,143 L 340,142 L 344,138 L 344,137 L 346,135 L 346,134 L 348,132 L 348,131 L 351,128 L 351,127 L 353,125 L 353,124 L 355,122 L 357,124 L 357,125 L 358,126 L 358,127 L 359,128 L 359,129 L 360,130 L 360,132 L 361,133 L 361,134 L 363,136 L 363,137 L 364,138 L 364,139 L 365,140 L 365,141 L 367,143 L 367,144 L 370,147 L 370,148 L 374,152 L 374,153 L 385,164 L 386,164 L 388,166 L 388,165 L 389,164 L 389,163 L 390,162 L 390,161 L 391,160 L 391,159 L 393,157 L 393,156 L 395,154 L 395,153 L 405,143 L 406,143 L 408,141 L 409,141 L 410,142 L 410,144 L 411,145 L 411,148 L 412,149 L 412,151 L 413,152 L 413,154 L 414,155 L 414,156 L 415,157 L 415,158 L 416,159 L 416,161 L 417,162 L 417,163 L 418,164 L 418,165 L 419,166 L 419,167 L 421,169 L 421,170 L 422,171 L 422,172 L 423,173 L 423,174 L 425,176 L 425,177 L 426,178 L 426,179 L 428,181 L 428,182 L 430,184 L 430,185 L 431,186 L 431,187 L 434,190 L 434,191 L 436,193 L 436,194 L 439,197 L 439,198 L 440,199 L 440,192 L 439,191 L 439,181 L 438,180 L 438,174 L 437,173 L 437,169 L 436,168 L 436,164 L 435,163 L 435,160 L 434,159 L 434,156 L 433,155 L 433,153 L 432,152 L 432,150 L 431,149 L 431,147 L 430,146 L 430,145 L 429,144 L 429,142 L 428,141 L 428,140 L 427,139 L 427,138 L 426,137 L 426,136 L 425,135 L 425,134 L 424,133 L 424,132 L 423,131 L 423,130 L 421,128 L 421,127 L 420,126 L 420,125 L 418,123 L 418,122 L 415,119 L 415,118 L 411,114 L 411,113 L 401,103 L 400,103 L 396,99 L 395,99 L 393,97 L 392,97 L 389,94 L 388,94 L 387,93 L 386,93 L 384,91 L 383,91 L 382,90 L 381,90 L 380,89 L 379,89 L 378,88 L 377,88 L 376,87 L 375,87 L 374,86 L 373,86 L 372,85 L 371,85 L 370,84 L 368,84 L 367,83 L 366,83 L 365,82 L 363,82 L 362,81 L 360,81 L 359,80 L 357,80 L 356,79 L 354,79 L 353,78 L 350,78 L 349,77 L 346,77 L 345,76 L 342,76 L 341,75 L 337,75 L 336,74 L 332,74 L 331,73 L 326,73 L 324,71 L 324,69 L 323,68 L 323,65 L 322,64 L 322,62 L 321,63 L 321,64 L 320,65 L 320,66 L 318,68 L 318,69 L 317,70 L 317,71 L 316,72 L 315,71 L 314,71 L 310,67 L 309,67 L 304,62 L 303,62 L 301,60 Z" fill="#904818" stroke="none" /><path d="M 284,354 L 286,354 L 287,355 L 289,355 L 290,356 L 291,356 L 293,358 L 295,358 L 297,356 L 298,357 L 300,357 L 301,356 L 302,357 L 304,357 L 305,356 L 306,357 L 308,357 L 309,356 L 319,356 L 320,357 L 321,357 L 322,356 L 323,357 L 325,355 L 326,355 L 327,354 L 329,354 Z" fill="#f0a8c0" stroke="none" /><path d="M 290,303 L 290,304 L 289,305 L 288,304 L 286,306 L 285,305 L 285,306 L 284,307 L 283,306 L 282,307 L 281,307 L 280,308 L 279,307 L 278,307 L 276,309 L 274,309 L 273,310 L 271,310 L 270,311 L 266,311 L 266,312 L 261,317 L 260,317 L 258,319 L 253,319 L 252,318 L 251,318 L 251,319 L 250,320 L 250,322 L 249,323 L 249,326 L 248,327 L 248,335 L 249,336 L 249,337 L 250,338 L 249,339 L 266,339 L 267,338 L 268,339 L 272,339 L 273,338 L 272,337 L 273,336 L 272,335 L 273,334 L 273,332 L 272,331 L 273,330 L 273,328 L 272,327 L 273,326 L 272,325 L 275,322 L 276,322 L 276,321 L 274,319 L 275,318 L 275,310 L 276,309 L 278,309 L 279,308 L 282,308 L 283,309 L 285,309 L 286,310 L 287,310 L 288,309 L 289,310 L 291,310 L 292,309 L 293,310 L 296,310 L 298,308 L 300,308 L 301,307 L 302,307 L 303,306 L 304,306 L 305,305 L 306,305 L 305,305 L 304,306 L 296,306 L 295,307 L 291,303 Z" fill="#f0a8c0" stroke="none" /><path d="M 323,302 L 322,303 L 323,303 L 324,304 L 326,304 L 328,306 L 329,306 L 332,309 L 332,310 L 333,311 L 333,313 L 334,313 L 335,314 L 334,315 L 334,316 L 333,317 L 333,319 L 332,320 L 332,321 L 331,322 L 331,323 L 332,323 L 333,324 L 332,325 L 332,327 L 333,328 L 332,329 L 332,331 L 333,332 L 332,333 L 333,334 L 332,335 L 332,337 L 333,338 L 332,339 L 340,339 L 341,340 L 341,349 L 344,349 L 345,348 L 348,348 L 347,347 L 348,346 L 349,346 L 349,345 L 350,344 L 352,344 L 355,341 L 356,341 L 357,340 L 360,340 L 361,341 L 362,341 L 362,340 L 361,339 L 362,338 L 363,338 L 363,334 L 364,333 L 364,330 L 363,329 L 363,324 L 362,324 L 361,323 L 362,322 L 362,321 L 361,320 L 361,319 L 359,319 L 357,321 L 356,320 L 355,320 L 351,316 L 350,316 L 347,313 L 347,312 L 344,312 L 343,311 L 342,311 L 341,310 L 339,310 L 338,309 L 336,309 L 335,308 L 334,308 L 333,307 L 334,306 L 332,306 L 331,305 L 330,305 L 329,304 L 327,304 L 326,303 L 325,303 L 324,302 Z" fill="#f0a8c0" stroke="none" /><path d="M 62,378 L 62,383 L 63,384 L 63,389 L 64,390 L 64,394 L 65,395 L 65,398 L 66,399 L 66,401 L 67,402 L 67,404 L 68,405 L 68,406 L 69,407 L 69,408 L 72,411 L 73,411 L 74,412 L 75,412 L 76,413 L 77,413 L 78,414 L 80,414 L 81,415 L 83,415 L 84,416 L 86,416 L 87,417 L 91,417 L 92,418 L 95,418 L 96,419 L 101,419 L 102,420 L 110,420 L 111,421 L 121,421 L 122,420 L 123,420 L 127,416 L 127,415 L 129,413 L 129,412 L 131,410 L 131,409 L 132,408 L 132,407 L 133,406 L 133,405 L 134,404 L 134,403 L 135,402 L 135,401 L 137,399 L 137,397 L 138,396 L 138,395 L 137,396 L 136,396 L 135,397 L 133,397 L 132,398 L 127,398 L 126,399 L 119,399 L 118,398 L 112,398 L 111,397 L 107,397 L 106,396 L 103,396 L 102,395 L 99,395 L 98,394 L 96,394 L 95,393 L 92,393 L 91,392 L 89,392 L 88,391 L 86,391 L 85,390 L 83,390 L 82,389 L 80,389 L 79,388 L 76,388 L 75,387 L 73,387 L 72,386 L 71,386 L 70,385 L 69,385 Z" fill="#f0d8d8" stroke="none" /><path d="M 172,354 L 171,355 L 171,356 L 170,357 L 170,358 L 169,359 L 169,360 L 167,362 L 167,363 L 166,364 L 166,365 L 165,366 L 165,367 L 163,369 L 163,370 L 162,371 L 163,370 L 164,370 L 165,369 L 166,369 L 168,367 L 169,367 L 172,364 L 173,364 L 180,357 L 180,356 L 182,354 Z" fill="#f0d8d8" stroke="none" /><path d="M 132,311 L 131,312 L 120,312 L 119,313 L 109,313 L 108,314 L 100,314 L 99,315 L 90,315 L 89,316 L 81,316 L 80,317 L 78,317 L 77,318 L 76,318 L 73,321 L 72,321 L 70,323 L 70,324 L 66,328 L 66,329 L 64,331 L 64,332 L 63,333 L 63,334 L 62,335 L 62,337 L 61,338 L 61,340 L 60,341 L 60,355 L 61,356 L 61,359 L 62,360 L 62,362 L 63,363 L 63,364 L 64,365 L 64,366 L 66,368 L 66,369 L 69,372 L 69,373 L 71,375 L 72,375 L 74,377 L 75,377 L 76,378 L 77,378 L 78,379 L 81,379 L 82,380 L 84,380 L 85,381 L 87,381 L 88,382 L 91,382 L 92,383 L 94,383 L 95,384 L 97,384 L 98,385 L 100,385 L 101,386 L 104,386 L 105,387 L 108,387 L 109,388 L 113,388 L 114,389 L 130,389 L 131,388 L 133,388 L 134,387 L 135,387 L 137,385 L 138,385 L 140,383 L 141,383 L 148,376 L 148,375 L 151,372 L 151,371 L 153,369 L 153,368 L 154,367 L 154,366 L 156,364 L 156,363 L 157,362 L 157,361 L 159,359 L 159,358 L 160,357 L 160,356 L 162,354 L 162,348 L 163,347 L 163,340 L 162,339 L 162,336 L 161,335 L 161,333 L 160,332 L 160,330 L 159,329 L 159,327 L 158,326 L 158,325 L 157,324 L 157,323 L 156,322 L 156,321 L 155,320 L 155,319 L 154,318 L 154,317 L 152,315 L 152,314 L 149,311 Z" fill="#f0d8d8" stroke="none" /><path d="M 160,220 L 159,221 L 158,221 L 158,222 L 155,225 L 155,226 L 153,228 L 153,230 L 152,231 L 152,233 L 151,234 L 151,243 L 152,244 L 152,246 L 153,247 L 153,249 L 155,251 L 155,252 L 160,257 L 161,257 L 161,249 L 160,248 L 160,232 L 159,231 L 159,228 L 160,227 Z" fill="#f0d8d8" stroke="none" /><path d="M 449,200 L 449,215 L 450,216 L 450,236 L 451,235 L 452,235 L 455,232 L 455,231 L 456,230 L 456,229 L 457,228 L 457,226 L 458,225 L 458,214 L 457,213 L 457,210 L 456,209 L 456,208 L 455,207 L 455,206 L 452,203 L 452,202 L 451,202 Z" fill="#f0d8d8" stroke="none" /><path d="M 354,140 L 351,143 L 351,144 L 348,147 L 348,148 L 344,152 L 344,153 L 329,168 L 328,168 L 325,171 L 324,171 L 322,173 L 321,173 L 319,175 L 318,175 L 317,176 L 316,176 L 315,177 L 314,177 L 313,178 L 312,178 L 311,179 L 309,179 L 308,180 L 305,180 L 304,181 L 300,181 L 299,182 L 290,182 L 289,181 L 289,176 L 290,175 L 290,171 L 291,170 L 291,166 L 292,165 L 292,159 L 293,158 L 293,150 L 294,149 L 294,145 L 293,146 L 293,147 L 290,150 L 290,151 L 286,155 L 286,156 L 270,172 L 269,172 L 265,176 L 264,176 L 261,179 L 260,179 L 257,182 L 256,182 L 254,184 L 253,184 L 251,186 L 250,186 L 248,188 L 247,188 L 241,182 L 241,181 L 242,180 L 242,179 L 243,178 L 243,177 L 244,176 L 244,174 L 245,173 L 245,172 L 246,171 L 238,179 L 237,179 L 231,185 L 230,185 L 226,189 L 225,189 L 223,191 L 222,191 L 219,194 L 218,194 L 216,196 L 215,196 L 213,198 L 212,198 L 211,199 L 210,199 L 208,201 L 207,201 L 205,203 L 204,203 L 203,204 L 202,204 L 201,205 L 200,205 L 198,207 L 197,207 L 196,208 L 195,208 L 194,209 L 193,209 L 192,210 L 191,210 L 190,211 L 189,211 L 188,212 L 187,212 L 186,213 L 185,213 L 184,214 L 183,214 L 182,215 L 181,215 L 180,216 L 179,216 L 178,217 L 177,217 L 176,218 L 175,218 L 174,219 L 173,219 L 172,220 L 171,220 L 171,244 L 172,245 L 172,252 L 173,253 L 173,259 L 174,260 L 174,264 L 175,265 L 175,268 L 176,269 L 176,273 L 177,274 L 177,276 L 178,277 L 178,280 L 179,281 L 179,283 L 180,284 L 180,286 L 181,287 L 181,289 L 182,290 L 182,291 L 183,292 L 183,294 L 184,295 L 184,296 L 185,297 L 185,298 L 186,299 L 186,301 L 187,302 L 187,303 L 188,304 L 188,305 L 189,306 L 189,307 L 190,308 L 190,309 L 191,310 L 191,311 L 192,312 L 192,313 L 194,315 L 194,316 L 195,317 L 195,318 L 197,320 L 197,321 L 198,322 L 198,323 L 200,325 L 200,326 L 203,329 L 203,330 L 206,333 L 206,334 L 210,338 L 210,339 L 211,339 L 212,340 L 213,340 L 214,339 L 215,340 L 217,340 L 218,339 L 219,340 L 222,340 L 223,339 L 224,340 L 228,340 L 229,339 L 230,340 L 231,340 L 232,339 L 233,340 L 234,340 L 235,339 L 236,340 L 238,340 L 239,339 L 240,340 L 240,337 L 239,336 L 239,326 L 240,325 L 240,321 L 241,320 L 241,319 L 242,318 L 242,316 L 243,315 L 243,314 L 244,313 L 244,312 L 246,310 L 246,309 L 250,305 L 250,304 L 252,302 L 253,302 L 259,296 L 260,296 L 261,295 L 262,295 L 264,293 L 265,293 L 266,292 L 267,292 L 268,291 L 269,291 L 270,290 L 271,290 L 272,289 L 273,289 L 274,288 L 276,288 L 277,287 L 279,287 L 280,286 L 283,286 L 284,285 L 287,285 L 288,284 L 292,284 L 293,283 L 318,283 L 319,284 L 325,284 L 326,285 L 328,285 L 329,286 L 332,286 L 333,287 L 335,287 L 336,288 L 337,288 L 338,289 L 340,289 L 341,290 L 342,290 L 343,291 L 344,291 L 345,292 L 346,292 L 347,293 L 348,293 L 350,295 L 351,295 L 354,298 L 355,298 L 364,307 L 364,308 L 367,311 L 367,312 L 368,313 L 368,314 L 369,315 L 369,316 L 370,317 L 370,319 L 371,320 L 371,322 L 372,323 L 372,328 L 373,329 L 373,333 L 372,334 L 372,340 L 371,341 L 371,343 L 370,344 L 370,345 L 369,346 L 369,347 L 368,348 L 368,349 L 367,350 L 367,351 L 365,353 L 365,354 L 362,357 L 362,358 L 359,361 L 358,361 L 353,366 L 352,366 L 350,368 L 349,368 L 348,369 L 347,369 L 345,371 L 344,371 L 343,372 L 342,372 L 341,373 L 339,373 L 338,374 L 337,374 L 336,375 L 334,375 L 333,376 L 331,376 L 330,377 L 327,377 L 326,378 L 322,378 L 321,379 L 314,379 L 313,380 L 299,380 L 298,379 L 290,379 L 289,378 L 285,378 L 284,377 L 281,377 L 280,376 L 278,376 L 277,375 L 275,375 L 274,374 L 273,374 L 272,373 L 270,373 L 269,372 L 268,372 L 267,371 L 266,371 L 265,370 L 264,370 L 262,368 L 261,368 L 259,366 L 258,366 L 247,355 L 247,354 L 226,354 L 227,355 L 228,355 L 232,359 L 233,359 L 236,362 L 237,362 L 239,364 L 240,364 L 241,365 L 242,365 L 244,367 L 245,367 L 246,368 L 247,368 L 249,370 L 250,370 L 251,371 L 252,371 L 253,372 L 254,372 L 255,373 L 257,373 L 258,374 L 259,374 L 260,375 L 261,375 L 262,376 L 264,376 L 265,377 L 267,377 L 268,378 L 270,378 L 271,379 L 273,379 L 274,380 L 277,380 L 278,381 L 282,381 L 283,382 L 287,382 L 288,383 L 296,383 L 297,384 L 314,384 L 315,383 L 323,383 L 324,382 L 328,382 L 329,381 L 333,381 L 334,380 L 337,380 L 338,379 L 340,379 L 341,378 L 343,378 L 344,377 L 346,377 L 347,376 L 349,376 L 350,375 L 351,375 L 352,374 L 353,374 L 354,373 L 355,373 L 356,372 L 358,372 L 359,371 L 360,371 L 362,369 L 363,369 L 364,368 L 365,368 L 366,367 L 367,367 L 369,365 L 370,365 L 371,364 L 372,364 L 374,362 L 375,362 L 378,359 L 379,359 L 382,356 L 383,356 L 390,349 L 391,349 L 397,343 L 397,342 L 404,335 L 404,334 L 407,331 L 407,330 L 410,327 L 410,326 L 412,324 L 412,323 L 413,322 L 413,321 L 415,319 L 415,318 L 417,316 L 417,315 L 418,314 L 418,313 L 419,312 L 419,311 L 420,310 L 420,309 L 421,308 L 421,307 L 422,306 L 422,305 L 423,304 L 423,303 L 424,302 L 424,301 L 425,300 L 425,299 L 426,298 L 426,297 L 427,296 L 427,294 L 428,293 L 428,292 L 429,291 L 429,289 L 430,288 L 430,286 L 431,285 L 431,283 L 432,282 L 432,280 L 433,279 L 433,277 L 434,276 L 434,273 L 435,272 L 435,269 L 436,268 L 436,264 L 437,263 L 437,259 L 438,258 L 438,253 L 439,252 L 439,243 L 440,242 L 440,215 L 439,214 L 439,212 L 435,208 L 435,207 L 431,203 L 431,202 L 428,199 L 428,198 L 426,196 L 426,195 L 423,192 L 423,191 L 422,190 L 422,189 L 420,187 L 420,186 L 418,184 L 418,183 L 416,181 L 416,180 L 415,179 L 415,178 L 414,177 L 414,176 L 412,174 L 412,173 L 411,172 L 411,171 L 410,170 L 410,169 L 409,168 L 409,167 L 408,166 L 408,165 L 407,164 L 407,163 L 406,162 L 406,160 L 405,159 L 405,158 L 404,157 L 403,158 L 403,159 L 401,161 L 401,162 L 399,164 L 399,165 L 398,166 L 398,167 L 397,168 L 397,169 L 396,170 L 396,172 L 395,173 L 395,174 L 394,175 L 394,176 L 393,177 L 393,179 L 391,181 L 388,178 L 387,178 L 381,172 L 380,172 L 366,158 L 366,157 L 362,153 L 362,152 L 359,149 L 359,148 L 357,146 L 357,145 L 356,144 L 356,143 L 354,141 Z" fill="#f0d8d8" stroke="none" /><path d="M 281,330 L 281,340 L 325,340 L 325,330 Z" fill="#f0f0c0" stroke="none" /><path d="M 296,363 L 296,364 L 295,365 L 295,370 L 298,370 L 299,371 L 305,371 L 305,363 Z" fill="#f0f0f0" stroke="none" /><path d="M 311,362 L 311,371 L 312,371 L 313,370 L 320,370 L 321,369 L 322,369 L 322,368 L 321,367 L 321,363 L 320,362 Z" fill="#f0f0f0" stroke="none" /><path d="M 282,359 L 281,360 L 281,362 L 280,363 L 280,367 L 281,367 L 282,368 L 285,368 L 286,369 L 289,369 L 289,367 L 290,366 L 290,363 L 289,362 L 289,361 L 288,361 L 287,360 L 285,360 L 284,359 Z" fill="#f0f0f0" stroke="none" /><path d="M 332,358 L 331,359 L 329,359 L 327,361 L 327,362 L 326,363 L 326,364 L 327,365 L 327,368 L 328,368 L 329,367 L 331,367 L 332,366 L 334,366 L 335,365 L 336,365 L 336,362 L 335,361 L 335,358 Z" fill="#f0f0f0" stroke="none" /><path d="M 267,354 L 267,355 L 266,356 L 266,357 L 265,358 L 265,360 L 266,360 L 268,362 L 269,362 L 270,363 L 271,363 L 272,364 L 273,364 L 274,365 L 274,364 L 275,363 L 275,361 L 276,360 L 276,358 L 277,357 L 277,356 L 276,355 L 275,355 L 274,354 Z" fill="#f0f0f0" stroke="none" /><path d="M 346,353 L 345,354 L 343,354 L 342,355 L 341,355 L 341,360 L 342,361 L 342,362 L 343,361 L 344,361 L 345,360 L 346,360 L 349,357 L 350,357 L 350,355 L 349,354 L 349,353 Z" fill="#f0f0f0" stroke="none" /><path d="M 358,345 L 354,349 L 353,349 L 354,350 L 354,352 L 355,352 L 357,350 L 357,349 L 359,347 L 359,346 Z" fill="#f0f0f0" stroke="none" /><path d="M 314,310 L 313,311 L 310,311 L 309,312 L 307,312 L 305,314 L 304,314 L 303,315 L 302,315 L 301,316 L 299,316 L 298,317 L 295,317 L 294,318 L 287,318 L 286,317 L 283,317 L 282,316 L 282,317 L 283,318 L 283,320 L 285,322 L 286,322 L 287,323 L 294,323 L 295,322 L 297,322 L 298,321 L 300,321 L 301,320 L 302,320 L 304,318 L 305,318 L 306,317 L 308,317 L 309,316 L 317,316 L 318,317 L 319,317 L 322,320 L 322,321 L 323,321 L 325,319 L 325,318 L 326,317 L 326,314 L 325,313 L 325,312 L 324,312 L 323,311 L 321,311 L 320,310 Z" fill="#f0f0f0" stroke="none" /><path d="M 353,308 L 352,309 L 352,310 L 356,314 L 358,314 L 355,311 L 355,310 Z" fill="#f0f0f0" stroke="none" /><path d="M 259,308 L 254,313 L 255,314 L 256,313 L 257,313 L 260,310 L 260,308 Z" fill="#f0f0f0" stroke="none" /><path d="M 340,299 L 340,300 L 339,301 L 339,303 L 340,304 L 341,304 L 342,305 L 343,305 L 344,306 L 347,306 L 348,305 L 348,304 L 347,303 L 346,303 L 345,302 L 344,302 L 342,300 L 341,300 Z" fill="#f0f0f0" stroke="none" /><path d="M 272,299 L 271,300 L 270,300 L 269,301 L 268,301 L 266,303 L 265,303 L 264,304 L 266,306 L 267,306 L 268,305 L 270,305 L 271,304 L 273,304 L 273,299 Z" fill="#f0f0f0" stroke="none" /><path d="M 326,294 L 326,297 L 327,298 L 328,298 L 329,299 L 331,299 L 332,300 L 334,300 L 334,298 L 335,297 L 334,297 L 333,296 L 331,296 L 330,295 L 328,295 L 327,294 Z" fill="#f0f0f0" stroke="none" /><path d="M 285,294 L 284,295 L 282,295 L 281,296 L 279,296 L 279,299 L 280,300 L 280,301 L 281,301 L 282,300 L 284,300 L 285,299 L 286,299 L 288,297 L 288,294 Z" fill="#f0f0f0" stroke="none" /><path d="M 310,292 L 310,299 L 311,300 L 317,300 L 320,297 L 320,293 L 319,293 L 318,292 Z" fill="#f0f0f0" stroke="none" /><path d="M 294,292 L 293,293 L 294,294 L 294,298 L 295,299 L 295,300 L 296,300 L 297,301 L 298,301 L 299,300 L 304,300 L 304,292 Z" fill="#f0f0f0" stroke="none" /></svg>