<?xml version="1.0" encoding="UTF-8"?>
<!-- Generator: visioncortex VTracer -->
<svg id="svg" version="1.1" xmlns="http://www.w3.org/2000/svg" style="display: block;" viewBox="0 0 500 500"><path d="M0 0 C32.45118373 28.42116983 52.41202045 67.91271564 55.66430664 111.01708984 C58.408195 154.0693449 44.40827338 195.29034166 16.49291992 228.00732422 C14.30503939 230.47677547 12.07482871 232.89418648 9.80932617 235.29248047 C8.76711914 236.41396484 8.76711914 236.41396484 7.70385742 237.55810547 C-4.76265903 250.54689856 -21.45713786 262.46979413 -38.19067383 269.29248047 C-38.85067383 269.29248047 -39.51067383 269.29248047 -40.19067383 269.29248047 C-40.52067383 269.95248047 -40.85067383 270.61248047 -41.19067383 271.29248047 C-43.0222168 272.09863281 -43.0222168 272.09863281 -45.43286133 272.87841797 C-46.32529541 273.16765137 -47.21772949 273.45688477 -48.13720703 273.75488281 C-49.10360107 274.05604004 -50.06999512 274.35719727 -51.06567383 274.66748047 C-52.05204834 274.97766113 -53.03842285 275.2878418 -54.0546875 275.60742188 C-97.42270694 288.91987795 -142.82447081 285.57596297 -183.03442383 264.28466797 C-219.9990571 244.11090036 -247.68540401 209.84223729 -260.20239258 169.71044922 C-271.07207533 132.11767289 -269.1959595 92.15633059 -253.19067383 56.29248047 C-252.88790527 55.60992187 -252.58513672 54.92736328 -252.27319336 54.22412109 C-244.83212903 37.75845201 -234.33735289 23.58605627 -222.19067383 10.29248047 C-221.44301758 9.47263672 -220.69536133 8.65279297 -219.92504883 7.80810547 C-162.0170763 -52.67355473 -62.32539899 -53.40040933 0 0 Z " transform="translate(305.190673828125,177.70751953125)" style="fill: #FCFCFC;"/><path d="M0 0 C32.45118373 28.42116983 52.41202045 67.91271564 55.66430664 111.01708984 C58.408195 154.0693449 44.40827338 195.29034166 16.49291992 228.00732422 C14.30503939 230.47677547 12.07482871 232.89418648 9.80932617 235.29248047 C8.76711914 236.41396484 8.76711914 236.41396484 7.70385742 237.55810547 C-4.76265903 250.54689856 -21.45713786 262.46979413 -38.19067383 269.29248047 C-38.85067383 269.29248047 -39.51067383 269.29248047 -40.19067383 269.29248047 C-40.52067383 269.95248047 -40.85067383 270.61248047 -41.19067383 271.29248047 C-43.0222168 272.09863281 -43.0222168 272.09863281 -45.43286133 272.87841797 C-46.32529541 273.16765137 -47.21772949 273.45688477 -48.13720703 273.75488281 C-49.10360107 274.05604004 -50.06999512 274.35719727 -51.06567383 274.66748047 C-52.05204834 274.97766113 -53.03842285 275.2878418 -54.0546875 275.60742188 C-97.42270694 288.91987795 -142.82447081 285.57596297 -183.03442383 264.28466797 C-219.9990571 244.11090036 -247.68540401 209.84223729 -260.20239258 169.71044922 C-271.07207533 132.11767289 -269.1959595 92.15633059 -253.19067383 56.29248047 C-252.88790527 55.60992187 -252.58513672 54.92736328 -252.27319336 54.22412109 C-244.83212903 37.75845201 -234.33735289 23.58605627 -222.19067383 10.29248047 C-221.44301758 9.47263672 -220.69536133 8.65279297 -219.92504883 7.80810547 C-162.0170763 -52.67355473 -62.32539899 -53.40040933 0 0 Z M-207.62036133 28.78759766 C-230.83105886 53.8737452 -243.6953014 86.84418166 -243.50317383 120.91748047 C-243.50068634 121.62279907 -243.49819885 122.32811768 -243.49563599 123.05480957 C-243.29003735 160.79310714 -228.13618939 194.79949149 -201.85083008 221.77294922 C-176.1947129 247.11219524 -140.51945162 260.68013447 -104.67480469 260.59960938 C-95.06655413 260.40488011 -85.63561701 258.98836149 -76.19067383 257.29248047 C-75.1052832 257.09912109 -74.01989258 256.90576172 -72.90161133 256.70654297 C-37.63125669 249.05635337 -7.5567323 225.0726993 11.80932617 195.29248047 C12.41647461 194.37080078 13.02362305 193.44912109 13.64916992 192.49951172 C21.40166519 180.03574948 26.87151068 165.64881166 29.80932617 151.29248047 C30.07483276 150.11915161 30.07483276 150.11915161 30.34570312 148.92211914 C32.06454953 140.69661923 32.1638549 132.53237794 32.12182617 124.16748047 C32.11959045 123.07031708 32.11959045 123.07031708 32.11730957 121.95098877 C32.07752826 111.10286256 31.49745089 100.84800468 28.80932617 90.29248047 C28.39166992 88.42269531 28.39166992 88.42269531 27.96557617 86.51513672 C22.55679125 63.92413419 10.56729266 44.162774 -5.19067383 27.29248047 C-5.94993164 26.46361328 -6.70918945 25.63474609 -7.49145508 24.78076172 C-31.37299395 -0.23591429 -66.40971067 -15.0047066 -100.76879883 -15.83642578 C-141.97721451 -16.48493592 -179.13431945 -1.00210871 -207.62036133 28.78759766 Z " transform="translate(305.190673828125,177.70751953125)" style="fill: #010101;"/><path d="M0 0 C3.40530245 3.29233033 3.48945197 6.54544165 3.875 11.125 C5.61562659 26.56028958 15.33694128 36.50978646 26.8515625 46.16796875 C29.04517133 48.03851883 31.16108832 49.98161565 33.27246094 51.9440918 C39.31391096 57.55743019 45.54296527 62.86525789 52 68 C52.85207031 68.68578125 53.70414062 69.3715625 54.58203125 70.078125 C61.86843499 75.86957999 66.60692546 76.22304659 75.8125 76.25 C76.96709717 76.25394775 78.12169434 76.25789551 79.3112793 76.26196289 C88.03078541 76.20402002 96.45965068 75.41462426 105.0559082 73.97949219 C112.82643353 72.70060095 112.82643353 72.70060095 117 74 C118 77 118 77 117.08618164 79.13647461 C115.59902352 83.05710341 115.66423064 86.65608382 115.62109375 90.81640625 C115.60409927 91.66871323 115.5871048 92.5210202 115.56959534 93.39915466 C115.51664545 96.12019459 115.47633057 98.84122504 115.4375 101.5625 C115.37889677 105.12640883 115.31467091 108.69017579 115.24609375 112.25390625 C115.23017181 113.10602692 115.21424988 113.95814758 115.19784546 114.83609009 C115.06002622 121.25089961 114.68080239 127.6177841 114 134 C114.99 134.33 115.98 134.66 117 135 C116.67 136.65 116.34 138.3 116 140 C114.99066406 139.9278125 113.98132813 139.855625 112.94140625 139.78125 C92.07504821 138.39360398 71.99821928 137.98516909 51.62890625 143.08984375 C36.41861123 146.84438848 22.48169501 146.94005321 7.07470703 144.13183594 C1.4928274 143.13461723 -3.90066985 142.80652812 -9.5625 142.6875 C-16.87621389 142.47236759 -22.3824347 141.04076172 -28 136 C-30.29960521 132.55059219 -30.10445868 131.67025714 -29.8125 127.6875 C-29.67909603 122.03265398 -31.23346656 120.22586678 -35 116 C-36.19278357 111.83271239 -36.5262754 108.28645098 -34.875 104.25 C-34.58625 103.5075 -34.2975 102.765 -34 102 C-34.474375 101.2575 -34.94875 100.515 -35.4375 99.75 C-37.71999432 95.73281001 -36.85197133 92.40974047 -36 88 C-35.63648438 86.96552734 -35.63648438 86.96552734 -35.265625 85.91015625 C-35.17796875 85.27980469 -35.0903125 84.64945312 -35 84 C-35.97538716 82.97597857 -36.97764829 81.97713714 -38 81 C-38.94961956 76.50855615 -38.41302935 72.8260587 -36.375 68.75 C-32.12576116 63.82982871 -28.35155019 60.58076698 -22 59 C-18.37031634 58.76867182 -14.76007874 58.81096745 -11.125 58.875 C-10.15046875 58.88402344 -9.1759375 58.89304688 -8.171875 58.90234375 C-5.78099272 58.92578377 -3.39062739 58.95859558 -1 59 C-4.01152825 53.10242385 -7.18283427 47.59777048 -11.1875 42.3125 C-17.52953643 33.71497835 -19.13791875 26.77143547 -18 16 C-16.55763611 9.74117099 -14.04427433 4.91604208 -8.87109375 1 C-5.74002295 -0.67339066 -3.42979584 -0.65957612 0 0 Z " transform="translate(359,24)" style="fill: #F2E2DC;"/><path d="M0 0 C3.40530245 3.29233033 3.48945197 6.54544165 3.875 11.125 C5.61562659 26.56028958 15.33694128 36.50978646 26.8515625 46.16796875 C29.04517133 48.03851883 31.16108832 49.98161565 33.27246094 51.9440918 C39.31391096 57.55743019 45.54296527 62.86525789 52 68 C52.85207031 68.68578125 53.70414062 69.3715625 54.58203125 70.078125 C61.86843499 75.86957999 66.60692546 76.22304659 75.8125 76.25 C76.96709717 76.25394775 78.12169434 76.25789551 79.3112793 76.26196289 C88.03078541 76.20402002 96.45965068 75.41462426 105.0559082 73.97949219 C112.82643353 72.70060095 112.82643353 72.70060095 117 74 C118 77 118 77 117 79 C114.05032459 79.62842218 111.1675687 80.1349237 108.1875 80.5625 C107.31311279 80.69180908 106.43872559 80.82111816 105.5378418 80.9543457 C103.02697186 81.31735465 100.51451162 81.66324454 98 82 C96.98164063 82.13664062 95.96328125 82.27328125 94.9140625 82.4140625 C87.87263729 83.15415224 80.76203616 83.19676657 73.6875 83.3125 C72.12866089 83.35733521 72.12866089 83.35733521 70.53833008 83.40307617 C58.79413305 83.49117896 52.64198182 77.36052113 44 70 C43.43748535 69.52385254 42.8749707 69.04770508 42.29541016 68.55712891 C-0.88122906 31.93355674 -0.88122906 31.93355674 -2.36328125 16.125 C-2.3735606 12.72596271 -2.2705821 9.38728707 -2 6 C-5.55290509 7.19019375 -7.57630548 7.98834897 -9.3125 11.375 C-12.00649285 17.43373495 -12.04577236 24.01299287 -10.375 30.3828125 C-8.14678488 35.93345552 -4.53620294 40.47072635 -0.97265625 45.2265625 C3.07690526 50.92000541 6.9516809 56.76722517 6 64 C2.6828589 65.4216319 -0.44219804 66.39009109 -4 67 C-3.11248047 67.16435547 -3.11248047 67.16435547 -2.20703125 67.33203125 C6.7454955 69.12837838 6.7454955 69.12837838 10 72 C11.31034863 74.58064293 12.17079597 77.23246552 13 80 C14.07479061 83.29154623 15.16410314 86.35345291 16.625 89.5 C18.28585207 93.72762346 18.59109824 96.87204632 17.375 101.25 C17.189375 102.11625 17.189375 102.11625 17 103 C17.99 103.99 17.99 103.99 19 105 C19.265625 107.2421875 19.265625 107.2421875 19.25 109.875 C19.25773437 111.17050781 19.25773437 111.17050781 19.265625 112.4921875 C18.98507951 115.14086699 18.40746915 116.75403859 17 119 C14.00711009 120.99525994 12.76914404 121 9 121 C9.2475 122.03125 9.495 123.0625 9.75 124.125 C10.05763529 128.89334694 9.07245239 130.42931208 6 134 C3.75 135.375 3.75 135.375 2 136 C16.75893753 141.67651443 36.15508018 140.38599904 51 136 C53.10166366 135.44870153 55.20584438 134.90690434 57.3125 134.375 C58.21613281 134.13523438 59.11976563 133.89546875 60.05078125 133.6484375 C67.7999457 131.9446477 75.40696738 131.8078572 83.3125 131.8125 C84.44864746 131.81185547 85.58479492 131.81121094 86.75537109 131.81054688 C96.60203235 131.87142268 106.24867003 132.68415788 116 134 C116.38218767 135.65614657 116.71395102 137.32457024 117 139 C116.67 139.33 116.34 139.66 116 140 C113.48984472 139.90369454 111.00406912 139.74780808 108.5 139.5625 C89.04777404 138.34661171 70.58225213 138.34001914 51.62890625 143.08984375 C36.41861123 146.84438848 22.48169501 146.94005321 7.07470703 144.13183594 C1.4928274 143.13461723 -3.90066985 142.80652812 -9.5625 142.6875 C-16.87621389 142.47236759 -22.3824347 141.04076172 -28 136 C-30.29960521 132.55059219 -30.10445868 131.67025714 -29.8125 127.6875 C-29.67909603 122.03265398 -31.23346656 120.22586678 -35 116 C-36.19278357 111.83271239 -36.5262754 108.28645098 -34.875 104.25 C-34.58625 103.5075 -34.2975 102.765 -34 102 C-34.474375 101.2575 -34.94875 100.515 -35.4375 99.75 C-37.71999432 95.73281001 -36.85197133 92.40974047 -36 88 C-35.63648438 86.96552734 -35.63648438 86.96552734 -35.265625 85.91015625 C-35.17796875 85.27980469 -35.0903125 84.64945312 -35 84 C-35.97538716 82.97597857 -36.97764829 81.97713714 -38 81 C-38.94961956 76.50855615 -38.41302935 72.8260587 -36.375 68.75 C-32.12576116 63.82982871 -28.35155019 60.58076698 -22 59 C-18.37031634 58.76867182 -14.76007874 58.81096745 -11.125 58.875 C-10.15046875 58.88402344 -9.1759375 58.89304688 -8.171875 58.90234375 C-5.78099272 58.92578377 -3.39062739 58.95859558 -1 59 C-4.01152825 53.10242385 -7.18283427 47.59777048 -11.1875 42.3125 C-17.52953643 33.71497835 -19.13791875 26.77143547 -18 16 C-16.55763611 9.74117099 -14.04427433 4.91604208 -8.87109375 1 C-5.74002295 -0.67339066 -3.42979584 -0.65957612 0 0 Z " transform="translate(359,24)" style="fill: #070707;"/><path d="M0 0 C5.32004593 2.96656836 8.23784334 7.13199103 10.05078125 12.953125 C10.97857201 17.65166168 11.039031 22.36109443 10.4765625 27.109375 C8.4765625 29.921875 8.4765625 29.921875 5.4765625 32.109375 C4.95320313 32.61339844 4.42984375 33.11742187 3.890625 33.63671875 C-11.46209717 48.41958005 -31.32750405 54.79858237 -52.296875 54.44921875 C-70.09733022 53.66951869 -84.96096799 42.88434642 -97.5234375 31.109375 C-99.98667819 27.41451397 -99.91335438 25.47644408 -99.5234375 21.109375 C-98.3984375 19.171875 -98.3984375 19.171875 -96.5234375 18.109375 C-93.8359375 17.484375 -93.8359375 17.484375 -90.5234375 18.109375 C-88.44995183 19.60992384 -86.64685072 21.28695841 -84.78125 23.0390625 C-77.97505568 29.28003653 -67.68881222 38.22843712 -57.9375 38.06640625 C-54.54188434 36.72024794 -53.64189442 34.84048501 -51.7734375 31.734375 C-41.05505604 14.81378404 -22.92236491 -8.09024644 0 0 Z " transform="translate(244.5234375,347.890625)" style="fill: #040404;"/><path d="M0 0 C6.0834106 4.41047269 10.48178279 9.50457138 11.921875 17.01171875 C12.31404466 23.25375246 10.17736103 27.85480123 6.5 32.8125 C2.69021777 36.91150654 -1.57932882 39.48514675 -7.18359375 40.11328125 C-14.31160539 40.14361321 -18.5299437 39.28754691 -24.125 34.625 C-28.94292258 28.91956537 -31.23135459 23.8328945 -30.8828125 16.26953125 C-30.02579048 10.76884912 -27.68983599 6.58499682 -23.5 2.9375 C-16.30908448 -2.15606516 -8.45080388 -2.86723703 0 0 Z " transform="translate(266.5,266.1875)" style="fill: #030303;"/><path d="M0 0 C5.25441751 3.1625645 9.13817539 7.36349952 11.5078125 13.05859375 C12.41382002 19.56616702 12.47673347 25.45737536 8.8828125 31.12109375 C5.41399023 35.59038013 1.91907349 38.25484009 -3.4921875 40.05859375 C-11.38861962 40.77645122 -16.46870912 39.58496389 -23.1796875 35.37109375 C-28.03094485 30.5198364 -29.74342663 25.84988467 -29.9921875 18.99609375 C-29.74172441 12.57292731 -28.39977849 8.96618474 -23.7734375 4.33984375 C-17.18686942 -1.57690385 -8.52142226 -3.21890716 0 0 Z " transform="translate(151.4921875,265.94140625)" style="fill: #020202;"/><path d="M0 0 C2.6875 2.1875 2.6875 2.1875 4 5 C3.67642049 9.20653363 2.44474279 11.06237925 -0.6875 13.8125 C-10.19008136 21.79165165 -23.48512064 30.14767632 -36.25 30.25 C-37.1575 30.1675 -38.065 30.085 -39 30 C-35.11346872 18.6863278 -23.01700464 6.19441725 -12.3359375 0.81640625 C-8.19074847 -0.63233038 -4.29442833 -0.96201351 0 0 Z " transform="translate(240,358)" style="fill: #F3BEC9;"/><path d="M0 0 C0.64324219 0.16757813 1.28648437 0.33515625 1.94921875 0.5078125 C7.85565316 1.92535676 14.10289373 1.00376277 20 0 C28.02827335 -0.73615655 28.02827335 -0.73615655 31.0625 1.5625 C32.30611966 4.79591112 32.19795384 7.56880011 32 11 C28.81216596 12.59391702 25.35474716 12.20537707 21.8515625 12.23828125 C21.04262543 12.246353 20.23368835 12.25442474 19.40023804 12.26274109 C17.68709455 12.2765799 15.97392352 12.28730297 14.26074219 12.29516602 C11.64204676 12.31238789 9.02461106 12.35627479 6.40625 12.40039062 C4.74219679 12.41051689 3.07813284 12.4190332 1.4140625 12.42578125 C0.24044662 12.45204338 0.24044662 12.45204338 -0.95687866 12.47883606 C-4.54127104 12.46454964 -6.58620051 12.30911639 -9.49853516 10.13354492 C-11 8 -11 8 -11.4375 5.4375 C-11 3 -11 3 -10 1.1875 C-6.85097083 -0.68223607 -3.53428952 -0.35275059 0 0 Z " transform="translate(339,112)" style="fill: #F0E0DA;"/><path d="M0 0 C2.25569382 0.94607741 4.32242212 2.07259829 6.44921875 3.28125 C11.60070832 5.96033076 16.38341546 6.68607995 22.12890625 7.19140625 C25.63686282 7.98521214 26.92370718 8.93364691 29.01171875 11.84375 C29.26171875 14.59375 29.26171875 14.59375 29.01171875 16.84375 C0.41171875 19.77708333 0.41171875 19.77708333 -9.98828125 12.84375 C-10.67578125 10.15625 -10.67578125 10.15625 -9.98828125 6.84375 C-4.02618798 -0.31639984 -4.02618798 -0.31639984 0 0 Z " transform="translate(336.98828125,90.15625)" style="fill: #EEDFD9;"/><path d="M0 0 C1.33278992 0.00303635 1.33278992 0.00303635 2.69250488 0.00613403 C3.5987561 0.00517731 4.50500732 0.00422058 5.4387207 0.00323486 C7.35876535 0.002553 9.27881229 0.00440771 11.19885254 0.00857544 C14.14861192 0.01392361 17.09821902 0.00863066 20.04797363 0.00222778 C21.90865105 0.00288856 23.76932838 0.00416972 25.63000488 0.00613403 C26.51853149 0.0041098 27.40705811 0.00208557 28.32250977 0 C34.546305 0.02399665 34.546305 0.02399665 35.66125488 1.13894653 C35.92418544 5.17054844 35.95530332 6.69787388 33.66125488 10.13894653 C30.50891113 10.46707153 30.50891113 10.46707153 26.72375488 10.38894653 C25.47723145 10.37347778 24.23070801 10.35800903 22.94641113 10.34207153 C19.66125488 10.13894653 19.66125488 10.13894653 16.66125488 9.13894653 C11.89843316 8.81047607 8.46219259 9.06043175 3.97375488 10.70144653 C0.50355667 11.94976224 -1.83291209 12.78875031 -5.33874512 11.13894653 C-7.63895994 8.37868875 -8.41680212 6.9975736 -8.08874512 3.38894653 C-6.62694799 -0.99644486 -4.27466233 0.01648151 0 0 Z " transform="translate(337.3387451171875,129.86105346679688)" style="fill: #F0E1DB;"/><path d="M0 0 C0.3633218 4.48096886 0.3633218 4.48096886 -1.1484375 6.640625 C-3.71745949 8.52674241 -5.65275796 8.36993319 -8.8125 8.4375 C-14.17183748 8.73632367 -16.9540092 9.51595237 -21 13 C-26.875 9.125 -26.875 9.125 -28 8 C-28.3125 5.125 -28.3125 5.125 -28 2 C-20.94639031 -5.90004285 -8.47905471 -3.69995114 0 0 Z " transform="translate(363,147)" style="fill: #EEDED9;"/></svg>