<?xml version="1.0" encoding="UTF-8"?>
<!-- Generator: visioncortex VTracer -->
<svg id="svg" version="1.1" xmlns="http://www.w3.org/2000/svg" style="display: block;" viewBox="0 0 500 500"><path d="M0 0 C1.25001037 -0.00843994 2.50002075 -0.01687988 3.78791022 -0.02557558 C5.17244696 -0.01978041 6.55698251 -0.01369939 7.94151688 -0.00736332 C9.41452384 -0.01153608 10.88752759 -0.01701327 12.36052537 -0.02368313 C16.40963709 -0.03816603 20.45854576 -0.03388405 24.50766873 -0.02651632 C28.87470119 -0.02179351 33.24168915 -0.03428717 37.60870743 -0.04453373 C46.16764139 -0.06174915 54.72650203 -0.06255543 63.28544882 -0.05732083 C70.24743442 -0.05328013 77.20939834 -0.05472152 84.1713829 -0.06006908 C85.65753632 -0.06119172 85.65753632 -0.06119172 87.17371304 -0.06233703 C89.18657095 -0.06386853 91.19942885 -0.06540688 93.21228674 -0.066952 C112.10209305 -0.08068895 130.99185798 -0.07523276 149.88166335 -0.06376678 C167.13876112 -0.05385074 184.39575141 -0.06674472 201.6528326 -0.09070098 C219.38410872 -0.11512918 237.11533487 -0.12468962 254.84662747 -0.11804825 C264.79634678 -0.11456202 274.74598361 -0.11674767 284.69569016 -0.13429928 C293.17337736 -0.14906856 301.65092415 -0.14959613 310.12860873 -0.13222837 C314.44870587 -0.12375143 318.76855271 -0.12148672 323.0886364 -0.13687992 C362.89538846 -0.26865644 362.89538846 -0.26865644 378.20061111 8.13031673 C379.17792191 8.64138973 379.17792191 8.64138973 380.17497635 9.16278744 C386.12964174 12.3619261 391.49091041 16.24193596 396.82561111 20.38031673 C398.21726537 21.34470872 399.61253448 22.30392902 401.01311111 23.25531673 C401.94123611 23.95656673 402.86936111 24.65781673 403.82561111 25.38031673 C403.82561111 26.04031673 403.82561111 26.70031673 403.82561111 27.38031673 C404.48561111 27.38031673 405.14561111 27.38031673 405.82561111 27.38031673 C408.82561111 30.8418552 408.82561111 30.8418552 408.82561111 33.38031673 C409.48561111 33.38031673 410.14561111 33.38031673 410.82561111 33.38031673 C412.51701736 35.42719173 412.51701736 35.42719173 414.38811111 38.13031673 C415.00815018 39.01203548 415.62818924 39.89375423 416.26701736 40.80219173 C417.6522487 43.09355184 418.38035052 44.76974779 418.82561111 47.38031673 C419.48561111 47.38031673 420.14561111 47.38031673 420.82561111 47.38031673 C421.76685551 49.37855727 422.70340882 51.37900769 423.63811111 53.38031673 C424.16018143 54.49406673 424.68225174 55.60781673 425.22014236 56.75531673 C428.07663506 63.20501313 430.27876919 69.35228217 431.45061111 76.31781673 C431.57540848 77.03638851 431.70020584 77.75496029 431.82878494 78.49530697 C433.12278264 86.41642758 433.53482734 94.36872237 433.82561111 102.38031673 C433.16561111 102.38031673 432.50561111 102.38031673 431.82561111 102.38031673 C431.88748611 103.77250423 431.88748611 103.77250423 431.95061111 105.19281673 C431.9331753 113.84098138 429.48069984 122.22034405 426.82561111 130.38031673 C426.16561111 130.38031673 425.50561111 130.38031673 424.82561111 130.38031673 C424.5922908 131.37031673 424.35897049 132.36031673 424.11857986 133.38031673 C422.83893163 137.83945905 420.62306613 141.49311726 418.13811111 145.38031673 C417.47416336 146.43533382 417.47416336 146.43533382 416.79680252 147.51166439 C413.61844164 152.44415862 410.16805865 156.41547334 405.82561111 160.38031673 C405.82561111 161.04031673 405.82561111 161.70031673 405.82561111 162.38031673 C405.16561111 162.38031673 404.50561111 162.38031673 403.82561111 162.38031673 C403.49561111 163.04031673 403.16561111 163.70031673 402.82561111 164.38031673 C400.58536837 166.488072 398.18978201 168.41357112 395.82561111 170.38031673 C394.71186111 171.37031673 394.71186111 171.37031673 393.57561111 172.38031673 C376.7138096 184.64344511 358.48416962 188.53881087 338.1115303 188.51834774 C336.96003994 188.52116902 335.80854957 188.5239903 334.62216556 188.52689707 C330.77867827 188.53520425 326.93521992 188.53657798 323.0917244 188.53803158 C320.32995262 188.54213983 317.56818457 188.54778053 314.80641556 188.5534277 C308.86594805 188.56492194 302.92548333 188.57318257 296.98500824 188.57954693 C287.58866651 188.58990426 278.19235975 188.61047513 268.79603958 188.63266659 C265.57687199 188.64014516 262.35770424 188.64755904 259.13853645 188.65495396 C257.93196961 188.65772981 257.93196961 188.65772981 256.70102767 188.66056173 C247.55652372 188.68146448 238.41201593 188.70030508 229.26750565 188.71820736 C228.43212721 188.71984554 227.59674877 188.72148372 226.73605584 188.72317155 C213.19669212 188.74946046 199.65732568 188.76810439 186.11794724 188.78479926 C172.1992145 188.80223844 158.28053504 188.83110041 144.3618449 188.86968863 C135.78641049 188.89304002 127.21106295 188.90707881 118.6355965 188.90901627 C112.75656473 188.91113058 106.87761933 188.92410091 100.99862637 188.94549559 C97.61086359 188.95748435 94.22341659 188.96306157 90.83561325 188.95878315 C87.15477541 188.95487779 83.47444039 188.9693783 79.79365921 188.98831844 C78.73459212 188.98278875 77.67552504 188.97725905 76.58436501 188.97156179 C70.3857226 189.02642985 65.02662323 189.88380437 59.10407817 191.73784792 C56.82561111 192.38031673 56.82561111 192.38031673 53.82561111 192.38031673 C53.49561111 193.04031673 53.16561111 193.70031673 52.82561111 194.38031673 C51.69123611 194.91656673 50.55686111 195.45281673 49.38811111 196.00531673 C43.31052073 198.92343775 37.19734511 203.18097532 33.15764236 208.63031673 C32.71807205 209.20781673 32.27850174 209.78531673 31.82561111 210.38031673 C31.16561111 210.38031673 30.50561111 210.38031673 29.82561111 210.38031673 C29.57811111 210.89594173 29.33061111 211.41156673 29.07561111 211.94281673 C25.01389888 219.86315559 25.01389888 219.86315559 22.32951736 223.29047298 C20.69573863 225.56078889 19.71872328 227.71641991 18.70061111 230.31781673 C18.36803299 231.15184017 18.03545486 231.98586361 17.69279861 232.84516048 C16.83443967 235.35450713 16.30277832 237.77456885 15.82561111 240.38031673 C15.47200873 241.81795564 15.11785221 243.25545838 14.76311111 244.69281673 C13.40947758 250.76396417 13.45498564 256.28864797 14.82561111 262.38031673 C14.94936111 263.63844173 15.07311111 264.89656673 15.20061111 266.19281673 C15.63634942 269.87238465 16.67527747 272.99891467 18.06779861 276.41937923 C18.82075483 278.36775048 19.36828488 280.29627027 19.88811111 282.31781673 C20.19748611 283.32844173 20.50686111 284.33906673 20.82561111 285.38031673 C21.48561111 285.71031673 22.14561111 286.04031673 22.82561111 286.38031673 C23.92646009 288.08532557 24.98214884 289.81966331 26.01311111 291.56781673 C29.10721386 296.57298294 32.2554397 299.74283336 36.82561111 303.38031673 C36.82561111 304.04031673 36.82561111 304.70031673 36.82561111 305.38031673 C37.48561111 305.38031673 38.14561111 305.38031673 38.82561111 305.38031673 C38.82561111 306.04031673 38.82561111 306.70031673 38.82561111 307.38031673 C39.48561111 307.60719173 40.14561111 307.83406673 40.82561111 308.06781673 C43.312933 309.15602006 45.12011455 310.23670152 47.32561111 311.75531673 C57.58405537 318.20272328 68.7439863 318.97146659 80.52995682 318.92621517 C82.0589591 318.93497216 83.58795225 318.94546525 85.11693192 318.95754147 C89.22560957 318.98516242 93.33398468 318.9888115 97.44274163 318.98782158 C101.75225067 318.99097146 106.06162753 319.01663241 110.37106705 319.0398016 C118.51276334 319.08020729 126.65437985 319.10066582 134.79616088 319.11377549 C144.07326147 319.1296981 153.35022731 319.16813561 162.62724936 319.20836878 C181.69332721 319.2905563 200.75939206 319.34478019 219.82561111 319.38031673 C219.81561836 317.57413624 219.81561836 317.57413624 219.80542374 315.73146725 C219.74462357 304.38690548 219.69964367 293.04237675 219.6701746 281.69768906 C219.65451498 275.86518535 219.63327104 270.03281313 219.59929276 264.20038509 C219.56671027 258.57236278 219.54876033 252.94446697 219.54097939 247.31635761 C219.53543391 245.16854199 219.52460506 243.02073334 219.50842094 240.87297153 C219.48666173 237.86590868 219.4836436 234.85936941 219.48503494 231.85224056 C219.47424911 230.9631953 219.46346329 230.07415005 219.45235062 229.15816402 C219.48336237 222.96898971 220.59990685 219.606021 225.07561111 215.13031673 C228.43758664 212.99087777 230.88208389 211.94138501 234.82561111 212.38031673 C239.2721052 213.79487392 243.54796202 215.52130833 247.82561111 217.38031673 C247.82561111 218.04031673 247.82561111 218.70031673 247.82561111 219.38031673 C248.66736893 219.62266048 249.50912674 219.86500423 250.37639236 220.11469173 C254.23119219 221.52913697 257.55073687 223.46554898 261.01311111 225.63031673 C262.35190534 226.45104163 263.69175524 227.2700469 265.03264236 228.08734798 C265.68313553 228.48389584 266.33362869 228.88044369 267.00383377 229.28900814 C269.36574115 230.70387359 271.77259311 232.02014708 274.20061111 233.31781673 C282.64185436 237.85061451 290.83228792 242.82910351 299.07365799 247.71234798 C309.12007036 253.68586624 309.12007036 253.68586624 319.32561111 259.38031673 C323.74391772 261.75737886 328.07096568 264.26360335 332.38811111 266.81781673 C339.65266599 271.11535705 346.9499091 275.35359494 354.26311111 279.56781673 C355.36268143 280.20155209 356.46225174 280.83528744 357.59514236 281.48822689 C361.00497356 283.45282183 364.41521762 285.41669808 367.82561111 287.38031673 C372.34695746 289.98359406 376.86788591 292.58759315 381.38811111 295.19281673 C382.47221268 295.81752865 383.55631424 296.44224056 384.67326736 297.08588314 C391.57725001 301.06919381 398.45627739 305.09205274 405.31193924 309.15790462 C409.12453439 311.41049696 412.97430054 313.55610377 416.88811111 315.63031673 C430.36074847 322.91005229 430.36074847 322.91005229 432.82561111 329.38031673 C433.4257054 334.69543755 433.07780918 338.28275929 430.13811111 342.79437923 C425.87582627 347.94464008 419.39816927 350.80936541 413.60686111 353.89594173 C411.03179842 355.27027295 408.4899345 356.69136681 405.95061111 358.13031673 C402.97768653 359.7902441 400.04366391 361.23842703 396.82561111 362.38031673 C396.82561111 363.04031673 396.82561111 363.70031673 396.82561111 364.38031673 C395.89748611 364.73094173 394.96936111 365.08156673 394.01311111 365.44281673 C389.49430215 367.36239209 385.52506638 370.06039251 381.41936111 372.72797298 C374.11639126 377.38031673 374.11639126 377.38031673 370.82561111 377.38031673 C370.82561111 378.04031673 370.82561111 378.70031673 370.82561111 379.38031673 C369.87686111 379.75156673 368.92811111 380.12281673 367.95061111 380.50531673 C362.95771596 382.6379096 358.44272215 385.54641685 353.82561111 388.38031673 C347.17117686 392.38031673 347.17117686 392.38031673 344.82561111 392.38031673 C344.82561111 393.04031673 344.82561111 393.70031673 344.82561111 394.38031673 C343.87686111 394.75156673 342.92811111 395.12281673 341.95061111 395.50531673 C336.95771596 397.6379096 332.44272215 400.54641685 327.82561111 403.38031673 C321.17117686 407.38031673 321.17117686 407.38031673 318.82561111 407.38031673 C318.82561111 408.04031673 318.82561111 408.70031673 318.82561111 409.38031673 C317.85236893 409.76832455 316.87912674 410.15633236 315.87639236 410.55609798 C311.34764579 412.49601184 307.21598193 415.01255876 303.01311111 417.56781673 C301.50902132 418.48196767 300.00261912 419.39232823 298.49357986 420.29828548 C297.83639969 420.69813656 297.17921951 421.09798763 296.50212479 421.50995541 C294.82561111 422.38031673 294.82561111 422.38031673 292.82561111 422.38031673 C292.82561111 423.04031673 292.82561111 423.70031673 292.82561111 424.38031673 C291.34834549 424.97393002 291.34834549 424.97393002 289.84123611 425.57953548 C285.53019222 427.42851838 281.5849961 429.77104975 277.57561111 432.19281673 C271.81936124 435.62769576 266.03826209 438.97070196 260.12248611 442.12641048 C258.43718835 443.04644549 256.78463096 444.02712458 255.15373611 445.04047298 C252.82561111 446.38031673 252.82561111 446.38031673 250.82561111 446.38031673 C250.82561111 447.04031673 250.82561111 447.70031673 250.82561111 448.38031673 C250.18752518 448.64586361 249.54943924 448.91141048 248.89201736 449.18500423 C247.65258377 449.71480892 247.65258377 449.71480892 246.38811111 450.25531673 C245.56440018 450.60336361 244.74068924 450.95141048 243.89201736 451.31000423 C241.66814397 452.20481043 241.66814397 452.20481043 240.82561111 454.38031673 C230.13973215 455.00279512 230.13973215 455.00279512 225.26311111 452.69281673 C221.48099932 449.10465939 219.67774891 446.3012152 219.46484756 441.05858517 C219.45618096 439.31126399 219.46405847 437.56381279 219.48503494 435.81659603 C219.48459686 434.86001598 219.48415878 433.90343594 219.48370743 432.91786861 C219.48579365 429.76321498 219.50911725 426.60909602 219.53264236 423.45453548 C219.5382389 421.26450039 219.54250873 419.07446154 219.54550552 416.88442135 C219.55694971 411.12548069 219.58641346 405.36676767 219.61961746 399.60791683 C219.65032739 393.72934708 219.66401285 387.85074049 219.67912674 381.97211361 C219.71128337 370.44141473 219.76247477 358.91088468 219.82561111 347.38031673 C219.03306742 347.39007943 218.24052372 347.39984213 217.42396355 347.40990067 C198.06538247 347.6465675 178.70668405 347.85429714 159.34745598 348.03052902 C149.98514557 348.11644133 140.62311832 348.21184787 131.26115799 348.33026791 C123.09335368 348.43355817 114.92559302 348.51836001 106.75737798 348.58172625 C102.43946824 348.6158486 98.12207555 348.65870632 93.80451202 348.7237711 C70.54258609 349.0663113 51.57866862 348.12783763 30.82561111 336.38031673 C29.95420486 335.88918392 29.08279861 335.39805111 28.18498611 334.89203548 C26.34762105 333.80310759 24.57533292 332.605122 22.82561111 331.38031673 C22.82561111 330.72031673 22.82561111 330.06031673 22.82561111 329.38031673 C22.23650955 329.11863705 21.64740799 328.85695736 21.04045486 328.58734798 C18.70775677 327.31608924 17.22206743 325.97801142 15.38811111 324.06781673 C14.48318924 323.13389095 14.48318924 323.13389095 13.55998611 322.18109798 C12.98764236 321.58684017 12.41529861 320.99258236 11.82561111 320.38031673 C10.93873611 319.51406673 10.05186111 318.64781673 9.13811111 317.75531673 C4.93424095 313.43782845 1.76019061 308.81223126 -1.17438889 303.56781673 C-1.50438889 302.9896722 -1.83438889 302.41152767 -2.17438889 301.81586361 C-3.19380249 300.01397043 -4.18879833 298.20091819 -5.17438889 296.38031673 C-5.51961594 295.74891781 -5.86484299 295.11751888 -6.22053146 294.46698666 C-8.80084601 289.5611659 -10.45065208 284.66781091 -11.86188889 279.31781673 C-12.07393967 278.5540472 -12.28599045 277.79027767 -12.50446701 277.00336361 C-14.53216982 269.52580973 -15.34795658 262.35998825 -15.29938889 254.63031673 C-15.29528 253.83899349 -15.29117111 253.04767025 -15.28693771 252.23236752 C-15.19958247 243.03282754 -14.86727369 234.89216781 -11.17438889 226.38031673 C-10.89724045 225.63523861 -10.62009201 224.89016048 -10.33454514 224.12250423 C-6.69509226 214.40688325 -1.91756919 205.151435 4.55607986 197.02094173 C5.97741764 195.26401783 5.97741764 195.26401783 7.38811111 192.63031673 C9.15194965 189.86952598 11.22660923 188.36050865 13.82561111 186.38031673 C14.5719783 185.61461361 15.31834549 184.84891048 16.08732986 184.06000423 C37.31687779 163.28472623 61.86619968 159.77150527 90.32243729 159.86615658 C93.08200831 159.86291418 95.84155132 159.85363148 98.60110855 159.84456539 C104.51584338 159.82816046 110.43044292 159.82588975 116.34519386 159.83333111 C124.91077307 159.84390962 133.47618872 159.83037956 142.04174618 159.81086655 C155.96180785 159.77961561 169.8818347 159.7645298 183.80192947 159.76117611 C184.63282478 159.76097212 185.46372009 159.76076813 186.31979404 159.76055796 C187.15171392 159.7603546 187.98363381 159.76015123 188.84076339 159.7599417 C200.64064956 159.75702029 212.44052496 159.75021098 224.24040604 159.73871517 C225.07118497 159.73790988 225.90196391 159.73710458 226.75791796 159.73627488 C240.63392176 159.722497 254.50990646 159.70069423 268.38589269 159.67484534 C276.92570056 159.65945259 285.46544575 159.65217812 294.00526724 159.65564026 C299.85758639 159.65768798 305.70987441 159.65298604 311.56218549 159.64309691 C314.93197162 159.63769218 318.30161002 159.63666098 321.67140579 159.64227009 C325.33573078 159.64794613 328.99984505 159.64132571 332.66415787 159.63187313 C333.71262443 159.63653634 334.761091 159.64119956 335.84132928 159.64600408 C345.41460542 159.59807032 355.42241856 158.94287342 364.26311111 155.00531673 C365.23893143 154.57090267 366.21475174 154.13648861 367.22014236 153.68891048 C370.30129294 152.14140607 373.01937914 150.3742184 375.82561111 148.38031673 C376.48561111 148.38031673 377.14561111 148.38031673 377.82561111 148.38031673 C377.82561111 147.72031673 377.82561111 147.06031673 377.82561111 146.38031673 C379.32951736 144.97016048 379.32951736 144.97016048 381.38811111 143.31781673 C392.15873887 134.06417881 400.07079742 120.38609853 402.82561111 106.38031673 C402.99465001 103.04637234 402.99465001 103.04637234 402.82561111 100.38031673 C403.15561111 99.72031673 403.48561111 99.06031673 403.82561111 98.38031673 C403.92207964 96.98719771 403.95541816 95.58926355 403.95061111 94.19281673 C403.9544783 93.0887347 403.9544783 93.0887347 403.95842361 91.96234798 C403.62709136 85.52085906 402.18216379 79.89768868 400.01311111 73.88031673 C399.76496658 73.1597308 399.51682205 72.43914486 399.26115799 71.69672298 C396.56785536 63.33196702 396.56785536 63.33196702 390.82561111 57.38031673 C389.81209447 55.72183496 388.81440316 54.05365712 387.82561111 52.38031673 C385.3502675 48.94677559 383.57448725 47.19795365 379.82561111 45.38031673 C379.10373611 44.63781673 378.38186111 43.89531673 377.63811111 43.13031673 C371.15943699 36.79561315 364.5350697 33.56433999 355.82561111 31.38031673 C354.45464452 30.87327992 354.45464452 30.87327992 353.05598164 30.35599995 C347.06020581 28.65493783 340.76245009 29.10672536 334.58499527 29.12876034 C333.1230492 29.12662048 331.6611042 29.12359409 330.19916159 29.11975992 C326.19037233 29.11173217 322.18167658 29.1160208 318.17288768 29.12227869 C313.8463317 29.12681643 309.51979341 29.11977031 305.19324112 29.11397457 C297.69866613 29.10534554 290.20411475 29.10353245 282.7095356 29.10592175 C271.86711873 29.10901945 261.02475407 29.09738067 250.18235034 29.08137195 C232.58224076 29.05541492 214.98213114 29.03539278 197.3820076 29.0219183 C196.32886234 29.02110793 195.27571709 29.02029756 194.19065834 29.01946263 C179.23747605 29.00823555 164.28429749 29.00295861 149.33111156 29.0000755 C148.27766311 28.99987152 147.22421466 28.99966753 146.13884354 28.99945736 C144.56059611 28.99915746 144.56059611 28.99915746 142.9504649 28.99885149 C125.41465353 28.99512057 107.87889885 28.97605064 90.34311587 28.944363 C79.52598264 28.92543412 68.70899465 28.91949567 57.89184941 28.93018018 C50.48316418 28.93649167 43.07458325 28.92848029 35.66592091 28.90912606 C31.38970637 28.89842753 27.113745 28.89432052 22.83753204 28.90759754 C18.92368072 28.91962777 15.01030464 28.91333062 11.09649474 28.89240555 C9.68005611 28.88809492 8.26357744 28.89055773 6.84716677 28.90044673 C-6.3238379 28.98573418 -6.3238379 28.98573418 -11.17438889 24.38031673 C-14.30212898 20.49177499 -15.96527216 17.39911812 -16.17438889 12.38031673 C-15.23688889 9.00531673 -15.23688889 9.00531673 -14.17438889 6.38031673 C-13.51438889 6.38031673 -12.85438889 6.38031673 -12.17438889 6.38031673 C-11.84438889 5.39031673 -11.51438889 4.40031673 -11.17438889 3.38031673 C-7.4334478 0.52085028 -4.64929953 0.00443259 0 0 Z " transform="translate(41.17438888549805,22.619683265686035)" style="fill: #000000;"/><path d="M0 0 C3.66547318 1.46618927 6.65214735 2.85771893 10 4.8359375 C10.9588208 5.39949951 11.9176416 5.96306152 12.90551758 6.54370117 C14.43728638 7.45019409 14.43728638 7.45019409 16 8.375 C18.17011296 9.65052245 20.3406945 10.92524798 22.51171875 12.19921875 C23.60145996 12.83907715 24.69120117 13.47893555 25.81396484 14.13818359 C30.46155469 16.85408552 35.13438619 19.52462115 39.8125 22.1875 C52.52209153 29.43040866 65.17733991 36.7643216 77.80737305 44.14501953 C86.34942294 49.13632318 94.90265839 54.10446251 103.5 59 C111.33396925 63.463286 119.14434456 67.96580047 126.9375 72.5 C127.95070313 73.0878125 128.96390625 73.675625 130.0078125 74.28125 C134.77110419 77.05822977 139.461903 79.86710055 144 83 C141.60030318 85.65565787 139.03555811 87.27998553 135.93359375 89.046875 C134.90427734 89.63662109 133.87496094 90.22636719 132.81445312 90.83398438 C131.70005859 91.46626953 130.58566406 92.09855469 129.4375 92.75 C128.26598539 93.41941347 127.09476624 94.08934426 125.92382812 94.75976562 C123.49056166 96.15239997 121.05603768 97.54279747 118.62060547 98.93164062 C113.06842407 102.10029766 107.53519338 105.30179441 102 108.5 C99.83342291 109.75015525 97.66675593 111.00015473 95.5 112.25 C94.4275 112.86875 93.355 113.4875 92.25 114.125 C74.375 124.4375 74.375 124.4375 56.5 134.75 C55.42613037 135.36955566 54.35226074 135.98911133 53.24584961 136.62744141 C51.09307184 137.86939744 48.94024037 139.1112604 46.78735352 140.35302734 C41.75383085 143.25646913 36.72081952 146.160785 31.68978882 149.06854248 C29.91637392 150.09345403 28.14278354 151.11806123 26.36914062 152.14257812 C24.15004227 153.42452738 21.93126984 154.70704107 19.71289062 155.99023438 C16.81175798 157.66574493 13.90708043 159.33483423 11 161 C10.11844238 161.50756836 9.23688477 162.01513672 8.32861328 162.53808594 C7.1160083 163.22692871 7.1160083 163.22692871 5.87890625 163.9296875 C5.17451416 164.33171387 4.47012207 164.73374023 3.74438477 165.14794922 C2 166 2 166 0 166 C0 111.22 0 56.44 0 0 Z " transform="translate(288,273)" style="fill: #9CBE0B;"/><path d="M0 0 C5.51959869 4.2800278 8.68533374 9.83794654 10.03125 16.6796875 C10.83895232 25.29902511 10.35030553 31.68557029 5.03125 38.6796875 C0.79830787 43.71345652 -4.71508304 47.59513185 -10.96875 49.6796875 C-21.04835829 50.45619066 -27.88926497 49.47220031 -35.71875 42.9921875 C-41.1517671 37.90575942 -44.42974497 32.10083421 -45.171875 24.63671875 C-45.36806601 15.66097994 -43.13742487 9.0535087 -36.9375 2.47265625 C-26.04932046 -7.44336441 -12.22217083 -8.19661456 0 0 Z " transform="translate(357.96875,334.3203125)" style="fill: #010100;"/></svg>