<?xml version="1.0" encoding="UTF-8"?>
<!-- Generator: visioncortex VTracer -->
<svg id="svg" version="1.1" xmlns="http://www.w3.org/2000/svg" style="display: block;" viewBox="0 0 500 500"><path d="M0 0 C1.92243107 0.45462314 3.84512515 0.90813538 5.76806641 1.3605957 C11.60479254 2.74459831 17.42928318 4.17527184 23.25 5.625 C24.14948364 5.84899475 25.04896729 6.0729895 25.97570801 6.30377197 C45.22796573 11.11661504 64.52348212 16.01230735 83.25 22.625 C83.90613281 22.85525879 84.56226563 23.08551758 85.23828125 23.32275391 C92.46149153 25.91360538 96.44015549 28.01130469 100.515625 34.703125 C104.15373455 42.73006511 105.6064445 53.2069298 102.49560547 61.6796875 C100.48115364 65.92903665 97.9240188 69.75968793 95.25 73.625 C94.46302734 74.96884766 94.46302734 74.96884766 93.66015625 76.33984375 C91.6426126 79.60927044 89.43026288 81.48443845 86.25 83.625 C80.66007594 84.63118633 76.00399561 82.68938579 70.7890625 80.84765625 C66.63879708 79.41384491 62.45798661 78.12715233 58.25 76.875 C57.51990723 76.65239502 56.78981445 76.42979004 56.03759766 76.20043945 C52.59488994 75.18027415 49.87397963 74.625 46.25 74.625 C46.25 73.965 46.25 73.305 46.25 72.625 C45.033125 72.5425 43.81625 72.46 42.5625 72.375 C37.23279552 71.80064199 32.34346945 70.23058417 27.265625 68.5625 C24.59460028 67.73212962 21.99172425 67.15369427 19.25 66.625 C18.30125 66.274375 17.3525 65.92375 16.375 65.5625 C12.75166901 64.4755007 10.01296593 64.20689267 6.25 64.625 C2.87945656 66.72020268 1.95106516 69.0441254 1 72.75 C0.18056996 77.04666361 0.12035016 81.19690225 0.27734375 85.55859375 C0.25 87.625 0.25 87.625 -0.75 89.625 C-3.3125 90.25 -3.3125 90.25 -5.75 90.625 C-5.7772616 92.66659095 -5.79651345 94.70828963 -5.8125 96.75 C-5.82990234 98.45542969 -5.82990234 98.45542969 -5.84765625 100.1953125 C-5.83069776 103.61995866 -5.83069776 103.61995866 -5.18359375 106.9296875 C-4.75 109.625 -4.75 109.625 -5.75 111.625 C-5.193125 111.65078125 -4.63625 111.6765625 -4.0625 111.703125 C4.18804736 112.31634136 10.02261928 115.17604187 16.25 120.625 C16.89066406 120.33625 17.53132813 120.0475 18.19140625 119.75 C24.48390968 117.04919376 29.42938864 115.32436635 36.1875 117.625 C36.868125 117.955 37.54875 118.285 38.25 118.625 C38.25 119.285 38.25 119.945 38.25 120.625 C38.91 120.625 39.57 120.625 40.25 120.625 C40.25 121.285 40.25 121.945 40.25 122.625 C41.06082031 122.08230469 41.87164062 121.53960937 42.70703125 120.98046875 C54.98266594 113.04917975 66.57847242 109.33956541 81.421875 112.24609375 C92.36875216 115.43656961 101.22861408 121.95193487 107.25 131.625 C107.64960938 132.24632812 108.04921875 132.86765625 108.4609375 133.5078125 C110.51174703 136.8676494 111.58779072 139.77631835 112.25 143.625 C113.735 143.46451172 113.735 143.46451172 115.25 143.30078125 C128.73656683 142.00642601 128.73656683 142.00642601 135.25 145.625 C140.62055653 150.16013663 143.2263379 154.97582452 145.25 161.625 C145.89565763 164.72614283 145.89565763 164.72614283 148.17578125 165.6171875 C148.96339844 165.90851563 149.75101562 166.19984375 150.5625 166.5 C154.68805705 168.25499887 157.04122167 169.56084788 159.25 173.625 C159.52645559 175.30836822 159.77405162 176.9966116 160 178.6875 C160.53948065 182.38750565 160.53948065 182.38750565 163.0078125 184.984375 C164.41936771 185.61983528 165.84591025 186.2229961 167.28515625 186.79296875 C171.08204534 188.40079653 172.59424282 191.11675849 174.1875 194.78125 C176.80973622 202.17970218 177.17047028 209.13558895 174.046875 216.4375 C171.26183859 221.47988171 168.93122069 224.73125977 163.25 226.625 C168.22287891 231.25998028 173.06809445 235.03991481 179.125 238.125 C179.89730957 238.52807373 180.66961914 238.93114746 181.46533203 239.34643555 C187.17713075 242.25280577 193.00157298 244.86800992 198.875 247.42578125 C199.63281769 247.75629486 200.39063538 248.08680847 201.17141724 248.42733765 C204.99997439 250.09260622 208.8354118 251.73881182 212.68310547 253.359375 C214.11954001 253.97508812 215.55590371 254.59096655 216.9921875 255.20703125 C217.97868286 255.612882 217.97868286 255.612882 218.98510742 256.02693176 C228.4080986 260.10277976 233.11168147 268.66259675 237.25 277.625 C247.69914177 304.40130927 246.68348189 330.77585925 237.25 357.625 C236.59 357.625 235.93 357.625 235.25 357.625 C234.92 358.945 234.59 360.265 234.25 361.625 C231.58333333 360.95833333 228.91666667 360.29166667 226.25 359.625 C226.25 358.965 226.25 358.305 226.25 357.625 C225.41984375 357.37363281 224.5896875 357.12226563 223.734375 356.86328125 C220.52447157 355.72254203 217.62705186 354.38251257 214.59326172 352.8581543 C205.09014145 348.11102762 195.57631167 345.02859882 185.25 342.625 C184.57662598 342.46660645 183.90325195 342.30821289 183.20947266 342.14501953 C171.7423568 339.50619104 160.95734091 338.01697208 149.25 339.5625 C124.19246435 342.7811718 98.3727397 340.195824 73.25 338.625 C73.37459595 340.12848999 73.37459595 340.12848999 73.50170898 341.66235352 C73.60438395 343.00534209 73.70665741 344.34836141 73.80859375 345.69140625 C73.9641272 347.65895874 73.9641272 347.65895874 74.12280273 349.66625977 C74.29945054 355.16404136 73.4547384 360.27835106 72.25 365.625 C71.59 365.625 70.93 365.625 70.25 365.625 C70.25 366.945 70.25 368.265 70.25 369.625 C69.59 369.625 68.93 369.625 68.25 369.625 C67.92 370.945 67.59 372.265 67.25 373.625 C66.59 373.625 65.93 373.625 65.25 373.625 C65.25 374.285 65.25 374.945 65.25 375.625 C50.21976989 383.72486464 50.21976989 383.72486464 41.25 384.625 C39.97125 384.79 38.6925 384.955 37.375 385.125 C30.63974519 384.90641161 24.04063086 381.05120143 19.06640625 376.7265625 C12.77360335 369.87891031 9.91377914 362.65916521 8.25 353.625 C7.15300781 354.17929687 6.05601562 354.73359375 4.92578125 355.3046875 C3.47140813 356.03656558 2.01697804 356.76833045 0.5625 357.5 C-0.15873047 357.86480469 -0.87996094 358.22960937 -1.62304688 358.60546875 C-3.03332898 359.31382963 -4.44824753 360.0130443 -5.86791992 360.70239258 C-7.35768223 361.43268338 -8.82427663 362.21021551 -10.28125 363.00390625 C-13.99027975 363.93703241 -17.03914821 362.85467463 -20.5625 361.6875 C-21.62827271 361.34114502 -21.62827271 361.34114502 -22.71557617 360.98779297 C-29.18828003 358.73196249 -34.23941021 355.74029667 -37.88671875 349.76171875 C-39.41676564 346.52854274 -39.75 344.22956876 -39.75 340.625 C-41.48164063 341.05260303 -43.210232 341.49256307 -44.9375 341.9375 C-45.90042969 342.18113281 -46.86335937 342.42476563 -47.85546875 342.67578125 C-50.83335594 343.65233535 -53.10058005 344.97017061 -55.75 346.625 C-63.92072207 350.47786082 -71.78667129 351.41030949 -80.75 351.625 C-81.74773437 351.66882813 -82.74546875 351.71265625 -83.7734375 351.7578125 C-87.15862662 351.60676732 -89.85980347 350.84282547 -93.0625 349.75 C-94.11050781 349.40195312 -95.15851563 349.05390625 -96.23828125 348.6953125 C-98.75 347.625 -98.75 347.625 -99.75 345.625 C-101.74508067 344.94375294 -103.74638693 344.28072791 -105.75 343.625 C-108.45416808 342.36273124 -111.10560333 341.00760334 -113.75 339.625 C-113.71519531 340.63175781 -113.68039063 341.63851563 -113.64453125 342.67578125 C-113.45361623 350.85855654 -113.8261874 358.72209555 -115.125 366.8125 C-115.25108643 367.60116455 -115.37717285 368.3898291 -115.50708008 369.20239258 C-117.21685687 379.15493606 -117.21685687 379.15493606 -119.875 383.4375 C-122.95640406 385.38905591 -126.18275654 385.72615057 -129.75 385.625 C-133.125 384.5625 -133.125 384.5625 -135.75 382.625 C-138.34605427 377.43289147 -138.64885566 372.42589844 -136.875 366.8984375 C-132.38529422 355.46741027 -125.57731209 345.99744382 -117.75 336.625 C-118.41 335.305 -119.07 333.985 -119.75 332.625 C-121.668125 332.686875 -121.668125 332.686875 -123.625 332.75 C-131.06500868 332.75 -138.41664597 331.84254358 -145.78417969 330.88085938 C-147.31517713 330.68159394 -148.84862451 330.50111949 -150.3828125 330.328125 C-156.06304228 329.42101606 -160.73377929 326.575889 -165.3815918 323.28076172 C-172.4305521 318.93944714 -180.90955099 320.84520642 -188.75 321.625 C-190.19869652 321.75345873 -191.64758997 321.87971763 -193.09667969 322.00366211 C-195.97510355 322.25273254 -198.85233142 322.51173144 -201.72900391 322.78027344 C-230.43599207 325.45229769 -230.43599207 325.45229769 -242.75 324.625 C-247.94836445 319.42663555 -246.97028361 301.02741016 -247.0625 293.75 C-246.69704856 277.57046785 -245.2799554 261.4299762 -241.75 245.625 C-241.52441406 244.52800781 -241.29882812 243.43101562 -241.06640625 242.30078125 C-239.59121337 235.65824607 -237.17302015 230.48025091 -233.75 224.625 C-232.29315796 224.64071045 -232.29315796 224.64071045 -230.80688477 224.65673828 C-227.11470402 224.69364195 -223.42253852 224.71614907 -219.73022461 224.73486328 C-218.14881629 224.74476405 -216.56742546 224.75828816 -214.98608398 224.77587891 C-206.45326313 224.86824309 -198.01701302 224.73373395 -189.52734375 223.8046875 C-188.50683678 223.70028854 -188.50683678 223.70028854 -187.4657135 223.59378052 C-182.72042088 223.00795284 -178.98090663 221.75841645 -174.75 219.625 C-174.42 218.965 -174.09 218.305 -173.75 217.625 C-173.09 217.625 -172.43 217.625 -171.75 217.625 C-171.75 216.965 -171.75 216.305 -171.75 215.625 C-171.09 215.625 -170.43 215.625 -169.75 215.625 C-168.13876558 211.97286864 -167.08958308 208.61510113 -166.75 204.625 C-167.66098881 202.55113606 -168.74865345 200.62740285 -169.85546875 198.65234375 C-173.08017784 192.424115 -173.05876315 187.44846602 -171.75 180.625 C-171.42 179.635 -171.09 178.645 -170.75 177.625 C-170.09 177.625 -169.43 177.625 -168.75 177.625 C-168.75 176.965 -168.75 176.305 -168.75 175.625 C-167.14967863 174.78430585 -165.54458829 173.95268495 -163.9375 173.125 C-163.04417969 172.6609375 -162.15085937 172.196875 -161.23046875 171.71875 C-158.75 170.625 -158.75 170.625 -155.75 170.625 C-155.646875 170.08875 -155.54375 169.5525 -155.4375 169 C-153.83030566 163.44787411 -151.38046006 159.12146984 -146.75 155.625 C-144.7398235 155.15963037 -142.71688481 154.74779453 -140.6875 154.375 C-136.32601334 153.56299109 -136.32601334 153.56299109 -133.29296875 150.6171875 C-132.68241159 149.04272947 -132.10901425 147.45334023 -131.57421875 145.8515625 C-130.17637688 142.07540199 -128.17650479 140.61860278 -124.75 138.625 C-121.08079748 137.95189112 -117.47637809 137.69793623 -113.75 137.625 C-113.60304687 137.05652344 -113.45609375 136.48804688 -113.3046875 135.90234375 C-111.22680296 128.74916652 -108.12786935 124.17899878 -102.1875 119.6875 C-94.93805882 117.44676363 -87.12510083 118.24772214 -79.75 119.625 C-79.5025 119.08875 -79.255 118.5525 -79 118 C-77.75 115.625 -77.75 115.625 -75.71875 113.09375 C-73.14187016 108.55353314 -73.08501248 104.88166234 -73 99.75 C-72.97035156 98.87085938 -72.94070312 97.99171875 -72.91015625 97.0859375 C-72.83994441 94.93277455 -72.79265119 92.77888515 -72.75 90.625 C-75.06 90.625 -77.37 90.625 -79.75 90.625 C-79.75 89.965 -79.75 89.305 -79.75 88.625 C-81.4 88.625 -83.05 88.625 -84.75 88.625 C-92.66732981 71.41341346 -88.39978189 51.41853496 -82.23828125 34.40625 C-78.99905546 25.95571383 -75.4790456 17.85559778 -68.75 11.625 C-68.09 10.95597656 -67.43 10.28695312 -66.75 9.59765625 C-47.51479106 -8.77347103 -23.6089518 -5.76078486 0 0 Z " transform="translate(250.75,59.375)" style="fill: #070707;"/><path d="M0 0 C1.73733398 0.12665039 1.73733398 0.12665039 3.50976562 0.25585938 C10.65144414 0.96556621 15.04400468 2.3819123 20.39672852 7.24243164 C29.27505285 15.09794404 40.98021649 14.58182499 52.14160156 14.15185547 C55.62908993 13.80749933 58.26381794 12.49279007 61.2512207 10.76123047 C66.67517108 8.59370606 73.94363285 12.39378708 79.046875 14.49975586 C79.81515625 14.82983643 80.5834375 15.15991699 81.375 15.5 C82.19355469 15.85006104 83.01210938 16.20012207 83.85546875 16.56079102 C96.59018644 22.12853378 107.90724805 28.64364493 118.3125 37.9375 C119.18648437 38.69160156 120.06046875 39.44570313 120.9609375 40.22265625 C124.86554755 43.64065574 128.47897182 47.03004483 131.75 51.0625 C141.82236185 62.86022013 159.70332214 68.79122495 173.5625 75.0625 C174.50649658 75.49280518 175.45049316 75.92311035 176.4230957 76.36645508 C180.3216691 78.1423311 184.21584403 79.91026165 188.171875 81.5546875 C195.72620701 84.88084861 198.94309498 88.44993329 202.3125 95.9375 C202.83457031 97.01515625 203.35664063 98.0928125 203.89453125 99.203125 C213.68081137 120.44244828 214.26110758 144.67406837 207.3125 166.9375 C206.37681529 169.307599 205.36500799 171.61534771 204.3125 173.9375 C199.90332668 172.61827534 195.90717059 170.83988253 191.79370117 168.81518555 C173.16536051 159.64862042 147.60510532 149.85680149 126.39868164 153.42822266 C121.01785068 154.21998056 115.60720235 154.09963024 110.1796875 154.10546875 C108.41286621 154.11168495 108.41286621 154.11168495 106.61035156 154.11802673 C102.8027025 154.12768295 98.99515939 154.12768907 95.1875 154.125 C93.89716858 154.12506042 92.60683716 154.12512085 91.27740479 154.12518311 C72.87226472 154.11284049 54.63028402 153.86822822 36.3125 151.9375 C35.10762939 151.82535156 35.10762939 151.82535156 33.87841797 151.7109375 C26.67780277 151.03807015 20.16008383 149.95819468 13.55859375 146.83984375 C7.38387036 144.35921575 0.4980141 144.63318797 -6.0625 144.375 C-7.08472656 144.33181641 -8.10695313 144.28863281 -9.16015625 144.24414062 C-11.66915288 144.13862208 -14.17823943 144.03650787 -16.6875 143.9375 C-16.88085938 143.00808594 -17.07421875 142.07867187 -17.2734375 141.12109375 C-17.66402344 139.26677734 -17.66402344 139.26677734 -18.0625 137.375 C-18.31773437 136.15683594 -18.57296875 134.93867188 -18.8359375 133.68359375 C-19.66251833 130.04739643 -20.62962118 126.51129061 -21.6875 122.9375 C-24.41814947 123.02480853 -27.1456619 123.13172124 -29.875 123.25 C-30.64392578 123.27255859 -31.41285156 123.29511719 -32.20507812 123.31835938 C-36.70865381 123.53097454 -40.1807959 123.80429101 -43.6875 126.9375 C-45.5390786 134.14891138 -42.91855561 142.07169197 -40.6875 148.9375 C-45.34375 149.234375 -45.34375 149.234375 -48.4375 146.5625 C-52.37804542 141.96519701 -52.14609366 138.20399394 -52.09375 132.26953125 C-51.46894879 127.14495978 -49.31095044 124.45580568 -45.6875 120.9375 C-45.1925 120.40769531 -44.6975 119.87789063 -44.1875 119.33203125 C-36.8508713 112.19715984 -25.96678028 107.69565662 -15.81640625 107.76953125 C-12.15915149 107.96586328 -8.56245322 108.4383745 -4.9375 108.9375 C8.32234241 111.32330658 8.32234241 111.32330658 20.5 107.75 C21.098125 106.821875 21.69625 105.89375 22.3125 104.9375 C22.910625 104.009375 23.50875 103.08125 24.125 102.125 C24.7128125 101.0421875 24.7128125 101.0421875 25.3125 99.9375 C24.3227417 99.96473145 23.3329834 99.99196289 22.31323242 100.02001953 C18.22574972 100.01604917 14.30730846 99.37777407 10.30078125 98.6171875 C9.54275208 98.47808456 8.7847229 98.33898163 8.00372314 98.19566345 C5.54279705 97.74156437 3.0838578 97.2776587 0.625 96.8125 C-1.08406085 96.49305644 -2.79312665 96.17363936 -4.50219727 95.85424805 C-18.95406158 93.13724328 -33.34968767 90.20779035 -47.6875 86.9375 C-48.5026709 86.75622559 -49.3178418 86.57495117 -50.15771484 86.38818359 C-69.08890228 82.1291848 -69.08890228 82.1291848 -74.42578125 74.4296875 C-76.02864788 71.26365372 -76.18939097 69.45073681 -75.6875 65.9375 C-74.39861923 63.90856823 -73.06905151 61.90450107 -71.6875 59.9375 C-59.28483573 60.54068375 -47.05084345 62.0324765 -34.75 63.6875 C-33.75836853 63.81966919 -32.76673706 63.95183838 -31.74505615 64.0880127 C-16.91830676 66.07521084 -2.21379324 68.2940754 12.3125 71.9375 C13.33778809 72.17436523 13.33778809 72.17436523 14.38378906 72.41601562 C18.10303824 73.34249184 19.09859871 73.61664806 21.3125 76.9375 C21.3125 77.9275 21.3125 78.9175 21.3125 79.9375 C22.9625 79.9375 24.6125 79.9375 26.3125 79.9375 C25.8175 75.4825 25.8175 75.4825 25.3125 70.9375 C16.67402271 67.6608362 7.74846854 66.16224821 -1.3125 64.5625 C-2.15355286 64.41198181 -2.99460571 64.26146362 -3.86114502 64.10638428 C-20.3900249 61.16083966 -36.98409395 58.90384485 -53.6484375 56.8828125 C-54.37389771 56.79426498 -55.09935791 56.70571747 -55.84680176 56.61448669 C-59.56660775 56.16724088 -63.28173813 55.80546889 -67.015625 55.50390625 C-72.51635023 54.65539012 -75.11110289 52.00805971 -78.6875 47.9375 C-80.9207174 44.62151053 -81.66887645 42.85005414 -81.75 38.875 C-80.36874463 35.05623514 -78.131741 32.93039417 -74.6875 30.9375 C-69.87387971 28.91085342 -66.03662437 28.87153431 -60.96484375 29.6015625 C-60.22749496 29.69845367 -59.49014618 29.79534485 -58.73045349 29.89517212 C-50.97017987 30.95608374 -43.27297528 32.36710481 -35.58569336 33.859375 C-33.25562687 34.31140839 -30.92392995 34.7540783 -28.59179688 35.1953125 C-13.48534961 38.07326868 1.52256836 40.96383064 16.0625 46.0625 C17.07570313 46.40925781 18.08890625 46.75601563 19.1328125 47.11328125 C23.05430594 48.45646995 26.96368756 49.80630948 30.84375 51.265625 C33.42554316 52.26276757 33.42554316 52.26276757 36.0625 50.5625 C36.805 50.02625 37.5475 49.49 38.3125 48.9375 C38.9725 48.9375 39.6325 48.9375 40.3125 48.9375 C39.3225 46.9575 39.3225 46.9575 38.3125 44.9375 C37.29671875 45.31777344 36.2809375 45.69804687 35.234375 46.08984375 C31.00383454 47.28299167 28.59302227 46.29582159 24.5625 44.5 C3.17174931 35.72228446 -20.09578357 32.12311539 -42.74034119 28.02449036 C-48.0699496 27.05851173 -53.38130813 26.02418265 -58.6875 24.9375 C-58.16945836 18.46197956 -56.48405243 14.33454494 -51.5 10.0625 C-47.57488929 8.49245572 -43.8654007 8.362011 -39.6875 8.9375 C-38.80578125 9.41896484 -38.80578125 9.41896484 -37.90625 9.91015625 C-34.64321802 11.42103197 -31.28827532 11.4275145 -27.75 11.6875 C-5.67529036 13.72061101 15.5488238 19.34801835 36.3125 26.9375 C37.34213867 27.31100586 38.37177734 27.68451172 39.43261719 28.06933594 C42.0601614 29.0229005 44.68673537 29.9790484 47.3125 30.9375 C47.6425 29.6175 47.9725 28.2975 48.3125 26.9375 C20.83241773 15.43528187 -6.37138746 10.21357801 -35.6875 5.9375 C-26.09972853 -4.47208046 -12.98216042 -1.26245855 0 0 Z " transform="translate(277.6875,239.0625)" style="fill: #F2E2DC;"/><path d="M0 0 C3 2 3 2 3.43359375 3.9609375 C3.45387968 16.49764351 -1.27821324 27.22795689 -10.08984375 36.10546875 C-14.58229153 40.16289365 -17.75932033 43 -24 43 C-24.20625 43.804375 -24.4125 44.60875 -24.625 45.4375 C-25.85695132 48.62937388 -26.81051962 50.05482619 -28.875 52.625 C-32.71294444 58.09848493 -33.3942722 64.02366929 -34.53076172 70.4675293 C-36.23304875 79.8880806 -38.76930446 90.44095448 -46.921875 96.40625 C-48.14830445 97.14001121 -49.37752212 97.86913066 -50.609375 98.59375 C-52.28706435 99.98704458 -52.28706435 99.98704458 -52.203125 102.65625 C-52.10257813 103.81640625 -52.10257813 103.81640625 -52 105 C-40.83603613 98.22719525 -34.78654729 90.75936306 -31 78 C-30.15835342 74.01789512 -29.7148569 70.03357045 -29.32421875 65.984375 C-29 63 -29 63 -28 61 C-27.31550781 61.28617187 -26.63101563 61.57234375 -25.92578125 61.8671875 C-22.71638749 63.10980992 -19.48089886 64.12700034 -16.1875 65.125 C-15.02605469 65.47820312 -13.86460937 65.83140625 -12.66796875 66.1953125 C-11.78753906 66.46085937 -10.90710938 66.72640625 -10 67 C-9.73828125 69.8125 -9.73828125 69.8125 -10 73 C-11.79296875 74.6875 -11.79296875 74.6875 -14.1875 76 C-20.83693051 80.0397639 -24.11373968 84.16131011 -26.48828125 91.63671875 C-27.01423526 94.06574299 -26.98388853 96.14953925 -26.9375 98.625 C-27.1171875 100.8828125 -27.1171875 100.8828125 -28 103 C-30.81448025 105.07714037 -33.7453715 106.59447637 -36.8515625 108.19921875 C-45.77681108 113.30410658 -50.82659672 122.47979015 -54 132 C-54.98984126 145.78707467 -53.67116302 157.00690553 -44.7578125 168.18359375 C-42.02780426 171.00460227 -38.95366598 173.28700269 -35.7578125 175.5546875 C-35.17773438 176.03164063 -34.59765625 176.50859375 -34 177 C-34 177.66 -34 178.32 -34 179 C-52.96473835 185.30118726 -73.88259374 188.82689103 -93 181 C-94.73918797 179.77173075 -96.44914501 178.50086598 -98.125 177.1875 C-105.45811522 172.23870692 -113.01369494 173.79791665 -121.41210938 174.64697266 C-126.4915782 175.14676253 -131.57767444 175.55103706 -136.66519165 175.95928955 C-140.75828198 176.2878955 -144.85034853 176.62317045 -148.94091797 176.98193359 C-166.56812623 178.50822017 -166.56812623 178.50822017 -173 178 C-177.85704952 173.14295048 -175.24402648 156.46678971 -175.25 149.625 C-175.25100708 148.82453247 -175.25201416 148.02406494 -175.25305176 147.19934082 C-175.24259517 134.90177766 -174.67590383 123.04434308 -172 111 C-171.83951172 110.24799316 -171.67902344 109.49598633 -171.51367188 108.72119141 C-168.34608075 94.12232292 -168.34608075 94.12232292 -165 90 C-161.77636719 89.46411133 -161.77636719 89.46411133 -157.796875 89.58203125 C-157.08202942 89.59384933 -156.36718384 89.60566742 -155.63067627 89.61784363 C-153.33587205 89.65904592 -151.04379288 89.73361167 -148.75 89.8125 C-126.56940856 90.49526791 -126.56940856 90.49526791 -106 83 C-105.01 82.67 -104.02 82.34 -103 82 C-101.90761639 80.15977622 -101.90761639 80.15977622 -101 78 C-100.19872606 76.65989027 -99.38476399 75.32733416 -98.5625 74 C-96.40753731 70.45593147 -94.37152436 66.86636327 -92.40625 63.21484375 C-91.93888428 62.34923828 -91.47151855 61.48363281 -90.98999023 60.59179688 C-90.06064688 58.86376182 -89.1379241 57.13214444 -88.22290039 55.39648438 C-81.32813614 42.60140508 -72.67507193 32.54960806 -59 27 C-57.44433846 26.53877372 -55.88146729 26.10120779 -54.3125 25.6875 C-49.63103413 24.38915368 -45.52398159 22.38923307 -41.25 20.125 C-40.62391846 19.79717529 -39.99783691 19.46935059 -39.3527832 19.1315918 C-36.1876045 17.4108282 -33.44020417 15.60813971 -30.7265625 13.23046875 C-28 11 -28 11 -25.125 11.1875 C-24.09375 11.455625 -23.0625 11.72375 -22 12 C-16.51372496 12.34833492 -11.62443652 12.35945613 -7 9 C-4.42878634 6.15654019 -2.17528674 3.15383518 0 0 Z " transform="translate(186,200)" style="fill: #F3E3DD;"/><path d="M0 0 C5.16064416 1.31943009 10.37335533 2.41618631 15.57495117 3.56103516 C36.43671778 8.17335633 57.23628547 13.15803271 77.50341797 19.96826172 C79.80583831 20.72419676 82.12107678 21.42355929 84.44238281 22.11914062 C97.97444933 26.31541655 97.97444933 26.31541655 101.89941406 32.86132812 C104.95410661 39.74907239 104.96739125 47.89554087 102.61816406 55.00195312 C99.79802425 60.88974502 96.18570386 67.87965337 90.71191406 71.69335938 C84.92926767 72.59051342 79.37059753 70.31311013 73.89941406 68.63085938 C71.74874911 67.98637176 69.59769426 67.34318409 67.44628906 66.70117188 C66.33833984 66.36891602 65.23039063 66.03666016 64.08886719 65.69433594 C55.57444204 63.17054017 47.00890477 60.82347279 38.44970703 58.45703125 C36.0026016 57.7744429 33.56161904 57.07424697 31.12207031 56.36523438 C19.72013541 52.88590114 19.72013541 52.88590114 8.39941406 55.25585938 C0.91307604 62.04579386 0.64246349 70.17971593 -0.28808594 79.69335938 C-10.19307665 80.74240714 -20.02838807 80.88999607 -29.97558594 80.88085938 C-31.1842482 80.88194702 -31.1842482 80.88194702 -32.41732788 80.88305664 C-46.45380443 80.88166656 -60.3235773 80.19461892 -74.28808594 78.69335938 C-80.21201319 60.92157761 -74.26212983 39.21345795 -66.35058594 23.00585938 C-59.9276287 10.62893691 -50.59761215 2.16427621 -37.16699219 -2.35742188 C-24.77231466 -5.39056048 -12.10969084 -3.25933708 0 0 Z " transform="translate(244.2880859375,64.306640625)" style="fill: #DDDDDD;"/><path d="M0 0 C17.16 0 34.32 0 52 0 C54.25139094 10.13125923 54.25139094 10.13125923 54.6328125 15.5390625 C54.71660156 16.69664062 54.80039063 17.85421875 54.88671875 19.046875 C54.96535156 20.22765625 55.04398438 21.4084375 55.125 22.625 C55.21136719 23.81351563 55.29773438 25.00203125 55.38671875 26.2265625 C55.78063914 31.82898588 56.11529308 37.38358008 56 43 C57.65 43 59.3 43 61 43 C60.67 37.72 60.34 32.44 60 27 C66.68416238 27 69.72598355 28.18709627 75 32 C77.88979024 35.31268637 78.92548774 36.99408444 79.25 41.375 C79.1675 42.24125 79.085 43.1075 79 44 C80.98 44 82.96 44 85 44 C84.67 41.36 84.34 38.72 84 36 C92.69467956 31.05683192 92.69467956 31.05683192 98 32 C100.875 34 100.875 34 103 36 C102.48555665 40.11554683 100.97749587 43.24319205 99.03515625 46.83984375 C96.24354977 52.66534709 95.73524383 57.53222009 95.875 63.875 C95.88402344 64.65875 95.89304687 65.4425 95.90234375 66.25 C95.92571937 68.16680055 95.96158347 70.08344191 96 72 C82.43083276 73.0752925 82.43083276 73.0752925 79.06640625 70.546875 C77.875 68.6875 77.875 68.6875 77.0546875 66.82421875 C75.51040314 64.15317876 73.77001744 63.30307863 71 62 C64.47097994 60.9090109 58.54656338 61.08001378 52.875 64.6875 C50.33037218 66.54555843 49.09201071 67.82379818 47.62109375 70.640625 C46 73 46 73 43.29296875 73.78515625 C42.26816406 73.87667969 41.24335938 73.96820313 40.1875 74.0625 C33.7802205 74.89722399 30.28089867 76.65574304 25.75 81.3125 C23.64503623 84.54512294 22.88026894 87.25885699 22 91 C23.65 91 25.3 91 27 91 C27.0928125 89.9171875 27.0928125 89.9171875 27.1875 88.8125 C28.40696124 84.59128803 31.11149738 82.22942788 34.74609375 79.86328125 C37.81976936 78.68601555 40.4709259 78.80941852 43.75 78.875 C44.92046875 78.89304687 46.0909375 78.91109375 47.296875 78.9296875 C48.18890625 78.95289063 49.0809375 78.97609375 50 79 C50.09410156 78.07832031 50.18820313 77.15664062 50.28515625 76.20703125 C51.06651992 72.70156909 51.66623364 71.82500482 54.4375 69.6875 C55.36369141 68.95080078 55.36369141 68.95080078 56.30859375 68.19921875 C60.01926777 65.56832516 63.57395135 65.42197126 68 66 C73.40286928 68.59753331 75.48316681 71.77273106 78 77 C78 77.66 78 78.32 78 79 C78.69867188 78.67386719 79.39734375 78.34773438 80.1171875 78.01171875 C83.30876295 76.8916401 85.75353615 76.76602619 89.125 76.8125 C90.67574219 76.82216797 90.67574219 76.82216797 92.2578125 76.83203125 C95 77 95 77 98 78 C99.6875 81.5625 99.6875 81.5625 101 85 C100.4423999 84.96970703 99.8847998 84.93941406 99.31030273 84.90820312 C93.78392824 84.61300901 88.25691556 84.35244393 82.72753906 84.12011719 C81.04939506 84.04621396 79.37152676 83.96512918 77.69433594 83.87207031 C69.12359703 83.40061923 62.05412245 83.63886694 55 89 C54.27296875 90.05960938 54.27296875 90.05960938 53.53125 91.140625 C52 93 52 93 49.765625 93.46875 C48.52039063 93.48421875 48.52039063 93.48421875 47.25 93.5 C42.45544874 93.85541005 38.469808 94.44556254 35 98 C32.09315346 102.76144094 29.76384039 107.70847883 28 113 C26.948125 113.11214844 26.948125 113.11214844 25.875 113.2265625 C18.96753838 114.18384658 13.89667638 115.87014855 9 121 C6.73536248 124.78677093 6.55812133 127.58121329 7 132 C8.54463531 136.39177392 10.47508557 139.48675033 13.8125 142.75 C14.8953125 143.86375 14.8953125 143.86375 16 145 C15.92611231 147.43829372 15.13697355 148.74317459 14 150.875 C12.74669887 153.5382649 12.39583319 156.09722329 12 159 C9.47542578 157.99107518 6.95156495 156.98049348 4.4296875 155.96484375 C3.16511719 155.45630859 3.16511719 155.45630859 1.875 154.9375 C1.02679688 154.59589844 0.17859375 154.25429688 -0.6953125 153.90234375 C-5.23274491 152.1258236 -9.36495447 151.69442164 -14.1875 151.4375 C-15.31188477 151.37272461 -15.31188477 151.37272461 -16.45898438 151.30664062 C-18.30578375 151.20077315 -20.15286834 151.0999024 -22 151 C-21.64815129 143.40006787 -20.19201681 137.19201681 -14.6875 131.6875 C-9.06344823 128.15611866 -4.68230238 126.59087945 2 127 C2 125.35 2 123.7 2 122 C0.35 122 -1.3 122 -3 122 C-3.43291828 117.56258766 -2.80704965 114.40768756 -0.3671875 110.61328125 C2.28047395 107.48904074 5.04031365 105.99293047 9 105 C13.68839494 104.69248162 18.30975428 104.76285274 23 105 C23 103.02 23 101.04 23 99 C12.19603332 99.47761438 4.05841427 100.32531974 -4 108 C-4.66 108.99 -5.32 109.98 -6 111 C-12.47298541 112.49066676 -17.49619873 110.20221165 -23 107 C-22.13973539 103.39906936 -21.36634885 100.94000917 -19 98 C-17.44497204 97.15408712 -15.85650255 96.36852546 -14.25 95.625 C-3.24470958 90.43382527 2.89032512 80.22036816 7 69 C8.66938968 62.15550232 9.65794362 53.3095831 6.3125 46.875 C3.23272911 43.04609565 1.51758707 42.44428007 -3.19140625 41.61328125 C-8.53836206 41.10285198 -11.60171419 41.95895886 -15.8125 45.3125 C-17.56082396 46.85353438 -19.28856106 48.41810229 -21 50 C-32.63522324 60.45289109 -44.06872102 67.91718852 -59.01000977 72.85058594 C-64.66419621 74.75720752 -69.34735029 77.22030253 -74 81 C-74.97582031 81.75925781 -75.95164062 82.51851563 -76.95703125 83.30078125 C-80.04176929 85.8901458 -82.23438408 88.78403739 -84.5 92.125 C-84.88019287 92.68469482 -85.26038574 93.24438965 -85.65209961 93.82104492 C-89.12683094 99.01810455 -92.15563744 104.43397288 -95 110 C-98.5055146 106.97251012 -99.75786338 103.79690861 -100.37109375 99.24609375 C-100.54889933 91.72596363 -100.54889933 91.72596363 -98.0625 88.4375 C-95.18787233 87.08818497 -93.5655048 86.83265077 -90.5 86.5 C-88.10263801 86.19740737 -88.10263801 86.19740737 -86 85 C-84.3117582 82.04992799 -83.26984648 79.18910729 -82.265625 75.9453125 C-80.71939373 72.34698417 -79.37175044 70.97670643 -76 69 C-72.66796875 68.609375 -72.66796875 68.609375 -69.1875 68.75 C-68.02605469 68.78609375 -66.86460938 68.8221875 -65.66796875 68.859375 C-64.78753906 68.90578125 -63.90710938 68.9521875 -63 69 C-63.0825 67.989375 -63.165 66.97875 -63.25 65.9375 C-62.93956475 61.04814476 -61.7270284 59.01033589 -59 55 C-55.55389094 53.27694547 -51.77537825 53.620565 -48 54 C-44.4375 55.5 -44.4375 55.5 -42 57 C-42.04640625 56.28714844 -42.0928125 55.57429688 -42.140625 54.83984375 C-42.46282162 46.29012634 -41.12661347 42.49882936 -35.375 36.0625 C-30.77567138 33.25179918 -27.26081618 33.11140175 -22 34 C-18.84987517 35.08416408 -15.92813064 36.41569743 -13 38 C-12.5978125 36.824375 -12.5978125 36.824375 -12.1875 35.625 C-11 33 -11 33 -8 31 C-8 33.97 -8 36.94 -8 40 C-6.35 40 -4.7 40 -3 40 C-2.98018066 39.35675781 -2.96036133 38.71351563 -2.93994141 38.05078125 C-2.84255951 35.03355645 -2.73378009 32.0168346 -2.625 29 C-2.5940625 27.989375 -2.563125 26.97875 -2.53125 25.9375 C-2.20077519 17.12483836 -1.10663679 8.8530943 0 0 Z " transform="translate(185,150)" style="fill: #BEDEE4;"/><path d="M0 0 C0.52464844 0.17015625 1.04929687 0.3403125 1.58984375 0.515625 C28.29847646 8.87040528 56.4693407 13.25388379 84 18 C84 18.66 84 19.32 84 20 C77.770878 20.1977499 71.85085601 19.79697976 65.6875 19 C49.35029491 16.99436835 36.80754129 17.94121903 23.15625 28.1796875 C17.2481096 33.16735675 12.64835501 38.66107661 11.68359375 46.60546875 C11.34885531 54.43402895 13.08271521 59.56790025 18.125 65.5 C24.71686358 68.93923317 32.19308427 67.04207472 39 65 C39.93618164 64.65300049 40.87236328 64.30600098 41.83691406 63.94848633 C47.37656138 62.28736176 53.00733223 62.67257623 58.75 62.6875 C59.97460938 62.67138672 61.19921875 62.65527344 62.4609375 62.63867188 C69.87263412 62.63470416 76.05073142 63.4478642 83 66 C90.1149571 68.13733691 96.93496069 69.49218423 104.34765625 70.1796875 C107 71 107 71 108.34765625 73.01953125 C109.2161581 76.98759657 109.36830725 80.76003818 109.375 84.8125 C109.39949219 85.58142578 109.42398438 86.35035156 109.44921875 87.14257812 C109.48525001 94.2587521 107.22607603 99.27924041 102.75 104.75 C94.86358769 111.20251916 86.8215171 112.66019474 76.77734375 112.3984375 C71.22691567 111.81297352 67.81735392 110.0331174 64 106 C61.8854089 103.14850594 60.37979966 100.26480155 59 97 C58.53980469 95.91525391 58.53980469 95.91525391 58.0703125 94.80859375 C55.88225886 88.98420333 55.33510319 83.18207609 55 77 C50.46964094 77.63439954 49.45274329 78.70233948 46.703125 82.3046875 C42.16743748 86.81956911 35.08404417 89.90390148 28.8125 91.0625 C22.89013665 90.96541208 18.28630858 89.32097829 13.1875 86.375 C8.48294272 81.26719495 6.73224625 75.88226311 7 69 C-3.25225479 69.65241621 -10.92126631 71.46794248 -19.95703125 76.37890625 C-28.99220871 81.19225496 -38.72081058 81.14562038 -48.4375 78.4375 C-57.07218398 75.54554982 -65.16194636 71.04523583 -72 65 C-72 64.34 -72 63.68 -72 63 C-70.4840625 62.6596875 -70.4840625 62.6596875 -68.9375 62.3125 C-66.10482838 61.63285725 -63.48600785 60.80221533 -60.76171875 59.75390625 C-52.69632364 56.69581337 -45.99065584 55.49724186 -37.34228516 55.92138672 C-26.90511741 56.39763433 -17.65695822 52.84197272 -9.6953125 46.02734375 C-0.25735871 36.2154333 2.23722983 24.64611323 2.16796875 11.47265625 C1.96872524 7.35341252 1.25264892 3.91452788 0 0 Z " transform="translate(209,325)" style="fill: #FBFBFB;"/><path d="M0 0 C9.16636027 5.93993382 14.65975451 13.66469441 17.1640625 24.40234375 C18.3138996 37.398177 16.73250848 48.11060812 8.15625 58.3984375 C0.24850348 66.35270018 -9.28982103 70.44876124 -20.3984375 70.77734375 C-27.80972646 70.72296322 -33.3510612 68.8822699 -39.8359375 65.40234375 C-40.50238281 65.05300781 -41.16882813 64.70367187 -41.85546875 64.34375 C-49.04813582 59.91124862 -55.19681886 51.22316627 -57.43359375 43.109375 C-59.3456937 30.24446951 -58.32131914 19.43006587 -50.6484375 8.65234375 C-37.85439201 -6.78217496 -17.12114218 -10.14913067 0 0 Z " transform="translate(341.8359375,180.59765625)" style="fill: #C5E3E9;"/><path d="M0 0 C11.45373734 -0.68722424 20.13535307 -0.67220456 30 6 C30.61101562 6.39445312 31.22203125 6.78890625 31.8515625 7.1953125 C38.64019674 12.17364428 43.55121874 20.78232268 45 29 C46.16129394 41.23229612 44.72322414 51.43973035 36.8125 61.375 C30.16863693 68.32283067 21.57124811 72.79388316 11.9140625 73.3359375 C3.87815299 73.50456837 -3.06617773 73.5516502 -10 69 C-11.02287109 68.36384766 -11.02287109 68.36384766 -12.06640625 67.71484375 C-21.82596673 61.06649041 -26.63260792 52.45873801 -29 41 C-30.3798096 31.41245702 -27.49608595 21.95947335 -21.8125 14.1875 C-18.13161121 9.83085409 -13.89768954 5.95190203 -9 3 C-8.01 3 -7.02 3 -6 3 C-3.70387244 12.41002278 -3.70387244 12.41002278 -4 17 C-4.556875 17.21914063 -5.11375 17.43828125 -5.6875 17.6640625 C-15.99576259 21.94756351 -21.85052867 26.59874237 -26.25 36.9375 C-26.62125 37.9584375 -26.62125 37.9584375 -27 39 C-25.02 39 -23.04 39 -21 39 C-20.9071875 37.6696875 -20.9071875 37.6696875 -20.8125 36.3125 C-19.55645918 31.19171821 -16.35185014 29.09435487 -12.375 25.875 C-7.79750291 23.33194606 -3.07395449 22.19174732 2 21 C1.67 19.7625 1.34 18.525 1 17.25 C-0.30171773 11.50227454 -0.17855667 5.8626108 0 0 Z " transform="translate(163,305)" style="fill: #C5E3E9;"/><path d="M0 0 C5.40286928 2.59753331 7.48316681 5.77273106 10 11 C10 11.66 10 12.32 10 13 C10.69867188 12.67386719 11.39734375 12.34773437 12.1171875 12.01171875 C15.30876295 10.8916401 17.75353615 10.76602619 21.125 10.8125 C22.67574219 10.82216797 22.67574219 10.82216797 24.2578125 10.83203125 C27 11 27 11 30 12 C31.6875 15.5625 31.6875 15.5625 33 19 C32.4423999 18.96970703 31.8847998 18.93941406 31.31030273 18.90820312 C25.78392824 18.61300901 20.25691556 18.35244393 14.72753906 18.12011719 C13.04939506 18.04621396 11.37152676 17.96512918 9.69433594 17.87207031 C1.12359703 17.40061923 -5.94587755 17.63886694 -13 23 C-13.4846875 23.70640625 -13.969375 24.4128125 -14.46875 25.140625 C-16 27 -16 27 -18.234375 27.46875 C-19.06453125 27.4790625 -19.8946875 27.489375 -20.75 27.5 C-25.54455126 27.85541005 -29.530192 28.44556254 -33 32 C-35.90684654 36.76144094 -38.23615961 41.70847883 -40 47 C-40.70125 47.07476562 -41.4025 47.14953125 -42.125 47.2265625 C-49.03246162 48.18384658 -54.10332362 49.87014855 -59 55 C-61.26463752 58.78677093 -61.44187867 61.58121329 -61 66 C-59.45536469 70.39177392 -57.52491443 73.48675033 -54.1875 76.75 C-53.465625 77.4925 -52.74375 78.235 -52 79 C-52.07388769 81.43829372 -52.86302645 82.74317459 -54 84.875 C-55.25330113 87.5382649 -55.60416681 90.09722329 -56 93 C-58.52457422 91.99107518 -61.04843505 90.98049348 -63.5703125 89.96484375 C-64.41335937 89.62582031 -65.25640625 89.28679687 -66.125 88.9375 C-67.39730469 88.42509766 -67.39730469 88.42509766 -68.6953125 87.90234375 C-73.23274491 86.1258236 -77.36495447 85.69442164 -82.1875 85.4375 C-83.31188477 85.37272461 -83.31188477 85.37272461 -84.45898438 85.30664062 C-86.30578375 85.20077315 -88.15286834 85.0999024 -90 85 C-89.64815129 77.40006787 -88.19201681 71.19201681 -82.6875 65.6875 C-77.06344823 62.15611866 -72.68230238 60.59087945 -66 61 C-66 59.35 -66 57.7 -66 56 C-67.65 56 -69.3 56 -71 56 C-71.43291828 51.56258766 -70.80704965 48.40768756 -68.3671875 44.61328125 C-65.71952605 41.48904074 -62.95968635 39.99293047 -59 39 C-54.31160506 38.69248162 -49.69024572 38.76285274 -45 39 C-45 37.02 -45 35.04 -45 33 C-55.80396668 33.47761438 -63.94158573 34.32531974 -72 42 C-72.66 42.99 -73.32 43.98 -74 45 C-80.47298541 46.49066676 -85.49619873 44.20221165 -91 41 C-90.13973539 37.39906936 -89.36634885 34.94000917 -87 32 C-85.44497204 31.15408712 -83.85650255 30.36852546 -82.25 29.625 C-75.56625144 26.51175468 -71.37499667 22.31145977 -67.5625 16.0625 C-65 13 -65 13 -61.3125 12.1875 C-55.79139067 12.6511046 -49.89394798 16.10605202 -46 20 C-45.95936168 21.66617115 -45.957279 23.33388095 -46 25 C-44.35 25 -42.7 25 -41 25 C-40.938125 24.278125 -40.87625 23.55625 -40.8125 22.8125 C-39.59303876 18.59128803 -36.88850262 16.22942788 -33.25390625 13.86328125 C-30.18023064 12.68601555 -27.5290741 12.80941852 -24.25 12.875 C-23.07953125 12.89304688 -21.9090625 12.91109375 -20.703125 12.9296875 C-19.36507812 12.96449219 -19.36507812 12.96449219 -18 13 C-17.85884766 11.61748047 -17.85884766 11.61748047 -17.71484375 10.20703125 C-16.93348008 6.70156909 -16.33376636 5.82500482 -13.5625 3.6875 C-12.94503906 3.19636719 -12.32757813 2.70523438 -11.69140625 2.19921875 C-7.98073223 -0.43167484 -4.42604865 -0.57802874 0 0 Z " transform="translate(253,216)" style="fill: #F9F9F9;"/><path d="M0 0 C4.28822249 4.09330329 7.30096071 9.08952613 8.05859375 15.0546875 C8.0625 17.25 8.0625 17.25 7.75 20.625 C8.33007812 20.63917969 8.91015625 20.65335938 9.5078125 20.66796875 C13.50724118 20.91215829 16.94386724 21.26827529 20.3125 23.5625 C23.35545669 27.385702 23.29639978 29.57860436 23.05859375 34.3203125 C22.75 36.625 22.75 36.625 21.75 39.625 C22.78125 39.5425 23.8125 39.46 24.875 39.375 C29.50883949 39.67395739 31.26100979 40.60120848 34.75 43.625 C38.03954556 47.64781888 39.37786393 51.45022085 39.06640625 56.64453125 C38.28759956 61.51928426 36.52535003 65.2165666 32.875 68.5 C29.83205729 70.56920105 28.36181599 71.44247331 24.75 71.625 C22.78515625 70.10546875 22.78515625 70.10546875 20.8125 67.8125 C6.62552413 52.7896303 -13.64785585 42.58800519 -33.25 36.625 C-31.91705944 33.74330945 -30.38587717 31.44847739 -28.375 29 C-23.35770067 22.35513771 -21.30696199 15.92450835 -20.4375 7.6875 C-19.984375 4.3671875 -19.984375 4.3671875 -19.25 1.625 C-13.67768657 -2.58266524 -6.31200335 -2.67046295 0 0 Z " transform="translate(382.25,209.375)" style="fill: #FBFBFB;"/><path d="M0 0 C0.3155187 3.58077037 0.14900672 6.57753127 -1 10 C-3.466997 12.42691943 -6.06351729 14.14316403 -8.9765625 16.0078125 C-11.91350764 17.94300891 -14.28060576 20.00654507 -16.8125 22.4375 C-26.71131762 31.5481952 -38.19651339 37.8920514 -51 41.875 C-56.72204524 43.73138872 -61.2682064 46.31682733 -66 50 C-66.98226562 50.76183594 -67.96453125 51.52367187 -68.9765625 52.30859375 C-72.05029562 54.89616039 -74.2400537 57.79239802 -76.5 61.125 C-76.88019287 61.68469482 -77.26038574 62.24438965 -77.65209961 62.82104492 C-81.12683094 68.01810455 -84.15563744 73.43397288 -87 79 C-90.5055146 75.97251012 -91.75786338 72.79690861 -92.37109375 68.24609375 C-92.54889933 60.72596363 -92.54889933 60.72596363 -90.0625 57.4375 C-87.18787233 56.08818497 -85.5655048 55.83265077 -82.5 55.5 C-80.10263801 55.19740737 -80.10263801 55.19740737 -78 54 C-76.3117582 51.04992799 -75.26984648 48.18910729 -74.265625 44.9453125 C-72.71939373 41.34698417 -71.37175044 39.97670643 -68 38 C-64.66796875 37.609375 -64.66796875 37.609375 -61.1875 37.75 C-60.02605469 37.78609375 -58.86460938 37.8221875 -57.66796875 37.859375 C-56.78753906 37.90578125 -55.90710938 37.9521875 -55 38 C-55.0825 36.989375 -55.165 35.97875 -55.25 34.9375 C-54.93956475 30.04814476 -53.7270284 28.01033589 -51 24 C-47.55389094 22.27694547 -43.77537825 22.620565 -40 23 C-36.4375 24.5 -36.4375 24.5 -34 26 C-34.04640625 25.28714844 -34.0928125 24.57429688 -34.140625 23.83984375 C-34.46282162 15.29012634 -33.12661347 11.49882936 -27.375 5.0625 C-22.77567138 2.25179918 -19.26081618 2.11140175 -14 3 C-10.84987517 4.08416408 -7.92813064 5.41569743 -5 7 C-4.71125 6.21625 -4.4225 5.4325 -4.125 4.625 C-2.14285714 0 -2.14285714 0 0 0 Z " transform="translate(177,181)" style="fill: #F8F8F8;"/><path d="M0 0 C6.68416238 0 9.72598355 1.18709627 15 5 C17.88979024 8.31268637 18.92548774 9.99408444 19.25 14.375 C19.1675 15.24125 19.085 16.1075 19 17 C20.98 17 22.96 17 25 17 C24.67 14.36 24.34 11.72 24 9 C32.69467956 4.05683192 32.69467956 4.05683192 38 5 C40.875 7 40.875 7 43 9 C42.48555665 13.11554683 40.97749587 16.24319205 39.03515625 19.83984375 C36.24354977 25.66534709 35.73524383 30.53222009 35.875 36.875 C35.88402344 37.65875 35.89304687 38.4425 35.90234375 39.25 C35.92571937 41.16680055 35.96158347 43.08344191 36 45 C22.43083276 46.0752925 22.43083276 46.0752925 19.06640625 43.546875 C17.91142543 41.74434756 16.95656015 39.91312029 16 38 C11.1136684 33.83224658 6.94655749 34.26301045 0 33 C0 22.11 0 11.22 0 0 Z " transform="translate(245,177)" style="fill: #FBFBFB;"/><path d="M0 0 C4.51846921 3.04505534 8.13526194 6.71828583 9.875 11.9375 C10.46217652 17.92670055 9.18067074 22.03231116 5.875 26.9375 C0.76134368 31.80170967 -3.57162891 32.29590084 -10.3984375 32.21484375 C-14.27453489 31.82057023 -16.28640409 30.56839377 -19.125 27.9375 C-23.17499401 22.57399442 -24.68717075 18.683549 -24.125 11.9375 C-21.68011774 6.48353187 -18.94658982 3.42545859 -14.125 -0.0625 C-9.19058151 -1.70730616 -4.86089501 -1.6527043 0 0 Z " transform="translate(378.125,301.0625)" style="fill: #C2E0E5;"/><path d="M0 0 C13.03751359 3.00719292 25.0403124 11.37133056 35 20 C32.3230555 22.6769445 30.85215136 22.31857257 27.109375 22.44921875 C25.33240234 22.51399414 25.33240234 22.51399414 23.51953125 22.58007812 C21.65361328 22.63325195 21.65361328 22.63325195 19.75 22.6875 C17.90728516 22.75807617 17.90728516 22.75807617 16.02734375 22.83007812 C10.50203127 23.01265887 5.44718346 23.04219563 0 22 C-0.845625 21.86980469 -1.69125 21.73960937 -2.5625 21.60546875 C-9.31059121 20.44834414 -13.79058656 18.77754833 -18.1875 13.25 C-19.13132701 9.47469194 -18.79538064 8.95256832 -16.875 5.75 C-12.36205036 -0.82819779 -7.45113036 -0.7518605 0 0 Z " transform="translate(69,175)" style="fill: #020202;"/><path d="M0 0 C0.66 0 1.32 0 2 0 C7.09649743 9.1328629 12.06514746 18.26875629 15.625 28.125 C15.8720166 28.78556396 16.1190332 29.44612793 16.37353516 30.12670898 C18.4092619 36.07183761 19.28709238 42.25793363 16.5625 48.0625 C13.31131546 50.5207127 11.19175111 50.72666099 7.18359375 50.4765625 C3.5232029 49.67769366 2.13009228 48.00718911 0 45 C-2.89488935 38.6551333 -3.47668926 33.3681072 -3.375 26.4375 C-3.36919922 25.4789209 -3.36339844 24.5203418 -3.35742188 23.53271484 C-3.21073884 15.41217882 -2.05491488 7.85271042 0 0 Z " transform="translate(313,329)" style="fill: #0A0A0A;"/><path d="M0 0 C1.47668858 0.0133035 2.95331108 0.03716415 4.4296875 0.0703125 C5.18378906 0.07933594 5.93789062 0.08835937 6.71484375 0.09765625 C8.57826004 0.1212438 10.44151343 0.15711531 12.3046875 0.1953125 C12.81734551 1.71192577 13.31413073 3.23390697 13.8046875 4.7578125 C14.083125 5.60472656 14.3615625 6.45164062 14.6484375 7.32421875 C15.3046875 10.1953125 15.3046875 10.1953125 15.3046875 17.1953125 C10.0246875 18.5153125 4.7446875 19.8353125 -0.6953125 21.1953125 C-6.07815769 9.21414095 -6.07815769 9.21414095 -5.6953125 2.1953125 C-3.6953125 0.1953125 -3.6953125 0.1953125 0 0 Z " transform="translate(241.6953125,365.8046875)" style="fill: #F8F8F8;"/><path d="M0 0 C4.51846921 3.04505534 8.13526194 6.71828583 9.875 11.9375 C10.46217652 17.92670055 9.18067074 22.03231116 5.875 26.9375 C0.76134368 31.80170967 -3.57162891 32.29590084 -10.3984375 32.21484375 C-14.27453489 31.82057023 -16.28640409 30.56839377 -19.125 27.9375 C-23.17499401 22.57399442 -24.68717075 18.683549 -24.125 11.9375 C-21.68011774 6.48353187 -18.94658982 3.42545859 -14.125 -0.0625 C-9.19058151 -1.70730616 -4.86089501 -1.6527043 0 0 Z M-19.5 9.8125 C-20.86991124 14.47019822 -20.67523195 18.40228862 -18.4375 22.6875 C-16.09649068 25.97756715 -14.84499535 27.46680417 -11.125 28.9375 C-6.15116592 29.58225627 -2.7844658 28.85564102 1.36328125 26.19921875 C4.92285797 23.22830588 5.75629128 19.88716977 6.3125 15.4375 C5.66944627 10.29307016 3.58099107 7.39977806 -0.3125 4.0625 C-8.54135041 0.77095984 -14.32727564 2.75878497 -19.5 9.8125 Z " transform="translate(378.125,301.0625)" style="fill: #121212;"/><path d="M0 0 C1.65 0 3.3 0 5 0 C5.43126339 6.67088887 5.85802182 13.34205529 6.28173828 20.01342773 C6.42622315 22.28009473 6.57171641 24.5466977 6.71826172 26.81323242 C6.92945084 30.08235376 7.13694051 33.35169278 7.34375 36.62109375 C7.40937134 37.62458359 7.47499268 38.62807343 7.54260254 39.66197205 C7.90493732 45.4552276 8.06283762 51.19537485 8 57 C6.02 57 4.04 57 2 57 C1.71171379 50.6504615 1.42731773 44.30075694 1.14550781 37.95092773 C1.04937896 35.794964 0.95238986 33.63903843 0.85449219 31.4831543 C0.71317897 28.36777454 0.57505549 25.25226642 0.4375 22.13671875 C0.39375244 21.18729904 0.35000488 20.23787933 0.30493164 19.25968933 C0.02538593 12.83593838 -0.04908416 6.4294899 0 0 Z " transform="translate(212,159)" style="fill: #0A0A0A;"/><path d="M0 0 C1.65 0 3.3 0 5 0 C5.72020917 6.06393132 6.43196294 12.12877658 7.13623047 18.19458008 C7.37647678 20.25376507 7.61894693 22.31269197 7.86376953 24.37133789 C8.21726007 27.34715114 8.56248159 30.32383107 8.90625 33.30078125 C9.07030334 34.65928947 9.07030334 34.65928947 9.2376709 36.04524231 C9.95888118 42.3859069 10.12082288 48.62107928 10 55 C8.35 55 6.7 55 5 55 C4.27979083 48.93606868 3.56803706 42.87122342 2.86376953 36.80541992 C2.62352322 34.74623493 2.38105307 32.68730803 2.13623047 30.62866211 C1.78273993 27.65284886 1.43751841 24.67616893 1.09375 21.69921875 C0.9843811 20.7935466 0.87501221 19.88787445 0.7623291 18.95475769 C0.04111882 12.6140931 -0.12082288 6.37892072 0 0 Z " transform="translate(226,156)" style="fill: #080909;"/><path d="M0 0 C0.66 1.65 1.32 3.3 2 5 C1.071875 5.350625 0.14375 5.70125 -0.8125 6.0625 C-4.76787037 8.46674474 -5.89828523 10.67339829 -7 15 C-7.80115135 19.31815538 -8.44322107 23.64402366 -9 28 C-15.15234375 28.09765625 -15.15234375 28.09765625 -17 28 C-17.33 27.67 -17.66 27.34 -18 27 C-17.53153057 18.56755017 -15.22497618 9.03634054 -9 3 C-5.54072205 0.49202349 -4.38746624 0 0 0 Z " transform="translate(310,182)" style="fill: #FDFEFE;"/><path d="M0 0 C10.02329811 -0.24892297 19.57923346 4.00509742 27.109375 10.50390625 C4.98691174 11.16100912 4.98691174 11.16100912 -1.890625 7.50390625 C-3.171875 5.39453125 -3.171875 5.39453125 -3.890625 3.50390625 C-1.890625 0.50390625 -1.890625 0.50390625 0 0 Z " transform="translate(60.890625,180.49609375)" style="fill: #B8D6DC;"/><path d="M0 0 C0.33 0 0.66 0 1 0 C0.03901734 20.83815029 0.03901734 20.83815029 -5 30 C-7.4375 29.625 -7.4375 29.625 -10 29 C-11.78302256 25.43395488 -10.8841701 21.7361578 -10 18 C-7.36782513 11.65515872 -4.12767311 5.50356415 0 0 Z " transform="translate(130,409)" style="fill: #B8D7DD;"/><path d="M0 0 C2.55326901 3.11319643 4.09686122 6.22027897 5.625 9.9375 C6.05039062 10.95714844 6.47578125 11.97679687 6.9140625 13.02734375 C8.49970876 17.36790778 9.13129278 21.2033838 9.0625 25.8125 C9.05347656 26.60269531 9.04445313 27.39289063 9.03515625 28.20703125 C9.02355469 28.79871094 9.01195312 29.39039063 9 30 C6.6875 30.25 6.6875 30.25 4 30 C-0.03252705 26.26617866 -0.89409436 21.12340803 -1.15625 15.8671875 C-1.20568712 10.44146382 -1.00431429 5.34295204 0 0 Z " transform="translate(316,344)" style="fill: #B9D9DE;"/><path d="M0 0 C1.8125 0.875 1.8125 0.875 3.8125 3.875 C3.9375 6.5625 3.9375 6.5625 3.8125 8.875 C3.255625 9.09414063 2.69875 9.31328125 2.125 9.5390625 C-3.0324714 11.68220095 -7.23029234 14.17053152 -11.55859375 17.703125 C-13.1875 18.875 -13.1875 18.875 -15.1875 18.875 C-15.03927705 11.90852154 -11.87162368 7.86742057 -7.1875 2.875 C-3.31210815 -0.18926332 -3.31210815 -0.18926332 0 0 Z " transform="translate(155.1875,313.125)" style="fill: #F8F9FA;"/><path d="M0 0 C1.65 0 3.3 0 5 0 C4.86105043 4.08359816 4.71265062 8.16679956 4.5625 12.25 C4.50352539 13.98830078 4.50352539 13.98830078 4.44335938 15.76171875 C4.40146484 16.87675781 4.35957031 17.99179688 4.31640625 19.140625 C4.27974854 20.16704102 4.24309082 21.19345703 4.20532227 22.25097656 C4.02717872 24.63610887 3.67222637 26.71299499 3 29 C1.35 29 -0.3 29 -2 29 C-2.27538262 19.07092668 -1.53653322 9.79539929 0 0 Z " transform="translate(193,158)" style="fill: #0E0F0F;"/><path d="M0 0 C0.99 0.33 1.98 0.66 3 1 C3.83072342 8.4765108 1.59522271 13.11489022 -3 19 C-5.30273516 21.30273516 -7.05342648 22.44635215 -10 24 C-12.9375 23.8125 -12.9375 23.8125 -15 23 C-14.875 21.3125 -14.875 21.3125 -14 19 C-12.5683135 17.86796881 -11.13509484 16.73777817 -9.69140625 15.62109375 C-5.31122904 11.42300243 -2.64382434 5.39988651 0 0 Z " transform="translate(350,215)" style="fill: #FCFDFD;"/><path d="M0 0 C0.66 0.33 1.32 0.66 2 1 C2.63500793 7.09607617 2.06256927 11.15403333 -1.5078125 16.20703125 C-4.48362022 19.78267456 -7.27850971 22.51349188 -11.875 23.8125 C-12.57625 23.874375 -13.2775 23.93625 -14 24 C-14.33 22.35 -14.66 20.7 -15 19 C-14.50371094 18.63390625 -14.00742188 18.2678125 -13.49609375 17.890625 C-7.21701939 12.88642912 -3.70677381 7.05445391 0 0 Z " transform="translate(198,343)" style="fill: #FDFEFE;"/><path d="M0 0 C0.33 2.31 0.66 4.62 1 7 C0.29875 6.7525 -0.4025 6.505 -1.125 6.25 C-5.30812983 5.88624958 -6.81407745 7.34506454 -10 10 C-14.26760495 14.4317436 -15.57911092 18.6244486 -16.53125 24.62109375 C-17.14402814 27.73094283 -18.41958647 30.27019481 -20 33 C-20.33 33 -20.66 33 -21 33 C-21.33 34.65 -21.66 36.3 -22 38 C-22.33 38 -22.66 38 -23 38 C-23.87009168 27.07551555 -21.12190014 17.47162802 -14.00390625 9.046875 C-5.14694656 0 -5.14694656 0 0 0 Z " transform="translate(157,308)" style="fill: #B5D0D5;"/><path d="M0 0 C-0.31555775 5.20670288 -3.30128397 8.57730756 -7 12 C-9.88211302 12.96070434 -11.69850044 13.10581883 -14.6875 13.0625 C-15.89986328 13.04896484 -15.89986328 13.04896484 -17.13671875 13.03515625 C-18.05904297 13.01775391 -18.05904297 13.01775391 -19 13 C-19 10 -19 10 -16.62109375 7.51953125 C-15.56809026 6.60763821 -14.5064595 5.70563541 -13.4375 4.8125 C-12.92380859 4.34908203 -12.41011719 3.88566406 -11.88085938 3.40820312 C-7.88509614 0.0378637 -5.13997237 -0.49908937 0 0 Z " transform="translate(183,196)" style="fill: #F3F4F3;"/><path d="M0 0 C0 0.99 0 1.98 0 3 C-0.639375 3.28875 -1.27875 3.5775 -1.9375 3.875 C-4.15206079 4.82823451 -4.15206079 4.82823451 -5 7 C-5.06996014 8.70702735 -5.08440154 10.41668003 -5.0625 12.125 C-5.04896484 13.49011719 -5.04896484 13.49011719 -5.03515625 14.8828125 C-5.02355469 15.58148438 -5.01195312 16.28015625 -5 17 C-6.98 17 -8.96 17 -11 17 C-13.40399488 13.60612488 -13.10095326 10.82234586 -12.48046875 6.90234375 C-11.83872552 4.36145794 -10.88540208 2.81288662 -9 1 C-5.8035914 -0.06546953 -3.34252724 -0.07427838 0 0 Z " transform="translate(374,307)" style="fill: #FCFDFD;"/><path d="M0 0 C0.33 2.31 0.66 4.62 1 7 C0.29875 6.7525 -0.4025 6.505 -1.125 6.25 C-5.20314681 5.89537854 -6.87257528 7.49806023 -10 10 C-10.99 11.485 -10.99 11.485 -12 13 C-14.625 14.1875 -14.625 14.1875 -17 15 C-15.64570715 10.80535243 -13.90616086 8.65104297 -10.5625 5.8125 C-9.78003906 5.13832031 -8.99757812 4.46414063 -8.19140625 3.76953125 C-3.52317881 0 -3.52317881 0 0 0 Z " transform="translate(157,308)" style="fill: #BEDAE0;"/><path d="M0 0 C0.33 0 0.66 0 1 0 C1 1.65 1 3.3 1 5 C1.99 4.67 2.98 4.34 4 4 C4 7.63 4 11.26 4 15 C3.01 15.33 2.02 15.66 1 16 C-0.14077657 12.57767028 -0.09815117 9.91326783 -0.0625 6.3125 C-0.05347656 5.13300781 -0.04445313 3.95351562 -0.03515625 2.73828125 C-0.02355469 1.83464844 -0.01195312 0.93101562 0 0 Z " transform="translate(280,205)" style="fill: #1C1C1C;"/><path d="M0 0 C0 1.65 0 3.3 0 5 C-6.75 8 -6.75 8 -9 8 C-7.73071426 4.44599992 -4.13162074 0 0 0 Z " transform="translate(159,317)" style="fill: #B8D3D8;"/><path d="M0 0 C0 2.31 0 4.62 0 7 C-1.65 6.67 -3.3 6.34 -5 6 C-4.6875 4.125 -4.6875 4.125 -4 2 C-1 0 -1 0 0 0 Z " transform="translate(148,335)" style="fill: #F5F6F6;"/><path d="M0 0 C2.31 0.33 4.62 0.66 7 1 C7 1.66 7 2.32 7 3 C3.7 3 0.4 3 -3 3 C-2.01 2.67 -1.02 2.34 0 2 C0 1.34 0 0.68 0 0 Z " transform="translate(286,342)" style="fill: #C6C5C4;"/></svg>