<?xml version="1.0" encoding="utf-8" ?>
<svg baseProfile="full" height="500" version="1.1" viewBox="0 0 500 500" width="500" xmlns="http://www.w3.org/2000/svg" xmlns:ev="http://www.w3.org/2001/xml-events" xmlns:xlink="http://www.w3.org/1999/xlink"><defs /><path d="M 163,10 L 162,11 L 159,11 L 158,12 L 157,12 L 156,13 L 155,13 L 153,15 L 152,15 L 149,18 L 149,19 L 147,21 L 142,21 L 141,22 L 139,22 L 138,23 L 136,23 L 135,24 L 134,24 L 133,25 L 132,25 L 131,26 L 130,26 L 124,32 L 124,33 L 123,34 L 123,35 L 122,36 L 122,38 L 121,39 L 121,45 L 120,46 L 120,49 L 121,50 L 121,56 L 122,57 L 122,58 L 121,59 L 120,59 L 120,61 L 118,63 L 118,64 L 117,65 L 117,66 L 116,67 L 116,68 L 115,69 L 115,70 L 114,71 L 114,72 L 113,73 L 113,80 L 112,81 L 113,82 L 112,83 L 113,84 L 113,87 L 114,88 L 114,90 L 115,91 L 115,92 L 116,93 L 116,94 L 122,100 L 122,101 L 123,101 L 124,102 L 125,102 L 127,104 L 128,104 L 129,105 L 129,116 L 130,117 L 130,122 L 131,123 L 131,125 L 132,126 L 132,127 L 133,128 L 133,129 L 139,135 L 137,137 L 136,137 L 134,139 L 134,140 L 131,143 L 131,144 L 130,145 L 130,146 L 129,147 L 129,148 L 128,149 L 128,150 L 127,151 L 127,153 L 126,154 L 126,156 L 125,157 L 125,159 L 124,160 L 124,161 L 123,162 L 123,164 L 122,165 L 122,166 L 121,167 L 121,168 L 120,169 L 120,171 L 119,172 L 119,174 L 118,175 L 118,176 L 117,177 L 117,178 L 116,179 L 116,181 L 114,183 L 114,186 L 113,187 L 113,188 L 112,189 L 112,190 L 111,191 L 111,193 L 110,194 L 110,195 L 109,196 L 109,197 L 108,198 L 108,200 L 107,201 L 107,202 L 106,203 L 106,204 L 105,205 L 105,206 L 104,207 L 104,209 L 103,210 L 103,211 L 102,212 L 102,213 L 101,214 L 101,215 L 100,216 L 100,218 L 99,219 L 99,220 L 98,221 L 98,222 L 97,223 L 97,224 L 96,225 L 96,226 L 95,227 L 95,228 L 94,229 L 94,230 L 93,231 L 93,233 L 92,234 L 92,235 L 91,236 L 91,237 L 90,238 L 90,239 L 89,240 L 89,241 L 88,242 L 88,243 L 87,244 L 87,245 L 86,246 L 86,247 L 84,249 L 84,250 L 83,251 L 83,252 L 82,253 L 82,254 L 81,255 L 81,256 L 80,257 L 79,257 L 79,259 L 78,260 L 78,261 L 76,263 L 76,264 L 74,266 L 74,267 L 72,269 L 72,270 L 73,270 L 75,272 L 76,272 L 77,273 L 77,274 L 76,275 L 76,276 L 75,277 L 75,280 L 74,281 L 74,288 L 75,289 L 75,291 L 77,293 L 77,294 L 80,297 L 81,297 L 83,299 L 84,299 L 85,300 L 85,301 L 86,300 L 87,300 L 88,301 L 91,301 L 92,300 L 94,300 L 95,299 L 96,299 L 99,296 L 99,295 L 101,293 L 101,292 L 103,290 L 106,293 L 108,293 L 109,292 L 109,291 L 111,289 L 111,288 L 112,287 L 112,286 L 114,284 L 114,283 L 115,282 L 115,281 L 117,279 L 117,278 L 118,277 L 118,276 L 120,274 L 121,275 L 121,277 L 120,278 L 120,281 L 119,282 L 119,285 L 118,286 L 118,288 L 117,289 L 117,292 L 116,293 L 116,296 L 115,297 L 115,300 L 114,301 L 114,302 L 113,303 L 113,307 L 112,308 L 112,311 L 111,312 L 111,314 L 110,315 L 110,316 L 109,317 L 110,318 L 109,319 L 109,322 L 108,323 L 108,325 L 107,326 L 107,329 L 106,330 L 106,333 L 105,334 L 105,337 L 104,338 L 104,340 L 103,341 L 103,344 L 102,345 L 102,348 L 101,349 L 101,350 L 100,351 L 100,355 L 99,356 L 99,358 L 98,359 L 98,362 L 131,362 L 132,363 L 132,369 L 131,370 L 131,381 L 130,382 L 130,386 L 129,387 L 130,388 L 130,392 L 129,393 L 129,394 L 128,395 L 129,396 L 129,404 L 128,405 L 128,415 L 127,416 L 127,427 L 126,428 L 126,432 L 125,433 L 126,434 L 125,435 L 126,436 L 126,438 L 125,439 L 125,449 L 124,450 L 124,461 L 123,462 L 123,470 L 122,471 L 122,472 L 121,473 L 122,474 L 122,480 L 123,481 L 123,485 L 127,489 L 130,489 L 132,491 L 133,490 L 134,490 L 135,491 L 141,491 L 142,492 L 145,492 L 146,491 L 149,491 L 150,490 L 152,490 L 152,489 L 156,485 L 156,484 L 157,483 L 161,483 L 162,482 L 163,482 L 164,481 L 165,481 L 166,480 L 167,480 L 167,469 L 168,468 L 168,428 L 169,427 L 169,409 L 170,408 L 169,407 L 169,399 L 170,398 L 169,397 L 170,396 L 169,395 L 169,387 L 170,386 L 170,367 L 171,366 L 170,365 L 170,363 L 171,362 L 191,362 L 192,363 L 192,364 L 191,365 L 192,366 L 192,370 L 193,371 L 193,408 L 192,409 L 193,410 L 193,411 L 194,412 L 194,428 L 193,429 L 194,430 L 194,452 L 195,453 L 195,456 L 194,457 L 195,458 L 195,476 L 194,477 L 199,482 L 200,482 L 201,483 L 206,483 L 207,484 L 207,485 L 208,486 L 208,487 L 209,488 L 209,489 L 211,489 L 213,491 L 217,491 L 218,492 L 220,492 L 221,491 L 227,491 L 228,490 L 231,490 L 232,489 L 234,489 L 235,488 L 237,488 L 237,487 L 239,485 L 239,483 L 240,482 L 240,468 L 238,466 L 238,463 L 239,462 L 240,462 L 239,462 L 238,461 L 238,460 L 239,459 L 238,458 L 238,457 L 239,456 L 239,455 L 238,456 L 237,455 L 237,444 L 238,443 L 238,442 L 238,443 L 237,444 L 236,443 L 236,434 L 235,433 L 235,423 L 236,422 L 236,421 L 235,422 L 234,421 L 234,415 L 235,414 L 234,413 L 235,412 L 234,411 L 234,410 L 233,409 L 233,406 L 235,404 L 234,403 L 234,400 L 232,398 L 232,397 L 233,396 L 233,395 L 234,394 L 233,393 L 233,389 L 232,388 L 232,383 L 233,382 L 232,381 L 232,377 L 231,376 L 231,371 L 232,370 L 231,369 L 231,366 L 230,365 L 231,364 L 230,363 L 231,362 L 266,362 L 266,359 L 265,358 L 265,355 L 264,354 L 264,350 L 263,349 L 263,346 L 262,345 L 262,341 L 261,340 L 261,337 L 260,336 L 260,333 L 259,332 L 259,328 L 258,327 L 258,324 L 257,323 L 257,319 L 256,318 L 256,315 L 255,314 L 255,310 L 254,309 L 254,306 L 253,305 L 254,304 L 253,303 L 253,302 L 252,301 L 252,297 L 251,296 L 251,293 L 250,292 L 250,291 L 251,290 L 250,289 L 250,288 L 249,287 L 249,284 L 250,283 L 251,284 L 251,285 L 253,287 L 253,288 L 255,290 L 255,291 L 257,293 L 257,294 L 259,296 L 259,297 L 261,299 L 261,300 L 264,303 L 264,305 L 265,305 L 267,307 L 267,309 L 268,309 L 269,310 L 269,311 L 272,314 L 272,315 L 273,315 L 275,317 L 275,319 L 276,319 L 281,324 L 281,325 L 282,326 L 282,327 L 284,329 L 284,330 L 288,334 L 288,335 L 301,348 L 302,348 L 304,350 L 305,350 L 307,352 L 308,352 L 310,354 L 312,354 L 313,355 L 314,355 L 316,357 L 321,357 L 322,358 L 329,358 L 330,359 L 331,358 L 332,358 L 333,359 L 334,358 L 336,358 L 337,357 L 338,358 L 338,363 L 339,364 L 339,369 L 340,370 L 340,376 L 341,377 L 341,385 L 342,386 L 342,388 L 341,389 L 341,394 L 340,395 L 341,396 L 341,401 L 340,402 L 340,414 L 339,415 L 339,420 L 338,421 L 339,422 L 339,428 L 338,429 L 338,435 L 337,436 L 337,442 L 336,443 L 336,448 L 335,449 L 335,455 L 334,456 L 334,461 L 333,462 L 333,464 L 332,465 L 333,466 L 333,474 L 334,475 L 334,477 L 336,479 L 336,480 L 337,480 L 339,482 L 342,482 L 343,483 L 344,483 L 346,481 L 347,481 L 349,479 L 350,479 L 353,476 L 353,475 L 355,473 L 355,472 L 357,470 L 357,467 L 358,466 L 358,464 L 359,463 L 359,460 L 360,459 L 360,457 L 361,456 L 361,453 L 362,452 L 363,452 L 362,451 L 362,450 L 363,449 L 363,447 L 364,446 L 364,443 L 365,442 L 365,439 L 366,438 L 366,436 L 367,435 L 367,432 L 368,431 L 369,432 L 369,434 L 370,435 L 370,441 L 371,442 L 371,446 L 372,447 L 372,448 L 371,449 L 372,450 L 372,451 L 373,452 L 373,456 L 374,457 L 374,460 L 375,461 L 375,464 L 376,465 L 376,467 L 377,468 L 377,470 L 378,471 L 378,473 L 379,474 L 379,476 L 380,477 L 380,479 L 381,480 L 380,481 L 382,483 L 382,485 L 383,486 L 382,487 L 383,487 L 386,490 L 387,490 L 388,491 L 397,491 L 398,490 L 399,490 L 400,489 L 401,489 L 402,488 L 403,488 L 404,487 L 404,479 L 405,478 L 404,477 L 404,473 L 403,472 L 403,459 L 402,458 L 402,453 L 403,452 L 402,451 L 402,445 L 401,444 L 401,439 L 402,438 L 401,437 L 401,431 L 400,430 L 400,429 L 401,428 L 400,427 L 400,423 L 401,422 L 400,421 L 400,418 L 399,417 L 399,402 L 400,401 L 401,402 L 401,404 L 402,405 L 402,406 L 403,407 L 403,408 L 404,409 L 404,411 L 405,411 L 406,412 L 406,413 L 407,413 L 408,414 L 408,415 L 409,415 L 410,416 L 412,416 L 413,417 L 413,418 L 414,417 L 415,417 L 417,419 L 418,418 L 420,418 L 421,417 L 422,417 L 424,415 L 424,414 L 425,413 L 425,412 L 426,411 L 426,409 L 427,408 L 426,407 L 426,405 L 425,404 L 425,401 L 424,400 L 424,398 L 423,397 L 423,396 L 422,395 L 422,392 L 421,391 L 421,390 L 420,389 L 420,387 L 419,386 L 419,384 L 418,383 L 418,380 L 417,379 L 417,376 L 416,375 L 416,371 L 415,370 L 415,366 L 414,365 L 414,361 L 413,360 L 413,356 L 412,355 L 412,351 L 411,350 L 411,345 L 410,344 L 410,339 L 409,338 L 409,332 L 408,331 L 408,328 L 404,324 L 403,324 L 402,323 L 402,322 L 401,322 L 399,320 L 407,312 L 407,311 L 408,310 L 408,309 L 409,308 L 409,307 L 410,306 L 410,304 L 412,302 L 411,301 L 411,300 L 412,299 L 412,297 L 413,296 L 412,295 L 413,294 L 412,293 L 412,289 L 411,288 L 411,284 L 410,283 L 410,282 L 409,281 L 409,280 L 408,279 L 408,278 L 406,276 L 406,275 L 401,270 L 400,270 L 398,268 L 397,268 L 396,267 L 395,267 L 394,266 L 392,266 L 391,265 L 388,265 L 387,264 L 379,264 L 378,265 L 375,265 L 374,266 L 372,266 L 371,267 L 369,267 L 366,270 L 365,270 L 358,277 L 358,278 L 356,280 L 356,281 L 355,282 L 355,284 L 354,285 L 354,287 L 353,288 L 353,303 L 354,304 L 354,306 L 355,307 L 355,308 L 356,309 L 356,310 L 357,311 L 357,312 L 359,314 L 359,316 L 358,317 L 357,317 L 356,318 L 355,318 L 354,319 L 353,319 L 351,321 L 350,321 L 348,323 L 347,323 L 344,326 L 343,326 L 341,328 L 340,328 L 339,329 L 338,329 L 337,330 L 334,330 L 333,331 L 328,331 L 327,330 L 324,330 L 323,329 L 322,329 L 321,328 L 320,328 L 319,327 L 318,327 L 315,324 L 314,324 L 312,322 L 312,321 L 311,320 L 311,313 L 312,312 L 311,311 L 311,309 L 309,307 L 309,306 L 307,304 L 307,303 L 304,300 L 304,299 L 302,297 L 302,296 L 300,294 L 300,293 L 298,291 L 298,290 L 296,288 L 296,287 L 295,286 L 295,285 L 293,283 L 293,282 L 292,281 L 292,280 L 290,278 L 290,277 L 289,276 L 289,275 L 287,273 L 287,272 L 286,271 L 286,270 L 285,269 L 285,268 L 284,267 L 284,266 L 282,264 L 282,263 L 281,262 L 281,261 L 280,260 L 280,259 L 279,258 L 279,257 L 278,256 L 278,255 L 277,254 L 277,253 L 276,252 L 276,250 L 275,249 L 275,248 L 274,247 L 274,246 L 273,245 L 273,244 L 272,243 L 272,242 L 271,241 L 271,238 L 269,236 L 269,235 L 268,234 L 268,232 L 267,231 L 267,230 L 266,229 L 266,227 L 265,226 L 265,225 L 264,224 L 264,222 L 263,221 L 263,218 L 262,217 L 262,216 L 261,215 L 261,214 L 260,213 L 260,211 L 259,210 L 259,208 L 258,207 L 259,206 L 257,204 L 257,202 L 256,201 L 256,199 L 255,198 L 255,196 L 254,195 L 254,193 L 253,192 L 253,189 L 252,188 L 252,186 L 251,185 L 251,183 L 250,182 L 250,179 L 249,178 L 249,175 L 248,174 L 248,172 L 247,171 L 247,168 L 246,167 L 246,163 L 245,162 L 245,159 L 244,158 L 244,156 L 243,155 L 243,153 L 242,152 L 242,150 L 241,150 L 240,149 L 241,148 L 240,148 L 239,147 L 240,146 L 241,146 L 240,146 L 239,145 L 239,144 L 237,142 L 237,141 L 231,135 L 230,135 L 228,133 L 227,133 L 226,132 L 224,132 L 223,131 L 224,130 L 225,130 L 230,125 L 230,124 L 231,123 L 231,122 L 232,121 L 232,120 L 233,119 L 233,116 L 234,115 L 234,105 L 233,104 L 233,100 L 232,99 L 232,98 L 231,97 L 231,96 L 229,94 L 230,93 L 230,92 L 232,90 L 232,88 L 233,87 L 233,83 L 232,82 L 232,79 L 233,78 L 233,77 L 235,75 L 235,73 L 236,72 L 236,66 L 237,65 L 237,58 L 236,57 L 236,55 L 235,54 L 235,52 L 234,51 L 234,49 L 233,48 L 233,47 L 232,46 L 232,45 L 230,43 L 230,42 L 227,39 L 226,39 L 223,36 L 220,36 L 219,35 L 219,34 L 218,33 L 218,31 L 217,30 L 217,29 L 216,28 L 216,27 L 214,25 L 214,24 L 213,23 L 213,22 L 205,14 L 204,14 L 203,13 L 202,14 L 201,13 L 201,12 L 198,12 L 197,11 L 190,11 L 189,12 L 186,12 L 185,13 L 184,13 L 183,14 L 182,14 L 181,15 L 179,15 L 177,13 L 176,14 L 175,13 L 175,12 L 174,12 L 173,11 L 172,11 L 171,12 L 170,11 L 170,10 Z" fill="#000000" stroke="none" /><path d="M 363,322 L 362,323 L 361,323 L 360,324 L 359,324 L 358,325 L 357,325 L 356,326 L 355,326 L 353,328 L 352,328 L 349,331 L 348,331 L 346,333 L 345,333 L 343,335 L 342,335 L 341,336 L 339,336 L 338,337 L 334,337 L 333,338 L 328,338 L 327,337 L 323,337 L 322,336 L 320,336 L 319,335 L 318,335 L 317,334 L 316,334 L 314,332 L 313,332 L 310,329 L 309,329 L 308,328 L 307,329 L 306,329 L 304,331 L 303,331 L 302,332 L 301,332 L 300,333 L 296,333 L 306,343 L 307,343 L 309,345 L 310,345 L 312,347 L 313,347 L 314,348 L 315,348 L 316,349 L 318,349 L 319,350 L 321,350 L 322,351 L 336,351 L 337,350 L 340,350 L 341,349 L 343,349 L 344,350 L 344,356 L 345,357 L 345,363 L 346,364 L 346,369 L 347,370 L 347,376 L 348,377 L 348,385 L 349,386 L 349,389 L 348,390 L 348,400 L 347,401 L 347,414 L 346,415 L 346,427 L 345,428 L 345,435 L 344,436 L 344,442 L 343,443 L 343,448 L 342,449 L 342,455 L 341,456 L 341,461 L 340,462 L 340,473 L 341,474 L 341,475 L 343,475 L 344,474 L 345,474 L 347,472 L 347,471 L 349,469 L 349,468 L 350,467 L 350,466 L 351,465 L 351,463 L 352,462 L 352,459 L 353,458 L 353,456 L 354,455 L 354,452 L 355,451 L 355,449 L 356,448 L 356,446 L 357,445 L 357,442 L 358,441 L 358,439 L 359,438 L 359,435 L 360,434 L 360,431 L 361,430 L 361,428 L 362,427 L 362,424 L 363,423 L 363,419 L 364,418 L 364,415 L 365,414 L 365,409 L 366,408 L 372,408 L 373,409 L 373,410 L 374,411 L 374,420 L 375,421 L 375,427 L 376,428 L 376,434 L 377,435 L 377,440 L 378,441 L 378,446 L 379,447 L 379,451 L 380,452 L 380,455 L 381,456 L 381,459 L 382,460 L 382,463 L 383,464 L 383,466 L 384,467 L 384,469 L 385,470 L 385,472 L 386,473 L 386,475 L 387,476 L 387,477 L 388,478 L 388,481 L 389,482 L 389,483 L 390,484 L 391,484 L 392,485 L 393,484 L 396,484 L 397,483 L 397,472 L 396,471 L 396,458 L 395,457 L 395,445 L 394,444 L 394,430 L 393,429 L 393,417 L 392,416 L 392,395 L 393,394 L 393,385 L 394,384 L 394,375 L 395,374 L 395,370 L 396,369 L 402,369 L 403,370 L 403,379 L 404,380 L 404,387 L 405,388 L 405,393 L 406,394 L 406,397 L 407,398 L 407,400 L 408,401 L 408,402 L 409,403 L 409,404 L 410,405 L 410,406 L 414,410 L 415,410 L 416,411 L 418,411 L 419,410 L 419,406 L 418,405 L 418,402 L 417,401 L 417,400 L 416,399 L 416,397 L 415,396 L 415,395 L 414,394 L 414,392 L 413,391 L 413,388 L 412,387 L 412,385 L 411,384 L 411,381 L 410,380 L 410,376 L 409,375 L 409,372 L 408,371 L 408,367 L 407,366 L 407,362 L 406,361 L 406,357 L 405,356 L 405,351 L 404,350 L 404,345 L 403,344 L 403,339 L 402,338 L 402,332 L 399,329 L 398,329 L 395,326 L 394,326 L 392,324 L 391,325 L 388,325 L 387,326 L 376,326 L 375,325 L 373,325 L 372,324 L 370,324 L 369,323 L 368,323 L 367,322 Z" fill="#30a8d8" stroke="none" /><path d="M 148,138 L 147,139 L 146,139 L 145,140 L 144,140 L 140,144 L 140,145 L 139,146 L 138,146 L 137,147 L 138,148 L 137,149 L 136,149 L 136,150 L 135,151 L 135,152 L 134,153 L 134,154 L 133,155 L 133,158 L 132,159 L 132,161 L 131,162 L 131,163 L 130,164 L 130,166 L 129,167 L 129,168 L 128,169 L 128,171 L 127,172 L 127,173 L 126,174 L 126,175 L 125,176 L 125,178 L 124,179 L 124,181 L 123,182 L 123,183 L 122,184 L 122,185 L 121,186 L 121,187 L 120,188 L 120,190 L 119,191 L 119,192 L 118,193 L 118,195 L 117,196 L 117,197 L 116,198 L 116,199 L 115,200 L 115,202 L 114,203 L 114,205 L 112,207 L 112,209 L 111,210 L 111,211 L 110,212 L 110,213 L 109,214 L 109,215 L 108,216 L 108,218 L 107,219 L 107,220 L 106,221 L 106,222 L 105,223 L 105,225 L 103,227 L 103,229 L 101,231 L 101,232 L 100,233 L 100,235 L 99,236 L 99,237 L 98,238 L 98,239 L 97,240 L 97,241 L 96,242 L 96,243 L 95,244 L 95,245 L 94,246 L 94,247 L 93,248 L 93,249 L 92,250 L 92,251 L 90,253 L 90,254 L 89,255 L 89,256 L 88,257 L 88,258 L 87,259 L 87,260 L 85,262 L 85,263 L 84,264 L 84,265 L 82,267 L 82,268 L 83,268 L 85,270 L 86,270 L 88,272 L 89,272 L 91,274 L 92,274 L 94,276 L 95,276 L 96,277 L 97,277 L 99,279 L 100,279 L 101,280 L 101,281 L 103,281 L 104,282 L 104,283 L 106,283 L 106,282 L 108,280 L 107,279 L 108,278 L 109,278 L 108,277 L 109,276 L 110,276 L 110,275 L 112,273 L 112,272 L 114,270 L 114,269 L 115,268 L 115,267 L 117,265 L 117,264 L 118,263 L 118,262 L 120,260 L 120,259 L 122,257 L 122,256 L 123,255 L 123,254 L 124,253 L 124,252 L 126,250 L 126,249 L 127,248 L 127,247 L 129,245 L 129,244 L 131,242 L 131,241 L 132,240 L 133,241 L 135,241 L 138,244 L 138,245 L 137,246 L 137,247 L 136,248 L 136,249 L 135,250 L 135,253 L 134,254 L 134,257 L 133,258 L 133,260 L 132,261 L 132,263 L 133,264 L 132,265 L 131,265 L 131,268 L 130,269 L 130,271 L 129,272 L 129,275 L 128,276 L 128,279 L 127,280 L 127,283 L 126,284 L 126,286 L 125,287 L 125,290 L 124,291 L 124,293 L 123,294 L 123,297 L 122,298 L 122,301 L 121,302 L 121,305 L 120,306 L 120,308 L 119,309 L 119,311 L 120,312 L 119,313 L 118,313 L 118,316 L 117,317 L 117,319 L 116,320 L 116,323 L 115,324 L 115,327 L 114,328 L 114,330 L 113,331 L 113,334 L 112,335 L 112,338 L 111,339 L 111,341 L 110,342 L 110,345 L 109,346 L 109,350 L 108,351 L 108,353 L 107,354 L 107,355 L 125,355 L 126,354 L 127,355 L 130,355 L 131,354 L 132,355 L 179,355 L 180,354 L 181,355 L 202,355 L 203,354 L 204,355 L 257,355 L 257,351 L 256,350 L 256,347 L 255,346 L 255,342 L 254,341 L 254,338 L 253,337 L 253,334 L 252,333 L 252,329 L 251,328 L 251,325 L 250,324 L 250,320 L 249,319 L 249,316 L 248,315 L 248,312 L 247,311 L 247,307 L 246,306 L 246,303 L 245,302 L 245,298 L 244,297 L 244,294 L 243,294 L 242,293 L 243,292 L 243,290 L 242,289 L 242,285 L 241,284 L 241,281 L 240,280 L 240,277 L 238,275 L 239,274 L 239,272 L 238,271 L 238,268 L 237,267 L 237,263 L 236,262 L 236,259 L 235,258 L 235,255 L 234,254 L 234,252 L 233,251 L 234,250 L 233,250 L 232,249 L 233,248 L 233,245 L 232,244 L 232,241 L 231,240 L 231,236 L 230,235 L 230,224 L 229,223 L 229,218 L 230,217 L 232,217 L 233,216 L 236,216 L 237,217 L 237,222 L 238,223 L 238,233 L 239,234 L 239,239 L 240,240 L 240,243 L 241,243 L 242,244 L 241,245 L 241,246 L 243,248 L 242,249 L 242,250 L 243,251 L 243,252 L 244,253 L 244,255 L 245,256 L 245,257 L 246,258 L 246,260 L 247,261 L 247,262 L 248,263 L 248,264 L 249,265 L 249,266 L 251,268 L 251,270 L 252,271 L 252,272 L 253,273 L 253,274 L 254,275 L 254,276 L 256,278 L 256,279 L 257,279 L 258,280 L 257,281 L 259,283 L 259,284 L 260,285 L 260,286 L 261,287 L 262,287 L 263,288 L 262,289 L 265,292 L 265,293 L 267,295 L 267,296 L 268,297 L 269,297 L 270,298 L 270,300 L 273,303 L 273,304 L 277,308 L 277,309 L 282,314 L 282,315 L 283,314 L 284,314 L 285,313 L 287,313 L 288,312 L 289,312 L 290,311 L 291,311 L 292,310 L 293,310 L 295,308 L 297,308 L 299,306 L 300,306 L 298,304 L 298,303 L 297,302 L 296,302 L 295,301 L 296,300 L 294,298 L 294,297 L 293,296 L 292,296 L 291,295 L 292,294 L 290,292 L 290,291 L 289,290 L 289,289 L 287,287 L 287,286 L 286,285 L 286,284 L 284,282 L 284,281 L 283,280 L 283,279 L 281,277 L 281,276 L 280,275 L 280,274 L 279,274 L 278,273 L 279,272 L 278,271 L 278,270 L 276,268 L 276,267 L 275,266 L 275,265 L 274,264 L 274,263 L 273,262 L 273,261 L 272,260 L 272,259 L 271,258 L 271,257 L 270,256 L 270,254 L 269,253 L 269,252 L 268,251 L 268,250 L 267,249 L 267,248 L 266,247 L 266,246 L 265,245 L 265,243 L 264,242 L 264,241 L 262,239 L 262,236 L 261,235 L 261,234 L 260,233 L 260,232 L 259,231 L 259,229 L 258,228 L 258,226 L 257,225 L 257,224 L 256,223 L 256,221 L 254,219 L 255,218 L 254,217 L 254,215 L 253,214 L 253,213 L 252,212 L 252,210 L 251,210 L 250,209 L 251,208 L 251,207 L 250,206 L 250,204 L 249,203 L 249,202 L 248,201 L 248,197 L 247,196 L 247,194 L 246,194 L 245,193 L 246,192 L 246,191 L 245,190 L 245,187 L 244,186 L 244,184 L 243,184 L 242,183 L 243,182 L 243,180 L 242,179 L 242,177 L 241,176 L 241,173 L 240,172 L 240,169 L 239,168 L 239,165 L 238,164 L 238,161 L 237,160 L 237,157 L 236,156 L 236,154 L 235,153 L 235,152 L 234,151 L 234,150 L 233,149 L 233,148 L 231,146 L 231,145 L 227,141 L 226,141 L 224,139 L 222,139 L 221,138 L 219,138 L 217,140 L 215,140 L 214,141 L 213,141 L 212,142 L 211,142 L 210,143 L 208,143 L 207,144 L 205,144 L 204,145 L 202,145 L 201,146 L 197,146 L 196,147 L 189,147 L 189,148 L 188,149 L 187,148 L 180,148 L 179,147 L 172,147 L 171,146 L 167,146 L 166,145 L 165,146 L 163,144 L 160,144 L 159,143 L 158,143 L 157,142 L 155,142 L 154,141 L 153,141 L 152,140 L 151,140 L 150,139 L 149,139 Z" fill="#609018" stroke="none" /><path d="M 199,363 L 199,374 L 200,375 L 200,415 L 201,416 L 201,455 L 202,456 L 202,474 L 205,477 L 206,477 L 207,476 L 211,476 L 213,478 L 213,481 L 214,482 L 214,483 L 215,484 L 216,484 L 217,485 L 221,485 L 222,484 L 226,484 L 227,483 L 230,483 L 231,482 L 232,482 L 233,481 L 233,468 L 232,467 L 232,456 L 231,455 L 231,445 L 230,444 L 230,434 L 229,433 L 229,422 L 228,421 L 228,411 L 227,410 L 227,399 L 226,398 L 226,388 L 225,387 L 225,376 L 224,375 L 224,365 L 223,364 L 223,363 Z" fill="#60a8d8" stroke="none" /><path d="M 139,363 L 139,369 L 138,370 L 138,380 L 137,381 L 137,391 L 136,392 L 136,403 L 135,404 L 135,414 L 134,415 L 134,426 L 133,427 L 133,437 L 132,438 L 132,449 L 131,450 L 131,460 L 130,461 L 130,469 L 129,470 L 129,480 L 130,481 L 130,482 L 131,482 L 132,483 L 135,483 L 136,484 L 140,484 L 141,485 L 145,485 L 146,484 L 147,484 L 149,482 L 149,480 L 150,479 L 150,477 L 151,476 L 155,476 L 156,477 L 157,477 L 158,476 L 160,476 L 160,473 L 161,472 L 161,432 L 162,431 L 162,391 L 163,390 L 163,363 Z" fill="#60a8d8" stroke="none" /><path d="M 163,17 L 162,18 L 160,18 L 158,20 L 157,20 L 154,23 L 154,24 L 153,25 L 153,26 L 152,27 L 148,27 L 147,28 L 143,28 L 142,29 L 140,29 L 139,30 L 137,30 L 136,31 L 135,31 L 130,36 L 130,37 L 129,38 L 129,39 L 128,40 L 128,43 L 127,44 L 127,50 L 128,51 L 128,56 L 129,57 L 129,60 L 128,61 L 128,62 L 125,65 L 125,66 L 123,68 L 123,69 L 122,70 L 122,71 L 121,72 L 121,74 L 120,75 L 120,78 L 119,79 L 119,83 L 120,84 L 120,86 L 121,87 L 121,88 L 122,89 L 122,90 L 129,97 L 130,97 L 132,99 L 133,99 L 134,100 L 135,100 L 136,101 L 136,117 L 137,118 L 137,121 L 138,122 L 138,124 L 143,129 L 154,129 L 155,128 L 158,128 L 159,127 L 161,127 L 162,126 L 163,126 L 164,125 L 165,125 L 166,124 L 167,124 L 167,120 L 166,120 L 165,119 L 164,119 L 162,117 L 161,117 L 150,106 L 150,105 L 148,103 L 148,102 L 146,100 L 146,99 L 145,98 L 145,97 L 144,96 L 144,94 L 143,93 L 143,91 L 142,90 L 142,87 L 141,86 L 141,82 L 140,81 L 140,74 L 141,73 L 141,70 L 142,69 L 142,67 L 143,66 L 146,66 L 147,65 L 151,65 L 152,64 L 154,64 L 155,63 L 157,63 L 158,62 L 159,62 L 160,61 L 161,61 L 163,59 L 164,59 L 169,54 L 169,53 L 171,51 L 171,50 L 172,49 L 172,48 L 173,47 L 173,45 L 174,44 L 174,42 L 175,41 L 175,39 L 176,38 L 176,36 L 177,35 L 180,38 L 180,39 L 181,40 L 181,41 L 182,42 L 182,43 L 185,46 L 185,47 L 190,52 L 191,52 L 194,55 L 195,55 L 196,56 L 197,56 L 198,57 L 199,57 L 200,58 L 201,58 L 202,59 L 203,59 L 204,60 L 206,60 L 207,61 L 208,61 L 209,62 L 212,62 L 213,63 L 216,63 L 219,66 L 219,82 L 218,83 L 218,89 L 217,90 L 217,93 L 216,94 L 216,95 L 215,96 L 215,98 L 214,99 L 214,100 L 213,101 L 213,102 L 212,103 L 212,104 L 210,106 L 210,107 L 199,118 L 198,118 L 196,120 L 195,120 L 194,121 L 194,122 L 195,122 L 196,123 L 197,123 L 198,124 L 200,124 L 201,125 L 203,125 L 204,126 L 207,126 L 208,127 L 215,127 L 216,126 L 218,126 L 219,125 L 220,125 L 225,120 L 225,119 L 226,118 L 226,116 L 227,115 L 227,105 L 226,104 L 226,102 L 225,101 L 225,100 L 224,99 L 224,98 L 223,98 L 220,95 L 220,94 L 223,91 L 223,90 L 225,88 L 225,87 L 226,86 L 226,84 L 225,83 L 225,82 L 224,82 L 221,79 L 220,79 L 219,78 L 219,77 L 220,76 L 222,76 L 223,75 L 225,75 L 226,74 L 227,74 L 228,73 L 228,72 L 229,71 L 229,68 L 230,67 L 230,60 L 229,59 L 229,56 L 228,55 L 228,53 L 227,52 L 227,51 L 226,50 L 226,49 L 225,48 L 225,47 L 221,43 L 220,43 L 219,42 L 216,42 L 213,39 L 213,37 L 212,36 L 212,35 L 211,34 L 211,33 L 210,32 L 210,31 L 209,30 L 209,29 L 208,28 L 208,27 L 201,20 L 200,20 L 199,19 L 198,19 L 197,18 L 190,18 L 189,19 L 187,19 L 186,20 L 185,20 L 184,21 L 183,21 L 181,23 L 180,23 L 179,24 L 175,20 L 174,20 L 172,18 L 171,18 L 170,17 Z" fill="#904818" stroke="none" /><path d="M 304,313 L 303,314 L 302,314 L 301,315 L 300,315 L 299,316 L 298,316 L 297,317 L 296,317 L 295,318 L 294,318 L 293,319 L 292,319 L 291,320 L 290,320 L 289,321 L 293,325 L 299,325 L 301,323 L 302,323 L 302,322 L 304,320 Z" fill="#f0d8d8" stroke="none" /><path d="M 83,278 L 82,279 L 82,281 L 81,282 L 81,286 L 82,287 L 82,288 L 83,289 L 83,290 L 84,291 L 85,291 L 87,293 L 88,293 L 89,294 L 90,294 L 95,289 L 95,288 L 96,287 L 94,285 L 93,285 L 91,283 L 90,283 L 88,281 L 87,281 L 85,279 L 84,279 Z" fill="#f0d8d8" stroke="none" /><path d="M 380,271 L 379,272 L 376,272 L 375,273 L 374,273 L 373,274 L 372,274 L 371,275 L 370,275 L 364,281 L 364,282 L 362,284 L 362,285 L 361,286 L 361,288 L 360,289 L 360,302 L 361,303 L 361,304 L 362,305 L 362,306 L 363,307 L 363,308 L 365,310 L 365,311 L 367,313 L 368,313 L 370,315 L 371,315 L 372,316 L 373,316 L 374,317 L 376,317 L 377,318 L 387,318 L 388,317 L 390,317 L 391,316 L 392,316 L 393,315 L 394,315 L 401,308 L 401,307 L 402,306 L 402,305 L 403,304 L 403,303 L 404,302 L 404,299 L 405,298 L 405,289 L 404,288 L 404,286 L 403,285 L 403,284 L 402,283 L 402,282 L 400,280 L 400,279 L 396,275 L 395,275 L 393,273 L 391,273 L 390,272 L 387,272 L 386,271 Z" fill="#f0d8d8" stroke="none" /><path d="M 175,123 L 175,128 L 173,130 L 172,130 L 171,131 L 170,131 L 169,132 L 167,132 L 166,133 L 165,133 L 164,134 L 163,134 L 162,135 L 159,135 L 161,135 L 162,136 L 164,136 L 165,137 L 167,137 L 168,138 L 172,138 L 173,139 L 179,139 L 180,140 L 189,140 L 190,139 L 196,139 L 197,138 L 200,138 L 201,137 L 203,137 L 204,136 L 206,136 L 207,135 L 208,135 L 207,134 L 203,134 L 202,133 L 200,133 L 199,132 L 197,132 L 196,131 L 195,131 L 194,130 L 193,130 L 192,129 L 191,129 L 190,128 L 189,128 L 188,127 L 187,127 L 186,126 L 186,123 Z" fill="#f0d8d8" stroke="none" /><path d="M 179,51 L 179,52 L 178,53 L 178,54 L 177,55 L 177,56 L 174,59 L 174,60 L 171,63 L 170,63 L 166,67 L 165,67 L 164,68 L 163,68 L 162,69 L 161,69 L 160,70 L 159,70 L 158,71 L 156,71 L 155,72 L 152,72 L 151,73 L 149,73 L 148,74 L 148,81 L 149,82 L 149,86 L 150,87 L 150,90 L 151,91 L 151,92 L 152,93 L 152,95 L 154,97 L 154,98 L 155,99 L 155,100 L 159,104 L 159,105 L 163,109 L 164,109 L 167,112 L 168,112 L 169,113 L 170,113 L 171,114 L 174,114 L 175,115 L 187,115 L 188,114 L 190,114 L 191,113 L 192,113 L 193,112 L 194,112 L 197,109 L 198,109 L 201,106 L 201,105 L 204,102 L 204,101 L 206,99 L 206,98 L 207,97 L 207,95 L 208,94 L 208,93 L 209,92 L 209,90 L 210,89 L 210,84 L 211,83 L 211,70 L 209,70 L 208,69 L 206,69 L 205,68 L 203,68 L 202,67 L 201,67 L 200,66 L 199,66 L 198,65 L 196,65 L 195,64 L 194,64 L 192,62 L 191,62 L 189,60 L 188,60 L 185,57 L 184,57 L 180,53 L 180,52 Z" fill="#f0d8d8" stroke="none" /></svg>