<?xml version="1.0" encoding="UTF-8"?>
<!-- Generator: visioncortex VTracer -->
<svg id="svg" version="1.1" xmlns="http://www.w3.org/2000/svg" style="display: block;" viewBox="0 0 500 500"><path d="M0 0 C2.625 2.25 2.625 2.25 5 5 C5.63808594 5.69738281 6.27617187 6.39476563 6.93359375 7.11328125 C15.954995 17.49203095 18.53358048 29.51122411 18.28125 43.01171875 C17.54901203 53.39525994 13.48126872 64.64737347 6.75 72.6875 C-4.32432432 82 -4.32432432 82 -7 82 C-7.33 82.66 -7.66 83.32 -8 84 C-9.84765625 84.8515625 -9.84765625 84.8515625 -12.0625 85.625 C-13.16271484 86.01558594 -13.16271484 86.01558594 -14.28515625 86.4140625 C-14.85105469 86.60742188 -15.41695313 86.80078125 -16 87 C-15.05125 87.433125 -14.1025 87.86625 -13.125 88.3125 C-10 90 -10 90 -8 93 C-7.66042437 97.07490752 -7.68667514 98.53001271 -10 102 C-9.62469582 106.22813364 -8.42353707 109.99992118 -6.99609375 113.98046875 C-6.58423828 115.14771484 -6.17238281 116.31496094 -5.74804688 117.51757812 C-4.90342194 119.88277969 -4.05719056 122.2474085 -3.20898438 124.61132812 C-1.758857 128.72631439 -0.36890541 132.85742797 1 137 C1.31188263 137.92934357 1.62376526 138.85868713 1.94509888 139.81619263 C7.92221431 157.85768123 11.17795406 175.70211375 13.54650879 194.47271729 C13.99281031 197.97912337 14.46062504 201.48264335 14.92773438 204.98632812 C15.11156123 206.3672256 15.29536877 207.74812564 15.47915649 209.12902832 C15.56892384 209.80300156 15.65869118 210.47697479 15.75117874 211.17137146 C16.01614676 213.16592939 16.27888559 215.16078304 16.54159546 217.15563965 C17.48856662 224.31623245 18.46519448 231.46749699 19.62109375 238.59765625 C19.72927933 239.28654434 19.8374649 239.97543243 19.94892883 240.68519592 C20.61706827 244.64206299 21.70249455 248.17675331 23.25 251.875 C26.29331361 259.51839918 24.96755527 266.91534779 22.25 274.5 C20.49284689 278.41738077 18.93644389 280.98600545 15 283 C11.1875 283.25 11.1875 283.25 8 283 C0.88667029 273.22595918 0.78150777 261.26858337 1.0625 249.58984375 C0.97124055 245.80828011 0.19862818 242.22495661 -0.5546875 238.52734375 C-1.12714336 235.27840564 -1.14615107 232.28839913 -1 229 C-1.66 228.67 -2.32 228.34 -3 228 C-3.34375 225.80688477 -3.34375 225.80688477 -3.5 222.87890625 C-3.99761899 215.51174434 -4.97532637 208.24758107 -6 200.9375 C-6.17789063 199.63361328 -6.35578125 198.32972656 -6.5390625 196.98632812 C-7.36869595 190.40322912 -7.36869595 190.40322912 -9 184 C-9.17753874 181.93998699 -9.31892079 179.87674625 -9.4375 177.8125 C-9.79708517 172.6275139 -10.53591983 167.97787257 -12 163 C-12.66 163.66 -13.32 164.32 -14 165 C-13.67 165.66 -13.34 166.32 -13 167 C-14.32 167.33 -15.64 167.66 -17 168 C-15.02 168.99 -15.02 168.99 -13 170 C-14.98 170 -16.96 170 -19 170 C-18.83949158 170.85010651 -18.67898315 171.70021301 -18.51361084 172.57608032 C-17.99658112 176.02279151 -17.8365339 179.29921411 -17.78222656 182.78271484 C-17.77060486 183.43444672 -17.75898315 184.08617859 -17.74700928 184.75765991 C-17.72190664 186.16854406 -17.69852968 187.57945976 -17.67670441 188.99039841 C-17.62704404 192.04678997 -17.56108334 195.1027684 -17.49621201 198.15886879 C-17.37605866 203.82365839 -17.26110403 209.48836046 -17.17675781 215.15380859 C-16.85844642 235.97089768 -15.2923129 255.89050385 -11.60974121 276.39581299 C-10.75782726 281.43148573 -10.09433694 286.48262992 -9.44561768 291.54794312 C-8.69342986 297.37490031 -7.81550803 303.16505602 -6.80859375 308.953125 C-0.18935644 348.12536659 -0.18935644 348.12536659 -3.49951172 364.46582031 C-4.05326137 367.26968442 -4.19380085 369.92519806 -4.28125 372.78125 C-4.31863281 373.87050781 -4.35601562 374.95976562 -4.39453125 376.08203125 C-4.42933594 377.20996094 -4.46414063 378.33789062 -4.5 379.5 C-4.56911087 381.73970401 -4.64189308 383.97929842 -4.71875 386.21875 C-4.74904297 387.20810547 -4.77933594 388.19746094 -4.81054688 389.21679688 C-4.99322409 391.90045694 -5.44222384 394.37250486 -6 397 C-7.84210346 410.44424225 -8.14629657 420.95355875 -0.78515625 432.625 C1.64851539 437.22607723 1.55672697 440.77309211 0.3125 445.75 C-1.45544544 448.78076361 -2.73214467 449.6789521 -6 451 C-10.90094303 451.82285206 -13.80341029 451.8039104 -18.0234375 448.96875 C-21.50741061 445.85811898 -23.27736691 442.19996809 -25.1875 438 C-25.84589169 436.60333348 -26.50601125 435.20748001 -27.16796875 433.8125 C-27.47484619 433.14742432 -27.78172363 432.48234863 -28.09790039 431.79711914 C-29.02911501 429.82386607 -29.02911501 429.82386607 -30.7578125 427.55859375 C-32.6322924 423.69763673 -32.06550594 420.2598713 -31.6875 416.0625 C-31.56322189 414.36872022 -31.44215733 412.67470176 -31.32421875 410.98046875 C-31.26411621 410.14306152 -31.20401367 409.3056543 -31.14208984 408.44287109 C-30.87152556 403.79121088 -30.97645173 399.14954985 -31.0625 394.4921875 C-31 392 -31 392 -30 391 C-29.81440071 389.62397164 -29.69142198 388.23939978 -29.59521484 386.85424805 C-29.53200043 385.97210129 -29.46878601 385.08995453 -29.40365601 384.18107605 C-29.3400589 383.21768814 -29.27646179 382.25430023 -29.2109375 381.26171875 C-29.10962021 379.7750042 -29.10962021 379.7750042 -29.0062561 378.258255 C-28.86434054 376.14914075 -28.72496463 374.03985436 -28.58789062 371.93041992 C-28.37835878 368.73866361 -28.15450056 365.54813325 -27.9296875 362.35742188 C-26.91619401 347.66044741 -26.91619401 347.66044741 -28 333 C-28.22115479 331.31861938 -28.22115479 331.31861938 -28.44677734 329.60327148 C-28.9334629 326.02189532 -29.4604171 322.44875919 -30 318.875 C-30.26683594 317.0496875 -30.26683594 317.0496875 -30.5390625 315.1875 C-31.18670773 309.42348435 -31.18670773 309.42348435 -33 304 C-33.31255647 301.14792222 -33.51037482 298.29503146 -33.71875 295.43359375 C-33.73834922 293.05456695 -33.73834922 293.05456695 -35 292 C-35.13140381 292.81194824 -35.26280762 293.62389648 -35.39819336 294.46044922 C-35.95532198 297.73722435 -36.55905178 301.00048006 -37.18055725 304.26541138 C-37.82263422 307.65574733 -38.44429386 311.04975458 -39.06616211 314.44384766 C-39.39262905 316.20737938 -39.72514493 317.9698039 -40.06420898 319.73095703 C-43.01353792 335.09416086 -44.1637997 350.08023483 -42.22265625 365.6640625 C-41.6319705 371.86108146 -41.96693364 378.14968003 -42.0390625 384.3671875 C-42.0804698 390.23322213 -41.88485392 395.92860579 -41.2265625 401.75683594 C-40.0447243 413.45805291 -42.40292359 422.48832476 -47.50390625 432.8671875 C-49.14364595 435.72217457 -49.14364595 435.72217457 -49 438 C-49.66 438 -50.32 438 -51 438 C-51.2475 438.9075 -51.495 439.815 -51.75 440.75 C-53.2845409 444.73980634 -55.16127596 447.08063798 -59 449 C-62.05933407 449.42073356 -64.94550496 449.47561341 -68 449 C-70.9375 446.75 -70.9375 446.75 -73 444 C-73.45375 443.401875 -73.9075 442.80375 -74.375 442.1875 C-76.06987162 436.25544933 -73.64751691 430.800937 -71.06616211 425.55300903 C-66.08357895 415.35167388 -65.06883887 406.94887589 -65.82537842 395.73306274 C-66.00623923 393.03181384 -66.13020784 390.33268285 -66.24072266 387.62768555 C-66.39520468 383.89489913 -66.56588734 380.16352032 -66.75097656 376.43212891 C-67.14312218 368.22820227 -67.32817239 360.02534279 -67.375 351.8125 C-67.37956207 351.05751221 -67.38412415 350.30252441 -67.38882446 349.5246582 C-67.42353993 333.66373412 -65.13908323 318.52974829 -62 303 C-61.59674246 300.99074548 -61.1942151 298.98134603 -60.79194641 296.97189331 C-60.41703218 295.1042749 -60.03834804 293.23741442 -59.65942383 291.37060547 C-59.26127706 289.33550209 -58.88275651 287.29622657 -58.54199219 285.25073242 C-57.91951687 281.51728249 -57.21751216 277.80212755 -56.51451111 274.08311462 C-55.68877167 269.69509823 -54.8840497 265.30329324 -54.0793457 260.91137695 C-53.65618586 258.62109875 -53.2266425 256.3319895 -52.7902832 254.04418945 C-50.21476464 240.51018825 -48.4877002 227.65436852 -48.94165039 213.85961914 C-49 210 -49 210 -48 208 C-47.84463137 206.00847344 -47.74974576 204.01210725 -47.68359375 202.015625 C-47.62075195 200.16239624 -47.62075195 200.16239624 -47.55664062 198.27172852 C-47.51666479 196.93116014 -47.47695676 195.59058375 -47.4375 194.25 C-47.39391077 192.88793847 -47.35029079 191.52587793 -47.30664062 190.16381836 C-47.02827981 181.0807311 -46.91023399 172.00425143 -47.03686523 162.91699219 C-47.0861182 158.16056254 -46.74700012 153.71362867 -46 149 C-45.94068524 147.52187625 -45.91155113 146.04158577 -45.9375 144.5625 C-45.958125 143.386875 -45.97875 142.21125 -46 141 C-46.10957031 141.556875 -46.21914062 142.11375 -46.33203125 142.6875 C-47.26934391 147.19879344 -48.49022173 151.3354422 -50.15429688 155.64160156 C-54.81087884 168.62733534 -56.43678109 182.00774155 -58.125 195.625 C-58.50232896 198.59325655 -58.88253635 201.56113402 -59.2631073 204.52897644 C-59.50737347 206.43516801 -59.75048779 208.34150757 -59.99238586 210.2480011 C-60.765965 216.3129685 -61.63062206 222.35288636 -62.58886719 228.39160156 C-64.0231634 237.49137633 -64.99849051 246.55955065 -65.29003906 255.765625 C-65.82608395 272.22898063 -65.82608395 272.22898063 -70 279 C-71.9140625 280.7890625 -71.9140625 280.7890625 -74 282 C-78.20625886 281.77861795 -80.47567443 281.34955038 -84 279 C-88.42940114 270.30415228 -89.98563675 259.24694176 -87.38671875 249.76171875 C-86.89007761 248.57232689 -86.3694789 247.39257482 -85.82226562 246.22558594 C-84.8169693 243.5045998 -84.46135675 240.94435598 -84.08203125 238.06640625 C-83.91348633 236.81931885 -83.74494141 235.57223145 -83.57128906 234.28735352 C-83.48036987 233.60134064 -83.38945068 232.91532776 -83.29577637 232.20852661 C-82.86782438 229.01306053 -82.41690171 225.82092496 -81.96748352 222.62841797 C-81.5907686 219.95104847 -81.21680547 217.27330668 -80.84350586 214.59545898 C-80.31388986 210.7977951 -79.78188482 207.00047609 -79.24829102 203.20336914 C-77.61366032 191.57767978 -77.61366032 191.57767978 -76.1171875 179.93359375 C-74.00553919 162.65793658 -69.02175365 146.85538718 -63.5625 130.375 C-63.33361084 129.68393158 -63.10472168 128.99286316 -62.86889648 128.28085327 C-59.48249572 118.09458035 -55.83003623 108.027579 -52 98 C-52.99 97.67 -53.98 97.34 -55 97 C-54.61704951 94.77888714 -54.13079812 93.19619717 -52.875 91.3125 C-50.09563127 89.36694189 -47.32110837 89.31331211 -44 89 C-44 88.34 -44 87.68 -44 87 C-45.8871875 86.7215625 -45.8871875 86.7215625 -47.8125 86.4375 C-59.56857002 83.83742132 -67.81703875 75.1976034 -74.35546875 65.625 C-81.64220764 53.99391085 -83.07518317 39.80604689 -80.24609375 26.4375 C-78.37695609 20.69081793 -75.86173278 15.31464659 -73 10 C-72.34 10 -71.68 10 -71 10 C-70.72800781 9.40832031 -70.45601562 8.81664063 -70.17578125 8.20703125 C-65.64495836 -0.29766953 -55.99493445 -5.64334931 -47.13330078 -8.62890625 C-30.59684082 -13.23035598 -13.87507131 -9.80779623 0 0 Z M-20 137 C-19 139 -19 139 -19 139 Z M-20 140 C-20.02685938 142.14576637 -20.04633088 144.29162645 -20.0625 146.4375 C-20.07410156 147.63246094 -20.08570313 148.82742187 -20.09765625 150.05859375 C-20.33901792 152.88873341 -20.33901792 152.88873341 -19 154 C-17.35 154 -15.7 154 -14 154 C-15.32 149.38 -16.64 144.76 -18 140 C-18.66 140 -19.32 140 -20 140 Z " transform="translate(282,33)" style="fill: #000000;"/><path d="M0 0 C2.625 2.25 2.625 2.25 5 5 C5.63808594 5.69738281 6.27617187 6.39476563 6.93359375 7.11328125 C15.954995 17.49203095 18.53358048 29.51122411 18.28125 43.01171875 C17.54901203 53.39525994 13.48126872 64.64737347 6.75 72.6875 C-4.32432432 82 -4.32432432 82 -7 82 C-7.33 82.66 -7.66 83.32 -8 84 C-9.84765625 84.8515625 -9.84765625 84.8515625 -12.0625 85.625 C-13.16271484 86.01558594 -13.16271484 86.01558594 -14.28515625 86.4140625 C-14.85105469 86.60742188 -15.41695313 86.80078125 -16 87 C-15.05125 87.433125 -14.1025 87.86625 -13.125 88.3125 C-10 90 -10 90 -8 93 C-7.66042437 97.07490752 -7.68667514 98.53001271 -10 102 C-9.62469582 106.22813364 -8.42353707 109.99992118 -6.99609375 113.98046875 C-6.58423828 115.14771484 -6.17238281 116.31496094 -5.74804688 117.51757812 C-4.90342194 119.88277969 -4.05719056 122.2474085 -3.20898438 124.61132812 C-1.758857 128.72631439 -0.36890541 132.85742797 1 137 C1.31188263 137.92934357 1.62376526 138.85868713 1.94509888 139.81619263 C7.92221431 157.85768123 11.17795406 175.70211375 13.54650879 194.47271729 C13.99281031 197.97912337 14.46062504 201.48264335 14.92773438 204.98632812 C15.11156123 206.3672256 15.29536877 207.74812564 15.47915649 209.12902832 C15.56892384 209.80300156 15.65869118 210.47697479 15.75117874 211.17137146 C16.01614676 213.16592939 16.27888559 215.16078304 16.54159546 217.15563965 C17.48856662 224.31623245 18.46519448 231.46749699 19.62109375 238.59765625 C19.72927933 239.28654434 19.8374649 239.97543243 19.94892883 240.68519592 C20.61706827 244.64206299 21.70249455 248.17675331 23.25 251.875 C26.29331361 259.51839918 24.96755527 266.91534779 22.25 274.5 C20.49284689 278.41738077 18.93644389 280.98600545 15 283 C11.1875 283.25 11.1875 283.25 8 283 C0.88667029 273.22595918 0.78150777 261.26858337 1.0625 249.58984375 C0.97124055 245.80828011 0.19862818 242.22495661 -0.5546875 238.52734375 C-1.12714336 235.27840564 -1.14615107 232.28839913 -1 229 C-1.66 228.67 -2.32 228.34 -3 228 C-3.34375 225.80688477 -3.34375 225.80688477 -3.5 222.87890625 C-3.99761899 215.51174434 -4.97532637 208.24758107 -6 200.9375 C-6.17789063 199.63361328 -6.35578125 198.32972656 -6.5390625 196.98632812 C-7.36869595 190.40322912 -7.36869595 190.40322912 -9 184 C-9.17753874 181.93998699 -9.31892079 179.87674625 -9.4375 177.8125 C-9.79708517 172.6275139 -10.53591983 167.97787257 -12 163 C-12.66 163.66 -13.32 164.32 -14 165 C-13.67 165.66 -13.34 166.32 -13 167 C-15.99480917 167.8723412 -18.63575911 168.10829766 -21.75 168.0625 C-22.54921875 168.05347656 -23.3484375 168.04445312 -24.171875 168.03515625 C-25.07679688 168.01775391 -25.07679688 168.01775391 -26 168 C-25.91298828 166.82244141 -25.91298828 166.82244141 -25.82421875 165.62109375 C-25.28914721 158.66146307 -25.28914721 158.66146307 -28.25 152.6875 C-35.81338678 143.64151752 -35.50788943 130.00110908 -35.49707031 118.85742188 C-35.55164173 113.10740699 -35.55164173 113.10740699 -37.828125 107.91015625 C-40.09513245 105.91633135 -42.23736047 104.94031779 -45.05078125 103.890625 C-48.7523414 102.19933098 -51.84156081 99.53495509 -55 97 C-54.26051296 93.73953441 -53.82113986 91.9747979 -51 90 C-47.3125 89.3125 -47.3125 89.3125 -44 89 C-44 88.34 -44 87.68 -44 87 C-45.8871875 86.7215625 -45.8871875 86.7215625 -47.8125 86.4375 C-59.56857002 83.83742132 -67.81703875 75.1976034 -74.35546875 65.625 C-81.64220764 53.99391085 -83.07518317 39.80604689 -80.24609375 26.4375 C-78.37695609 20.69081793 -75.86173278 15.31464659 -73 10 C-72.34 10 -71.68 10 -71 10 C-70.72800781 9.40832031 -70.45601562 8.81664063 -70.17578125 8.20703125 C-65.64495836 -0.29766953 -55.99493445 -5.64334931 -47.13330078 -8.62890625 C-30.59684082 -13.23035598 -13.87507131 -9.80779623 0 0 Z M-20 137 C-19 139 -19 139 -19 139 Z M-20 140 C-20.02685938 142.14576637 -20.04633088 144.29162645 -20.0625 146.4375 C-20.07410156 147.63246094 -20.08570313 148.82742187 -20.09765625 150.05859375 C-20.33901792 152.88873341 -20.33901792 152.88873341 -19 154 C-17.35 154 -15.7 154 -14 154 C-15.32 149.38 -16.64 144.76 -18 140 C-18.66 140 -19.32 140 -20 140 Z " transform="translate(282,33)" style="fill: #000000;"/><path d="M0 0 C8.56314139 8.56314139 13.86652393 18.83350449 14.1875 31.125 C13.59145798 42.72919304 8.77061051 54.13406505 0.1484375 62.0625 C-9.41364876 69.22606964 -20.26967686 72.90717413 -32.1875 71.8125 C-43.42530037 70.04403356 -53.1479565 63.73763551 -60.1875 54.8125 C-66.40833344 44.86909337 -68.82301674 33.85594551 -66.72265625 22.2421875 C-63.91787488 11.65372292 -58.15208235 3.12558616 -49.1875 -3.1875 C-32.49509459 -12.62540011 -15.46114593 -10.61059034 0 0 Z " transform="translate(277.1875,41.1875)" style="fill: #FBFBFB;"/><path d="M0 0 C2.625 2.25 2.625 2.25 5 5 C5.63808594 5.69738281 6.27617187 6.39476563 6.93359375 7.11328125 C15.954995 17.49203095 18.53358048 29.51122411 18.28125 43.01171875 C17.54901203 53.39525994 13.48126872 64.64737347 6.75 72.6875 C-4.32432432 82 -4.32432432 82 -7 82 C-7.33 82.66 -7.66 83.32 -8 84 C-12.55706182 86.37097727 -16.85004829 87.38624638 -22 87 C-21.67 88.65 -21.34 90.3 -21 92 C-18.03 92.99 -18.03 92.99 -15 94 C-15 94.66 -15 95.32 -15 96 C-14.34 96 -13.68 96 -13 96 C-13.82286417 99.70288877 -14.33726659 101.53608661 -17.5 103.75 C-23.25507607 105.80538431 -28.88316861 107 -35 107 C-36.68997323 105.35697047 -38.35216394 103.68528688 -40 102 C-42.10449659 100.65578709 -44.23873217 99.41563366 -46.42578125 98.2109375 C-46.94527344 97.81132812 -47.46476562 97.41171875 -48 97 C-48 96.01 -48 95.02 -48 94 C-45.525 93.505 -45.525 93.505 -43 93 C-43.33 91.02 -43.66 89.04 -44 87 C-45.8871875 86.7215625 -45.8871875 86.7215625 -47.8125 86.4375 C-59.56857002 83.83742132 -67.81703875 75.1976034 -74.35546875 65.625 C-81.64220764 53.99391085 -83.07518317 39.80604689 -80.24609375 26.4375 C-78.37695609 20.69081793 -75.86173278 15.31464659 -73 10 C-72.34 10 -71.68 10 -71 10 C-70.72800781 9.40832031 -70.45601562 8.81664063 -70.17578125 8.20703125 C-65.64495836 -0.29766953 -55.99493445 -5.64334931 -47.13330078 -8.62890625 C-30.59684082 -13.23035598 -13.87507131 -9.80779623 0 0 Z M-63 13 C-69.95049623 22.34071213 -73.18705702 32.37334561 -72 44 C-69.96729509 55.39260193 -65.07125082 64.69687434 -56 72 C-46.93702141 77.95831391 -37.93352902 81.23194693 -27 80 C-14.26170571 77.27257932 -4.63941454 71.65190698 3 61 C5.9911621 55.65598831 8.60565825 50.17802083 9 44 C9.0928125 42.948125 9.0928125 42.948125 9.1875 41.875 C9.75345379 30.83890112 6.03143984 21.07345015 -0.72265625 12.4453125 C-8.08775432 4.53699107 -17.4130691 -0.52211863 -28.24609375 -1.125 C-42.09034265 -1.47056628 -53.49040178 2.68790404 -63 13 Z " transform="translate(282,33)" style="fill: #020202;"/><path d="M0 0 C4.79580911 0.11493224 8.08082507 0.34344648 12.0625 3.1875 C14 6 14 6 14.625 9 C13.64367313 13.71036899 10.90799976 15.6690163 7.0625 18.3515625 C2.09904178 21.56652976 -1.96034584 24 -8 24 C-7.88848666 27.62554335 -7.75826485 31.25019617 -7.625 34.875 C-7.5940625 35.88820312 -7.563125 36.90140625 -7.53125 37.9453125 C-7.21120646 46.26644451 -6.55105243 54.52782499 -2.875 62.125 C-2.25625 63.40375 -1.6375 64.6825 -1 66 C2.3 66.33 5.6 66.66 9 67 C9 71.33333333 9 75.66666667 9 80 C6.00519083 80.8723412 3.36424089 81.10829766 0.25 81.0625 C-0.54921875 81.05347656 -1.3484375 81.04445313 -2.171875 81.03515625 C-2.77515625 81.02355469 -3.3784375 81.01195312 -4 81 C-3.94199219 80.21496094 -3.88398438 79.42992187 -3.82421875 78.62109375 C-3.28914721 71.66146307 -3.28914721 71.66146307 -6.25 65.6875 C-13.81338678 56.64151752 -13.50788943 43.00110908 -13.49707031 31.85742188 C-13.55164173 26.10740699 -13.55164173 26.10740699 -15.828125 20.91015625 C-18.09513245 18.91633135 -20.23736047 17.94031779 -23.05078125 16.890625 C-26.7523414 15.19933098 -29.84156081 12.53495509 -33 10 C-31.83792506 4.92246537 -31.83792506 4.92246537 -29 3 C-26.32036238 2.44924444 -23.73731507 2.22437009 -21 2 C-21 3.32 -21 4.64 -21 6 C-22.65 6.66 -24.3 7.32 -26 8 C-22.77257802 11.64839007 -19.00825175 14.05370675 -14.92578125 16.6328125 C-13 18 -13 18 -12 20 C-11.38125 19.71125 -10.7625 19.4225 -10.125 19.125 C-6.58204681 17.84953685 -3.10565106 17.20159155 0.59765625 16.5625 C3.02854836 15.99331551 4.89149422 15.3361767 7 14 C7.81171228 11.44480079 7.81171228 11.44480079 8 9 C5.36 7.68 2.72 6.36 0 5 C0 3.35 0 1.7 0 0 Z " transform="translate(260,120)" style="fill: #D8D8D8;"/><path d="M0 0 C3.24601024 0.3709726 4.7690201 0.79468454 7.25 3 C11.04389465 5.75919611 14.34244918 6.34815579 19 6 C22.93074868 4.67857084 26.06782099 2.93217901 29 0 C31.625 0.375 31.625 0.375 34 1 C33.61222896 3.39805772 33.31265274 4.69575191 31.546875 6.4140625 C24.85386753 10.92456754 19.24152297 13.41317181 11 12 C7.09891262 10.19991147 3.06742276 8.06742276 0 5 C-0.04063832 3.33382885 -0.042721 1.66611905 0 0 Z " transform="translate(234,90)" style="fill: #0E0E0E;"/><path d="M0 0 C1.21236328 0.04060547 1.21236328 0.04060547 2.44921875 0.08203125 C3.06410156 0.11683594 3.67898438 0.15164062 4.3125 0.1875 C4.3125 4.52083333 4.3125 8.85416667 4.3125 13.1875 C1.31769083 14.0598412 -1.32325911 14.29579766 -4.4375 14.25 C-5.23671875 14.24097656 -6.0359375 14.23195312 -6.859375 14.22265625 C-7.46265625 14.21105469 -8.0659375 14.19945312 -8.6875 14.1875 C-8.84282734 4.71253209 -8.84282734 4.71253209 -6.41796875 1.51171875 C-4.15364431 -0.22102614 -2.81589057 -0.12243002 0 0 Z " transform="translate(264.6875,186.8125)" style="fill: #EEEEEE;"/><path d="M0 0 C2.875 0.875 2.875 0.875 4.875 2.875 C5.25 6.3125 5.25 6.3125 4.875 9.875 C3.1875 11.875 3.1875 11.875 0.875 12.875 C-1.97843764 12.73580792 -3.58962886 12.24422147 -5.9375 10.625 C-7.6059522 8.16622834 -7.62263411 6.78971407 -7.125 3.875 C-4.88889892 0.60685227 -4.01504863 -0.16060195 0 0 Z " transform="translate(234.125,62.125)" style="fill: #0C0C0C;"/><path d="M0 0 C2.77389443 2.02419323 3.85519403 3.15185077 4.4375 6.5625 C4 9 4 9 2.9375 10.8125 C-0.05550269 12.646921 -2.57816663 12.31107576 -6 12 C-8 10 -8 10 -8.3125 6.5625 C-8 3 -8 3 -6.8125 1.0625 C-4.29445572 -0.41359492 -2.87523324 -0.49089348 0 0 Z " transform="translate(270,62)" style="fill: #0B0B0B;"/><path d="M0 0 C1.65 0 3.3 0 5 0 C5 1.32 5 2.64 5 4 C6.32 4 7.64 4 9 4 C9 5.98 9 7.96 9 10 C7.68 10 6.36 10 5 10 C5 11.32 5 12.64 5 14 C3.35 14 1.7 14 0 14 C0 12.35 0 10.7 0 9 C-1.32 9 -2.64 9 -4 9 C-4 7.35 -4 5.7 -4 4 C-2.68 4 -1.36 4 0 4 C0 2.68 0 1.36 0 0 Z " transform="translate(259,145)" style="fill: #E70707;"/><path d="M0 0 C0.33 0 0.66 0 1 0 C1.02710123 2.5625718 1.04688771 5.12485365 1.0625 7.6875 C1.07087891 8.40873047 1.07925781 9.12996094 1.08789062 9.87304688 C1.10543632 13.71555382 0.93524221 17.26639526 0 21 C-2 20 -2 20 -2.609375 18.2421875 C-3.76869163 11.58771004 -3.68934381 5.84146103 0 0 Z " transform="translate(206,282)" style="fill: #DFDFDF;"/><path d="M0 0 C2.54581423 2.43512666 3.92030102 3.83231727 4.16796875 7.4609375 C4.17441406 8.42257812 4.18085938 9.38421875 4.1875 10.375 C4.20167969 11.33148438 4.21585937 12.28796875 4.23046875 13.2734375 C3.99745572 16.03010017 3.40920164 17.64947395 2 20 C-0.56780471 16.1584024 -0.22688882 12.1860825 -0.125 7.75 C-0.11597656 7.00492187 -0.10695313 6.25984375 -0.09765625 5.4921875 C-0.07418358 3.66131941 -0.03831525 1.83061762 0 0 Z " transform="translate(293,283)" style="fill: #DDDDDD;"/><path d="M0 0 C1.98 0 3.96 0 6 0 C6.36458333 4.49652778 6.36458333 4.49652778 4.6875 6.8125 C3 8 3 8 0 8 C0 5.36 0 2.72 0 0 Z " transform="translate(260,190)" style="fill: #918F8F;"/><path d="M0 0 C6.625 -0.25 6.625 -0.25 10 2 C10.1875 4.625 10.1875 4.625 10 7 C9.278125 6.38125 8.55625 5.7625 7.8125 5.125 C5.21618062 3.16333647 3.05328334 2.04684 0 1 C0 0.67 0 0.34 0 0 Z " transform="translate(260,124)" style="fill: #8E8D8D;"/><path d="M0 0 C-0.309375 0.5775 -0.61875 1.155 -0.9375 1.75 C-1.92583364 3.84294184 -2.5168613 5.74535275 -3 8 C-3.99 7.67 -4.98 7.34 -6 7 C-5.37162381 3.35541809 -4.14650034 0 0 0 Z " transform="translate(233,123)" style="fill: #878787;"/><path d="M0 0 C-6.4 3.07692308 -6.4 3.07692308 -9.4375 2.6875 C-9.953125 2.460625 -10.46875 2.23375 -11 2 C-7.75267347 -1.24732653 -4.25451414 -1.41817138 0 0 Z " transform="translate(263,141)" style="fill: #939292;"/></svg>