<?xml version="1.0" encoding="utf-8" ?>
<svg baseProfile="full" height="500" version="1.1" viewBox="0 0 500 500" width="500" xmlns="http://www.w3.org/2000/svg" xmlns:ev="http://www.w3.org/2001/xml-events" xmlns:xlink="http://www.w3.org/1999/xlink"><defs /><path d="M 245,137 L 244,138 L 237,138 L 236,139 L 232,139 L 231,140 L 229,140 L 228,141 L 225,141 L 224,142 L 222,142 L 221,143 L 219,143 L 218,144 L 217,144 L 216,145 L 215,145 L 214,146 L 213,146 L 212,147 L 211,147 L 210,148 L 209,148 L 208,149 L 207,149 L 205,151 L 204,151 L 202,153 L 201,153 L 198,156 L 197,156 L 196,157 L 195,157 L 195,158 L 194,159 L 193,159 L 193,160 L 191,162 L 190,162 L 189,163 L 189,164 L 186,167 L 185,167 L 185,168 L 184,169 L 183,169 L 183,170 L 182,171 L 182,172 L 179,175 L 179,176 L 178,177 L 178,178 L 176,180 L 176,181 L 175,182 L 175,183 L 174,184 L 174,185 L 172,187 L 172,189 L 171,190 L 171,191 L 170,192 L 170,194 L 169,195 L 169,196 L 168,197 L 168,200 L 167,201 L 167,203 L 165,205 L 166,206 L 165,207 L 166,208 L 165,209 L 164,209 L 165,210 L 165,214 L 164,215 L 164,218 L 163,219 L 164,220 L 164,236 L 165,237 L 165,240 L 164,241 L 165,242 L 164,243 L 165,243 L 166,244 L 166,247 L 167,248 L 167,250 L 166,251 L 167,251 L 168,252 L 168,255 L 169,256 L 169,257 L 170,258 L 169,259 L 170,260 L 170,261 L 172,263 L 172,264 L 173,265 L 173,267 L 176,270 L 176,271 L 177,272 L 177,273 L 179,275 L 179,276 L 181,278 L 181,279 L 185,283 L 185,285 L 186,285 L 189,288 L 189,289 L 190,290 L 191,290 L 194,293 L 195,293 L 199,297 L 200,297 L 202,299 L 203,299 L 205,301 L 206,301 L 207,302 L 207,303 L 208,303 L 209,304 L 210,304 L 212,306 L 213,305 L 214,306 L 215,306 L 216,307 L 218,307 L 219,308 L 220,308 L 222,310 L 226,310 L 227,311 L 230,311 L 231,312 L 232,312 L 233,313 L 233,320 L 231,322 L 224,322 L 223,323 L 221,323 L 219,325 L 218,325 L 216,327 L 216,328 L 213,331 L 213,332 L 210,335 L 210,336 L 209,337 L 208,337 L 208,338 L 206,340 L 206,341 L 204,343 L 203,343 L 203,344 L 201,346 L 201,347 L 197,351 L 196,351 L 196,352 L 173,375 L 172,375 L 170,377 L 169,377 L 169,378 L 166,381 L 165,381 L 161,385 L 160,385 L 158,387 L 157,387 L 156,388 L 155,388 L 154,387 L 151,387 L 150,386 L 146,386 L 145,385 L 142,385 L 141,384 L 138,384 L 137,383 L 135,383 L 134,382 L 131,382 L 130,381 L 128,381 L 127,380 L 125,380 L 124,379 L 122,379 L 121,378 L 119,378 L 118,377 L 116,377 L 115,376 L 113,376 L 112,375 L 111,375 L 110,374 L 108,374 L 107,373 L 105,373 L 104,372 L 103,372 L 102,371 L 100,371 L 99,370 L 98,370 L 97,369 L 95,369 L 94,368 L 93,368 L 92,367 L 91,367 L 90,366 L 88,366 L 87,365 L 87,364 L 84,361 L 84,360 L 81,357 L 81,356 L 77,352 L 77,351 L 70,344 L 69,344 L 67,342 L 64,342 L 63,341 L 61,341 L 60,342 L 58,342 L 54,346 L 54,347 L 52,349 L 51,348 L 50,348 L 49,347 L 49,346 L 48,346 L 46,344 L 45,344 L 43,342 L 42,342 L 41,341 L 40,341 L 38,339 L 36,339 L 35,338 L 34,338 L 33,337 L 30,337 L 29,336 L 25,336 L 24,337 L 21,337 L 20,338 L 19,338 L 16,341 L 15,341 L 15,343 L 14,344 L 14,345 L 12,347 L 13,348 L 13,349 L 12,350 L 12,364 L 13,365 L 13,366 L 12,367 L 14,369 L 14,370 L 15,371 L 15,372 L 17,374 L 17,375 L 22,380 L 24,380 L 25,381 L 26,381 L 27,382 L 27,383 L 28,383 L 29,382 L 30,383 L 31,383 L 32,384 L 34,384 L 35,385 L 36,385 L 37,386 L 39,386 L 40,387 L 43,387 L 44,388 L 46,388 L 47,389 L 50,389 L 51,390 L 53,390 L 54,391 L 55,390 L 56,391 L 61,391 L 62,392 L 65,392 L 66,393 L 68,393 L 69,394 L 70,394 L 71,395 L 72,395 L 74,397 L 77,397 L 78,398 L 79,398 L 80,399 L 82,399 L 83,400 L 84,400 L 86,402 L 87,401 L 88,401 L 89,402 L 91,402 L 92,403 L 93,403 L 95,405 L 96,404 L 97,405 L 98,405 L 99,406 L 102,406 L 103,407 L 105,407 L 106,408 L 108,408 L 110,410 L 111,409 L 112,410 L 114,410 L 115,411 L 118,411 L 119,412 L 119,413 L 120,413 L 121,412 L 122,413 L 124,413 L 125,414 L 128,414 L 129,415 L 132,415 L 133,416 L 133,417 L 134,417 L 135,416 L 136,416 L 138,418 L 139,417 L 140,417 L 141,418 L 142,418 L 143,419 L 144,418 L 145,418 L 146,419 L 149,419 L 150,420 L 153,420 L 154,421 L 155,420 L 156,421 L 166,421 L 167,420 L 169,420 L 170,419 L 171,419 L 174,416 L 175,416 L 177,414 L 178,414 L 180,412 L 181,412 L 181,411 L 182,410 L 183,410 L 184,409 L 185,409 L 185,408 L 190,403 L 192,403 L 193,402 L 193,401 L 197,397 L 198,397 L 213,382 L 214,382 L 214,381 L 216,379 L 217,380 L 217,384 L 216,385 L 217,386 L 216,387 L 217,388 L 217,390 L 216,391 L 217,392 L 217,397 L 216,398 L 216,406 L 215,407 L 216,408 L 216,410 L 215,411 L 216,412 L 216,414 L 215,415 L 215,432 L 214,433 L 214,436 L 213,437 L 214,438 L 213,439 L 214,440 L 213,441 L 214,442 L 214,444 L 213,445 L 214,446 L 214,448 L 213,449 L 214,450 L 213,451 L 213,467 L 212,468 L 212,475 L 213,475 L 214,476 L 216,476 L 217,477 L 219,477 L 220,478 L 225,478 L 227,480 L 228,479 L 239,479 L 240,480 L 252,480 L 253,481 L 255,479 L 265,479 L 266,480 L 268,480 L 268,479 L 269,478 L 275,478 L 276,477 L 279,477 L 280,476 L 282,476 L 283,475 L 284,476 L 284,475 L 286,473 L 286,466 L 285,465 L 285,463 L 286,462 L 285,461 L 286,460 L 285,459 L 285,457 L 286,456 L 285,455 L 285,453 L 284,452 L 284,447 L 285,446 L 284,445 L 284,443 L 285,442 L 284,441 L 284,440 L 283,439 L 283,433 L 284,432 L 283,431 L 283,427 L 282,426 L 282,423 L 283,422 L 282,421 L 282,419 L 283,418 L 282,417 L 283,416 L 282,415 L 282,414 L 281,413 L 281,403 L 282,402 L 281,401 L 281,400 L 280,399 L 281,398 L 280,397 L 280,387 L 279,386 L 279,379 L 280,378 L 281,378 L 295,392 L 295,393 L 296,393 L 297,394 L 297,395 L 299,395 L 300,396 L 300,397 L 301,398 L 302,398 L 306,402 L 307,402 L 312,407 L 313,407 L 317,411 L 318,411 L 319,412 L 319,413 L 321,415 L 323,415 L 326,418 L 327,418 L 328,419 L 329,419 L 330,420 L 331,420 L 332,421 L 339,421 L 340,422 L 341,421 L 342,421 L 343,420 L 344,420 L 345,421 L 346,420 L 347,420 L 348,419 L 351,419 L 352,418 L 357,418 L 358,417 L 360,417 L 361,416 L 366,416 L 368,414 L 372,414 L 373,413 L 374,413 L 375,412 L 378,412 L 379,411 L 381,411 L 382,410 L 384,410 L 385,409 L 387,409 L 388,408 L 390,408 L 391,407 L 393,407 L 394,406 L 396,406 L 397,405 L 398,405 L 399,406 L 399,405 L 400,404 L 402,404 L 403,403 L 407,403 L 409,401 L 410,401 L 411,400 L 415,400 L 415,399 L 416,398 L 419,398 L 420,397 L 421,397 L 422,396 L 423,396 L 424,395 L 425,396 L 425,395 L 426,394 L 429,394 L 431,392 L 436,392 L 437,391 L 442,391 L 443,390 L 447,390 L 448,389 L 450,389 L 451,388 L 454,388 L 455,387 L 457,387 L 458,386 L 461,386 L 462,385 L 463,385 L 464,384 L 466,384 L 467,383 L 470,383 L 472,381 L 473,381 L 475,379 L 476,380 L 476,379 L 477,378 L 478,378 L 481,375 L 481,374 L 483,372 L 483,371 L 484,370 L 484,368 L 485,367 L 485,365 L 486,364 L 486,359 L 487,358 L 486,357 L 486,350 L 485,349 L 486,348 L 485,347 L 485,346 L 484,345 L 484,344 L 483,343 L 483,342 L 482,341 L 482,340 L 481,340 L 479,338 L 478,338 L 477,337 L 475,337 L 474,336 L 469,336 L 468,337 L 465,337 L 464,338 L 462,338 L 461,339 L 460,339 L 458,341 L 456,341 L 452,345 L 450,345 L 450,346 L 448,348 L 447,348 L 446,349 L 445,349 L 444,350 L 443,349 L 443,348 L 441,346 L 441,345 L 440,344 L 439,344 L 437,342 L 435,342 L 434,341 L 432,341 L 431,342 L 428,342 L 427,343 L 426,343 L 426,344 L 423,347 L 422,347 L 422,348 L 419,351 L 419,352 L 417,354 L 417,355 L 415,357 L 415,358 L 413,360 L 413,361 L 412,362 L 412,363 L 408,367 L 406,367 L 405,368 L 404,368 L 403,369 L 401,369 L 400,370 L 399,370 L 398,371 L 396,371 L 395,372 L 394,372 L 393,373 L 391,373 L 390,374 L 388,374 L 387,375 L 385,375 L 384,376 L 383,376 L 382,377 L 380,377 L 379,378 L 377,378 L 376,379 L 373,379 L 372,380 L 371,380 L 370,381 L 367,381 L 366,382 L 364,382 L 363,383 L 361,383 L 360,384 L 357,384 L 356,385 L 353,385 L 352,386 L 349,386 L 348,387 L 344,387 L 343,388 L 341,388 L 337,384 L 336,384 L 331,379 L 330,379 L 326,375 L 326,374 L 325,374 L 324,373 L 323,373 L 315,365 L 315,364 L 314,364 L 303,353 L 303,352 L 302,352 L 299,349 L 299,348 L 293,342 L 293,341 L 291,339 L 291,338 L 290,338 L 289,337 L 290,336 L 289,336 L 286,333 L 286,332 L 283,329 L 283,328 L 279,324 L 278,324 L 277,323 L 276,323 L 275,322 L 272,322 L 271,321 L 272,320 L 271,319 L 272,318 L 271,317 L 272,316 L 271,315 L 271,313 L 272,312 L 274,312 L 275,311 L 277,311 L 278,310 L 280,310 L 281,309 L 283,309 L 284,308 L 286,308 L 287,307 L 288,307 L 289,306 L 290,306 L 291,305 L 294,305 L 297,302 L 298,302 L 300,300 L 301,300 L 303,298 L 304,298 L 306,296 L 307,296 L 314,289 L 315,289 L 316,288 L 316,287 L 317,286 L 318,286 L 318,285 L 319,284 L 320,284 L 321,283 L 321,282 L 324,279 L 324,278 L 325,277 L 325,276 L 327,274 L 327,273 L 329,271 L 329,270 L 330,269 L 330,268 L 331,267 L 331,266 L 333,264 L 333,263 L 334,262 L 334,259 L 335,258 L 335,257 L 336,256 L 337,256 L 336,255 L 336,254 L 338,252 L 337,251 L 337,250 L 338,249 L 338,247 L 339,246 L 339,243 L 340,242 L 339,241 L 340,240 L 340,239 L 341,238 L 340,237 L 340,233 L 341,232 L 341,219 L 340,218 L 340,211 L 339,210 L 339,206 L 338,205 L 339,204 L 338,203 L 338,202 L 337,201 L 338,200 L 336,198 L 336,196 L 335,195 L 335,193 L 334,192 L 334,191 L 333,190 L 333,188 L 332,187 L 332,186 L 331,185 L 331,184 L 329,182 L 329,181 L 328,180 L 328,179 L 326,177 L 326,176 L 324,174 L 324,173 L 321,170 L 321,168 L 320,168 L 315,163 L 315,162 L 314,162 L 309,157 L 308,157 L 305,154 L 304,154 L 303,153 L 303,152 L 301,152 L 299,150 L 298,150 L 297,149 L 296,149 L 294,147 L 293,147 L 292,146 L 291,146 L 290,145 L 288,145 L 287,144 L 286,144 L 285,143 L 283,143 L 282,142 L 280,142 L 279,141 L 277,141 L 276,140 L 273,140 L 272,139 L 268,139 L 267,138 L 260,138 L 259,137 Z" fill="#000000" stroke="none" /><path d="M 151,128 L 150,129 L 149,129 L 145,133 L 144,133 L 145,134 L 144,135 L 144,138 L 143,139 L 144,140 L 144,142 L 145,143 L 145,144 L 147,146 L 147,147 L 148,147 L 149,148 L 150,148 L 151,149 L 159,149 L 160,148 L 161,148 L 164,145 L 164,144 L 165,143 L 165,141 L 166,140 L 167,140 L 166,139 L 166,137 L 165,136 L 165,135 L 166,134 L 165,134 L 164,133 L 164,132 L 163,131 L 163,130 L 162,130 L 161,129 L 160,129 L 159,128 Z" fill="#000000" stroke="none" /><path d="M 329,124 L 328,125 L 327,125 L 326,126 L 325,126 L 323,128 L 323,129 L 322,130 L 322,131 L 321,132 L 321,138 L 322,139 L 322,140 L 323,141 L 323,142 L 325,144 L 326,144 L 327,145 L 328,145 L 329,146 L 329,147 L 334,147 L 334,146 L 335,145 L 336,146 L 339,143 L 340,143 L 340,142 L 342,140 L 342,138 L 343,137 L 343,132 L 342,131 L 342,130 L 340,128 L 340,127 L 339,126 L 338,126 L 337,125 L 335,125 L 334,124 Z" fill="#000000" stroke="none" /><path d="M 246,101 L 245,102 L 244,102 L 242,104 L 241,104 L 241,105 L 239,107 L 239,108 L 238,109 L 238,114 L 239,115 L 239,117 L 240,118 L 240,119 L 242,121 L 243,121 L 244,122 L 245,122 L 246,123 L 247,123 L 248,124 L 249,123 L 250,123 L 251,124 L 253,122 L 254,122 L 255,121 L 256,121 L 259,118 L 259,117 L 260,116 L 260,111 L 261,110 L 259,108 L 259,107 L 258,106 L 258,105 L 255,102 L 252,102 L 251,101 Z" fill="#000000" stroke="none" /><path d="M 351,48 L 350,49 L 347,49 L 346,50 L 345,50 L 344,51 L 342,51 L 340,53 L 339,53 L 333,59 L 332,59 L 332,60 L 330,62 L 330,63 L 331,64 L 330,65 L 331,64 L 332,65 L 333,65 L 335,67 L 336,67 L 339,70 L 340,70 L 342,72 L 343,72 L 345,74 L 346,74 L 351,69 L 352,70 L 352,69 L 354,67 L 355,67 L 356,66 L 364,66 L 365,67 L 367,67 L 368,68 L 369,68 L 375,74 L 375,75 L 376,76 L 376,77 L 377,78 L 376,79 L 377,80 L 377,82 L 376,83 L 376,84 L 375,85 L 374,85 L 375,86 L 373,88 L 372,88 L 370,90 L 368,90 L 367,91 L 364,91 L 363,92 L 359,92 L 358,93 L 354,93 L 353,94 L 351,94 L 350,95 L 348,95 L 347,96 L 346,96 L 345,97 L 343,97 L 343,98 L 342,99 L 341,99 L 341,100 L 340,101 L 339,101 L 339,102 L 338,103 L 337,103 L 337,104 L 336,105 L 336,106 L 335,107 L 335,108 L 334,109 L 334,110 L 333,111 L 332,111 L 333,112 L 332,113 L 332,114 L 333,115 L 334,115 L 335,116 L 336,116 L 337,117 L 338,117 L 339,118 L 340,118 L 341,119 L 342,119 L 343,120 L 344,120 L 345,121 L 346,121 L 349,124 L 349,122 L 351,120 L 351,118 L 357,112 L 358,113 L 360,111 L 362,111 L 363,110 L 367,110 L 368,109 L 371,109 L 372,108 L 375,108 L 376,107 L 378,107 L 379,106 L 381,106 L 382,105 L 383,105 L 384,104 L 385,104 L 387,102 L 388,103 L 389,102 L 389,101 L 391,99 L 391,98 L 393,96 L 394,96 L 393,95 L 394,94 L 394,93 L 395,92 L 395,90 L 396,89 L 396,85 L 397,84 L 396,83 L 396,81 L 397,80 L 396,79 L 396,77 L 395,76 L 395,74 L 394,73 L 395,72 L 393,70 L 393,68 L 392,68 L 391,67 L 391,66 L 388,63 L 388,62 L 387,61 L 387,60 L 385,60 L 381,56 L 380,56 L 379,55 L 379,54 L 377,54 L 376,53 L 375,53 L 374,52 L 373,52 L 372,51 L 371,51 L 370,50 L 368,50 L 367,49 L 363,49 L 362,48 Z" fill="#000000" stroke="none" /><path d="M 135,48 L 134,49 L 130,49 L 129,50 L 126,50 L 125,51 L 124,51 L 123,52 L 121,52 L 120,53 L 118,53 L 118,54 L 117,55 L 116,55 L 114,57 L 113,57 L 108,62 L 108,63 L 106,65 L 105,65 L 106,66 L 105,67 L 104,67 L 105,68 L 104,69 L 104,70 L 103,71 L 103,74 L 102,75 L 102,76 L 101,77 L 102,78 L 102,84 L 101,85 L 102,86 L 102,89 L 110,89 L 111,88 L 112,88 L 113,87 L 118,87 L 119,86 L 121,86 L 121,80 L 122,79 L 122,75 L 123,74 L 123,73 L 124,72 L 125,72 L 125,70 L 126,69 L 127,69 L 129,67 L 131,67 L 132,66 L 133,66 L 134,65 L 141,65 L 142,66 L 145,66 L 150,71 L 150,73 L 151,74 L 150,75 L 151,76 L 150,77 L 150,79 L 149,80 L 149,81 L 148,82 L 148,83 L 146,85 L 146,86 L 144,88 L 144,89 L 142,91 L 142,92 L 141,93 L 140,93 L 141,94 L 140,95 L 140,96 L 139,97 L 139,98 L 138,99 L 138,101 L 136,103 L 137,104 L 137,105 L 136,106 L 136,111 L 137,112 L 137,116 L 138,117 L 138,121 L 139,122 L 139,123 L 140,124 L 141,124 L 142,123 L 144,123 L 145,122 L 148,122 L 149,121 L 150,121 L 151,120 L 154,120 L 155,119 L 157,119 L 158,118 L 159,118 L 158,117 L 158,116 L 157,115 L 157,114 L 156,113 L 157,112 L 156,111 L 157,110 L 156,109 L 157,108 L 156,107 L 156,105 L 157,104 L 157,103 L 159,101 L 159,100 L 160,99 L 160,98 L 162,96 L 162,95 L 165,92 L 165,90 L 166,89 L 166,88 L 167,87 L 167,86 L 168,85 L 168,84 L 169,83 L 169,81 L 170,80 L 170,76 L 171,75 L 171,71 L 170,70 L 170,69 L 171,68 L 170,67 L 170,66 L 169,65 L 169,64 L 168,63 L 169,62 L 168,62 L 167,61 L 167,60 L 166,59 L 166,58 L 165,58 L 162,55 L 162,54 L 161,54 L 160,53 L 159,53 L 158,52 L 157,52 L 156,51 L 155,51 L 154,50 L 152,50 L 151,49 L 148,49 L 147,48 Z" fill="#000000" stroke="none" /><path d="M 248,19 L 247,20 L 239,20 L 238,21 L 236,21 L 235,22 L 233,22 L 232,23 L 231,23 L 230,24 L 229,24 L 227,26 L 226,26 L 219,33 L 219,34 L 218,35 L 218,36 L 217,37 L 216,37 L 217,38 L 216,39 L 215,39 L 216,40 L 215,41 L 215,42 L 214,43 L 215,44 L 215,45 L 214,46 L 214,51 L 215,51 L 216,50 L 218,50 L 219,51 L 223,51 L 224,52 L 225,51 L 229,51 L 230,52 L 233,52 L 233,50 L 235,48 L 234,47 L 235,46 L 235,45 L 236,44 L 237,44 L 236,43 L 242,37 L 244,37 L 245,36 L 254,36 L 255,37 L 257,37 L 258,38 L 259,38 L 263,42 L 263,43 L 264,44 L 264,46 L 263,47 L 264,48 L 264,50 L 263,51 L 263,52 L 259,56 L 259,57 L 258,58 L 257,58 L 256,59 L 255,59 L 255,60 L 254,61 L 253,61 L 243,71 L 243,72 L 242,73 L 241,73 L 242,74 L 241,75 L 241,77 L 240,78 L 240,81 L 238,83 L 239,84 L 238,85 L 239,86 L 239,88 L 238,89 L 239,90 L 239,94 L 258,94 L 258,93 L 259,92 L 258,91 L 259,90 L 258,89 L 258,86 L 260,84 L 259,83 L 260,82 L 260,81 L 263,78 L 264,78 L 264,77 L 266,75 L 267,76 L 269,74 L 269,73 L 274,68 L 275,68 L 275,67 L 276,66 L 277,66 L 277,65 L 278,64 L 279,64 L 279,63 L 280,62 L 280,61 L 282,59 L 282,58 L 284,56 L 283,55 L 284,54 L 284,47 L 285,46 L 284,45 L 284,43 L 285,42 L 283,40 L 283,38 L 282,37 L 282,36 L 281,35 L 281,34 L 278,31 L 278,30 L 277,30 L 276,29 L 276,28 L 275,28 L 273,26 L 272,26 L 270,24 L 269,24 L 268,23 L 266,23 L 265,22 L 263,22 L 262,21 L 260,21 L 259,20 L 252,20 L 251,19 Z" fill="#000000" stroke="none" /><path d="M 468,349 L 467,350 L 466,350 L 465,351 L 464,351 L 462,353 L 461,353 L 458,356 L 457,356 L 453,360 L 452,360 L 445,367 L 444,367 L 443,368 L 440,368 L 439,367 L 438,367 L 436,365 L 436,364 L 435,363 L 435,361 L 434,360 L 434,358 L 433,357 L 433,356 L 432,355 L 431,356 L 431,357 L 428,360 L 428,361 L 426,363 L 426,364 L 424,366 L 424,367 L 422,369 L 422,370 L 421,371 L 421,372 L 420,373 L 425,378 L 426,378 L 428,380 L 433,380 L 434,379 L 439,379 L 440,378 L 444,378 L 445,377 L 448,377 L 449,376 L 451,376 L 452,375 L 454,375 L 455,374 L 457,374 L 458,373 L 460,373 L 461,372 L 463,372 L 464,371 L 465,371 L 466,370 L 467,370 L 468,369 L 469,369 L 472,366 L 472,365 L 473,364 L 473,362 L 474,361 L 474,353 L 473,352 L 473,350 L 472,349 Z" fill="#f0f0f0" stroke="none" /><path d="M 26,349 L 25,350 L 25,352 L 24,353 L 24,361 L 25,362 L 25,364 L 26,365 L 26,366 L 29,369 L 30,369 L 31,370 L 32,370 L 33,371 L 34,371 L 35,372 L 37,372 L 38,373 L 39,373 L 40,374 L 43,374 L 44,375 L 46,375 L 47,376 L 49,376 L 50,377 L 53,377 L 54,378 L 58,378 L 59,379 L 64,379 L 65,380 L 70,380 L 72,378 L 73,378 L 78,373 L 75,370 L 75,369 L 72,366 L 72,365 L 69,362 L 69,361 L 64,356 L 63,357 L 63,363 L 62,364 L 62,365 L 60,367 L 59,367 L 58,368 L 55,368 L 54,367 L 53,367 L 47,361 L 46,361 L 41,356 L 40,356 L 37,353 L 36,353 L 34,351 L 33,351 L 32,350 L 31,350 L 30,349 Z" fill="#f0f0f0" stroke="none" /><path d="M 241,154 L 240,155 L 236,155 L 235,156 L 232,156 L 231,157 L 229,157 L 228,158 L 226,158 L 225,159 L 224,159 L 223,160 L 222,160 L 221,161 L 220,161 L 219,162 L 218,162 L 217,163 L 216,163 L 215,164 L 214,164 L 212,166 L 211,166 L 207,170 L 206,170 L 196,180 L 196,181 L 193,184 L 193,185 L 191,187 L 191,188 L 190,189 L 190,190 L 188,192 L 188,193 L 187,194 L 187,196 L 186,197 L 186,198 L 185,199 L 185,200 L 184,201 L 184,203 L 183,204 L 183,207 L 182,208 L 182,211 L 181,212 L 181,218 L 180,219 L 180,232 L 181,233 L 181,239 L 182,240 L 182,243 L 183,244 L 183,247 L 184,248 L 184,250 L 185,251 L 185,252 L 186,253 L 186,255 L 187,256 L 187,257 L 188,258 L 188,259 L 189,260 L 189,261 L 191,263 L 191,264 L 192,265 L 192,266 L 195,269 L 195,270 L 201,276 L 201,277 L 202,277 L 208,283 L 209,283 L 212,286 L 213,286 L 214,287 L 215,287 L 217,289 L 218,289 L 219,290 L 220,290 L 221,291 L 222,291 L 223,292 L 225,292 L 226,293 L 227,293 L 228,294 L 230,294 L 231,295 L 234,295 L 235,296 L 238,296 L 239,297 L 245,297 L 246,298 L 258,298 L 259,297 L 266,297 L 267,296 L 270,296 L 271,295 L 274,295 L 275,294 L 276,294 L 277,293 L 279,293 L 280,292 L 281,292 L 282,291 L 284,291 L 286,289 L 287,289 L 288,288 L 289,288 L 290,287 L 291,287 L 293,285 L 294,285 L 297,282 L 298,282 L 308,272 L 308,271 L 311,268 L 311,267 L 313,265 L 313,264 L 315,262 L 315,261 L 316,260 L 316,259 L 317,258 L 317,257 L 318,256 L 318,255 L 319,254 L 319,252 L 320,251 L 320,250 L 321,249 L 321,247 L 322,246 L 322,243 L 323,242 L 323,238 L 324,237 L 324,215 L 323,214 L 323,210 L 322,209 L 322,206 L 321,205 L 321,203 L 320,202 L 320,200 L 319,199 L 319,198 L 318,197 L 318,195 L 317,194 L 317,193 L 316,192 L 316,191 L 314,189 L 314,188 L 313,187 L 313,186 L 311,184 L 311,183 L 306,178 L 306,177 L 301,172 L 300,172 L 296,168 L 295,168 L 292,165 L 291,165 L 290,164 L 289,164 L 287,162 L 286,162 L 285,161 L 284,161 L 283,160 L 282,160 L 281,159 L 279,159 L 278,158 L 276,158 L 275,157 L 273,157 L 272,156 L 269,156 L 268,155 L 264,155 L 263,154 Z" fill="#f0f0f0" stroke="none" /></svg>