<?xml version="1.0" encoding="utf-8" ?>
<svg baseProfile="full" height="500" version="1.1" viewBox="0 0 500 500" width="500" xmlns="http://www.w3.org/2000/svg" xmlns:ev="http://www.w3.org/2001/xml-events" xmlns:xlink="http://www.w3.org/1999/xlink"><defs /><path d="M 439,236 L 439,257 L 437,259 L 390,259 L 390,272 L 437,272 L 439,274 L 439,295 L 440,294 L 441,294 L 443,292 L 444,292 L 446,290 L 447,290 L 449,288 L 450,288 L 452,286 L 453,286 L 455,284 L 456,284 L 458,282 L 459,282 L 461,280 L 462,280 L 464,278 L 465,278 L 467,276 L 468,276 L 471,273 L 472,273 L 474,271 L 475,271 L 477,269 L 478,269 L 480,267 L 481,267 L 483,265 L 482,265 L 480,263 L 479,263 L 477,261 L 476,261 L 474,259 L 473,259 L 471,257 L 470,257 L 468,255 L 467,255 L 465,253 L 464,253 L 462,251 L 461,251 L 459,249 L 458,249 L 455,246 L 454,246 L 452,244 L 451,244 L 449,242 L 448,242 L 446,240 L 445,240 L 443,238 L 442,238 L 440,236 Z" fill="#000000" stroke="none" /><path d="M 59,236 L 57,238 L 56,238 L 54,240 L 53,240 L 51,242 L 50,242 L 47,245 L 46,245 L 44,247 L 43,247 L 42,248 L 41,248 L 38,251 L 37,251 L 35,253 L 34,253 L 32,255 L 31,255 L 29,257 L 28,257 L 26,259 L 25,259 L 23,261 L 22,261 L 20,263 L 19,263 L 17,265 L 17,266 L 18,267 L 19,267 L 21,269 L 22,269 L 24,271 L 25,271 L 27,273 L 28,273 L 30,275 L 31,275 L 33,277 L 34,277 L 36,279 L 37,279 L 40,282 L 41,282 L 43,284 L 44,284 L 46,286 L 47,286 L 49,288 L 50,288 L 52,290 L 53,290 L 55,292 L 56,292 L 58,294 L 59,294 L 60,295 L 60,274 L 62,272 L 109,272 L 109,259 L 62,259 L 60,257 L 60,236 Z" fill="#000000" stroke="none" /><path d="M 235,107 L 234,108 L 230,108 L 229,109 L 225,109 L 224,110 L 222,110 L 221,111 L 219,111 L 218,112 L 216,112 L 215,113 L 214,113 L 213,114 L 211,114 L 210,115 L 209,115 L 208,116 L 207,116 L 206,117 L 205,117 L 204,118 L 203,118 L 202,119 L 201,119 L 199,121 L 198,121 L 196,123 L 195,123 L 193,125 L 192,125 L 188,129 L 187,129 L 171,145 L 171,146 L 168,149 L 168,150 L 165,153 L 165,154 L 163,156 L 163,157 L 161,159 L 161,160 L 160,161 L 160,162 L 158,164 L 158,165 L 157,166 L 157,167 L 156,168 L 156,169 L 155,170 L 155,171 L 154,172 L 154,173 L 153,174 L 153,175 L 152,176 L 152,177 L 151,178 L 151,180 L 150,181 L 150,182 L 149,183 L 149,185 L 148,186 L 148,188 L 147,189 L 147,191 L 146,192 L 146,194 L 145,195 L 145,197 L 144,198 L 144,201 L 143,202 L 143,205 L 142,206 L 142,210 L 141,211 L 141,215 L 140,216 L 140,222 L 139,223 L 139,231 L 138,232 L 138,252 L 137,253 L 135,253 L 128,260 L 128,262 L 127,263 L 127,264 L 126,265 L 126,270 L 125,271 L 125,272 L 126,273 L 126,278 L 127,279 L 127,281 L 128,282 L 128,283 L 129,284 L 129,285 L 131,287 L 131,288 L 133,290 L 134,290 L 136,292 L 137,292 L 138,293 L 140,293 L 141,294 L 144,294 L 146,296 L 146,299 L 147,300 L 147,301 L 148,302 L 148,304 L 149,305 L 149,307 L 150,308 L 150,310 L 151,311 L 151,312 L 152,313 L 152,314 L 153,315 L 153,316 L 154,317 L 154,318 L 155,319 L 155,320 L 156,321 L 156,322 L 157,323 L 157,324 L 158,325 L 158,326 L 159,327 L 159,328 L 161,330 L 161,331 L 162,332 L 162,333 L 164,335 L 164,336 L 166,338 L 166,339 L 169,342 L 169,343 L 174,348 L 174,349 L 185,360 L 186,360 L 188,362 L 188,389 L 192,389 L 192,367 L 193,366 L 194,367 L 195,367 L 197,369 L 198,369 L 200,371 L 201,371 L 202,372 L 203,372 L 204,373 L 205,373 L 206,374 L 207,374 L 208,375 L 209,375 L 210,376 L 211,376 L 212,377 L 213,377 L 214,378 L 216,378 L 217,379 L 219,379 L 220,380 L 222,380 L 223,381 L 225,381 L 226,382 L 230,382 L 231,383 L 235,383 L 236,384 L 259,384 L 260,383 L 265,383 L 266,382 L 269,382 L 270,381 L 273,381 L 274,380 L 276,380 L 277,379 L 278,379 L 279,378 L 281,378 L 282,377 L 283,377 L 284,376 L 285,376 L 286,375 L 287,375 L 288,374 L 289,374 L 290,373 L 291,373 L 292,372 L 293,373 L 293,390 L 297,390 L 297,370 L 300,367 L 301,367 L 303,365 L 304,365 L 308,361 L 309,361 L 323,347 L 323,346 L 326,343 L 326,342 L 329,339 L 329,338 L 331,336 L 331,335 L 333,333 L 333,332 L 335,330 L 335,329 L 336,328 L 336,327 L 337,326 L 337,325 L 339,323 L 339,322 L 340,321 L 340,320 L 341,319 L 341,318 L 342,317 L 342,315 L 343,314 L 343,313 L 344,312 L 344,311 L 345,310 L 345,308 L 346,307 L 346,306 L 347,305 L 347,303 L 348,302 L 348,300 L 349,299 L 349,297 L 350,296 L 350,294 L 351,293 L 351,291 L 352,290 L 355,290 L 356,289 L 358,289 L 359,288 L 360,288 L 362,286 L 363,286 L 365,284 L 365,283 L 367,281 L 367,280 L 368,279 L 368,278 L 369,277 L 369,276 L 370,275 L 370,271 L 371,270 L 371,265 L 370,264 L 370,261 L 369,260 L 369,258 L 368,257 L 368,256 L 366,254 L 366,253 L 364,251 L 363,251 L 361,249 L 359,249 L 357,247 L 357,232 L 356,231 L 356,223 L 355,222 L 355,216 L 354,215 L 354,211 L 353,210 L 353,206 L 352,205 L 352,202 L 351,201 L 351,198 L 350,197 L 350,195 L 349,194 L 349,192 L 348,191 L 348,189 L 347,188 L 347,186 L 346,185 L 346,184 L 345,183 L 345,181 L 344,180 L 344,179 L 343,178 L 343,177 L 342,176 L 342,174 L 341,173 L 341,172 L 340,171 L 340,170 L 339,169 L 339,168 L 337,166 L 337,165 L 336,164 L 336,163 L 335,162 L 335,161 L 333,159 L 333,158 L 332,157 L 332,156 L 329,153 L 329,152 L 327,150 L 327,149 L 324,146 L 324,145 L 308,129 L 307,129 L 304,126 L 303,126 L 300,123 L 299,123 L 297,121 L 296,121 L 295,120 L 294,120 L 292,118 L 291,118 L 290,117 L 289,117 L 288,116 L 287,116 L 286,115 L 285,115 L 284,114 L 282,114 L 281,113 L 280,113 L 279,112 L 277,112 L 276,111 L 274,111 L 273,110 L 270,110 L 269,109 L 266,109 L 265,108 L 260,108 L 259,107 Z" fill="#000000" stroke="none" /><path d="M 194,369 L 194,389 L 214,389 L 215,388 L 216,389 L 291,389 L 291,375 L 292,374 L 291,375 L 290,375 L 288,377 L 287,377 L 286,378 L 284,378 L 283,379 L 282,379 L 281,380 L 279,380 L 278,381 L 277,381 L 276,382 L 274,382 L 273,383 L 270,383 L 269,384 L 268,384 L 267,385 L 266,384 L 265,385 L 259,385 L 258,386 L 256,386 L 255,387 L 254,386 L 253,387 L 252,386 L 237,386 L 236,385 L 231,385 L 230,384 L 226,384 L 225,383 L 223,383 L 222,382 L 221,382 L 220,383 L 218,381 L 217,381 L 216,380 L 214,380 L 213,379 L 212,379 L 211,378 L 210,378 L 209,377 L 208,377 L 207,376 L 206,376 L 205,375 L 204,375 L 203,374 L 202,374 L 201,373 L 200,373 L 199,372 L 198,372 L 196,370 L 195,370 Z" fill="#f0d8d8" stroke="none" /><path d="M 135,260 L 135,261 L 133,263 L 133,265 L 132,266 L 132,267 L 131,268 L 131,275 L 132,276 L 132,279 L 133,280 L 133,281 L 135,283 L 135,284 L 136,285 L 137,285 L 140,288 L 141,288 L 141,287 L 140,286 L 140,283 L 139,282 L 139,278 L 138,277 L 138,272 L 137,271 L 137,263 L 136,262 L 136,260 Z" fill="#f0d8d8" stroke="none" /><path d="M 359,255 L 359,268 L 358,269 L 358,274 L 357,275 L 357,280 L 356,281 L 356,284 L 359,281 L 360,281 L 360,280 L 363,277 L 363,276 L 364,275 L 364,273 L 365,272 L 365,263 L 364,262 L 364,261 L 363,260 L 363,259 L 362,258 L 362,257 L 360,255 Z" fill="#f0d8d8" stroke="none" /><path d="M 240,112 L 239,113 L 233,113 L 232,114 L 228,114 L 227,115 L 225,115 L 224,116 L 221,116 L 220,117 L 218,117 L 217,118 L 216,118 L 215,119 L 214,119 L 213,120 L 212,120 L 211,121 L 209,121 L 208,122 L 207,122 L 205,124 L 204,124 L 203,125 L 202,125 L 200,127 L 199,127 L 199,128 L 198,129 L 196,129 L 192,133 L 191,133 L 189,135 L 189,136 L 188,137 L 187,137 L 176,148 L 176,149 L 172,153 L 172,154 L 169,157 L 169,158 L 167,160 L 167,161 L 166,162 L 166,163 L 164,165 L 164,166 L 163,167 L 163,168 L 162,169 L 162,170 L 160,172 L 160,173 L 159,174 L 159,175 L 158,176 L 158,178 L 157,179 L 157,180 L 156,181 L 156,182 L 155,183 L 155,185 L 154,186 L 154,188 L 153,189 L 154,190 L 152,192 L 152,194 L 151,195 L 151,197 L 150,198 L 150,200 L 149,201 L 149,204 L 148,205 L 149,206 L 148,207 L 148,208 L 147,209 L 147,213 L 146,214 L 146,219 L 145,220 L 145,226 L 144,227 L 144,229 L 145,230 L 144,231 L 144,263 L 145,264 L 145,271 L 146,272 L 146,277 L 147,278 L 147,281 L 148,282 L 148,283 L 149,284 L 148,285 L 148,286 L 149,287 L 149,289 L 150,290 L 150,293 L 151,294 L 151,296 L 152,297 L 152,299 L 153,300 L 153,302 L 154,303 L 154,304 L 155,305 L 155,307 L 156,308 L 156,309 L 157,310 L 157,312 L 158,313 L 158,314 L 159,315 L 159,316 L 160,317 L 160,318 L 161,319 L 161,320 L 162,321 L 162,322 L 164,324 L 164,325 L 165,326 L 165,327 L 166,327 L 167,328 L 167,330 L 168,331 L 168,332 L 171,335 L 171,336 L 174,339 L 174,340 L 177,343 L 177,344 L 180,347 L 181,347 L 182,348 L 182,349 L 183,349 L 184,350 L 184,351 L 185,351 L 186,352 L 186,353 L 189,356 L 190,356 L 193,359 L 194,359 L 196,361 L 197,361 L 198,362 L 198,363 L 199,363 L 201,365 L 202,365 L 203,366 L 204,366 L 206,368 L 207,368 L 208,369 L 209,369 L 210,370 L 211,370 L 212,371 L 214,371 L 215,372 L 216,372 L 217,373 L 218,373 L 219,374 L 221,374 L 222,375 L 224,375 L 225,376 L 228,376 L 229,377 L 233,377 L 234,378 L 241,378 L 242,379 L 254,379 L 255,378 L 261,378 L 262,377 L 266,377 L 267,376 L 270,376 L 271,375 L 272,375 L 273,374 L 276,374 L 277,373 L 278,373 L 279,372 L 281,372 L 283,370 L 285,370 L 286,369 L 287,369 L 289,367 L 290,367 L 291,366 L 292,366 L 294,364 L 295,364 L 296,363 L 297,363 L 299,361 L 300,361 L 304,357 L 305,357 L 306,356 L 306,355 L 307,354 L 308,354 L 314,348 L 314,347 L 315,346 L 316,346 L 318,344 L 318,343 L 322,339 L 322,338 L 325,335 L 325,333 L 326,332 L 327,332 L 327,331 L 329,329 L 329,328 L 330,327 L 330,326 L 332,324 L 332,323 L 333,322 L 333,321 L 334,320 L 334,319 L 335,318 L 335,317 L 336,316 L 336,315 L 337,314 L 337,313 L 338,312 L 337,311 L 338,310 L 339,310 L 339,308 L 340,307 L 340,306 L 341,305 L 341,303 L 342,302 L 342,300 L 343,299 L 343,298 L 344,297 L 344,294 L 345,293 L 345,291 L 346,290 L 346,287 L 347,286 L 347,283 L 348,282 L 348,278 L 349,277 L 349,273 L 350,272 L 350,270 L 349,269 L 350,268 L 350,265 L 351,264 L 351,254 L 352,253 L 352,240 L 351,239 L 351,232 L 350,231 L 351,230 L 350,229 L 351,228 L 351,227 L 350,226 L 350,220 L 349,219 L 349,214 L 348,213 L 348,209 L 347,208 L 347,205 L 346,204 L 346,201 L 345,200 L 345,198 L 344,197 L 344,196 L 343,195 L 344,194 L 343,193 L 343,192 L 342,191 L 342,189 L 341,188 L 341,186 L 340,185 L 340,184 L 339,184 L 338,183 L 339,182 L 339,181 L 338,180 L 338,179 L 337,178 L 337,177 L 336,176 L 336,175 L 335,174 L 335,173 L 333,171 L 333,169 L 332,168 L 332,167 L 331,166 L 331,165 L 329,163 L 329,162 L 327,160 L 327,159 L 324,156 L 324,155 L 323,154 L 323,153 L 320,150 L 320,149 L 317,146 L 316,146 L 315,145 L 315,144 L 304,133 L 303,133 L 300,130 L 299,130 L 296,127 L 295,127 L 294,126 L 293,126 L 291,124 L 290,124 L 289,123 L 288,123 L 287,122 L 286,122 L 285,121 L 284,121 L 283,120 L 282,120 L 281,119 L 280,119 L 279,118 L 277,118 L 276,117 L 274,117 L 273,116 L 271,116 L 270,115 L 268,115 L 267,114 L 263,114 L 262,113 L 256,113 L 255,112 Z" fill="#f0d8d8" stroke="none" /><path d="M 0,0 L 0,499 L 499,499 L 499,0 Z" fill="#f0f0f0" stroke="none" /></svg>