<?xml version="1.0" encoding="utf-8" ?>
<svg baseProfile="full" height="500" version="1.1" viewBox="0 0 500 500" width="500" xmlns="http://www.w3.org/2000/svg" xmlns:ev="http://www.w3.org/2001/xml-events" xmlns:xlink="http://www.w3.org/1999/xlink"><defs /><path d="M 163,10 L 162,11 L 159,11 L 158,12 L 156,12 L 155,13 L 154,13 L 153,14 L 152,14 L 151,15 L 150,15 L 148,17 L 147,17 L 139,25 L 139,26 L 138,27 L 137,27 L 137,29 L 135,31 L 135,32 L 134,33 L 134,34 L 133,35 L 132,35 L 133,36 L 132,37 L 131,37 L 132,38 L 131,39 L 131,40 L 130,41 L 130,42 L 129,43 L 129,44 L 128,45 L 128,48 L 127,49 L 127,50 L 126,51 L 127,52 L 126,53 L 126,54 L 130,54 L 131,55 L 131,56 L 130,57 L 131,58 L 131,66 L 130,67 L 131,68 L 131,70 L 132,71 L 132,75 L 133,76 L 133,79 L 134,80 L 134,81 L 135,82 L 135,83 L 136,84 L 136,85 L 137,86 L 137,87 L 138,88 L 138,89 L 139,90 L 139,92 L 144,97 L 142,99 L 141,99 L 140,100 L 139,100 L 138,101 L 137,101 L 135,103 L 134,103 L 133,104 L 132,104 L 131,105 L 129,105 L 126,108 L 125,108 L 124,109 L 123,109 L 121,111 L 119,111 L 119,112 L 118,113 L 117,113 L 116,114 L 115,114 L 113,116 L 112,116 L 109,119 L 108,119 L 102,125 L 103,126 L 102,127 L 102,130 L 101,131 L 101,132 L 100,133 L 101,134 L 100,135 L 100,141 L 99,142 L 99,144 L 98,145 L 99,146 L 99,150 L 98,151 L 98,154 L 97,155 L 98,156 L 98,158 L 97,159 L 98,160 L 98,170 L 97,171 L 98,172 L 98,180 L 97,181 L 98,182 L 97,183 L 98,184 L 98,192 L 97,193 L 98,194 L 97,195 L 98,196 L 97,197 L 98,198 L 98,208 L 97,209 L 98,210 L 97,211 L 98,212 L 97,213 L 98,214 L 98,222 L 97,223 L 98,224 L 97,225 L 98,226 L 97,227 L 98,228 L 98,242 L 99,243 L 99,244 L 98,245 L 99,246 L 99,250 L 98,251 L 99,252 L 98,253 L 99,254 L 98,255 L 99,255 L 100,256 L 100,262 L 99,263 L 100,264 L 100,265 L 101,266 L 101,272 L 102,273 L 102,276 L 101,277 L 102,277 L 103,278 L 103,280 L 102,281 L 104,283 L 104,286 L 105,287 L 105,288 L 104,289 L 105,289 L 106,290 L 106,291 L 107,291 L 108,292 L 109,291 L 110,291 L 111,292 L 113,292 L 114,293 L 115,293 L 116,294 L 116,296 L 115,297 L 116,298 L 115,299 L 114,299 L 115,300 L 115,303 L 114,304 L 114,307 L 112,309 L 113,310 L 112,311 L 113,312 L 112,313 L 112,314 L 111,315 L 112,316 L 112,317 L 111,318 L 111,322 L 110,323 L 110,327 L 109,328 L 109,330 L 108,331 L 109,332 L 108,333 L 108,337 L 106,339 L 107,340 L 107,342 L 106,343 L 106,346 L 105,347 L 105,348 L 104,349 L 105,350 L 105,351 L 104,352 L 104,356 L 103,357 L 103,360 L 102,361 L 102,364 L 101,365 L 102,366 L 101,367 L 100,367 L 101,368 L 100,369 L 101,370 L 101,371 L 99,373 L 100,374 L 100,376 L 99,377 L 99,381 L 98,382 L 98,384 L 97,385 L 97,388 L 96,389 L 96,395 L 94,397 L 95,398 L 95,400 L 94,401 L 93,401 L 94,402 L 94,405 L 93,406 L 93,408 L 92,409 L 93,410 L 92,411 L 91,411 L 92,412 L 92,415 L 91,416 L 91,418 L 90,419 L 90,420 L 89,421 L 90,422 L 89,423 L 90,424 L 89,425 L 89,426 L 88,427 L 89,428 L 89,429 L 88,430 L 88,434 L 87,435 L 87,439 L 86,440 L 86,442 L 85,443 L 86,444 L 85,445 L 85,449 L 83,451 L 84,452 L 84,454 L 83,455 L 83,457 L 79,461 L 79,462 L 78,463 L 78,467 L 77,468 L 77,471 L 78,472 L 78,475 L 79,476 L 79,477 L 81,479 L 81,480 L 82,480 L 84,482 L 84,483 L 85,484 L 86,484 L 87,485 L 88,485 L 89,486 L 90,486 L 92,488 L 93,488 L 94,489 L 96,489 L 97,490 L 98,489 L 104,489 L 105,490 L 107,490 L 108,489 L 110,489 L 111,488 L 112,488 L 113,489 L 113,488 L 114,487 L 117,487 L 117,486 L 118,485 L 119,485 L 124,480 L 124,479 L 127,476 L 126,475 L 127,474 L 127,473 L 128,472 L 128,471 L 129,470 L 133,470 L 134,471 L 135,471 L 136,472 L 137,471 L 139,471 L 140,472 L 141,471 L 141,469 L 142,468 L 142,463 L 143,462 L 143,459 L 144,458 L 144,457 L 145,456 L 144,455 L 144,454 L 146,452 L 145,451 L 146,450 L 146,449 L 147,448 L 146,447 L 146,445 L 147,444 L 147,443 L 148,442 L 147,441 L 148,440 L 148,437 L 149,436 L 148,435 L 149,434 L 149,431 L 150,430 L 151,430 L 150,429 L 150,426 L 151,425 L 151,422 L 153,420 L 152,419 L 152,417 L 153,416 L 153,415 L 154,414 L 153,413 L 154,412 L 154,409 L 155,408 L 155,403 L 156,402 L 156,401 L 157,400 L 156,399 L 156,398 L 158,396 L 157,395 L 157,394 L 159,392 L 158,391 L 158,389 L 159,388 L 160,388 L 159,387 L 159,385 L 160,384 L 161,384 L 160,383 L 160,380 L 161,379 L 161,376 L 163,374 L 162,373 L 163,372 L 162,371 L 163,370 L 163,367 L 164,366 L 164,361 L 165,360 L 165,359 L 166,358 L 165,357 L 166,356 L 166,355 L 167,354 L 166,353 L 166,352 L 168,350 L 167,349 L 167,348 L 168,347 L 168,343 L 170,341 L 171,342 L 171,344 L 170,345 L 171,346 L 170,347 L 172,349 L 172,350 L 171,351 L 172,352 L 172,362 L 171,363 L 173,365 L 173,366 L 172,367 L 173,368 L 173,370 L 172,371 L 173,372 L 172,373 L 173,374 L 173,381 L 174,382 L 173,383 L 174,384 L 174,386 L 173,387 L 174,388 L 173,389 L 174,390 L 174,397 L 175,398 L 174,399 L 175,400 L 175,402 L 174,403 L 175,404 L 175,412 L 176,413 L 176,418 L 175,419 L 176,420 L 176,428 L 177,429 L 177,434 L 176,435 L 177,436 L 177,444 L 178,445 L 178,460 L 179,461 L 179,463 L 189,463 L 190,464 L 190,469 L 191,470 L 191,472 L 192,473 L 192,474 L 193,475 L 193,476 L 195,478 L 195,479 L 197,479 L 198,480 L 198,481 L 202,481 L 203,482 L 207,482 L 208,483 L 212,483 L 213,484 L 214,483 L 216,483 L 217,482 L 221,482 L 222,481 L 224,481 L 225,480 L 226,480 L 231,475 L 231,474 L 233,472 L 233,469 L 234,468 L 234,463 L 235,462 L 234,461 L 234,457 L 235,456 L 234,455 L 234,453 L 235,452 L 234,451 L 234,447 L 235,446 L 234,445 L 234,443 L 235,442 L 233,440 L 233,437 L 234,436 L 233,435 L 233,423 L 234,422 L 233,421 L 233,413 L 232,412 L 232,403 L 233,402 L 232,401 L 232,399 L 233,398 L 232,397 L 233,396 L 232,395 L 233,394 L 232,393 L 232,389 L 233,388 L 231,386 L 231,383 L 232,382 L 231,381 L 231,377 L 232,376 L 231,375 L 231,367 L 232,366 L 231,365 L 231,362 L 230,361 L 230,359 L 231,358 L 230,357 L 231,356 L 230,355 L 231,354 L 230,353 L 230,343 L 231,342 L 230,341 L 230,339 L 229,338 L 229,335 L 230,334 L 229,333 L 230,332 L 229,331 L 229,327 L 230,326 L 229,325 L 229,316 L 228,315 L 228,311 L 229,310 L 228,309 L 229,308 L 228,307 L 228,297 L 229,296 L 228,295 L 228,293 L 227,292 L 227,291 L 228,290 L 227,289 L 227,285 L 228,284 L 227,283 L 227,279 L 230,276 L 230,275 L 232,273 L 233,273 L 234,272 L 235,272 L 234,271 L 236,269 L 236,259 L 237,258 L 236,257 L 236,255 L 237,254 L 236,253 L 236,252 L 235,251 L 235,247 L 236,246 L 235,245 L 235,241 L 236,240 L 237,241 L 237,242 L 238,243 L 238,244 L 239,245 L 239,246 L 240,247 L 240,249 L 242,251 L 242,252 L 243,253 L 243,254 L 245,256 L 245,257 L 246,258 L 246,259 L 248,261 L 248,263 L 251,266 L 251,267 L 252,268 L 252,269 L 255,272 L 254,273 L 256,275 L 257,275 L 258,276 L 258,277 L 263,282 L 263,283 L 266,286 L 265,287 L 266,287 L 269,290 L 268,291 L 270,291 L 271,292 L 271,293 L 276,298 L 276,299 L 277,300 L 276,301 L 277,301 L 278,302 L 278,303 L 281,306 L 281,307 L 288,314 L 287,315 L 288,314 L 297,323 L 298,323 L 299,324 L 300,324 L 301,325 L 302,325 L 304,327 L 305,327 L 306,328 L 307,328 L 308,329 L 309,329 L 310,330 L 313,330 L 314,331 L 318,331 L 319,332 L 330,332 L 331,331 L 332,332 L 332,333 L 333,334 L 333,336 L 332,337 L 333,338 L 333,339 L 334,340 L 334,342 L 333,343 L 334,344 L 334,345 L 335,346 L 334,347 L 335,348 L 334,349 L 335,350 L 335,353 L 336,354 L 335,355 L 336,356 L 336,360 L 335,361 L 336,362 L 335,363 L 336,364 L 335,365 L 336,366 L 336,368 L 335,369 L 335,376 L 334,377 L 335,378 L 334,379 L 335,380 L 335,382 L 334,383 L 334,395 L 333,396 L 333,398 L 332,399 L 333,400 L 333,402 L 332,403 L 333,404 L 333,405 L 331,407 L 332,408 L 332,412 L 331,413 L 330,413 L 331,414 L 330,415 L 331,416 L 330,417 L 331,418 L 330,419 L 330,422 L 329,423 L 330,424 L 330,425 L 329,426 L 329,428 L 328,429 L 329,430 L 329,431 L 328,432 L 328,436 L 327,437 L 328,438 L 327,439 L 327,442 L 326,443 L 328,445 L 328,446 L 327,447 L 328,448 L 328,449 L 329,450 L 329,451 L 333,455 L 334,455 L 336,457 L 337,456 L 338,457 L 340,457 L 340,456 L 341,455 L 342,455 L 344,453 L 345,453 L 349,449 L 349,448 L 351,446 L 351,445 L 352,444 L 352,443 L 353,442 L 353,440 L 355,438 L 354,437 L 356,435 L 356,434 L 355,433 L 356,432 L 356,431 L 357,430 L 356,429 L 357,428 L 357,427 L 358,426 L 358,422 L 360,420 L 359,419 L 360,418 L 360,416 L 361,415 L 361,412 L 362,411 L 362,410 L 363,409 L 364,410 L 364,411 L 365,412 L 365,416 L 366,417 L 366,420 L 365,421 L 366,421 L 367,422 L 367,426 L 368,427 L 368,428 L 367,429 L 368,430 L 368,431 L 369,432 L 369,435 L 370,436 L 370,438 L 371,439 L 371,443 L 372,444 L 372,445 L 373,446 L 373,448 L 374,449 L 374,450 L 375,451 L 375,452 L 374,453 L 375,453 L 376,454 L 376,456 L 377,457 L 377,459 L 379,461 L 379,462 L 380,463 L 381,463 L 383,465 L 387,465 L 388,466 L 391,466 L 391,465 L 392,464 L 394,464 L 395,463 L 396,463 L 397,462 L 398,462 L 399,461 L 400,461 L 401,460 L 400,459 L 400,458 L 401,457 L 401,456 L 400,455 L 400,449 L 399,448 L 399,447 L 400,446 L 399,445 L 399,443 L 400,442 L 399,441 L 399,434 L 398,433 L 398,431 L 399,430 L 398,429 L 399,428 L 398,427 L 398,423 L 399,422 L 397,420 L 397,419 L 398,418 L 397,417 L 397,415 L 398,414 L 397,413 L 397,411 L 398,410 L 397,409 L 397,407 L 396,406 L 396,399 L 397,398 L 396,397 L 396,395 L 397,394 L 395,392 L 395,389 L 396,388 L 395,387 L 395,385 L 396,384 L 395,383 L 397,381 L 399,383 L 399,384 L 403,388 L 403,389 L 405,389 L 406,390 L 407,390 L 408,391 L 413,391 L 414,392 L 415,391 L 418,391 L 419,390 L 419,389 L 422,386 L 421,385 L 421,383 L 422,382 L 422,380 L 421,379 L 421,375 L 420,374 L 420,373 L 421,372 L 420,372 L 419,371 L 420,370 L 418,368 L 418,367 L 417,366 L 417,365 L 418,364 L 417,364 L 416,363 L 416,360 L 415,359 L 415,356 L 414,355 L 414,354 L 413,353 L 413,351 L 414,350 L 413,349 L 413,348 L 412,347 L 413,346 L 411,344 L 411,340 L 410,339 L 410,335 L 409,334 L 409,333 L 410,332 L 409,331 L 409,330 L 408,329 L 408,325 L 407,324 L 407,323 L 408,322 L 407,321 L 408,320 L 406,318 L 406,317 L 407,316 L 406,315 L 407,314 L 406,313 L 406,312 L 405,311 L 405,307 L 404,306 L 404,301 L 399,296 L 398,296 L 397,295 L 397,294 L 396,294 L 395,293 L 398,290 L 399,290 L 401,288 L 402,288 L 401,287 L 404,284 L 405,284 L 404,283 L 404,282 L 406,280 L 406,279 L 407,278 L 406,277 L 408,275 L 408,274 L 407,273 L 408,272 L 407,271 L 408,270 L 408,267 L 409,266 L 408,265 L 409,264 L 407,262 L 407,258 L 406,257 L 406,255 L 405,254 L 405,252 L 404,251 L 404,250 L 403,250 L 402,249 L 402,248 L 396,242 L 395,242 L 393,240 L 392,240 L 391,239 L 389,239 L 388,238 L 386,238 L 385,237 L 371,237 L 370,238 L 368,238 L 367,239 L 366,239 L 365,240 L 364,240 L 363,241 L 362,241 L 360,243 L 359,243 L 353,249 L 353,250 L 352,251 L 351,251 L 352,252 L 350,254 L 350,256 L 349,257 L 349,259 L 347,261 L 348,262 L 348,264 L 347,265 L 347,266 L 346,267 L 347,268 L 346,269 L 347,270 L 346,271 L 347,272 L 346,273 L 347,273 L 348,274 L 348,276 L 347,277 L 348,278 L 348,280 L 349,280 L 350,281 L 350,282 L 351,283 L 351,284 L 352,285 L 352,286 L 354,288 L 353,289 L 352,289 L 350,291 L 349,291 L 347,293 L 346,293 L 345,294 L 344,294 L 343,295 L 342,295 L 342,296 L 341,297 L 340,297 L 337,300 L 336,300 L 335,301 L 333,301 L 332,302 L 331,302 L 330,303 L 321,303 L 320,302 L 318,302 L 317,301 L 316,301 L 314,299 L 313,299 L 307,293 L 307,289 L 308,288 L 307,287 L 308,286 L 307,285 L 308,284 L 307,283 L 307,282 L 306,281 L 306,280 L 303,277 L 303,276 L 299,272 L 299,271 L 297,269 L 297,268 L 295,266 L 295,264 L 294,264 L 293,263 L 293,262 L 292,261 L 292,260 L 290,258 L 290,256 L 289,255 L 289,254 L 288,254 L 287,253 L 287,252 L 286,251 L 286,250 L 285,249 L 285,248 L 284,247 L 284,246 L 283,245 L 283,244 L 282,243 L 282,242 L 281,241 L 282,240 L 281,240 L 280,239 L 281,238 L 280,238 L 279,237 L 279,236 L 278,235 L 278,234 L 277,233 L 277,232 L 276,231 L 277,230 L 276,229 L 276,228 L 274,226 L 274,224 L 273,223 L 273,222 L 272,221 L 272,220 L 271,219 L 271,218 L 270,217 L 270,214 L 268,212 L 268,210 L 267,209 L 267,208 L 266,207 L 266,204 L 265,203 L 265,202 L 264,201 L 264,199 L 263,198 L 263,196 L 262,195 L 263,194 L 262,193 L 262,192 L 260,190 L 260,188 L 259,187 L 259,184 L 258,183 L 258,181 L 257,180 L 257,178 L 256,177 L 256,175 L 255,174 L 255,172 L 254,171 L 255,170 L 254,169 L 254,168 L 253,167 L 254,166 L 252,164 L 252,160 L 251,159 L 252,158 L 251,158 L 250,157 L 251,156 L 250,155 L 250,154 L 249,153 L 249,150 L 248,149 L 249,148 L 247,146 L 247,143 L 246,142 L 246,138 L 245,137 L 246,136 L 244,134 L 244,131 L 243,130 L 243,129 L 244,128 L 242,126 L 242,123 L 241,122 L 241,121 L 240,121 L 237,118 L 236,118 L 235,117 L 235,116 L 234,116 L 232,114 L 231,114 L 230,113 L 229,113 L 226,110 L 225,110 L 222,107 L 221,107 L 219,105 L 218,105 L 215,102 L 214,102 L 212,100 L 211,100 L 207,96 L 206,96 L 204,94 L 203,94 L 202,93 L 203,92 L 204,92 L 204,90 L 206,88 L 206,87 L 207,86 L 207,85 L 208,84 L 208,83 L 209,82 L 209,80 L 211,78 L 210,77 L 211,76 L 211,75 L 212,74 L 211,73 L 211,72 L 213,70 L 212,69 L 213,68 L 212,67 L 212,62 L 214,60 L 213,59 L 213,58 L 212,57 L 212,52 L 214,50 L 212,48 L 212,47 L 213,46 L 212,45 L 212,44 L 211,43 L 211,40 L 210,39 L 210,38 L 209,37 L 210,36 L 209,35 L 209,34 L 207,32 L 207,31 L 205,29 L 205,28 L 204,27 L 204,26 L 203,26 L 202,25 L 202,24 L 199,21 L 198,21 L 194,17 L 193,17 L 192,16 L 191,16 L 190,15 L 189,15 L 188,14 L 187,14 L 186,13 L 185,13 L 184,12 L 181,12 L 180,11 L 177,11 L 176,10 Z" fill="#000000" stroke="none" /><path d="M 213,282 L 212,283 L 202,283 L 201,284 L 200,283 L 192,283 L 191,284 L 127,284 L 127,286 L 128,287 L 128,289 L 129,290 L 128,291 L 128,293 L 127,294 L 125,294 L 125,295 L 124,296 L 124,299 L 125,300 L 124,301 L 123,301 L 123,304 L 124,305 L 123,306 L 122,306 L 122,307 L 123,308 L 122,309 L 122,310 L 121,311 L 121,315 L 120,316 L 120,319 L 119,320 L 119,324 L 118,325 L 118,329 L 117,330 L 117,334 L 116,335 L 116,336 L 117,337 L 116,338 L 116,339 L 115,340 L 115,344 L 114,345 L 114,347 L 115,348 L 113,350 L 113,354 L 112,355 L 112,358 L 111,359 L 111,363 L 110,364 L 110,369 L 109,370 L 109,373 L 108,374 L 108,377 L 109,378 L 108,379 L 107,379 L 107,383 L 106,384 L 106,385 L 107,386 L 106,387 L 106,388 L 105,389 L 105,393 L 104,394 L 104,397 L 103,398 L 103,402 L 102,403 L 102,407 L 101,408 L 101,411 L 102,412 L 101,413 L 100,413 L 100,416 L 101,417 L 100,418 L 99,418 L 99,421 L 100,422 L 99,423 L 98,423 L 98,427 L 97,428 L 97,431 L 96,432 L 96,436 L 95,437 L 95,441 L 94,442 L 94,446 L 93,447 L 93,449 L 94,450 L 92,452 L 92,456 L 91,457 L 91,460 L 89,462 L 89,463 L 87,465 L 87,466 L 86,467 L 86,472 L 87,473 L 87,474 L 89,476 L 90,476 L 92,478 L 93,478 L 95,480 L 98,480 L 99,481 L 100,481 L 101,480 L 102,481 L 106,481 L 107,480 L 110,480 L 111,479 L 113,479 L 116,476 L 116,475 L 117,474 L 118,474 L 118,473 L 119,472 L 119,470 L 120,469 L 120,463 L 121,462 L 121,461 L 122,460 L 123,461 L 129,461 L 130,462 L 134,462 L 134,461 L 135,460 L 135,458 L 134,457 L 136,455 L 136,452 L 137,451 L 137,447 L 138,446 L 138,442 L 139,441 L 139,438 L 140,437 L 140,433 L 141,432 L 141,428 L 142,427 L 142,424 L 143,423 L 143,419 L 144,418 L 144,415 L 145,414 L 145,410 L 146,409 L 146,405 L 147,404 L 147,401 L 148,400 L 148,398 L 147,397 L 149,395 L 149,394 L 148,393 L 150,391 L 150,388 L 149,387 L 150,386 L 151,386 L 151,384 L 150,383 L 152,381 L 152,378 L 153,377 L 153,373 L 154,372 L 153,371 L 154,370 L 154,368 L 155,367 L 155,364 L 156,363 L 156,359 L 157,358 L 157,355 L 158,354 L 158,350 L 159,349 L 159,345 L 160,344 L 160,341 L 161,340 L 161,336 L 162,335 L 162,334 L 161,333 L 163,331 L 163,327 L 164,326 L 164,324 L 163,323 L 165,321 L 165,318 L 166,317 L 166,314 L 165,313 L 166,312 L 167,312 L 167,308 L 168,307 L 168,306 L 170,304 L 171,305 L 175,305 L 176,304 L 177,305 L 177,312 L 178,313 L 178,328 L 179,329 L 179,344 L 180,345 L 180,360 L 181,361 L 181,363 L 182,364 L 181,365 L 181,376 L 183,378 L 182,379 L 182,392 L 183,393 L 183,408 L 185,410 L 184,411 L 184,424 L 185,425 L 185,440 L 186,441 L 186,455 L 188,455 L 189,454 L 190,455 L 195,455 L 196,454 L 199,457 L 198,458 L 198,461 L 199,462 L 198,463 L 198,467 L 199,468 L 199,470 L 202,473 L 204,473 L 205,474 L 212,474 L 213,475 L 215,473 L 216,474 L 219,474 L 220,473 L 221,473 L 224,470 L 223,469 L 224,468 L 225,468 L 225,465 L 226,464 L 226,449 L 225,448 L 225,433 L 224,432 L 225,431 L 225,419 L 224,418 L 224,414 L 223,413 L 224,412 L 223,411 L 224,410 L 224,402 L 223,401 L 224,400 L 224,393 L 222,391 L 223,390 L 223,385 L 222,384 L 223,383 L 223,368 L 222,367 L 222,360 L 221,359 L 222,358 L 222,344 L 221,343 L 221,333 L 220,332 L 221,331 L 221,321 L 220,320 L 220,298 L 219,297 L 219,294 L 218,293 L 219,292 L 219,282 Z" fill="#007878" stroke="none" /><path d="M 164,18 L 163,19 L 160,19 L 159,20 L 158,20 L 157,21 L 156,21 L 155,22 L 154,22 L 151,25 L 150,25 L 149,26 L 149,27 L 148,28 L 147,28 L 147,29 L 144,32 L 144,33 L 142,35 L 142,36 L 141,37 L 141,38 L 140,39 L 140,40 L 139,41 L 139,42 L 138,43 L 138,44 L 137,45 L 137,46 L 148,46 L 149,45 L 156,45 L 157,44 L 161,44 L 162,43 L 165,43 L 166,42 L 169,42 L 170,41 L 172,41 L 173,40 L 174,40 L 175,39 L 176,39 L 177,38 L 178,38 L 179,37 L 180,37 L 184,33 L 184,32 L 187,29 L 187,28 L 189,26 L 190,26 L 191,27 L 191,30 L 192,31 L 192,34 L 193,35 L 193,37 L 195,39 L 195,40 L 196,41 L 197,41 L 198,42 L 199,42 L 200,43 L 202,43 L 203,44 L 203,42 L 202,41 L 202,40 L 201,39 L 201,37 L 199,35 L 199,34 L 198,33 L 198,32 L 191,25 L 190,25 L 188,23 L 187,23 L 186,22 L 185,22 L 184,21 L 183,21 L 182,20 L 180,20 L 179,19 L 176,19 L 175,18 Z" fill="#904818" stroke="none" /><path d="M 361,295 L 360,296 L 358,296 L 357,297 L 356,297 L 355,298 L 354,298 L 353,299 L 352,299 L 351,300 L 350,300 L 348,302 L 347,302 L 344,305 L 343,305 L 341,307 L 340,307 L 338,309 L 336,309 L 335,310 L 333,310 L 332,311 L 320,311 L 319,310 L 316,310 L 315,309 L 314,309 L 313,308 L 312,308 L 311,307 L 310,307 L 308,305 L 307,305 L 304,302 L 303,302 L 302,303 L 301,303 L 299,305 L 298,305 L 297,306 L 294,306 L 293,307 L 302,316 L 303,316 L 305,318 L 306,318 L 307,319 L 308,319 L 309,320 L 310,320 L 311,321 L 312,321 L 313,322 L 315,322 L 316,323 L 320,323 L 321,324 L 328,324 L 329,323 L 333,323 L 334,322 L 336,322 L 337,321 L 338,321 L 339,322 L 339,324 L 340,325 L 340,330 L 341,331 L 341,337 L 342,338 L 342,344 L 343,345 L 343,351 L 344,352 L 344,371 L 343,372 L 343,385 L 342,386 L 342,398 L 341,399 L 341,407 L 340,408 L 340,414 L 339,415 L 339,420 L 338,421 L 338,427 L 337,428 L 337,433 L 336,434 L 336,446 L 337,447 L 337,448 L 338,448 L 343,443 L 343,442 L 344,441 L 344,440 L 345,439 L 345,438 L 346,437 L 346,434 L 347,433 L 347,431 L 348,430 L 348,427 L 349,426 L 349,424 L 350,423 L 350,421 L 351,420 L 351,417 L 352,416 L 352,414 L 353,413 L 353,410 L 354,409 L 354,407 L 355,406 L 355,403 L 356,402 L 356,399 L 357,398 L 357,395 L 358,394 L 358,391 L 359,390 L 359,386 L 360,385 L 360,382 L 361,381 L 368,381 L 369,382 L 369,385 L 370,386 L 370,394 L 371,395 L 371,402 L 372,403 L 372,408 L 373,409 L 373,414 L 374,415 L 374,420 L 375,421 L 375,424 L 376,425 L 376,429 L 377,430 L 377,433 L 378,434 L 378,436 L 379,437 L 379,440 L 380,441 L 380,443 L 381,444 L 381,446 L 382,447 L 382,448 L 383,449 L 383,451 L 384,452 L 384,454 L 385,455 L 385,456 L 386,457 L 389,457 L 390,456 L 392,456 L 392,451 L 391,450 L 391,438 L 390,437 L 390,424 L 389,423 L 389,410 L 388,409 L 388,396 L 387,395 L 387,382 L 386,381 L 386,373 L 387,372 L 387,364 L 388,363 L 388,354 L 389,353 L 389,344 L 391,342 L 398,342 L 399,343 L 399,354 L 400,355 L 400,361 L 401,362 L 401,366 L 402,367 L 402,370 L 403,371 L 403,373 L 404,374 L 404,376 L 405,377 L 405,378 L 409,382 L 410,382 L 411,383 L 413,383 L 413,377 L 412,376 L 412,374 L 411,373 L 411,372 L 410,371 L 410,369 L 409,368 L 409,366 L 408,365 L 408,363 L 407,362 L 407,359 L 406,358 L 406,355 L 405,354 L 405,351 L 404,350 L 404,347 L 403,346 L 403,342 L 402,341 L 402,337 L 401,336 L 401,332 L 400,331 L 400,327 L 399,326 L 399,321 L 398,320 L 398,315 L 397,314 L 397,308 L 396,307 L 396,305 L 393,302 L 392,302 L 389,299 L 388,299 L 387,298 L 386,298 L 385,299 L 382,299 L 381,300 L 373,300 L 372,299 L 369,299 L 368,298 L 366,298 L 365,297 L 364,297 L 363,296 L 362,296 Z" fill="#a8d8d8" stroke="none" /><path d="M 149,104 L 147,106 L 146,106 L 145,107 L 144,107 L 143,108 L 142,108 L 141,109 L 140,109 L 139,110 L 138,110 L 136,112 L 135,112 L 134,113 L 133,113 L 132,114 L 131,114 L 129,116 L 128,116 L 127,117 L 126,117 L 124,119 L 123,119 L 122,120 L 121,120 L 118,123 L 117,123 L 115,125 L 114,125 L 111,128 L 111,129 L 110,130 L 110,132 L 109,133 L 109,137 L 108,138 L 108,144 L 107,145 L 107,153 L 106,154 L 106,238 L 107,239 L 107,252 L 108,253 L 108,262 L 109,263 L 109,269 L 110,270 L 110,275 L 111,276 L 111,280 L 112,281 L 112,283 L 113,284 L 115,284 L 116,285 L 119,285 L 120,286 L 120,282 L 119,281 L 119,273 L 118,272 L 118,262 L 117,261 L 117,249 L 116,248 L 116,234 L 115,233 L 115,215 L 114,214 L 114,178 L 113,177 L 113,162 L 114,161 L 120,161 L 121,162 L 121,202 L 122,203 L 122,226 L 123,227 L 123,243 L 124,244 L 124,257 L 125,258 L 125,268 L 126,269 L 126,277 L 171,277 L 171,244 L 170,243 L 170,126 L 169,126 L 164,121 L 164,120 L 161,117 L 161,116 L 160,115 L 160,114 L 157,111 L 157,110 L 151,104 Z" fill="#d80030" stroke="none" /><path d="M 197,100 L 194,103 L 193,103 L 191,105 L 191,106 L 189,108 L 189,109 L 188,110 L 188,111 L 187,112 L 187,113 L 186,114 L 186,115 L 184,117 L 184,118 L 182,120 L 182,122 L 181,123 L 180,123 L 180,124 L 178,126 L 178,127 L 177,128 L 177,175 L 178,176 L 177,177 L 177,178 L 178,179 L 177,180 L 178,181 L 178,276 L 207,276 L 208,275 L 218,275 L 219,274 L 220,274 L 227,267 L 227,266 L 228,265 L 228,256 L 227,255 L 227,239 L 226,238 L 226,222 L 225,221 L 225,205 L 224,204 L 224,191 L 225,190 L 228,190 L 229,189 L 232,189 L 233,190 L 233,201 L 234,202 L 234,209 L 235,210 L 235,213 L 236,214 L 236,217 L 237,218 L 237,220 L 238,221 L 238,223 L 239,224 L 239,226 L 240,227 L 240,229 L 241,230 L 241,231 L 242,232 L 242,233 L 243,234 L 243,235 L 244,236 L 244,238 L 245,239 L 245,240 L 246,241 L 246,242 L 247,243 L 247,244 L 249,246 L 249,247 L 250,248 L 250,249 L 251,250 L 251,251 L 253,253 L 253,254 L 254,255 L 254,256 L 256,258 L 256,259 L 258,261 L 258,262 L 260,264 L 260,265 L 263,268 L 263,269 L 265,271 L 265,272 L 268,275 L 268,276 L 272,280 L 272,281 L 277,286 L 277,287 L 278,287 L 279,286 L 280,286 L 281,285 L 283,285 L 284,284 L 285,284 L 286,283 L 287,283 L 288,282 L 289,282 L 290,281 L 291,281 L 292,280 L 293,280 L 294,279 L 293,278 L 293,277 L 291,275 L 291,274 L 288,271 L 288,270 L 287,269 L 287,268 L 285,266 L 285,265 L 284,264 L 284,263 L 282,261 L 282,260 L 281,259 L 281,258 L 280,257 L 280,256 L 278,254 L 278,253 L 277,252 L 277,251 L 276,250 L 276,249 L 275,248 L 275,247 L 274,246 L 274,245 L 273,244 L 273,243 L 272,242 L 272,241 L 271,240 L 271,239 L 270,238 L 270,237 L 269,236 L 269,234 L 268,233 L 268,232 L 267,231 L 267,230 L 266,229 L 266,227 L 265,226 L 265,225 L 264,224 L 264,223 L 263,222 L 263,220 L 262,219 L 262,218 L 261,217 L 261,215 L 260,214 L 260,212 L 259,211 L 259,210 L 258,209 L 258,207 L 257,206 L 257,204 L 256,203 L 256,202 L 255,201 L 255,199 L 254,198 L 254,196 L 253,195 L 253,193 L 252,192 L 252,190 L 251,189 L 251,187 L 250,186 L 250,184 L 249,183 L 249,180 L 248,179 L 248,178 L 247,177 L 247,174 L 246,173 L 246,170 L 245,169 L 245,167 L 244,166 L 244,164 L 243,163 L 243,160 L 242,159 L 242,157 L 241,156 L 241,153 L 240,152 L 240,149 L 239,148 L 239,145 L 238,144 L 238,141 L 237,140 L 237,137 L 236,136 L 236,133 L 235,132 L 235,129 L 234,128 L 234,127 L 231,124 L 230,124 L 228,122 L 227,122 L 224,119 L 223,119 L 220,116 L 219,116 L 217,114 L 216,114 L 213,111 L 212,111 L 210,109 L 209,109 L 206,106 L 205,106 L 202,103 L 201,103 L 199,101 L 198,101 Z" fill="#d80030" stroke="none" /><path d="M 374,245 L 373,246 L 371,246 L 370,247 L 369,247 L 368,248 L 367,248 L 366,249 L 365,249 L 360,254 L 360,255 L 358,257 L 358,258 L 357,259 L 357,261 L 356,262 L 356,266 L 355,267 L 355,270 L 356,271 L 356,275 L 357,276 L 357,278 L 358,279 L 358,280 L 359,281 L 360,281 L 361,282 L 360,283 L 362,285 L 363,285 L 366,288 L 367,288 L 368,289 L 370,289 L 371,290 L 373,290 L 374,291 L 379,291 L 380,290 L 383,290 L 384,289 L 386,289 L 387,288 L 388,288 L 388,287 L 389,286 L 390,286 L 392,284 L 393,284 L 393,283 L 396,280 L 396,279 L 397,278 L 397,277 L 398,276 L 398,275 L 399,274 L 399,272 L 398,271 L 399,270 L 399,260 L 398,259 L 398,258 L 397,257 L 397,256 L 396,255 L 396,254 L 390,248 L 389,248 L 388,247 L 387,247 L 386,246 L 384,246 L 383,245 Z" fill="#f0d8d8" stroke="none" /><path d="M 166,110 L 168,112 L 168,113 L 172,117 L 172,118 L 173,119 L 174,119 L 175,118 L 175,117 L 176,116 L 176,115 L 177,114 L 177,113 L 179,111 L 179,110 Z" fill="#f0d8d8" stroke="none" /><path d="M 186,43 L 184,45 L 183,45 L 182,46 L 181,46 L 180,47 L 179,47 L 178,48 L 177,48 L 176,49 L 174,49 L 173,50 L 171,50 L 170,51 L 168,51 L 167,52 L 163,52 L 162,53 L 158,53 L 157,54 L 150,54 L 149,55 L 139,55 L 139,68 L 140,69 L 140,72 L 141,73 L 141,76 L 142,77 L 142,79 L 143,80 L 143,81 L 144,81 L 145,82 L 144,83 L 145,84 L 145,85 L 147,87 L 147,88 L 151,92 L 151,93 L 152,94 L 153,94 L 156,97 L 157,97 L 158,98 L 159,98 L 160,99 L 161,99 L 162,100 L 164,100 L 165,101 L 177,101 L 178,100 L 181,100 L 182,99 L 183,99 L 184,98 L 185,98 L 187,96 L 188,96 L 195,89 L 195,88 L 198,85 L 198,84 L 199,83 L 199,82 L 200,81 L 200,80 L 201,79 L 201,78 L 202,77 L 202,74 L 203,73 L 203,70 L 204,69 L 204,53 L 202,53 L 201,52 L 198,52 L 197,51 L 196,51 L 195,50 L 194,50 L 193,49 L 192,49 L 187,44 L 187,43 Z" fill="#f0d8d8" stroke="none" /><path d="M 299,287 L 298,288 L 297,288 L 296,289 L 295,289 L 294,290 L 292,290 L 291,291 L 290,291 L 289,292 L 288,292 L 287,293 L 286,293 L 285,294 L 288,297 L 294,297 L 295,296 L 296,296 L 298,294 L 298,293 L 299,292 Z" fill="#f0f0f0" stroke="none" /></svg>