<?xml version="1.0" encoding="utf-8" ?>
<svg baseProfile="full" height="500" version="1.1" viewBox="0 0 500 500" width="500" xmlns="http://www.w3.org/2000/svg" xmlns:ev="http://www.w3.org/2001/xml-events" xmlns:xlink="http://www.w3.org/1999/xlink"><defs /><path d="M 365,31 L 364,32 L 363,32 L 362,33 L 360,33 L 359,34 L 357,34 L 356,35 L 354,35 L 353,36 L 351,36 L 350,37 L 348,37 L 347,38 L 345,38 L 344,39 L 342,39 L 341,40 L 339,40 L 338,41 L 336,41 L 335,42 L 334,42 L 333,43 L 331,43 L 330,44 L 328,44 L 327,45 L 325,45 L 324,46 L 322,46 L 321,47 L 319,47 L 318,48 L 316,48 L 315,49 L 313,49 L 312,50 L 310,50 L 309,51 L 307,51 L 306,52 L 304,52 L 303,53 L 302,53 L 301,54 L 299,54 L 298,55 L 296,55 L 295,56 L 293,56 L 292,57 L 290,57 L 289,58 L 287,58 L 286,59 L 284,59 L 283,60 L 281,60 L 280,61 L 278,61 L 277,60 L 277,58 L 276,57 L 276,55 L 275,54 L 275,52 L 274,51 L 274,50 L 273,49 L 273,47 L 272,46 L 272,44 L 271,43 L 272,42 L 270,40 L 270,38 L 269,37 L 269,35 L 268,34 L 265,37 L 265,38 L 262,41 L 262,42 L 261,43 L 260,43 L 260,44 L 259,45 L 259,46 L 258,47 L 257,47 L 257,48 L 256,49 L 256,50 L 255,51 L 254,51 L 254,52 L 253,53 L 253,54 L 250,57 L 250,58 L 247,61 L 247,62 L 244,65 L 244,66 L 241,69 L 241,70 L 238,73 L 238,74 L 235,77 L 235,78 L 232,81 L 232,82 L 228,86 L 228,87 L 231,87 L 233,89 L 235,89 L 236,90 L 237,89 L 238,89 L 239,90 L 242,90 L 243,91 L 245,91 L 246,92 L 249,92 L 250,93 L 253,93 L 255,95 L 257,95 L 258,96 L 259,95 L 260,95 L 261,96 L 263,96 L 264,97 L 267,97 L 268,98 L 271,98 L 272,99 L 275,99 L 276,100 L 278,100 L 279,101 L 282,101 L 283,102 L 286,102 L 287,103 L 289,103 L 290,104 L 292,104 L 292,102 L 291,101 L 291,99 L 290,98 L 290,96 L 289,95 L 289,93 L 288,92 L 288,90 L 287,89 L 287,87 L 286,86 L 286,85 L 285,84 L 285,82 L 284,81 L 284,79 L 283,78 L 283,77 L 285,75 L 286,76 L 287,75 L 288,75 L 289,74 L 290,74 L 291,73 L 293,73 L 294,72 L 296,72 L 297,71 L 299,71 L 300,70 L 302,70 L 303,69 L 304,70 L 306,68 L 307,69 L 309,67 L 310,67 L 311,66 L 314,66 L 315,65 L 318,65 L 320,63 L 322,63 L 323,62 L 326,62 L 327,61 L 328,61 L 329,60 L 331,60 L 332,59 L 334,59 L 335,58 L 337,58 L 338,57 L 340,57 L 341,56 L 343,56 L 344,55 L 345,55 L 346,54 L 348,54 L 349,53 L 350,54 L 352,52 L 354,52 L 355,51 L 357,51 L 358,50 L 360,50 L 361,49 L 363,49 L 364,48 L 366,48 L 367,47 L 368,48 L 370,46 L 371,46 L 372,45 L 372,43 L 371,42 L 371,40 L 370,39 L 370,37 L 369,36 L 369,34 L 368,33 L 368,31 Z" fill="#000000" stroke="none" /><path d="M 51,20 L 51,24 L 52,25 L 52,28 L 53,29 L 53,30 L 52,31 L 53,32 L 53,33 L 54,34 L 54,37 L 55,38 L 55,41 L 56,42 L 56,45 L 144,45 L 145,46 L 147,46 L 148,47 L 149,46 L 150,46 L 151,47 L 153,47 L 155,49 L 156,48 L 158,50 L 159,50 L 160,51 L 161,51 L 162,52 L 163,52 L 170,59 L 170,60 L 171,61 L 171,62 L 172,63 L 172,64 L 173,65 L 173,67 L 174,68 L 174,69 L 175,70 L 175,72 L 176,73 L 176,75 L 177,76 L 177,79 L 179,81 L 179,82 L 178,83 L 179,83 L 180,84 L 179,85 L 180,86 L 180,87 L 182,89 L 182,91 L 183,92 L 183,94 L 184,95 L 184,97 L 185,98 L 185,100 L 186,101 L 186,102 L 187,103 L 187,104 L 186,105 L 187,105 L 188,106 L 188,108 L 189,109 L 189,111 L 190,112 L 190,113 L 191,114 L 191,116 L 192,117 L 192,119 L 193,120 L 193,122 L 194,123 L 194,124 L 195,125 L 195,127 L 196,128 L 195,129 L 197,131 L 197,133 L 198,134 L 198,136 L 199,137 L 199,138 L 200,139 L 200,141 L 201,142 L 201,144 L 202,145 L 202,147 L 203,148 L 203,150 L 204,151 L 204,152 L 205,153 L 205,155 L 206,156 L 206,158 L 207,159 L 207,161 L 208,162 L 208,165 L 209,166 L 209,167 L 210,168 L 210,169 L 211,170 L 211,172 L 212,173 L 212,174 L 211,175 L 212,175 L 213,176 L 213,178 L 214,179 L 214,181 L 215,182 L 215,183 L 216,184 L 216,186 L 217,187 L 217,189 L 218,190 L 218,192 L 219,193 L 219,195 L 220,196 L 220,198 L 221,199 L 221,200 L 222,201 L 222,203 L 223,204 L 223,206 L 224,207 L 224,208 L 223,209 L 224,209 L 225,210 L 225,211 L 226,212 L 225,213 L 226,214 L 223,217 L 223,218 L 222,219 L 222,221 L 223,222 L 223,224 L 222,225 L 223,226 L 223,230 L 224,231 L 224,239 L 225,240 L 225,248 L 226,249 L 226,250 L 225,251 L 226,252 L 225,253 L 226,254 L 226,257 L 227,258 L 227,265 L 228,266 L 228,274 L 229,275 L 229,280 L 228,281 L 229,282 L 229,283 L 230,284 L 230,286 L 229,287 L 230,288 L 229,289 L 230,290 L 230,291 L 231,292 L 231,300 L 232,301 L 232,309 L 233,310 L 233,312 L 232,313 L 233,314 L 233,316 L 232,317 L 234,319 L 234,322 L 233,323 L 234,324 L 234,326 L 235,327 L 235,335 L 236,336 L 236,344 L 237,345 L 237,348 L 236,349 L 237,350 L 237,353 L 238,354 L 238,361 L 239,362 L 239,370 L 240,371 L 240,376 L 239,377 L 240,378 L 240,379 L 241,380 L 241,384 L 240,385 L 241,386 L 241,388 L 242,389 L 242,396 L 243,397 L 243,405 L 244,406 L 244,414 L 245,415 L 245,418 L 244,419 L 245,420 L 245,423 L 246,424 L 246,431 L 247,432 L 247,440 L 248,441 L 248,448 L 249,449 L 249,451 L 251,453 L 251,454 L 255,458 L 255,459 L 256,459 L 257,460 L 258,460 L 261,463 L 263,463 L 264,464 L 265,464 L 266,465 L 267,465 L 268,466 L 269,466 L 270,467 L 271,467 L 272,468 L 273,468 L 274,469 L 276,469 L 277,470 L 279,470 L 281,472 L 282,471 L 283,471 L 284,472 L 285,472 L 286,473 L 287,472 L 288,473 L 290,473 L 291,474 L 295,474 L 296,475 L 301,475 L 302,476 L 308,476 L 309,477 L 311,477 L 312,478 L 313,477 L 314,478 L 315,477 L 320,477 L 322,479 L 323,478 L 327,478 L 328,479 L 329,478 L 347,478 L 348,477 L 351,477 L 352,478 L 353,477 L 354,478 L 355,477 L 359,477 L 360,476 L 366,476 L 367,475 L 372,475 L 373,474 L 377,474 L 378,473 L 381,473 L 382,472 L 385,472 L 386,471 L 388,471 L 389,470 L 391,470 L 392,469 L 394,469 L 395,468 L 396,468 L 397,467 L 398,467 L 399,466 L 400,467 L 402,465 L 403,465 L 405,463 L 406,463 L 407,462 L 408,462 L 410,460 L 411,460 L 417,454 L 417,453 L 419,451 L 419,449 L 420,448 L 420,447 L 421,446 L 420,445 L 420,440 L 421,439 L 421,432 L 422,431 L 422,424 L 423,423 L 423,416 L 424,415 L 424,407 L 425,406 L 425,405 L 426,404 L 425,403 L 425,399 L 426,398 L 426,395 L 427,394 L 426,393 L 426,391 L 427,390 L 427,383 L 428,382 L 428,381 L 429,380 L 428,379 L 428,374 L 429,373 L 429,366 L 430,365 L 430,361 L 431,360 L 430,359 L 430,358 L 431,357 L 431,350 L 433,348 L 432,347 L 432,341 L 433,340 L 433,339 L 434,338 L 433,337 L 434,336 L 433,335 L 433,333 L 434,332 L 434,329 L 435,328 L 434,327 L 434,325 L 435,324 L 435,317 L 436,316 L 436,308 L 437,307 L 437,305 L 438,304 L 437,303 L 437,300 L 438,299 L 438,292 L 439,291 L 439,284 L 440,283 L 440,275 L 441,274 L 441,273 L 442,272 L 441,271 L 442,270 L 441,269 L 441,267 L 442,266 L 442,263 L 443,262 L 442,261 L 442,259 L 443,258 L 443,251 L 444,250 L 444,247 L 445,246 L 444,245 L 444,242 L 446,240 L 445,239 L 446,238 L 445,237 L 445,234 L 446,233 L 446,226 L 447,225 L 447,221 L 446,221 L 445,220 L 445,217 L 443,215 L 442,215 L 441,214 L 440,214 L 439,213 L 437,213 L 436,212 L 434,212 L 433,211 L 430,211 L 429,210 L 426,210 L 425,209 L 420,209 L 419,208 L 413,208 L 412,207 L 404,207 L 403,206 L 394,206 L 393,205 L 380,205 L 379,204 L 353,204 L 352,203 L 315,203 L 314,204 L 290,204 L 289,205 L 276,205 L 275,206 L 265,206 L 264,207 L 256,207 L 255,208 L 250,208 L 249,207 L 250,206 L 249,206 L 248,205 L 248,203 L 247,202 L 247,200 L 246,199 L 247,198 L 245,196 L 245,195 L 244,194 L 244,192 L 243,191 L 243,189 L 242,188 L 242,186 L 241,185 L 241,184 L 240,183 L 240,181 L 239,180 L 239,178 L 238,177 L 238,175 L 237,174 L 237,172 L 236,171 L 236,170 L 235,169 L 235,167 L 234,166 L 234,164 L 233,163 L 233,162 L 232,161 L 232,159 L 231,158 L 231,156 L 230,155 L 230,153 L 229,152 L 229,151 L 228,150 L 228,148 L 227,147 L 227,145 L 226,144 L 226,142 L 225,141 L 225,140 L 224,139 L 224,137 L 223,136 L 223,134 L 222,133 L 222,131 L 221,130 L 221,129 L 220,128 L 220,126 L 219,125 L 219,123 L 218,122 L 218,121 L 217,120 L 217,118 L 216,117 L 216,115 L 215,114 L 215,112 L 214,111 L 214,108 L 212,106 L 212,104 L 211,103 L 211,101 L 210,100 L 210,98 L 209,97 L 209,96 L 208,95 L 209,94 L 207,92 L 207,90 L 206,89 L 207,88 L 206,88 L 205,87 L 205,85 L 204,84 L 204,82 L 203,81 L 204,80 L 202,78 L 202,77 L 201,76 L 201,74 L 200,73 L 200,71 L 199,70 L 199,68 L 198,67 L 198,66 L 197,65 L 197,63 L 196,62 L 196,60 L 195,59 L 195,57 L 194,56 L 194,55 L 193,54 L 193,53 L 192,52 L 192,50 L 190,48 L 190,46 L 187,43 L 187,42 L 182,37 L 182,36 L 181,35 L 180,35 L 175,30 L 174,30 L 172,28 L 171,28 L 170,27 L 169,27 L 168,26 L 167,26 L 166,25 L 165,25 L 164,24 L 162,24 L 161,23 L 159,23 L 158,22 L 155,22 L 154,21 L 147,21 L 146,20 Z" fill="#000000" stroke="none" /><path d="M 311,302 L 310,303 L 285,303 L 286,304 L 286,306 L 287,307 L 287,309 L 288,310 L 288,312 L 289,313 L 289,314 L 290,315 L 290,317 L 291,318 L 291,320 L 292,321 L 292,323 L 293,324 L 293,325 L 294,326 L 294,328 L 295,329 L 295,331 L 296,332 L 296,333 L 297,334 L 297,336 L 298,337 L 298,339 L 299,340 L 299,342 L 300,343 L 300,345 L 301,346 L 301,347 L 302,348 L 302,350 L 303,351 L 303,353 L 304,354 L 304,356 L 305,357 L 305,358 L 306,359 L 306,361 L 307,362 L 307,364 L 308,365 L 308,366 L 309,367 L 309,369 L 310,370 L 310,372 L 311,373 L 311,375 L 312,376 L 312,377 L 313,378 L 313,380 L 315,382 L 314,383 L 315,384 L 315,386 L 316,387 L 316,388 L 317,389 L 317,391 L 318,392 L 318,394 L 319,395 L 319,397 L 320,398 L 320,399 L 321,400 L 321,402 L 322,403 L 322,405 L 323,406 L 323,408 L 324,409 L 324,410 L 325,411 L 325,413 L 326,413 L 327,414 L 326,415 L 326,416 L 327,417 L 327,419 L 328,420 L 328,421 L 329,422 L 329,424 L 330,425 L 330,427 L 331,428 L 331,429 L 332,430 L 332,432 L 333,433 L 333,435 L 334,436 L 334,438 L 335,439 L 335,441 L 336,442 L 336,443 L 337,444 L 337,446 L 338,447 L 338,450 L 339,451 L 339,454 L 338,455 L 338,457 L 335,460 L 334,460 L 333,461 L 332,461 L 331,462 L 325,462 L 324,461 L 321,461 L 320,460 L 319,460 L 318,459 L 317,459 L 316,458 L 315,458 L 313,456 L 312,456 L 310,454 L 310,453 L 309,452 L 309,451 L 308,450 L 308,447 L 307,446 L 307,444 L 306,443 L 306,441 L 305,440 L 305,439 L 304,438 L 304,436 L 303,435 L 303,433 L 302,432 L 302,430 L 301,429 L 301,427 L 300,426 L 300,424 L 299,423 L 299,422 L 298,421 L 298,419 L 297,418 L 297,416 L 296,415 L 296,413 L 295,412 L 295,410 L 294,409 L 294,407 L 293,406 L 293,404 L 292,403 L 292,402 L 291,401 L 291,399 L 290,398 L 290,396 L 289,395 L 289,393 L 288,392 L 288,390 L 287,389 L 287,387 L 286,386 L 286,385 L 285,384 L 285,382 L 284,381 L 284,379 L 283,378 L 283,376 L 282,375 L 282,374 L 281,373 L 281,371 L 280,370 L 280,368 L 279,367 L 279,365 L 278,364 L 278,362 L 277,361 L 277,359 L 276,358 L 276,356 L 275,355 L 275,354 L 274,353 L 274,351 L 273,350 L 273,348 L 272,347 L 272,345 L 271,344 L 271,343 L 270,342 L 270,340 L 269,339 L 269,337 L 268,336 L 268,334 L 267,334 L 266,333 L 267,332 L 267,331 L 266,330 L 266,328 L 265,327 L 265,326 L 264,325 L 264,323 L 263,322 L 263,320 L 262,319 L 262,317 L 261,316 L 261,314 L 260,313 L 260,311 L 259,310 L 259,308 L 258,307 L 258,305 L 250,305 L 249,306 L 241,306 L 240,307 L 238,307 L 238,313 L 239,314 L 239,321 L 240,322 L 240,330 L 241,331 L 241,339 L 242,340 L 242,348 L 243,349 L 243,356 L 244,357 L 244,365 L 245,366 L 245,374 L 246,375 L 246,382 L 247,383 L 247,391 L 248,392 L 248,400 L 249,401 L 249,409 L 250,410 L 250,417 L 251,418 L 251,426 L 252,427 L 252,435 L 253,436 L 253,443 L 254,444 L 254,448 L 255,449 L 255,450 L 261,456 L 262,456 L 264,458 L 265,458 L 266,459 L 267,459 L 268,460 L 269,460 L 270,461 L 271,461 L 272,462 L 274,462 L 275,463 L 276,463 L 277,464 L 279,464 L 280,465 L 282,465 L 283,466 L 285,466 L 286,467 L 289,467 L 290,468 L 294,468 L 295,469 L 299,469 L 300,470 L 305,470 L 306,471 L 313,471 L 314,472 L 353,472 L 354,471 L 362,471 L 363,470 L 368,470 L 369,469 L 373,469 L 374,468 L 378,468 L 379,467 L 382,467 L 383,466 L 385,466 L 386,465 L 388,465 L 389,464 L 391,464 L 392,463 L 394,463 L 395,462 L 396,462 L 397,461 L 398,461 L 399,460 L 400,460 L 401,459 L 402,459 L 404,457 L 405,457 L 406,456 L 407,456 L 413,450 L 413,449 L 414,448 L 414,444 L 415,443 L 415,436 L 416,435 L 416,427 L 417,426 L 417,419 L 418,418 L 418,411 L 419,410 L 419,403 L 420,402 L 420,394 L 421,393 L 421,386 L 422,385 L 422,378 L 423,377 L 423,370 L 424,369 L 424,362 L 425,361 L 425,353 L 426,352 L 426,345 L 427,344 L 427,337 L 428,336 L 428,328 L 429,327 L 429,320 L 430,319 L 430,312 L 431,311 L 431,307 L 422,307 L 421,306 L 407,306 L 406,305 L 390,305 L 389,304 L 369,304 L 368,303 L 332,303 L 331,302 L 330,303 L 329,302 L 328,302 L 327,303 L 326,302 L 325,302 L 324,303 L 323,302 L 322,303 L 321,302 L 320,303 L 319,302 L 318,303 L 317,302 L 316,302 L 315,303 L 314,302 L 313,303 L 312,302 Z" fill="#a8d8d8" stroke="none" /><path d="M 269,303 L 268,304 L 265,304 L 265,305 L 266,306 L 266,308 L 267,309 L 267,310 L 268,311 L 268,313 L 269,314 L 269,316 L 271,318 L 270,319 L 271,319 L 272,320 L 271,321 L 271,322 L 272,323 L 272,325 L 273,326 L 273,328 L 274,329 L 274,330 L 275,331 L 275,333 L 276,334 L 276,336 L 277,337 L 277,339 L 278,340 L 278,342 L 279,343 L 279,344 L 280,345 L 280,347 L 281,348 L 281,350 L 282,351 L 282,352 L 283,353 L 283,356 L 284,357 L 284,358 L 285,359 L 285,362 L 286,363 L 286,364 L 287,365 L 287,367 L 288,368 L 288,370 L 289,371 L 289,373 L 290,374 L 290,376 L 291,377 L 291,378 L 292,379 L 292,381 L 293,382 L 293,384 L 294,385 L 294,387 L 295,388 L 295,390 L 296,391 L 296,392 L 297,393 L 297,395 L 298,396 L 298,398 L 299,399 L 299,401 L 300,401 L 301,402 L 300,403 L 300,404 L 301,405 L 301,407 L 302,408 L 302,410 L 303,411 L 303,412 L 305,414 L 304,415 L 305,416 L 305,418 L 306,419 L 306,421 L 307,422 L 307,424 L 308,425 L 308,427 L 309,428 L 309,429 L 310,430 L 310,432 L 311,433 L 311,435 L 312,435 L 313,436 L 312,437 L 312,438 L 313,439 L 313,441 L 314,442 L 314,443 L 315,444 L 315,446 L 317,448 L 316,449 L 318,451 L 319,451 L 320,452 L 321,452 L 322,453 L 323,453 L 324,454 L 326,454 L 327,453 L 328,454 L 331,454 L 330,453 L 331,452 L 330,451 L 331,450 L 330,449 L 330,447 L 329,446 L 329,444 L 328,443 L 328,441 L 327,440 L 327,438 L 326,437 L 326,436 L 325,436 L 324,435 L 325,434 L 325,433 L 324,432 L 324,430 L 323,429 L 323,427 L 322,426 L 322,425 L 321,424 L 321,422 L 320,421 L 320,419 L 319,418 L 319,417 L 318,416 L 318,414 L 317,414 L 316,413 L 317,412 L 317,411 L 316,410 L 316,408 L 315,407 L 315,406 L 314,405 L 314,404 L 313,403 L 313,400 L 312,399 L 312,397 L 311,396 L 311,395 L 310,394 L 310,392 L 309,391 L 309,389 L 308,388 L 308,387 L 307,386 L 307,384 L 305,382 L 306,381 L 305,380 L 305,378 L 304,377 L 304,376 L 303,375 L 303,373 L 302,372 L 302,371 L 301,370 L 301,367 L 300,366 L 300,365 L 298,363 L 299,362 L 298,361 L 298,359 L 297,358 L 297,356 L 296,355 L 296,354 L 295,353 L 295,351 L 294,350 L 294,349 L 292,347 L 293,346 L 293,345 L 292,344 L 292,343 L 290,341 L 291,340 L 290,339 L 290,337 L 289,336 L 289,334 L 288,333 L 288,331 L 287,330 L 287,329 L 286,328 L 286,326 L 285,325 L 285,323 L 284,322 L 284,320 L 283,319 L 283,318 L 282,317 L 282,315 L 281,314 L 281,312 L 280,311 L 280,309 L 279,308 L 279,307 L 278,306 L 278,304 L 277,303 L 273,303 L 272,304 L 271,303 L 270,304 Z" fill="#d8a848" stroke="none" /><path d="M 229,227 L 229,231 L 230,232 L 229,233 L 229,234 L 231,236 L 230,237 L 230,242 L 231,243 L 231,244 L 232,245 L 231,246 L 231,251 L 232,252 L 232,253 L 233,254 L 232,255 L 232,260 L 234,262 L 233,263 L 233,269 L 234,270 L 234,278 L 235,278 L 236,279 L 235,280 L 235,286 L 236,287 L 236,295 L 237,296 L 237,304 L 238,305 L 241,305 L 242,304 L 243,305 L 244,304 L 252,304 L 253,303 L 257,303 L 256,302 L 256,300 L 255,300 L 254,299 L 255,298 L 255,297 L 254,296 L 254,294 L 253,293 L 253,291 L 252,291 L 251,290 L 252,289 L 251,288 L 251,286 L 250,285 L 250,284 L 249,283 L 249,280 L 248,279 L 248,277 L 247,276 L 247,274 L 246,273 L 246,272 L 245,272 L 244,271 L 245,270 L 245,269 L 244,268 L 244,266 L 243,265 L 243,263 L 242,262 L 242,260 L 240,258 L 241,257 L 240,256 L 240,255 L 239,254 L 239,252 L 238,251 L 238,249 L 237,248 L 237,246 L 236,245 L 236,243 L 235,243 L 234,242 L 235,241 L 234,240 L 234,238 L 233,237 L 233,235 L 232,234 L 232,232 L 231,231 L 231,230 L 230,229 L 230,228 Z" fill="#d8f0f0" stroke="none" /><path d="M 441,226 L 440,227 L 439,227 L 438,228 L 436,228 L 435,229 L 432,229 L 431,230 L 427,230 L 425,232 L 424,231 L 422,231 L 421,232 L 416,232 L 415,233 L 408,233 L 407,234 L 403,234 L 402,235 L 401,234 L 398,234 L 397,235 L 396,235 L 395,236 L 394,235 L 385,235 L 384,236 L 365,236 L 363,238 L 362,237 L 361,238 L 360,237 L 349,237 L 348,238 L 347,237 L 342,237 L 341,238 L 340,237 L 329,237 L 328,238 L 327,237 L 325,237 L 324,238 L 323,237 L 322,238 L 321,237 L 311,237 L 310,238 L 309,237 L 303,237 L 302,236 L 292,236 L 291,237 L 290,236 L 284,236 L 283,235 L 275,235 L 274,236 L 273,235 L 270,235 L 269,234 L 261,234 L 260,233 L 260,235 L 261,236 L 261,237 L 262,238 L 262,239 L 263,240 L 263,243 L 264,244 L 264,246 L 265,247 L 265,248 L 266,248 L 267,249 L 266,250 L 267,251 L 267,254 L 268,255 L 268,256 L 269,257 L 269,258 L 270,259 L 270,262 L 271,263 L 271,265 L 272,265 L 273,266 L 272,267 L 272,268 L 273,269 L 273,270 L 274,271 L 274,273 L 275,273 L 276,274 L 275,275 L 275,276 L 277,278 L 276,279 L 277,280 L 277,281 L 278,282 L 278,284 L 279,285 L 279,287 L 280,288 L 280,290 L 281,290 L 282,291 L 281,292 L 282,293 L 282,295 L 283,296 L 283,298 L 284,299 L 284,300 L 285,301 L 285,302 L 285,301 L 286,300 L 287,301 L 290,301 L 291,300 L 292,301 L 318,301 L 319,300 L 320,301 L 322,301 L 323,300 L 324,301 L 334,301 L 335,300 L 336,301 L 358,301 L 359,302 L 360,301 L 361,302 L 369,302 L 370,301 L 371,302 L 373,302 L 374,301 L 375,302 L 377,302 L 378,301 L 379,302 L 380,302 L 381,301 L 382,302 L 384,302 L 385,303 L 387,303 L 388,302 L 389,303 L 390,303 L 391,302 L 392,303 L 393,303 L 394,302 L 395,303 L 401,303 L 402,304 L 403,304 L 404,303 L 405,304 L 408,304 L 409,303 L 410,304 L 414,304 L 415,303 L 416,304 L 417,304 L 418,305 L 424,305 L 425,304 L 426,305 L 430,305 L 431,306 L 431,305 L 430,304 L 431,303 L 432,303 L 432,295 L 433,294 L 432,293 L 433,292 L 432,291 L 433,290 L 433,287 L 434,286 L 434,282 L 433,281 L 434,280 L 433,279 L 434,278 L 435,278 L 435,277 L 434,276 L 435,275 L 435,270 L 436,269 L 436,265 L 435,264 L 436,263 L 436,262 L 437,261 L 437,256 L 436,255 L 438,253 L 438,248 L 437,247 L 439,245 L 439,240 L 438,239 L 439,238 L 439,237 L 440,236 L 440,231 L 439,230 L 441,228 Z" fill="#d8f0f0" stroke="none" /><path d="M 300,209 L 299,210 L 294,210 L 293,211 L 292,210 L 283,210 L 282,211 L 271,211 L 270,212 L 261,212 L 261,213 L 260,214 L 259,213 L 256,213 L 255,214 L 254,213 L 253,214 L 253,215 L 254,216 L 254,218 L 255,219 L 255,221 L 256,222 L 256,224 L 257,225 L 257,226 L 258,227 L 263,227 L 264,226 L 266,228 L 267,228 L 268,227 L 269,228 L 277,228 L 278,229 L 283,229 L 284,228 L 285,229 L 286,229 L 287,228 L 288,229 L 290,229 L 291,228 L 292,229 L 292,230 L 294,230 L 295,229 L 296,230 L 299,230 L 300,229 L 301,230 L 314,230 L 315,229 L 316,230 L 318,230 L 319,229 L 320,230 L 321,230 L 322,231 L 324,231 L 325,230 L 326,231 L 336,231 L 337,230 L 338,231 L 349,231 L 350,230 L 376,230 L 377,229 L 380,229 L 381,228 L 382,229 L 390,229 L 391,228 L 398,228 L 399,227 L 400,228 L 401,228 L 402,227 L 406,227 L 407,226 L 408,227 L 410,227 L 412,225 L 413,226 L 417,226 L 417,225 L 418,224 L 419,225 L 423,225 L 424,224 L 427,224 L 427,223 L 428,222 L 429,223 L 431,223 L 432,222 L 434,222 L 435,221 L 437,221 L 437,220 L 438,219 L 439,220 L 438,219 L 437,219 L 436,218 L 435,218 L 434,217 L 431,217 L 430,216 L 428,216 L 427,217 L 426,216 L 426,215 L 422,215 L 421,214 L 416,214 L 415,213 L 408,213 L 407,212 L 400,212 L 399,213 L 398,212 L 398,211 L 387,211 L 386,210 L 385,210 L 384,211 L 383,210 L 382,210 L 381,211 L 380,210 L 379,211 L 378,210 L 374,210 L 373,211 L 372,210 L 371,211 L 370,210 L 368,210 L 367,209 L 357,209 L 356,210 L 355,209 L 354,210 L 353,209 L 314,209 L 313,210 L 312,209 L 311,209 L 310,210 L 309,209 Z" fill="#d8f0f0" stroke="none" /><path d="M 154,28 L 155,28 L 156,29 L 156,30 L 155,31 L 155,33 L 154,34 L 154,37 L 153,38 L 153,41 L 155,41 L 156,42 L 157,42 L 158,41 L 158,40 L 159,39 L 159,38 L 160,37 L 160,36 L 162,34 L 164,34 L 165,35 L 165,37 L 164,38 L 164,39 L 163,40 L 163,41 L 162,42 L 162,43 L 161,44 L 162,44 L 163,45 L 164,45 L 165,46 L 166,46 L 170,50 L 171,50 L 171,49 L 177,43 L 178,43 L 180,45 L 180,46 L 176,50 L 176,51 L 174,53 L 174,54 L 176,56 L 176,57 L 177,58 L 177,59 L 178,60 L 178,62 L 179,63 L 179,64 L 180,65 L 180,67 L 181,68 L 181,70 L 182,71 L 182,73 L 183,74 L 183,75 L 184,76 L 184,78 L 185,79 L 185,81 L 186,82 L 186,83 L 187,84 L 187,86 L 188,87 L 188,89 L 189,90 L 189,92 L 190,93 L 190,94 L 191,95 L 191,97 L 192,98 L 192,100 L 193,101 L 193,103 L 194,104 L 194,106 L 195,107 L 195,108 L 196,109 L 196,111 L 197,112 L 197,114 L 198,115 L 198,117 L 199,118 L 199,119 L 200,120 L 200,122 L 201,123 L 201,125 L 202,126 L 202,128 L 203,129 L 203,130 L 204,131 L 204,133 L 205,134 L 205,136 L 206,137 L 206,139 L 207,140 L 207,142 L 208,143 L 208,145 L 209,146 L 209,147 L 210,148 L 210,150 L 211,151 L 211,153 L 212,154 L 212,156 L 213,157 L 213,159 L 214,160 L 214,161 L 215,162 L 215,164 L 216,165 L 216,167 L 217,168 L 217,170 L 218,171 L 218,173 L 219,174 L 219,175 L 220,176 L 220,178 L 221,179 L 221,181 L 222,182 L 222,184 L 223,185 L 223,187 L 224,188 L 224,190 L 225,191 L 225,192 L 226,193 L 226,195 L 227,196 L 227,198 L 228,199 L 228,201 L 229,202 L 229,204 L 230,205 L 230,206 L 231,207 L 231,209 L 232,210 L 232,212 L 233,213 L 233,215 L 234,215 L 235,214 L 236,214 L 237,213 L 240,213 L 241,212 L 244,212 L 244,211 L 243,210 L 243,208 L 242,207 L 242,205 L 241,204 L 241,202 L 240,201 L 240,200 L 239,199 L 239,197 L 238,196 L 238,194 L 237,193 L 237,191 L 236,190 L 236,189 L 235,188 L 235,186 L 234,185 L 234,183 L 233,182 L 233,180 L 232,179 L 232,178 L 231,177 L 231,175 L 230,174 L 230,172 L 229,171 L 229,169 L 228,168 L 228,167 L 227,166 L 227,164 L 226,163 L 226,161 L 225,160 L 225,159 L 224,158 L 224,156 L 223,155 L 223,153 L 222,152 L 222,150 L 221,149 L 221,147 L 220,146 L 220,145 L 219,144 L 219,142 L 218,141 L 218,139 L 217,138 L 217,137 L 216,136 L 216,134 L 215,133 L 215,131 L 214,130 L 214,128 L 213,127 L 213,126 L 212,125 L 212,123 L 211,122 L 211,120 L 210,119 L 210,117 L 209,116 L 209,115 L 208,114 L 208,112 L 207,111 L 207,109 L 206,108 L 206,106 L 205,105 L 205,104 L 204,103 L 204,101 L 203,100 L 203,98 L 202,97 L 202,95 L 201,94 L 201,93 L 200,92 L 200,90 L 199,89 L 199,87 L 198,86 L 198,84 L 197,83 L 197,82 L 196,81 L 196,79 L 195,78 L 195,76 L 194,75 L 194,73 L 193,72 L 193,71 L 192,70 L 192,68 L 191,67 L 191,65 L 190,64 L 190,63 L 189,62 L 189,60 L 188,59 L 188,57 L 187,56 L 187,55 L 186,54 L 186,53 L 185,52 L 185,51 L 183,49 L 183,48 L 181,46 L 181,45 L 172,36 L 171,36 L 169,34 L 168,34 L 166,32 L 165,32 L 164,31 L 163,31 L 162,30 L 160,30 L 159,29 L 157,29 L 156,28 Z" fill="#f09018" stroke="none" /><path d="M 67,26 L 66,27 L 59,27 L 59,30 L 60,31 L 60,34 L 61,35 L 61,39 L 148,39 L 148,38 L 149,37 L 149,35 L 150,34 L 150,32 L 151,31 L 151,29 L 152,28 L 151,27 L 137,27 L 136,26 L 69,26 L 68,27 Z" fill="#f09018" stroke="none" /><path d="M 239,230 L 239,231 L 240,232 L 240,234 L 241,235 L 241,237 L 242,238 L 242,240 L 243,241 L 243,243 L 244,244 L 244,245 L 245,246 L 245,248 L 246,249 L 246,251 L 247,252 L 247,254 L 248,255 L 248,257 L 249,258 L 249,259 L 250,260 L 250,262 L 252,264 L 251,265 L 252,266 L 252,268 L 253,269 L 253,271 L 254,272 L 254,274 L 255,275 L 255,276 L 256,277 L 256,279 L 257,280 L 257,282 L 258,283 L 258,285 L 259,286 L 259,288 L 260,289 L 260,291 L 261,292 L 261,293 L 262,294 L 262,296 L 264,298 L 263,299 L 264,300 L 264,302 L 265,303 L 268,303 L 269,302 L 270,303 L 271,302 L 272,303 L 273,302 L 277,302 L 277,301 L 276,300 L 276,299 L 274,297 L 275,296 L 274,295 L 274,293 L 273,292 L 273,290 L 272,289 L 272,287 L 271,286 L 271,285 L 270,284 L 270,282 L 269,281 L 269,279 L 268,278 L 268,277 L 267,276 L 267,274 L 266,273 L 266,271 L 265,270 L 265,268 L 264,267 L 264,266 L 263,265 L 263,263 L 262,262 L 262,260 L 261,259 L 261,257 L 260,256 L 260,255 L 259,254 L 259,252 L 258,251 L 258,249 L 257,248 L 257,247 L 256,246 L 256,244 L 255,243 L 255,241 L 254,240 L 254,238 L 253,237 L 253,236 L 252,235 L 252,233 L 251,232 L 247,232 L 246,231 L 241,231 L 240,230 Z" fill="#f0a848" stroke="none" /><path d="M 243,213 L 242,214 L 239,214 L 238,215 L 236,215 L 235,216 L 234,216 L 234,217 L 235,218 L 235,220 L 236,221 L 236,223 L 239,223 L 240,224 L 244,224 L 245,225 L 249,225 L 247,223 L 248,222 L 247,221 L 247,219 L 246,218 L 246,216 L 245,215 L 245,214 L 244,213 Z" fill="#f0a848" stroke="none" /></svg>