<?xml version="1.0" encoding="utf-8" ?>
<svg baseProfile="full" height="500" version="1.1" viewBox="0 0 500 500" width="500" xmlns="http://www.w3.org/2000/svg" xmlns:ev="http://www.w3.org/2001/xml-events" xmlns:xlink="http://www.w3.org/1999/xlink"><defs /><path d="M 352,200 L 351,201 L 346,201 L 345,202 L 342,202 L 341,203 L 338,203 L 337,204 L 335,204 L 334,205 L 332,205 L 331,206 L 329,206 L 328,207 L 325,207 L 324,208 L 322,208 L 321,209 L 319,209 L 318,210 L 316,210 L 315,211 L 313,211 L 312,212 L 311,212 L 310,213 L 308,213 L 307,214 L 306,214 L 305,215 L 303,215 L 302,216 L 301,216 L 300,217 L 299,217 L 298,218 L 297,218 L 296,219 L 294,219 L 293,220 L 292,220 L 291,221 L 290,221 L 289,222 L 288,222 L 287,223 L 285,223 L 284,224 L 283,224 L 282,225 L 281,225 L 280,226 L 279,226 L 278,227 L 277,227 L 276,228 L 274,228 L 273,229 L 272,229 L 271,230 L 269,230 L 268,231 L 266,231 L 265,232 L 262,232 L 261,233 L 258,233 L 257,234 L 255,234 L 254,235 L 252,235 L 251,236 L 250,236 L 249,237 L 247,237 L 246,238 L 245,238 L 244,239 L 243,239 L 242,240 L 240,240 L 239,241 L 238,241 L 237,242 L 236,242 L 235,243 L 234,243 L 233,244 L 232,244 L 231,243 L 231,241 L 232,240 L 232,234 L 231,233 L 231,230 L 230,229 L 230,227 L 229,226 L 229,225 L 228,224 L 228,223 L 224,219 L 223,219 L 222,218 L 221,218 L 220,217 L 213,217 L 212,218 L 211,218 L 209,220 L 209,222 L 208,223 L 208,233 L 206,235 L 206,236 L 203,239 L 203,240 L 199,244 L 199,245 L 193,251 L 193,252 L 187,258 L 187,259 L 179,267 L 179,268 L 171,276 L 171,277 L 164,284 L 164,285 L 159,290 L 159,291 L 154,296 L 154,297 L 150,301 L 150,302 L 147,305 L 147,306 L 135,318 L 134,318 L 129,323 L 128,323 L 124,327 L 123,327 L 118,332 L 117,332 L 113,336 L 112,336 L 108,340 L 107,340 L 104,343 L 103,343 L 99,347 L 98,347 L 94,351 L 93,351 L 90,354 L 89,354 L 85,358 L 84,358 L 81,361 L 80,361 L 76,365 L 75,365 L 72,368 L 71,368 L 68,371 L 67,371 L 63,375 L 62,375 L 59,378 L 58,378 L 54,382 L 53,382 L 50,385 L 49,385 L 46,388 L 45,388 L 42,391 L 41,391 L 37,395 L 36,395 L 33,398 L 32,398 L 29,401 L 28,401 L 25,404 L 24,404 L 20,408 L 19,408 L 22,411 L 23,411 L 26,408 L 27,408 L 30,405 L 31,405 L 34,402 L 35,402 L 38,399 L 39,399 L 43,395 L 44,395 L 47,392 L 48,392 L 51,389 L 52,389 L 56,385 L 57,385 L 60,382 L 61,382 L 64,379 L 65,379 L 69,375 L 70,375 L 73,372 L 74,372 L 77,369 L 78,369 L 82,365 L 83,365 L 86,362 L 87,362 L 91,358 L 92,358 L 95,355 L 96,355 L 100,351 L 101,351 L 105,347 L 106,347 L 109,344 L 110,344 L 114,340 L 115,340 L 119,336 L 120,336 L 124,332 L 125,332 L 130,327 L 131,327 L 136,322 L 137,322 L 143,316 L 144,316 L 148,312 L 148,311 L 151,308 L 151,307 L 154,304 L 154,303 L 159,298 L 159,297 L 164,292 L 164,291 L 169,286 L 169,285 L 176,278 L 176,277 L 184,269 L 184,268 L 192,260 L 192,259 L 198,253 L 198,252 L 203,247 L 203,246 L 207,242 L 207,241 L 210,238 L 210,237 L 211,236 L 211,235 L 212,234 L 212,232 L 213,231 L 213,230 L 215,228 L 215,227 L 216,226 L 216,222 L 217,221 L 218,221 L 219,222 L 220,222 L 221,223 L 222,223 L 224,225 L 224,226 L 225,227 L 225,228 L 226,229 L 226,230 L 227,231 L 227,235 L 228,236 L 228,239 L 227,240 L 227,244 L 226,245 L 226,246 L 225,247 L 225,248 L 223,250 L 222,250 L 221,251 L 220,251 L 218,253 L 217,253 L 216,254 L 215,254 L 214,255 L 213,255 L 212,256 L 211,256 L 210,257 L 209,257 L 208,258 L 207,258 L 206,259 L 204,259 L 203,260 L 202,260 L 201,261 L 200,261 L 201,262 L 201,263 L 202,264 L 203,264 L 204,263 L 205,263 L 206,262 L 207,262 L 208,261 L 209,261 L 210,260 L 211,260 L 212,259 L 213,259 L 214,258 L 215,258 L 216,257 L 217,257 L 218,256 L 219,256 L 220,255 L 221,255 L 222,254 L 223,254 L 224,253 L 225,253 L 226,252 L 227,252 L 229,250 L 230,250 L 231,249 L 232,249 L 233,248 L 234,248 L 235,247 L 236,247 L 237,246 L 239,246 L 240,245 L 241,245 L 242,244 L 243,244 L 244,243 L 245,243 L 246,242 L 248,242 L 249,241 L 250,241 L 251,240 L 253,240 L 254,239 L 256,239 L 257,238 L 259,238 L 260,237 L 262,237 L 263,236 L 266,236 L 267,235 L 269,235 L 270,234 L 272,234 L 273,233 L 274,233 L 275,232 L 277,232 L 278,231 L 279,231 L 280,230 L 282,230 L 283,229 L 284,229 L 285,228 L 286,228 L 287,227 L 288,227 L 289,226 L 290,226 L 291,225 L 293,225 L 294,224 L 295,224 L 296,223 L 297,223 L 298,222 L 299,222 L 300,221 L 301,221 L 302,220 L 304,220 L 305,219 L 306,219 L 307,218 L 309,218 L 310,217 L 311,217 L 312,216 L 314,216 L 315,215 L 317,215 L 318,214 L 319,214 L 320,213 L 322,213 L 323,212 L 326,212 L 327,211 L 329,211 L 330,210 L 333,210 L 334,209 L 335,209 L 336,208 L 339,208 L 340,207 L 342,207 L 343,206 L 346,206 L 347,205 L 354,205 L 355,206 L 352,209 L 352,216 L 353,217 L 353,218 L 354,218 L 356,220 L 356,221 L 355,222 L 353,222 L 352,223 L 351,223 L 350,224 L 349,224 L 348,225 L 347,225 L 346,226 L 344,226 L 343,227 L 342,227 L 341,228 L 340,228 L 339,229 L 338,229 L 337,230 L 336,230 L 335,231 L 333,231 L 331,233 L 330,233 L 328,235 L 327,235 L 324,238 L 323,238 L 320,241 L 319,241 L 317,243 L 316,243 L 314,245 L 313,245 L 312,246 L 310,246 L 309,247 L 307,247 L 306,248 L 305,248 L 304,249 L 302,249 L 301,250 L 300,250 L 299,251 L 297,251 L 296,252 L 295,252 L 294,253 L 293,253 L 292,254 L 290,254 L 289,255 L 288,255 L 286,257 L 285,257 L 284,258 L 283,258 L 280,261 L 282,263 L 283,263 L 284,264 L 291,264 L 292,263 L 295,263 L 296,262 L 299,262 L 300,261 L 301,261 L 302,260 L 304,260 L 305,259 L 306,259 L 307,258 L 309,258 L 310,257 L 311,257 L 312,256 L 314,256 L 315,255 L 317,255 L 318,254 L 319,254 L 320,253 L 322,253 L 323,252 L 325,252 L 326,251 L 327,251 L 328,250 L 329,250 L 330,249 L 332,249 L 333,248 L 334,248 L 335,247 L 336,247 L 337,246 L 338,246 L 339,245 L 340,245 L 341,244 L 342,244 L 343,243 L 344,243 L 345,242 L 346,242 L 348,240 L 349,240 L 351,238 L 352,238 L 354,236 L 355,236 L 356,235 L 358,235 L 359,234 L 361,234 L 362,233 L 365,233 L 366,234 L 365,235 L 365,237 L 366,238 L 366,241 L 367,242 L 367,246 L 368,247 L 368,249 L 364,253 L 363,253 L 359,257 L 358,257 L 356,259 L 355,259 L 352,262 L 351,262 L 347,266 L 346,266 L 343,269 L 342,269 L 340,271 L 339,271 L 337,273 L 336,273 L 335,274 L 334,274 L 333,275 L 332,275 L 331,276 L 330,276 L 329,277 L 328,277 L 327,278 L 325,278 L 324,279 L 323,279 L 322,280 L 320,280 L 319,281 L 317,281 L 316,282 L 314,282 L 313,283 L 310,283 L 309,284 L 308,284 L 307,285 L 305,285 L 304,286 L 303,286 L 302,287 L 300,287 L 299,288 L 298,288 L 297,289 L 296,289 L 295,290 L 294,290 L 293,291 L 292,291 L 292,293 L 293,294 L 293,295 L 294,294 L 295,294 L 296,293 L 297,293 L 298,292 L 299,292 L 300,291 L 301,291 L 302,290 L 303,290 L 304,289 L 306,289 L 307,288 L 308,288 L 309,287 L 311,287 L 312,286 L 314,286 L 315,285 L 318,285 L 319,284 L 321,284 L 322,283 L 323,283 L 324,282 L 326,282 L 327,281 L 328,281 L 329,280 L 330,280 L 331,279 L 332,279 L 333,278 L 335,278 L 337,276 L 338,276 L 339,275 L 340,275 L 342,273 L 343,273 L 345,271 L 346,271 L 347,270 L 348,270 L 349,271 L 349,272 L 351,274 L 352,274 L 353,275 L 353,276 L 350,279 L 350,280 L 337,293 L 336,293 L 333,296 L 332,296 L 330,298 L 329,298 L 327,300 L 326,300 L 325,301 L 324,301 L 323,302 L 321,302 L 320,303 L 319,303 L 318,304 L 316,304 L 315,305 L 313,305 L 312,306 L 310,306 L 309,307 L 308,307 L 307,308 L 305,308 L 304,309 L 303,309 L 302,310 L 300,310 L 299,311 L 297,311 L 296,312 L 295,312 L 294,313 L 293,313 L 292,314 L 291,314 L 290,315 L 289,315 L 288,316 L 287,316 L 280,323 L 280,324 L 279,325 L 280,326 L 281,326 L 282,327 L 283,326 L 283,325 L 289,319 L 290,319 L 291,318 L 292,319 L 300,319 L 301,318 L 303,318 L 304,317 L 306,317 L 307,316 L 309,316 L 310,315 L 312,315 L 314,313 L 315,313 L 316,312 L 317,312 L 318,311 L 322,311 L 323,312 L 324,312 L 325,313 L 322,316 L 322,320 L 320,322 L 319,322 L 314,327 L 313,327 L 308,332 L 307,332 L 305,334 L 304,334 L 303,335 L 302,335 L 301,336 L 300,336 L 299,337 L 296,337 L 295,338 L 292,338 L 291,339 L 286,339 L 285,340 L 280,340 L 279,341 L 276,341 L 275,342 L 272,342 L 271,343 L 269,343 L 268,344 L 267,344 L 266,345 L 265,345 L 264,346 L 263,346 L 262,347 L 260,347 L 259,348 L 257,348 L 256,349 L 255,349 L 254,350 L 253,350 L 252,351 L 251,351 L 250,352 L 249,352 L 248,353 L 247,353 L 246,354 L 245,354 L 243,356 L 242,356 L 241,357 L 240,357 L 238,359 L 237,359 L 236,360 L 235,360 L 234,361 L 233,361 L 231,363 L 230,363 L 229,364 L 228,364 L 227,365 L 226,365 L 225,366 L 224,366 L 223,367 L 222,367 L 221,368 L 220,368 L 219,369 L 218,369 L 217,370 L 216,370 L 215,371 L 214,371 L 213,372 L 211,372 L 210,373 L 209,373 L 208,374 L 207,374 L 206,375 L 204,375 L 203,376 L 202,376 L 201,377 L 200,377 L 199,378 L 198,378 L 197,379 L 196,379 L 195,380 L 194,380 L 193,381 L 192,381 L 191,382 L 190,382 L 188,384 L 187,384 L 174,397 L 173,397 L 170,400 L 169,400 L 160,409 L 159,409 L 137,431 L 137,432 L 116,453 L 116,454 L 98,472 L 98,473 L 90,481 L 90,482 L 91,483 L 91,484 L 92,485 L 106,471 L 106,470 L 124,452 L 124,451 L 171,404 L 172,404 L 175,401 L 176,401 L 180,397 L 181,397 L 181,396 L 182,395 L 183,395 L 183,394 L 190,387 L 191,387 L 192,386 L 193,386 L 194,385 L 195,385 L 196,384 L 197,384 L 198,383 L 199,383 L 200,382 L 201,382 L 202,381 L 203,381 L 204,380 L 205,380 L 206,379 L 207,379 L 208,378 L 209,378 L 210,377 L 212,377 L 213,376 L 215,376 L 216,375 L 217,375 L 218,374 L 219,374 L 220,373 L 221,373 L 222,372 L 223,372 L 224,371 L 225,371 L 226,370 L 227,370 L 228,369 L 229,369 L 231,367 L 232,367 L 233,366 L 234,366 L 235,365 L 236,365 L 237,364 L 238,364 L 240,362 L 241,362 L 242,361 L 243,361 L 245,359 L 246,359 L 247,358 L 248,358 L 250,356 L 251,356 L 252,355 L 253,355 L 254,354 L 256,354 L 257,353 L 258,353 L 259,352 L 261,352 L 262,351 L 263,351 L 264,350 L 265,350 L 266,349 L 267,349 L 268,348 L 269,348 L 270,347 L 272,347 L 273,346 L 276,346 L 277,345 L 281,345 L 282,344 L 286,344 L 287,343 L 292,343 L 293,342 L 297,342 L 298,341 L 300,341 L 301,340 L 303,340 L 304,339 L 305,339 L 306,338 L 307,338 L 309,336 L 310,336 L 315,331 L 316,331 L 321,326 L 322,326 L 323,325 L 324,325 L 325,324 L 326,324 L 330,320 L 330,319 L 331,318 L 331,316 L 330,315 L 330,313 L 329,312 L 329,311 L 326,308 L 325,308 L 324,307 L 324,306 L 325,305 L 326,305 L 327,304 L 328,304 L 329,303 L 330,303 L 331,302 L 332,302 L 334,300 L 335,300 L 338,297 L 339,297 L 354,282 L 354,281 L 358,277 L 358,276 L 359,275 L 359,273 L 360,272 L 360,268 L 359,267 L 359,266 L 358,265 L 358,263 L 360,261 L 361,261 L 365,257 L 366,257 L 370,253 L 371,253 L 373,251 L 373,250 L 375,248 L 375,247 L 376,246 L 376,243 L 377,242 L 377,241 L 376,240 L 376,237 L 375,236 L 375,235 L 371,231 L 370,231 L 369,230 L 368,230 L 367,229 L 361,229 L 360,230 L 357,230 L 356,231 L 355,231 L 354,232 L 353,232 L 352,233 L 351,233 L 350,234 L 349,234 L 347,236 L 346,236 L 344,238 L 343,238 L 342,239 L 341,239 L 340,240 L 339,240 L 338,241 L 337,241 L 336,242 L 335,242 L 334,243 L 333,243 L 332,244 L 331,244 L 330,245 L 329,245 L 328,246 L 327,246 L 326,247 L 324,247 L 323,248 L 322,248 L 321,249 L 319,249 L 318,250 L 316,250 L 315,249 L 316,248 L 317,248 L 318,247 L 319,247 L 322,244 L 323,244 L 325,242 L 326,242 L 329,239 L 330,239 L 333,236 L 334,236 L 335,235 L 336,235 L 337,234 L 338,234 L 339,233 L 340,233 L 341,232 L 343,232 L 344,231 L 345,231 L 346,230 L 347,230 L 348,229 L 349,229 L 350,228 L 352,228 L 353,227 L 354,227 L 355,226 L 356,226 L 357,225 L 358,225 L 359,224 L 361,224 L 363,222 L 364,222 L 365,221 L 365,220 L 367,218 L 367,216 L 368,215 L 368,209 L 367,208 L 367,207 L 365,205 L 365,204 L 364,204 L 362,202 L 361,202 L 360,201 L 356,201 L 355,200 Z" fill="#000000" stroke="none" /><path d="M 379,34 L 378,35 L 374,35 L 373,36 L 371,36 L 370,37 L 368,37 L 367,38 L 365,38 L 364,39 L 363,39 L 362,40 L 360,40 L 359,41 L 358,41 L 357,42 L 356,42 L 354,44 L 353,44 L 351,46 L 350,46 L 348,48 L 347,48 L 335,60 L 335,61 L 333,63 L 333,64 L 331,66 L 331,67 L 329,69 L 329,70 L 328,71 L 328,72 L 327,73 L 327,75 L 326,76 L 326,77 L 325,78 L 325,80 L 324,81 L 324,83 L 323,84 L 323,87 L 322,88 L 322,92 L 321,93 L 321,113 L 322,114 L 322,118 L 323,119 L 323,122 L 324,123 L 324,125 L 325,126 L 325,128 L 326,129 L 326,130 L 327,131 L 327,133 L 328,134 L 328,135 L 330,137 L 330,138 L 331,139 L 331,140 L 333,142 L 333,143 L 336,146 L 336,147 L 346,157 L 347,157 L 350,160 L 351,160 L 353,162 L 354,162 L 356,164 L 357,164 L 358,165 L 359,165 L 360,166 L 362,166 L 363,167 L 364,167 L 365,168 L 367,168 L 368,169 L 370,169 L 371,170 L 373,170 L 374,171 L 379,171 L 380,172 L 401,172 L 402,171 L 406,171 L 407,170 L 409,170 L 410,169 L 413,169 L 414,168 L 415,168 L 416,167 L 418,167 L 419,166 L 420,166 L 421,165 L 422,165 L 423,164 L 424,164 L 426,162 L 427,162 L 428,161 L 429,161 L 432,158 L 433,158 L 445,146 L 445,145 L 448,142 L 448,141 L 450,139 L 450,138 L 451,137 L 451,136 L 452,135 L 452,134 L 453,133 L 453,132 L 454,131 L 454,129 L 455,128 L 455,127 L 456,126 L 456,124 L 457,123 L 457,120 L 458,119 L 458,115 L 459,114 L 459,92 L 458,91 L 458,87 L 457,86 L 457,83 L 456,82 L 456,80 L 455,79 L 455,78 L 454,77 L 454,75 L 453,74 L 453,73 L 452,72 L 452,71 L 451,70 L 451,69 L 450,68 L 450,67 L 448,65 L 448,64 L 445,61 L 445,60 L 433,48 L 432,48 L 429,45 L 428,45 L 427,44 L 426,44 L 424,42 L 423,42 L 422,41 L 421,41 L 420,40 L 419,40 L 418,39 L 416,39 L 415,38 L 414,38 L 413,37 L 411,37 L 410,36 L 407,36 L 406,35 L 402,35 L 401,34 Z" fill="#000000" stroke="none" /><path d="M 380,40 L 379,41 L 375,41 L 374,42 L 371,42 L 370,43 L 369,43 L 368,44 L 366,44 L 365,45 L 364,45 L 363,46 L 362,46 L 361,47 L 360,47 L 359,48 L 358,48 L 357,49 L 356,49 L 354,51 L 353,51 L 349,55 L 348,55 L 342,61 L 342,62 L 339,65 L 339,66 L 337,68 L 337,69 L 335,71 L 335,72 L 334,73 L 334,74 L 333,75 L 333,76 L 332,77 L 332,78 L 331,79 L 331,81 L 330,82 L 330,84 L 329,85 L 329,87 L 328,88 L 328,92 L 327,93 L 327,113 L 328,114 L 328,118 L 329,119 L 329,121 L 330,122 L 330,124 L 331,125 L 331,127 L 332,128 L 332,129 L 333,130 L 333,131 L 334,132 L 334,133 L 335,134 L 335,135 L 337,137 L 337,138 L 339,140 L 339,141 L 342,144 L 342,145 L 348,151 L 349,151 L 352,154 L 353,154 L 356,157 L 357,157 L 358,158 L 359,158 L 360,159 L 361,159 L 362,160 L 363,160 L 364,161 L 365,161 L 366,162 L 368,162 L 369,163 L 371,163 L 372,164 L 374,164 L 375,165 L 379,165 L 380,166 L 400,166 L 401,165 L 405,165 L 406,164 L 409,164 L 410,163 L 412,163 L 413,162 L 414,162 L 415,161 L 416,161 L 417,160 L 418,160 L 419,159 L 420,159 L 421,158 L 422,158 L 423,157 L 424,157 L 426,155 L 427,155 L 430,152 L 431,152 L 439,144 L 439,143 L 442,140 L 442,139 L 444,137 L 444,136 L 445,135 L 445,134 L 447,132 L 447,130 L 448,129 L 448,128 L 449,127 L 449,126 L 450,125 L 450,123 L 451,122 L 451,119 L 452,118 L 452,115 L 453,114 L 453,92 L 452,91 L 452,88 L 451,87 L 451,84 L 450,83 L 450,81 L 449,80 L 449,79 L 448,78 L 448,77 L 447,76 L 447,75 L 446,74 L 446,73 L 445,72 L 445,71 L 444,70 L 444,69 L 442,67 L 442,66 L 439,63 L 439,62 L 431,54 L 430,54 L 427,51 L 426,51 L 424,49 L 423,49 L 422,48 L 421,48 L 419,46 L 417,46 L 416,45 L 415,45 L 414,44 L 413,44 L 412,43 L 410,43 L 409,42 L 406,42 L 405,41 L 401,41 L 400,40 Z" fill="#d81818" stroke="none" /><path d="M 347,207 L 346,208 L 343,208 L 342,209 L 340,209 L 339,210 L 337,210 L 336,211 L 334,211 L 333,212 L 330,212 L 329,213 L 326,213 L 325,214 L 323,214 L 322,215 L 320,215 L 319,216 L 317,216 L 316,217 L 315,217 L 314,218 L 312,218 L 311,219 L 310,219 L 309,220 L 307,220 L 306,221 L 305,221 L 304,222 L 303,222 L 302,223 L 301,223 L 300,224 L 298,224 L 297,225 L 296,225 L 295,226 L 294,226 L 293,227 L 292,227 L 291,228 L 289,228 L 288,229 L 287,229 L 286,230 L 285,230 L 284,231 L 283,231 L 282,232 L 280,232 L 279,233 L 278,233 L 277,234 L 275,234 L 274,235 L 273,235 L 272,236 L 271,236 L 270,237 L 267,237 L 266,238 L 263,238 L 262,239 L 260,239 L 259,240 L 257,240 L 256,241 L 254,241 L 253,242 L 251,242 L 250,243 L 249,243 L 248,244 L 246,244 L 245,245 L 244,245 L 243,246 L 242,246 L 241,247 L 240,247 L 239,248 L 237,248 L 236,249 L 235,249 L 233,251 L 232,251 L 231,252 L 230,252 L 229,253 L 228,253 L 227,254 L 226,254 L 225,255 L 224,255 L 223,256 L 222,256 L 221,257 L 220,257 L 218,259 L 217,259 L 216,260 L 215,260 L 214,261 L 213,261 L 212,262 L 210,262 L 209,263 L 208,263 L 207,264 L 206,264 L 205,265 L 204,265 L 203,266 L 201,266 L 199,264 L 199,262 L 198,261 L 200,259 L 201,259 L 202,258 L 203,258 L 204,257 L 206,257 L 207,256 L 208,256 L 209,255 L 210,255 L 211,254 L 212,254 L 213,253 L 214,253 L 215,252 L 216,252 L 218,250 L 219,250 L 220,249 L 221,249 L 222,248 L 223,248 L 223,247 L 224,246 L 224,245 L 225,244 L 225,241 L 226,240 L 226,236 L 225,235 L 225,231 L 224,230 L 224,229 L 223,228 L 223,227 L 220,224 L 219,224 L 218,223 L 218,226 L 217,227 L 217,228 L 216,229 L 216,230 L 214,232 L 214,235 L 212,237 L 212,238 L 210,240 L 210,241 L 206,245 L 206,246 L 202,250 L 202,251 L 196,257 L 196,258 L 189,265 L 189,266 L 182,273 L 182,274 L 181,275 L 180,275 L 180,276 L 174,282 L 174,283 L 172,285 L 172,286 L 171,287 L 170,287 L 167,290 L 167,291 L 162,296 L 162,297 L 158,301 L 158,302 L 153,307 L 153,308 L 150,311 L 150,312 L 141,321 L 140,321 L 135,326 L 134,326 L 129,331 L 128,331 L 124,335 L 123,335 L 121,337 L 121,338 L 120,339 L 118,339 L 114,343 L 113,343 L 109,347 L 108,347 L 104,351 L 103,351 L 99,355 L 98,355 L 95,358 L 94,358 L 90,362 L 89,362 L 86,365 L 85,365 L 81,369 L 80,369 L 77,372 L 76,372 L 73,375 L 72,375 L 68,379 L 67,379 L 64,382 L 63,382 L 60,385 L 59,385 L 56,388 L 55,388 L 51,392 L 50,392 L 47,395 L 46,395 L 42,399 L 41,399 L 38,402 L 37,402 L 34,405 L 33,405 L 30,408 L 29,408 L 26,411 L 25,411 L 23,413 L 22,413 L 21,412 L 21,483 L 67,483 L 68,482 L 69,483 L 70,482 L 71,482 L 72,483 L 73,482 L 74,483 L 75,482 L 76,482 L 77,483 L 78,482 L 79,483 L 80,482 L 81,482 L 82,483 L 83,482 L 84,483 L 85,482 L 86,483 L 91,478 L 91,477 L 107,461 L 107,460 L 126,441 L 126,440 L 165,401 L 166,401 L 170,397 L 171,397 L 174,394 L 175,394 L 183,386 L 183,385 L 184,384 L 185,384 L 187,382 L 188,382 L 190,380 L 191,380 L 192,379 L 193,379 L 194,378 L 195,378 L 196,377 L 197,377 L 198,376 L 199,376 L 200,375 L 201,375 L 202,374 L 203,374 L 204,373 L 206,373 L 207,372 L 208,372 L 209,371 L 211,371 L 212,370 L 213,370 L 214,369 L 215,369 L 216,368 L 217,368 L 218,367 L 219,367 L 220,366 L 221,366 L 222,365 L 223,365 L 224,364 L 225,364 L 226,363 L 227,363 L 228,362 L 229,362 L 231,360 L 232,360 L 233,359 L 234,359 L 235,358 L 236,358 L 238,356 L 239,356 L 240,355 L 241,355 L 242,354 L 243,354 L 245,352 L 246,352 L 247,351 L 248,351 L 250,349 L 252,349 L 253,348 L 254,348 L 255,347 L 256,347 L 257,346 L 259,346 L 260,345 L 262,345 L 263,344 L 264,344 L 265,343 L 266,343 L 267,342 L 268,342 L 269,341 L 271,341 L 272,340 L 275,340 L 276,339 L 280,339 L 281,338 L 286,338 L 287,337 L 291,337 L 292,336 L 296,336 L 297,335 L 299,335 L 300,334 L 301,334 L 302,333 L 303,333 L 304,332 L 305,332 L 309,328 L 310,328 L 315,323 L 316,323 L 320,319 L 320,316 L 322,314 L 322,313 L 318,313 L 317,314 L 316,314 L 315,315 L 314,315 L 312,317 L 310,317 L 309,318 L 307,318 L 306,319 L 304,319 L 303,320 L 301,320 L 300,321 L 292,321 L 291,320 L 289,322 L 288,322 L 287,323 L 287,324 L 282,329 L 281,329 L 279,327 L 278,327 L 277,326 L 277,325 L 278,324 L 278,323 L 281,320 L 281,319 L 282,318 L 283,318 L 287,314 L 288,314 L 290,312 L 291,312 L 292,311 L 294,311 L 295,310 L 296,310 L 297,309 L 299,309 L 300,308 L 301,308 L 302,307 L 304,307 L 305,306 L 307,306 L 308,305 L 309,305 L 310,304 L 312,304 L 313,303 L 315,303 L 316,302 L 318,302 L 319,301 L 320,301 L 321,300 L 323,300 L 324,299 L 325,299 L 327,297 L 328,297 L 329,296 L 330,296 L 332,294 L 333,294 L 341,286 L 342,286 L 344,284 L 344,283 L 350,277 L 350,275 L 347,272 L 345,274 L 344,274 L 342,276 L 341,276 L 340,277 L 339,277 L 337,279 L 336,279 L 335,280 L 334,280 L 333,281 L 332,281 L 331,282 L 329,282 L 328,283 L 327,283 L 326,284 L 324,284 L 323,285 L 322,285 L 321,286 L 319,286 L 318,287 L 315,287 L 314,288 L 312,288 L 311,289 L 309,289 L 308,290 L 307,290 L 306,291 L 305,291 L 304,292 L 302,292 L 301,293 L 300,293 L 299,294 L 298,294 L 297,295 L 296,295 L 295,296 L 294,296 L 293,297 L 291,295 L 291,294 L 290,293 L 290,292 L 289,291 L 290,290 L 291,290 L 292,289 L 293,289 L 294,288 L 295,288 L 296,287 L 297,287 L 298,286 L 299,286 L 300,285 L 302,285 L 303,284 L 304,284 L 305,283 L 307,283 L 308,282 L 309,282 L 310,281 L 313,281 L 314,280 L 316,280 L 317,279 L 319,279 L 320,278 L 322,278 L 323,277 L 324,277 L 325,276 L 327,276 L 328,275 L 329,275 L 330,274 L 331,274 L 332,273 L 333,273 L 334,272 L 335,272 L 337,270 L 338,270 L 339,269 L 340,269 L 343,266 L 344,266 L 348,262 L 349,262 L 352,259 L 353,259 L 355,257 L 356,257 L 359,254 L 360,254 L 364,250 L 365,250 L 366,249 L 366,246 L 365,245 L 365,242 L 364,241 L 364,238 L 363,237 L 363,235 L 362,235 L 361,236 L 359,236 L 358,237 L 356,237 L 355,238 L 354,238 L 352,240 L 351,240 L 348,243 L 347,243 L 346,244 L 345,244 L 344,245 L 343,245 L 342,246 L 341,246 L 340,247 L 339,247 L 338,248 L 337,248 L 336,249 L 335,249 L 334,250 L 333,250 L 332,251 L 331,251 L 330,252 L 328,252 L 327,253 L 326,253 L 325,254 L 323,254 L 322,255 L 320,255 L 319,256 L 318,256 L 317,257 L 315,257 L 314,258 L 312,258 L 311,259 L 310,259 L 309,260 L 307,260 L 306,261 L 305,261 L 304,262 L 302,262 L 301,263 L 300,263 L 299,264 L 296,264 L 295,265 L 291,265 L 290,266 L 284,266 L 283,265 L 281,265 L 279,263 L 279,262 L 278,261 L 278,260 L 281,257 L 282,257 L 284,255 L 285,255 L 286,254 L 287,254 L 288,253 L 289,253 L 290,252 L 291,252 L 292,251 L 294,251 L 295,250 L 296,250 L 297,249 L 299,249 L 300,248 L 301,248 L 302,247 L 304,247 L 305,246 L 306,246 L 307,245 L 309,245 L 310,244 L 312,244 L 314,242 L 315,242 L 317,240 L 318,240 L 320,238 L 321,238 L 324,235 L 325,235 L 328,232 L 329,232 L 331,230 L 332,230 L 333,229 L 334,229 L 335,228 L 337,228 L 338,227 L 339,227 L 340,226 L 341,226 L 342,225 L 343,225 L 344,224 L 346,224 L 347,223 L 348,223 L 349,222 L 350,222 L 351,221 L 352,221 L 353,220 L 351,218 L 351,217 L 350,216 L 350,209 L 351,208 L 351,207 Z" fill="#f0d8d8" stroke="none" /><path d="M 352,268 L 351,269 L 351,270 L 353,272 L 354,272 L 354,269 L 353,268 Z" fill="#f0f0f0" stroke="none" /><path d="M 358,207 L 357,208 L 356,208 L 355,209 L 355,210 L 354,211 L 354,214 L 355,215 L 355,216 L 356,217 L 357,217 L 358,218 L 359,218 L 361,216 L 361,215 L 362,214 L 362,210 L 360,208 L 359,208 Z" fill="#f0f0f0" stroke="none" /></svg>