<?xml version="1.0" encoding="utf-8" ?>
<svg baseProfile="full" height="500" version="1.1" viewBox="0 0 500 500" width="500" xmlns="http://www.w3.org/2000/svg" xmlns:ev="http://www.w3.org/2001/xml-events" xmlns:xlink="http://www.w3.org/1999/xlink"><defs /><path d="M 23,23 L 23,476 L 476,476 L 476,23 Z" fill="#000000" stroke="none" /><path d="M 264,315 L 263,316 L 254,316 L 253,317 L 245,317 L 244,318 L 235,318 L 234,319 L 225,319 L 224,320 L 215,320 L 214,321 L 205,321 L 204,322 L 195,322 L 194,323 L 185,323 L 184,324 L 175,324 L 174,325 L 164,325 L 163,326 L 154,326 L 153,327 L 144,327 L 143,328 L 133,328 L 132,329 L 123,329 L 122,330 L 112,330 L 111,331 L 101,331 L 100,332 L 89,332 L 88,333 L 76,333 L 75,334 L 68,334 L 68,366 L 69,367 L 68,368 L 69,369 L 69,374 L 70,375 L 70,376 L 71,377 L 83,377 L 84,376 L 93,376 L 94,375 L 102,375 L 103,374 L 111,374 L 112,373 L 120,373 L 121,372 L 128,372 L 129,371 L 136,371 L 137,370 L 145,370 L 146,369 L 153,369 L 154,368 L 161,368 L 162,367 L 169,367 L 170,366 L 176,366 L 177,365 L 184,365 L 185,364 L 192,364 L 193,363 L 199,363 L 200,362 L 207,362 L 208,361 L 214,361 L 215,360 L 222,360 L 223,359 L 229,359 L 230,358 L 236,358 L 237,357 L 244,357 L 245,356 L 251,356 L 252,355 L 258,355 L 259,354 L 266,354 L 267,353 L 271,353 L 271,315 Z" fill="#c06018" stroke="none" /><path d="M 420,299 L 419,300 L 410,300 L 409,301 L 400,301 L 399,302 L 391,302 L 390,303 L 381,303 L 380,304 L 371,304 L 370,305 L 362,305 L 361,306 L 352,306 L 351,307 L 342,307 L 341,308 L 333,308 L 332,309 L 323,309 L 322,310 L 313,310 L 312,311 L 303,311 L 302,312 L 294,312 L 293,313 L 284,313 L 283,314 L 278,314 L 278,350 L 279,351 L 286,351 L 287,350 L 293,350 L 294,349 L 300,349 L 301,348 L 307,348 L 308,347 L 315,347 L 316,346 L 323,346 L 324,345 L 330,345 L 331,344 L 338,344 L 339,343 L 346,343 L 347,342 L 353,342 L 354,341 L 361,341 L 362,340 L 369,340 L 370,339 L 377,339 L 378,338 L 385,338 L 386,337 L 392,337 L 393,336 L 400,336 L 401,335 L 408,335 L 409,334 L 416,334 L 417,333 L 424,333 L 425,332 L 427,332 L 427,305 L 426,304 L 426,299 Z" fill="#c06018" stroke="none" /><path d="M 398,287 L 397,288 L 386,288 L 385,289 L 375,289 L 374,290 L 363,290 L 362,291 L 352,291 L 351,292 L 340,292 L 339,293 L 328,293 L 327,294 L 317,294 L 316,295 L 305,295 L 304,296 L 294,296 L 293,297 L 282,297 L 281,298 L 270,298 L 269,299 L 259,299 L 258,300 L 248,300 L 247,301 L 236,301 L 235,302 L 224,302 L 223,303 L 214,303 L 213,304 L 202,304 L 201,305 L 190,305 L 189,306 L 179,306 L 178,307 L 168,307 L 167,308 L 157,308 L 156,309 L 145,309 L 144,310 L 134,310 L 133,311 L 124,311 L 123,312 L 114,312 L 114,323 L 118,323 L 119,322 L 129,322 L 130,321 L 140,321 L 141,320 L 150,320 L 151,319 L 160,319 L 161,318 L 171,318 L 172,317 L 181,317 L 182,316 L 190,316 L 191,315 L 201,315 L 202,314 L 211,314 L 212,313 L 221,313 L 222,312 L 231,312 L 232,311 L 240,311 L 241,310 L 251,310 L 252,309 L 260,309 L 261,308 L 270,308 L 271,307 L 280,307 L 281,306 L 290,306 L 291,305 L 299,305 L 300,304 L 309,304 L 310,303 L 318,303 L 319,302 L 329,302 L 330,301 L 338,301 L 339,300 L 348,300 L 349,299 L 358,299 L 359,298 L 367,298 L 368,297 L 377,297 L 378,296 L 387,296 L 388,295 L 397,295 L 398,294 L 404,294 L 404,292 L 405,291 L 405,287 Z" fill="#c06018" stroke="none" /><path d="M 248,268 L 247,269 L 225,269 L 224,270 L 208,270 L 207,271 L 194,271 L 193,272 L 180,272 L 179,273 L 168,273 L 167,274 L 158,274 L 157,275 L 147,275 L 146,276 L 138,276 L 137,277 L 129,277 L 128,278 L 121,278 L 120,279 L 114,279 L 114,305 L 119,305 L 120,304 L 130,304 L 131,303 L 141,303 L 142,302 L 152,302 L 153,301 L 163,301 L 164,300 L 175,300 L 176,299 L 186,299 L 187,298 L 197,298 L 198,297 L 209,297 L 210,296 L 220,296 L 221,295 L 232,295 L 233,294 L 243,294 L 244,293 L 254,293 L 255,292 L 266,292 L 267,291 L 269,291 L 269,268 Z" fill="#c06018" stroke="none" /><path d="M 356,258 L 355,259 L 337,259 L 336,260 L 325,260 L 324,261 L 315,261 L 314,262 L 306,262 L 305,263 L 299,263 L 298,264 L 292,264 L 291,265 L 285,265 L 284,266 L 280,266 L 279,267 L 277,267 L 277,291 L 278,291 L 279,290 L 289,290 L 290,289 L 301,289 L 302,288 L 312,288 L 313,287 L 324,287 L 325,286 L 335,286 L 336,285 L 347,285 L 348,284 L 359,284 L 360,283 L 370,283 L 371,282 L 382,282 L 383,281 L 393,281 L 394,280 L 404,280 L 405,279 L 405,277 L 406,276 L 406,266 L 407,265 L 407,259 L 404,259 L 403,258 Z" fill="#c06018" stroke="none" /><path d="M 186,237 L 185,238 L 170,238 L 169,239 L 161,239 L 160,240 L 153,240 L 152,241 L 146,241 L 145,242 L 140,242 L 139,243 L 134,243 L 133,244 L 129,244 L 128,245 L 124,245 L 123,246 L 119,246 L 118,247 L 114,247 L 113,248 L 113,249 L 114,250 L 114,272 L 117,272 L 118,271 L 125,271 L 126,270 L 134,270 L 135,269 L 143,269 L 144,268 L 153,268 L 154,267 L 164,267 L 165,266 L 175,266 L 176,265 L 189,265 L 190,264 L 202,264 L 203,263 L 219,263 L 220,262 L 240,262 L 241,261 L 267,261 L 265,259 L 264,259 L 259,254 L 258,254 L 255,251 L 254,251 L 252,249 L 251,249 L 249,247 L 248,247 L 247,246 L 246,246 L 245,245 L 244,245 L 243,244 L 242,244 L 241,243 L 240,243 L 239,242 L 238,242 L 237,241 L 235,241 L 234,240 L 229,240 L 228,239 L 218,239 L 217,238 L 203,238 L 202,237 Z" fill="#c06018" stroke="none" /><path d="M 318,230 L 317,231 L 297,231 L 296,232 L 286,232 L 285,233 L 277,233 L 276,234 L 269,234 L 268,235 L 262,235 L 261,236 L 256,236 L 255,237 L 250,237 L 249,238 L 246,238 L 247,238 L 248,239 L 249,239 L 250,240 L 251,240 L 253,242 L 254,242 L 255,243 L 256,243 L 258,245 L 259,245 L 262,248 L 263,248 L 269,254 L 270,254 L 274,258 L 274,259 L 275,260 L 276,260 L 277,259 L 282,259 L 283,258 L 288,258 L 289,257 L 295,257 L 296,256 L 303,256 L 304,255 L 311,255 L 312,254 L 320,254 L 321,253 L 332,253 L 333,252 L 348,252 L 349,251 L 397,251 L 396,251 L 395,250 L 394,250 L 393,249 L 392,249 L 391,248 L 390,248 L 389,247 L 388,247 L 387,246 L 386,246 L 385,245 L 384,245 L 383,244 L 382,244 L 381,243 L 380,243 L 379,242 L 377,242 L 376,241 L 375,241 L 374,240 L 373,240 L 372,239 L 371,239 L 370,238 L 368,238 L 367,237 L 366,237 L 365,236 L 363,236 L 362,235 L 361,235 L 360,234 L 358,234 L 357,233 L 356,233 L 355,232 L 353,232 L 352,231 L 350,231 L 349,230 L 349,231 L 348,232 L 347,232 L 346,231 L 327,231 L 326,230 L 325,231 L 324,230 L 323,231 L 322,230 L 321,231 L 320,230 L 319,231 Z" fill="#c06018" stroke="none" /><path d="M 75,228 L 74,229 L 69,229 L 68,230 L 66,230 L 65,231 L 64,231 L 63,232 L 62,232 L 61,233 L 60,233 L 58,235 L 57,235 L 52,240 L 52,241 L 51,242 L 51,243 L 49,245 L 49,247 L 48,248 L 48,250 L 47,251 L 47,254 L 46,255 L 46,259 L 47,260 L 47,262 L 48,263 L 48,264 L 49,265 L 49,266 L 51,268 L 51,269 L 52,269 L 56,273 L 57,273 L 58,274 L 59,274 L 57,272 L 57,271 L 56,270 L 56,269 L 55,268 L 55,267 L 54,266 L 54,264 L 53,263 L 53,260 L 54,259 L 57,259 L 59,261 L 59,263 L 60,264 L 60,266 L 61,267 L 61,268 L 62,269 L 62,270 L 64,272 L 64,273 L 65,274 L 67,272 L 67,271 L 68,270 L 68,269 L 69,268 L 69,267 L 70,266 L 70,265 L 71,264 L 71,263 L 72,262 L 72,260 L 73,259 L 73,256 L 74,255 L 74,253 L 75,252 L 77,252 L 79,254 L 79,257 L 78,258 L 78,261 L 77,262 L 77,264 L 76,265 L 76,266 L 75,267 L 75,268 L 74,269 L 74,270 L 73,271 L 73,272 L 80,265 L 80,264 L 81,263 L 81,261 L 82,260 L 86,260 L 87,261 L 87,262 L 86,263 L 86,265 L 85,266 L 85,267 L 82,270 L 82,271 L 79,274 L 78,274 L 74,278 L 73,278 L 71,280 L 70,280 L 69,281 L 68,281 L 68,327 L 71,327 L 72,326 L 85,326 L 86,325 L 96,325 L 97,324 L 107,324 L 107,252 L 106,251 L 106,247 L 105,246 L 105,244 L 104,243 L 104,242 L 103,241 L 103,240 L 102,239 L 102,238 L 95,231 L 94,231 L 93,230 L 92,230 L 91,229 L 88,229 L 87,228 Z" fill="#c06018" stroke="none" /><path d="M 437,216 L 436,217 L 433,217 L 432,218 L 431,218 L 430,219 L 429,219 L 422,226 L 422,227 L 421,228 L 421,229 L 420,230 L 420,231 L 419,232 L 419,234 L 418,235 L 418,238 L 417,239 L 417,242 L 416,243 L 416,250 L 415,251 L 415,259 L 414,260 L 414,268 L 413,269 L 413,280 L 412,281 L 412,293 L 416,293 L 417,292 L 425,292 L 425,287 L 426,286 L 426,279 L 427,278 L 427,273 L 428,272 L 428,267 L 429,266 L 429,263 L 430,262 L 430,259 L 431,258 L 431,255 L 429,255 L 425,251 L 426,250 L 427,250 L 428,249 L 430,249 L 431,250 L 430,249 L 430,247 L 429,246 L 429,243 L 428,242 L 428,241 L 429,240 L 433,240 L 434,241 L 434,244 L 435,245 L 435,247 L 436,248 L 441,248 L 442,247 L 443,247 L 444,246 L 445,246 L 450,241 L 450,240 L 451,239 L 451,237 L 452,236 L 452,232 L 453,231 L 453,229 L 452,228 L 452,223 L 451,222 L 451,221 L 450,220 L 450,219 L 448,217 L 446,217 L 445,216 Z" fill="#c06018" stroke="none" /><path d="M 61,199 L 60,200 L 58,200 L 57,201 L 56,201 L 55,202 L 54,202 L 51,205 L 51,206 L 49,208 L 49,209 L 48,210 L 48,212 L 47,213 L 47,216 L 46,217 L 46,237 L 47,236 L 47,235 L 53,229 L 54,229 L 56,227 L 57,227 L 58,226 L 59,226 L 60,225 L 61,225 L 62,224 L 63,224 L 64,223 L 66,223 L 67,222 L 71,222 L 72,221 L 89,221 L 90,222 L 93,222 L 94,223 L 95,223 L 96,224 L 97,224 L 98,225 L 99,225 L 101,227 L 100,226 L 100,224 L 99,223 L 99,222 L 98,221 L 98,219 L 97,218 L 97,217 L 96,216 L 96,215 L 94,213 L 94,212 L 92,210 L 92,209 L 90,207 L 89,207 L 87,205 L 86,205 L 85,204 L 84,204 L 83,203 L 82,203 L 81,202 L 79,202 L 78,201 L 75,201 L 74,200 L 71,200 L 70,199 Z" fill="#c06018" stroke="none" /><path d="M 350,193 L 348,195 L 348,197 L 347,198 L 347,202 L 346,203 L 346,211 L 347,212 L 347,217 L 348,218 L 348,220 L 349,221 L 349,222 L 350,223 L 351,223 L 352,224 L 354,224 L 355,225 L 357,225 L 358,226 L 359,226 L 360,227 L 362,227 L 363,228 L 364,228 L 365,229 L 367,229 L 368,230 L 369,230 L 370,231 L 372,231 L 373,232 L 374,232 L 375,233 L 376,233 L 377,234 L 378,234 L 379,235 L 381,235 L 382,236 L 383,236 L 384,237 L 385,237 L 386,238 L 387,238 L 388,239 L 389,239 L 390,240 L 391,240 L 392,241 L 393,241 L 394,242 L 395,242 L 396,243 L 398,243 L 399,244 L 400,244 L 401,245 L 402,245 L 403,246 L 404,246 L 405,247 L 406,247 L 407,248 L 408,248 L 409,247 L 409,241 L 410,240 L 410,237 L 411,236 L 411,233 L 412,232 L 412,230 L 413,229 L 413,228 L 414,227 L 414,226 L 415,225 L 415,224 L 416,223 L 416,222 L 425,213 L 426,213 L 427,212 L 428,212 L 428,211 L 425,211 L 424,210 L 421,210 L 420,209 L 417,209 L 416,208 L 413,208 L 412,207 L 409,207 L 408,206 L 404,206 L 403,205 L 400,205 L 399,204 L 396,204 L 395,203 L 392,203 L 391,202 L 387,202 L 386,201 L 383,201 L 382,200 L 378,200 L 377,199 L 374,199 L 373,198 L 369,198 L 368,197 L 365,197 L 364,196 L 360,196 L 359,195 L 356,195 L 355,194 L 351,194 Z" fill="#c06018" stroke="none" /><path d="M 82,178 L 81,179 L 79,179 L 75,183 L 75,185 L 74,186 L 74,188 L 73,189 L 73,193 L 76,193 L 77,194 L 80,194 L 81,195 L 83,195 L 84,196 L 85,196 L 86,197 L 87,197 L 88,198 L 89,198 L 90,199 L 90,196 L 89,195 L 89,191 L 88,190 L 88,187 L 87,186 L 87,183 L 86,182 L 86,180 L 85,179 L 85,178 Z" fill="#c06018" stroke="none" /><path d="M 227,153 L 227,155 L 228,156 L 228,163 L 229,164 L 229,170 L 230,171 L 230,174 L 231,175 L 231,178 L 232,179 L 232,182 L 233,183 L 233,189 L 234,190 L 234,201 L 235,202 L 235,214 L 236,215 L 236,223 L 237,224 L 237,230 L 238,231 L 238,232 L 242,232 L 243,231 L 247,231 L 248,230 L 253,230 L 254,229 L 259,229 L 260,228 L 266,228 L 267,227 L 273,227 L 274,226 L 281,226 L 282,225 L 292,225 L 293,224 L 307,224 L 308,223 L 336,223 L 337,224 L 342,224 L 342,223 L 341,222 L 341,220 L 340,219 L 340,215 L 339,214 L 339,200 L 338,199 L 338,198 L 337,197 L 337,190 L 338,189 L 338,188 L 339,187 L 340,187 L 341,188 L 343,188 L 344,189 L 344,188 L 342,186 L 339,186 L 338,185 L 338,168 L 337,167 L 337,159 L 336,158 L 336,155 L 326,155 L 325,156 L 317,156 L 316,157 L 272,157 L 271,156 L 256,156 L 255,155 L 244,155 L 243,154 L 233,154 L 232,153 Z" fill="#c06018" stroke="none" /><path d="M 218,151 L 217,152 L 215,152 L 214,153 L 211,153 L 210,154 L 206,154 L 205,155 L 201,155 L 200,156 L 196,156 L 195,157 L 189,157 L 188,158 L 180,158 L 179,159 L 166,159 L 165,160 L 145,160 L 144,159 L 123,159 L 122,158 L 110,158 L 109,157 L 100,157 L 99,156 L 89,156 L 88,155 L 84,155 L 85,156 L 85,157 L 86,158 L 86,159 L 87,160 L 87,161 L 88,162 L 88,164 L 89,165 L 89,167 L 90,168 L 90,171 L 91,172 L 91,174 L 92,175 L 92,177 L 93,178 L 93,180 L 94,181 L 94,184 L 95,185 L 95,188 L 96,189 L 96,193 L 97,194 L 97,198 L 98,199 L 98,204 L 99,205 L 99,207 L 100,208 L 100,209 L 102,211 L 102,212 L 103,213 L 103,214 L 104,215 L 104,216 L 105,217 L 105,219 L 106,220 L 106,221 L 107,222 L 107,224 L 108,225 L 108,227 L 109,228 L 109,231 L 110,232 L 110,234 L 111,235 L 111,238 L 112,239 L 112,240 L 116,240 L 117,239 L 121,239 L 122,238 L 126,238 L 127,237 L 131,237 L 132,236 L 137,236 L 138,235 L 143,235 L 144,234 L 149,234 L 150,233 L 157,233 L 158,232 L 165,232 L 166,231 L 178,231 L 179,230 L 207,230 L 208,231 L 220,231 L 221,232 L 230,232 L 230,227 L 229,226 L 229,218 L 228,217 L 228,207 L 227,206 L 227,194 L 226,193 L 226,186 L 225,185 L 225,181 L 224,180 L 224,177 L 223,176 L 223,173 L 222,172 L 222,167 L 221,166 L 221,159 L 220,158 L 220,152 L 219,152 Z" fill="#c06018" stroke="none" /></svg>