<?xml version="1.0" encoding="UTF-8"?>
<!-- Generator: visioncortex VTracer -->
<svg id="svg" version="1.1" xmlns="http://www.w3.org/2000/svg" style="display: block;" viewBox="0 0 500 500"><path d="M0 0 C4.17241687 3.64486991 8.31627934 7.3108309 12.37890625 11.078125 C12.9409375 11.59761719 13.50296875 12.11710937 14.08203125 12.65234375 C16.33132425 14.80468446 17.37292512 16.0601816 18.37890625 19.078125 C19.03890625 19.408125 19.69890625 19.738125 20.37890625 20.078125 C21.10584529 22.05701461 21.77706876 24.05767058 22.37890625 26.078125 C23.03890625 26.078125 23.69890625 26.078125 24.37890625 26.078125 C25.82531764 29.05304263 27.25932435 32.03378626 28.69140625 35.015625 C29.09552734 35.84642578 29.49964844 36.67722656 29.91601562 37.53320312 C41.39697909 61.52188288 43.0769923 86.31925149 37.37890625 112.078125 C37.09660156 113.44904297 37.09660156 113.44904297 36.80859375 114.84765625 C35.99401297 118.74600711 35.16706432 122.50180886 33.37890625 126.078125 C32.71890625 126.408125 32.05890625 126.738125 31.37890625 127.078125 C30.68428674 129.06858931 30.02296492 131.07073045 29.37890625 133.078125 C28.37298145 135.22027573 27.33096236 137.3458413 26.25390625 139.453125 C25.71507812 140.51273438 25.17625 141.57234375 24.62109375 142.6640625 C24.21117187 143.46070313 23.80125 144.25734375 23.37890625 145.078125 C22.71890625 145.078125 22.05890625 145.078125 21.37890625 145.078125 C21.11078125 145.8 20.84265625 146.521875 20.56640625 147.265625 C18.44241859 152.29612209 16.24671403 155.41096823 11.921875 158.828125 C8.71296747 161.42774629 5.92531055 164.48618701 3.12890625 167.515625 C0.08216766 170.35463141 -3.12882274 172.51414061 -6.6328125 174.74609375 C-8.7306878 176.05845497 -8.7306878 176.05845497 -10.62109375 178.078125 C-12.87828249 179.29111362 -15.13444131 180.45095078 -17.43359375 181.578125 C-18.05041016 181.88621094 -18.66722656 182.19429687 -19.30273438 182.51171875 C-28.52373927 187.078125 -28.52373927 187.078125 -32.62109375 187.078125 C-32.62109375 187.738125 -32.62109375 188.398125 -32.62109375 189.078125 C-33.98234375 189.2946875 -33.98234375 189.2946875 -35.37109375 189.515625 C-38.44182913 189.99424889 -38.44182913 189.99424889 -40.68359375 190.640625 C-42.62109375 191.078125 -42.62109375 191.078125 -47.62109375 191.078125 C-47.62109375 196.358125 -47.62109375 201.638125 -47.62109375 207.078125 C-45.97109375 207.738125 -44.32109375 208.398125 -42.62109375 209.078125 C-41.96109375 209.738125 -41.30109375 210.398125 -40.62109375 211.078125 C-37.64691571 211.27013818 -34.76796014 211.33256295 -31.79296875 211.30859375 C-30.3849424 211.30926598 -30.3849424 211.30926598 -28.94847107 211.30995178 C-25.75584321 211.3074917 -22.56363908 211.28841324 -19.37109375 211.265625 C-17.70090683 211.25456726 -17.70090683 211.25456726 -15.99697876 211.24328613 C-11.08550762 211.20999942 -6.17405764 211.17660833 -1.26264954 211.13491821 C6.11283765 211.0774744 13.48454455 211.0828359 20.85986328 211.16455078 C73.61819888 212.5639387 73.61819888 212.5639387 124.24804688 199.71679688 C130.82439885 197.031591 137.66199467 195.12904732 144.47003174 193.12802124 C148.16908379 192.03493302 151.85519928 190.89997366 155.54296875 189.76953125 C169.48156217 185.51697806 183.43004888 181.29686464 197.37890625 177.078125 C197.71295478 175.64269551 198.04289218 174.20630888 198.37109375 172.76953125 C198.55526855 171.96974854 198.73944336 171.16996582 198.92919922 170.34594727 C199.4182311 167.87981417 199.54075835 165.58683248 199.37890625 163.078125 C200.03890625 163.078125 200.69890625 163.078125 201.37890625 163.078125 C201.46140625 161.82 201.54390625 160.561875 201.62890625 159.265625 C202.17628141 153.7760075 203.21239456 148.41508986 204.31640625 143.015625 C204.48624023 142.15799561 204.65607422 141.30036621 204.83105469 140.41674805 C205.00024414 139.61277588 205.16943359 138.80880371 205.34375 137.98046875 C205.49448975 137.25335693 205.64522949 136.52624512 205.80053711 135.77709961 C206.37890625 134.078125 206.37890625 134.078125 208.37890625 133.078125 C208.61912127 131.49956913 208.84846986 129.91870892 209.02734375 128.33203125 C209.73048644 123.82410537 211.11978825 119.45732157 212.37890625 115.078125 C213.03890625 115.078125 213.69890625 115.078125 214.37890625 115.078125 C214.50136719 114.34980469 214.62382812 113.62148437 214.75 112.87109375 C216.83849385 103.59610555 223.07853116 93.82799291 230.8359375 88.33984375 C237.58180687 84.66122067 242.55058772 83.95603164 250.00390625 86.140625 C256.13368266 89.65957072 259.59535776 94.63879894 262.37890625 101.078125 C263.1253799 103.97009478 263.61043013 106.87798441 264.06640625 109.828125 C264.19595703 110.57578125 264.32550781 111.3234375 264.45898438 112.09375 C266.09271482 122.1900313 265.24803487 131.58686216 263.62890625 141.640625 C263.4469873 142.78305664 263.26506836 143.92548828 263.07763672 145.10253906 C256.67900388 184.26725119 256.67900388 184.26725119 242.37890625 195.078125 C241.71890625 195.078125 241.05890625 195.078125 240.37890625 195.078125 C240.37890625 195.738125 240.37890625 196.398125 240.37890625 197.078125 C239.49847656 197.38105469 238.61804688 197.68398438 237.7109375 197.99609375 C229.11131292 201.07270212 229.11131292 201.07270212 222.37890625 207.078125 C218.76366947 209.53813182 215.2486574 210.90588607 211.07421875 212.1640625 C209.25083984 212.72033325 209.25083984 212.72033325 207.390625 213.2878418 C206.09506385 213.67630879 204.79949071 214.06473576 203.50390625 214.453125 C200.85979355 215.25622478 198.21703777 216.06374863 195.57421875 216.87109375 C194.31641602 217.25442871 193.05861328 217.63776367 191.76269531 218.03271484 C187.94277709 219.21286562 184.16004144 220.46718149 180.37890625 221.765625 C174.42340997 223.78122339 168.41784273 225.58217044 162.37890625 227.328125 C161.49332031 227.58682373 160.60773438 227.84552246 159.6953125 228.11206055 C154.92339828 229.47254637 150.31041976 230.51528922 145.37890625 231.078125 C145.37890625 231.738125 145.37890625 232.398125 145.37890625 233.078125 C144.72664063 233.19285156 144.074375 233.30757813 143.40234375 233.42578125 C139.53855991 234.25944004 135.78846076 235.38092028 132.00390625 236.515625 C130.53783652 236.95207862 129.07169146 237.38827932 127.60546875 237.82421875 C126.89229492 238.03675293 126.17912109 238.24928711 125.44433594 238.46826172 C123.54828291 239.02811284 121.64739273 239.57151326 119.74609375 240.11328125 C116.44275761 241.05982884 113.16039036 242.05863479 109.87890625 243.078125 C107.7140654 243.75069691 105.54735125 244.41726557 103.37890625 245.078125 C102.37947998 245.42093506 101.38005371 245.76374512 100.3503418 246.11694336 C95.47612776 247.49713213 90.5882915 247.41378647 85.5546875 247.45703125 C84.53086472 247.47402573 83.50704193 247.4910202 82.45219421 247.50852966 C79.19866001 247.56141311 75.94513676 247.60185284 72.69140625 247.640625 C69.42702715 247.68462451 66.16274371 247.73135227 62.89848328 247.78343201 C60.87187433 247.81526722 58.84518095 247.84219469 56.81843567 247.86366272 C55.90035629 247.87715256 54.98227692 247.8906424 54.03637695 247.90454102 C53.23142288 247.91405289 52.42646881 247.92356476 51.59712219 247.93336487 C49.41533748 248.00267294 49.41533748 248.00267294 47.5136261 248.58088684 C44.51021985 249.28046725 41.6482486 249.20551319 38.56591797 249.20751953 C37.55038094 249.21014801 37.55038094 249.21014801 36.514328 249.21282959 C34.27905704 249.21722509 32.0438655 249.21431623 29.80859375 249.2109375 C28.24642929 249.21161167 26.68426493 249.21258264 25.12210083 249.21383667 C21.84538781 249.21531092 18.56870204 249.21316957 15.29199219 249.20849609 C11.11621336 249.2028273 6.94049922 249.20606136 2.76472282 249.21206856 C-0.46457392 249.21570579 -3.69385569 249.21452066 -6.92315292 249.21194077 C-8.46114993 249.21127874 -9.99914835 249.21207428 -11.53714371 249.21442032 C-13.70204438 249.21699586 -15.86684495 249.21303716 -18.03173828 249.20751953 C-19.25877472 249.20672394 -20.48581116 249.20592834 -21.75003052 249.20510864 C-26.38645999 249.05301846 -31.00519251 248.53971512 -35.62109375 248.078125 C-35.62109375 283.388125 -35.62109375 318.698125 -35.62109375 355.078125 C-57.40109375 355.078125 -79.18109375 355.078125 -101.62109375 355.078125 C-101.95109375 350.458125 -102.28109375 345.838125 -102.62109375 341.078125 C-102.95109375 339.428125 -103.28109375 337.778125 -103.62109375 336.078125 C-103.69679767 334.65716039 -103.72931687 333.2332433 -103.71875 331.81030273 C-103.71544678 331.00274033 -103.71214355 330.19517792 -103.70874023 329.36314392 C-103.70044189 328.50467361 -103.69214355 327.64620331 -103.68359375 326.76171875 C-103.67791382 325.42150414 -103.67791382 325.42150414 -103.67211914 324.05421448 C-103.65993451 321.20796826 -103.64130516 318.36182485 -103.62109375 315.515625 C-103.5945045 311.76432558 -103.57450933 308.01307694 -103.55859375 304.26171875 C-103.55029541 303.40122421 -103.54199707 302.54072968 -103.53344727 301.65415955 C-103.53014404 300.8497493 -103.52684082 300.04533905 -103.5234375 299.21655273 C-103.51558228 298.15995705 -103.51558228 298.15995705 -103.50756836 297.08201599 C-103.55926472 295.06003185 -103.55926472 295.06003185 -104.12109375 293.08088684 C-104.65642224 290.93661589 -104.73495883 289.1027137 -104.71875 286.89550781 C-104.71544678 286.08075989 -104.71214355 285.26601196 -104.70874023 284.42657471 C-104.70044189 283.55361755 -104.69214355 282.6806604 -104.68359375 281.78125 C-104.67791382 280.41984894 -104.67791382 280.41984894 -104.67211914 279.03094482 C-104.6558165 275.15598992 -104.6277827 271.28114136 -104.60058594 267.40625 C-104.58239903 264.57292172 -104.57036524 261.73961108 -104.55859375 258.90625 C-104.55029541 258.04138977 -104.54199707 257.17652954 -104.53344727 256.28546143 C-104.51280123 251.11425791 -104.93147551 246.20125429 -105.62109375 241.078125 C-105.3515625 238.28515625 -105.3515625 238.28515625 -104.80859375 235.890625 C-104.63714844 235.09269531 -104.46570313 234.29476563 -104.2890625 233.47265625 C-101.28281131 222.69586106 -95.40027293 211.81807799 -85.62109375 206.078125 C-84.96109375 206.078125 -84.30109375 206.078125 -83.62109375 206.078125 C-83.62109375 201.788125 -83.62109375 197.498125 -83.62109375 193.078125 C-84.94109375 193.408125 -86.26109375 193.738125 -87.62109375 194.078125 C-89.27277556 193.65894818 -90.92294636 193.22679966 -92.546875 192.71044922 C-94.89664089 191.99412464 -97.25702476 191.43920674 -99.65234375 190.89453125 C-100.54566406 190.68892578 -101.43898438 190.48332031 -102.359375 190.27148438 C-104.19967653 189.85110432 -106.04082909 189.43443257 -107.8828125 189.02148438 C-128.02916697 184.35555379 -146.350816 171.2495274 -157.625 153.92578125 C-158.62109375 152.078125 -158.62109375 152.078125 -158.62109375 150.078125 C-159.28109375 150.078125 -159.94109375 150.078125 -160.62109375 150.078125 C-160.95882812 149.29566406 -161.2965625 148.51320312 -161.64453125 147.70703125 C-162.09054688 146.69511719 -162.5365625 145.68320313 -162.99609375 144.640625 C-163.43695313 143.63128906 -163.8778125 142.62195313 -164.33203125 141.58203125 C-165.37185661 138.95668953 -165.37185661 138.95668953 -167.62109375 138.078125 C-167.62109375 137.418125 -167.62109375 136.758125 -167.62109375 136.078125 C-168.61109375 136.078125 -169.60109375 136.078125 -170.62109375 136.078125 C-172.28776042 134.41145833 -173.95442708 132.74479167 -175.62109375 131.078125 C-178.2864241 129.759107 -178.2864241 129.759107 -180.62109375 129.078125 C-180.62109375 128.418125 -180.62109375 127.758125 -180.62109375 127.078125 C-181.38421875 126.81 -182.14734375 126.541875 -182.93359375 126.265625 C-185.6482926 125.0661069 -186.90002237 124.45484263 -188.62109375 122.078125 C-191.37654569 114.68191189 -191.6564853 108.9294992 -188.55859375 101.765625 C-186.69484211 97.85707155 -184.52273856 94.59642917 -181.93359375 91.140625 C-177.11035708 83.92146382 -177.24429205 75.68782638 -176.77832031 67.27099609 C-176.57980123 64.50220971 -176.14552864 61.80251983 -175.62109375 59.078125 C-174.96109375 59.078125 -174.30109375 59.078125 -173.62109375 59.078125 C-173.49734375 57.6859375 -173.49734375 57.6859375 -173.37109375 56.265625 C-170.83740201 39.49658622 -160.18329779 22.05107807 -148.0390625 10.5234375 C-146.51101416 9.11392751 -146.51101416 9.11392751 -145.62109375 7.078125 C-144.96109375 7.078125 -144.30109375 7.078125 -143.62109375 7.078125 C-143.62109375 6.418125 -143.62109375 5.758125 -143.62109375 5.078125 C-141.50390625 3.1328125 -141.50390625 3.1328125 -138.74609375 0.953125 C-137.84117187 0.22867188 -136.93625 -0.49578125 -136.00390625 -1.2421875 C-133.62109375 -2.921875 -133.62109375 -2.921875 -131.62109375 -2.921875 C-131.62109375 -3.581875 -131.62109375 -4.241875 -131.62109375 -4.921875 C-90.47585686 -29.94952944 -38.42201803 -32.15549449 0 0 Z " transform="translate(211.62109375,79.921875)" style="fill: #000000;"/><path d="M0 0 C1.72794083 1.35027711 3.43689679 2.7252374 5.125 4.125 C5.97578125 4.81335938 6.8265625 5.50171875 7.703125 6.2109375 C23.68477849 19.79044062 34.79880719 40.21100484 37.125 61.125 C38.6213057 88.68220733 31.3285467 111.83249432 12.8828125 132.65625 C-2.88215213 149.4032944 -25.37001778 158.8886108 -48.25292969 159.59716797 C-60.16538095 159.71014796 -71.36594039 158.12863576 -82.875 155.125 C-84.03773437 154.82464844 -85.20046875 154.52429688 -86.3984375 154.21484375 C-97.69561508 150.86054038 -106.42986984 144.1530867 -114.875 136.125 C-112.07211697 133.05517573 -110.05688476 132.20399487 -105.8359375 131.921875 C-99.29544514 131.83637837 -93.88193165 132.04016882 -87.78125 134.453125 C-85.09380911 135.40033777 -82.6875377 135.40625377 -79.875 135.125 C-78.5008337 133.95906538 -78.5008337 133.95906538 -78.5 130.75 C-78.46902894 127.09929805 -78.46902894 127.09929805 -80.8125 125.375 C-81.823125 124.9625 -82.83375 124.55 -83.875 124.125 C-84.46023437 123.84785156 -85.04546875 123.57070312 -85.6484375 123.28515625 C-94.73416502 119.50813925 -106.05959401 119.71870308 -115.1875 123.125 C-116.02925781 123.49625 -116.87101562 123.8675 -117.73828125 124.25 C-119.875 125.125 -119.875 125.125 -122.875 125.125 C-123.16632813 124.48433594 -123.45765625 123.84367188 -123.7578125 123.18359375 C-129.51194301 111.04201649 -137.82409403 104.49227065 -148.875 97.125 C-147.01249008 93.02747817 -144.34491368 89.82506269 -141.53125 86.34375 C-137.94532111 81.53995846 -137.58950154 77.73993715 -137.4375 71.8125 C-136.3260916 45.59649272 -126.2169186 24.23923969 -107.32421875 6.12890625 C-99.0540908 -1.37246967 -88.55453728 -7.61092777 -77.875 -10.875 C-76.23144531 -11.42800781 -76.23144531 -11.42800781 -74.5546875 -11.9921875 C-49.5686933 -19.43154922 -21.35791118 -15.07970663 0 0 Z " transform="translate(192.875,92.875)" style="fill: #FDFDFD;"/><path d="M0 0 C2.43380523 6.92927422 3.54927341 13.16280005 3.5 20.5 C3.49645508 21.47686768 3.49291016 22.45373535 3.48925781 23.46020508 C3.15883278 38.61546064 1.30253365 62.20226278 -8.4375 74.5625 C-10.90049168 76.90534575 -12.84984399 78.7076283 -16 80 C-17.9375 79.4375 -17.9375 79.4375 -20 78 C-21.60875 76.948125 -21.60875 76.948125 -23.25 75.875 C-24.1575 75.25625 -25.065 74.6375 -26 74 C-25.62820272 64.51916929 -23.80902207 55.58550818 -21.58251953 46.40283203 C-21.19423328 44.80119194 -20.81238926 43.1979763 -20.43701172 41.59326172 C-10.66870567 0 -10.66870567 0 0 0 Z " transform="translate(455,183)" style="fill: #F9F9F9;"/><path d="M0 0 C3.12740787 2.0612461 4.33498308 3.35356975 5.75 6.8125 C6.3160929 12.00168491 5.70455268 15.47915607 2.75 19.8125 C-1.58334393 22.76705268 -5.06081509 23.3785929 -10.25 22.8125 C-13.70893025 21.39748308 -15.0012539 20.18990787 -17.0625 17.0625 C-18.78760637 12.34115625 -19.07550674 8.72419981 -17.0625 4.0625 C-12.34785657 -1.79016081 -6.95235198 -2.54028245 0 0 Z " transform="translate(89.25,144.1875)" style="fill: #040404;"/></svg>