<?xml version="1.0" encoding="utf-8" ?>
<svg baseProfile="full" height="500" version="1.1" viewBox="0 0 500 500" width="500" xmlns="http://www.w3.org/2000/svg" xmlns:ev="http://www.w3.org/2001/xml-events" xmlns:xlink="http://www.w3.org/1999/xlink"><defs /><path d="M 109,49 L 108,50 L 101,50 L 100,51 L 97,51 L 96,52 L 93,52 L 92,53 L 91,53 L 90,54 L 88,54 L 87,55 L 86,55 L 85,56 L 84,56 L 83,57 L 82,57 L 80,59 L 79,59 L 77,61 L 76,61 L 71,66 L 70,66 L 70,67 L 64,73 L 64,74 L 62,76 L 62,77 L 60,79 L 60,80 L 59,81 L 59,82 L 58,83 L 58,84 L 57,85 L 57,87 L 56,88 L 56,89 L 55,90 L 55,93 L 54,94 L 54,96 L 53,97 L 53,103 L 52,104 L 52,115 L 53,116 L 53,122 L 54,123 L 54,125 L 55,126 L 55,129 L 56,130 L 56,131 L 57,132 L 57,134 L 58,135 L 58,136 L 59,137 L 59,138 L 60,139 L 60,140 L 62,142 L 62,143 L 64,145 L 64,146 L 69,151 L 69,152 L 70,152 L 76,158 L 77,158 L 79,160 L 80,160 L 81,161 L 82,161 L 84,163 L 85,163 L 86,164 L 87,164 L 88,165 L 90,165 L 91,166 L 92,166 L 93,167 L 96,167 L 97,168 L 100,168 L 101,169 L 102,169 L 103,170 L 103,177 L 102,178 L 100,178 L 98,180 L 98,182 L 97,183 L 97,185 L 96,186 L 96,190 L 94,192 L 93,192 L 92,193 L 87,193 L 86,194 L 83,194 L 82,195 L 79,195 L 78,196 L 76,196 L 75,197 L 73,197 L 72,198 L 70,198 L 69,199 L 67,199 L 66,200 L 64,200 L 63,201 L 62,201 L 61,202 L 60,202 L 59,203 L 57,203 L 56,204 L 55,204 L 53,206 L 51,206 L 49,208 L 48,208 L 47,209 L 46,209 L 45,210 L 44,210 L 41,213 L 40,213 L 38,215 L 37,215 L 34,218 L 33,218 L 22,229 L 22,230 L 19,233 L 19,234 L 17,236 L 17,237 L 16,238 L 16,239 L 15,240 L 15,241 L 13,243 L 13,245 L 12,246 L 12,248 L 11,249 L 11,251 L 10,252 L 10,255 L 9,256 L 9,275 L 10,276 L 10,279 L 11,280 L 11,283 L 12,284 L 12,285 L 13,286 L 13,288 L 14,289 L 14,290 L 16,292 L 16,293 L 17,294 L 17,295 L 19,297 L 19,298 L 22,301 L 22,302 L 26,306 L 26,307 L 28,309 L 28,310 L 29,311 L 29,312 L 31,314 L 31,315 L 33,317 L 33,318 L 34,319 L 34,320 L 36,322 L 36,323 L 37,324 L 37,325 L 39,327 L 39,328 L 40,329 L 40,330 L 41,331 L 41,332 L 42,333 L 42,334 L 44,336 L 44,337 L 45,338 L 45,340 L 46,341 L 46,342 L 47,343 L 47,344 L 48,345 L 48,346 L 49,347 L 49,348 L 50,349 L 50,350 L 51,351 L 51,353 L 52,354 L 52,355 L 53,356 L 53,358 L 54,359 L 54,361 L 55,362 L 55,364 L 56,365 L 56,368 L 57,369 L 57,374 L 58,375 L 58,380 L 59,381 L 59,385 L 60,386 L 60,388 L 61,389 L 61,392 L 62,393 L 62,396 L 63,397 L 63,399 L 64,400 L 64,402 L 65,403 L 65,404 L 66,405 L 66,407 L 67,408 L 67,409 L 68,410 L 68,411 L 69,412 L 69,413 L 70,414 L 70,415 L 71,416 L 71,417 L 72,418 L 72,419 L 73,420 L 73,421 L 75,423 L 75,424 L 78,427 L 78,428 L 84,434 L 85,434 L 88,437 L 89,437 L 91,439 L 92,439 L 93,440 L 95,440 L 96,441 L 98,441 L 99,442 L 102,442 L 103,443 L 110,443 L 111,444 L 118,444 L 119,445 L 127,445 L 128,446 L 138,446 L 139,447 L 150,447 L 151,448 L 166,448 L 167,449 L 191,449 L 192,450 L 254,450 L 255,449 L 283,449 L 284,448 L 302,448 L 303,447 L 319,447 L 320,446 L 333,446 L 334,445 L 345,445 L 346,444 L 356,444 L 357,443 L 366,443 L 367,442 L 371,442 L 372,441 L 374,441 L 375,440 L 377,440 L 379,438 L 380,438 L 381,437 L 382,437 L 385,434 L 386,434 L 391,429 L 391,428 L 394,425 L 394,424 L 396,422 L 396,421 L 398,419 L 398,418 L 399,417 L 399,416 L 400,415 L 400,414 L 401,413 L 401,412 L 402,411 L 402,410 L 403,409 L 403,408 L 404,407 L 404,405 L 405,404 L 405,402 L 406,401 L 406,399 L 407,398 L 407,396 L 408,395 L 408,393 L 409,392 L 409,389 L 410,388 L 410,385 L 411,384 L 411,380 L 412,379 L 412,374 L 413,373 L 413,369 L 414,368 L 414,365 L 415,364 L 415,362 L 416,361 L 416,359 L 417,358 L 417,356 L 418,355 L 418,354 L 419,353 L 419,351 L 420,350 L 420,349 L 421,348 L 421,347 L 422,346 L 422,344 L 423,343 L 423,342 L 424,341 L 424,340 L 425,339 L 425,338 L 426,337 L 426,336 L 427,335 L 427,334 L 428,333 L 428,332 L 430,330 L 430,329 L 431,328 L 431,327 L 432,326 L 432,325 L 434,323 L 434,322 L 435,321 L 435,320 L 437,318 L 437,317 L 439,315 L 439,314 L 440,313 L 440,312 L 442,310 L 442,309 L 444,307 L 444,306 L 446,304 L 446,303 L 450,299 L 450,298 L 452,296 L 452,295 L 454,293 L 454,292 L 456,290 L 456,289 L 457,288 L 457,285 L 458,284 L 458,283 L 459,282 L 459,279 L 460,278 L 460,274 L 461,273 L 461,258 L 460,257 L 460,253 L 459,252 L 459,249 L 458,248 L 458,247 L 457,246 L 457,244 L 456,243 L 456,242 L 455,241 L 455,240 L 454,239 L 454,238 L 452,236 L 452,235 L 450,233 L 450,232 L 447,229 L 447,228 L 438,219 L 437,219 L 435,217 L 436,216 L 442,216 L 443,217 L 444,216 L 448,216 L 449,217 L 450,216 L 454,216 L 455,217 L 456,216 L 460,216 L 461,217 L 462,216 L 466,216 L 467,217 L 468,216 L 472,216 L 473,217 L 474,216 L 478,216 L 479,217 L 480,216 L 486,216 L 486,191 L 477,191 L 476,190 L 476,184 L 477,183 L 489,183 L 489,168 L 477,168 L 476,167 L 476,156 L 459,156 L 459,166 L 458,167 L 446,167 L 446,182 L 447,183 L 457,183 L 458,184 L 458,191 L 457,192 L 427,192 L 426,191 L 417,191 L 416,192 L 411,192 L 410,193 L 407,193 L 406,194 L 405,194 L 404,195 L 403,195 L 402,196 L 401,196 L 399,198 L 398,198 L 397,197 L 395,197 L 394,196 L 391,196 L 390,195 L 388,195 L 387,194 L 383,194 L 382,193 L 379,193 L 378,192 L 373,192 L 372,191 L 367,191 L 366,190 L 356,190 L 355,189 L 239,189 L 238,188 L 237,188 L 236,187 L 225,187 L 224,188 L 223,188 L 222,189 L 139,189 L 138,190 L 131,190 L 129,188 L 129,187 L 127,185 L 127,184 L 124,181 L 124,180 L 123,180 L 121,178 L 121,170 L 122,169 L 127,169 L 128,168 L 132,168 L 133,167 L 135,167 L 136,166 L 138,166 L 139,165 L 141,165 L 142,164 L 143,164 L 144,163 L 145,163 L 146,162 L 147,162 L 149,160 L 150,160 L 154,156 L 155,156 L 157,154 L 157,153 L 161,149 L 161,148 L 162,147 L 162,146 L 164,144 L 164,143 L 165,142 L 165,141 L 171,135 L 172,135 L 174,133 L 175,133 L 176,132 L 177,132 L 178,131 L 178,130 L 179,129 L 179,128 L 180,127 L 180,122 L 179,121 L 179,119 L 178,118 L 178,117 L 176,115 L 176,114 L 173,111 L 173,108 L 172,107 L 172,99 L 171,98 L 171,94 L 170,93 L 170,91 L 169,90 L 169,88 L 168,87 L 168,86 L 167,85 L 167,83 L 166,82 L 166,81 L 164,79 L 164,78 L 163,77 L 163,76 L 160,73 L 160,72 L 150,62 L 149,62 L 146,59 L 145,59 L 144,58 L 143,58 L 141,56 L 140,56 L 139,55 L 138,55 L 137,54 L 135,54 L 134,53 L 132,53 L 131,52 L 129,52 L 128,51 L 125,51 L 124,50 L 117,50 L 116,49 Z" fill="#000000" stroke="none" /><path d="M 220,226 L 219,227 L 219,228 L 218,229 L 216,229 L 215,230 L 214,230 L 211,233 L 210,233 L 210,234 L 209,235 L 207,235 L 205,237 L 204,237 L 202,239 L 201,239 L 199,241 L 198,241 L 198,242 L 197,243 L 195,243 L 193,245 L 192,245 L 189,248 L 188,248 L 186,250 L 185,250 L 183,252 L 182,252 L 180,254 L 179,254 L 177,256 L 176,256 L 174,258 L 173,258 L 172,259 L 172,261 L 179,261 L 180,260 L 181,261 L 182,260 L 183,261 L 184,260 L 185,261 L 186,260 L 187,261 L 189,261 L 190,262 L 197,262 L 198,261 L 199,262 L 200,261 L 201,262 L 201,263 L 208,263 L 209,264 L 214,264 L 214,263 L 215,262 L 216,263 L 218,261 L 219,261 L 220,260 L 221,260 L 221,259 L 222,258 L 226,258 L 227,257 L 232,257 L 233,258 L 235,258 L 236,259 L 237,258 L 239,260 L 240,260 L 241,261 L 242,261 L 243,262 L 244,262 L 245,263 L 246,263 L 247,264 L 248,264 L 249,265 L 250,265 L 252,267 L 253,267 L 256,270 L 257,270 L 260,273 L 261,273 L 263,275 L 264,274 L 265,275 L 265,276 L 267,278 L 268,278 L 270,280 L 271,280 L 272,281 L 273,281 L 274,282 L 274,283 L 275,283 L 276,282 L 277,283 L 277,285 L 278,285 L 281,288 L 282,288 L 283,289 L 284,289 L 285,290 L 285,291 L 287,291 L 288,292 L 289,292 L 290,291 L 291,291 L 292,290 L 292,289 L 293,288 L 294,289 L 295,288 L 296,288 L 296,287 L 297,286 L 299,286 L 300,285 L 302,285 L 303,286 L 303,288 L 305,290 L 303,292 L 302,292 L 300,294 L 299,294 L 297,296 L 296,296 L 295,297 L 294,297 L 293,298 L 292,298 L 291,299 L 289,299 L 288,300 L 287,300 L 286,301 L 284,301 L 283,302 L 284,302 L 287,305 L 287,306 L 288,307 L 288,311 L 284,315 L 283,315 L 283,316 L 282,317 L 281,317 L 280,318 L 279,317 L 278,318 L 277,318 L 276,319 L 274,319 L 273,320 L 270,320 L 269,321 L 267,321 L 266,322 L 264,322 L 263,323 L 262,322 L 261,322 L 259,324 L 258,323 L 255,323 L 254,324 L 247,324 L 246,325 L 245,325 L 244,326 L 243,325 L 237,325 L 236,326 L 235,325 L 232,325 L 231,326 L 223,326 L 222,327 L 221,326 L 216,326 L 215,325 L 208,325 L 207,326 L 206,325 L 203,325 L 202,326 L 201,325 L 200,326 L 199,325 L 199,324 L 197,324 L 196,325 L 195,324 L 191,324 L 190,323 L 187,323 L 186,324 L 185,323 L 185,322 L 183,322 L 182,323 L 180,321 L 177,321 L 176,320 L 175,320 L 174,321 L 172,319 L 170,319 L 169,318 L 168,318 L 167,317 L 166,317 L 165,316 L 164,316 L 163,315 L 162,315 L 160,313 L 159,313 L 158,314 L 157,313 L 156,314 L 155,313 L 152,313 L 151,314 L 150,313 L 149,314 L 148,313 L 146,313 L 145,314 L 144,313 L 143,314 L 142,314 L 141,313 L 132,313 L 131,312 L 124,312 L 123,313 L 122,312 L 119,312 L 118,311 L 117,312 L 116,311 L 115,312 L 114,311 L 113,312 L 112,311 L 111,311 L 110,310 L 108,310 L 107,311 L 106,310 L 102,310 L 101,309 L 97,309 L 96,308 L 92,308 L 91,307 L 90,308 L 89,307 L 88,307 L 87,306 L 84,306 L 83,305 L 80,305 L 79,304 L 78,305 L 77,305 L 75,303 L 72,303 L 70,301 L 69,302 L 68,301 L 66,301 L 64,299 L 63,299 L 60,296 L 59,296 L 57,294 L 56,294 L 55,293 L 55,292 L 54,292 L 53,291 L 54,290 L 53,289 L 53,285 L 54,284 L 54,283 L 61,276 L 62,276 L 63,275 L 64,275 L 65,274 L 66,274 L 67,273 L 69,273 L 70,272 L 71,272 L 71,271 L 72,270 L 73,271 L 74,270 L 77,270 L 78,269 L 81,269 L 82,268 L 85,268 L 86,267 L 89,267 L 90,266 L 91,266 L 91,265 L 92,264 L 92,246 L 91,245 L 92,244 L 92,238 L 91,237 L 92,236 L 92,229 L 91,229 L 90,230 L 88,230 L 87,231 L 85,231 L 84,232 L 81,232 L 79,234 L 78,233 L 77,234 L 75,234 L 74,235 L 72,235 L 71,236 L 69,236 L 69,237 L 68,238 L 67,237 L 66,238 L 64,238 L 63,239 L 62,239 L 61,240 L 60,240 L 59,241 L 58,241 L 57,242 L 56,242 L 55,243 L 54,243 L 53,244 L 52,244 L 50,246 L 49,246 L 46,249 L 44,249 L 40,253 L 39,253 L 31,261 L 31,262 L 30,263 L 29,263 L 29,264 L 26,267 L 26,268 L 24,270 L 24,271 L 23,272 L 23,273 L 22,274 L 22,275 L 21,276 L 21,277 L 20,278 L 22,280 L 21,281 L 22,282 L 22,283 L 23,284 L 23,285 L 24,285 L 25,286 L 25,288 L 29,292 L 29,293 L 30,294 L 30,295 L 32,297 L 32,298 L 39,305 L 40,305 L 43,308 L 44,308 L 45,309 L 46,309 L 49,312 L 50,311 L 51,312 L 51,313 L 52,314 L 53,314 L 54,315 L 56,315 L 58,317 L 59,316 L 60,317 L 60,318 L 61,318 L 62,319 L 63,319 L 64,320 L 65,320 L 66,321 L 68,321 L 69,322 L 70,322 L 71,323 L 73,323 L 74,324 L 76,324 L 77,325 L 81,325 L 82,326 L 83,326 L 84,327 L 88,327 L 89,328 L 91,328 L 92,329 L 95,329 L 96,328 L 98,330 L 103,330 L 104,331 L 113,331 L 114,332 L 115,332 L 116,331 L 117,332 L 118,331 L 119,332 L 120,331 L 121,332 L 122,331 L 123,332 L 124,331 L 125,332 L 126,331 L 127,332 L 128,331 L 129,332 L 153,332 L 154,331 L 155,332 L 156,331 L 157,332 L 158,331 L 159,332 L 192,332 L 193,331 L 194,332 L 199,332 L 200,331 L 201,332 L 221,332 L 222,331 L 223,332 L 251,332 L 252,331 L 253,332 L 282,332 L 283,331 L 284,332 L 355,332 L 356,331 L 366,331 L 366,330 L 367,329 L 368,330 L 372,330 L 373,329 L 377,329 L 378,328 L 382,328 L 383,327 L 386,327 L 387,326 L 389,326 L 391,324 L 392,325 L 393,325 L 394,324 L 396,324 L 397,323 L 398,323 L 399,322 L 401,322 L 402,321 L 403,321 L 403,320 L 404,319 L 405,320 L 406,320 L 407,319 L 408,319 L 409,318 L 410,318 L 410,317 L 411,316 L 412,317 L 413,316 L 414,316 L 415,315 L 416,315 L 419,312 L 421,312 L 423,310 L 424,310 L 427,307 L 428,307 L 429,306 L 429,305 L 430,304 L 431,304 L 431,303 L 432,302 L 434,302 L 437,299 L 437,297 L 438,296 L 439,296 L 440,295 L 440,293 L 441,292 L 442,292 L 442,291 L 445,288 L 445,287 L 446,286 L 446,285 L 447,284 L 447,283 L 448,282 L 448,281 L 449,280 L 449,276 L 448,275 L 448,274 L 447,273 L 447,272 L 446,272 L 445,271 L 446,270 L 445,270 L 444,269 L 444,267 L 441,264 L 441,263 L 432,254 L 431,254 L 427,250 L 426,250 L 424,248 L 423,248 L 421,246 L 420,246 L 419,245 L 418,245 L 416,243 L 415,243 L 414,242 L 413,242 L 412,241 L 411,241 L 410,240 L 409,240 L 408,239 L 407,239 L 406,238 L 405,238 L 404,239 L 403,238 L 403,237 L 402,237 L 401,236 L 399,236 L 398,235 L 396,235 L 395,234 L 393,234 L 392,233 L 390,233 L 389,232 L 386,232 L 385,231 L 383,231 L 382,232 L 381,231 L 381,230 L 377,230 L 376,229 L 372,229 L 371,228 L 365,228 L 364,227 L 355,227 L 354,228 L 352,226 Z" fill="#30a8d8" stroke="none" /><path d="M 157,226 L 158,227 L 158,228 L 160,230 L 160,231 L 161,231 L 162,232 L 162,234 L 165,237 L 165,238 L 166,239 L 167,238 L 168,238 L 170,236 L 171,236 L 173,234 L 174,234 L 176,232 L 177,232 L 177,231 L 178,230 L 180,230 L 182,228 L 183,228 L 185,226 Z" fill="#30a8d8" stroke="none" /><path d="M 129,225 L 129,229 L 130,230 L 129,231 L 129,235 L 130,236 L 129,237 L 129,253 L 130,254 L 129,255 L 129,261 L 132,261 L 133,260 L 134,261 L 143,261 L 144,260 L 156,260 L 156,259 L 154,257 L 154,256 L 152,254 L 152,253 L 149,250 L 149,249 L 147,247 L 147,246 L 145,244 L 145,243 L 142,240 L 142,239 L 140,237 L 140,236 L 138,234 L 138,233 L 135,230 L 135,229 L 133,227 L 133,226 L 132,225 Z" fill="#30a8d8" stroke="none" /><path d="M 466,164 L 466,173 L 465,174 L 454,174 L 454,175 L 464,175 L 465,176 L 465,181 L 466,182 L 466,183 L 465,184 L 466,185 L 466,197 L 464,199 L 412,199 L 411,200 L 409,200 L 408,201 L 407,201 L 406,202 L 405,202 L 401,206 L 401,210 L 400,211 L 400,226 L 414,226 L 414,209 L 415,208 L 479,208 L 479,198 L 470,198 L 469,197 L 469,177 L 470,176 L 482,176 L 482,175 L 470,175 L 469,174 L 469,164 Z" fill="#c0c0c0" stroke="none" /><path d="M 48,324 L 50,326 L 50,327 L 51,328 L 51,329 L 52,330 L 52,331 L 53,332 L 53,333 L 54,334 L 54,335 L 55,336 L 55,337 L 56,338 L 56,339 L 57,340 L 57,341 L 58,342 L 58,344 L 59,345 L 59,346 L 60,347 L 60,348 L 61,349 L 61,351 L 62,352 L 62,353 L 63,354 L 63,356 L 64,357 L 64,359 L 65,360 L 65,363 L 66,364 L 66,367 L 67,368 L 67,373 L 68,374 L 68,379 L 69,380 L 69,383 L 70,384 L 70,387 L 71,388 L 71,391 L 72,392 L 72,394 L 73,395 L 73,397 L 74,398 L 74,400 L 75,401 L 75,402 L 76,403 L 76,405 L 77,406 L 77,407 L 78,408 L 78,409 L 79,410 L 79,411 L 80,412 L 80,413 L 82,415 L 82,416 L 84,418 L 84,419 L 87,422 L 87,423 L 89,425 L 90,425 L 94,429 L 95,429 L 96,430 L 97,430 L 98,431 L 99,431 L 100,432 L 103,432 L 104,433 L 110,433 L 111,434 L 118,434 L 119,435 L 127,435 L 128,436 L 137,436 L 138,437 L 150,437 L 151,438 L 166,438 L 167,439 L 190,439 L 191,440 L 254,440 L 255,439 L 283,439 L 284,438 L 302,438 L 303,437 L 318,437 L 319,436 L 332,436 L 333,435 L 344,435 L 345,434 L 355,434 L 356,433 L 365,433 L 366,432 L 370,432 L 371,431 L 372,431 L 373,430 L 374,430 L 375,429 L 376,429 L 386,419 L 386,418 L 388,416 L 388,415 L 389,414 L 389,413 L 391,411 L 391,410 L 392,409 L 392,408 L 393,407 L 393,405 L 394,404 L 394,403 L 395,402 L 395,401 L 396,400 L 396,398 L 397,397 L 397,395 L 398,394 L 398,391 L 399,390 L 399,388 L 400,387 L 400,384 L 401,383 L 401,379 L 402,378 L 402,373 L 403,372 L 403,368 L 404,367 L 404,364 L 405,363 L 405,360 L 406,359 L 406,357 L 407,356 L 407,354 L 408,353 L 408,352 L 409,351 L 409,349 L 410,348 L 410,347 L 411,346 L 411,344 L 412,343 L 412,342 L 413,341 L 413,340 L 414,339 L 414,338 L 415,337 L 415,336 L 416,335 L 416,334 L 417,333 L 417,332 L 418,331 L 418,330 L 419,329 L 419,328 L 420,327 L 420,326 L 421,325 L 421,324 L 420,325 L 419,325 L 418,326 L 417,326 L 416,327 L 415,327 L 414,328 L 413,328 L 412,329 L 411,329 L 410,330 L 409,330 L 408,331 L 406,331 L 405,332 L 404,332 L 403,333 L 401,333 L 400,334 L 398,334 L 397,335 L 395,335 L 394,336 L 391,336 L 390,337 L 388,337 L 387,338 L 384,338 L 383,339 L 379,339 L 378,340 L 374,340 L 373,341 L 367,341 L 366,342 L 356,342 L 355,343 L 115,343 L 114,342 L 104,342 L 103,341 L 97,341 L 96,340 L 92,340 L 91,339 L 87,339 L 86,338 L 83,338 L 82,337 L 79,337 L 78,336 L 76,336 L 75,335 L 73,335 L 72,334 L 70,334 L 69,333 L 67,333 L 66,332 L 65,332 L 64,331 L 62,331 L 61,330 L 60,330 L 59,329 L 58,329 L 57,328 L 55,328 L 54,327 L 53,327 L 51,325 L 50,325 L 49,324 Z" fill="#f0f0f0" stroke="none" /><path d="M 232,282 L 231,283 L 230,283 L 229,284 L 228,284 L 227,285 L 226,285 L 224,287 L 223,287 L 222,288 L 221,288 L 220,289 L 219,289 L 218,290 L 217,290 L 216,291 L 215,291 L 216,292 L 218,292 L 219,293 L 222,293 L 223,294 L 225,294 L 226,295 L 228,295 L 229,296 L 231,296 L 232,297 L 234,297 L 235,298 L 239,298 L 240,299 L 246,299 L 247,300 L 259,300 L 258,299 L 257,299 L 255,297 L 254,297 L 252,295 L 251,295 L 249,293 L 248,293 L 246,291 L 245,291 L 243,289 L 242,289 L 240,287 L 239,287 L 237,285 L 236,285 L 234,283 L 233,283 Z" fill="#f0f0f0" stroke="none" /><path d="M 139,262 L 138,263 L 129,263 L 129,277 L 130,278 L 130,292 L 129,293 L 129,294 L 128,295 L 127,295 L 126,296 L 125,296 L 124,297 L 119,297 L 118,298 L 105,298 L 104,297 L 98,297 L 97,296 L 95,296 L 91,292 L 91,268 L 90,268 L 89,269 L 85,269 L 84,270 L 82,270 L 81,271 L 78,271 L 77,272 L 75,272 L 74,273 L 72,273 L 71,274 L 70,274 L 69,275 L 67,275 L 66,276 L 65,276 L 64,277 L 63,277 L 61,279 L 60,279 L 56,283 L 56,284 L 55,285 L 55,288 L 56,289 L 56,290 L 57,291 L 57,292 L 59,294 L 60,294 L 62,296 L 63,296 L 64,297 L 65,297 L 66,298 L 67,298 L 68,299 L 69,299 L 70,300 L 72,300 L 73,301 L 75,301 L 76,302 L 78,302 L 79,303 L 82,303 L 83,304 L 86,304 L 87,305 L 90,305 L 91,306 L 96,306 L 97,307 L 102,307 L 103,308 L 108,308 L 109,309 L 117,309 L 118,310 L 128,310 L 129,311 L 152,311 L 153,312 L 154,311 L 155,312 L 156,311 L 157,312 L 158,311 L 159,312 L 160,311 L 162,313 L 163,313 L 165,315 L 166,315 L 167,316 L 169,316 L 170,317 L 172,317 L 173,318 L 175,318 L 176,319 L 179,319 L 180,320 L 184,320 L 185,321 L 190,321 L 191,322 L 197,322 L 198,323 L 210,323 L 211,324 L 235,324 L 236,323 L 248,323 L 249,322 L 256,322 L 257,321 L 262,321 L 263,320 L 266,320 L 267,319 L 270,319 L 271,318 L 273,318 L 274,317 L 276,317 L 277,316 L 279,316 L 281,314 L 282,314 L 284,312 L 285,312 L 285,311 L 286,310 L 286,307 L 282,303 L 278,303 L 277,304 L 275,304 L 274,305 L 270,305 L 269,306 L 264,306 L 263,307 L 244,307 L 243,306 L 238,306 L 237,305 L 233,305 L 232,304 L 230,304 L 229,303 L 227,303 L 226,302 L 224,302 L 223,301 L 221,301 L 220,300 L 217,300 L 216,299 L 213,299 L 212,298 L 209,298 L 208,297 L 203,297 L 202,296 L 178,296 L 177,297 L 173,297 L 172,298 L 169,298 L 168,299 L 167,299 L 166,300 L 165,300 L 163,298 L 163,297 L 161,295 L 163,293 L 164,293 L 165,292 L 166,292 L 167,291 L 170,291 L 171,290 L 173,290 L 174,289 L 175,289 L 177,287 L 178,287 L 180,285 L 181,285 L 183,283 L 184,283 L 186,281 L 187,281 L 188,280 L 189,280 L 191,278 L 192,278 L 194,276 L 195,276 L 197,274 L 198,274 L 199,273 L 200,273 L 202,271 L 203,271 L 205,269 L 206,269 L 208,267 L 209,267 L 210,266 L 211,266 L 210,266 L 209,265 L 202,265 L 201,264 L 192,264 L 191,263 L 178,263 L 177,262 L 176,263 L 175,262 L 167,262 L 164,265 L 163,265 L 162,266 L 161,266 L 159,264 L 159,263 L 158,262 Z" fill="#f0f0f0" stroke="none" /><path d="M 422,220 L 422,233 L 421,234 L 415,234 L 416,234 L 417,235 L 418,235 L 419,236 L 420,236 L 421,237 L 422,237 L 424,239 L 425,239 L 427,241 L 428,241 L 430,243 L 431,243 L 434,246 L 435,246 L 448,259 L 448,260 L 451,263 L 451,264 L 451,258 L 450,257 L 450,254 L 449,253 L 449,251 L 448,250 L 448,249 L 447,248 L 447,246 L 445,244 L 445,243 L 444,242 L 444,241 L 442,239 L 442,238 L 439,235 L 439,234 L 432,227 L 431,227 L 427,223 L 426,223 L 424,221 L 423,221 Z" fill="#f0f0f0" stroke="none" /><path d="M 93,202 L 92,203 L 88,203 L 87,204 L 84,204 L 83,205 L 81,205 L 80,206 L 77,206 L 76,207 L 74,207 L 73,208 L 71,208 L 70,209 L 69,209 L 68,210 L 66,210 L 65,211 L 64,211 L 63,212 L 62,212 L 61,213 L 60,213 L 59,214 L 58,214 L 57,215 L 56,215 L 55,216 L 54,216 L 53,217 L 52,217 L 50,219 L 49,219 L 47,221 L 46,221 L 44,223 L 43,223 L 40,226 L 39,226 L 30,235 L 30,236 L 27,239 L 27,240 L 25,242 L 25,243 L 24,244 L 24,245 L 23,246 L 23,247 L 22,248 L 22,249 L 21,250 L 21,252 L 20,253 L 20,256 L 19,257 L 19,264 L 18,265 L 19,264 L 19,263 L 21,261 L 21,260 L 35,246 L 36,246 L 40,242 L 41,242 L 43,240 L 44,240 L 45,239 L 46,239 L 48,237 L 49,237 L 50,236 L 51,236 L 52,235 L 53,235 L 54,234 L 55,234 L 56,233 L 57,233 L 58,232 L 59,232 L 60,231 L 61,231 L 62,230 L 64,230 L 65,229 L 66,229 L 67,228 L 69,228 L 70,227 L 72,227 L 73,226 L 75,226 L 76,225 L 78,225 L 79,224 L 82,224 L 83,223 L 85,223 L 86,222 L 89,222 L 90,221 L 93,221 Z" fill="#f0f0f0" stroke="none" /><path d="M 245,199 L 245,201 L 244,202 L 244,205 L 243,206 L 243,207 L 241,209 L 241,210 L 234,217 L 233,217 L 232,218 L 355,218 L 356,219 L 366,219 L 367,220 L 373,220 L 374,221 L 378,221 L 379,222 L 383,222 L 384,223 L 387,223 L 388,224 L 390,224 L 391,225 L 392,225 L 392,209 L 393,208 L 393,207 L 392,206 L 390,206 L 389,205 L 386,205 L 385,204 L 382,204 L 381,203 L 378,203 L 377,202 L 373,202 L 372,201 L 366,201 L 365,200 L 356,200 L 355,199 Z" fill="#f0f0f0" stroke="none" /><path d="M 139,199 L 139,201 L 141,203 L 141,204 L 144,207 L 144,208 L 146,210 L 146,211 L 148,213 L 148,214 L 151,217 L 153,217 L 154,218 L 197,218 L 198,217 L 199,217 L 201,215 L 202,215 L 204,213 L 205,213 L 207,211 L 208,211 L 208,208 L 209,207 L 209,205 L 210,204 L 210,203 L 211,202 L 211,200 L 212,199 Z" fill="#f0f0f0" stroke="none" /><path d="M 227,197 L 223,201 L 223,202 L 222,203 L 222,204 L 221,205 L 221,206 L 220,207 L 220,209 L 219,210 L 224,210 L 225,209 L 226,209 L 227,208 L 228,208 L 232,204 L 232,203 L 233,202 L 233,201 L 234,200 L 234,197 Z" fill="#f0f0f0" stroke="none" /><path d="M 107,61 L 106,62 L 101,62 L 100,63 L 98,63 L 97,64 L 95,64 L 94,65 L 93,65 L 92,66 L 91,66 L 90,67 L 89,67 L 88,68 L 87,68 L 86,69 L 85,69 L 81,73 L 80,73 L 76,77 L 76,78 L 72,82 L 72,83 L 71,84 L 71,85 L 70,86 L 70,87 L 69,88 L 69,89 L 68,90 L 68,91 L 67,92 L 67,94 L 66,95 L 66,97 L 65,98 L 65,102 L 64,103 L 64,116 L 65,117 L 65,121 L 66,122 L 66,124 L 67,125 L 67,127 L 68,128 L 68,129 L 69,130 L 69,132 L 71,134 L 71,135 L 72,136 L 72,137 L 76,141 L 76,142 L 80,146 L 81,146 L 84,149 L 85,149 L 87,151 L 88,151 L 89,152 L 90,152 L 91,153 L 92,153 L 93,154 L 94,154 L 95,155 L 97,155 L 98,156 L 100,156 L 101,157 L 106,157 L 107,158 L 120,158 L 121,157 L 127,157 L 128,156 L 131,156 L 132,155 L 134,155 L 135,154 L 136,154 L 137,153 L 139,153 L 141,151 L 142,151 L 144,149 L 145,149 L 149,145 L 149,144 L 152,141 L 152,140 L 153,139 L 153,138 L 154,137 L 154,136 L 155,135 L 155,134 L 162,127 L 163,127 L 166,124 L 167,124 L 167,122 L 165,120 L 165,119 L 161,115 L 161,105 L 160,104 L 160,99 L 159,98 L 159,95 L 158,94 L 158,92 L 157,91 L 157,90 L 156,89 L 156,88 L 155,87 L 155,86 L 154,85 L 154,84 L 152,82 L 152,81 L 147,76 L 147,75 L 146,75 L 141,70 L 140,70 L 138,68 L 137,68 L 136,67 L 135,67 L 134,66 L 133,66 L 132,65 L 131,65 L 130,64 L 128,64 L 127,63 L 124,63 L 123,62 L 119,62 L 118,61 Z" fill="#f0f0f0" stroke="none" /></svg>