<?xml version="1.0" encoding="utf-8" ?>
<svg baseProfile="full" height="500" version="1.1" viewBox="0 0 500 500" width="500" xmlns="http://www.w3.org/2000/svg" xmlns:ev="http://www.w3.org/2001/xml-events" xmlns:xlink="http://www.w3.org/1999/xlink"><defs /><path d="M 29,88 L 28,89 L 28,90 L 27,91 L 27,361 L 28,362 L 28,363 L 29,364 L 220,364 L 221,365 L 221,380 L 220,381 L 218,381 L 217,382 L 214,382 L 213,383 L 209,383 L 208,384 L 205,384 L 204,385 L 200,385 L 199,386 L 195,386 L 194,387 L 191,387 L 190,388 L 186,388 L 185,389 L 181,389 L 180,390 L 177,390 L 176,391 L 172,391 L 171,392 L 168,392 L 167,393 L 163,393 L 162,394 L 158,394 L 157,395 L 154,395 L 153,396 L 149,396 L 148,397 L 144,397 L 143,398 L 140,398 L 139,399 L 135,399 L 134,400 L 130,400 L 129,401 L 126,401 L 125,402 L 121,402 L 120,403 L 119,403 L 117,405 L 117,409 L 119,411 L 380,411 L 382,409 L 382,405 L 380,403 L 379,403 L 378,402 L 374,402 L 373,401 L 370,401 L 369,400 L 365,400 L 364,399 L 360,399 L 359,398 L 356,398 L 355,397 L 351,397 L 350,396 L 347,396 L 346,395 L 342,395 L 341,394 L 337,394 L 336,393 L 333,393 L 332,392 L 328,392 L 327,391 L 323,391 L 322,390 L 319,390 L 318,389 L 314,389 L 313,388 L 309,388 L 308,387 L 305,387 L 304,386 L 300,386 L 299,385 L 296,385 L 295,384 L 291,384 L 290,383 L 286,383 L 285,382 L 282,382 L 281,381 L 279,381 L 278,380 L 278,365 L 279,364 L 470,364 L 471,363 L 471,362 L 472,361 L 472,91 L 471,90 L 471,89 L 470,88 Z" fill="#000000" stroke="none" /><path d="M 63,121 L 63,331 L 436,331 L 436,121 Z" fill="#303030" stroke="none" /><path d="M 223,390 L 222,391 L 219,391 L 218,392 L 214,392 L 213,393 L 209,393 L 208,394 L 205,394 L 204,395 L 200,395 L 199,396 L 195,396 L 194,397 L 191,397 L 190,398 L 186,398 L 185,399 L 181,399 L 180,400 L 177,400 L 176,401 L 172,401 L 171,402 L 168,402 L 331,402 L 328,402 L 327,401 L 323,401 L 322,400 L 319,400 L 318,399 L 314,399 L 313,398 L 310,398 L 309,397 L 305,397 L 304,396 L 300,396 L 299,395 L 296,395 L 295,394 L 291,394 L 290,393 L 286,393 L 285,392 L 282,392 L 281,391 L 277,391 L 276,390 Z" fill="#606060" stroke="none" /><path d="M 231,367 L 231,380 L 232,379 L 234,379 L 235,380 L 236,379 L 238,379 L 239,380 L 240,379 L 242,379 L 243,380 L 244,379 L 246,379 L 247,380 L 248,379 L 250,379 L 251,380 L 252,379 L 254,379 L 255,380 L 256,379 L 258,379 L 259,380 L 260,379 L 261,379 L 262,380 L 263,379 L 264,379 L 265,380 L 266,379 L 267,379 L 268,380 L 268,367 Z" fill="#606060" stroke="none" /><path d="M 37,97 L 37,355 L 462,355 L 462,97 Z" fill="#606060" stroke="none" /><path d="M 436,345 L 434,347 L 434,348 L 435,349 L 435,350 L 439,350 L 439,349 L 440,348 L 440,347 L 438,345 Z" fill="#c03000" stroke="none" /></svg>