<?xml version="1.0" encoding="utf-8" ?>
<svg baseProfile="full" height="500" version="1.1" viewBox="0 0 500 500" width="500" xmlns="http://www.w3.org/2000/svg" xmlns:ev="http://www.w3.org/2001/xml-events" xmlns:xlink="http://www.w3.org/1999/xlink"><defs /><path d="M 236,77 L 235,78 L 229,78 L 228,79 L 224,79 L 223,80 L 220,80 L 219,81 L 216,81 L 215,82 L 213,82 L 212,83 L 210,83 L 209,84 L 207,84 L 206,85 L 205,85 L 204,86 L 202,86 L 201,87 L 200,87 L 199,88 L 198,88 L 197,89 L 196,89 L 195,90 L 194,90 L 193,91 L 192,91 L 191,92 L 190,92 L 188,94 L 187,94 L 186,95 L 185,95 L 183,97 L 182,97 L 180,99 L 179,99 L 177,101 L 176,101 L 172,105 L 171,105 L 166,110 L 165,110 L 154,121 L 154,122 L 148,128 L 148,129 L 144,133 L 144,134 L 143,135 L 142,135 L 142,137 L 140,139 L 140,140 L 138,142 L 138,143 L 136,145 L 136,146 L 135,147 L 135,148 L 133,150 L 133,151 L 132,152 L 132,153 L 130,155 L 130,157 L 128,159 L 128,161 L 126,163 L 126,165 L 125,166 L 125,167 L 123,169 L 124,170 L 123,171 L 123,173 L 121,175 L 121,178 L 120,179 L 120,181 L 119,182 L 119,184 L 118,185 L 118,187 L 117,188 L 117,190 L 116,191 L 116,193 L 115,194 L 115,197 L 114,198 L 114,201 L 113,202 L 113,204 L 112,205 L 112,211 L 111,212 L 111,217 L 110,218 L 110,220 L 109,221 L 110,222 L 110,224 L 109,225 L 109,230 L 108,231 L 109,232 L 109,236 L 108,237 L 108,242 L 106,244 L 105,244 L 104,245 L 103,245 L 101,247 L 100,247 L 97,250 L 97,251 L 95,253 L 95,254 L 94,255 L 93,255 L 94,256 L 93,257 L 93,259 L 92,260 L 92,262 L 91,263 L 91,266 L 90,267 L 91,268 L 90,269 L 91,270 L 90,271 L 91,272 L 91,277 L 92,278 L 92,281 L 93,282 L 92,283 L 95,286 L 95,287 L 96,288 L 96,289 L 97,290 L 97,291 L 98,291 L 103,296 L 104,296 L 105,297 L 107,297 L 108,298 L 110,298 L 111,299 L 113,299 L 114,300 L 114,301 L 115,302 L 115,304 L 116,305 L 116,309 L 117,310 L 117,311 L 118,312 L 118,314 L 119,315 L 119,317 L 120,318 L 119,319 L 121,321 L 121,323 L 122,324 L 122,325 L 123,326 L 123,328 L 124,329 L 124,331 L 126,333 L 126,335 L 127,336 L 127,337 L 128,338 L 128,339 L 129,340 L 129,341 L 130,342 L 130,343 L 131,344 L 131,345 L 133,347 L 133,348 L 134,349 L 134,350 L 135,351 L 135,352 L 137,354 L 137,355 L 138,356 L 138,357 L 141,360 L 140,361 L 141,361 L 143,363 L 143,364 L 146,367 L 146,368 L 149,371 L 149,372 L 157,380 L 157,381 L 162,386 L 163,386 L 165,388 L 164,389 L 166,389 L 167,390 L 167,391 L 168,391 L 169,392 L 169,393 L 171,393 L 175,397 L 176,397 L 178,399 L 179,399 L 181,401 L 182,401 L 185,404 L 186,404 L 188,406 L 190,406 L 191,407 L 192,407 L 193,408 L 193,409 L 196,409 L 197,410 L 196,411 L 197,410 L 198,410 L 199,411 L 200,411 L 202,413 L 205,413 L 206,414 L 207,414 L 208,415 L 210,415 L 212,417 L 213,416 L 214,417 L 216,417 L 217,418 L 219,418 L 221,420 L 222,419 L 224,419 L 225,420 L 226,420 L 227,421 L 228,421 L 229,420 L 230,421 L 232,421 L 233,422 L 234,421 L 236,421 L 237,422 L 241,422 L 242,423 L 243,422 L 248,422 L 249,423 L 250,422 L 251,422 L 252,423 L 253,423 L 254,422 L 256,422 L 257,423 L 258,422 L 262,422 L 263,421 L 265,421 L 266,422 L 268,422 L 270,420 L 271,421 L 272,420 L 274,420 L 275,419 L 278,419 L 279,418 L 282,418 L 283,417 L 284,417 L 285,418 L 285,417 L 286,416 L 289,416 L 290,415 L 291,415 L 292,414 L 293,414 L 294,413 L 296,413 L 297,412 L 298,412 L 299,411 L 300,411 L 301,410 L 302,410 L 303,409 L 304,409 L 305,408 L 306,408 L 307,407 L 308,407 L 309,406 L 310,406 L 311,405 L 313,405 L 313,404 L 314,403 L 315,403 L 317,401 L 318,401 L 319,400 L 320,400 L 321,399 L 322,399 L 322,398 L 323,397 L 325,397 L 325,396 L 327,394 L 328,394 L 330,392 L 331,392 L 331,391 L 334,388 L 335,388 L 339,384 L 340,384 L 340,383 L 344,379 L 344,378 L 351,371 L 351,370 L 353,368 L 354,368 L 353,367 L 356,364 L 356,363 L 359,360 L 359,359 L 360,358 L 361,358 L 360,357 L 361,356 L 362,356 L 362,354 L 364,352 L 364,351 L 365,350 L 366,350 L 365,349 L 366,348 L 366,347 L 368,345 L 368,344 L 369,343 L 369,342 L 370,341 L 370,340 L 372,338 L 372,336 L 374,334 L 373,333 L 374,332 L 374,331 L 375,330 L 376,330 L 375,329 L 376,328 L 376,327 L 377,326 L 377,324 L 378,323 L 378,321 L 379,320 L 379,318 L 381,316 L 381,312 L 383,310 L 382,309 L 383,308 L 383,306 L 384,305 L 384,302 L 385,301 L 389,301 L 390,300 L 392,300 L 394,298 L 396,298 L 396,297 L 397,296 L 398,296 L 402,292 L 402,291 L 404,289 L 404,288 L 405,287 L 405,286 L 406,285 L 406,284 L 408,282 L 407,281 L 407,280 L 408,279 L 408,271 L 409,270 L 408,269 L 409,268 L 408,267 L 408,265 L 409,264 L 407,262 L 407,260 L 406,259 L 406,258 L 405,257 L 405,256 L 403,254 L 403,252 L 402,252 L 397,247 L 396,247 L 395,246 L 393,246 L 391,244 L 391,239 L 392,238 L 391,237 L 391,235 L 390,234 L 390,231 L 391,230 L 390,229 L 390,225 L 389,224 L 389,218 L 388,217 L 388,212 L 387,211 L 387,207 L 386,206 L 386,203 L 387,202 L 386,202 L 385,201 L 385,198 L 384,197 L 384,194 L 383,193 L 383,191 L 382,190 L 382,187 L 381,186 L 381,184 L 380,183 L 380,181 L 379,180 L 379,178 L 378,177 L 378,176 L 377,175 L 377,172 L 375,170 L 375,168 L 374,167 L 374,166 L 373,165 L 373,164 L 372,163 L 372,162 L 371,161 L 371,160 L 370,159 L 370,158 L 369,157 L 369,156 L 368,155 L 369,154 L 368,154 L 367,153 L 367,152 L 366,151 L 366,150 L 364,148 L 364,147 L 363,146 L 363,145 L 361,143 L 361,142 L 359,140 L 359,139 L 357,137 L 357,136 L 356,135 L 356,134 L 355,133 L 355,132 L 354,132 L 352,130 L 352,129 L 348,125 L 348,124 L 333,109 L 332,109 L 328,105 L 327,105 L 323,101 L 322,101 L 320,99 L 319,99 L 317,97 L 316,97 L 314,95 L 313,95 L 312,94 L 311,94 L 309,92 L 308,92 L 307,91 L 306,91 L 305,90 L 304,90 L 303,89 L 302,89 L 301,88 L 300,88 L 299,87 L 298,87 L 297,86 L 295,86 L 294,85 L 292,85 L 291,84 L 290,84 L 289,83 L 287,83 L 286,82 L 284,82 L 283,81 L 280,81 L 279,80 L 276,80 L 275,79 L 271,79 L 270,78 L 264,78 L 263,77 Z" fill="#000000" stroke="none" /><path d="M 392,254 L 392,270 L 391,271 L 391,280 L 390,281 L 390,286 L 389,287 L 389,292 L 391,290 L 392,290 L 396,286 L 396,285 L 397,284 L 397,283 L 398,282 L 398,281 L 399,280 L 399,278 L 400,277 L 400,266 L 399,265 L 399,263 L 398,262 L 398,261 L 397,260 L 397,259 L 395,257 L 395,256 L 394,255 L 393,255 Z" fill="#f0d8d8" stroke="none" /><path d="M 106,253 L 103,256 L 103,257 L 101,259 L 101,261 L 100,262 L 100,264 L 99,265 L 99,275 L 100,276 L 100,278 L 101,279 L 101,281 L 103,283 L 103,284 L 108,289 L 109,289 L 110,290 L 111,290 L 111,288 L 110,287 L 110,283 L 109,282 L 109,277 L 108,276 L 108,269 L 107,268 L 107,253 Z" fill="#f0d8d8" stroke="none" /><path d="M 239,85 L 238,86 L 231,86 L 230,87 L 226,87 L 225,88 L 222,88 L 221,89 L 219,89 L 218,90 L 215,90 L 214,91 L 212,91 L 211,92 L 210,92 L 209,93 L 207,93 L 206,94 L 205,94 L 204,95 L 203,95 L 202,96 L 201,96 L 200,97 L 198,97 L 196,99 L 195,99 L 194,100 L 193,100 L 192,101 L 191,101 L 189,103 L 188,103 L 186,105 L 185,105 L 183,107 L 182,107 L 179,110 L 178,110 L 173,115 L 172,115 L 159,128 L 159,129 L 154,134 L 154,135 L 150,139 L 150,140 L 148,142 L 148,143 L 146,145 L 146,146 L 144,148 L 144,149 L 142,151 L 142,152 L 141,153 L 141,154 L 140,155 L 140,156 L 139,157 L 139,158 L 137,160 L 137,161 L 136,162 L 136,163 L 135,164 L 135,166 L 134,167 L 134,168 L 133,169 L 133,170 L 132,171 L 132,172 L 131,173 L 131,175 L 130,176 L 130,177 L 129,178 L 129,180 L 128,181 L 128,183 L 127,184 L 127,186 L 126,187 L 126,189 L 125,190 L 125,192 L 124,193 L 124,195 L 123,196 L 123,199 L 122,200 L 122,203 L 121,204 L 121,207 L 120,208 L 120,213 L 119,214 L 119,219 L 118,220 L 118,227 L 117,228 L 117,240 L 116,241 L 116,258 L 117,259 L 117,271 L 118,272 L 118,279 L 119,280 L 119,285 L 120,286 L 120,290 L 121,291 L 121,295 L 122,296 L 122,299 L 123,300 L 123,302 L 124,303 L 124,306 L 125,307 L 125,309 L 126,310 L 126,312 L 127,313 L 127,315 L 128,316 L 128,318 L 129,319 L 129,320 L 130,321 L 130,323 L 131,324 L 131,325 L 132,326 L 132,328 L 133,329 L 133,330 L 134,331 L 134,332 L 135,333 L 135,334 L 136,335 L 136,336 L 137,337 L 137,338 L 138,339 L 138,340 L 139,341 L 139,342 L 140,343 L 140,344 L 142,346 L 142,347 L 143,348 L 143,349 L 145,351 L 145,352 L 147,354 L 147,355 L 149,357 L 149,358 L 152,361 L 152,362 L 155,365 L 155,366 L 161,372 L 161,373 L 170,382 L 171,382 L 177,388 L 178,388 L 181,391 L 182,391 L 184,393 L 185,393 L 187,395 L 188,395 L 190,397 L 191,397 L 192,398 L 193,398 L 194,399 L 195,399 L 197,401 L 198,401 L 199,402 L 200,402 L 201,403 L 202,403 L 203,404 L 204,404 L 205,405 L 207,405 L 208,406 L 209,406 L 210,407 L 212,407 L 213,408 L 215,408 L 216,409 L 218,409 L 219,410 L 222,410 L 223,411 L 226,411 L 227,412 L 231,412 L 232,413 L 239,413 L 240,414 L 259,414 L 260,413 L 267,413 L 268,412 L 272,412 L 273,411 L 277,411 L 278,410 L 280,410 L 281,409 L 283,409 L 284,408 L 286,408 L 287,407 L 289,407 L 290,406 L 291,406 L 292,405 L 293,405 L 294,404 L 296,404 L 297,403 L 298,403 L 299,402 L 300,402 L 301,401 L 302,401 L 304,399 L 305,399 L 306,398 L 307,398 L 308,397 L 309,397 L 311,395 L 312,395 L 314,393 L 315,393 L 317,391 L 318,391 L 321,388 L 322,388 L 327,383 L 328,383 L 339,372 L 339,371 L 344,366 L 344,365 L 348,361 L 348,360 L 350,358 L 350,357 L 352,355 L 352,354 L 354,352 L 354,351 L 356,349 L 356,348 L 357,347 L 357,346 L 359,344 L 359,343 L 360,342 L 360,341 L 361,340 L 361,339 L 362,338 L 362,337 L 363,336 L 363,335 L 364,334 L 364,333 L 365,332 L 365,331 L 366,330 L 366,329 L 367,328 L 367,326 L 368,325 L 368,324 L 369,323 L 369,322 L 370,321 L 370,319 L 371,318 L 371,316 L 372,315 L 372,313 L 373,312 L 373,310 L 374,309 L 374,307 L 375,306 L 375,304 L 376,303 L 376,300 L 377,299 L 377,296 L 378,295 L 378,291 L 379,290 L 379,286 L 380,285 L 380,280 L 381,279 L 381,273 L 382,272 L 382,262 L 383,261 L 383,239 L 382,238 L 382,227 L 381,226 L 381,220 L 380,219 L 380,214 L 379,213 L 379,209 L 378,208 L 378,204 L 377,203 L 377,200 L 376,199 L 376,196 L 375,195 L 375,193 L 374,192 L 374,189 L 373,188 L 373,186 L 372,185 L 372,183 L 371,182 L 371,181 L 370,180 L 370,178 L 369,177 L 369,176 L 368,175 L 368,173 L 367,172 L 367,171 L 366,170 L 366,169 L 365,168 L 365,167 L 364,166 L 364,164 L 363,163 L 363,162 L 361,160 L 361,159 L 360,158 L 360,157 L 359,156 L 359,155 L 358,154 L 358,153 L 356,151 L 356,150 L 355,149 L 355,148 L 353,146 L 353,145 L 351,143 L 351,142 L 349,140 L 349,139 L 346,136 L 346,135 L 342,131 L 342,130 L 326,114 L 325,114 L 321,110 L 320,110 L 317,107 L 316,107 L 314,105 L 313,105 L 311,103 L 310,103 L 308,101 L 307,101 L 306,100 L 305,100 L 304,99 L 303,99 L 301,97 L 299,97 L 298,96 L 297,96 L 296,95 L 295,95 L 294,94 L 293,94 L 292,93 L 290,93 L 289,92 L 287,92 L 286,91 L 285,91 L 284,90 L 281,90 L 280,89 L 278,89 L 277,88 L 274,88 L 273,87 L 269,87 L 268,86 L 261,86 L 260,85 Z" fill="#f0d8d8" stroke="none" /></svg>